%TF.GenerationSoftware,KiCad,Pcbnew,9.0.0*%
%TF.CreationDate,2025-05-19T16:40:14-04:00*%
%TF.ProjectId,BitaxeGT,42697461-7865-4475-942e-6b696361645f,v800*%
%TF.SameCoordinates,Original*%
%TF.FileFunction,Soldermask,Bot*%
%TF.FilePolarity,Negative*%
%FSLAX46Y46*%
G04 Gerber Fmt 4.6, Leading zero omitted, Abs format (unit mm)*
G04 Created by KiCad (PCBNEW 9.0.0) date 2025-05-19 16:40:14*
%MOMM*%
%LPD*%
G01*
G04 APERTURE LIST*
G04 Aperture macros list*
%AMRoundRect*
0 Rectangle with rounded corners*
0 $1 Rounding radius*
0 $2 $3 $4 $5 $6 $7 $8 $9 X,Y pos of 4 corners*
0 Add a 4 corners polygon primitive as box body*
4,1,4,$2,$3,$4,$5,$6,$7,$8,$9,$2,$3,0*
0 Add four circle primitives for the rounded corners*
1,1,$1+$1,$2,$3*
1,1,$1+$1,$4,$5*
1,1,$1+$1,$6,$7*
1,1,$1+$1,$8,$9*
0 Add four rect primitives between the rounded corners*
20,1,$1+$1,$2,$3,$4,$5,0*
20,1,$1+$1,$4,$5,$6,$7,0*
20,1,$1+$1,$6,$7,$8,$9,0*
20,1,$1+$1,$8,$9,$2,$3,0*%
%AMFreePoly0*
4,1,9,3.862500,-0.866500,0.737500,-0.866500,0.737500,-0.450000,-0.737500,-0.450000,-0.737500,0.450000,0.737500,0.450000,0.737500,0.866500,3.862500,0.866500,3.862500,-0.866500,3.862500,-0.866500,$1*%
G04 Aperture macros list end*
%ADD10C,1.050000*%
%ADD11C,0.000000*%
%ADD12C,0.120000*%
%ADD13C,1.000000*%
%ADD14C,1.500000*%
%ADD15C,0.800000*%
%ADD16C,6.400000*%
%ADD17C,1.295400*%
%ADD18C,1.574800*%
%ADD19C,1.700000*%
%ADD20O,1.700000X1.700000*%
%ADD21RoundRect,0.135000X0.185000X-0.135000X0.185000X0.135000X-0.185000X0.135000X-0.185000X-0.135000X0*%
%ADD22RoundRect,0.140000X0.170000X-0.140000X0.170000X0.140000X-0.170000X0.140000X-0.170000X-0.140000X0*%
%ADD23RoundRect,0.140000X-0.140000X-0.170000X0.140000X-0.170000X0.140000X0.170000X-0.140000X0.170000X0*%
%ADD24RoundRect,0.135000X0.135000X0.185000X-0.135000X0.185000X-0.135000X-0.185000X0.135000X-0.185000X0*%
%ADD25RoundRect,0.140000X-0.170000X0.140000X-0.170000X-0.140000X0.170000X-0.140000X0.170000X0.140000X0*%
%ADD26C,0.990600*%
%ADD27C,0.787400*%
%ADD28C,6.000000*%
%ADD29RoundRect,0.250000X-0.650000X0.325000X-0.650000X-0.325000X0.650000X-0.325000X0.650000X0.325000X0*%
%ADD30RoundRect,0.225000X0.225000X0.250000X-0.225000X0.250000X-0.225000X-0.250000X0.225000X-0.250000X0*%
%ADD31RoundRect,0.225000X-0.250000X0.225000X-0.250000X-0.225000X0.250000X-0.225000X0.250000X0.225000X0*%
%ADD32R,1.300000X1.100000*%
%ADD33RoundRect,0.150000X-0.512500X-0.150000X0.512500X-0.150000X0.512500X0.150000X-0.512500X0.150000X0*%
%ADD34RoundRect,0.062500X0.337500X0.062500X-0.337500X0.062500X-0.337500X-0.062500X0.337500X-0.062500X0*%
%ADD35RoundRect,0.062500X0.062500X0.337500X-0.062500X0.337500X-0.062500X-0.337500X0.062500X-0.337500X0*%
%ADD36C,0.400000*%
%ADD37R,3.300000X5.300000*%
%ADD38R,0.599999X0.240000*%
%ADD39R,0.240000X0.599999*%
%ADD40C,0.499999*%
%ADD41R,2.000001X1.000000*%
%ADD42RoundRect,0.135000X-0.135000X-0.185000X0.135000X-0.185000X0.135000X0.185000X-0.135000X0.185000X0*%
%ADD43RoundRect,0.140000X0.140000X0.170000X-0.140000X0.170000X-0.140000X-0.170000X0.140000X-0.170000X0*%
%ADD44R,0.220000X0.599999*%
%ADD45R,1.270000X0.889000*%
%ADD46R,0.787400X1.447800*%
%ADD47C,3.000000*%
%ADD48C,2.000000*%
%ADD49RoundRect,0.250000X0.475000X-0.250000X0.475000X0.250000X-0.475000X0.250000X-0.475000X-0.250000X0*%
%ADD50R,2.600000X4.000000*%
%ADD51R,0.300000X1.300000*%
%ADD52R,2.000000X1.600000*%
%ADD53C,0.650000*%
%ADD54RoundRect,0.150000X-0.150000X-0.425000X0.150000X-0.425000X0.150000X0.425000X-0.150000X0.425000X0*%
%ADD55RoundRect,0.075000X-0.075000X-0.500000X0.075000X-0.500000X0.075000X0.500000X-0.075000X0.500000X0*%
%ADD56O,1.000000X1.800000*%
%ADD57O,1.000000X2.100000*%
%ADD58RoundRect,0.135000X-0.185000X0.135000X-0.185000X-0.135000X0.185000X-0.135000X0.185000X0.135000X0*%
%ADD59RoundRect,0.250000X0.450000X-0.262500X0.450000X0.262500X-0.450000X0.262500X-0.450000X-0.262500X0*%
%ADD60RoundRect,0.225000X0.250000X-0.225000X0.250000X0.225000X-0.250000X0.225000X-0.250000X-0.225000X0*%
%ADD61RoundRect,0.250000X-1.025000X0.787500X-1.025000X-0.787500X1.025000X-0.787500X1.025000X0.787500X0*%
%ADD62R,0.900000X1.500000*%
%ADD63R,1.500000X0.900000*%
%ADD64R,0.900000X0.900000*%
%ADD65RoundRect,0.075000X-0.075000X0.350000X-0.075000X-0.350000X0.075000X-0.350000X0.075000X0.350000X0*%
%ADD66RoundRect,0.075000X-0.350000X0.075000X-0.350000X-0.075000X0.350000X-0.075000X0.350000X0.075000X0*%
%ADD67R,2.100000X2.100000*%
%ADD68C,1.780000*%
%ADD69R,1.270000X3.180000*%
%ADD70RoundRect,0.225000X0.425000X0.225000X-0.425000X0.225000X-0.425000X-0.225000X0.425000X-0.225000X0*%
%ADD71FreePoly0,180.000000*%
G04 APERTURE END LIST*
%TO.C,FID4*%
D10*
X154275000Y-41460000D02*
G75*
G02*
X153225000Y-41460000I-525000J0D01*
G01*
X153225000Y-41460000D02*
G75*
G02*
X154275000Y-41460000I525000J0D01*
G01*
%TO.C,FID3*%
X155225000Y-148500000D02*
G75*
G02*
X154175000Y-148500000I-525000J0D01*
G01*
X154175000Y-148500000D02*
G75*
G02*
X155225000Y-148500000I525000J0D01*
G01*
%TO.C,FID2*%
X107358200Y-148440000D02*
G75*
G02*
X106308200Y-148440000I-525000J0D01*
G01*
X106308200Y-148440000D02*
G75*
G02*
X107358200Y-148440000I525000J0D01*
G01*
%TO.C,FID1*%
X108177800Y-39782000D02*
G75*
G02*
X107127800Y-39782000I-525000J0D01*
G01*
X107127800Y-39782000D02*
G75*
G02*
X108177800Y-39782000I525000J0D01*
G01*
D11*
%TO.C,U3*%
G36*
X136805000Y-51381822D02*
G01*
X136805000Y-51588822D01*
X136922049Y-51869751D01*
X137203001Y-51986822D01*
X137290001Y-51986822D01*
X137340003Y-52036822D01*
X137340001Y-52356821D01*
X137290001Y-52406821D01*
X136280000Y-52406821D01*
X136230000Y-52356821D01*
X136180000Y-52306821D01*
X135880001Y-52306821D01*
X135830001Y-52256822D01*
X135830001Y-52106822D01*
X135880001Y-52056822D01*
X136180000Y-52056822D01*
X136230000Y-52006822D01*
X136230000Y-51856822D01*
X136180000Y-51806820D01*
X135880001Y-51806820D01*
X135830001Y-51756820D01*
X135830001Y-51606820D01*
X135880001Y-51556820D01*
X136180000Y-51556820D01*
X136230000Y-51506821D01*
X136230000Y-51381822D01*
X136280000Y-51331822D01*
X136755001Y-51331822D01*
X136805000Y-51381822D01*
G37*
G36*
X139130000Y-51381822D02*
G01*
X139130000Y-51506821D01*
X139180000Y-51556820D01*
X139479999Y-51556820D01*
X139529999Y-51606820D01*
X139529999Y-51756820D01*
X139479999Y-51806820D01*
X139180000Y-51806820D01*
X139130000Y-51856822D01*
X139130000Y-52006822D01*
X139180000Y-52056822D01*
X139479999Y-52056822D01*
X139529999Y-52106822D01*
X139529999Y-52256822D01*
X139479999Y-52306821D01*
X139180000Y-52306821D01*
X139130000Y-52356821D01*
X139080000Y-52406821D01*
X138069999Y-52406821D01*
X138019999Y-52356821D01*
X138019997Y-52036822D01*
X138069999Y-51986822D01*
X138156999Y-51986822D01*
X138407092Y-51882609D01*
X138450806Y-51838896D01*
X138555000Y-51588822D01*
X138555000Y-51381822D01*
X138604999Y-51331822D01*
X139080000Y-51331822D01*
X139130000Y-51381822D01*
G37*
G36*
X137230001Y-52806820D02*
G01*
X137230001Y-54906819D01*
X137180004Y-54956821D01*
X136280000Y-54956821D01*
X136230000Y-54906819D01*
X136230000Y-54771820D01*
X136180000Y-54721820D01*
X135879999Y-54721820D01*
X135830001Y-54671821D01*
X135830001Y-54521821D01*
X135880001Y-54471821D01*
X136180000Y-54471821D01*
X136230000Y-54421821D01*
X136230000Y-54271821D01*
X136180000Y-54221821D01*
X135880001Y-54221821D01*
X135830001Y-54171822D01*
X135830001Y-54021822D01*
X135880001Y-53971819D01*
X136180000Y-53971822D01*
X136230000Y-53921820D01*
X136230000Y-53771822D01*
X136180000Y-53721820D01*
X135880001Y-53721820D01*
X135830001Y-53671820D01*
X135830001Y-53521820D01*
X135880001Y-53471820D01*
X136180000Y-53471820D01*
X136230000Y-53421818D01*
X136230000Y-53271821D01*
X136180000Y-53221816D01*
X135880001Y-53221821D01*
X135830001Y-53171824D01*
X135829999Y-53021821D01*
X135880001Y-52971824D01*
X136180000Y-52971821D01*
X136230000Y-52921822D01*
X136230000Y-52806820D01*
X136280003Y-52756823D01*
X137179998Y-52756821D01*
X137230001Y-52806820D01*
G37*
G36*
X139080000Y-52756823D02*
G01*
X139130000Y-52806820D01*
X139130000Y-52921822D01*
X139180000Y-52971821D01*
X139479999Y-52971824D01*
X139530001Y-53021821D01*
X139529999Y-53171824D01*
X139479999Y-53221821D01*
X139180000Y-53221818D01*
X139130000Y-53271821D01*
X139130000Y-53421818D01*
X139180000Y-53471820D01*
X139479999Y-53471820D01*
X139529999Y-53521820D01*
X139529999Y-53671820D01*
X139479999Y-53721820D01*
X139180000Y-53721820D01*
X139130000Y-53771820D01*
X139130000Y-53921822D01*
X139180000Y-53971819D01*
X139479999Y-53971819D01*
X139529999Y-54021822D01*
X139529999Y-54171822D01*
X139479999Y-54221821D01*
X139180000Y-54221821D01*
X139130000Y-54271821D01*
X139130000Y-54421821D01*
X139180000Y-54471821D01*
X139479999Y-54471821D01*
X139529999Y-54521821D01*
X139529999Y-54671821D01*
X139479999Y-54721820D01*
X139180000Y-54721820D01*
X139130000Y-54771820D01*
X139130000Y-54906819D01*
X139080000Y-54956821D01*
X138179999Y-54956821D01*
X138129999Y-54906819D01*
X138129999Y-52806820D01*
X138180002Y-52756821D01*
X139080000Y-52756823D01*
G37*
D12*
%TO.C,U6*%
X98520000Y-65750000D02*
X98520000Y-47750000D01*
%TD*%
D13*
%TO.C,FID4*%
X153750000Y-41460000D03*
%TD*%
%TO.C,FID3*%
X154700000Y-148500000D03*
%TD*%
%TO.C,FID2*%
X106833200Y-148440000D03*
%TD*%
%TO.C,FID1*%
X107652800Y-39782000D03*
%TD*%
D14*
%TO.C,TP35*%
X130000000Y-42360000D03*
%TD*%
%TO.C,TP36*%
X107690000Y-43200000D03*
%TD*%
D15*
%TO.C,H4*%
X99600000Y-146500000D03*
X100302944Y-144802944D03*
X100302944Y-148197056D03*
X102000000Y-144100000D03*
D16*
X102000000Y-146500000D03*
D15*
X102000000Y-148900000D03*
X103697056Y-144802944D03*
X103697056Y-148197056D03*
X104400000Y-146500000D03*
%TD*%
D14*
%TO.C,TP32*%
X109020000Y-69700000D03*
%TD*%
D17*
%TO.C,J7*%
X128100600Y-148498852D03*
D18*
X133180600Y-146338851D03*
X130640600Y-146338851D03*
X128100600Y-146338851D03*
X125560600Y-146338851D03*
%TD*%
D14*
%TO.C,TP34*%
X130130000Y-52060000D03*
%TD*%
%TO.C,TP29*%
X103390000Y-68860000D03*
%TD*%
D15*
%TO.C,H2*%
X99600000Y-41500000D03*
X100302944Y-39802944D03*
X100302944Y-43197056D03*
X102000000Y-39100000D03*
D16*
X102000000Y-41500000D03*
D15*
X102000000Y-43900000D03*
X103697056Y-39802944D03*
X103697056Y-43197056D03*
X104400000Y-41500000D03*
%TD*%
%TO.C,H3*%
X157600000Y-146500000D03*
X158302944Y-144802944D03*
X158302944Y-148197056D03*
X160000000Y-144100000D03*
D16*
X160000000Y-146500000D03*
D15*
X160000000Y-148900000D03*
X161697056Y-144802944D03*
X161697056Y-148197056D03*
X162400000Y-146500000D03*
%TD*%
D19*
%TO.C,J3*%
X148200000Y-40550000D03*
D20*
X147800000Y-43090000D03*
X148200000Y-45630000D03*
X147800000Y-48170000D03*
%TD*%
D14*
%TO.C,TP33*%
X112400000Y-68490000D03*
%TD*%
D15*
%TO.C,H1*%
X157600000Y-41500000D03*
X158302944Y-39802944D03*
X158302944Y-43197056D03*
X160000000Y-39100000D03*
D16*
X160000000Y-41500000D03*
D15*
X160000000Y-43900000D03*
X161697056Y-39802944D03*
X161697056Y-43197056D03*
X162400000Y-41500000D03*
%TD*%
D21*
%TO.C,R29*%
X134000000Y-128900000D03*
X134000000Y-127880000D03*
%TD*%
D22*
%TO.C,C17*%
X138300000Y-82080000D03*
X138300000Y-81120000D03*
%TD*%
D23*
%TO.C,C37*%
X115650000Y-84320000D03*
X116610000Y-84320000D03*
%TD*%
D24*
%TO.C,R22*%
X157400000Y-47600000D03*
X156380000Y-47600000D03*
%TD*%
D13*
%TO.C,TP6*%
X158950000Y-118000000D03*
%TD*%
%TO.C,TP20*%
X127950000Y-137400000D03*
%TD*%
D25*
%TO.C,C7*%
X150100000Y-86920000D03*
X150100000Y-87880000D03*
%TD*%
D26*
%TO.C,J8*%
X115940000Y-42465000D03*
X110860000Y-43481000D03*
X110860000Y-41449000D03*
D27*
X114670000Y-43100000D03*
X114670000Y-41830000D03*
X113400000Y-43100000D03*
X113400000Y-41830000D03*
X112130000Y-43100000D03*
X112130000Y-41830000D03*
%TD*%
D22*
%TO.C,C84*%
X143950000Y-117530000D03*
X143950000Y-116570000D03*
%TD*%
D28*
%TO.C,H6*%
X106000000Y-87000000D03*
%TD*%
%TO.C,H5*%
X156000000Y-87000000D03*
%TD*%
D13*
%TO.C,TP30*%
X156800000Y-80700000D03*
%TD*%
D21*
%TO.C,R25*%
X128680000Y-46280000D03*
X128680000Y-45260000D03*
%TD*%
D29*
%TO.C,C12*%
X139800000Y-97975000D03*
X139800000Y-100925000D03*
%TD*%
%TO.C,C33*%
X114850000Y-98000000D03*
X114850000Y-100950000D03*
%TD*%
D30*
%TO.C,C49*%
X107425000Y-46150000D03*
X105875000Y-46150000D03*
%TD*%
D31*
%TO.C,C38*%
X116150000Y-109575000D03*
X116150000Y-111125000D03*
%TD*%
D29*
%TO.C,C14*%
X135200000Y-97975000D03*
X135200000Y-100925000D03*
%TD*%
D22*
%TO.C,C65*%
X107125000Y-109205000D03*
X107125000Y-108245000D03*
%TD*%
D32*
%TO.C,U8*%
X102050000Y-101750000D03*
X104350000Y-101750000D03*
X104350000Y-103650000D03*
X102050000Y-103650000D03*
%TD*%
D21*
%TO.C,R20*%
X106700000Y-74640000D03*
X106700000Y-73620000D03*
%TD*%
D33*
%TO.C,U11*%
X126875000Y-120900000D03*
X126875000Y-119950000D03*
X126875000Y-119000000D03*
X129150000Y-119000000D03*
X129150000Y-120900000D03*
%TD*%
D13*
%TO.C,TP14*%
X100900000Y-123550000D03*
%TD*%
D34*
%TO.C,U4*%
X123500000Y-84500000D03*
X123500000Y-85000000D03*
X123500000Y-85500000D03*
X123500000Y-86000000D03*
X123500000Y-86500000D03*
X123500000Y-87000000D03*
X123500000Y-87500000D03*
X123500000Y-88000000D03*
X123500000Y-88500000D03*
X123500000Y-89000000D03*
X123500000Y-89500000D03*
X123500000Y-90000000D03*
D35*
X122750000Y-90750000D03*
X122250000Y-90750000D03*
X121750000Y-90750000D03*
X121250000Y-90750000D03*
X120750000Y-90750000D03*
X120250000Y-90750000D03*
X119750000Y-90750000D03*
X119250000Y-90750000D03*
D34*
X118500000Y-90000000D03*
X118500000Y-89500000D03*
X118500000Y-89000000D03*
X118500000Y-88500000D03*
X118500000Y-88000000D03*
X118500000Y-87500000D03*
X118500000Y-87000000D03*
X118500000Y-86500000D03*
X118500000Y-86000000D03*
X118500000Y-85500000D03*
X118500000Y-85000000D03*
X118500000Y-84500000D03*
D35*
X119250000Y-83750000D03*
X119750000Y-83750000D03*
X120250000Y-83750000D03*
X120750000Y-83750000D03*
X121250000Y-83750000D03*
X121750000Y-83750000D03*
X122250000Y-83750000D03*
X122750000Y-83750000D03*
D36*
X122280000Y-88650000D03*
X122280000Y-87250000D03*
X122280000Y-85850000D03*
X121000000Y-89650000D03*
X121000000Y-88650000D03*
X121000000Y-87250000D03*
D37*
X121000000Y-87250000D03*
D36*
X121000000Y-85850000D03*
X121000000Y-84850000D03*
X119720000Y-88650000D03*
X119720000Y-87250000D03*
X119720000Y-85850000D03*
%TD*%
D22*
%TO.C,C80*%
X106000000Y-117530000D03*
X106000000Y-116570000D03*
%TD*%
D38*
%TO.C,U2*%
X103670001Y-124150000D03*
D39*
X104070000Y-123250000D03*
X104569999Y-123250000D03*
X105070000Y-123250000D03*
X105570000Y-123250000D03*
X106070001Y-123250000D03*
X106570000Y-123250000D03*
D38*
X106969999Y-124150000D03*
X106969999Y-124650000D03*
D39*
X106570000Y-125550000D03*
X106070001Y-125550000D03*
X105570000Y-125550000D03*
X105070000Y-125550000D03*
X104569999Y-125550000D03*
X104070000Y-125550000D03*
D38*
X103670001Y-124650000D03*
D40*
X106070001Y-124400000D03*
D41*
X105320000Y-124400000D03*
D40*
X104569999Y-124400000D03*
%TD*%
D22*
%TO.C,C85*%
X142600000Y-117530000D03*
X142600000Y-116570000D03*
%TD*%
%TO.C,C75*%
X144940000Y-107310000D03*
X144940000Y-106350000D03*
%TD*%
D25*
%TO.C,C68*%
X116750000Y-106345000D03*
X116750000Y-107305000D03*
%TD*%
D14*
%TO.C,TP25*%
X160920000Y-47440000D03*
%TD*%
D31*
%TO.C,C57*%
X109800000Y-109575000D03*
X109800000Y-111125000D03*
%TD*%
D14*
%TO.C,TP28*%
X133305000Y-48756821D03*
%TD*%
D31*
%TO.C,C2*%
X141675000Y-90600000D03*
X141675000Y-92150000D03*
%TD*%
D14*
%TO.C,TP18*%
X135450000Y-120050000D03*
%TD*%
D23*
%TO.C,C53*%
X102120000Y-99500000D03*
X103080000Y-99500000D03*
%TD*%
D42*
%TO.C,R26*%
X103790000Y-114040000D03*
X104810000Y-114040000D03*
%TD*%
D21*
%TO.C,R21*%
X125990000Y-62790000D03*
X125990000Y-61770000D03*
%TD*%
D13*
%TO.C,TP21*%
X138040000Y-139520000D03*
%TD*%
D22*
%TO.C,C87*%
X155400000Y-117270000D03*
X155400000Y-116310000D03*
%TD*%
D29*
%TO.C,C11*%
X142100000Y-97975000D03*
X142100000Y-100925000D03*
%TD*%
D25*
%TO.C,C71*%
X117725000Y-109270000D03*
X117725000Y-110230000D03*
%TD*%
D42*
%TO.C,R23*%
X106780000Y-128020000D03*
X107800000Y-128020000D03*
%TD*%
%TO.C,R9*%
X154940000Y-76300000D03*
X155960000Y-76300000D03*
%TD*%
D43*
%TO.C,C20*%
X145630000Y-81410000D03*
X144670000Y-81410000D03*
%TD*%
D31*
%TO.C,C58*%
X152200000Y-109575000D03*
X152200000Y-111125000D03*
%TD*%
D14*
%TO.C,TP23*%
X158200000Y-69180000D03*
%TD*%
D42*
%TO.C,R19*%
X118290000Y-82200000D03*
X119310000Y-82200000D03*
%TD*%
D31*
%TO.C,C55*%
X112990000Y-109575000D03*
X112990000Y-111125000D03*
%TD*%
D23*
%TO.C,C92*%
X135020000Y-129890000D03*
X135980000Y-129890000D03*
%TD*%
D13*
%TO.C,TP31*%
X161580000Y-82450000D03*
%TD*%
D44*
%TO.C,U3*%
X137180001Y-51281822D03*
X137680000Y-51281822D03*
X138179999Y-51281822D03*
%TD*%
D42*
%TO.C,R8*%
X144640000Y-80360000D03*
X145660000Y-80360000D03*
%TD*%
D21*
%TO.C,R36*%
X130650000Y-128910000D03*
X130650000Y-127890000D03*
%TD*%
D25*
%TO.C,C88*%
X125212500Y-119970000D03*
X125212500Y-120930000D03*
%TD*%
D31*
%TO.C,C23*%
X117325000Y-90425000D03*
X117325000Y-91975000D03*
%TD*%
D42*
%TO.C,R13*%
X152340000Y-77700000D03*
X153360000Y-77700000D03*
%TD*%
D45*
%TO.C,SW1*%
X101797000Y-77485500D03*
X101797000Y-73294500D03*
D46*
X99904700Y-78768200D03*
X99904700Y-72011800D03*
%TD*%
D22*
%TO.C,C66*%
X108125000Y-108255000D03*
X108125000Y-107295000D03*
%TD*%
D29*
%TO.C,C34*%
X112550000Y-98000000D03*
X112550000Y-100950000D03*
%TD*%
D42*
%TO.C,R39*%
X153390000Y-47600000D03*
X154410000Y-47600000D03*
%TD*%
D13*
%TO.C,TP10*%
X100950000Y-117400000D03*
%TD*%
%TO.C,TP12*%
X100900000Y-120300000D03*
%TD*%
D31*
%TO.C,C60*%
X149000000Y-109575000D03*
X149000000Y-111125000D03*
%TD*%
D14*
%TO.C,TP15*%
X160700000Y-102700000D03*
%TD*%
D29*
%TO.C,C32*%
X117150000Y-98000000D03*
X117150000Y-100950000D03*
%TD*%
D47*
%TO.C,J1*%
X150350000Y-60250000D03*
X150350000Y-55250000D03*
D48*
X160350000Y-63250000D03*
X160350000Y-52250000D03*
%TD*%
D31*
%TO.C,C59*%
X150600000Y-109575000D03*
X150600000Y-111125000D03*
%TD*%
D49*
%TO.C,C29*%
X127725000Y-88325000D03*
X127725000Y-86425000D03*
%TD*%
D50*
%TO.C,L1*%
X153850000Y-94425000D03*
X153850000Y-102375000D03*
%TD*%
D31*
%TO.C,C54*%
X114550000Y-109575000D03*
X114550000Y-111125000D03*
%TD*%
D13*
%TO.C,TP11*%
X141650000Y-112550000D03*
%TD*%
D50*
%TO.C,L2*%
X128500000Y-94425000D03*
X128500000Y-102375000D03*
%TD*%
D22*
%TO.C,C81*%
X107550000Y-117530000D03*
X107550000Y-116570000D03*
%TD*%
D14*
%TO.C,TP24*%
X161470000Y-69180000D03*
%TD*%
D42*
%TO.C,R18*%
X135595000Y-49631821D03*
X136615000Y-49631821D03*
%TD*%
D22*
%TO.C,C83*%
X118250000Y-117530000D03*
X118250000Y-116570000D03*
%TD*%
D31*
%TO.C,C24*%
X115850000Y-90425000D03*
X115850000Y-91975000D03*
%TD*%
D51*
%TO.C,J2*%
X139070000Y-44180000D03*
X138570000Y-44180000D03*
X138070000Y-44180000D03*
X137570000Y-44180000D03*
X137070000Y-44180000D03*
X136570000Y-44180000D03*
X136070000Y-44180000D03*
X135570000Y-44180000D03*
D52*
X133870000Y-41500000D03*
X140770000Y-41500000D03*
%TD*%
D53*
%TO.C,J4*%
X119460000Y-44565000D03*
X125240000Y-44565000D03*
D54*
X119150000Y-45640000D03*
X119950000Y-45640000D03*
D55*
X121100000Y-45640000D03*
X122100000Y-45640000D03*
X122600000Y-45640000D03*
X123600000Y-45640000D03*
D54*
X125550000Y-45640000D03*
X124750000Y-45640000D03*
D55*
X124100000Y-45640000D03*
X123100000Y-45640000D03*
X121600000Y-45640000D03*
X120600000Y-45640000D03*
D56*
X118030000Y-40885000D03*
D57*
X118030000Y-45065000D03*
D56*
X126670000Y-40885000D03*
D57*
X126670000Y-45065000D03*
%TD*%
D34*
%TO.C,U1*%
X147850000Y-84500000D03*
X147850000Y-85000000D03*
X147850000Y-85500000D03*
X147850000Y-86000000D03*
X147850000Y-86500000D03*
X147850000Y-87000000D03*
X147850000Y-87500000D03*
X147850000Y-88000000D03*
X147850000Y-88500000D03*
X147850000Y-89000000D03*
X147850000Y-89500000D03*
X147850000Y-90000000D03*
D35*
X147100000Y-90750000D03*
X146600000Y-90750000D03*
X146100000Y-90750000D03*
X145600000Y-90750000D03*
X145100000Y-90750000D03*
X144600000Y-90750000D03*
X144100000Y-90750000D03*
X143600000Y-90750000D03*
D34*
X142850000Y-90000000D03*
X142850000Y-89500000D03*
X142850000Y-89000000D03*
X142850000Y-88500000D03*
X142850000Y-88000000D03*
X142850000Y-87500000D03*
X142850000Y-87000000D03*
X142850000Y-86500000D03*
X142850000Y-86000000D03*
X142850000Y-85500000D03*
X142850000Y-85000000D03*
X142850000Y-84500000D03*
D35*
X143600000Y-83750000D03*
X144100000Y-83750000D03*
X144600000Y-83750000D03*
X145100000Y-83750000D03*
X145600000Y-83750000D03*
X146100000Y-83750000D03*
X146600000Y-83750000D03*
X147100000Y-83750000D03*
D36*
X146630000Y-88650000D03*
X146630000Y-87250000D03*
X146630000Y-85850000D03*
X145350000Y-89650000D03*
X145350000Y-88650000D03*
X145350000Y-87250000D03*
D37*
X145350000Y-87250000D03*
D36*
X145350000Y-85850000D03*
X145350000Y-84850000D03*
X144070000Y-88650000D03*
X144070000Y-87250000D03*
X144070000Y-85850000D03*
%TD*%
D13*
%TO.C,TP8*%
X159000000Y-113850000D03*
%TD*%
D24*
%TO.C,R40*%
X157410000Y-48800000D03*
X156390000Y-48800000D03*
%TD*%
%TO.C,R4*%
X137790000Y-83690000D03*
X136770000Y-83690000D03*
%TD*%
D22*
%TO.C,C67*%
X109150000Y-107330000D03*
X109150000Y-106370000D03*
%TD*%
D23*
%TO.C,C46*%
X138010000Y-65460000D03*
X138970000Y-65460000D03*
%TD*%
D21*
%TO.C,R32*%
X132950000Y-128900000D03*
X132950000Y-127880000D03*
%TD*%
%TO.C,R34*%
X131700000Y-128910000D03*
X131700000Y-127890000D03*
%TD*%
D25*
%TO.C,C90*%
X125262500Y-114820000D03*
X125262500Y-115780000D03*
%TD*%
D58*
%TO.C,R35*%
X129500000Y-128840000D03*
X129500000Y-129860000D03*
%TD*%
D21*
%TO.C,R33*%
X128450000Y-129860000D03*
X128450000Y-128840000D03*
%TD*%
D24*
%TO.C,R30*%
X132110000Y-139300000D03*
X131090000Y-139300000D03*
%TD*%
D59*
%TO.C,R2*%
X151930000Y-84122500D03*
X151930000Y-82297500D03*
%TD*%
D14*
%TO.C,TP17*%
X160900000Y-91700000D03*
%TD*%
D23*
%TO.C,C47*%
X137600000Y-58200000D03*
X138560000Y-58200000D03*
%TD*%
D21*
%TO.C,R1*%
X143260000Y-81320000D03*
X143260000Y-80300000D03*
%TD*%
D22*
%TO.C,C64*%
X108125000Y-110155000D03*
X108125000Y-109195000D03*
%TD*%
D43*
%TO.C,C15*%
X141450000Y-80820000D03*
X140490000Y-80820000D03*
%TD*%
D13*
%TO.C,TP9*%
X159000000Y-111800000D03*
%TD*%
D25*
%TO.C,C70*%
X118775000Y-108395000D03*
X118775000Y-109355000D03*
%TD*%
%TO.C,C78*%
X155050000Y-108170000D03*
X155050000Y-109130000D03*
%TD*%
D33*
%TO.C,U12*%
X126875000Y-115762500D03*
X126875000Y-114812500D03*
X126875000Y-113862500D03*
X129150000Y-113862500D03*
X129150000Y-115762500D03*
%TD*%
D13*
%TO.C,TP13*%
X139700000Y-115950000D03*
%TD*%
D43*
%TO.C,C19*%
X152430000Y-80860000D03*
X151470000Y-80860000D03*
%TD*%
D58*
%TO.C,R5*%
X139380000Y-81090000D03*
X139380000Y-82110000D03*
%TD*%
D14*
%TO.C,TP19*%
X133262500Y-117600000D03*
%TD*%
D25*
%TO.C,C76*%
X153010000Y-106310000D03*
X153010000Y-107270000D03*
%TD*%
D22*
%TO.C,C74*%
X143925000Y-108280000D03*
X143925000Y-107320000D03*
%TD*%
D31*
%TO.C,C62*%
X145800000Y-109575000D03*
X145800000Y-111125000D03*
%TD*%
D60*
%TO.C,C39*%
X140955000Y-51656821D03*
X140955000Y-50106821D03*
%TD*%
D31*
%TO.C,C56*%
X111400000Y-109575000D03*
X111400000Y-111125000D03*
%TD*%
D59*
%TO.C,R15*%
X127695000Y-84652500D03*
X127695000Y-82827500D03*
%TD*%
D13*
%TO.C,TP7*%
X159000000Y-115900000D03*
%TD*%
D25*
%TO.C,C48*%
X106700000Y-76150000D03*
X106700000Y-77110000D03*
%TD*%
D42*
%TO.C,R31*%
X133240000Y-137700000D03*
X134260000Y-137700000D03*
%TD*%
D21*
%TO.C,R14*%
X130090000Y-46280000D03*
X130090000Y-45260000D03*
%TD*%
D61*
%TO.C,C1*%
X136325000Y-87962500D03*
X136325000Y-94187500D03*
%TD*%
D25*
%TO.C,C79*%
X154050000Y-109195000D03*
X154050000Y-110155000D03*
%TD*%
D31*
%TO.C,C61*%
X147400000Y-109575000D03*
X147400000Y-111125000D03*
%TD*%
D42*
%TO.C,R10*%
X154940000Y-77700000D03*
X155960000Y-77700000D03*
%TD*%
%TO.C,R7*%
X154940000Y-79150000D03*
X155960000Y-79150000D03*
%TD*%
D14*
%TO.C,TP27*%
X127060000Y-54480000D03*
%TD*%
D62*
%TO.C,U6*%
X106010000Y-48000000D03*
X107280000Y-48000000D03*
X108550000Y-48000000D03*
X109820000Y-48000000D03*
X111090000Y-48000000D03*
X112360000Y-48000000D03*
X113630000Y-48000000D03*
X114900000Y-48000000D03*
X116170000Y-48000000D03*
X117440000Y-48000000D03*
X118710000Y-48000000D03*
X119980000Y-48000000D03*
X121250000Y-48000000D03*
X122520000Y-48000000D03*
D63*
X123770000Y-49765000D03*
X123770000Y-51035000D03*
X123770000Y-52305000D03*
X123770000Y-53575000D03*
X123770000Y-54845000D03*
X123770000Y-56115000D03*
X123770000Y-57385000D03*
X123770000Y-58655000D03*
X123770000Y-59925000D03*
X123770000Y-61195000D03*
X123770000Y-62465000D03*
X123770000Y-63735000D03*
D62*
X122520000Y-65500000D03*
X121250000Y-65500000D03*
X119980000Y-65500000D03*
X118710000Y-65500000D03*
X117440000Y-65500000D03*
X116170000Y-65500000D03*
X114900000Y-65500000D03*
X113630000Y-65500000D03*
X112360000Y-65500000D03*
X111090000Y-65500000D03*
X109820000Y-65500000D03*
X108550000Y-65500000D03*
X107280000Y-65500000D03*
X106010000Y-65500000D03*
D64*
X115130000Y-53850000D03*
X113730000Y-53850000D03*
X112330000Y-53850000D03*
X115130000Y-55250000D03*
X113730000Y-55250000D03*
X112330000Y-55250000D03*
X115130000Y-56650000D03*
X113730000Y-56650000D03*
X112330000Y-56650000D03*
%TD*%
D31*
%TO.C,C3*%
X140200000Y-90600000D03*
X140200000Y-92150000D03*
%TD*%
D25*
%TO.C,C28*%
X126000000Y-86870000D03*
X126000000Y-87830000D03*
%TD*%
D43*
%TO.C,C91*%
X132230000Y-115750000D03*
X131270000Y-115750000D03*
%TD*%
D29*
%TO.C,C31*%
X119450000Y-98000000D03*
X119450000Y-100950000D03*
%TD*%
D24*
%TO.C,R11*%
X153375000Y-79150000D03*
X152355000Y-79150000D03*
%TD*%
D60*
%TO.C,C41*%
X144170000Y-134315000D03*
X144170000Y-132765000D03*
%TD*%
%TO.C,C44*%
X133005000Y-53556821D03*
X133005000Y-52006821D03*
%TD*%
D43*
%TO.C,C45*%
X121380000Y-82250000D03*
X120420000Y-82250000D03*
%TD*%
D42*
%TO.C,R12*%
X152340000Y-76300000D03*
X153360000Y-76300000D03*
%TD*%
D23*
%TO.C,C18*%
X143260000Y-79160000D03*
X144220000Y-79160000D03*
%TD*%
D14*
%TO.C,TP22*%
X154930000Y-69180000D03*
%TD*%
D29*
%TO.C,C9*%
X146700000Y-97975000D03*
X146700000Y-100925000D03*
%TD*%
D43*
%TO.C,C93*%
X133930000Y-129900000D03*
X132970000Y-129900000D03*
%TD*%
D65*
%TO.C,U13*%
X131450000Y-132325000D03*
X132100000Y-132325000D03*
X132750000Y-132325000D03*
X133400000Y-132325000D03*
D66*
X134375000Y-133300000D03*
X134375000Y-133950000D03*
X134375000Y-134600000D03*
X134375000Y-135250000D03*
D65*
X133400000Y-136225000D03*
X132750000Y-136225000D03*
X132100000Y-136225000D03*
X131450000Y-136225000D03*
D66*
X130475000Y-135250000D03*
X130475000Y-134600000D03*
X130475000Y-133950000D03*
X130475000Y-133300000D03*
D67*
X132425000Y-134275000D03*
%TD*%
D22*
%TO.C,C72*%
X143925000Y-110180000D03*
X143925000Y-109220000D03*
%TD*%
%TO.C,C86*%
X154200000Y-117270000D03*
X154200000Y-116310000D03*
%TD*%
D29*
%TO.C,C13*%
X137500000Y-97975000D03*
X137500000Y-100925000D03*
%TD*%
D58*
%TO.C,R6*%
X127430000Y-60530000D03*
X127430000Y-61550000D03*
%TD*%
D61*
%TO.C,C22*%
X112475000Y-88187500D03*
X112475000Y-94412500D03*
%TD*%
D28*
%TO.C,H8*%
X156000000Y-137000000D03*
%TD*%
D29*
%TO.C,C10*%
X144400000Y-97975000D03*
X144400000Y-100925000D03*
%TD*%
D23*
%TO.C,C94*%
X131120000Y-140500000D03*
X132080000Y-140500000D03*
%TD*%
D29*
%TO.C,C35*%
X110237500Y-98000000D03*
X110237500Y-100950000D03*
%TD*%
D22*
%TO.C,C73*%
X142900000Y-109380000D03*
X142900000Y-108420000D03*
%TD*%
D68*
%TO.C,J9*%
X142339500Y-142944000D03*
X147419500Y-142944000D03*
D69*
X141069500Y-137664000D03*
X143609500Y-137664000D03*
X146149500Y-137664000D03*
X148689500Y-137664000D03*
%TD*%
D25*
%TO.C,C36*%
X116620000Y-82060000D03*
X116620000Y-83020000D03*
%TD*%
D42*
%TO.C,R28*%
X139740000Y-114450000D03*
X140760000Y-114450000D03*
%TD*%
%TO.C,R16*%
X114440000Y-83040000D03*
X115460000Y-83040000D03*
%TD*%
%TO.C,R38*%
X153390000Y-48800000D03*
X154410000Y-48800000D03*
%TD*%
%TO.C,R17*%
X138320000Y-49581821D03*
X139340000Y-49581821D03*
%TD*%
D13*
%TO.C,TP16*%
X139650000Y-118000000D03*
%TD*%
D42*
%TO.C,R3*%
X136770000Y-84890000D03*
X137790000Y-84890000D03*
%TD*%
D13*
%TO.C,TP5*%
X158900000Y-120050000D03*
%TD*%
D25*
%TO.C,C16*%
X138970000Y-83620000D03*
X138970000Y-84580000D03*
%TD*%
D28*
%TO.C,H7*%
X106000000Y-137000000D03*
%TD*%
D13*
%TO.C,TP1*%
X154490000Y-81690000D03*
%TD*%
D58*
%TO.C,R37*%
X125990000Y-59210000D03*
X125990000Y-60230000D03*
%TD*%
D42*
%TO.C,R24*%
X103790000Y-112750000D03*
X104810000Y-112750000D03*
%TD*%
D49*
%TO.C,C8*%
X151625000Y-87875000D03*
X151625000Y-85975000D03*
%TD*%
D43*
%TO.C,C89*%
X132280000Y-120900000D03*
X131320000Y-120900000D03*
%TD*%
D25*
%TO.C,C69*%
X117750000Y-107320000D03*
X117750000Y-108280000D03*
%TD*%
D42*
%TO.C,R27*%
X134190000Y-113850000D03*
X135210000Y-113850000D03*
%TD*%
D25*
%TO.C,C42*%
X125700000Y-84020000D03*
X125700000Y-84980000D03*
%TD*%
D13*
%TO.C,TP4*%
X104400000Y-105500000D03*
%TD*%
D25*
%TO.C,C77*%
X154050000Y-107295000D03*
X154050000Y-108255000D03*
%TD*%
D43*
%TO.C,C95*%
X131680000Y-129900000D03*
X130720000Y-129900000D03*
%TD*%
D22*
%TO.C,C51*%
X101700000Y-129170000D03*
X101700000Y-128210000D03*
%TD*%
D29*
%TO.C,C30*%
X121750000Y-98000000D03*
X121750000Y-100950000D03*
%TD*%
D22*
%TO.C,C82*%
X119750000Y-117530000D03*
X119750000Y-116570000D03*
%TD*%
D25*
%TO.C,C52*%
X104000000Y-129210000D03*
X104000000Y-130170000D03*
%TD*%
D70*
%TO.C,U5*%
X138940000Y-60297500D03*
D71*
X138852500Y-61797500D03*
D70*
X138940000Y-63297500D03*
%TD*%
D13*
%TO.C,TP3*%
X161560000Y-85380000D03*
%TD*%
D45*
%TO.C,SW2*%
X160203000Y-73344500D03*
X160203000Y-77535500D03*
D46*
X162095300Y-72061800D03*
X162095300Y-78818200D03*
%TD*%
D60*
%TO.C,C43*%
X134555000Y-53556821D03*
X134555000Y-52006821D03*
%TD*%
M02*
