%TF.GenerationSoftware,KiCad,Pcbnew,8.0.7*%
%TF.CreationDate,2025-02-10T22:40:20-05:00*%
%TF.ProjectId,BitaxeGT,42697461-7865-4475-942e-6b696361645f,v800*%
%TF.SameCoordinates,Original*%
%TF.FileFunction,Copper,L4,Inr*%
%TF.FilePolarity,Positive*%
%FSLAX46Y46*%
G04 Gerber Fmt 4.6, Leading zero omitted, Abs format (unit mm)*
G04 Created by KiCad (PCBNEW 8.0.7) date 2025-02-10 22:40:20*
%MOMM*%
%LPD*%
G01*
G04 APERTURE LIST*
%TA.AperFunction,ComponentPad*%
%ADD10C,6.000000*%
%TD*%
%TA.AperFunction,ComponentPad*%
%ADD11C,0.800000*%
%TD*%
%TA.AperFunction,ComponentPad*%
%ADD12C,6.400000*%
%TD*%
%TA.AperFunction,ComponentPad*%
%ADD13R,1.700000X1.700000*%
%TD*%
%TA.AperFunction,ComponentPad*%
%ADD14O,1.700000X1.700000*%
%TD*%
%TA.AperFunction,ComponentPad*%
%ADD15C,3.000000*%
%TD*%
%TA.AperFunction,ComponentPad*%
%ADD16C,2.000000*%
%TD*%
%TA.AperFunction,ComponentPad*%
%ADD17C,1.574800*%
%TD*%
%TA.AperFunction,ComponentPad*%
%ADD18C,1.700000*%
%TD*%
%TA.AperFunction,ComponentPad*%
%ADD19C,0.400000*%
%TD*%
%TA.AperFunction,ComponentPad*%
%ADD20O,1.000000X2.100000*%
%TD*%
%TA.AperFunction,ComponentPad*%
%ADD21O,1.000000X1.800000*%
%TD*%
%TA.AperFunction,ViaPad*%
%ADD22C,0.500000*%
%TD*%
%TA.AperFunction,ViaPad*%
%ADD23C,0.600000*%
%TD*%
%TA.AperFunction,ViaPad*%
%ADD24C,1.000000*%
%TD*%
%TA.AperFunction,ViaPad*%
%ADD25C,0.800000*%
%TD*%
%TA.AperFunction,ViaPad*%
%ADD26C,0.700000*%
%TD*%
%TA.AperFunction,ViaPad*%
%ADD27C,0.400000*%
%TD*%
%TA.AperFunction,Conductor*%
%ADD28C,0.800000*%
%TD*%
%TA.AperFunction,Conductor*%
%ADD29C,0.500000*%
%TD*%
%TA.AperFunction,Conductor*%
%ADD30C,0.200000*%
%TD*%
%TA.AperFunction,Conductor*%
%ADD31C,0.400000*%
%TD*%
G04 APERTURE END LIST*
D10*
%TO.N,unconnected-(H5-Pad1)*%
%TO.C,H5*%
X156000000Y-87000000D03*
%TD*%
%TO.N,unconnected-(H8-Pad1)*%
%TO.C,H8*%
X156000000Y-137000000D03*
%TD*%
%TO.N,unconnected-(H7-Pad1)*%
%TO.C,H7*%
X106000000Y-137000000D03*
%TD*%
%TO.N,unconnected-(H6-Pad1)*%
%TO.C,H6*%
X106000000Y-87000000D03*
%TD*%
D11*
%TO.N,GND*%
%TO.C,H4*%
X99600000Y-146500000D03*
X100302944Y-144802944D03*
X100302944Y-148197056D03*
X102000000Y-144100000D03*
D12*
X102000000Y-146500000D03*
D11*
X102000000Y-148900000D03*
X103697056Y-144802944D03*
X103697056Y-148197056D03*
X104400000Y-146500000D03*
%TD*%
%TO.N,GND*%
%TO.C,H2*%
X99600000Y-41500000D03*
X100302944Y-39802944D03*
X100302944Y-43197056D03*
X102000000Y-39100000D03*
D12*
X102000000Y-41500000D03*
D11*
X102000000Y-43900000D03*
X103697056Y-39802944D03*
X103697056Y-43197056D03*
X104400000Y-41500000D03*
%TD*%
%TO.N,GND*%
%TO.C,H3*%
X157600000Y-146500000D03*
X158302944Y-144802944D03*
X158302944Y-148197056D03*
X160000000Y-144100000D03*
D12*
X160000000Y-146500000D03*
D11*
X160000000Y-148900000D03*
X161697056Y-144802944D03*
X161697056Y-148197056D03*
X162400000Y-146500000D03*
%TD*%
%TO.N,GND*%
%TO.C,H1*%
X157600000Y-41500000D03*
X158302944Y-39802944D03*
X158302944Y-43197056D03*
X160000000Y-39100000D03*
D12*
X160000000Y-41500000D03*
D11*
X160000000Y-43900000D03*
X161697056Y-39802944D03*
X161697056Y-43197056D03*
X162400000Y-41500000D03*
%TD*%
D13*
%TO.N,/ESP32/VIN*%
%TO.C,J5*%
X142850000Y-41500000D03*
D14*
%TO.N,GND*%
X140310000Y-41500000D03*
%TO.N,Net-(J5-Pin_3)*%
X137770000Y-41500000D03*
%TO.N,Net-(J5-Pin_4)*%
X135230000Y-41500000D03*
%TO.N,Net-(J5-Pin_5)*%
X132690000Y-41500000D03*
%TO.N,Net-(J5-Pin_6)*%
X130150000Y-41500000D03*
%TD*%
D15*
%TO.N,VIN*%
%TO.C,J1*%
X150350000Y-55250000D03*
%TO.N,GND*%
X150350000Y-60250000D03*
D16*
%TO.N,unconnected-(J1-MNT1-Pad3)*%
X160350000Y-52250000D03*
%TO.N,unconnected-(J1-MNT2-Pad4)*%
X160350000Y-63250000D03*
%TD*%
D17*
%TO.N,/fan/FAN_PWM*%
%TO.C,J7*%
X133000600Y-146338851D03*
%TO.N,/fan/FAN_TACH*%
X135540600Y-146338851D03*
%TO.N,/12V*%
X138080600Y-146338851D03*
%TO.N,GND*%
X140620600Y-146338851D03*
%TD*%
D18*
%TO.N,GND*%
%TO.C,J3*%
X148200000Y-40550000D03*
D14*
%TO.N,/3V3*%
X147800000Y-43090000D03*
%TO.N,/ESP32/SCL*%
X148200000Y-45630000D03*
%TO.N,/ESP32/SDA*%
X147800000Y-48170000D03*
%TD*%
D19*
%TO.N,GND*%
%TO.C,U4*%
X119720000Y-85850000D03*
X119720000Y-87250000D03*
X119720000Y-88650000D03*
X121000000Y-84850000D03*
X121000000Y-85850000D03*
X121000000Y-87250000D03*
X121000000Y-88650000D03*
X121000000Y-89650000D03*
X122280000Y-85850000D03*
X122280000Y-87250000D03*
X122280000Y-88650000D03*
%TD*%
D20*
%TO.N,GND*%
%TO.C,J4*%
X126670000Y-45065000D03*
D21*
X126670000Y-40885000D03*
D20*
X118030000Y-45065000D03*
D21*
X118030000Y-40885000D03*
%TD*%
D19*
%TO.N,GND*%
%TO.C,U1*%
X144070000Y-85850000D03*
X144070000Y-87250000D03*
X144070000Y-88650000D03*
X145350000Y-84850000D03*
X145350000Y-85850000D03*
X145350000Y-87250000D03*
X145350000Y-88650000D03*
X145350000Y-89650000D03*
X146630000Y-85850000D03*
X146630000Y-87250000D03*
X146630000Y-88650000D03*
%TD*%
D22*
%TO.N,/12V*%
X154450000Y-53250000D03*
X153550000Y-55650000D03*
X136000000Y-88300000D03*
X144500000Y-53300000D03*
X142000000Y-89400000D03*
X144500000Y-54900000D03*
X113375000Y-88400000D03*
X116200000Y-88800000D03*
X116900000Y-88200000D03*
X153550000Y-53250000D03*
X147050000Y-53300000D03*
X146200000Y-56500000D03*
X147950000Y-54100000D03*
X154450000Y-54050000D03*
X112175000Y-88400000D03*
X147050000Y-54100000D03*
X152750000Y-54050000D03*
X112775000Y-88400000D03*
X146200000Y-53300000D03*
X153550000Y-54850000D03*
X146200000Y-54100000D03*
X147950000Y-53300000D03*
X140600000Y-89400000D03*
X152750000Y-56450000D03*
X116900000Y-90000000D03*
X145400000Y-53300000D03*
X142000000Y-88200000D03*
X142000000Y-88800000D03*
X116900000Y-88800000D03*
X140600000Y-88200000D03*
X112175000Y-87800000D03*
X152750000Y-54850000D03*
X137200000Y-88300000D03*
X136600000Y-87700000D03*
X147950000Y-56500000D03*
X117600000Y-89400000D03*
X147050000Y-55700000D03*
X154450000Y-55650000D03*
X113375000Y-87800000D03*
X136000000Y-87700000D03*
X147050000Y-56500000D03*
X146200000Y-55700000D03*
X141300000Y-88200000D03*
X112775000Y-87800000D03*
X155250000Y-53250000D03*
X155250000Y-54050000D03*
X117600000Y-88200000D03*
D23*
X143150000Y-136975000D03*
D22*
X137200000Y-87700000D03*
X116200000Y-88200000D03*
X155250000Y-54850000D03*
X145400000Y-56500000D03*
X145400000Y-55700000D03*
X155250000Y-56450000D03*
X145400000Y-54900000D03*
X141300000Y-89400000D03*
X141300000Y-90000000D03*
X153550000Y-56450000D03*
X152750000Y-53250000D03*
X155250000Y-55650000D03*
X135425000Y-88300000D03*
X153550000Y-54050000D03*
X144500000Y-56500000D03*
X144500000Y-54100000D03*
X116900000Y-89400000D03*
X154450000Y-54850000D03*
X111600000Y-87800000D03*
X154450000Y-56450000D03*
X145400000Y-54100000D03*
X144500000Y-55700000D03*
X116200000Y-89400000D03*
X111600000Y-88400000D03*
X141300000Y-88800000D03*
X136600000Y-88300000D03*
X140600000Y-90000000D03*
X147950000Y-55700000D03*
X117600000Y-88800000D03*
X117600000Y-90000000D03*
X116200000Y-90000000D03*
X135425000Y-87700000D03*
X140600000Y-88800000D03*
X146200000Y-54900000D03*
X147050000Y-54900000D03*
X152750000Y-55650000D03*
X147950000Y-54900000D03*
X142000000Y-90000000D03*
%TO.N,/Power/AGND1*%
X151650000Y-80300000D03*
X147700000Y-81550000D03*
D23*
X141724265Y-80724265D03*
D22*
X145500000Y-82750000D03*
D23*
%TO.N,/Vcore*%
X140200000Y-101975000D03*
X137100000Y-101975000D03*
X119800000Y-102800000D03*
X131950000Y-103450000D03*
X122150000Y-102100000D03*
X146380000Y-101975000D03*
X129000000Y-101900000D03*
X149500000Y-107400000D03*
X153400000Y-103550000D03*
X137800000Y-101975000D03*
X150500000Y-107400000D03*
X111500000Y-107400000D03*
X149550000Y-102000000D03*
X154200000Y-102750000D03*
X115162500Y-102800000D03*
X116850000Y-102100000D03*
X133550000Y-103450000D03*
X148750000Y-103550000D03*
X153400000Y-101950000D03*
X123450000Y-103450000D03*
X116850000Y-102800000D03*
X146500000Y-107400000D03*
X113500000Y-109500000D03*
X155000000Y-101950000D03*
X149550000Y-102800000D03*
X142500000Y-101975000D03*
X125050000Y-104250000D03*
X146380000Y-102675000D03*
X127400000Y-101900000D03*
X151150000Y-102000000D03*
X113500000Y-108500000D03*
X128200000Y-101900000D03*
X146380000Y-101275000D03*
D22*
X133325000Y-100600000D03*
D23*
X142500000Y-83200000D03*
X112862500Y-101400000D03*
X115500000Y-107400000D03*
X131150000Y-103450000D03*
X119100000Y-102100000D03*
X129800000Y-103450000D03*
X119800000Y-101400000D03*
X147500000Y-109500000D03*
X152600000Y-103550000D03*
X123450000Y-104250000D03*
X152600000Y-102750000D03*
X129800000Y-104250000D03*
X109900000Y-101400000D03*
X133550000Y-104250000D03*
X108575000Y-67625000D03*
X114500000Y-109500000D03*
X148500000Y-107400000D03*
X121450000Y-102800000D03*
X144000000Y-101275000D03*
X137100000Y-102675000D03*
X148750000Y-104350000D03*
X146500000Y-108500000D03*
X153400000Y-102750000D03*
X152600000Y-101950000D03*
X114462500Y-102800000D03*
X135500000Y-102700000D03*
X110500000Y-108500000D03*
X114462500Y-101400000D03*
X140200000Y-101275000D03*
X112862500Y-102800000D03*
X151500000Y-107400000D03*
X135500000Y-101300000D03*
X150500000Y-108500000D03*
X135500000Y-102000000D03*
X152600000Y-104350000D03*
X134800000Y-102000000D03*
X119800000Y-102100000D03*
X113500000Y-107400000D03*
X114462500Y-102100000D03*
X112500000Y-109500000D03*
X114500000Y-108500000D03*
X109900000Y-102100000D03*
X119100000Y-102800000D03*
X149550000Y-103550000D03*
X125850000Y-103450000D03*
X151150000Y-104350000D03*
X119100000Y-101400000D03*
X154200000Y-103550000D03*
X115500000Y-108500000D03*
X148500000Y-109500000D03*
X110600000Y-101400000D03*
X110500000Y-107400000D03*
X149500000Y-108500000D03*
X147500000Y-108500000D03*
X142500000Y-102675000D03*
X117550000Y-102100000D03*
X129000000Y-104250000D03*
X141800000Y-101275000D03*
X132750000Y-103450000D03*
X128200000Y-102650000D03*
X131950000Y-104250000D03*
X115162500Y-102100000D03*
X141800000Y-102675000D03*
X148750000Y-102800000D03*
X150350000Y-104350000D03*
X139500000Y-101975000D03*
X112162500Y-102800000D03*
X148500000Y-108500000D03*
X155000000Y-103550000D03*
X128200000Y-103450000D03*
X116850000Y-101400000D03*
X142500000Y-101275000D03*
X115162500Y-101400000D03*
X129800000Y-101900000D03*
X112500000Y-107400000D03*
D22*
X160700000Y-102700000D03*
D23*
X134800000Y-102700000D03*
X137100000Y-101275000D03*
X151150000Y-103550000D03*
X112162500Y-101400000D03*
X150350000Y-102800000D03*
X124250000Y-103450000D03*
X117550000Y-101400000D03*
X111500000Y-108500000D03*
X112862500Y-102100000D03*
X114500000Y-107400000D03*
X139500000Y-102675000D03*
X154200000Y-101950000D03*
X144000000Y-102675000D03*
X131050000Y-106450000D03*
X110500000Y-109500000D03*
X147080000Y-102675000D03*
X121450000Y-102100000D03*
X117550000Y-102800000D03*
X132750000Y-104250000D03*
X127400000Y-103450000D03*
X129800000Y-102650000D03*
X147080000Y-101975000D03*
X153400000Y-104350000D03*
X151500000Y-109500000D03*
X149550000Y-104350000D03*
X121450000Y-101400000D03*
X124250000Y-104250000D03*
X125050000Y-103450000D03*
X112500000Y-108500000D03*
X134800000Y-101300000D03*
X155000000Y-102750000D03*
X147080000Y-101275000D03*
X137800000Y-101275000D03*
X140200000Y-102675000D03*
X141800000Y-101975000D03*
X137800000Y-102675000D03*
X144700000Y-101275000D03*
X148750000Y-102000000D03*
X110600000Y-102100000D03*
X150350000Y-103550000D03*
X144000000Y-101975000D03*
X129000000Y-103450000D03*
X122150000Y-101400000D03*
X109900000Y-102800000D03*
X151500000Y-108500000D03*
X144700000Y-101975000D03*
X151150000Y-102800000D03*
X150350000Y-102000000D03*
X110600000Y-102800000D03*
X115500000Y-109500000D03*
X147500000Y-107400000D03*
X144700000Y-102675000D03*
X154200000Y-104350000D03*
X139500000Y-101275000D03*
X155000000Y-104350000D03*
X129000000Y-102650000D03*
X146500000Y-109500000D03*
X131150000Y-104250000D03*
X127400000Y-104250000D03*
X111500000Y-109500000D03*
X150500000Y-109500000D03*
X127400000Y-102650000D03*
X122150000Y-102800000D03*
X112162500Y-102100000D03*
X149500000Y-109500000D03*
X128200000Y-104250000D03*
X125850000Y-104250000D03*
D22*
%TO.N,/Power/VSHARE*%
X120450000Y-81200000D03*
X144550000Y-82800000D03*
%TO.N,/Power/EN_UVLO*%
X117500000Y-86950000D03*
X137900000Y-82800000D03*
%TO.N,/5V*%
X110500000Y-121900000D03*
X109850000Y-121900000D03*
D24*
X135700000Y-54250000D03*
D22*
X127450000Y-139300000D03*
%TO.N,/ASIC/1V2*%
X102700000Y-100600000D03*
X123200000Y-123900000D03*
X130450000Y-117600000D03*
X102880000Y-131080000D03*
X117825000Y-115625000D03*
X143950000Y-115750000D03*
%TO.N,/ASIC/0V8*%
X142600000Y-116050000D03*
X130450000Y-115762500D03*
X119750000Y-115050000D03*
D25*
%TO.N,/3V3*%
X133650000Y-52500000D03*
X134550000Y-52500000D03*
X134550000Y-51650000D03*
D22*
X104100000Y-130200000D03*
D25*
X132700000Y-52050000D03*
D22*
X127000000Y-65600000D03*
D26*
X114700000Y-40800000D03*
D22*
X138350000Y-47400000D03*
D23*
X130300000Y-52025000D03*
D22*
X107425000Y-46150000D03*
X126700000Y-68100000D03*
D25*
X133650000Y-51650000D03*
D22*
%TO.N,/Power/PGOOD*%
X130600000Y-64500000D03*
X148062500Y-83900000D03*
%TO.N,/ASIC/TEMP1_P*%
X118328858Y-113867944D03*
D23*
X131700000Y-127890000D03*
D22*
%TO.N,/ASIC/TEMP1_N*%
X118000000Y-113250000D03*
D23*
X130650000Y-127890000D03*
%TO.N,/ASIC/TEMP2_P*%
X134000000Y-127800000D03*
D22*
X155355635Y-114550000D03*
D23*
%TO.N,/ASIC/TEMP2_N*%
X132950000Y-127880000D03*
D22*
X155820645Y-114026770D03*
D23*
%TO.N,/fan/FAN_PWM*%
X133950000Y-140900000D03*
D22*
%TO.N,/Power/BCX_DAT*%
X127291727Y-81200000D03*
X159300000Y-79100000D03*
X148000000Y-82750000D03*
%TO.N,/Power/BCX_CLK*%
X156800000Y-80700000D03*
X147100735Y-82600735D03*
X126500000Y-81200000D03*
%TO.N,/Power/SYNC*%
X125600000Y-81200000D03*
X146203957Y-82697514D03*
X161400000Y-80700000D03*
%TO.N,/ESP32/SDA*%
X112550000Y-134700000D03*
X111400000Y-71500000D03*
D23*
X124100000Y-61190000D03*
D22*
X135650000Y-135250000D03*
D23*
%TO.N,/ESP32/SCL*%
X123320000Y-62465000D03*
D22*
X112000000Y-70600000D03*
X112550000Y-135650000D03*
X135600000Y-136200000D03*
%TO.N,/ASIC/RX_1V2*%
X106000000Y-121200000D03*
%TO.N,/ASIC/CLKI*%
X106200000Y-112550000D03*
%TO.N,/ASIC/BI*%
X105420352Y-112700799D03*
%TO.N,/ASIC/RST_1V2*%
X104675382Y-121611508D03*
%TO.N,/ASIC/TX_1V2*%
X105309522Y-121315080D03*
%TO.N,/ASIC/RST_3V3*%
X109400000Y-73000000D03*
X104800000Y-126550000D03*
%TO.N,/ASIC/TX_3V3*%
X117700000Y-62100000D03*
X105400000Y-127700000D03*
%TO.N,Net-(U4-AVIN)*%
X116950000Y-87500000D03*
X115150000Y-84600000D03*
D27*
%TO.N,Net-(U9-VDD1_0)*%
X108125000Y-109195000D03*
%TO.N,Net-(U9-VDD2_0)*%
X108125000Y-108255000D03*
%TO.N,Net-(U9-VDD3_0)*%
X109150000Y-107630000D03*
D22*
%TO.N,Net-(U9-LITE_PAD)*%
X105550000Y-114050000D03*
%TO.N,Net-(U9-ROSC_SEL)*%
X104100000Y-114950000D03*
%TO.N,Net-(U9-INV_CLKO)*%
X106000000Y-114850000D03*
D23*
%TO.N,/Power/SW1*%
X154300000Y-93900000D03*
X155050000Y-93200000D03*
X152700000Y-92525000D03*
X157050000Y-92650000D03*
X155050000Y-92525000D03*
X155050000Y-94700000D03*
X157850000Y-91950000D03*
X152700000Y-93900000D03*
X157850000Y-94900000D03*
X157850000Y-93450000D03*
X154300000Y-92525000D03*
X148700000Y-89800000D03*
X157850000Y-95700000D03*
X148700000Y-88250000D03*
X154300000Y-93200000D03*
X153500000Y-94700000D03*
X153500000Y-93200000D03*
X158650000Y-94900000D03*
X158650000Y-92650000D03*
X150500000Y-88600000D03*
X153500000Y-92525000D03*
X150200000Y-89200000D03*
X157050000Y-95700000D03*
X157050000Y-94900000D03*
X148700000Y-89000000D03*
X153500000Y-93900000D03*
X154300000Y-94700000D03*
X157050000Y-94200000D03*
X148700000Y-90600000D03*
X158650000Y-95700000D03*
X152075000Y-88425000D03*
X157050000Y-93450000D03*
X157850000Y-92650000D03*
X158650000Y-94200000D03*
X151275000Y-88425000D03*
X158650000Y-93450000D03*
X157050000Y-91950000D03*
X157850000Y-94200000D03*
X158650000Y-91950000D03*
X155050000Y-93900000D03*
X152700000Y-93200000D03*
X149800000Y-88600000D03*
X152700000Y-94700000D03*
D22*
%TO.N,Net-(U1-AVIN)*%
X138425000Y-85825000D03*
X138900000Y-82900000D03*
D23*
%TO.N,/Power/SW2*%
X127400000Y-94600000D03*
X129000000Y-93200000D03*
X132050000Y-94350000D03*
X131250000Y-95150000D03*
X132850000Y-93650000D03*
X125700000Y-88400000D03*
X124300000Y-89700000D03*
X132850000Y-92950000D03*
X126400000Y-88400000D03*
X131250000Y-96550000D03*
X128200000Y-92500000D03*
X129000000Y-94600000D03*
X128200000Y-93200000D03*
X132050000Y-93650000D03*
X124300000Y-90500000D03*
X132050000Y-96550000D03*
X129000000Y-93900000D03*
X132050000Y-92950000D03*
X129750000Y-92500000D03*
X131250000Y-93650000D03*
X129750000Y-93200000D03*
X132850000Y-94350000D03*
X129750000Y-93900000D03*
X127350000Y-88975000D03*
X124300000Y-88900000D03*
X128200000Y-94600000D03*
X132050000Y-95850000D03*
X128100000Y-88975000D03*
X124300000Y-88200000D03*
X129750000Y-94600000D03*
X132850000Y-95850000D03*
X128200000Y-93900000D03*
X129000000Y-92500000D03*
X131250000Y-92950000D03*
X132850000Y-96550000D03*
X127400000Y-92500000D03*
X132050000Y-95150000D03*
X131250000Y-94350000D03*
X127400000Y-93200000D03*
X131250000Y-95850000D03*
X126000000Y-89000000D03*
X132850000Y-95150000D03*
X127400000Y-93900000D03*
D27*
%TO.N,Net-(U10-VDD3_0)*%
X144940000Y-107570000D03*
X116770000Y-107580000D03*
%TO.N,Net-(U10-VDD2_0)*%
X143925000Y-108280000D03*
X117750000Y-108280000D03*
%TO.N,Net-(U10-VDD1_0)*%
X117732020Y-109277020D03*
X143925000Y-109220000D03*
%TO.N,Net-(U10-VDD3_1)*%
X153010000Y-107540000D03*
%TO.N,Net-(U10-VDD2_1)*%
X154050000Y-108255000D03*
%TO.N,Net-(U10-VDD1_1)*%
X154050000Y-109195000D03*
D22*
%TO.N,/ASIC/0V8_1*%
X106050000Y-115800000D03*
%TO.N,/ASIC/1V2_1*%
X107550000Y-115900000D03*
%TO.N,/ASIC/1V2_2*%
X153797182Y-115702818D03*
%TO.N,/ASIC/0V8_2*%
X154800000Y-115550000D03*
%TO.N,Net-(J5-Pin_3)*%
X116150000Y-63100000D03*
%TO.N,Net-(J5-Pin_4)*%
X114900000Y-63050000D03*
%TO.N,Net-(J5-Pin_5)*%
X113650000Y-63050000D03*
%TO.N,Net-(J5-Pin_6)*%
X112360000Y-63060000D03*
%TO.N,Net-(U1-MSEL1)*%
X140900000Y-84200000D03*
X154150000Y-79150000D03*
%TO.N,Net-(U1-MSEL2)*%
X154150000Y-76300000D03*
X141300000Y-86050000D03*
%TO.N,Net-(U1-VSEL)*%
X140750000Y-85500000D03*
X154150000Y-77700000D03*
%TO.N,Net-(U10-LITE_PAD)*%
X141400000Y-114450000D03*
%TO.N,Net-(U1-ADRSEL)*%
X155150000Y-80550000D03*
X141350000Y-84950000D03*
%TO.N,Net-(U10-NRSTO)*%
X157800000Y-111800000D03*
%TO.N,Net-(U10-ROSC_SEL)*%
X141650000Y-113750000D03*
%TO.N,Net-(U10-INV_CLKO)*%
X141350000Y-115150000D03*
%TO.N,Net-(U10-BI)*%
X136200000Y-113350000D03*
%TO.N,Net-(U10-RI)*%
X157700000Y-115900000D03*
%TO.N,/Power/SCL_VR*%
X149196443Y-85250000D03*
D23*
X154200000Y-74400000D03*
D22*
X155400000Y-47600000D03*
D23*
X152600000Y-73200000D03*
X161700000Y-74850000D03*
D22*
%TO.N,/Power/ALRT_VR*%
X149246091Y-86996091D03*
D23*
X155100000Y-73100000D03*
X161700000Y-69800000D03*
D22*
X133200000Y-68050000D03*
D23*
%TO.N,/Power/SDA_VR*%
X161700000Y-72325000D03*
D22*
X155400000Y-48800000D03*
X148677803Y-84779880D03*
D23*
X153300000Y-72400000D03*
D22*
%TO.N,GND*%
X133200000Y-120900000D03*
D23*
X149500000Y-112250000D03*
X114500000Y-112250000D03*
D22*
X136000000Y-93975000D03*
D23*
X147500000Y-112250000D03*
D22*
X141375000Y-92625000D03*
X137800000Y-97575000D03*
X131800000Y-60100000D03*
X114562500Y-96400000D03*
X105875000Y-46150000D03*
X144100000Y-96975000D03*
D23*
X112550000Y-119000000D03*
D22*
X122050000Y-96400000D03*
D23*
X114500000Y-111250000D03*
D25*
X140100000Y-44400000D03*
D22*
X121450000Y-97600000D03*
D23*
X148600000Y-117050000D03*
D22*
X111575000Y-94075000D03*
X117650000Y-93000000D03*
D23*
X149600000Y-118050000D03*
D22*
X116850000Y-96400000D03*
D23*
X112500000Y-112250000D03*
D22*
X136600000Y-94575000D03*
X117940000Y-114450000D03*
X142400000Y-97575000D03*
X131800000Y-58100000D03*
D23*
X147600000Y-117050000D03*
D22*
X155450000Y-58750000D03*
X130800000Y-58100000D03*
X154700000Y-117900000D03*
D23*
X110500000Y-113250000D03*
D22*
X132800000Y-58100000D03*
X132800000Y-57100000D03*
D23*
X146500000Y-113250000D03*
X148500000Y-115250000D03*
D22*
X115525000Y-93025000D03*
X141800000Y-97575000D03*
D26*
X115130000Y-53850000D03*
D22*
X137200000Y-96375000D03*
D23*
X110500000Y-114250000D03*
X114500000Y-115250000D03*
D22*
X146980000Y-96975000D03*
X130800000Y-56100000D03*
D25*
X132050000Y-48100000D03*
D23*
X110550000Y-118000000D03*
D22*
X156550000Y-63300000D03*
D23*
X111550000Y-118000000D03*
D22*
X119200000Y-97600000D03*
D26*
X112330000Y-56650000D03*
D22*
X135980000Y-129890000D03*
X154350000Y-58750000D03*
X117450000Y-97000000D03*
X112862500Y-97000000D03*
X117650000Y-92450000D03*
D23*
X114550000Y-119000000D03*
X150500000Y-112250000D03*
D22*
X116850000Y-97000000D03*
X142400000Y-96375000D03*
X142400000Y-96975000D03*
X135400000Y-94575000D03*
D23*
X149500000Y-114250000D03*
D22*
X132800000Y-60100000D03*
D23*
X115500000Y-111250000D03*
D22*
X133800000Y-59100000D03*
X119200000Y-97000000D03*
D23*
X115500000Y-112250000D03*
D22*
X140100000Y-96975000D03*
X149950000Y-63300000D03*
X105080000Y-133380000D03*
X119800000Y-97600000D03*
D23*
X146600000Y-119050000D03*
D22*
X133800000Y-56100000D03*
X135500000Y-97000000D03*
D23*
X112500000Y-114250000D03*
X151500000Y-111250000D03*
D22*
X153250000Y-63300000D03*
X146380000Y-96975000D03*
D23*
X151600000Y-118050000D03*
D22*
X121450000Y-96400000D03*
X153250000Y-59650000D03*
X124450000Y-119950000D03*
X109900000Y-97000000D03*
X137200000Y-93975000D03*
D23*
X150600000Y-117050000D03*
D22*
X106900000Y-130700000D03*
X119800000Y-96400000D03*
X132800000Y-56100000D03*
X153250000Y-62400000D03*
X141902545Y-115690356D03*
X156550000Y-61450000D03*
X124450000Y-114300000D03*
X154350000Y-63300000D03*
X116850000Y-97600000D03*
X137200000Y-97575000D03*
X114562500Y-97000000D03*
X160900000Y-91700000D03*
X132800000Y-61100000D03*
D23*
X146500000Y-112250000D03*
D22*
X140475000Y-92675000D03*
D23*
X110500000Y-115250000D03*
D26*
X115130000Y-56650000D03*
D22*
X117450000Y-96400000D03*
X124450000Y-119300000D03*
X133800000Y-60100000D03*
D27*
X143925000Y-110175000D03*
D22*
X131800000Y-62100000D03*
X135500000Y-96400000D03*
D23*
X115500000Y-115250000D03*
D26*
X113730000Y-55250000D03*
D22*
X130800000Y-57100000D03*
X138950000Y-81100000D03*
X115162500Y-97000000D03*
D23*
X111500000Y-112250000D03*
D22*
X117050000Y-93000000D03*
X139740000Y-113760000D03*
D26*
X113730000Y-53850000D03*
D22*
X132080000Y-140500000D03*
X110500000Y-97600000D03*
D23*
X112500000Y-113250000D03*
D22*
X135400000Y-93975000D03*
X147700000Y-80500000D03*
D23*
X150600000Y-118050000D03*
X151600000Y-117050000D03*
D22*
X133800000Y-58100000D03*
D23*
X151600000Y-119050000D03*
D22*
X140100000Y-97575000D03*
X153250000Y-61450000D03*
D23*
X146500000Y-114250000D03*
X115500000Y-113250000D03*
D22*
X130800000Y-59100000D03*
X130800000Y-61100000D03*
D23*
X147500000Y-115250000D03*
D22*
X116125000Y-93025000D03*
D23*
X115550000Y-118000000D03*
D26*
X113400000Y-40800000D03*
D23*
X148500000Y-114250000D03*
D22*
X113375000Y-94075000D03*
D23*
X147600000Y-119050000D03*
D22*
X112862500Y-96400000D03*
D23*
X113550000Y-117000000D03*
D22*
X151050000Y-62400000D03*
X111510000Y-142150000D03*
D23*
X150500000Y-111250000D03*
X147500000Y-113250000D03*
D24*
X106000000Y-67400000D03*
D23*
X110550000Y-119000000D03*
D22*
X153250000Y-58750000D03*
X119800000Y-97000000D03*
D23*
X115500000Y-114250000D03*
X150500000Y-114250000D03*
D22*
X137200000Y-94575000D03*
X149950000Y-62400000D03*
D23*
X110500000Y-112250000D03*
D22*
X135500000Y-97600000D03*
X117050000Y-92450000D03*
X112775000Y-94675000D03*
X114760000Y-145740000D03*
X132800000Y-59100000D03*
X153803248Y-114396752D03*
D23*
X148500000Y-113250000D03*
D22*
X112775000Y-94075000D03*
X139500000Y-96975000D03*
D23*
X113500000Y-114250000D03*
D25*
X133250000Y-48200000D03*
X137800000Y-44375000D03*
D22*
X141975000Y-92625000D03*
X115750000Y-87400000D03*
X136000000Y-94575000D03*
X141975000Y-93175000D03*
D26*
X113730000Y-56650000D03*
D22*
X144100000Y-97575000D03*
D23*
X111500000Y-113250000D03*
D22*
X116125000Y-92475000D03*
D23*
X114500000Y-113250000D03*
D22*
X110500000Y-97000000D03*
X144700000Y-96975000D03*
X155450000Y-61450000D03*
D23*
X149500000Y-113250000D03*
X111500000Y-111250000D03*
D22*
X115525000Y-92475000D03*
D23*
X113550000Y-118000000D03*
D27*
X117900000Y-110070000D03*
D22*
X131800000Y-61100000D03*
X104350000Y-101750000D03*
D23*
X149500000Y-115250000D03*
D22*
X137800000Y-96375000D03*
X141800000Y-96975000D03*
X103790000Y-113400000D03*
X151050000Y-63300000D03*
X140100000Y-96375000D03*
X107850000Y-114750000D03*
X126900000Y-145690000D03*
X156550000Y-59650000D03*
X110500000Y-96400000D03*
X131800000Y-56100000D03*
X156550000Y-62400000D03*
D23*
X149600000Y-119050000D03*
D22*
X140475000Y-93225000D03*
X155450000Y-62400000D03*
D27*
X108125000Y-110075000D03*
D23*
X111550000Y-119000000D03*
D22*
X122050000Y-97600000D03*
D23*
X115550000Y-119000000D03*
X150500000Y-115250000D03*
D22*
X144700000Y-96375000D03*
X130800000Y-60100000D03*
D23*
X113500000Y-112250000D03*
X148600000Y-118050000D03*
D25*
X142200000Y-46400000D03*
D22*
X155450000Y-60550000D03*
D23*
X110500000Y-111250000D03*
X146600000Y-117050000D03*
D22*
X139875000Y-92675000D03*
X157650000Y-63300000D03*
X124450000Y-114950000D03*
X154350000Y-59650000D03*
D23*
X115550000Y-117000000D03*
D26*
X115130000Y-55250000D03*
D23*
X114500000Y-114250000D03*
X112500000Y-111250000D03*
X113500000Y-111250000D03*
D22*
X146980000Y-97575000D03*
X134900000Y-96400000D03*
D23*
X148500000Y-111250000D03*
X149600000Y-117050000D03*
D22*
X141375000Y-93175000D03*
X129500000Y-128840000D03*
D23*
X113550000Y-119000000D03*
X147500000Y-111250000D03*
D22*
X133050000Y-115750000D03*
D23*
X151500000Y-113250000D03*
D22*
X156550000Y-58750000D03*
D23*
X147500000Y-114250000D03*
X112550000Y-117000000D03*
D22*
X136600000Y-93975000D03*
D26*
X112330000Y-53850000D03*
D23*
X148500000Y-112250000D03*
X151500000Y-112250000D03*
D22*
X134900000Y-97000000D03*
X115162500Y-97600000D03*
X112262500Y-97000000D03*
D23*
X112550000Y-118000000D03*
D22*
X112175000Y-94675000D03*
X155450000Y-63300000D03*
D23*
X148600000Y-119050000D03*
D22*
X154350000Y-60550000D03*
X144700000Y-97575000D03*
X112262500Y-97600000D03*
X139200000Y-83700000D03*
X132800000Y-62100000D03*
X152150000Y-62400000D03*
X154350000Y-61450000D03*
X114562500Y-97600000D03*
X131800000Y-57100000D03*
X133800000Y-62100000D03*
X121450000Y-97000000D03*
X153250000Y-60550000D03*
X133800000Y-57100000D03*
X144100000Y-96375000D03*
X103450000Y-121650000D03*
X130800000Y-62100000D03*
X152825000Y-83425000D03*
X143150000Y-135425000D03*
X155450000Y-59650000D03*
X109900000Y-96400000D03*
D25*
X134600000Y-44375000D03*
D23*
X151500000Y-114250000D03*
D22*
X146380000Y-96375000D03*
X154350000Y-62400000D03*
X133250000Y-113850000D03*
D23*
X146500000Y-115250000D03*
D22*
X101800000Y-129200000D03*
X156550000Y-60550000D03*
D23*
X146500000Y-111250000D03*
D27*
X154050000Y-110055000D03*
D23*
X114550000Y-118000000D03*
X150500000Y-113250000D03*
D22*
X137800000Y-96975000D03*
D23*
X110550000Y-117000000D03*
X112500000Y-115250000D03*
X111550000Y-117000000D03*
X113500000Y-113250000D03*
D22*
X139875000Y-93225000D03*
X122050000Y-97000000D03*
X146980000Y-96375000D03*
X119200000Y-96400000D03*
X161700000Y-77400000D03*
D23*
X111500000Y-114250000D03*
D22*
X109900000Y-97600000D03*
X112262500Y-96400000D03*
X146380000Y-97575000D03*
D23*
X113500000Y-115250000D03*
D22*
X152150000Y-63300000D03*
X141800000Y-96375000D03*
X139500000Y-96375000D03*
D23*
X147600000Y-118050000D03*
D26*
X112330000Y-55250000D03*
D22*
X134900000Y-97600000D03*
D23*
X151500000Y-115250000D03*
X132425000Y-134275000D03*
X149500000Y-111250000D03*
D22*
X137200000Y-96975000D03*
D25*
X134500000Y-47700000D03*
D22*
X117450000Y-97600000D03*
X108000000Y-121500000D03*
X131800000Y-59100000D03*
X127250000Y-82800000D03*
D23*
X150600000Y-119050000D03*
X114550000Y-117000000D03*
D22*
X112862500Y-97600000D03*
D23*
X146600000Y-118050000D03*
D22*
X112175000Y-94075000D03*
X115162500Y-96400000D03*
X139500000Y-97575000D03*
X111575000Y-94675000D03*
X113375000Y-94675000D03*
X133800000Y-61100000D03*
D23*
X111500000Y-115250000D03*
D22*
X157650000Y-62400000D03*
%TO.N,/Power/BP1v5_2*%
X126327817Y-82850000D03*
X118300000Y-81200000D03*
%TO.N,Net-(U10-BO)*%
X157650000Y-120050000D03*
%TO.N,Net-(U10-CLKO)*%
X157750000Y-118000000D03*
%TO.N,Net-(U10-CO)*%
X157800000Y-113850000D03*
%TO.N,/ESP32/EN*%
X107925000Y-141875000D03*
D23*
X110700000Y-49984314D03*
D22*
X110500000Y-143250000D03*
D26*
X114670000Y-44200000D03*
D23*
%TO.N,/ESP32/P_TX*%
X109820000Y-65500000D03*
D26*
X113400000Y-44250000D03*
D22*
%TO.N,/ESP32/IO0*%
X122800000Y-143350000D03*
D26*
X112150000Y-40800000D03*
D22*
X111400000Y-61450000D03*
%TO.N,/ESP32/P_RX*%
X113300000Y-45800000D03*
X109600000Y-63200000D03*
%TO.N,/ASIC/RX_3V3*%
X118710000Y-62090000D03*
X106000000Y-127100000D03*
%TO.N,/Power/AGND2*%
X122200000Y-81650000D03*
X117650000Y-83100000D03*
X124750000Y-87000000D03*
X124100000Y-83100000D03*
X117500000Y-85700000D03*
D23*
%TO.N,/fan/FAN_TACH*%
X135200000Y-139000000D03*
%TD*%
D28*
%TO.N,/12V*%
X148875000Y-137900000D02*
X161950000Y-124825000D01*
X160800000Y-70000000D02*
X160800000Y-65062742D01*
D29*
X142200000Y-138600000D02*
X138080600Y-142719400D01*
D28*
X145250000Y-137900000D02*
X148875000Y-137900000D01*
X161950000Y-63912742D02*
X161950000Y-60350000D01*
X158050000Y-56450000D02*
X155250000Y-56450000D01*
X155250000Y-56450000D02*
X155250000Y-53250000D01*
X160800000Y-65062742D02*
X161950000Y-63912742D01*
X161950000Y-60350000D02*
X158050000Y-56450000D01*
D29*
X138080600Y-142719400D02*
X138080600Y-146338851D01*
D28*
X161950000Y-124825000D02*
X161950000Y-84350000D01*
X161950000Y-84350000D02*
X160400000Y-82800000D01*
X160400000Y-70400000D02*
X160800000Y-70000000D01*
X160400000Y-82800000D02*
X160400000Y-70400000D01*
D30*
%TO.N,/Vcore*%
X133325000Y-100600000D02*
X133950000Y-99975000D01*
X133950000Y-99975000D02*
X133950000Y-88225000D01*
X133950000Y-88225000D02*
X135500000Y-86675000D01*
X135500000Y-86675000D02*
X141825000Y-86675000D01*
X142100000Y-83600000D02*
X142500000Y-83200000D01*
X141825000Y-86675000D02*
X142100000Y-86400000D01*
X142100000Y-86400000D02*
X142100000Y-83600000D01*
%TO.N,/Power/VSHARE*%
X143350000Y-80100000D02*
X131000000Y-80100000D01*
X144550000Y-81300000D02*
X143350000Y-80100000D01*
X123650000Y-80950000D02*
X120700000Y-80950000D01*
X127550000Y-83550000D02*
X126250000Y-83550000D01*
X144550000Y-82800000D02*
X144550000Y-81300000D01*
X120700000Y-80950000D02*
X120450000Y-81200000D01*
X131000000Y-80100000D02*
X127550000Y-83550000D01*
X126250000Y-83550000D02*
X123650000Y-80950000D01*
%TO.N,/Power/EN_UVLO*%
X119450000Y-82450000D02*
X116500000Y-85400000D01*
X128750000Y-84000000D02*
X125950000Y-84000000D01*
X116500000Y-85400000D02*
X116500000Y-85950000D01*
X124400000Y-82450000D02*
X119450000Y-82450000D01*
X125950000Y-84000000D02*
X124400000Y-82450000D01*
X137900000Y-82800000D02*
X129950000Y-82800000D01*
X116500000Y-85950000D02*
X117500000Y-86950000D01*
X129950000Y-82800000D02*
X128750000Y-84000000D01*
D31*
%TO.N,/ASIC/1V2*%
X102500000Y-122600000D02*
X102500000Y-101800000D01*
X123200000Y-123900000D02*
X107700000Y-123900000D01*
X105700000Y-129500000D02*
X103500000Y-129500000D01*
X105700000Y-129500000D02*
X107700000Y-127500000D01*
X107700000Y-127500000D02*
X107700000Y-123900000D01*
X103500000Y-129500000D02*
X102880000Y-130120000D01*
X102500000Y-101800000D02*
X102700000Y-101600000D01*
X102700000Y-101600000D02*
X102700000Y-100600000D01*
X107700000Y-123900000D02*
X103800000Y-123900000D01*
X102880000Y-130120000D02*
X102880000Y-131080000D01*
X103800000Y-123900000D02*
X102500000Y-122600000D01*
D30*
%TO.N,/3V3*%
X138350000Y-47400000D02*
X138325000Y-47400000D01*
X134550000Y-51175000D02*
X134550000Y-51200000D01*
X138325000Y-47400000D02*
X134550000Y-51175000D01*
%TO.N,/Power/PGOOD*%
X149100000Y-77775000D02*
X135825000Y-64500000D01*
X149100000Y-82862500D02*
X149100000Y-77775000D01*
X135825000Y-64500000D02*
X130600000Y-64500000D01*
X148062500Y-83900000D02*
X149100000Y-82862500D01*
%TO.N,/ASIC/TEMP1_P*%
X131100000Y-128490000D02*
X131700000Y-127890000D01*
X118328858Y-113867944D02*
X118417944Y-113867944D01*
X128900000Y-128000000D02*
X129911471Y-128000000D01*
X130401471Y-128490000D02*
X131100000Y-128490000D01*
X118750000Y-117850000D02*
X128900000Y-128000000D01*
X118750000Y-114200000D02*
X118750000Y-117850000D01*
X118417944Y-113867944D02*
X118750000Y-114200000D01*
X129911471Y-128000000D02*
X130401471Y-128490000D01*
%TO.N,/ASIC/TEMP1_N*%
X118000000Y-113250000D02*
X118488733Y-113250000D01*
X118488733Y-113250000D02*
X119200000Y-113961267D01*
X130360000Y-127600000D02*
X130650000Y-127890000D01*
X129200000Y-127600000D02*
X130360000Y-127600000D01*
X119200000Y-117600000D02*
X129200000Y-127600000D01*
X119200000Y-113961267D02*
X119200000Y-117600000D01*
%TO.N,/ASIC/TEMP2_P*%
X147800000Y-128000000D02*
X134200000Y-128000000D01*
X155355635Y-114550000D02*
X155450000Y-114644365D01*
X134200000Y-128000000D02*
X134000000Y-127800000D01*
X155450000Y-114644365D02*
X155450000Y-120350000D01*
X155450000Y-120350000D02*
X147800000Y-128000000D01*
%TO.N,/ASIC/TEMP2_N*%
X155905635Y-114111760D02*
X155905635Y-118794365D01*
X155900000Y-118800000D02*
X155900000Y-120465685D01*
X147965685Y-128400000D02*
X133470000Y-128400000D01*
X155820645Y-114026770D02*
X155905635Y-114111760D01*
X155900000Y-120465685D02*
X147965685Y-128400000D01*
X133470000Y-128400000D02*
X132950000Y-127880000D01*
X155905635Y-118794365D02*
X155900000Y-118800000D01*
%TO.N,/Power/BCX_DAT*%
X144100000Y-78750000D02*
X129750000Y-78750000D01*
X128341727Y-80150000D02*
X127291727Y-81200000D01*
X129750000Y-78750000D02*
X128350000Y-80150000D01*
X128350000Y-80150000D02*
X128341727Y-80150000D01*
X148000000Y-82650000D02*
X144100000Y-78750000D01*
X148000000Y-82750000D02*
X148000000Y-82650000D01*
%TO.N,/Power/BCX_CLK*%
X147100735Y-82600735D02*
X147100735Y-82500735D01*
X126500000Y-81200000D02*
X126500000Y-81244364D01*
X127650000Y-81750000D02*
X127050000Y-81750000D01*
X147100735Y-82500735D02*
X143800000Y-79200000D01*
X130200000Y-79200000D02*
X127650000Y-81750000D01*
X143800000Y-79200000D02*
X130200000Y-79200000D01*
X127050000Y-81750000D02*
X126500000Y-81200000D01*
%TO.N,/Power/SYNC*%
X146203957Y-82303957D02*
X143550000Y-79650000D01*
X130400000Y-79650000D02*
X127900000Y-82150000D01*
X126550000Y-82150000D02*
X125600000Y-81200000D01*
X146203957Y-82697514D02*
X146203957Y-82303957D01*
X127900000Y-82150000D02*
X126550000Y-82150000D01*
X143550000Y-79650000D02*
X130400000Y-79650000D01*
%TO.N,/ESP32/SDA*%
X147800000Y-48170000D02*
X145330000Y-45700000D01*
X124100000Y-63375000D02*
X115975000Y-71500000D01*
X124100000Y-54850000D02*
X124100000Y-63375000D01*
X133250000Y-45700000D02*
X124100000Y-54850000D01*
X115975000Y-71500000D02*
X111400000Y-71500000D01*
X145330000Y-45700000D02*
X133250000Y-45700000D01*
%TO.N,/ESP32/SCL*%
X133184314Y-45200000D02*
X123310000Y-55074314D01*
X148200000Y-45630000D02*
X147770000Y-45200000D01*
X123310000Y-62455000D02*
X123320000Y-62465000D01*
X123320000Y-62465000D02*
X123320000Y-62905000D01*
X123310000Y-55074314D02*
X123310000Y-62455000D01*
X147770000Y-45200000D02*
X133184314Y-45200000D01*
X115625000Y-70600000D02*
X112000000Y-70600000D01*
X123320000Y-62905000D02*
X115625000Y-70600000D01*
%TO.N,/ASIC/RST_3V3*%
X104800000Y-126550000D02*
X103050000Y-126550000D01*
X101900000Y-125400000D02*
X101900000Y-80500000D01*
X101900000Y-80500000D02*
X109400000Y-73000000D01*
X103050000Y-126550000D02*
X101900000Y-125400000D01*
%TO.N,/ASIC/TX_3V3*%
X100800000Y-80000000D02*
X100800000Y-126000000D01*
X117700000Y-62100000D02*
X117700000Y-63100000D01*
X117700000Y-63100000D02*
X100800000Y-80000000D01*
X100800000Y-126000000D02*
X102500000Y-127700000D01*
X102500000Y-127700000D02*
X105400000Y-127700000D01*
%TO.N,Net-(U4-AVIN)*%
X115150000Y-84600000D02*
X115150000Y-85700000D01*
X115150000Y-85700000D02*
X116950000Y-87500000D01*
%TO.N,Net-(J5-Pin_3)*%
X116150000Y-63100000D02*
X116150000Y-61668628D01*
X116150000Y-61668628D02*
X134143628Y-43675000D01*
X135595000Y-43675000D02*
X137770000Y-41500000D01*
X134143628Y-43675000D02*
X135595000Y-43675000D01*
%TO.N,Net-(J5-Pin_4)*%
X135230000Y-42022942D02*
X135230000Y-41500000D01*
X114900000Y-63050000D02*
X114900000Y-62352942D01*
X114900000Y-62352942D02*
X135230000Y-42022942D01*
%TO.N,Net-(J5-Pin_5)*%
X113650000Y-63037256D02*
X132690000Y-43997256D01*
X113650000Y-63050000D02*
X113650000Y-63037256D01*
X132690000Y-43997256D02*
X132690000Y-41500000D01*
%TO.N,Net-(J5-Pin_6)*%
X113621570Y-62500000D02*
X130150000Y-45971570D01*
X112360000Y-63060000D02*
X112920000Y-62500000D01*
X112920000Y-62500000D02*
X113621570Y-62500000D01*
X130150000Y-45971570D02*
X130150000Y-41500000D01*
%TO.N,/Power/SCL_VR*%
X139700000Y-67500000D02*
X145225000Y-73025000D01*
X142750000Y-49800000D02*
X139700000Y-52850000D01*
X150450000Y-78350000D02*
X154200000Y-74600000D01*
X139700000Y-52850000D02*
X139700000Y-67500000D01*
X153200000Y-49800000D02*
X142750000Y-49800000D01*
X150450000Y-84027818D02*
X150450000Y-78350000D01*
X154200000Y-74600000D02*
X154200000Y-74400000D01*
X145225000Y-73025000D02*
X152425000Y-73025000D01*
X155400000Y-47600000D02*
X153200000Y-49800000D01*
X149196443Y-85250000D02*
X149227818Y-85250000D01*
X149227818Y-85250000D02*
X150450000Y-84027818D01*
X152425000Y-73025000D02*
X152600000Y-73200000D01*
%TO.N,/Power/ALRT_VR*%
X150900000Y-84950000D02*
X149246091Y-86603909D01*
X150900000Y-78700000D02*
X150900000Y-84950000D01*
X149246091Y-86603909D02*
X149246091Y-86996091D01*
X155100000Y-74500000D02*
X150900000Y-78700000D01*
X155100000Y-73100000D02*
X155100000Y-74500000D01*
%TO.N,/Power/SDA_VR*%
X153295735Y-74904265D02*
X153295735Y-72404265D01*
X142750000Y-50500000D02*
X140400000Y-52850000D01*
X150000000Y-78200000D02*
X153295735Y-74904265D01*
X150000000Y-83457683D02*
X150000000Y-78200000D01*
X140400000Y-52850000D02*
X140400000Y-67300000D01*
X153700000Y-50500000D02*
X142750000Y-50500000D01*
X148273529Y-72375000D02*
X153275000Y-72375000D01*
X140400000Y-67300000D02*
X145525000Y-72425000D01*
X148677803Y-84779880D02*
X150000000Y-83457683D01*
X145525000Y-72425000D02*
X148223529Y-72425000D01*
X148223529Y-72425000D02*
X148273529Y-72375000D01*
X153275000Y-72375000D02*
X153300000Y-72400000D01*
X155400000Y-48800000D02*
X153700000Y-50500000D01*
X153295735Y-72404265D02*
X153300000Y-72400000D01*
%TO.N,/Power/BP1v5_2*%
X119000000Y-80500000D02*
X118300000Y-81200000D01*
X126300000Y-82850000D02*
X123950000Y-80500000D01*
X123950000Y-80500000D02*
X119000000Y-80500000D01*
X126327817Y-82850000D02*
X126300000Y-82850000D01*
%TO.N,/ESP32/EN*%
X99800000Y-78784314D02*
X110700000Y-67884314D01*
X107925000Y-141875000D02*
X103775000Y-141875000D01*
X114670000Y-44200000D02*
X114670000Y-46014314D01*
X114670000Y-46014314D02*
X110700000Y-49984314D01*
X110700000Y-67884314D02*
X110700000Y-49984314D01*
X103775000Y-141875000D02*
X99800000Y-137900000D01*
X99800000Y-137900000D02*
X99800000Y-78784314D01*
%TO.N,/ESP32/P_TX*%
X112350000Y-44250000D02*
X113400000Y-44250000D01*
X109820000Y-65500000D02*
X108200000Y-63880000D01*
X108200000Y-63880000D02*
X108200000Y-48400000D01*
X108200000Y-48400000D02*
X112350000Y-44250000D01*
%TO.N,/ESP32/IO0*%
X111400000Y-50600000D02*
X111400000Y-68300000D01*
X100300000Y-79400000D02*
X100300000Y-137675000D01*
X113300000Y-39650000D02*
X115450000Y-39650000D01*
X111400000Y-68300000D02*
X100300000Y-79400000D01*
X103950000Y-141325000D02*
X120775000Y-141325000D01*
X115450000Y-39650000D02*
X116900000Y-41100000D01*
X115950000Y-46050000D02*
X111400000Y-50600000D01*
X116900000Y-41100000D02*
X116900000Y-43100000D01*
X115950000Y-44050000D02*
X115950000Y-46050000D01*
X116900000Y-43100000D02*
X115950000Y-44050000D01*
X112150000Y-40800000D02*
X113300000Y-39650000D01*
X120775000Y-141325000D02*
X122800000Y-143350000D01*
X100300000Y-137675000D02*
X103950000Y-141325000D01*
%TO.N,/ESP32/P_RX*%
X109600000Y-49500000D02*
X109600000Y-63200000D01*
X113300000Y-45800000D02*
X109600000Y-49500000D01*
%TO.N,/ASIC/RX_3V3*%
X118710000Y-62790000D02*
X101400000Y-80100000D01*
X101400000Y-80100000D02*
X101400000Y-125700000D01*
X102800000Y-127100000D02*
X106000000Y-127100000D01*
X118710000Y-62090000D02*
X118710000Y-62790000D01*
X101400000Y-125700000D02*
X102800000Y-127100000D01*
%TO.N,/Power/AGND2*%
X124750000Y-87000000D02*
X124750000Y-83750000D01*
X124750000Y-83750000D02*
X124100000Y-83100000D01*
%TD*%
%TA.AperFunction,Conductor*%
%TO.N,GND*%
G36*
X123593039Y-83619685D02*
G01*
X123638794Y-83672489D01*
X123650000Y-83724000D01*
X123650000Y-90900000D01*
X123960248Y-90900000D01*
X124027286Y-90919684D01*
X124071569Y-90948142D01*
X124085291Y-90956961D01*
X124089949Y-90959954D01*
X124228036Y-91000499D01*
X124228038Y-91000500D01*
X124228039Y-91000500D01*
X124371962Y-91000500D01*
X124371962Y-91000499D01*
X124510050Y-90959954D01*
X124510051Y-90959954D01*
X124514709Y-90956961D01*
X124528430Y-90948142D01*
X124572714Y-90919684D01*
X124639752Y-90900000D01*
X133525500Y-90900000D01*
X133592539Y-90919685D01*
X133638294Y-90972489D01*
X133649500Y-91024000D01*
X133649500Y-99799167D01*
X133629815Y-99866206D01*
X133613181Y-99886848D01*
X133386848Y-100113181D01*
X133325525Y-100146666D01*
X133299167Y-100149500D01*
X133260226Y-100149500D01*
X133135935Y-100185994D01*
X133135932Y-100185995D01*
X133135931Y-100185996D01*
X133084677Y-100218934D01*
X133026950Y-100256033D01*
X132942118Y-100353937D01*
X132942117Y-100353938D01*
X132888302Y-100471774D01*
X132869867Y-100600000D01*
X132888302Y-100728225D01*
X132942117Y-100846061D01*
X132942118Y-100846063D01*
X133026951Y-100943967D01*
X133135931Y-101014004D01*
X133223228Y-101039636D01*
X133260225Y-101050499D01*
X133260227Y-101050500D01*
X133260228Y-101050500D01*
X133389773Y-101050500D01*
X133389773Y-101050499D01*
X133514069Y-101014004D01*
X133623049Y-100943967D01*
X133707882Y-100846063D01*
X133761697Y-100728226D01*
X133779324Y-100605621D01*
X133808349Y-100542067D01*
X133814352Y-100535617D01*
X134190460Y-100159511D01*
X134196240Y-100149500D01*
X134230021Y-100090989D01*
X134250500Y-100014562D01*
X134250500Y-92525000D01*
X152194353Y-92525000D01*
X152214834Y-92667456D01*
X152278307Y-92806440D01*
X152276252Y-92807378D01*
X152292435Y-92862516D01*
X152276254Y-92917622D01*
X152278307Y-92918560D01*
X152214834Y-93057543D01*
X152194353Y-93200000D01*
X152214834Y-93342456D01*
X152274622Y-93473371D01*
X152279418Y-93480834D01*
X152276895Y-93482455D01*
X152299683Y-93532355D01*
X152289739Y-93601513D01*
X152278693Y-93618700D01*
X152279418Y-93619166D01*
X152274622Y-93626628D01*
X152214834Y-93757543D01*
X152194353Y-93900000D01*
X152214834Y-94042456D01*
X152274622Y-94173371D01*
X152274625Y-94173377D01*
X152313983Y-94218798D01*
X152343008Y-94282353D01*
X152333064Y-94351512D01*
X152313983Y-94381202D01*
X152274625Y-94426622D01*
X152274622Y-94426628D01*
X152214834Y-94557543D01*
X152194353Y-94700000D01*
X152214834Y-94842456D01*
X152255505Y-94931511D01*
X152274623Y-94973373D01*
X152368872Y-95082143D01*
X152489947Y-95159953D01*
X152489950Y-95159954D01*
X152489949Y-95159954D01*
X152628036Y-95200499D01*
X152628038Y-95200500D01*
X152628039Y-95200500D01*
X152771962Y-95200500D01*
X152771962Y-95200499D01*
X152910050Y-95159954D01*
X152910051Y-95159954D01*
X152925540Y-95150000D01*
X153031128Y-95082143D01*
X153031129Y-95082141D01*
X153032960Y-95080965D01*
X153100000Y-95061280D01*
X153167039Y-95080964D01*
X153167040Y-95080965D01*
X153168870Y-95082141D01*
X153168872Y-95082143D01*
X153246251Y-95131871D01*
X153289948Y-95159954D01*
X153428036Y-95200499D01*
X153428038Y-95200500D01*
X153428039Y-95200500D01*
X153571962Y-95200500D01*
X153571962Y-95200499D01*
X153710050Y-95159954D01*
X153710051Y-95159954D01*
X153725540Y-95150000D01*
X153831128Y-95082143D01*
X153831129Y-95082141D01*
X153832960Y-95080965D01*
X153900000Y-95061280D01*
X153967039Y-95080964D01*
X153967040Y-95080965D01*
X153968870Y-95082141D01*
X153968872Y-95082143D01*
X154046251Y-95131871D01*
X154089948Y-95159954D01*
X154228036Y-95200499D01*
X154228038Y-95200500D01*
X154228039Y-95200500D01*
X154371962Y-95200500D01*
X154371962Y-95200499D01*
X154510053Y-95159953D01*
X154607960Y-95097031D01*
X154675000Y-95077347D01*
X154742039Y-95097032D01*
X154742040Y-95097032D01*
X154839947Y-95159953D01*
X154839948Y-95159953D01*
X154839949Y-95159954D01*
X154978036Y-95200499D01*
X154978038Y-95200500D01*
X154978039Y-95200500D01*
X155121962Y-95200500D01*
X155121962Y-95200499D01*
X155260053Y-95159953D01*
X155381128Y-95082143D01*
X155475377Y-94973373D01*
X155535165Y-94842457D01*
X155555647Y-94700000D01*
X155535165Y-94557543D01*
X155475377Y-94426627D01*
X155475375Y-94426625D01*
X155475374Y-94426622D01*
X155436017Y-94381203D01*
X155406991Y-94317648D01*
X155416934Y-94248489D01*
X155436017Y-94218797D01*
X155475374Y-94173377D01*
X155475374Y-94173375D01*
X155475377Y-94173373D01*
X155535165Y-94042457D01*
X155555647Y-93900000D01*
X155535165Y-93757543D01*
X155475377Y-93626627D01*
X155475370Y-93626619D01*
X155470582Y-93619167D01*
X155473108Y-93617543D01*
X155450320Y-93567674D01*
X155460248Y-93498513D01*
X155471310Y-93481300D01*
X155470582Y-93480833D01*
X155475368Y-93473382D01*
X155475377Y-93473373D01*
X155535165Y-93342457D01*
X155555647Y-93200000D01*
X155535165Y-93057543D01*
X155475379Y-92926631D01*
X155471693Y-92918560D01*
X155473749Y-92917620D01*
X155457564Y-92862503D01*
X155473748Y-92807378D01*
X155471693Y-92806440D01*
X155486797Y-92773368D01*
X155535165Y-92667457D01*
X155555647Y-92525000D01*
X155535165Y-92382543D01*
X155475377Y-92251627D01*
X155381128Y-92142857D01*
X155260053Y-92065047D01*
X155260051Y-92065046D01*
X155260049Y-92065045D01*
X155260050Y-92065045D01*
X155121963Y-92024500D01*
X155121961Y-92024500D01*
X154978039Y-92024500D01*
X154978036Y-92024500D01*
X154839949Y-92065045D01*
X154742039Y-92127968D01*
X154674999Y-92147652D01*
X154607961Y-92127968D01*
X154510050Y-92065045D01*
X154371963Y-92024500D01*
X154371961Y-92024500D01*
X154228039Y-92024500D01*
X154228036Y-92024500D01*
X154089949Y-92065045D01*
X153967039Y-92144035D01*
X153900000Y-92163719D01*
X153832961Y-92144035D01*
X153792227Y-92117857D01*
X153710053Y-92065047D01*
X153710051Y-92065046D01*
X153710049Y-92065045D01*
X153710050Y-92065045D01*
X153571963Y-92024500D01*
X153571961Y-92024500D01*
X153428039Y-92024500D01*
X153428036Y-92024500D01*
X153289949Y-92065045D01*
X153167039Y-92144035D01*
X153100000Y-92163719D01*
X153032961Y-92144035D01*
X152992227Y-92117857D01*
X152910053Y-92065047D01*
X152910051Y-92065046D01*
X152910049Y-92065045D01*
X152910050Y-92065045D01*
X152771963Y-92024500D01*
X152771961Y-92024500D01*
X152628039Y-92024500D01*
X152628036Y-92024500D01*
X152489949Y-92065045D01*
X152368873Y-92142856D01*
X152274623Y-92251626D01*
X152274622Y-92251628D01*
X152214834Y-92382543D01*
X152194353Y-92525000D01*
X134250500Y-92525000D01*
X134250500Y-91950000D01*
X156544353Y-91950000D01*
X156564834Y-92092456D01*
X156624622Y-92223371D01*
X156629418Y-92230834D01*
X156626895Y-92232455D01*
X156649683Y-92282355D01*
X156639739Y-92351513D01*
X156628693Y-92368700D01*
X156629418Y-92369166D01*
X156624622Y-92376628D01*
X156564834Y-92507543D01*
X156544353Y-92650000D01*
X156564834Y-92792456D01*
X156624622Y-92923371D01*
X156624625Y-92923377D01*
X156663983Y-92968798D01*
X156693008Y-93032353D01*
X156683064Y-93101512D01*
X156663983Y-93131202D01*
X156624625Y-93176622D01*
X156624622Y-93176628D01*
X156564834Y-93307543D01*
X156544353Y-93450000D01*
X156564834Y-93592456D01*
X156624622Y-93723371D01*
X156624625Y-93723377D01*
X156642321Y-93743799D01*
X156671345Y-93807355D01*
X156661401Y-93876513D01*
X156642321Y-93906201D01*
X156624625Y-93926622D01*
X156624622Y-93926628D01*
X156564834Y-94057543D01*
X156544353Y-94200000D01*
X156564834Y-94342456D01*
X156624622Y-94473371D01*
X156629418Y-94480834D01*
X156626895Y-94482455D01*
X156649683Y-94532355D01*
X156639739Y-94601513D01*
X156628693Y-94618700D01*
X156629418Y-94619166D01*
X156624622Y-94626628D01*
X156564834Y-94757543D01*
X156544353Y-94900000D01*
X156564834Y-95042456D01*
X156624622Y-95173371D01*
X156624625Y-95173377D01*
X156663983Y-95218798D01*
X156693008Y-95282353D01*
X156683064Y-95351512D01*
X156663983Y-95381202D01*
X156624625Y-95426622D01*
X156624622Y-95426628D01*
X156564834Y-95557543D01*
X156544353Y-95700000D01*
X156564834Y-95842456D01*
X156624622Y-95973371D01*
X156624623Y-95973373D01*
X156718872Y-96082143D01*
X156839947Y-96159953D01*
X156839950Y-96159954D01*
X156839949Y-96159954D01*
X156916242Y-96182355D01*
X156976336Y-96200000D01*
X156978036Y-96200499D01*
X156978038Y-96200500D01*
X156978039Y-96200500D01*
X157121962Y-96200500D01*
X157121962Y-96200499D01*
X157260050Y-96159954D01*
X157260051Y-96159954D01*
X157260053Y-96159953D01*
X157381128Y-96082143D01*
X157381129Y-96082141D01*
X157382960Y-96080965D01*
X157450000Y-96061280D01*
X157517039Y-96080964D01*
X157517040Y-96080965D01*
X157518870Y-96082141D01*
X157518872Y-96082143D01*
X157583024Y-96123371D01*
X157639948Y-96159954D01*
X157758108Y-96194647D01*
X157776336Y-96200000D01*
X157778036Y-96200499D01*
X157778038Y-96200500D01*
X157778039Y-96200500D01*
X157921962Y-96200500D01*
X157921962Y-96200499D01*
X158060050Y-96159954D01*
X158060051Y-96159954D01*
X158060053Y-96159953D01*
X158181128Y-96082143D01*
X158181129Y-96082141D01*
X158182960Y-96080965D01*
X158250000Y-96061280D01*
X158317039Y-96080964D01*
X158317040Y-96080965D01*
X158318870Y-96082141D01*
X158318872Y-96082143D01*
X158383024Y-96123371D01*
X158439948Y-96159954D01*
X158558108Y-96194647D01*
X158576336Y-96200000D01*
X158578036Y-96200499D01*
X158578038Y-96200500D01*
X158578039Y-96200500D01*
X158721962Y-96200500D01*
X158721962Y-96200499D01*
X158860053Y-96159953D01*
X158981128Y-96082143D01*
X159075377Y-95973373D01*
X159135165Y-95842457D01*
X159155647Y-95700000D01*
X159135165Y-95557543D01*
X159075377Y-95426627D01*
X159075375Y-95426625D01*
X159075374Y-95426622D01*
X159036017Y-95381203D01*
X159006991Y-95317648D01*
X159016934Y-95248489D01*
X159036017Y-95218797D01*
X159075374Y-95173377D01*
X159075374Y-95173375D01*
X159075377Y-95173373D01*
X159135165Y-95042457D01*
X159155647Y-94900000D01*
X159135165Y-94757543D01*
X159075377Y-94626627D01*
X159075370Y-94626619D01*
X159070582Y-94619167D01*
X159073108Y-94617543D01*
X159050320Y-94567674D01*
X159060248Y-94498513D01*
X159071310Y-94481300D01*
X159070582Y-94480833D01*
X159075368Y-94473382D01*
X159075377Y-94473373D01*
X159135165Y-94342457D01*
X159155647Y-94200000D01*
X159135165Y-94057543D01*
X159075377Y-93926627D01*
X159075375Y-93926625D01*
X159075374Y-93926622D01*
X159057680Y-93906203D01*
X159028654Y-93842648D01*
X159038597Y-93773489D01*
X159057680Y-93743797D01*
X159075374Y-93723377D01*
X159075374Y-93723375D01*
X159075377Y-93723373D01*
X159135165Y-93592457D01*
X159155647Y-93450000D01*
X159135165Y-93307543D01*
X159075377Y-93176627D01*
X159075375Y-93176625D01*
X159075374Y-93176622D01*
X159036017Y-93131203D01*
X159006991Y-93067648D01*
X159016934Y-92998489D01*
X159036017Y-92968797D01*
X159075374Y-92923377D01*
X159075374Y-92923375D01*
X159075377Y-92923373D01*
X159135165Y-92792457D01*
X159155647Y-92650000D01*
X159135165Y-92507543D01*
X159075377Y-92376627D01*
X159075370Y-92376619D01*
X159070582Y-92369167D01*
X159073108Y-92367543D01*
X159050320Y-92317674D01*
X159060248Y-92248513D01*
X159071310Y-92231300D01*
X159070582Y-92230833D01*
X159075368Y-92223382D01*
X159075377Y-92223373D01*
X159135165Y-92092457D01*
X159155647Y-91950000D01*
X159135165Y-91807543D01*
X159075377Y-91676627D01*
X158981128Y-91567857D01*
X158860053Y-91490047D01*
X158860051Y-91490046D01*
X158860049Y-91490045D01*
X158860050Y-91490045D01*
X158721963Y-91449500D01*
X158721961Y-91449500D01*
X158578039Y-91449500D01*
X158578036Y-91449500D01*
X158439949Y-91490045D01*
X158317039Y-91569035D01*
X158250000Y-91588719D01*
X158182961Y-91569035D01*
X158181126Y-91567856D01*
X158060053Y-91490047D01*
X158060051Y-91490046D01*
X158060049Y-91490045D01*
X158060050Y-91490045D01*
X157921963Y-91449500D01*
X157921961Y-91449500D01*
X157778039Y-91449500D01*
X157778036Y-91449500D01*
X157639949Y-91490045D01*
X157517039Y-91569035D01*
X157450000Y-91588719D01*
X157382961Y-91569035D01*
X157381126Y-91567856D01*
X157260053Y-91490047D01*
X157260051Y-91490046D01*
X157260049Y-91490045D01*
X157260050Y-91490045D01*
X157121963Y-91449500D01*
X157121961Y-91449500D01*
X156978039Y-91449500D01*
X156978036Y-91449500D01*
X156839949Y-91490045D01*
X156718873Y-91567856D01*
X156624623Y-91676626D01*
X156624622Y-91676628D01*
X156564834Y-91807543D01*
X156544353Y-91950000D01*
X134250500Y-91950000D01*
X134250500Y-91024000D01*
X134270185Y-90956961D01*
X134322989Y-90911206D01*
X134374500Y-90900000D01*
X142700000Y-90900000D01*
X142700000Y-83734123D01*
X142719685Y-83667084D01*
X142756961Y-83629807D01*
X142772713Y-83619684D01*
X142839752Y-83600000D01*
X147511302Y-83600000D01*
X147578341Y-83619685D01*
X147624096Y-83672489D01*
X147634040Y-83741647D01*
X147627739Y-83763102D01*
X147628301Y-83763267D01*
X147625802Y-83771773D01*
X147607367Y-83900000D01*
X147625802Y-84028225D01*
X147643684Y-84067380D01*
X147679618Y-84146063D01*
X147764451Y-84243967D01*
X147873431Y-84314004D01*
X147910933Y-84325015D01*
X147969712Y-84362789D01*
X147998738Y-84426344D01*
X148000000Y-84443993D01*
X148000000Y-90900000D01*
X148241066Y-90900000D01*
X148308105Y-90919685D01*
X148334778Y-90942796D01*
X148368872Y-90982143D01*
X148489947Y-91059953D01*
X148489950Y-91059954D01*
X148489949Y-91059954D01*
X148628036Y-91100499D01*
X148628038Y-91100500D01*
X148628039Y-91100500D01*
X148771962Y-91100500D01*
X148771962Y-91100499D01*
X148910053Y-91059953D01*
X149031128Y-90982143D01*
X149065221Y-90942796D01*
X149123999Y-90905023D01*
X149158934Y-90900000D01*
X158748638Y-90900000D01*
X158815677Y-90919685D01*
X158836319Y-90936319D01*
X161313181Y-93413181D01*
X161346666Y-93474504D01*
X161349500Y-93500862D01*
X161349500Y-102467729D01*
X161329815Y-102534768D01*
X161277011Y-102580523D01*
X161207853Y-102590467D01*
X161144297Y-102561442D01*
X161112706Y-102519241D01*
X161093242Y-102476622D01*
X161082882Y-102453937D01*
X160998049Y-102356033D01*
X160889069Y-102285996D01*
X160889065Y-102285994D01*
X160889064Y-102285994D01*
X160764774Y-102249500D01*
X160764772Y-102249500D01*
X160635228Y-102249500D01*
X160635226Y-102249500D01*
X160510935Y-102285994D01*
X160510932Y-102285995D01*
X160510931Y-102285996D01*
X160485003Y-102302659D01*
X160401950Y-102356033D01*
X160317118Y-102453937D01*
X160317117Y-102453938D01*
X160263302Y-102571774D01*
X160244867Y-102700000D01*
X160263302Y-102828225D01*
X160310819Y-102932270D01*
X160317118Y-102946063D01*
X160401951Y-103043967D01*
X160510931Y-103114004D01*
X160635225Y-103150499D01*
X160635227Y-103150500D01*
X160635228Y-103150500D01*
X160764773Y-103150500D01*
X160764773Y-103150499D01*
X160889069Y-103114004D01*
X160998049Y-103043967D01*
X161082882Y-102946063D01*
X161112706Y-102880757D01*
X161158461Y-102827954D01*
X161225500Y-102808270D01*
X161292540Y-102827955D01*
X161338294Y-102880759D01*
X161349500Y-102932270D01*
X161349500Y-118649138D01*
X161329815Y-118716177D01*
X161313181Y-118736819D01*
X159186319Y-120863681D01*
X159124996Y-120897166D01*
X159098638Y-120900000D01*
X156190018Y-120900000D01*
X156122979Y-120880315D01*
X156077224Y-120827511D01*
X156067280Y-120758353D01*
X156096305Y-120694797D01*
X156102337Y-120688319D01*
X156140460Y-120650196D01*
X156174948Y-120590460D01*
X156180021Y-120581674D01*
X156200500Y-120505247D01*
X156200500Y-120050000D01*
X157194867Y-120050000D01*
X157213302Y-120178225D01*
X157242065Y-120241206D01*
X157267118Y-120296063D01*
X157351951Y-120393967D01*
X157460931Y-120464004D01*
X157585225Y-120500499D01*
X157585227Y-120500500D01*
X157585228Y-120500500D01*
X157714773Y-120500500D01*
X157714773Y-120500499D01*
X157839069Y-120464004D01*
X157948049Y-120393967D01*
X158032882Y-120296063D01*
X158086697Y-120178226D01*
X158105133Y-120050000D01*
X158086697Y-119921774D01*
X158032882Y-119803937D01*
X157948049Y-119706033D01*
X157839069Y-119635996D01*
X157839065Y-119635994D01*
X157839064Y-119635994D01*
X157714774Y-119599500D01*
X157714772Y-119599500D01*
X157585228Y-119599500D01*
X157585226Y-119599500D01*
X157460935Y-119635994D01*
X157460932Y-119635995D01*
X157460931Y-119635996D01*
X157409677Y-119668934D01*
X157351950Y-119706033D01*
X157267118Y-119803937D01*
X157267117Y-119803938D01*
X157213302Y-119921774D01*
X157194867Y-120050000D01*
X156200500Y-120050000D01*
X156200500Y-118871280D01*
X156204725Y-118839187D01*
X156206135Y-118833927D01*
X156206135Y-118000000D01*
X157294867Y-118000000D01*
X157313302Y-118128225D01*
X157367117Y-118246061D01*
X157367118Y-118246063D01*
X157451951Y-118343967D01*
X157560931Y-118414004D01*
X157685225Y-118450499D01*
X157685227Y-118450500D01*
X157685228Y-118450500D01*
X157814773Y-118450500D01*
X157814773Y-118450499D01*
X157939069Y-118414004D01*
X158048049Y-118343967D01*
X158132882Y-118246063D01*
X158186697Y-118128226D01*
X158205133Y-118000000D01*
X158186697Y-117871774D01*
X158132882Y-117753937D01*
X158048049Y-117656033D01*
X157939069Y-117585996D01*
X157939065Y-117585994D01*
X157939064Y-117585994D01*
X157814774Y-117549500D01*
X157814772Y-117549500D01*
X157685228Y-117549500D01*
X157685226Y-117549500D01*
X157560935Y-117585994D01*
X157560932Y-117585995D01*
X157560931Y-117585996D01*
X157509677Y-117618934D01*
X157451950Y-117656033D01*
X157367118Y-117753937D01*
X157367117Y-117753938D01*
X157313302Y-117871774D01*
X157294867Y-118000000D01*
X156206135Y-118000000D01*
X156206135Y-115900000D01*
X157244867Y-115900000D01*
X157263302Y-116028225D01*
X157293326Y-116093966D01*
X157317118Y-116146063D01*
X157401951Y-116243967D01*
X157510931Y-116314004D01*
X157635225Y-116350499D01*
X157635227Y-116350500D01*
X157635228Y-116350500D01*
X157764773Y-116350500D01*
X157764773Y-116350499D01*
X157889069Y-116314004D01*
X157998049Y-116243967D01*
X158082882Y-116146063D01*
X158136697Y-116028226D01*
X158155133Y-115900000D01*
X158136697Y-115771774D01*
X158082882Y-115653937D01*
X157998049Y-115556033D01*
X157889069Y-115485996D01*
X157889065Y-115485994D01*
X157889064Y-115485994D01*
X157764774Y-115449500D01*
X157764772Y-115449500D01*
X157635228Y-115449500D01*
X157635226Y-115449500D01*
X157510935Y-115485994D01*
X157510932Y-115485995D01*
X157510931Y-115485996D01*
X157483013Y-115503938D01*
X157401950Y-115556033D01*
X157317118Y-115653937D01*
X157317117Y-115653938D01*
X157263302Y-115771774D01*
X157244867Y-115900000D01*
X156206135Y-115900000D01*
X156206135Y-114294096D01*
X156217341Y-114242584D01*
X156217957Y-114241236D01*
X156257342Y-114154996D01*
X156275778Y-114026770D01*
X156257342Y-113898544D01*
X156235172Y-113850000D01*
X157344867Y-113850000D01*
X157363302Y-113978225D01*
X157389686Y-114035996D01*
X157417118Y-114096063D01*
X157501951Y-114193967D01*
X157610931Y-114264004D01*
X157735225Y-114300499D01*
X157735227Y-114300500D01*
X157735228Y-114300500D01*
X157864773Y-114300500D01*
X157864773Y-114300499D01*
X157989069Y-114264004D01*
X158098049Y-114193967D01*
X158182882Y-114096063D01*
X158236697Y-113978226D01*
X158255133Y-113850000D01*
X158236697Y-113721774D01*
X158182882Y-113603937D01*
X158098049Y-113506033D01*
X157989069Y-113435996D01*
X157989065Y-113435994D01*
X157989064Y-113435994D01*
X157864774Y-113399500D01*
X157864772Y-113399500D01*
X157735228Y-113399500D01*
X157735226Y-113399500D01*
X157610935Y-113435994D01*
X157610932Y-113435995D01*
X157610931Y-113435996D01*
X157559677Y-113468934D01*
X157501950Y-113506033D01*
X157417118Y-113603937D01*
X157417117Y-113603938D01*
X157363302Y-113721774D01*
X157344867Y-113850000D01*
X156235172Y-113850000D01*
X156203527Y-113780707D01*
X156118694Y-113682803D01*
X156009714Y-113612766D01*
X156009710Y-113612764D01*
X156009709Y-113612764D01*
X155885419Y-113576270D01*
X155885417Y-113576270D01*
X155755873Y-113576270D01*
X155755871Y-113576270D01*
X155631580Y-113612764D01*
X155631577Y-113612765D01*
X155631576Y-113612766D01*
X155580322Y-113645704D01*
X155522595Y-113682803D01*
X155437763Y-113780707D01*
X155437762Y-113780708D01*
X155383947Y-113898544D01*
X155369225Y-114000942D01*
X155340200Y-114064497D01*
X155281422Y-114102271D01*
X155166569Y-114135994D01*
X155057585Y-114206033D01*
X154972753Y-114303937D01*
X154972752Y-114303938D01*
X154918937Y-114421774D01*
X154900502Y-114550000D01*
X154918937Y-114678225D01*
X154946164Y-114737843D01*
X154972753Y-114796063D01*
X155029537Y-114861596D01*
X155057586Y-114893967D01*
X155083120Y-114910377D01*
X155128874Y-114963181D01*
X155138818Y-115032339D01*
X155109793Y-115095895D01*
X155051015Y-115133669D01*
X154981146Y-115133669D01*
X154864774Y-115099500D01*
X154864772Y-115099500D01*
X154735228Y-115099500D01*
X154735226Y-115099500D01*
X154610935Y-115135994D01*
X154610932Y-115135995D01*
X154610931Y-115135996D01*
X154559677Y-115168934D01*
X154501950Y-115206033D01*
X154417118Y-115303936D01*
X154369751Y-115407654D01*
X154323995Y-115460457D01*
X154256956Y-115480141D01*
X154189916Y-115460456D01*
X154163245Y-115437345D01*
X154095231Y-115358851D01*
X153986251Y-115288814D01*
X153986247Y-115288812D01*
X153986246Y-115288812D01*
X153861956Y-115252318D01*
X153861954Y-115252318D01*
X153732410Y-115252318D01*
X153732408Y-115252318D01*
X153608117Y-115288812D01*
X153608114Y-115288813D01*
X153608113Y-115288814D01*
X153572035Y-115312000D01*
X153499132Y-115358851D01*
X153414300Y-115456755D01*
X153414299Y-115456756D01*
X153360484Y-115574592D01*
X153342049Y-115702818D01*
X153360484Y-115831043D01*
X153404867Y-115928226D01*
X153414300Y-115948881D01*
X153466012Y-116008561D01*
X153498506Y-116046062D01*
X153499133Y-116046785D01*
X153608113Y-116116822D01*
X153732407Y-116153317D01*
X153732409Y-116153318D01*
X153732410Y-116153318D01*
X153861955Y-116153318D01*
X153861955Y-116153317D01*
X153986251Y-116116822D01*
X154095231Y-116046785D01*
X154180064Y-115948881D01*
X154189498Y-115928225D01*
X154227430Y-115845165D01*
X154273185Y-115792361D01*
X154340224Y-115772676D01*
X154407263Y-115792361D01*
X154433935Y-115815472D01*
X154501951Y-115893967D01*
X154610931Y-115964004D01*
X154720117Y-115996063D01*
X154735225Y-116000499D01*
X154735227Y-116000500D01*
X154735228Y-116000500D01*
X154864773Y-116000500D01*
X154864773Y-116000499D01*
X154918810Y-115984633D01*
X154990566Y-115963565D01*
X155060436Y-115963565D01*
X155119213Y-116001340D01*
X155148238Y-116064896D01*
X155149500Y-116082542D01*
X155149500Y-120174167D01*
X155129815Y-120241206D01*
X155113181Y-120261848D01*
X154511348Y-120863681D01*
X154450025Y-120897166D01*
X154423667Y-120900000D01*
X122976333Y-120900000D01*
X122909294Y-120880315D01*
X122888652Y-120863681D01*
X119624971Y-117600000D01*
X129994867Y-117600000D01*
X130013302Y-117728225D01*
X130025045Y-117753937D01*
X130067118Y-117846063D01*
X130151951Y-117943967D01*
X130260931Y-118014004D01*
X130330777Y-118034512D01*
X130385225Y-118050499D01*
X130385227Y-118050500D01*
X130385228Y-118050500D01*
X130514773Y-118050500D01*
X130514773Y-118050499D01*
X130639069Y-118014004D01*
X130748049Y-117943967D01*
X130832882Y-117846063D01*
X130886697Y-117728226D01*
X130905133Y-117600000D01*
X130886697Y-117471774D01*
X130832882Y-117353937D01*
X130748049Y-117256033D01*
X130639069Y-117185996D01*
X130639065Y-117185994D01*
X130639064Y-117185994D01*
X130514774Y-117149500D01*
X130514772Y-117149500D01*
X130385228Y-117149500D01*
X130385226Y-117149500D01*
X130260935Y-117185994D01*
X130260932Y-117185995D01*
X130260931Y-117185996D01*
X130209677Y-117218934D01*
X130151950Y-117256033D01*
X130067118Y-117353937D01*
X130067117Y-117353938D01*
X130013302Y-117471774D01*
X129994867Y-117600000D01*
X119624971Y-117600000D01*
X119536819Y-117511848D01*
X119503334Y-117450525D01*
X119500500Y-117424167D01*
X119500500Y-115762500D01*
X129994867Y-115762500D01*
X130013302Y-115890725D01*
X130046568Y-115963565D01*
X130067118Y-116008563D01*
X130151951Y-116106467D01*
X130260931Y-116176504D01*
X130342656Y-116200500D01*
X130385225Y-116212999D01*
X130385227Y-116213000D01*
X130385228Y-116213000D01*
X130514773Y-116213000D01*
X130514773Y-116212999D01*
X130639069Y-116176504D01*
X130748049Y-116106467D01*
X130796977Y-116050000D01*
X142144867Y-116050000D01*
X142163302Y-116178225D01*
X142173475Y-116200500D01*
X142217118Y-116296063D01*
X142301951Y-116393967D01*
X142410931Y-116464004D01*
X142535225Y-116500499D01*
X142535227Y-116500500D01*
X142535228Y-116500500D01*
X142664773Y-116500500D01*
X142664773Y-116500499D01*
X142789069Y-116464004D01*
X142898049Y-116393967D01*
X142982882Y-116296063D01*
X143036697Y-116178226D01*
X143055133Y-116050000D01*
X143036697Y-115921774D01*
X142982882Y-115803937D01*
X142936146Y-115750000D01*
X143494867Y-115750000D01*
X143513302Y-115878225D01*
X143567117Y-115996061D01*
X143567118Y-115996063D01*
X143651951Y-116093967D01*
X143760931Y-116164004D01*
X143809368Y-116178226D01*
X143885225Y-116200499D01*
X143885227Y-116200500D01*
X143885228Y-116200500D01*
X144014773Y-116200500D01*
X144014773Y-116200499D01*
X144139069Y-116164004D01*
X144248049Y-116093967D01*
X144332882Y-115996063D01*
X144386697Y-115878226D01*
X144405133Y-115750000D01*
X144386697Y-115621774D01*
X144332882Y-115503937D01*
X144248049Y-115406033D01*
X144139069Y-115335996D01*
X144139065Y-115335994D01*
X144139064Y-115335994D01*
X144014774Y-115299500D01*
X144014772Y-115299500D01*
X143885228Y-115299500D01*
X143885226Y-115299500D01*
X143760935Y-115335994D01*
X143760932Y-115335995D01*
X143760931Y-115335996D01*
X143725584Y-115358712D01*
X143651950Y-115406033D01*
X143567118Y-115503937D01*
X143567117Y-115503938D01*
X143513302Y-115621774D01*
X143494867Y-115750000D01*
X142936146Y-115750000D01*
X142898049Y-115706033D01*
X142789069Y-115635996D01*
X142789065Y-115635994D01*
X142789064Y-115635994D01*
X142664774Y-115599500D01*
X142664772Y-115599500D01*
X142535228Y-115599500D01*
X142535226Y-115599500D01*
X142410935Y-115635994D01*
X142410932Y-115635995D01*
X142410931Y-115635996D01*
X142383013Y-115653938D01*
X142301950Y-115706033D01*
X142217118Y-115803937D01*
X142217117Y-115803938D01*
X142163302Y-115921774D01*
X142144867Y-116050000D01*
X130796977Y-116050000D01*
X130832882Y-116008563D01*
X130886697Y-115890726D01*
X130905133Y-115762500D01*
X130886697Y-115634274D01*
X130832882Y-115516437D01*
X130748049Y-115418533D01*
X130639069Y-115348496D01*
X130639065Y-115348494D01*
X130639064Y-115348494D01*
X130514774Y-115312000D01*
X130514772Y-115312000D01*
X130385228Y-115312000D01*
X130385226Y-115312000D01*
X130260935Y-115348494D01*
X130260932Y-115348495D01*
X130260931Y-115348496D01*
X130213564Y-115378937D01*
X130151950Y-115418533D01*
X130067118Y-115516437D01*
X130067117Y-115516438D01*
X130013302Y-115634274D01*
X129994867Y-115762500D01*
X119500500Y-115762500D01*
X119500500Y-115611904D01*
X119520185Y-115544865D01*
X119572989Y-115499110D01*
X119642147Y-115489166D01*
X119659434Y-115492927D01*
X119685225Y-115500499D01*
X119685227Y-115500500D01*
X119685228Y-115500500D01*
X119814773Y-115500500D01*
X119814773Y-115500499D01*
X119939069Y-115464004D01*
X120048049Y-115393967D01*
X120132882Y-115296063D01*
X120186697Y-115178226D01*
X120190755Y-115150000D01*
X140894867Y-115150000D01*
X140913302Y-115278225D01*
X140964121Y-115389501D01*
X140967118Y-115396063D01*
X141051951Y-115493967D01*
X141160931Y-115564004D01*
X141285225Y-115600499D01*
X141285227Y-115600500D01*
X141285228Y-115600500D01*
X141414773Y-115600500D01*
X141414773Y-115600499D01*
X141539069Y-115564004D01*
X141648049Y-115493967D01*
X141732882Y-115396063D01*
X141786697Y-115278226D01*
X141805133Y-115150000D01*
X141786697Y-115021774D01*
X141732882Y-114903937D01*
X141732879Y-114903934D01*
X141728087Y-114896476D01*
X141731100Y-114894539D01*
X141709161Y-114846525D01*
X141719089Y-114777365D01*
X141738177Y-114747655D01*
X141782882Y-114696063D01*
X141836697Y-114578226D01*
X141855133Y-114450000D01*
X141836697Y-114321774D01*
X141826166Y-114298715D01*
X141816223Y-114229561D01*
X141845247Y-114166005D01*
X141871918Y-114142892D01*
X141948049Y-114093967D01*
X142032882Y-113996063D01*
X142086697Y-113878226D01*
X142105133Y-113750000D01*
X142086697Y-113621774D01*
X142032882Y-113503937D01*
X141948049Y-113406033D01*
X141839069Y-113335996D01*
X141839065Y-113335994D01*
X141839064Y-113335994D01*
X141714774Y-113299500D01*
X141714772Y-113299500D01*
X141585228Y-113299500D01*
X141585226Y-113299500D01*
X141460935Y-113335994D01*
X141460932Y-113335995D01*
X141460931Y-113335996D01*
X141409677Y-113368934D01*
X141351950Y-113406033D01*
X141267118Y-113503937D01*
X141267117Y-113503938D01*
X141213302Y-113621774D01*
X141194867Y-113750000D01*
X141213302Y-113878225D01*
X141223833Y-113901284D01*
X141233776Y-113970442D01*
X141204750Y-114033998D01*
X141178077Y-114057109D01*
X141101952Y-114106031D01*
X141017118Y-114203937D01*
X141017117Y-114203938D01*
X140963302Y-114321774D01*
X140944867Y-114450000D01*
X140963302Y-114578225D01*
X141017117Y-114696061D01*
X141021913Y-114703524D01*
X141018900Y-114705460D01*
X141040840Y-114753490D01*
X141030903Y-114822649D01*
X141011818Y-114852350D01*
X140967118Y-114903937D01*
X140967117Y-114903938D01*
X140913302Y-115021774D01*
X140894867Y-115150000D01*
X120190755Y-115150000D01*
X120205133Y-115050000D01*
X120186697Y-114921774D01*
X120132882Y-114803937D01*
X120048049Y-114706033D01*
X119939069Y-114635996D01*
X119939065Y-114635994D01*
X119939064Y-114635994D01*
X119814774Y-114599500D01*
X119814772Y-114599500D01*
X119685228Y-114599500D01*
X119685226Y-114599500D01*
X119659434Y-114607073D01*
X119589564Y-114607073D01*
X119530786Y-114569298D01*
X119501762Y-114505742D01*
X119500500Y-114488096D01*
X119500500Y-113921706D01*
X119494294Y-113898544D01*
X119480021Y-113845278D01*
X119480017Y-113845271D01*
X119440464Y-113776762D01*
X119440458Y-113776754D01*
X119013704Y-113350000D01*
X135744867Y-113350000D01*
X135763302Y-113478225D01*
X135771449Y-113496063D01*
X135817118Y-113596063D01*
X135901951Y-113693967D01*
X136010931Y-113764004D01*
X136054382Y-113776762D01*
X136135225Y-113800499D01*
X136135227Y-113800500D01*
X136135228Y-113800500D01*
X136264773Y-113800500D01*
X136264773Y-113800499D01*
X136389069Y-113764004D01*
X136498049Y-113693967D01*
X136582882Y-113596063D01*
X136636697Y-113478226D01*
X136655133Y-113350000D01*
X136636697Y-113221774D01*
X136582882Y-113103937D01*
X136498049Y-113006033D01*
X136389069Y-112935996D01*
X136389065Y-112935994D01*
X136389064Y-112935994D01*
X136264774Y-112899500D01*
X136264772Y-112899500D01*
X136135228Y-112899500D01*
X136135226Y-112899500D01*
X136010935Y-112935994D01*
X136010932Y-112935995D01*
X136010931Y-112935996D01*
X135983942Y-112953341D01*
X135901950Y-113006033D01*
X135817118Y-113103937D01*
X135817117Y-113103938D01*
X135763302Y-113221774D01*
X135744867Y-113350000D01*
X119013704Y-113350000D01*
X118673245Y-113009541D01*
X118673240Y-113009537D01*
X118657586Y-113000499D01*
X118657584Y-113000499D01*
X118628030Y-112983436D01*
X118604723Y-112969979D01*
X118579246Y-112963152D01*
X118528295Y-112949500D01*
X118528293Y-112949500D01*
X118392343Y-112949500D01*
X118325304Y-112929815D01*
X118298631Y-112906704D01*
X118298050Y-112906034D01*
X118298049Y-112906033D01*
X118189069Y-112835996D01*
X118189065Y-112835994D01*
X118189064Y-112835994D01*
X118064774Y-112799500D01*
X118064772Y-112799500D01*
X117935228Y-112799500D01*
X117935226Y-112799500D01*
X117810935Y-112835994D01*
X117810932Y-112835995D01*
X117810931Y-112835996D01*
X117759677Y-112868934D01*
X117701950Y-112906033D01*
X117617118Y-113003937D01*
X117617117Y-113003938D01*
X117563302Y-113121774D01*
X117544867Y-113250000D01*
X117563302Y-113378225D01*
X117608972Y-113478226D01*
X117617118Y-113496063D01*
X117701951Y-113593967D01*
X117810931Y-113664004D01*
X117810933Y-113664004D01*
X117810934Y-113664005D01*
X117812939Y-113664921D01*
X117814602Y-113666362D01*
X117818392Y-113668798D01*
X117818041Y-113669343D01*
X117865741Y-113710679D01*
X117885422Y-113777720D01*
X117884160Y-113795358D01*
X117873725Y-113867941D01*
X117873725Y-113867943D01*
X117892160Y-113996169D01*
X117919991Y-114057109D01*
X117945976Y-114114007D01*
X118030809Y-114211911D01*
X118139789Y-114281948D01*
X118264083Y-114318443D01*
X118264085Y-114318444D01*
X118325500Y-114318444D01*
X118392539Y-114338129D01*
X118438294Y-114390933D01*
X118449500Y-114442444D01*
X118449500Y-115337987D01*
X118429815Y-115405026D01*
X118377011Y-115450781D01*
X118307853Y-115460725D01*
X118244297Y-115431700D01*
X118212707Y-115389501D01*
X118207883Y-115378939D01*
X118207882Y-115378938D01*
X118207882Y-115378937D01*
X118123049Y-115281033D01*
X118014069Y-115210996D01*
X118014065Y-115210994D01*
X118014064Y-115210994D01*
X117889774Y-115174500D01*
X117889772Y-115174500D01*
X117760228Y-115174500D01*
X117760226Y-115174500D01*
X117635935Y-115210994D01*
X117635932Y-115210995D01*
X117635931Y-115210996D01*
X117609891Y-115227731D01*
X117526950Y-115281033D01*
X117442118Y-115378937D01*
X117442117Y-115378938D01*
X117388302Y-115496774D01*
X117369867Y-115625000D01*
X117388302Y-115753225D01*
X117437294Y-115860500D01*
X117442118Y-115871063D01*
X117526951Y-115968967D01*
X117635931Y-116039004D01*
X117760225Y-116075499D01*
X117760227Y-116075500D01*
X117760228Y-116075500D01*
X117889773Y-116075500D01*
X117889773Y-116075499D01*
X118014069Y-116039004D01*
X118123049Y-115968967D01*
X118207882Y-115871063D01*
X118212706Y-115860501D01*
X118258460Y-115807697D01*
X118325500Y-115788012D01*
X118392539Y-115807696D01*
X118438294Y-115860500D01*
X118449500Y-115912012D01*
X118449500Y-117889562D01*
X118463152Y-117940513D01*
X118469979Y-117965990D01*
X118469982Y-117965995D01*
X118509535Y-118034504D01*
X118509541Y-118034512D01*
X121163348Y-120688319D01*
X121196833Y-120749642D01*
X121191849Y-120819334D01*
X121149977Y-120875267D01*
X121084513Y-120899684D01*
X121075667Y-120900000D01*
X106392776Y-120900000D01*
X106325737Y-120880315D01*
X106299062Y-120857202D01*
X106298049Y-120856033D01*
X106280718Y-120844895D01*
X106189069Y-120785996D01*
X106189065Y-120785994D01*
X106189064Y-120785994D01*
X106064774Y-120749500D01*
X106064772Y-120749500D01*
X105935228Y-120749500D01*
X105935226Y-120749500D01*
X105810935Y-120785994D01*
X105810932Y-120785995D01*
X105810931Y-120785996D01*
X105759677Y-120818934D01*
X105701950Y-120856033D01*
X105700938Y-120857202D01*
X105699633Y-120858040D01*
X105695246Y-120861842D01*
X105694699Y-120861211D01*
X105642160Y-120894977D01*
X105607224Y-120900000D01*
X105512753Y-120900000D01*
X105477820Y-120894977D01*
X105421228Y-120878360D01*
X105374295Y-120864580D01*
X105374294Y-120864580D01*
X105315942Y-120864580D01*
X105248903Y-120844895D01*
X105228261Y-120828261D01*
X103486217Y-119086217D01*
X103452732Y-119024894D01*
X103449898Y-118998783D01*
X103448808Y-118450499D01*
X103442275Y-115164506D01*
X103461826Y-115097429D01*
X103514539Y-115051569D01*
X103583678Y-115041488D01*
X103647291Y-115070387D01*
X103679069Y-115112749D01*
X103708972Y-115178226D01*
X103717118Y-115196063D01*
X103801951Y-115293967D01*
X103910931Y-115364004D01*
X104020117Y-115396063D01*
X104035225Y-115400499D01*
X104035227Y-115400500D01*
X104035228Y-115400500D01*
X104164773Y-115400500D01*
X104164773Y-115400499D01*
X104289069Y-115364004D01*
X104398049Y-115293967D01*
X104482882Y-115196063D01*
X104536697Y-115078226D01*
X104555133Y-114950000D01*
X104536697Y-114821774D01*
X104482882Y-114703937D01*
X104398049Y-114606033D01*
X104289069Y-114535996D01*
X104289065Y-114535994D01*
X104289064Y-114535994D01*
X104164774Y-114499500D01*
X104164772Y-114499500D01*
X104035228Y-114499500D01*
X104035226Y-114499500D01*
X103910935Y-114535994D01*
X103910932Y-114535995D01*
X103910931Y-114535996D01*
X103859677Y-114568934D01*
X103801950Y-114606033D01*
X103717118Y-114703937D01*
X103717117Y-114703938D01*
X103678221Y-114789108D01*
X103632466Y-114841912D01*
X103565426Y-114861596D01*
X103498387Y-114841911D01*
X103452632Y-114789107D01*
X103441427Y-114737843D01*
X103441344Y-114696061D01*
X103440059Y-114050000D01*
X105094867Y-114050000D01*
X105113302Y-114178225D01*
X105152477Y-114264004D01*
X105167118Y-114296063D01*
X105251951Y-114393967D01*
X105360931Y-114464004D01*
X105394682Y-114473914D01*
X105485223Y-114500499D01*
X105485226Y-114500499D01*
X105485228Y-114500500D01*
X105485230Y-114500500D01*
X105489349Y-114501092D01*
X105493145Y-114502825D01*
X105493737Y-114502999D01*
X105493712Y-114503084D01*
X105552907Y-114530111D01*
X105590687Y-114588886D01*
X105590693Y-114658755D01*
X105584508Y-114675342D01*
X105563302Y-114721776D01*
X105544867Y-114850000D01*
X105563302Y-114978225D01*
X105608972Y-115078226D01*
X105617118Y-115096063D01*
X105701951Y-115193967D01*
X105768525Y-115236751D01*
X105814279Y-115289554D01*
X105824223Y-115358712D01*
X105795199Y-115422268D01*
X105768525Y-115445381D01*
X105751951Y-115456032D01*
X105667118Y-115553937D01*
X105667117Y-115553938D01*
X105613302Y-115671774D01*
X105594867Y-115800000D01*
X105613302Y-115928225D01*
X105658972Y-116028226D01*
X105667118Y-116046063D01*
X105751951Y-116143967D01*
X105860931Y-116214004D01*
X105985225Y-116250499D01*
X105985227Y-116250500D01*
X105985228Y-116250500D01*
X106114773Y-116250500D01*
X106114773Y-116250499D01*
X106239069Y-116214004D01*
X106348049Y-116143967D01*
X106432882Y-116046063D01*
X106486697Y-115928226D01*
X106490755Y-115900000D01*
X107094867Y-115900000D01*
X107113302Y-116028225D01*
X107143326Y-116093966D01*
X107167118Y-116146063D01*
X107251951Y-116243967D01*
X107360931Y-116314004D01*
X107485225Y-116350499D01*
X107485227Y-116350500D01*
X107485228Y-116350500D01*
X107614773Y-116350500D01*
X107614773Y-116350499D01*
X107739069Y-116314004D01*
X107848049Y-116243967D01*
X107932882Y-116146063D01*
X107986697Y-116028226D01*
X108005133Y-115900000D01*
X107986697Y-115771774D01*
X107932882Y-115653937D01*
X107848049Y-115556033D01*
X107739069Y-115485996D01*
X107739065Y-115485994D01*
X107739064Y-115485994D01*
X107614774Y-115449500D01*
X107614772Y-115449500D01*
X107485228Y-115449500D01*
X107485226Y-115449500D01*
X107360935Y-115485994D01*
X107360932Y-115485995D01*
X107360931Y-115485996D01*
X107333013Y-115503938D01*
X107251950Y-115556033D01*
X107167118Y-115653937D01*
X107167117Y-115653938D01*
X107113302Y-115771774D01*
X107094867Y-115900000D01*
X106490755Y-115900000D01*
X106505133Y-115800000D01*
X106486697Y-115671774D01*
X106432882Y-115553937D01*
X106348049Y-115456033D01*
X106281474Y-115413248D01*
X106235720Y-115360445D01*
X106225776Y-115291286D01*
X106254801Y-115227731D01*
X106281475Y-115204618D01*
X106298049Y-115193967D01*
X106382882Y-115096063D01*
X106436697Y-114978226D01*
X106455133Y-114850000D01*
X106436697Y-114721774D01*
X106382882Y-114603937D01*
X106298049Y-114506033D01*
X106189069Y-114435996D01*
X106189065Y-114435994D01*
X106189064Y-114435994D01*
X106064774Y-114399499D01*
X106060642Y-114398906D01*
X106056843Y-114397171D01*
X106056263Y-114397001D01*
X106056287Y-114396917D01*
X105997086Y-114369883D01*
X105959310Y-114311106D01*
X105959308Y-114241236D01*
X105965486Y-114224670D01*
X105986697Y-114178226D01*
X106005133Y-114050000D01*
X105986697Y-113921774D01*
X105932882Y-113803937D01*
X105848049Y-113706033D01*
X105739069Y-113635996D01*
X105739065Y-113635994D01*
X105739064Y-113635994D01*
X105614774Y-113599500D01*
X105614772Y-113599500D01*
X105485228Y-113599500D01*
X105485226Y-113599500D01*
X105360935Y-113635994D01*
X105360932Y-113635995D01*
X105360931Y-113635996D01*
X105309890Y-113668798D01*
X105251950Y-113706033D01*
X105167118Y-113803937D01*
X105167117Y-113803938D01*
X105113302Y-113921774D01*
X105094867Y-114050000D01*
X103440059Y-114050000D01*
X103437377Y-112700799D01*
X104965219Y-112700799D01*
X104983654Y-112829024D01*
X105037469Y-112946860D01*
X105037470Y-112946862D01*
X105122303Y-113044766D01*
X105231283Y-113114803D01*
X105255025Y-113121774D01*
X105355577Y-113151298D01*
X105355579Y-113151299D01*
X105355580Y-113151299D01*
X105485125Y-113151299D01*
X105485125Y-113151298D01*
X105609421Y-113114803D01*
X105718401Y-113044766D01*
X105797620Y-112953340D01*
X105856398Y-112915565D01*
X105926267Y-112915564D01*
X105958369Y-112930225D01*
X106010931Y-112964004D01*
X106010933Y-112964004D01*
X106010934Y-112964005D01*
X106135225Y-113000499D01*
X106135227Y-113000500D01*
X106135228Y-113000500D01*
X106264773Y-113000500D01*
X106264773Y-113000499D01*
X106389069Y-112964004D01*
X106498049Y-112893967D01*
X106582882Y-112796063D01*
X106636697Y-112678226D01*
X106655133Y-112550000D01*
X106636697Y-112421774D01*
X106582882Y-112303937D01*
X106498049Y-112206033D01*
X106389069Y-112135996D01*
X106389065Y-112135994D01*
X106389064Y-112135994D01*
X106264774Y-112099500D01*
X106264772Y-112099500D01*
X106135228Y-112099500D01*
X106135226Y-112099500D01*
X106010935Y-112135994D01*
X106010932Y-112135995D01*
X106010931Y-112135996D01*
X105959677Y-112168934D01*
X105901950Y-112206033D01*
X105822730Y-112297459D01*
X105763952Y-112335233D01*
X105694082Y-112335233D01*
X105661982Y-112320573D01*
X105609421Y-112286795D01*
X105609420Y-112286794D01*
X105609416Y-112286792D01*
X105485126Y-112250299D01*
X105485124Y-112250299D01*
X105355580Y-112250299D01*
X105355578Y-112250299D01*
X105231287Y-112286793D01*
X105231284Y-112286794D01*
X105231283Y-112286795D01*
X105204608Y-112303938D01*
X105122302Y-112356832D01*
X105037470Y-112454736D01*
X105037469Y-112454737D01*
X104983654Y-112572573D01*
X104965219Y-112700799D01*
X103437377Y-112700799D01*
X103435586Y-111800000D01*
X157344867Y-111800000D01*
X157363302Y-111928225D01*
X157417117Y-112046061D01*
X157417118Y-112046063D01*
X157501951Y-112143967D01*
X157610931Y-112214004D01*
X157735225Y-112250499D01*
X157735227Y-112250500D01*
X157735228Y-112250500D01*
X157864773Y-112250500D01*
X157864773Y-112250499D01*
X157989069Y-112214004D01*
X158098049Y-112143967D01*
X158182882Y-112046063D01*
X158236697Y-111928226D01*
X158255133Y-111800000D01*
X158236697Y-111671774D01*
X158182882Y-111553937D01*
X158098049Y-111456033D01*
X157989069Y-111385996D01*
X157989065Y-111385994D01*
X157989064Y-111385994D01*
X157864774Y-111349500D01*
X157864772Y-111349500D01*
X157735228Y-111349500D01*
X157735226Y-111349500D01*
X157610935Y-111385994D01*
X157610932Y-111385995D01*
X157610931Y-111385996D01*
X157559677Y-111418934D01*
X157501950Y-111456033D01*
X157417118Y-111553937D01*
X157417117Y-111553938D01*
X157363302Y-111671774D01*
X157344867Y-111800000D01*
X103435586Y-111800000D01*
X103428538Y-108254996D01*
X107719508Y-108254996D01*
X107719508Y-108255003D01*
X107739352Y-108380300D01*
X107739352Y-108380301D01*
X107739354Y-108380304D01*
X107796950Y-108493342D01*
X107796952Y-108493344D01*
X107796954Y-108493347D01*
X107886652Y-108583045D01*
X107886654Y-108583046D01*
X107886658Y-108583050D01*
X107948412Y-108614515D01*
X107999208Y-108662490D01*
X108016003Y-108730311D01*
X107993465Y-108796446D01*
X107948413Y-108835484D01*
X107886658Y-108866950D01*
X107886657Y-108866951D01*
X107886652Y-108866954D01*
X107796954Y-108956652D01*
X107796951Y-108956657D01*
X107796950Y-108956658D01*
X107784215Y-108981652D01*
X107739352Y-109069698D01*
X107739352Y-109069699D01*
X107719508Y-109194996D01*
X107719508Y-109195003D01*
X107739352Y-109320300D01*
X107739352Y-109320301D01*
X107739354Y-109320304D01*
X107796950Y-109433342D01*
X107796952Y-109433344D01*
X107796954Y-109433347D01*
X107886652Y-109523045D01*
X107886654Y-109523046D01*
X107886658Y-109523050D01*
X107999696Y-109580646D01*
X107999697Y-109580646D01*
X107999699Y-109580647D01*
X108124997Y-109600492D01*
X108125000Y-109600492D01*
X108125003Y-109600492D01*
X108250300Y-109580647D01*
X108250301Y-109580647D01*
X108250302Y-109580646D01*
X108250304Y-109580646D01*
X108363342Y-109523050D01*
X108453050Y-109433342D01*
X108510646Y-109320304D01*
X108510646Y-109320302D01*
X108510647Y-109320301D01*
X108510647Y-109320300D01*
X108530492Y-109195003D01*
X108530492Y-109194996D01*
X108510647Y-109069699D01*
X108510647Y-109069698D01*
X108494838Y-109038672D01*
X108453050Y-108956658D01*
X108453046Y-108956654D01*
X108453045Y-108956652D01*
X108363347Y-108866954D01*
X108363343Y-108866951D01*
X108363342Y-108866950D01*
X108301584Y-108835483D01*
X108250791Y-108787511D01*
X108233996Y-108719690D01*
X108256533Y-108653555D01*
X108301584Y-108614517D01*
X108363342Y-108583050D01*
X108453050Y-108493342D01*
X108510646Y-108380304D01*
X108510646Y-108380302D01*
X108510647Y-108380301D01*
X108510647Y-108380300D01*
X108530492Y-108255003D01*
X108530492Y-108254996D01*
X108510647Y-108129699D01*
X108510647Y-108129698D01*
X108504613Y-108117855D01*
X108453050Y-108016658D01*
X108453046Y-108016654D01*
X108453045Y-108016652D01*
X108363347Y-107926954D01*
X108363344Y-107926952D01*
X108363342Y-107926950D01*
X108250304Y-107869354D01*
X108250303Y-107869353D01*
X108250300Y-107869352D01*
X108125003Y-107849508D01*
X108124997Y-107849508D01*
X107999699Y-107869352D01*
X107999698Y-107869352D01*
X107924337Y-107907751D01*
X107886658Y-107926950D01*
X107886657Y-107926951D01*
X107886652Y-107926954D01*
X107796954Y-108016652D01*
X107796951Y-108016657D01*
X107739352Y-108129698D01*
X107739352Y-108129699D01*
X107719508Y-108254996D01*
X103428538Y-108254996D01*
X103427295Y-107629996D01*
X108744508Y-107629996D01*
X108744508Y-107630003D01*
X108764352Y-107755300D01*
X108764352Y-107755301D01*
X108776095Y-107778347D01*
X108821950Y-107868342D01*
X108821952Y-107868344D01*
X108821954Y-107868347D01*
X108911652Y-107958045D01*
X108911654Y-107958046D01*
X108911658Y-107958050D01*
X109024696Y-108015646D01*
X109024697Y-108015646D01*
X109024699Y-108015647D01*
X109149997Y-108035492D01*
X109150000Y-108035492D01*
X109150003Y-108035492D01*
X109275300Y-108015647D01*
X109275301Y-108015647D01*
X109275302Y-108015646D01*
X109275304Y-108015646D01*
X109388342Y-107958050D01*
X109478050Y-107868342D01*
X109535646Y-107755304D01*
X109535646Y-107755302D01*
X109535647Y-107755301D01*
X109535647Y-107755300D01*
X109555492Y-107630003D01*
X109555492Y-107629996D01*
X109535647Y-107504699D01*
X109535647Y-107504698D01*
X109535646Y-107504696D01*
X109482300Y-107400000D01*
X109994353Y-107400000D01*
X110014834Y-107542456D01*
X110070938Y-107665304D01*
X110074623Y-107673373D01*
X110168872Y-107782143D01*
X110168874Y-107782144D01*
X110168876Y-107782146D01*
X110267744Y-107845685D01*
X110313499Y-107898488D01*
X110323443Y-107967647D01*
X110294418Y-108031203D01*
X110267744Y-108054315D01*
X110168876Y-108117853D01*
X110168874Y-108117855D01*
X110074623Y-108226626D01*
X110074622Y-108226628D01*
X110014834Y-108357543D01*
X109994353Y-108500000D01*
X110014834Y-108642456D01*
X110054957Y-108730311D01*
X110074623Y-108773373D01*
X110168872Y-108882143D01*
X110175879Y-108886646D01*
X110189943Y-108895685D01*
X110235698Y-108948489D01*
X110245641Y-109017648D01*
X110216615Y-109081203D01*
X110189943Y-109104315D01*
X110168874Y-109117855D01*
X110074623Y-109226626D01*
X110074622Y-109226628D01*
X110014834Y-109357543D01*
X109994353Y-109500000D01*
X110014834Y-109642456D01*
X110067433Y-109757629D01*
X110074623Y-109773373D01*
X110168872Y-109882143D01*
X110289947Y-109959953D01*
X110289950Y-109959954D01*
X110289949Y-109959954D01*
X110428036Y-110000499D01*
X110428038Y-110000500D01*
X110428039Y-110000500D01*
X110571962Y-110000500D01*
X110571962Y-110000499D01*
X110710053Y-109959953D01*
X110831128Y-109882143D01*
X110906287Y-109795403D01*
X110965064Y-109757629D01*
X111034934Y-109757629D01*
X111093711Y-109795402D01*
X111168872Y-109882143D01*
X111289947Y-109959953D01*
X111289950Y-109959954D01*
X111289949Y-109959954D01*
X111428036Y-110000499D01*
X111428038Y-110000500D01*
X111428039Y-110000500D01*
X111571962Y-110000500D01*
X111571962Y-110000499D01*
X111710053Y-109959953D01*
X111831128Y-109882143D01*
X111906287Y-109795403D01*
X111965064Y-109757629D01*
X112034934Y-109757629D01*
X112093711Y-109795402D01*
X112168872Y-109882143D01*
X112289947Y-109959953D01*
X112289950Y-109959954D01*
X112289949Y-109959954D01*
X112428036Y-110000499D01*
X112428038Y-110000500D01*
X112428039Y-110000500D01*
X112571962Y-110000500D01*
X112571962Y-110000499D01*
X112710053Y-109959953D01*
X112831128Y-109882143D01*
X112906287Y-109795403D01*
X112965064Y-109757629D01*
X113034934Y-109757629D01*
X113093711Y-109795402D01*
X113168872Y-109882143D01*
X113289947Y-109959953D01*
X113289950Y-109959954D01*
X113289949Y-109959954D01*
X113428036Y-110000499D01*
X113428038Y-110000500D01*
X113428039Y-110000500D01*
X113571962Y-110000500D01*
X113571962Y-110000499D01*
X113710053Y-109959953D01*
X113831128Y-109882143D01*
X113906287Y-109795403D01*
X113965064Y-109757629D01*
X114034934Y-109757629D01*
X114093711Y-109795402D01*
X114168872Y-109882143D01*
X114289947Y-109959953D01*
X114289950Y-109959954D01*
X114289949Y-109959954D01*
X114428036Y-110000499D01*
X114428038Y-110000500D01*
X114428039Y-110000500D01*
X114571962Y-110000500D01*
X114571962Y-110000499D01*
X114710053Y-109959953D01*
X114831128Y-109882143D01*
X114906287Y-109795403D01*
X114965064Y-109757629D01*
X115034934Y-109757629D01*
X115093711Y-109795402D01*
X115168872Y-109882143D01*
X115289947Y-109959953D01*
X115289950Y-109959954D01*
X115289949Y-109959954D01*
X115428036Y-110000499D01*
X115428038Y-110000500D01*
X115428039Y-110000500D01*
X115571962Y-110000500D01*
X115571962Y-110000499D01*
X115710053Y-109959953D01*
X115831128Y-109882143D01*
X115925377Y-109773373D01*
X115985165Y-109642457D01*
X116005647Y-109500000D01*
X115985165Y-109357543D01*
X115948389Y-109277016D01*
X117326528Y-109277016D01*
X117326528Y-109277023D01*
X117346372Y-109402320D01*
X117346372Y-109402321D01*
X117362181Y-109433347D01*
X117403970Y-109515362D01*
X117403972Y-109515364D01*
X117403974Y-109515367D01*
X117493672Y-109605065D01*
X117493674Y-109605066D01*
X117493678Y-109605070D01*
X117606716Y-109662666D01*
X117606717Y-109662666D01*
X117606719Y-109662667D01*
X117732017Y-109682512D01*
X117732020Y-109682512D01*
X117732023Y-109682512D01*
X117857320Y-109662667D01*
X117857321Y-109662667D01*
X117857322Y-109662666D01*
X117857324Y-109662666D01*
X117970362Y-109605070D01*
X118060070Y-109515362D01*
X118117666Y-109402324D01*
X118117666Y-109402322D01*
X118117667Y-109402321D01*
X118117667Y-109402320D01*
X118137512Y-109277023D01*
X118137512Y-109277016D01*
X118117667Y-109151719D01*
X118117667Y-109151718D01*
X118117666Y-109151716D01*
X118060070Y-109038678D01*
X118060066Y-109038674D01*
X118060065Y-109038672D01*
X117970367Y-108948974D01*
X117970364Y-108948972D01*
X117970362Y-108948970D01*
X117860545Y-108893015D01*
X117809750Y-108845041D01*
X117792955Y-108777220D01*
X117815493Y-108711085D01*
X117866759Y-108670372D01*
X117866609Y-108670076D01*
X117868070Y-108669331D01*
X117870208Y-108667634D01*
X117874412Y-108666099D01*
X117875299Y-108665646D01*
X117875304Y-108665646D01*
X117988342Y-108608050D01*
X118078050Y-108518342D01*
X118135646Y-108405304D01*
X118135646Y-108405302D01*
X118135647Y-108405301D01*
X118135647Y-108405300D01*
X118155492Y-108280003D01*
X118155492Y-108279996D01*
X143519508Y-108279996D01*
X143519508Y-108280003D01*
X143539352Y-108405300D01*
X143539352Y-108405301D01*
X143539354Y-108405304D01*
X143596950Y-108518342D01*
X143596952Y-108518344D01*
X143596954Y-108518347D01*
X143686652Y-108608045D01*
X143686654Y-108608046D01*
X143686658Y-108608050D01*
X143748412Y-108639515D01*
X143799208Y-108687490D01*
X143816003Y-108755311D01*
X143793465Y-108821446D01*
X143748413Y-108860484D01*
X143686658Y-108891950D01*
X143686657Y-108891951D01*
X143686652Y-108891954D01*
X143596954Y-108981652D01*
X143596951Y-108981657D01*
X143596950Y-108981658D01*
X143587604Y-109000000D01*
X143539352Y-109094698D01*
X143539352Y-109094699D01*
X143519508Y-109219996D01*
X143519508Y-109220003D01*
X143539352Y-109345300D01*
X143539352Y-109345301D01*
X143539354Y-109345304D01*
X143596950Y-109458342D01*
X143596952Y-109458344D01*
X143596954Y-109458347D01*
X143686652Y-109548045D01*
X143686654Y-109548046D01*
X143686658Y-109548050D01*
X143799696Y-109605646D01*
X143799697Y-109605646D01*
X143799699Y-109605647D01*
X143924997Y-109625492D01*
X143925000Y-109625492D01*
X143925003Y-109625492D01*
X144050300Y-109605647D01*
X144050301Y-109605647D01*
X144050302Y-109605646D01*
X144050304Y-109605646D01*
X144163342Y-109548050D01*
X144253050Y-109458342D01*
X144310646Y-109345304D01*
X144310646Y-109345302D01*
X144310647Y-109345301D01*
X144310647Y-109345300D01*
X144330492Y-109220003D01*
X144330492Y-109219996D01*
X144310647Y-109094699D01*
X144310647Y-109094698D01*
X144297909Y-109069699D01*
X144253050Y-108981658D01*
X144253046Y-108981654D01*
X144253045Y-108981652D01*
X144163347Y-108891954D01*
X144163343Y-108891951D01*
X144163342Y-108891950D01*
X144101584Y-108860483D01*
X144050791Y-108812511D01*
X144033996Y-108744690D01*
X144056533Y-108678555D01*
X144101584Y-108639517D01*
X144163342Y-108608050D01*
X144253050Y-108518342D01*
X144310646Y-108405304D01*
X144310646Y-108405302D01*
X144310647Y-108405301D01*
X144310647Y-108405300D01*
X144330492Y-108280003D01*
X144330492Y-108279996D01*
X144310647Y-108154699D01*
X144310647Y-108154698D01*
X144297909Y-108129699D01*
X144253050Y-108041658D01*
X144253046Y-108041654D01*
X144253045Y-108041652D01*
X144163347Y-107951954D01*
X144163344Y-107951952D01*
X144163342Y-107951950D01*
X144050304Y-107894354D01*
X144050303Y-107894353D01*
X144050300Y-107894352D01*
X143925003Y-107874508D01*
X143924997Y-107874508D01*
X143799699Y-107894352D01*
X143799698Y-107894352D01*
X143738282Y-107925646D01*
X143686658Y-107951950D01*
X143686657Y-107951951D01*
X143686652Y-107951954D01*
X143596954Y-108041652D01*
X143596951Y-108041657D01*
X143596950Y-108041658D01*
X143577751Y-108079337D01*
X143539352Y-108154698D01*
X143539352Y-108154699D01*
X143519508Y-108279996D01*
X118155492Y-108279996D01*
X118135647Y-108154699D01*
X118135647Y-108154698D01*
X118122909Y-108129699D01*
X118078050Y-108041658D01*
X118078046Y-108041654D01*
X118078045Y-108041652D01*
X117988347Y-107951954D01*
X117988344Y-107951952D01*
X117988342Y-107951950D01*
X117875304Y-107894354D01*
X117875303Y-107894353D01*
X117875300Y-107894352D01*
X117750003Y-107874508D01*
X117749997Y-107874508D01*
X117624699Y-107894352D01*
X117624698Y-107894352D01*
X117563282Y-107925646D01*
X117511658Y-107951950D01*
X117511657Y-107951951D01*
X117511652Y-107951954D01*
X117421954Y-108041652D01*
X117421951Y-108041657D01*
X117421950Y-108041658D01*
X117402751Y-108079337D01*
X117364352Y-108154698D01*
X117364352Y-108154699D01*
X117344508Y-108279996D01*
X117344508Y-108280003D01*
X117364352Y-108405300D01*
X117364352Y-108405301D01*
X117364354Y-108405304D01*
X117421950Y-108518342D01*
X117421952Y-108518344D01*
X117421954Y-108518347D01*
X117511652Y-108608045D01*
X117511654Y-108608046D01*
X117511658Y-108608050D01*
X117621474Y-108664004D01*
X117672269Y-108711978D01*
X117689064Y-108779799D01*
X117666527Y-108845934D01*
X117615259Y-108886646D01*
X117615411Y-108886944D01*
X117613942Y-108887692D01*
X117611811Y-108889385D01*
X117607614Y-108890916D01*
X117598255Y-108895685D01*
X117493678Y-108948970D01*
X117493677Y-108948971D01*
X117493672Y-108948974D01*
X117403974Y-109038672D01*
X117403971Y-109038677D01*
X117403970Y-109038678D01*
X117388164Y-109069699D01*
X117346372Y-109151718D01*
X117346372Y-109151719D01*
X117326528Y-109277016D01*
X115948389Y-109277016D01*
X115925377Y-109226627D01*
X115831128Y-109117857D01*
X115831125Y-109117855D01*
X115831125Y-109117854D01*
X115810058Y-109104316D01*
X115764302Y-109051513D01*
X115754358Y-108982354D01*
X115783382Y-108918798D01*
X115810058Y-108895684D01*
X115831125Y-108882145D01*
X115831125Y-108882144D01*
X115831128Y-108882143D01*
X115925377Y-108773373D01*
X115985165Y-108642457D01*
X116005647Y-108500000D01*
X115985165Y-108357543D01*
X115925377Y-108226627D01*
X115831128Y-108117857D01*
X115732253Y-108054314D01*
X115686500Y-108001512D01*
X115676556Y-107932354D01*
X115705581Y-107868798D01*
X115732254Y-107845685D01*
X115831128Y-107782143D01*
X115925377Y-107673373D01*
X115968021Y-107579996D01*
X116364508Y-107579996D01*
X116364508Y-107580003D01*
X116384352Y-107705300D01*
X116384352Y-107705301D01*
X116384354Y-107705304D01*
X116441950Y-107818342D01*
X116441952Y-107818344D01*
X116441954Y-107818347D01*
X116531652Y-107908045D01*
X116531654Y-107908046D01*
X116531658Y-107908050D01*
X116644696Y-107965646D01*
X116644697Y-107965646D01*
X116644699Y-107965647D01*
X116769997Y-107985492D01*
X116770000Y-107985492D01*
X116770003Y-107985492D01*
X116895300Y-107965647D01*
X116895301Y-107965647D01*
X116895302Y-107965646D01*
X116895304Y-107965646D01*
X117008342Y-107908050D01*
X117098050Y-107818342D01*
X117155646Y-107705304D01*
X117155646Y-107705302D01*
X117155647Y-107705301D01*
X117155647Y-107705300D01*
X117175492Y-107580003D01*
X117175492Y-107579996D01*
X117173908Y-107569996D01*
X144534508Y-107569996D01*
X144534508Y-107570003D01*
X144554352Y-107695300D01*
X144554352Y-107695301D01*
X144559449Y-107705304D01*
X144611950Y-107808342D01*
X144611952Y-107808344D01*
X144611954Y-107808347D01*
X144701652Y-107898045D01*
X144701654Y-107898046D01*
X144701658Y-107898050D01*
X144814696Y-107955646D01*
X144814697Y-107955646D01*
X144814699Y-107955647D01*
X144939997Y-107975492D01*
X144940000Y-107975492D01*
X144940003Y-107975492D01*
X145065300Y-107955647D01*
X145065301Y-107955647D01*
X145065302Y-107955646D01*
X145065304Y-107955646D01*
X145178342Y-107898050D01*
X145268050Y-107808342D01*
X145325646Y-107695304D01*
X145325646Y-107695302D01*
X145325647Y-107695301D01*
X145325647Y-107695300D01*
X145345492Y-107570003D01*
X145345492Y-107569996D01*
X145325647Y-107444699D01*
X145325647Y-107444698D01*
X145322884Y-107439276D01*
X145302872Y-107400000D01*
X145994353Y-107400000D01*
X146014834Y-107542456D01*
X146070938Y-107665304D01*
X146074623Y-107673373D01*
X146168872Y-107782143D01*
X146168874Y-107782144D01*
X146168876Y-107782146D01*
X146267744Y-107845685D01*
X146313499Y-107898488D01*
X146323443Y-107967647D01*
X146294418Y-108031203D01*
X146267744Y-108054315D01*
X146168876Y-108117853D01*
X146168874Y-108117855D01*
X146074623Y-108226626D01*
X146074622Y-108226628D01*
X146014834Y-108357543D01*
X145994353Y-108500000D01*
X146014834Y-108642456D01*
X146054957Y-108730311D01*
X146074623Y-108773373D01*
X146168872Y-108882143D01*
X146175879Y-108886646D01*
X146189943Y-108895685D01*
X146235698Y-108948489D01*
X146245641Y-109017648D01*
X146216615Y-109081203D01*
X146189943Y-109104315D01*
X146168874Y-109117855D01*
X146074623Y-109226626D01*
X146074622Y-109226628D01*
X146014834Y-109357543D01*
X145994353Y-109500000D01*
X146014834Y-109642456D01*
X146067433Y-109757629D01*
X146074623Y-109773373D01*
X146168872Y-109882143D01*
X146289947Y-109959953D01*
X146289950Y-109959954D01*
X146289949Y-109959954D01*
X146428036Y-110000499D01*
X146428038Y-110000500D01*
X146428039Y-110000500D01*
X146571962Y-110000500D01*
X146571962Y-110000499D01*
X146710053Y-109959953D01*
X146831128Y-109882143D01*
X146906287Y-109795403D01*
X146965064Y-109757629D01*
X147034934Y-109757629D01*
X147093711Y-109795402D01*
X147168872Y-109882143D01*
X147289947Y-109959953D01*
X147289950Y-109959954D01*
X147289949Y-109959954D01*
X147428036Y-110000499D01*
X147428038Y-110000500D01*
X147428039Y-110000500D01*
X147571962Y-110000500D01*
X147571962Y-110000499D01*
X147710053Y-109959953D01*
X147831128Y-109882143D01*
X147906287Y-109795403D01*
X147965064Y-109757629D01*
X148034934Y-109757629D01*
X148093711Y-109795402D01*
X148168872Y-109882143D01*
X148289947Y-109959953D01*
X148289950Y-109959954D01*
X148289949Y-109959954D01*
X148428036Y-110000499D01*
X148428038Y-110000500D01*
X148428039Y-110000500D01*
X148571962Y-110000500D01*
X148571962Y-110000499D01*
X148710053Y-109959953D01*
X148831128Y-109882143D01*
X148906287Y-109795403D01*
X148965064Y-109757629D01*
X149034934Y-109757629D01*
X149093711Y-109795402D01*
X149168872Y-109882143D01*
X149289947Y-109959953D01*
X149289950Y-109959954D01*
X149289949Y-109959954D01*
X149428036Y-110000499D01*
X149428038Y-110000500D01*
X149428039Y-110000500D01*
X149571962Y-110000500D01*
X149571962Y-110000499D01*
X149710053Y-109959953D01*
X149831128Y-109882143D01*
X149906287Y-109795403D01*
X149965064Y-109757629D01*
X150034934Y-109757629D01*
X150093711Y-109795402D01*
X150168872Y-109882143D01*
X150289947Y-109959953D01*
X150289950Y-109959954D01*
X150289949Y-109959954D01*
X150428036Y-110000499D01*
X150428038Y-110000500D01*
X150428039Y-110000500D01*
X150571962Y-110000500D01*
X150571962Y-110000499D01*
X150710053Y-109959953D01*
X150831128Y-109882143D01*
X150906287Y-109795403D01*
X150965064Y-109757629D01*
X151034934Y-109757629D01*
X151093711Y-109795402D01*
X151168872Y-109882143D01*
X151289947Y-109959953D01*
X151289950Y-109959954D01*
X151289949Y-109959954D01*
X151428036Y-110000499D01*
X151428038Y-110000500D01*
X151428039Y-110000500D01*
X151571962Y-110000500D01*
X151571962Y-110000499D01*
X151710053Y-109959953D01*
X151831128Y-109882143D01*
X151925377Y-109773373D01*
X151985165Y-109642457D01*
X152005647Y-109500000D01*
X151985165Y-109357543D01*
X151925377Y-109226627D01*
X151831128Y-109117857D01*
X151831125Y-109117855D01*
X151831125Y-109117854D01*
X151810058Y-109104316D01*
X151764302Y-109051513D01*
X151754358Y-108982354D01*
X151783382Y-108918798D01*
X151810058Y-108895684D01*
X151831125Y-108882145D01*
X151831125Y-108882144D01*
X151831128Y-108882143D01*
X151925377Y-108773373D01*
X151985165Y-108642457D01*
X152005647Y-108500000D01*
X151985165Y-108357543D01*
X151938333Y-108254996D01*
X153644508Y-108254996D01*
X153644508Y-108255003D01*
X153664352Y-108380300D01*
X153664352Y-108380301D01*
X153664354Y-108380304D01*
X153721950Y-108493342D01*
X153721952Y-108493344D01*
X153721954Y-108493347D01*
X153811652Y-108583045D01*
X153811654Y-108583046D01*
X153811658Y-108583050D01*
X153873412Y-108614515D01*
X153924208Y-108662490D01*
X153941003Y-108730311D01*
X153918465Y-108796446D01*
X153873413Y-108835484D01*
X153811658Y-108866950D01*
X153811657Y-108866951D01*
X153811652Y-108866954D01*
X153721954Y-108956652D01*
X153721951Y-108956657D01*
X153721950Y-108956658D01*
X153709215Y-108981652D01*
X153664352Y-109069698D01*
X153664352Y-109069699D01*
X153644508Y-109194996D01*
X153644508Y-109195003D01*
X153664352Y-109320300D01*
X153664352Y-109320301D01*
X153664354Y-109320304D01*
X153721950Y-109433342D01*
X153721952Y-109433344D01*
X153721954Y-109433347D01*
X153811652Y-109523045D01*
X153811654Y-109523046D01*
X153811658Y-109523050D01*
X153924696Y-109580646D01*
X153924697Y-109580646D01*
X153924699Y-109580647D01*
X154049997Y-109600492D01*
X154050000Y-109600492D01*
X154050003Y-109600492D01*
X154175300Y-109580647D01*
X154175301Y-109580647D01*
X154175302Y-109580646D01*
X154175304Y-109580646D01*
X154288342Y-109523050D01*
X154378050Y-109433342D01*
X154435646Y-109320304D01*
X154435646Y-109320302D01*
X154435647Y-109320301D01*
X154435647Y-109320300D01*
X154455492Y-109195003D01*
X154455492Y-109194996D01*
X154435647Y-109069699D01*
X154435647Y-109069698D01*
X154419838Y-109038672D01*
X154378050Y-108956658D01*
X154378046Y-108956654D01*
X154378045Y-108956652D01*
X154288347Y-108866954D01*
X154288343Y-108866951D01*
X154288342Y-108866950D01*
X154226584Y-108835483D01*
X154175791Y-108787511D01*
X154158996Y-108719690D01*
X154181533Y-108653555D01*
X154226584Y-108614517D01*
X154288342Y-108583050D01*
X154378050Y-108493342D01*
X154435646Y-108380304D01*
X154435646Y-108380302D01*
X154435647Y-108380301D01*
X154435647Y-108380300D01*
X154455492Y-108255003D01*
X154455492Y-108254996D01*
X154435647Y-108129699D01*
X154435647Y-108129698D01*
X154429613Y-108117855D01*
X154378050Y-108016658D01*
X154378046Y-108016654D01*
X154378045Y-108016652D01*
X154288347Y-107926954D01*
X154288344Y-107926952D01*
X154288342Y-107926950D01*
X154175304Y-107869354D01*
X154175303Y-107869353D01*
X154175300Y-107869352D01*
X154050003Y-107849508D01*
X154049997Y-107849508D01*
X153924699Y-107869352D01*
X153924698Y-107869352D01*
X153849337Y-107907751D01*
X153811658Y-107926950D01*
X153811657Y-107926951D01*
X153811652Y-107926954D01*
X153721954Y-108016652D01*
X153721951Y-108016657D01*
X153664352Y-108129698D01*
X153664352Y-108129699D01*
X153644508Y-108254996D01*
X151938333Y-108254996D01*
X151925377Y-108226627D01*
X151831128Y-108117857D01*
X151732253Y-108054314D01*
X151686500Y-108001512D01*
X151676556Y-107932354D01*
X151705581Y-107868798D01*
X151732254Y-107845685D01*
X151831128Y-107782143D01*
X151925377Y-107673373D01*
X151985165Y-107542457D01*
X151985519Y-107539996D01*
X152604508Y-107539996D01*
X152604508Y-107540003D01*
X152624352Y-107665300D01*
X152624352Y-107665301D01*
X152624354Y-107665304D01*
X152681950Y-107778342D01*
X152681952Y-107778344D01*
X152681954Y-107778347D01*
X152771652Y-107868045D01*
X152771654Y-107868046D01*
X152771658Y-107868050D01*
X152884696Y-107925646D01*
X152884697Y-107925646D01*
X152884699Y-107925647D01*
X153009997Y-107945492D01*
X153010000Y-107945492D01*
X153010003Y-107945492D01*
X153135300Y-107925647D01*
X153135301Y-107925647D01*
X153135302Y-107925646D01*
X153135304Y-107925646D01*
X153248342Y-107868050D01*
X153338050Y-107778342D01*
X153395646Y-107665304D01*
X153395646Y-107665302D01*
X153395647Y-107665301D01*
X153395647Y-107665300D01*
X153415492Y-107540003D01*
X153415492Y-107539996D01*
X153395647Y-107414699D01*
X153395647Y-107414698D01*
X153368145Y-107360723D01*
X153338050Y-107301658D01*
X153338046Y-107301654D01*
X153338045Y-107301652D01*
X153248347Y-107211954D01*
X153248344Y-107211952D01*
X153248342Y-107211950D01*
X153135304Y-107154354D01*
X153135303Y-107154353D01*
X153135300Y-107154352D01*
X153010003Y-107134508D01*
X153009997Y-107134508D01*
X152884699Y-107154352D01*
X152884698Y-107154352D01*
X152825818Y-107184354D01*
X152771658Y-107211950D01*
X152771657Y-107211951D01*
X152771652Y-107211954D01*
X152681954Y-107301652D01*
X152681951Y-107301657D01*
X152681950Y-107301658D01*
X152666667Y-107331652D01*
X152624352Y-107414698D01*
X152624352Y-107414699D01*
X152604508Y-107539996D01*
X151985519Y-107539996D01*
X152005647Y-107400000D01*
X151985165Y-107257543D01*
X151925377Y-107126627D01*
X151831128Y-107017857D01*
X151710053Y-106940047D01*
X151710051Y-106940046D01*
X151710049Y-106940045D01*
X151710050Y-106940045D01*
X151571963Y-106899500D01*
X151571961Y-106899500D01*
X151428039Y-106899500D01*
X151428036Y-106899500D01*
X151289949Y-106940045D01*
X151168873Y-107017856D01*
X151093713Y-107104596D01*
X151034935Y-107142370D01*
X150965065Y-107142370D01*
X150906287Y-107104596D01*
X150831128Y-107017857D01*
X150710053Y-106940047D01*
X150710051Y-106940046D01*
X150710049Y-106940045D01*
X150710050Y-106940045D01*
X150571963Y-106899500D01*
X150571961Y-106899500D01*
X150428039Y-106899500D01*
X150428036Y-106899500D01*
X150289949Y-106940045D01*
X150168873Y-107017856D01*
X150093713Y-107104596D01*
X150034935Y-107142370D01*
X149965065Y-107142370D01*
X149906287Y-107104596D01*
X149831128Y-107017857D01*
X149710053Y-106940047D01*
X149710051Y-106940046D01*
X149710049Y-106940045D01*
X149710050Y-106940045D01*
X149571963Y-106899500D01*
X149571961Y-106899500D01*
X149428039Y-106899500D01*
X149428036Y-106899500D01*
X149289949Y-106940045D01*
X149168873Y-107017856D01*
X149093713Y-107104596D01*
X149034935Y-107142370D01*
X148965065Y-107142370D01*
X148906287Y-107104596D01*
X148831128Y-107017857D01*
X148710053Y-106940047D01*
X148710051Y-106940046D01*
X148710049Y-106940045D01*
X148710050Y-106940045D01*
X148571963Y-106899500D01*
X148571961Y-106899500D01*
X148428039Y-106899500D01*
X148428036Y-106899500D01*
X148289949Y-106940045D01*
X148168873Y-107017856D01*
X148093713Y-107104596D01*
X148034935Y-107142370D01*
X147965065Y-107142370D01*
X147906287Y-107104596D01*
X147831128Y-107017857D01*
X147710053Y-106940047D01*
X147710051Y-106940046D01*
X147710049Y-106940045D01*
X147710050Y-106940045D01*
X147571963Y-106899500D01*
X147571961Y-106899500D01*
X147428039Y-106899500D01*
X147428036Y-106899500D01*
X147289949Y-106940045D01*
X147168873Y-107017856D01*
X147093713Y-107104596D01*
X147034935Y-107142370D01*
X146965065Y-107142370D01*
X146906287Y-107104596D01*
X146831128Y-107017857D01*
X146710053Y-106940047D01*
X146710051Y-106940046D01*
X146710049Y-106940045D01*
X146710050Y-106940045D01*
X146571963Y-106899500D01*
X146571961Y-106899500D01*
X146428039Y-106899500D01*
X146428036Y-106899500D01*
X146289949Y-106940045D01*
X146168873Y-107017856D01*
X146074623Y-107126626D01*
X146074622Y-107126628D01*
X146014834Y-107257543D01*
X145994353Y-107400000D01*
X145302872Y-107400000D01*
X145268050Y-107331658D01*
X145268046Y-107331654D01*
X145268045Y-107331652D01*
X145178347Y-107241954D01*
X145178344Y-107241952D01*
X145178342Y-107241950D01*
X145065304Y-107184354D01*
X145065303Y-107184353D01*
X145065300Y-107184352D01*
X144940003Y-107164508D01*
X144939997Y-107164508D01*
X144814699Y-107184352D01*
X144814698Y-107184352D01*
X144760536Y-107211950D01*
X144701658Y-107241950D01*
X144701657Y-107241951D01*
X144701652Y-107241954D01*
X144611954Y-107331652D01*
X144611951Y-107331657D01*
X144611950Y-107331658D01*
X144606855Y-107341658D01*
X144554352Y-107444698D01*
X144554352Y-107444699D01*
X144534508Y-107569996D01*
X117173908Y-107569996D01*
X117155647Y-107454699D01*
X117155647Y-107454698D01*
X117135266Y-107414699D01*
X117098050Y-107341658D01*
X117098046Y-107341654D01*
X117098045Y-107341652D01*
X117008347Y-107251954D01*
X117008344Y-107251952D01*
X117008342Y-107251950D01*
X116895304Y-107194354D01*
X116895303Y-107194353D01*
X116895300Y-107194352D01*
X116770003Y-107174508D01*
X116769997Y-107174508D01*
X116644699Y-107194352D01*
X116644698Y-107194352D01*
X116569337Y-107232751D01*
X116531658Y-107251950D01*
X116531657Y-107251951D01*
X116531652Y-107251954D01*
X116441954Y-107341652D01*
X116441951Y-107341657D01*
X116384352Y-107454698D01*
X116384352Y-107454699D01*
X116364508Y-107579996D01*
X115968021Y-107579996D01*
X115985165Y-107542457D01*
X116005647Y-107400000D01*
X115985165Y-107257543D01*
X115925377Y-107126627D01*
X115831128Y-107017857D01*
X115710053Y-106940047D01*
X115710051Y-106940046D01*
X115710049Y-106940045D01*
X115710050Y-106940045D01*
X115571963Y-106899500D01*
X115571961Y-106899500D01*
X115428039Y-106899500D01*
X115428036Y-106899500D01*
X115289949Y-106940045D01*
X115168873Y-107017856D01*
X115093713Y-107104596D01*
X115034935Y-107142370D01*
X114965065Y-107142370D01*
X114906287Y-107104596D01*
X114831128Y-107017857D01*
X114710053Y-106940047D01*
X114710051Y-106940046D01*
X114710049Y-106940045D01*
X114710050Y-106940045D01*
X114571963Y-106899500D01*
X114571961Y-106899500D01*
X114428039Y-106899500D01*
X114428036Y-106899500D01*
X114289949Y-106940045D01*
X114168873Y-107017856D01*
X114093713Y-107104596D01*
X114034935Y-107142370D01*
X113965065Y-107142370D01*
X113906287Y-107104596D01*
X113831128Y-107017857D01*
X113710053Y-106940047D01*
X113710051Y-106940046D01*
X113710049Y-106940045D01*
X113710050Y-106940045D01*
X113571963Y-106899500D01*
X113571961Y-106899500D01*
X113428039Y-106899500D01*
X113428036Y-106899500D01*
X113289949Y-106940045D01*
X113168873Y-107017856D01*
X113093713Y-107104596D01*
X113034935Y-107142370D01*
X112965065Y-107142370D01*
X112906287Y-107104596D01*
X112831128Y-107017857D01*
X112710053Y-106940047D01*
X112710051Y-106940046D01*
X112710049Y-106940045D01*
X112710050Y-106940045D01*
X112571963Y-106899500D01*
X112571961Y-106899500D01*
X112428039Y-106899500D01*
X112428036Y-106899500D01*
X112289949Y-106940045D01*
X112168873Y-107017856D01*
X112093713Y-107104596D01*
X112034935Y-107142370D01*
X111965065Y-107142370D01*
X111906287Y-107104596D01*
X111831128Y-107017857D01*
X111710053Y-106940047D01*
X111710051Y-106940046D01*
X111710049Y-106940045D01*
X111710050Y-106940045D01*
X111571963Y-106899500D01*
X111571961Y-106899500D01*
X111428039Y-106899500D01*
X111428036Y-106899500D01*
X111289949Y-106940045D01*
X111168873Y-107017856D01*
X111093713Y-107104596D01*
X111034935Y-107142370D01*
X110965065Y-107142370D01*
X110906287Y-107104596D01*
X110831128Y-107017857D01*
X110710053Y-106940047D01*
X110710051Y-106940046D01*
X110710049Y-106940045D01*
X110710050Y-106940045D01*
X110571963Y-106899500D01*
X110571961Y-106899500D01*
X110428039Y-106899500D01*
X110428036Y-106899500D01*
X110289949Y-106940045D01*
X110168873Y-107017856D01*
X110074623Y-107126626D01*
X110074622Y-107126628D01*
X110014834Y-107257543D01*
X109994353Y-107400000D01*
X109482300Y-107400000D01*
X109478050Y-107391658D01*
X109478046Y-107391654D01*
X109478045Y-107391652D01*
X109388347Y-107301954D01*
X109388344Y-107301952D01*
X109388342Y-107301950D01*
X109275304Y-107244354D01*
X109275303Y-107244353D01*
X109275300Y-107244352D01*
X109150003Y-107224508D01*
X109149997Y-107224508D01*
X109024699Y-107244352D01*
X109024698Y-107244352D01*
X108949337Y-107282751D01*
X108911658Y-107301950D01*
X108911657Y-107301951D01*
X108911652Y-107301954D01*
X108821954Y-107391652D01*
X108821951Y-107391657D01*
X108821950Y-107391658D01*
X108810210Y-107414699D01*
X108764352Y-107504698D01*
X108764352Y-107504699D01*
X108744508Y-107629996D01*
X103427295Y-107629996D01*
X103424949Y-106450000D01*
X130544353Y-106450000D01*
X130564834Y-106592456D01*
X130624622Y-106723371D01*
X130624623Y-106723373D01*
X130718872Y-106832143D01*
X130839947Y-106909953D01*
X130839950Y-106909954D01*
X130839949Y-106909954D01*
X130978036Y-106950499D01*
X130978038Y-106950500D01*
X130978039Y-106950500D01*
X131121962Y-106950500D01*
X131121962Y-106950499D01*
X131260053Y-106909953D01*
X131381128Y-106832143D01*
X131475377Y-106723373D01*
X131535165Y-106592457D01*
X131555647Y-106450000D01*
X131535165Y-106307543D01*
X131475377Y-106176627D01*
X131381128Y-106067857D01*
X131260053Y-105990047D01*
X131260051Y-105990046D01*
X131260049Y-105990045D01*
X131260050Y-105990045D01*
X131121963Y-105949500D01*
X131121961Y-105949500D01*
X130978039Y-105949500D01*
X130978036Y-105949500D01*
X130839949Y-105990045D01*
X130718873Y-106067856D01*
X130624623Y-106176626D01*
X130624622Y-106176628D01*
X130564834Y-106307543D01*
X130544353Y-106450000D01*
X103424949Y-106450000D01*
X103418985Y-103450000D01*
X122944353Y-103450000D01*
X122964834Y-103592456D01*
X123024622Y-103723371D01*
X123024625Y-103723377D01*
X123063983Y-103768798D01*
X123093008Y-103832353D01*
X123083064Y-103901512D01*
X123063983Y-103931202D01*
X123024625Y-103976622D01*
X123024622Y-103976628D01*
X122964834Y-104107543D01*
X122944353Y-104250000D01*
X122964834Y-104392456D01*
X123010504Y-104492457D01*
X123024623Y-104523373D01*
X123118872Y-104632143D01*
X123239947Y-104709953D01*
X123239950Y-104709954D01*
X123239949Y-104709954D01*
X123378036Y-104750499D01*
X123378038Y-104750500D01*
X123378039Y-104750500D01*
X123521962Y-104750500D01*
X123521962Y-104750499D01*
X123660050Y-104709954D01*
X123660051Y-104709954D01*
X123749204Y-104652659D01*
X123781128Y-104632143D01*
X123781129Y-104632141D01*
X123782960Y-104630965D01*
X123850000Y-104611280D01*
X123917039Y-104630964D01*
X123917040Y-104630965D01*
X123918870Y-104632141D01*
X123918872Y-104632143D01*
X123950796Y-104652659D01*
X124039948Y-104709954D01*
X124178036Y-104750499D01*
X124178038Y-104750500D01*
X124178039Y-104750500D01*
X124321962Y-104750500D01*
X124321962Y-104750499D01*
X124460050Y-104709954D01*
X124460051Y-104709954D01*
X124549204Y-104652659D01*
X124581128Y-104632143D01*
X124581129Y-104632141D01*
X124582960Y-104630965D01*
X124650000Y-104611280D01*
X124717039Y-104630964D01*
X124717040Y-104630965D01*
X124718870Y-104632141D01*
X124718872Y-104632143D01*
X124750796Y-104652659D01*
X124839948Y-104709954D01*
X124978036Y-104750499D01*
X124978038Y-104750500D01*
X124978039Y-104750500D01*
X125121962Y-104750500D01*
X125121962Y-104750499D01*
X125260050Y-104709954D01*
X125260051Y-104709954D01*
X125349204Y-104652659D01*
X125381128Y-104632143D01*
X125381129Y-104632141D01*
X125382960Y-104630965D01*
X125450000Y-104611280D01*
X125517039Y-104630964D01*
X125517040Y-104630965D01*
X125518870Y-104632141D01*
X125518872Y-104632143D01*
X125550796Y-104652659D01*
X125639948Y-104709954D01*
X125778036Y-104750499D01*
X125778038Y-104750500D01*
X125778039Y-104750500D01*
X125921962Y-104750500D01*
X125921962Y-104750499D01*
X126060053Y-104709953D01*
X126181128Y-104632143D01*
X126275377Y-104523373D01*
X126335165Y-104392457D01*
X126355647Y-104250000D01*
X126335165Y-104107543D01*
X126275377Y-103976627D01*
X126275375Y-103976625D01*
X126275374Y-103976622D01*
X126236017Y-103931203D01*
X126206991Y-103867648D01*
X126216934Y-103798489D01*
X126236017Y-103768797D01*
X126275374Y-103723377D01*
X126275374Y-103723375D01*
X126275377Y-103723373D01*
X126335165Y-103592457D01*
X126355647Y-103450000D01*
X126335165Y-103307543D01*
X126275377Y-103176627D01*
X126181128Y-103067857D01*
X126060053Y-102990047D01*
X126060051Y-102990046D01*
X126060049Y-102990045D01*
X126060050Y-102990045D01*
X125921963Y-102949500D01*
X125921961Y-102949500D01*
X125778039Y-102949500D01*
X125778036Y-102949500D01*
X125639949Y-102990045D01*
X125517039Y-103069035D01*
X125450000Y-103088719D01*
X125382961Y-103069035D01*
X125330566Y-103035363D01*
X125260053Y-102990047D01*
X125260051Y-102990046D01*
X125260049Y-102990045D01*
X125260050Y-102990045D01*
X125121963Y-102949500D01*
X125121961Y-102949500D01*
X124978039Y-102949500D01*
X124978036Y-102949500D01*
X124839949Y-102990045D01*
X124717039Y-103069035D01*
X124650000Y-103088719D01*
X124582961Y-103069035D01*
X124530566Y-103035363D01*
X124460053Y-102990047D01*
X124460051Y-102990046D01*
X124460049Y-102990045D01*
X124460050Y-102990045D01*
X124321963Y-102949500D01*
X124321961Y-102949500D01*
X124178039Y-102949500D01*
X124178036Y-102949500D01*
X124039949Y-102990045D01*
X123917039Y-103069035D01*
X123850000Y-103088719D01*
X123782961Y-103069035D01*
X123730566Y-103035363D01*
X123660053Y-102990047D01*
X123660051Y-102990046D01*
X123660049Y-102990045D01*
X123660050Y-102990045D01*
X123521963Y-102949500D01*
X123521961Y-102949500D01*
X123378039Y-102949500D01*
X123378036Y-102949500D01*
X123239949Y-102990045D01*
X123118873Y-103067856D01*
X123118872Y-103067856D01*
X123118872Y-103067857D01*
X123118057Y-103068798D01*
X123024623Y-103176626D01*
X123024622Y-103176628D01*
X122964834Y-103307543D01*
X122944353Y-103450000D01*
X103418985Y-103450000D01*
X103414910Y-101400000D01*
X109394353Y-101400000D01*
X109414834Y-101542456D01*
X109474622Y-101673371D01*
X109479418Y-101680834D01*
X109476895Y-101682455D01*
X109499683Y-101732355D01*
X109489739Y-101801513D01*
X109478693Y-101818700D01*
X109479418Y-101819166D01*
X109474622Y-101826628D01*
X109414834Y-101957543D01*
X109394353Y-102100000D01*
X109414834Y-102242456D01*
X109474622Y-102373371D01*
X109479418Y-102380834D01*
X109476895Y-102382455D01*
X109499683Y-102432355D01*
X109489739Y-102501513D01*
X109478693Y-102518700D01*
X109479418Y-102519166D01*
X109474622Y-102526628D01*
X109414834Y-102657543D01*
X109394353Y-102800000D01*
X109414834Y-102942456D01*
X109463949Y-103050000D01*
X109474623Y-103073373D01*
X109568872Y-103182143D01*
X109689947Y-103259953D01*
X109689950Y-103259954D01*
X109689949Y-103259954D01*
X109828036Y-103300499D01*
X109828038Y-103300500D01*
X109828039Y-103300500D01*
X109971962Y-103300500D01*
X109971962Y-103300499D01*
X110110053Y-103259953D01*
X110182961Y-103213098D01*
X110250000Y-103193414D01*
X110317039Y-103213098D01*
X110389947Y-103259953D01*
X110389950Y-103259954D01*
X110389949Y-103259954D01*
X110528036Y-103300499D01*
X110528038Y-103300500D01*
X110528039Y-103300500D01*
X110671962Y-103300500D01*
X110671962Y-103300499D01*
X110810053Y-103259953D01*
X110931128Y-103182143D01*
X111025377Y-103073373D01*
X111085165Y-102942457D01*
X111105647Y-102800000D01*
X111085165Y-102657543D01*
X111025377Y-102526627D01*
X111025370Y-102526619D01*
X111020582Y-102519167D01*
X111023108Y-102517543D01*
X111000320Y-102467674D01*
X111010248Y-102398513D01*
X111021310Y-102381300D01*
X111020582Y-102380833D01*
X111025368Y-102373382D01*
X111025377Y-102373373D01*
X111085165Y-102242457D01*
X111105647Y-102100000D01*
X111085165Y-101957543D01*
X111025377Y-101826627D01*
X111025370Y-101826619D01*
X111020582Y-101819167D01*
X111023108Y-101817543D01*
X111000320Y-101767674D01*
X111010248Y-101698513D01*
X111021310Y-101681300D01*
X111020582Y-101680833D01*
X111025368Y-101673382D01*
X111025377Y-101673373D01*
X111085165Y-101542457D01*
X111105647Y-101400000D01*
X111656853Y-101400000D01*
X111677334Y-101542456D01*
X111737122Y-101673371D01*
X111741918Y-101680834D01*
X111739395Y-101682455D01*
X111762183Y-101732355D01*
X111752239Y-101801513D01*
X111741193Y-101818700D01*
X111741918Y-101819166D01*
X111737122Y-101826628D01*
X111677334Y-101957543D01*
X111656853Y-102100000D01*
X111677334Y-102242456D01*
X111737122Y-102373371D01*
X111741918Y-102380834D01*
X111739395Y-102382455D01*
X111762183Y-102432355D01*
X111752239Y-102501513D01*
X111741193Y-102518700D01*
X111741918Y-102519166D01*
X111737122Y-102526628D01*
X111677334Y-102657543D01*
X111656853Y-102800000D01*
X111677334Y-102942456D01*
X111726449Y-103050000D01*
X111737123Y-103073373D01*
X111831372Y-103182143D01*
X111952447Y-103259953D01*
X111952450Y-103259954D01*
X111952449Y-103259954D01*
X112090536Y-103300499D01*
X112090538Y-103300500D01*
X112090539Y-103300500D01*
X112234462Y-103300500D01*
X112234462Y-103300499D01*
X112372553Y-103259953D01*
X112445461Y-103213098D01*
X112512500Y-103193414D01*
X112579539Y-103213098D01*
X112652447Y-103259953D01*
X112652450Y-103259954D01*
X112652449Y-103259954D01*
X112790536Y-103300499D01*
X112790538Y-103300500D01*
X112790539Y-103300500D01*
X112934462Y-103300500D01*
X112934462Y-103300499D01*
X113072553Y-103259953D01*
X113193628Y-103182143D01*
X113287877Y-103073373D01*
X113347665Y-102942457D01*
X113368147Y-102800000D01*
X113347665Y-102657543D01*
X113287877Y-102526627D01*
X113287870Y-102526619D01*
X113283082Y-102519167D01*
X113285608Y-102517543D01*
X113262820Y-102467674D01*
X113272748Y-102398513D01*
X113283810Y-102381300D01*
X113283082Y-102380833D01*
X113287868Y-102373382D01*
X113287877Y-102373373D01*
X113347665Y-102242457D01*
X113368147Y-102100000D01*
X113347665Y-101957543D01*
X113287877Y-101826627D01*
X113287870Y-101826619D01*
X113283082Y-101819167D01*
X113285608Y-101817543D01*
X113262820Y-101767674D01*
X113272748Y-101698513D01*
X113283810Y-101681300D01*
X113283082Y-101680833D01*
X113287868Y-101673382D01*
X113287877Y-101673373D01*
X113347665Y-101542457D01*
X113368147Y-101400000D01*
X113956853Y-101400000D01*
X113977334Y-101542456D01*
X114037122Y-101673371D01*
X114041918Y-101680834D01*
X114039395Y-101682455D01*
X114062183Y-101732355D01*
X114052239Y-101801513D01*
X114041193Y-101818700D01*
X114041918Y-101819166D01*
X114037122Y-101826628D01*
X113977334Y-101957543D01*
X113956853Y-102100000D01*
X113977334Y-102242456D01*
X114037122Y-102373371D01*
X114041918Y-102380834D01*
X114039395Y-102382455D01*
X114062183Y-102432355D01*
X114052239Y-102501513D01*
X114041193Y-102518700D01*
X114041918Y-102519166D01*
X114037122Y-102526628D01*
X113977334Y-102657543D01*
X113956853Y-102800000D01*
X113977334Y-102942456D01*
X114026449Y-103050000D01*
X114037123Y-103073373D01*
X114131372Y-103182143D01*
X114252447Y-103259953D01*
X114252450Y-103259954D01*
X114252449Y-103259954D01*
X114390536Y-103300499D01*
X114390538Y-103300500D01*
X114390539Y-103300500D01*
X114534462Y-103300500D01*
X114534462Y-103300499D01*
X114672553Y-103259953D01*
X114745461Y-103213098D01*
X114812500Y-103193414D01*
X114879539Y-103213098D01*
X114952447Y-103259953D01*
X114952450Y-103259954D01*
X114952449Y-103259954D01*
X115090536Y-103300499D01*
X115090538Y-103300500D01*
X115090539Y-103300500D01*
X115234462Y-103300500D01*
X115234462Y-103300499D01*
X115372553Y-103259953D01*
X115493628Y-103182143D01*
X115587877Y-103073373D01*
X115647665Y-102942457D01*
X115668147Y-102800000D01*
X115647665Y-102657543D01*
X115587877Y-102526627D01*
X115587870Y-102526619D01*
X115583082Y-102519167D01*
X115585608Y-102517543D01*
X115562820Y-102467674D01*
X115572748Y-102398513D01*
X115583810Y-102381300D01*
X115583082Y-102380833D01*
X115587868Y-102373382D01*
X115587877Y-102373373D01*
X115647665Y-102242457D01*
X115668147Y-102100000D01*
X115647665Y-101957543D01*
X115587877Y-101826627D01*
X115587870Y-101826619D01*
X115583082Y-101819167D01*
X115585608Y-101817543D01*
X115562820Y-101767674D01*
X115572748Y-101698513D01*
X115583810Y-101681300D01*
X115583082Y-101680833D01*
X115587868Y-101673382D01*
X115587877Y-101673373D01*
X115647665Y-101542457D01*
X115668147Y-101400000D01*
X116344353Y-101400000D01*
X116364834Y-101542456D01*
X116424622Y-101673371D01*
X116429418Y-101680834D01*
X116426895Y-101682455D01*
X116449683Y-101732355D01*
X116439739Y-101801513D01*
X116428693Y-101818700D01*
X116429418Y-101819166D01*
X116424622Y-101826628D01*
X116364834Y-101957543D01*
X116344353Y-102100000D01*
X116364834Y-102242456D01*
X116424622Y-102373371D01*
X116429418Y-102380834D01*
X116426895Y-102382455D01*
X116449683Y-102432355D01*
X116439739Y-102501513D01*
X116428693Y-102518700D01*
X116429418Y-102519166D01*
X116424622Y-102526628D01*
X116364834Y-102657543D01*
X116344353Y-102800000D01*
X116364834Y-102942456D01*
X116413949Y-103050000D01*
X116424623Y-103073373D01*
X116518872Y-103182143D01*
X116639947Y-103259953D01*
X116639950Y-103259954D01*
X116639949Y-103259954D01*
X116778036Y-103300499D01*
X116778038Y-103300500D01*
X116778039Y-103300500D01*
X116921962Y-103300500D01*
X116921962Y-103300499D01*
X117060053Y-103259953D01*
X117132961Y-103213098D01*
X117200000Y-103193414D01*
X117267039Y-103213098D01*
X117339947Y-103259953D01*
X117339950Y-103259954D01*
X117339949Y-103259954D01*
X117478036Y-103300499D01*
X117478038Y-103300500D01*
X117478039Y-103300500D01*
X117621962Y-103300500D01*
X117621962Y-103300499D01*
X117760053Y-103259953D01*
X117881128Y-103182143D01*
X117975377Y-103073373D01*
X118035165Y-102942457D01*
X118055647Y-102800000D01*
X118035165Y-102657543D01*
X117975377Y-102526627D01*
X117975370Y-102526619D01*
X117970582Y-102519167D01*
X117973108Y-102517543D01*
X117950320Y-102467674D01*
X117960248Y-102398513D01*
X117971310Y-102381300D01*
X117970582Y-102380833D01*
X117975368Y-102373382D01*
X117975377Y-102373373D01*
X118035165Y-102242457D01*
X118055647Y-102100000D01*
X118035165Y-101957543D01*
X117975377Y-101826627D01*
X117975370Y-101826619D01*
X117970582Y-101819167D01*
X117973108Y-101817543D01*
X117950320Y-101767674D01*
X117960248Y-101698513D01*
X117971310Y-101681300D01*
X117970582Y-101680833D01*
X117975368Y-101673382D01*
X117975377Y-101673373D01*
X118035165Y-101542457D01*
X118055647Y-101400000D01*
X118594353Y-101400000D01*
X118614834Y-101542456D01*
X118674622Y-101673371D01*
X118679418Y-101680834D01*
X118676895Y-101682455D01*
X118699683Y-101732355D01*
X118689739Y-101801513D01*
X118678693Y-101818700D01*
X118679418Y-101819166D01*
X118674622Y-101826628D01*
X118614834Y-101957543D01*
X118594353Y-102100000D01*
X118614834Y-102242456D01*
X118674622Y-102373371D01*
X118679418Y-102380834D01*
X118676895Y-102382455D01*
X118699683Y-102432355D01*
X118689739Y-102501513D01*
X118678693Y-102518700D01*
X118679418Y-102519166D01*
X118674622Y-102526628D01*
X118614834Y-102657543D01*
X118594353Y-102800000D01*
X118614834Y-102942456D01*
X118663949Y-103050000D01*
X118674623Y-103073373D01*
X118768872Y-103182143D01*
X118889947Y-103259953D01*
X118889950Y-103259954D01*
X118889949Y-103259954D01*
X119028036Y-103300499D01*
X119028038Y-103300500D01*
X119028039Y-103300500D01*
X119171962Y-103300500D01*
X119171962Y-103300499D01*
X119310053Y-103259953D01*
X119382961Y-103213098D01*
X119450000Y-103193414D01*
X119517039Y-103213098D01*
X119589947Y-103259953D01*
X119589950Y-103259954D01*
X119589949Y-103259954D01*
X119728036Y-103300499D01*
X119728038Y-103300500D01*
X119728039Y-103300500D01*
X119871962Y-103300500D01*
X119871962Y-103300499D01*
X120010053Y-103259953D01*
X120131128Y-103182143D01*
X120225377Y-103073373D01*
X120285165Y-102942457D01*
X120305647Y-102800000D01*
X120285165Y-102657543D01*
X120225377Y-102526627D01*
X120225370Y-102526619D01*
X120220582Y-102519167D01*
X120223108Y-102517543D01*
X120200320Y-102467674D01*
X120210248Y-102398513D01*
X120221310Y-102381300D01*
X120220582Y-102380833D01*
X120225368Y-102373382D01*
X120225377Y-102373373D01*
X120285165Y-102242457D01*
X120305647Y-102100000D01*
X120285165Y-101957543D01*
X120225377Y-101826627D01*
X120225370Y-101826619D01*
X120220582Y-101819167D01*
X120223108Y-101817543D01*
X120200320Y-101767674D01*
X120210248Y-101698513D01*
X120221310Y-101681300D01*
X120220582Y-101680833D01*
X120225368Y-101673382D01*
X120225377Y-101673373D01*
X120285165Y-101542457D01*
X120305647Y-101400000D01*
X120944353Y-101400000D01*
X120964834Y-101542456D01*
X121024622Y-101673371D01*
X121029418Y-101680834D01*
X121026895Y-101682455D01*
X121049683Y-101732355D01*
X121039739Y-101801513D01*
X121028693Y-101818700D01*
X121029418Y-101819166D01*
X121024622Y-101826628D01*
X120964834Y-101957543D01*
X120944353Y-102100000D01*
X120964834Y-102242456D01*
X121024622Y-102373371D01*
X121029418Y-102380834D01*
X121026895Y-102382455D01*
X121049683Y-102432355D01*
X121039739Y-102501513D01*
X121028693Y-102518700D01*
X121029418Y-102519166D01*
X121024622Y-102526628D01*
X120964834Y-102657543D01*
X120944353Y-102800000D01*
X120964834Y-102942456D01*
X121013949Y-103050000D01*
X121024623Y-103073373D01*
X121118872Y-103182143D01*
X121239947Y-103259953D01*
X121239950Y-103259954D01*
X121239949Y-103259954D01*
X121378036Y-103300499D01*
X121378038Y-103300500D01*
X121378039Y-103300500D01*
X121521962Y-103300500D01*
X121521962Y-103300499D01*
X121660053Y-103259953D01*
X121732961Y-103213098D01*
X121800000Y-103193414D01*
X121867039Y-103213098D01*
X121939947Y-103259953D01*
X121939950Y-103259954D01*
X121939949Y-103259954D01*
X122078036Y-103300499D01*
X122078038Y-103300500D01*
X122078039Y-103300500D01*
X122221962Y-103300500D01*
X122221962Y-103300499D01*
X122360053Y-103259953D01*
X122481128Y-103182143D01*
X122575377Y-103073373D01*
X122635165Y-102942457D01*
X122655647Y-102800000D01*
X122635165Y-102657543D01*
X122575377Y-102526627D01*
X122575370Y-102526619D01*
X122570582Y-102519167D01*
X122573108Y-102517543D01*
X122550320Y-102467674D01*
X122560248Y-102398513D01*
X122571310Y-102381300D01*
X122570582Y-102380833D01*
X122575368Y-102373382D01*
X122575377Y-102373373D01*
X122635165Y-102242457D01*
X122655647Y-102100000D01*
X122635165Y-101957543D01*
X122608886Y-101900000D01*
X126894353Y-101900000D01*
X126914834Y-102042456D01*
X126974622Y-102173371D01*
X126974625Y-102173377D01*
X126992321Y-102193799D01*
X127021345Y-102257355D01*
X127011401Y-102326513D01*
X126992321Y-102356201D01*
X126974625Y-102376622D01*
X126974622Y-102376628D01*
X126914834Y-102507543D01*
X126894353Y-102650000D01*
X126914834Y-102792456D01*
X126974622Y-102923371D01*
X126974625Y-102923377D01*
X127013983Y-102968798D01*
X127043008Y-103032353D01*
X127033064Y-103101512D01*
X127013983Y-103131202D01*
X126974625Y-103176622D01*
X126974622Y-103176628D01*
X126914834Y-103307543D01*
X126894353Y-103450000D01*
X126914834Y-103592456D01*
X126974622Y-103723371D01*
X126974625Y-103723377D01*
X127013983Y-103768798D01*
X127043008Y-103832353D01*
X127033064Y-103901512D01*
X127013983Y-103931202D01*
X126974625Y-103976622D01*
X126974622Y-103976628D01*
X126914834Y-104107543D01*
X126894353Y-104250000D01*
X126914834Y-104392456D01*
X126960504Y-104492457D01*
X126974623Y-104523373D01*
X127068872Y-104632143D01*
X127189947Y-104709953D01*
X127189950Y-104709954D01*
X127189949Y-104709954D01*
X127328036Y-104750499D01*
X127328038Y-104750500D01*
X127328039Y-104750500D01*
X127471962Y-104750500D01*
X127471962Y-104750499D01*
X127610050Y-104709954D01*
X127610051Y-104709954D01*
X127699204Y-104652659D01*
X127731128Y-104632143D01*
X127731129Y-104632141D01*
X127732960Y-104630965D01*
X127800000Y-104611280D01*
X127867039Y-104630964D01*
X127867040Y-104630965D01*
X127868870Y-104632141D01*
X127868872Y-104632143D01*
X127900796Y-104652659D01*
X127989948Y-104709954D01*
X128128036Y-104750499D01*
X128128038Y-104750500D01*
X128128039Y-104750500D01*
X128271962Y-104750500D01*
X128271962Y-104750499D01*
X128410050Y-104709954D01*
X128410051Y-104709954D01*
X128499204Y-104652659D01*
X128531128Y-104632143D01*
X128531129Y-104632141D01*
X128532960Y-104630965D01*
X128600000Y-104611280D01*
X128667039Y-104630964D01*
X128667040Y-104630965D01*
X128668870Y-104632141D01*
X128668872Y-104632143D01*
X128700796Y-104652659D01*
X128789948Y-104709954D01*
X128928036Y-104750499D01*
X128928038Y-104750500D01*
X128928039Y-104750500D01*
X129071962Y-104750500D01*
X129071962Y-104750499D01*
X129210050Y-104709954D01*
X129210051Y-104709954D01*
X129299204Y-104652659D01*
X129331128Y-104632143D01*
X129331129Y-104632141D01*
X129332960Y-104630965D01*
X129400000Y-104611280D01*
X129467039Y-104630964D01*
X129467040Y-104630965D01*
X129468870Y-104632141D01*
X129468872Y-104632143D01*
X129500796Y-104652659D01*
X129589948Y-104709954D01*
X129728036Y-104750499D01*
X129728038Y-104750500D01*
X129728039Y-104750500D01*
X129871962Y-104750500D01*
X129871962Y-104750499D01*
X130010053Y-104709953D01*
X130131128Y-104632143D01*
X130225377Y-104523373D01*
X130285165Y-104392457D01*
X130305647Y-104250000D01*
X130285165Y-104107543D01*
X130225377Y-103976627D01*
X130225375Y-103976625D01*
X130225374Y-103976622D01*
X130186017Y-103931203D01*
X130156991Y-103867648D01*
X130166934Y-103798489D01*
X130186017Y-103768797D01*
X130225374Y-103723377D01*
X130225374Y-103723375D01*
X130225377Y-103723373D01*
X130285165Y-103592457D01*
X130305647Y-103450000D01*
X130644353Y-103450000D01*
X130664834Y-103592456D01*
X130724622Y-103723371D01*
X130724625Y-103723377D01*
X130763983Y-103768798D01*
X130793008Y-103832353D01*
X130783064Y-103901512D01*
X130763983Y-103931202D01*
X130724625Y-103976622D01*
X130724622Y-103976628D01*
X130664834Y-104107543D01*
X130644353Y-104250000D01*
X130664834Y-104392456D01*
X130710504Y-104492457D01*
X130724623Y-104523373D01*
X130818872Y-104632143D01*
X130939947Y-104709953D01*
X130939950Y-104709954D01*
X130939949Y-104709954D01*
X131078036Y-104750499D01*
X131078038Y-104750500D01*
X131078039Y-104750500D01*
X131221962Y-104750500D01*
X131221962Y-104750499D01*
X131360050Y-104709954D01*
X131360051Y-104709954D01*
X131449204Y-104652659D01*
X131481128Y-104632143D01*
X131481129Y-104632141D01*
X131482960Y-104630965D01*
X131550000Y-104611280D01*
X131617039Y-104630964D01*
X131617040Y-104630965D01*
X131618870Y-104632141D01*
X131618872Y-104632143D01*
X131650796Y-104652659D01*
X131739948Y-104709954D01*
X131878036Y-104750499D01*
X131878038Y-104750500D01*
X131878039Y-104750500D01*
X132021962Y-104750500D01*
X132021962Y-104750499D01*
X132160050Y-104709954D01*
X132160051Y-104709954D01*
X132249204Y-104652659D01*
X132281128Y-104632143D01*
X132281129Y-104632141D01*
X132282960Y-104630965D01*
X132350000Y-104611280D01*
X132417039Y-104630964D01*
X132417040Y-104630965D01*
X132418870Y-104632141D01*
X132418872Y-104632143D01*
X132450796Y-104652659D01*
X132539948Y-104709954D01*
X132678036Y-104750499D01*
X132678038Y-104750500D01*
X132678039Y-104750500D01*
X132821962Y-104750500D01*
X132821962Y-104750499D01*
X132960050Y-104709954D01*
X132960051Y-104709954D01*
X133049204Y-104652659D01*
X133081128Y-104632143D01*
X133081129Y-104632141D01*
X133082960Y-104630965D01*
X133150000Y-104611280D01*
X133217039Y-104630964D01*
X133217040Y-104630965D01*
X133218870Y-104632141D01*
X133218872Y-104632143D01*
X133250796Y-104652659D01*
X133339948Y-104709954D01*
X133478036Y-104750499D01*
X133478038Y-104750500D01*
X133478039Y-104750500D01*
X133621962Y-104750500D01*
X133621962Y-104750499D01*
X133760053Y-104709953D01*
X133881128Y-104632143D01*
X133975377Y-104523373D01*
X134035165Y-104392457D01*
X134055647Y-104250000D01*
X134035165Y-104107543D01*
X133975377Y-103976627D01*
X133975375Y-103976625D01*
X133975374Y-103976622D01*
X133936017Y-103931203D01*
X133906991Y-103867648D01*
X133916934Y-103798489D01*
X133936017Y-103768797D01*
X133975374Y-103723377D01*
X133975374Y-103723375D01*
X133975377Y-103723373D01*
X134035165Y-103592457D01*
X134055647Y-103450000D01*
X134035165Y-103307543D01*
X133975377Y-103176627D01*
X133881128Y-103067857D01*
X133760053Y-102990047D01*
X133760051Y-102990046D01*
X133760049Y-102990045D01*
X133760050Y-102990045D01*
X133621963Y-102949500D01*
X133621961Y-102949500D01*
X133478039Y-102949500D01*
X133478036Y-102949500D01*
X133339949Y-102990045D01*
X133217039Y-103069035D01*
X133150000Y-103088719D01*
X133082961Y-103069035D01*
X133030566Y-103035363D01*
X132960053Y-102990047D01*
X132960051Y-102990046D01*
X132960049Y-102990045D01*
X132960050Y-102990045D01*
X132821963Y-102949500D01*
X132821961Y-102949500D01*
X132678039Y-102949500D01*
X132678036Y-102949500D01*
X132539949Y-102990045D01*
X132417039Y-103069035D01*
X132350000Y-103088719D01*
X132282961Y-103069035D01*
X132230566Y-103035363D01*
X132160053Y-102990047D01*
X132160051Y-102990046D01*
X132160049Y-102990045D01*
X132160050Y-102990045D01*
X132021963Y-102949500D01*
X132021961Y-102949500D01*
X131878039Y-102949500D01*
X131878036Y-102949500D01*
X131739949Y-102990045D01*
X131617039Y-103069035D01*
X131550000Y-103088719D01*
X131482961Y-103069035D01*
X131430566Y-103035363D01*
X131360053Y-102990047D01*
X131360051Y-102990046D01*
X131360049Y-102990045D01*
X131360050Y-102990045D01*
X131221963Y-102949500D01*
X131221961Y-102949500D01*
X131078039Y-102949500D01*
X131078036Y-102949500D01*
X130939949Y-102990045D01*
X130818873Y-103067856D01*
X130818872Y-103067856D01*
X130818872Y-103067857D01*
X130818057Y-103068798D01*
X130724623Y-103176626D01*
X130724622Y-103176628D01*
X130664834Y-103307543D01*
X130644353Y-103450000D01*
X130305647Y-103450000D01*
X130285165Y-103307543D01*
X130225377Y-103176627D01*
X130225375Y-103176625D01*
X130225374Y-103176622D01*
X130189267Y-103134954D01*
X130186016Y-103131202D01*
X130156991Y-103067648D01*
X130166934Y-102998489D01*
X130186017Y-102968797D01*
X130225374Y-102923377D01*
X130225374Y-102923375D01*
X130225377Y-102923373D01*
X130285165Y-102792457D01*
X130305647Y-102650000D01*
X130285165Y-102507543D01*
X130225377Y-102376627D01*
X130225375Y-102376625D01*
X130225374Y-102376622D01*
X130207680Y-102356203D01*
X130178654Y-102292648D01*
X130188597Y-102223489D01*
X130207680Y-102193797D01*
X130225374Y-102173377D01*
X130225374Y-102173375D01*
X130225377Y-102173373D01*
X130285165Y-102042457D01*
X130305647Y-101900000D01*
X130285165Y-101757543D01*
X130225377Y-101626627D01*
X130131128Y-101517857D01*
X130010053Y-101440047D01*
X130010051Y-101440046D01*
X130010049Y-101440045D01*
X130010050Y-101440045D01*
X129871963Y-101399500D01*
X129871961Y-101399500D01*
X129728039Y-101399500D01*
X129728036Y-101399500D01*
X129589949Y-101440045D01*
X129467039Y-101519035D01*
X129400000Y-101538719D01*
X129332961Y-101519035D01*
X129302564Y-101499500D01*
X129210053Y-101440047D01*
X129210051Y-101440046D01*
X129210049Y-101440045D01*
X129210050Y-101440045D01*
X129071963Y-101399500D01*
X129071961Y-101399500D01*
X128928039Y-101399500D01*
X128928036Y-101399500D01*
X128789949Y-101440045D01*
X128667039Y-101519035D01*
X128600000Y-101538719D01*
X128532961Y-101519035D01*
X128502564Y-101499500D01*
X128410053Y-101440047D01*
X128410051Y-101440046D01*
X128410049Y-101440045D01*
X128410050Y-101440045D01*
X128271963Y-101399500D01*
X128271961Y-101399500D01*
X128128039Y-101399500D01*
X128128036Y-101399500D01*
X127989949Y-101440045D01*
X127867039Y-101519035D01*
X127800000Y-101538719D01*
X127732961Y-101519035D01*
X127702564Y-101499500D01*
X127610053Y-101440047D01*
X127610051Y-101440046D01*
X127610049Y-101440045D01*
X127610050Y-101440045D01*
X127471963Y-101399500D01*
X127471961Y-101399500D01*
X127328039Y-101399500D01*
X127328036Y-101399500D01*
X127189949Y-101440045D01*
X127068873Y-101517856D01*
X126974623Y-101626626D01*
X126974622Y-101626628D01*
X126914834Y-101757543D01*
X126894353Y-101900000D01*
X122608886Y-101900000D01*
X122575377Y-101826627D01*
X122575370Y-101826619D01*
X122570582Y-101819167D01*
X122573108Y-101817543D01*
X122550320Y-101767674D01*
X122560248Y-101698513D01*
X122571310Y-101681300D01*
X122570582Y-101680833D01*
X122575368Y-101673382D01*
X122575377Y-101673373D01*
X122635165Y-101542457D01*
X122655647Y-101400000D01*
X122641269Y-101300000D01*
X134294353Y-101300000D01*
X134314834Y-101442456D01*
X134374622Y-101573371D01*
X134379418Y-101580834D01*
X134376895Y-101582455D01*
X134399683Y-101632355D01*
X134389739Y-101701513D01*
X134378693Y-101718700D01*
X134379418Y-101719166D01*
X134374622Y-101726628D01*
X134314834Y-101857543D01*
X134294353Y-102000000D01*
X134314834Y-102142456D01*
X134374622Y-102273371D01*
X134379418Y-102280834D01*
X134376895Y-102282455D01*
X134399683Y-102332355D01*
X134389739Y-102401513D01*
X134378693Y-102418700D01*
X134379418Y-102419166D01*
X134374622Y-102426628D01*
X134314834Y-102557543D01*
X134294353Y-102700000D01*
X134314834Y-102842456D01*
X134360504Y-102942457D01*
X134374623Y-102973373D01*
X134468872Y-103082143D01*
X134589947Y-103159953D01*
X134589950Y-103159954D01*
X134589949Y-103159954D01*
X134728036Y-103200499D01*
X134728038Y-103200500D01*
X134728039Y-103200500D01*
X134871962Y-103200500D01*
X134871962Y-103200499D01*
X135010053Y-103159953D01*
X135082961Y-103113098D01*
X135150000Y-103093414D01*
X135217039Y-103113098D01*
X135289947Y-103159953D01*
X135289950Y-103159954D01*
X135289949Y-103159954D01*
X135428036Y-103200499D01*
X135428038Y-103200500D01*
X135428039Y-103200500D01*
X135571962Y-103200500D01*
X135571962Y-103200499D01*
X135710053Y-103159953D01*
X135831128Y-103082143D01*
X135925377Y-102973373D01*
X135985165Y-102842457D01*
X136005647Y-102700000D01*
X135985165Y-102557543D01*
X135925377Y-102426627D01*
X135925370Y-102426619D01*
X135920582Y-102419167D01*
X135923108Y-102417543D01*
X135900320Y-102367674D01*
X135910248Y-102298513D01*
X135921310Y-102281300D01*
X135920582Y-102280833D01*
X135925368Y-102273382D01*
X135925377Y-102273373D01*
X135985165Y-102142457D01*
X136005647Y-102000000D01*
X135985165Y-101857543D01*
X135925377Y-101726627D01*
X135925370Y-101726619D01*
X135920582Y-101719167D01*
X135923108Y-101717543D01*
X135900320Y-101667674D01*
X135910248Y-101598513D01*
X135921310Y-101581300D01*
X135920582Y-101580833D01*
X135925368Y-101573382D01*
X135925377Y-101573373D01*
X135985165Y-101442457D01*
X136005647Y-101300000D01*
X136002053Y-101275000D01*
X136594353Y-101275000D01*
X136614834Y-101417456D01*
X136674622Y-101548371D01*
X136679418Y-101555834D01*
X136676895Y-101557455D01*
X136699683Y-101607355D01*
X136689739Y-101676513D01*
X136678693Y-101693700D01*
X136679418Y-101694166D01*
X136674622Y-101701628D01*
X136614834Y-101832543D01*
X136594353Y-101975000D01*
X136614834Y-102117456D01*
X136674622Y-102248371D01*
X136679418Y-102255834D01*
X136676895Y-102257455D01*
X136699683Y-102307355D01*
X136689739Y-102376513D01*
X136678693Y-102393700D01*
X136679418Y-102394166D01*
X136674622Y-102401628D01*
X136614834Y-102532543D01*
X136594353Y-102675000D01*
X136614834Y-102817456D01*
X136673568Y-102946063D01*
X136674623Y-102948373D01*
X136768872Y-103057143D01*
X136889947Y-103134953D01*
X136889950Y-103134954D01*
X136889949Y-103134954D01*
X136997107Y-103166417D01*
X137026336Y-103175000D01*
X137028036Y-103175499D01*
X137028038Y-103175500D01*
X137028039Y-103175500D01*
X137171962Y-103175500D01*
X137171962Y-103175499D01*
X137310053Y-103134953D01*
X137382961Y-103088098D01*
X137450000Y-103068414D01*
X137517039Y-103088098D01*
X137589947Y-103134953D01*
X137589950Y-103134954D01*
X137589949Y-103134954D01*
X137697107Y-103166417D01*
X137726336Y-103175000D01*
X137728036Y-103175499D01*
X137728038Y-103175500D01*
X137728039Y-103175500D01*
X137871962Y-103175500D01*
X137871962Y-103175499D01*
X138010053Y-103134953D01*
X138131128Y-103057143D01*
X138225377Y-102948373D01*
X138285165Y-102817457D01*
X138305647Y-102675000D01*
X138285165Y-102532543D01*
X138225377Y-102401627D01*
X138225370Y-102401619D01*
X138220582Y-102394167D01*
X138223108Y-102392543D01*
X138200320Y-102342674D01*
X138210248Y-102273513D01*
X138221310Y-102256300D01*
X138220582Y-102255833D01*
X138225368Y-102248382D01*
X138225377Y-102248373D01*
X138285165Y-102117457D01*
X138305647Y-101975000D01*
X138285165Y-101832543D01*
X138225377Y-101701627D01*
X138225370Y-101701619D01*
X138220582Y-101694167D01*
X138223108Y-101692543D01*
X138200320Y-101642674D01*
X138210248Y-101573513D01*
X138221310Y-101556300D01*
X138220582Y-101555833D01*
X138225368Y-101548382D01*
X138225377Y-101548373D01*
X138285165Y-101417457D01*
X138305647Y-101275000D01*
X138994353Y-101275000D01*
X139014834Y-101417456D01*
X139074622Y-101548371D01*
X139079418Y-101555834D01*
X139076895Y-101557455D01*
X139099683Y-101607355D01*
X139089739Y-101676513D01*
X139078693Y-101693700D01*
X139079418Y-101694166D01*
X139074622Y-101701628D01*
X139014834Y-101832543D01*
X138994353Y-101975000D01*
X139014834Y-102117456D01*
X139074622Y-102248371D01*
X139079418Y-102255834D01*
X139076895Y-102257455D01*
X139099683Y-102307355D01*
X139089739Y-102376513D01*
X139078693Y-102393700D01*
X139079418Y-102394166D01*
X139074622Y-102401628D01*
X139014834Y-102532543D01*
X138994353Y-102675000D01*
X139014834Y-102817456D01*
X139073568Y-102946063D01*
X139074623Y-102948373D01*
X139168872Y-103057143D01*
X139289947Y-103134953D01*
X139289950Y-103134954D01*
X139289949Y-103134954D01*
X139397107Y-103166417D01*
X139426336Y-103175000D01*
X139428036Y-103175499D01*
X139428038Y-103175500D01*
X139428039Y-103175500D01*
X139571962Y-103175500D01*
X139571962Y-103175499D01*
X139710053Y-103134953D01*
X139782961Y-103088098D01*
X139850000Y-103068414D01*
X139917039Y-103088098D01*
X139989947Y-103134953D01*
X139989950Y-103134954D01*
X139989949Y-103134954D01*
X140097107Y-103166417D01*
X140126336Y-103175000D01*
X140128036Y-103175499D01*
X140128038Y-103175500D01*
X140128039Y-103175500D01*
X140271962Y-103175500D01*
X140271962Y-103175499D01*
X140410053Y-103134953D01*
X140531128Y-103057143D01*
X140625377Y-102948373D01*
X140685165Y-102817457D01*
X140705647Y-102675000D01*
X140685165Y-102532543D01*
X140625377Y-102401627D01*
X140625370Y-102401619D01*
X140620582Y-102394167D01*
X140623108Y-102392543D01*
X140600320Y-102342674D01*
X140610248Y-102273513D01*
X140621310Y-102256300D01*
X140620582Y-102255833D01*
X140625368Y-102248382D01*
X140625377Y-102248373D01*
X140685165Y-102117457D01*
X140705647Y-101975000D01*
X140685165Y-101832543D01*
X140625377Y-101701627D01*
X140625370Y-101701619D01*
X140620582Y-101694167D01*
X140623108Y-101692543D01*
X140600320Y-101642674D01*
X140610248Y-101573513D01*
X140621310Y-101556300D01*
X140620582Y-101555833D01*
X140625368Y-101548382D01*
X140625377Y-101548373D01*
X140685165Y-101417457D01*
X140705647Y-101275000D01*
X141294353Y-101275000D01*
X141314834Y-101417456D01*
X141374622Y-101548371D01*
X141379418Y-101555834D01*
X141376895Y-101557455D01*
X141399683Y-101607355D01*
X141389739Y-101676513D01*
X141378693Y-101693700D01*
X141379418Y-101694166D01*
X141374622Y-101701628D01*
X141314834Y-101832543D01*
X141294353Y-101975000D01*
X141314834Y-102117456D01*
X141374622Y-102248371D01*
X141379418Y-102255834D01*
X141376895Y-102257455D01*
X141399683Y-102307355D01*
X141389739Y-102376513D01*
X141378693Y-102393700D01*
X141379418Y-102394166D01*
X141374622Y-102401628D01*
X141314834Y-102532543D01*
X141294353Y-102675000D01*
X141314834Y-102817456D01*
X141373568Y-102946063D01*
X141374623Y-102948373D01*
X141468872Y-103057143D01*
X141589947Y-103134953D01*
X141589950Y-103134954D01*
X141589949Y-103134954D01*
X141697107Y-103166417D01*
X141726336Y-103175000D01*
X141728036Y-103175499D01*
X141728038Y-103175500D01*
X141728039Y-103175500D01*
X141871962Y-103175500D01*
X141871962Y-103175499D01*
X142010053Y-103134953D01*
X142082961Y-103088098D01*
X142150000Y-103068414D01*
X142217039Y-103088098D01*
X142289947Y-103134953D01*
X142289950Y-103134954D01*
X142289949Y-103134954D01*
X142397107Y-103166417D01*
X142426336Y-103175000D01*
X142428036Y-103175499D01*
X142428038Y-103175500D01*
X142428039Y-103175500D01*
X142571962Y-103175500D01*
X142571962Y-103175499D01*
X142710053Y-103134953D01*
X142831128Y-103057143D01*
X142925377Y-102948373D01*
X142985165Y-102817457D01*
X143005647Y-102675000D01*
X142985165Y-102532543D01*
X142925377Y-102401627D01*
X142925370Y-102401619D01*
X142920582Y-102394167D01*
X142923108Y-102392543D01*
X142900320Y-102342674D01*
X142910248Y-102273513D01*
X142921310Y-102256300D01*
X142920582Y-102255833D01*
X142925368Y-102248382D01*
X142925377Y-102248373D01*
X142985165Y-102117457D01*
X143005647Y-101975000D01*
X142985165Y-101832543D01*
X142925377Y-101701627D01*
X142925370Y-101701619D01*
X142920582Y-101694167D01*
X142923108Y-101692543D01*
X142900320Y-101642674D01*
X142910248Y-101573513D01*
X142921310Y-101556300D01*
X142920582Y-101555833D01*
X142925368Y-101548382D01*
X142925377Y-101548373D01*
X142985165Y-101417457D01*
X143005647Y-101275000D01*
X143494353Y-101275000D01*
X143514834Y-101417456D01*
X143574622Y-101548371D01*
X143579418Y-101555834D01*
X143576895Y-101557455D01*
X143599683Y-101607355D01*
X143589739Y-101676513D01*
X143578693Y-101693700D01*
X143579418Y-101694166D01*
X143574622Y-101701628D01*
X143514834Y-101832543D01*
X143494353Y-101975000D01*
X143514834Y-102117456D01*
X143574622Y-102248371D01*
X143579418Y-102255834D01*
X143576895Y-102257455D01*
X143599683Y-102307355D01*
X143589739Y-102376513D01*
X143578693Y-102393700D01*
X143579418Y-102394166D01*
X143574622Y-102401628D01*
X143514834Y-102532543D01*
X143494353Y-102675000D01*
X143514834Y-102817456D01*
X143573568Y-102946063D01*
X143574623Y-102948373D01*
X143668872Y-103057143D01*
X143789947Y-103134953D01*
X143789950Y-103134954D01*
X143789949Y-103134954D01*
X143897107Y-103166417D01*
X143926336Y-103175000D01*
X143928036Y-103175499D01*
X143928038Y-103175500D01*
X143928039Y-103175500D01*
X144071962Y-103175500D01*
X144071962Y-103175499D01*
X144210053Y-103134953D01*
X144282961Y-103088098D01*
X144350000Y-103068414D01*
X144417039Y-103088098D01*
X144489947Y-103134953D01*
X144489950Y-103134954D01*
X144489949Y-103134954D01*
X144597107Y-103166417D01*
X144626336Y-103175000D01*
X144628036Y-103175499D01*
X144628038Y-103175500D01*
X144628039Y-103175500D01*
X144771962Y-103175500D01*
X144771962Y-103175499D01*
X144910053Y-103134953D01*
X145031128Y-103057143D01*
X145125377Y-102948373D01*
X145185165Y-102817457D01*
X145205647Y-102675000D01*
X145185165Y-102532543D01*
X145125377Y-102401627D01*
X145125370Y-102401619D01*
X145120582Y-102394167D01*
X145123108Y-102392543D01*
X145100320Y-102342674D01*
X145110248Y-102273513D01*
X145121310Y-102256300D01*
X145120582Y-102255833D01*
X145125368Y-102248382D01*
X145125377Y-102248373D01*
X145185165Y-102117457D01*
X145205647Y-101975000D01*
X145185165Y-101832543D01*
X145125377Y-101701627D01*
X145125370Y-101701619D01*
X145120582Y-101694167D01*
X145123108Y-101692543D01*
X145100320Y-101642674D01*
X145110248Y-101573513D01*
X145121310Y-101556300D01*
X145120582Y-101555833D01*
X145125368Y-101548382D01*
X145125377Y-101548373D01*
X145185165Y-101417457D01*
X145205647Y-101275000D01*
X145874353Y-101275000D01*
X145894834Y-101417456D01*
X145954622Y-101548371D01*
X145959418Y-101555834D01*
X145956895Y-101557455D01*
X145979683Y-101607355D01*
X145969739Y-101676513D01*
X145958693Y-101693700D01*
X145959418Y-101694166D01*
X145954622Y-101701628D01*
X145894834Y-101832543D01*
X145874353Y-101975000D01*
X145894834Y-102117456D01*
X145954622Y-102248371D01*
X145959418Y-102255834D01*
X145956895Y-102257455D01*
X145979683Y-102307355D01*
X145969739Y-102376513D01*
X145958693Y-102393700D01*
X145959418Y-102394166D01*
X145954622Y-102401628D01*
X145894834Y-102532543D01*
X145874353Y-102675000D01*
X145894834Y-102817456D01*
X145953568Y-102946063D01*
X145954623Y-102948373D01*
X146048872Y-103057143D01*
X146169947Y-103134953D01*
X146169950Y-103134954D01*
X146169949Y-103134954D01*
X146277107Y-103166417D01*
X146306336Y-103175000D01*
X146308036Y-103175499D01*
X146308038Y-103175500D01*
X146308039Y-103175500D01*
X146451962Y-103175500D01*
X146451962Y-103175499D01*
X146590053Y-103134953D01*
X146662961Y-103088098D01*
X146730000Y-103068414D01*
X146797039Y-103088098D01*
X146869947Y-103134953D01*
X146869950Y-103134954D01*
X146869949Y-103134954D01*
X146977107Y-103166417D01*
X147006336Y-103175000D01*
X147008036Y-103175499D01*
X147008038Y-103175500D01*
X147008039Y-103175500D01*
X147151962Y-103175500D01*
X147151962Y-103175499D01*
X147290053Y-103134953D01*
X147411128Y-103057143D01*
X147505377Y-102948373D01*
X147565165Y-102817457D01*
X147585647Y-102675000D01*
X147565165Y-102532543D01*
X147505377Y-102401627D01*
X147505370Y-102401619D01*
X147500582Y-102394167D01*
X147503108Y-102392543D01*
X147480320Y-102342674D01*
X147490248Y-102273513D01*
X147501310Y-102256300D01*
X147500582Y-102255833D01*
X147505368Y-102248382D01*
X147505377Y-102248373D01*
X147565165Y-102117457D01*
X147582053Y-102000000D01*
X148244353Y-102000000D01*
X148264834Y-102142456D01*
X148324622Y-102273371D01*
X148324625Y-102273377D01*
X148363983Y-102318798D01*
X148393008Y-102382353D01*
X148383064Y-102451512D01*
X148363983Y-102481202D01*
X148324625Y-102526622D01*
X148324622Y-102526628D01*
X148264834Y-102657543D01*
X148244353Y-102800000D01*
X148264834Y-102942456D01*
X148324622Y-103073371D01*
X148324625Y-103073377D01*
X148342321Y-103093799D01*
X148371345Y-103157355D01*
X148361401Y-103226513D01*
X148342321Y-103256201D01*
X148324625Y-103276622D01*
X148324622Y-103276628D01*
X148264834Y-103407543D01*
X148244353Y-103550000D01*
X148264834Y-103692456D01*
X148324622Y-103823371D01*
X148324625Y-103823377D01*
X148363983Y-103868798D01*
X148393008Y-103932353D01*
X148383064Y-104001512D01*
X148363983Y-104031202D01*
X148324625Y-104076622D01*
X148324622Y-104076628D01*
X148264834Y-104207543D01*
X148244353Y-104350000D01*
X148264834Y-104492456D01*
X148319100Y-104611280D01*
X148324623Y-104623373D01*
X148418872Y-104732143D01*
X148539947Y-104809953D01*
X148539950Y-104809954D01*
X148539949Y-104809954D01*
X148678036Y-104850499D01*
X148678038Y-104850500D01*
X148678039Y-104850500D01*
X148821962Y-104850500D01*
X148821962Y-104850499D01*
X148960050Y-104809954D01*
X148960051Y-104809954D01*
X148960053Y-104809953D01*
X149081128Y-104732143D01*
X149081129Y-104732141D01*
X149082960Y-104730965D01*
X149150000Y-104711280D01*
X149217039Y-104730964D01*
X149217040Y-104730965D01*
X149218870Y-104732141D01*
X149218872Y-104732143D01*
X149296251Y-104781871D01*
X149339948Y-104809954D01*
X149478036Y-104850499D01*
X149478038Y-104850500D01*
X149478039Y-104850500D01*
X149621962Y-104850500D01*
X149621962Y-104850499D01*
X149760050Y-104809954D01*
X149760051Y-104809954D01*
X149760053Y-104809953D01*
X149881128Y-104732143D01*
X149881129Y-104732141D01*
X149882960Y-104730965D01*
X149950000Y-104711280D01*
X150017039Y-104730964D01*
X150017040Y-104730965D01*
X150018870Y-104732141D01*
X150018872Y-104732143D01*
X150096251Y-104781871D01*
X150139948Y-104809954D01*
X150278036Y-104850499D01*
X150278038Y-104850500D01*
X150278039Y-104850500D01*
X150421962Y-104850500D01*
X150421962Y-104850499D01*
X150560050Y-104809954D01*
X150560051Y-104809954D01*
X150560053Y-104809953D01*
X150681128Y-104732143D01*
X150681129Y-104732141D01*
X150682960Y-104730965D01*
X150750000Y-104711280D01*
X150817039Y-104730964D01*
X150817040Y-104730965D01*
X150818870Y-104732141D01*
X150818872Y-104732143D01*
X150896251Y-104781871D01*
X150939948Y-104809954D01*
X151078036Y-104850499D01*
X151078038Y-104850500D01*
X151078039Y-104850500D01*
X151221962Y-104850500D01*
X151221962Y-104850499D01*
X151360053Y-104809953D01*
X151481128Y-104732143D01*
X151575377Y-104623373D01*
X151635165Y-104492457D01*
X151655647Y-104350000D01*
X151635165Y-104207543D01*
X151575377Y-104076627D01*
X151575375Y-104076625D01*
X151575374Y-104076622D01*
X151536017Y-104031203D01*
X151506991Y-103967648D01*
X151516934Y-103898489D01*
X151536017Y-103868797D01*
X151575374Y-103823377D01*
X151575374Y-103823375D01*
X151575377Y-103823373D01*
X151635165Y-103692457D01*
X151655647Y-103550000D01*
X151635165Y-103407543D01*
X151575377Y-103276627D01*
X151575375Y-103276625D01*
X151575374Y-103276622D01*
X151557680Y-103256203D01*
X151528654Y-103192648D01*
X151538597Y-103123489D01*
X151557680Y-103093797D01*
X151575374Y-103073377D01*
X151575374Y-103073375D01*
X151575377Y-103073373D01*
X151635165Y-102942457D01*
X151655647Y-102800000D01*
X151635165Y-102657543D01*
X151575377Y-102526627D01*
X151575375Y-102526625D01*
X151575374Y-102526622D01*
X151536017Y-102481203D01*
X151506991Y-102417648D01*
X151516934Y-102348489D01*
X151536017Y-102318797D01*
X151575374Y-102273377D01*
X151575374Y-102273375D01*
X151575377Y-102273373D01*
X151635165Y-102142457D01*
X151655647Y-102000000D01*
X151648458Y-101950000D01*
X152094353Y-101950000D01*
X152114834Y-102092456D01*
X152174622Y-102223371D01*
X152174625Y-102223377D01*
X152213983Y-102268798D01*
X152243008Y-102332353D01*
X152233064Y-102401512D01*
X152213983Y-102431202D01*
X152174625Y-102476622D01*
X152174622Y-102476628D01*
X152114834Y-102607543D01*
X152094353Y-102750000D01*
X152114834Y-102892456D01*
X152174622Y-103023371D01*
X152174625Y-103023377D01*
X152213983Y-103068798D01*
X152243008Y-103132353D01*
X152233064Y-103201512D01*
X152213983Y-103231202D01*
X152174625Y-103276622D01*
X152174622Y-103276628D01*
X152114834Y-103407543D01*
X152094353Y-103550000D01*
X152114834Y-103692456D01*
X152174622Y-103823371D01*
X152174625Y-103823377D01*
X152213983Y-103868798D01*
X152243008Y-103932353D01*
X152233064Y-104001512D01*
X152213983Y-104031202D01*
X152174625Y-104076622D01*
X152174622Y-104076628D01*
X152114834Y-104207543D01*
X152094353Y-104350000D01*
X152114834Y-104492456D01*
X152169100Y-104611280D01*
X152174623Y-104623373D01*
X152268872Y-104732143D01*
X152389947Y-104809953D01*
X152389950Y-104809954D01*
X152389949Y-104809954D01*
X152528036Y-104850499D01*
X152528038Y-104850500D01*
X152528039Y-104850500D01*
X152671962Y-104850500D01*
X152671962Y-104850499D01*
X152810050Y-104809954D01*
X152810051Y-104809954D01*
X152810053Y-104809953D01*
X152931128Y-104732143D01*
X152931129Y-104732141D01*
X152932960Y-104730965D01*
X153000000Y-104711280D01*
X153067039Y-104730964D01*
X153067040Y-104730965D01*
X153068870Y-104732141D01*
X153068872Y-104732143D01*
X153146251Y-104781871D01*
X153189948Y-104809954D01*
X153328036Y-104850499D01*
X153328038Y-104850500D01*
X153328039Y-104850500D01*
X153471962Y-104850500D01*
X153471962Y-104850499D01*
X153610050Y-104809954D01*
X153610051Y-104809954D01*
X153610053Y-104809953D01*
X153731128Y-104732143D01*
X153731129Y-104732141D01*
X153732960Y-104730965D01*
X153800000Y-104711280D01*
X153867039Y-104730964D01*
X153867040Y-104730965D01*
X153868870Y-104732141D01*
X153868872Y-104732143D01*
X153946251Y-104781871D01*
X153989948Y-104809954D01*
X154128036Y-104850499D01*
X154128038Y-104850500D01*
X154128039Y-104850500D01*
X154271962Y-104850500D01*
X154271962Y-104850499D01*
X154410050Y-104809954D01*
X154410051Y-104809954D01*
X154410053Y-104809953D01*
X154531128Y-104732143D01*
X154531129Y-104732141D01*
X154532960Y-104730965D01*
X154600000Y-104711280D01*
X154667039Y-104730964D01*
X154667040Y-104730965D01*
X154668870Y-104732141D01*
X154668872Y-104732143D01*
X154746251Y-104781871D01*
X154789948Y-104809954D01*
X154928036Y-104850499D01*
X154928038Y-104850500D01*
X154928039Y-104850500D01*
X155071962Y-104850500D01*
X155071962Y-104850499D01*
X155210053Y-104809953D01*
X155331128Y-104732143D01*
X155425377Y-104623373D01*
X155485165Y-104492457D01*
X155505647Y-104350000D01*
X155485165Y-104207543D01*
X155425377Y-104076627D01*
X155425375Y-104076625D01*
X155425374Y-104076622D01*
X155386017Y-104031203D01*
X155356991Y-103967648D01*
X155366934Y-103898489D01*
X155386017Y-103868797D01*
X155425374Y-103823377D01*
X155425374Y-103823375D01*
X155425377Y-103823373D01*
X155485165Y-103692457D01*
X155505647Y-103550000D01*
X155485165Y-103407543D01*
X155425377Y-103276627D01*
X155425375Y-103276625D01*
X155425374Y-103276622D01*
X155386017Y-103231203D01*
X155356991Y-103167648D01*
X155366934Y-103098489D01*
X155386017Y-103068797D01*
X155386833Y-103067856D01*
X155402305Y-103050000D01*
X155425374Y-103023377D01*
X155425374Y-103023375D01*
X155425377Y-103023373D01*
X155485165Y-102892457D01*
X155505647Y-102750000D01*
X155485165Y-102607543D01*
X155425377Y-102476627D01*
X155425375Y-102476625D01*
X155425374Y-102476622D01*
X155386017Y-102431203D01*
X155356991Y-102367648D01*
X155366934Y-102298489D01*
X155386017Y-102268797D01*
X155425374Y-102223377D01*
X155425374Y-102223375D01*
X155425377Y-102223373D01*
X155485165Y-102092457D01*
X155505647Y-101950000D01*
X155485165Y-101807543D01*
X155425377Y-101676627D01*
X155331128Y-101567857D01*
X155210053Y-101490047D01*
X155210051Y-101490046D01*
X155210049Y-101490045D01*
X155210050Y-101490045D01*
X155071963Y-101449500D01*
X155071961Y-101449500D01*
X154928039Y-101449500D01*
X154928036Y-101449500D01*
X154789949Y-101490045D01*
X154667039Y-101569035D01*
X154600000Y-101588719D01*
X154532961Y-101569035D01*
X154500802Y-101548368D01*
X154410053Y-101490047D01*
X154410051Y-101490046D01*
X154410049Y-101490045D01*
X154410050Y-101490045D01*
X154271963Y-101449500D01*
X154271961Y-101449500D01*
X154128039Y-101449500D01*
X154128036Y-101449500D01*
X153989949Y-101490045D01*
X153867039Y-101569035D01*
X153800000Y-101588719D01*
X153732961Y-101569035D01*
X153700802Y-101548368D01*
X153610053Y-101490047D01*
X153610051Y-101490046D01*
X153610049Y-101490045D01*
X153610050Y-101490045D01*
X153471963Y-101449500D01*
X153471961Y-101449500D01*
X153328039Y-101449500D01*
X153328036Y-101449500D01*
X153189949Y-101490045D01*
X153067039Y-101569035D01*
X153000000Y-101588719D01*
X152932961Y-101569035D01*
X152900802Y-101548368D01*
X152810053Y-101490047D01*
X152810051Y-101490046D01*
X152810049Y-101490045D01*
X152810050Y-101490045D01*
X152671963Y-101449500D01*
X152671961Y-101449500D01*
X152528039Y-101449500D01*
X152528036Y-101449500D01*
X152389949Y-101490045D01*
X152268873Y-101567856D01*
X152174623Y-101676626D01*
X152174622Y-101676628D01*
X152114834Y-101807543D01*
X152094353Y-101950000D01*
X151648458Y-101950000D01*
X151635165Y-101857543D01*
X151575377Y-101726627D01*
X151481128Y-101617857D01*
X151360053Y-101540047D01*
X151360051Y-101540046D01*
X151360049Y-101540045D01*
X151360050Y-101540045D01*
X151221963Y-101499500D01*
X151221961Y-101499500D01*
X151078039Y-101499500D01*
X151078036Y-101499500D01*
X150939949Y-101540045D01*
X150817039Y-101619035D01*
X150750000Y-101638719D01*
X150682961Y-101619035D01*
X150681126Y-101617856D01*
X150560053Y-101540047D01*
X150560051Y-101540046D01*
X150560049Y-101540045D01*
X150560050Y-101540045D01*
X150421963Y-101499500D01*
X150421961Y-101499500D01*
X150278039Y-101499500D01*
X150278036Y-101499500D01*
X150139949Y-101540045D01*
X150017039Y-101619035D01*
X149950000Y-101638719D01*
X149882961Y-101619035D01*
X149881126Y-101617856D01*
X149760053Y-101540047D01*
X149760051Y-101540046D01*
X149760049Y-101540045D01*
X149760050Y-101540045D01*
X149621963Y-101499500D01*
X149621961Y-101499500D01*
X149478039Y-101499500D01*
X149478036Y-101499500D01*
X149339949Y-101540045D01*
X149217039Y-101619035D01*
X149150000Y-101638719D01*
X149082961Y-101619035D01*
X149081126Y-101617856D01*
X148960053Y-101540047D01*
X148960051Y-101540046D01*
X148960049Y-101540045D01*
X148960050Y-101540045D01*
X148821963Y-101499500D01*
X148821961Y-101499500D01*
X148678039Y-101499500D01*
X148678036Y-101499500D01*
X148539949Y-101540045D01*
X148418873Y-101617856D01*
X148324623Y-101726626D01*
X148324622Y-101726628D01*
X148264834Y-101857543D01*
X148244353Y-102000000D01*
X147582053Y-102000000D01*
X147585647Y-101975000D01*
X147565165Y-101832543D01*
X147505377Y-101701627D01*
X147505370Y-101701619D01*
X147500582Y-101694167D01*
X147503108Y-101692543D01*
X147480320Y-101642674D01*
X147490248Y-101573513D01*
X147501310Y-101556300D01*
X147500582Y-101555833D01*
X147505368Y-101548382D01*
X147505377Y-101548373D01*
X147565165Y-101417457D01*
X147585647Y-101275000D01*
X147565165Y-101132543D01*
X147505377Y-101001627D01*
X147411128Y-100892857D01*
X147290053Y-100815047D01*
X147290051Y-100815046D01*
X147290049Y-100815045D01*
X147290050Y-100815045D01*
X147151963Y-100774500D01*
X147151961Y-100774500D01*
X147008039Y-100774500D01*
X147008036Y-100774500D01*
X146869949Y-100815045D01*
X146797039Y-100861902D01*
X146730000Y-100881586D01*
X146662961Y-100861902D01*
X146638312Y-100846061D01*
X146590053Y-100815047D01*
X146590051Y-100815046D01*
X146590049Y-100815045D01*
X146590050Y-100815045D01*
X146451963Y-100774500D01*
X146451961Y-100774500D01*
X146308039Y-100774500D01*
X146308036Y-100774500D01*
X146169949Y-100815045D01*
X146048873Y-100892856D01*
X145954623Y-101001626D01*
X145954622Y-101001628D01*
X145894834Y-101132543D01*
X145874353Y-101275000D01*
X145205647Y-101275000D01*
X145185165Y-101132543D01*
X145125377Y-101001627D01*
X145031128Y-100892857D01*
X144910053Y-100815047D01*
X144910051Y-100815046D01*
X144910049Y-100815045D01*
X144910050Y-100815045D01*
X144771963Y-100774500D01*
X144771961Y-100774500D01*
X144628039Y-100774500D01*
X144628036Y-100774500D01*
X144489949Y-100815045D01*
X144417039Y-100861902D01*
X144350000Y-100881586D01*
X144282961Y-100861902D01*
X144258312Y-100846061D01*
X144210053Y-100815047D01*
X144210051Y-100815046D01*
X144210049Y-100815045D01*
X144210050Y-100815045D01*
X144071963Y-100774500D01*
X144071961Y-100774500D01*
X143928039Y-100774500D01*
X143928036Y-100774500D01*
X143789949Y-100815045D01*
X143668873Y-100892856D01*
X143574623Y-101001626D01*
X143574622Y-101001628D01*
X143514834Y-101132543D01*
X143494353Y-101275000D01*
X143005647Y-101275000D01*
X142985165Y-101132543D01*
X142925377Y-101001627D01*
X142831128Y-100892857D01*
X142710053Y-100815047D01*
X142710051Y-100815046D01*
X142710049Y-100815045D01*
X142710050Y-100815045D01*
X142571963Y-100774500D01*
X142571961Y-100774500D01*
X142428039Y-100774500D01*
X142428036Y-100774500D01*
X142289949Y-100815045D01*
X142217039Y-100861902D01*
X142150000Y-100881586D01*
X142082961Y-100861902D01*
X142058312Y-100846061D01*
X142010053Y-100815047D01*
X142010051Y-100815046D01*
X142010049Y-100815045D01*
X142010050Y-100815045D01*
X141871963Y-100774500D01*
X141871961Y-100774500D01*
X141728039Y-100774500D01*
X141728036Y-100774500D01*
X141589949Y-100815045D01*
X141468873Y-100892856D01*
X141374623Y-101001626D01*
X141374622Y-101001628D01*
X141314834Y-101132543D01*
X141294353Y-101275000D01*
X140705647Y-101275000D01*
X140685165Y-101132543D01*
X140625377Y-101001627D01*
X140531128Y-100892857D01*
X140410053Y-100815047D01*
X140410051Y-100815046D01*
X140410049Y-100815045D01*
X140410050Y-100815045D01*
X140271963Y-100774500D01*
X140271961Y-100774500D01*
X140128039Y-100774500D01*
X140128036Y-100774500D01*
X139989949Y-100815045D01*
X139917039Y-100861902D01*
X139850000Y-100881586D01*
X139782961Y-100861902D01*
X139758312Y-100846061D01*
X139710053Y-100815047D01*
X139710051Y-100815046D01*
X139710049Y-100815045D01*
X139710050Y-100815045D01*
X139571963Y-100774500D01*
X139571961Y-100774500D01*
X139428039Y-100774500D01*
X139428036Y-100774500D01*
X139289949Y-100815045D01*
X139168873Y-100892856D01*
X139074623Y-101001626D01*
X139074622Y-101001628D01*
X139014834Y-101132543D01*
X138994353Y-101275000D01*
X138305647Y-101275000D01*
X138285165Y-101132543D01*
X138225377Y-101001627D01*
X138131128Y-100892857D01*
X138010053Y-100815047D01*
X138010051Y-100815046D01*
X138010049Y-100815045D01*
X138010050Y-100815045D01*
X137871963Y-100774500D01*
X137871961Y-100774500D01*
X137728039Y-100774500D01*
X137728036Y-100774500D01*
X137589949Y-100815045D01*
X137517039Y-100861902D01*
X137450000Y-100881586D01*
X137382961Y-100861902D01*
X137358312Y-100846061D01*
X137310053Y-100815047D01*
X137310051Y-100815046D01*
X137310049Y-100815045D01*
X137310050Y-100815045D01*
X137171963Y-100774500D01*
X137171961Y-100774500D01*
X137028039Y-100774500D01*
X137028036Y-100774500D01*
X136889949Y-100815045D01*
X136768873Y-100892856D01*
X136674623Y-101001626D01*
X136674622Y-101001628D01*
X136614834Y-101132543D01*
X136594353Y-101275000D01*
X136002053Y-101275000D01*
X135985165Y-101157543D01*
X135925377Y-101026627D01*
X135831128Y-100917857D01*
X135710053Y-100840047D01*
X135710051Y-100840046D01*
X135710049Y-100840045D01*
X135710050Y-100840045D01*
X135571963Y-100799500D01*
X135571961Y-100799500D01*
X135428039Y-100799500D01*
X135428036Y-100799500D01*
X135289949Y-100840045D01*
X135217039Y-100886902D01*
X135150000Y-100906586D01*
X135082961Y-100886902D01*
X135044060Y-100861902D01*
X135010053Y-100840047D01*
X135010051Y-100840046D01*
X135010049Y-100840045D01*
X135010050Y-100840045D01*
X134871963Y-100799500D01*
X134871961Y-100799500D01*
X134728039Y-100799500D01*
X134728036Y-100799500D01*
X134589949Y-100840045D01*
X134468873Y-100917856D01*
X134374623Y-101026626D01*
X134374622Y-101026628D01*
X134314834Y-101157543D01*
X134294353Y-101300000D01*
X122641269Y-101300000D01*
X122635165Y-101257543D01*
X122575377Y-101126627D01*
X122481128Y-101017857D01*
X122360053Y-100940047D01*
X122360051Y-100940046D01*
X122360049Y-100940045D01*
X122360050Y-100940045D01*
X122221963Y-100899500D01*
X122221961Y-100899500D01*
X122078039Y-100899500D01*
X122078036Y-100899500D01*
X121939949Y-100940045D01*
X121867039Y-100986902D01*
X121800000Y-101006586D01*
X121732961Y-100986902D01*
X121730557Y-100985357D01*
X121660053Y-100940047D01*
X121660051Y-100940046D01*
X121660049Y-100940045D01*
X121660050Y-100940045D01*
X121521963Y-100899500D01*
X121521961Y-100899500D01*
X121378039Y-100899500D01*
X121378036Y-100899500D01*
X121239949Y-100940045D01*
X121118873Y-101017856D01*
X121024623Y-101126626D01*
X121024622Y-101126628D01*
X120964834Y-101257543D01*
X120944353Y-101400000D01*
X120305647Y-101400000D01*
X120285165Y-101257543D01*
X120225377Y-101126627D01*
X120131128Y-101017857D01*
X120010053Y-100940047D01*
X120010051Y-100940046D01*
X120010049Y-100940045D01*
X120010050Y-100940045D01*
X119871963Y-100899500D01*
X119871961Y-100899500D01*
X119728039Y-100899500D01*
X119728036Y-100899500D01*
X119589949Y-100940045D01*
X119517039Y-100986902D01*
X119450000Y-101006586D01*
X119382961Y-100986902D01*
X119380557Y-100985357D01*
X119310053Y-100940047D01*
X119310051Y-100940046D01*
X119310049Y-100940045D01*
X119310050Y-100940045D01*
X119171963Y-100899500D01*
X119171961Y-100899500D01*
X119028039Y-100899500D01*
X119028036Y-100899500D01*
X118889949Y-100940045D01*
X118768873Y-101017856D01*
X118674623Y-101126626D01*
X118674622Y-101126628D01*
X118614834Y-101257543D01*
X118594353Y-101400000D01*
X118055647Y-101400000D01*
X118035165Y-101257543D01*
X117975377Y-101126627D01*
X117881128Y-101017857D01*
X117760053Y-100940047D01*
X117760051Y-100940046D01*
X117760049Y-100940045D01*
X117760050Y-100940045D01*
X117621963Y-100899500D01*
X117621961Y-100899500D01*
X117478039Y-100899500D01*
X117478036Y-100899500D01*
X117339949Y-100940045D01*
X117267039Y-100986902D01*
X117200000Y-101006586D01*
X117132961Y-100986902D01*
X117130557Y-100985357D01*
X117060053Y-100940047D01*
X117060051Y-100940046D01*
X117060049Y-100940045D01*
X117060050Y-100940045D01*
X116921963Y-100899500D01*
X116921961Y-100899500D01*
X116778039Y-100899500D01*
X116778036Y-100899500D01*
X116639949Y-100940045D01*
X116518873Y-101017856D01*
X116424623Y-101126626D01*
X116424622Y-101126628D01*
X116364834Y-101257543D01*
X116344353Y-101400000D01*
X115668147Y-101400000D01*
X115647665Y-101257543D01*
X115587877Y-101126627D01*
X115493628Y-101017857D01*
X115372553Y-100940047D01*
X115372551Y-100940046D01*
X115372549Y-100940045D01*
X115372550Y-100940045D01*
X115234463Y-100899500D01*
X115234461Y-100899500D01*
X115090539Y-100899500D01*
X115090536Y-100899500D01*
X114952449Y-100940045D01*
X114879539Y-100986902D01*
X114812500Y-101006586D01*
X114745461Y-100986902D01*
X114743057Y-100985357D01*
X114672553Y-100940047D01*
X114672551Y-100940046D01*
X114672549Y-100940045D01*
X114672550Y-100940045D01*
X114534463Y-100899500D01*
X114534461Y-100899500D01*
X114390539Y-100899500D01*
X114390536Y-100899500D01*
X114252449Y-100940045D01*
X114131373Y-101017856D01*
X114037123Y-101126626D01*
X114037122Y-101126628D01*
X113977334Y-101257543D01*
X113956853Y-101400000D01*
X113368147Y-101400000D01*
X113347665Y-101257543D01*
X113287877Y-101126627D01*
X113193628Y-101017857D01*
X113072553Y-100940047D01*
X113072551Y-100940046D01*
X113072549Y-100940045D01*
X113072550Y-100940045D01*
X112934463Y-100899500D01*
X112934461Y-100899500D01*
X112790539Y-100899500D01*
X112790536Y-100899500D01*
X112652449Y-100940045D01*
X112579539Y-100986902D01*
X112512500Y-101006586D01*
X112445461Y-100986902D01*
X112443057Y-100985357D01*
X112372553Y-100940047D01*
X112372551Y-100940046D01*
X112372549Y-100940045D01*
X112372550Y-100940045D01*
X112234463Y-100899500D01*
X112234461Y-100899500D01*
X112090539Y-100899500D01*
X112090536Y-100899500D01*
X111952449Y-100940045D01*
X111831373Y-101017856D01*
X111737123Y-101126626D01*
X111737122Y-101126628D01*
X111677334Y-101257543D01*
X111656853Y-101400000D01*
X111105647Y-101400000D01*
X111085165Y-101257543D01*
X111025377Y-101126627D01*
X110931128Y-101017857D01*
X110810053Y-100940047D01*
X110810051Y-100940046D01*
X110810049Y-100940045D01*
X110810050Y-100940045D01*
X110671963Y-100899500D01*
X110671961Y-100899500D01*
X110528039Y-100899500D01*
X110528036Y-100899500D01*
X110389949Y-100940045D01*
X110317039Y-100986902D01*
X110250000Y-101006586D01*
X110182961Y-100986902D01*
X110180557Y-100985357D01*
X110110053Y-100940047D01*
X110110051Y-100940046D01*
X110110049Y-100940045D01*
X110110050Y-100940045D01*
X109971963Y-100899500D01*
X109971961Y-100899500D01*
X109828039Y-100899500D01*
X109828036Y-100899500D01*
X109689949Y-100940045D01*
X109568873Y-101017856D01*
X109474623Y-101126626D01*
X109474622Y-101126628D01*
X109414834Y-101257543D01*
X109394353Y-101400000D01*
X103414910Y-101400000D01*
X103400102Y-93951504D01*
X103419653Y-93884427D01*
X103436416Y-93863583D01*
X104799999Y-92500000D01*
X126894353Y-92500000D01*
X126914834Y-92642456D01*
X126974622Y-92773371D01*
X126979418Y-92780834D01*
X126976895Y-92782455D01*
X126999683Y-92832355D01*
X126989739Y-92901513D01*
X126978693Y-92918700D01*
X126979418Y-92919166D01*
X126974622Y-92926628D01*
X126914834Y-93057543D01*
X126894353Y-93200000D01*
X126914834Y-93342456D01*
X126974622Y-93473371D01*
X126979418Y-93480834D01*
X126976895Y-93482455D01*
X126999683Y-93532355D01*
X126989739Y-93601513D01*
X126978693Y-93618700D01*
X126979418Y-93619166D01*
X126974622Y-93626628D01*
X126914834Y-93757543D01*
X126894353Y-93900000D01*
X126914834Y-94042456D01*
X126974622Y-94173371D01*
X126979418Y-94180834D01*
X126976895Y-94182455D01*
X126999683Y-94232355D01*
X126989739Y-94301513D01*
X126978693Y-94318700D01*
X126979418Y-94319166D01*
X126974622Y-94326628D01*
X126914834Y-94457543D01*
X126894353Y-94600000D01*
X126914834Y-94742456D01*
X126960504Y-94842457D01*
X126974623Y-94873373D01*
X127068872Y-94982143D01*
X127189947Y-95059953D01*
X127189950Y-95059954D01*
X127189949Y-95059954D01*
X127328036Y-95100499D01*
X127328038Y-95100500D01*
X127328039Y-95100500D01*
X127471962Y-95100500D01*
X127471962Y-95100499D01*
X127610050Y-95059954D01*
X127610051Y-95059954D01*
X127637277Y-95042457D01*
X127731128Y-94982143D01*
X127731129Y-94982141D01*
X127732960Y-94980965D01*
X127800000Y-94961280D01*
X127867039Y-94980964D01*
X127867040Y-94980965D01*
X127868870Y-94982141D01*
X127868872Y-94982143D01*
X127945690Y-95031511D01*
X127989948Y-95059954D01*
X128128036Y-95100499D01*
X128128038Y-95100500D01*
X128128039Y-95100500D01*
X128271962Y-95100500D01*
X128271962Y-95100499D01*
X128410050Y-95059954D01*
X128410051Y-95059954D01*
X128437277Y-95042457D01*
X128531128Y-94982143D01*
X128531129Y-94982141D01*
X128532960Y-94980965D01*
X128600000Y-94961280D01*
X128667039Y-94980964D01*
X128667040Y-94980965D01*
X128668870Y-94982141D01*
X128668872Y-94982143D01*
X128745690Y-95031511D01*
X128789948Y-95059954D01*
X128928036Y-95100499D01*
X128928038Y-95100500D01*
X128928039Y-95100500D01*
X129071962Y-95100500D01*
X129071962Y-95100499D01*
X129210053Y-95059953D01*
X129307960Y-94997031D01*
X129375000Y-94977347D01*
X129442039Y-94997032D01*
X129442040Y-94997032D01*
X129539947Y-95059953D01*
X129539948Y-95059953D01*
X129539949Y-95059954D01*
X129678036Y-95100499D01*
X129678038Y-95100500D01*
X129678039Y-95100500D01*
X129821962Y-95100500D01*
X129821962Y-95100499D01*
X129960053Y-95059953D01*
X130081128Y-94982143D01*
X130175377Y-94873373D01*
X130235165Y-94742457D01*
X130255647Y-94600000D01*
X130235165Y-94457543D01*
X130175377Y-94326627D01*
X130175370Y-94326619D01*
X130170582Y-94319167D01*
X130173108Y-94317543D01*
X130150320Y-94267674D01*
X130160248Y-94198513D01*
X130171310Y-94181300D01*
X130170582Y-94180833D01*
X130175368Y-94173382D01*
X130175377Y-94173373D01*
X130235165Y-94042457D01*
X130255647Y-93900000D01*
X130235165Y-93757543D01*
X130175377Y-93626627D01*
X130175370Y-93626619D01*
X130170582Y-93619167D01*
X130173108Y-93617543D01*
X130150320Y-93567674D01*
X130160248Y-93498513D01*
X130171310Y-93481300D01*
X130170582Y-93480833D01*
X130175368Y-93473382D01*
X130175377Y-93473373D01*
X130235165Y-93342457D01*
X130255647Y-93200000D01*
X130235165Y-93057543D01*
X130186051Y-92950000D01*
X130744353Y-92950000D01*
X130764834Y-93092456D01*
X130824622Y-93223371D01*
X130829418Y-93230834D01*
X130826895Y-93232455D01*
X130849683Y-93282355D01*
X130839739Y-93351513D01*
X130828693Y-93368700D01*
X130829418Y-93369166D01*
X130824622Y-93376628D01*
X130764834Y-93507543D01*
X130744353Y-93650000D01*
X130764834Y-93792456D01*
X130824622Y-93923371D01*
X130829418Y-93930834D01*
X130826895Y-93932455D01*
X130849683Y-93982355D01*
X130839739Y-94051513D01*
X130828693Y-94068700D01*
X130829418Y-94069166D01*
X130824622Y-94076628D01*
X130764834Y-94207543D01*
X130744353Y-94350000D01*
X130764834Y-94492456D01*
X130824622Y-94623371D01*
X130824625Y-94623377D01*
X130863983Y-94668798D01*
X130893008Y-94732353D01*
X130883064Y-94801512D01*
X130863983Y-94831202D01*
X130824625Y-94876622D01*
X130824622Y-94876628D01*
X130764834Y-95007543D01*
X130744353Y-95150000D01*
X130764834Y-95292456D01*
X130824622Y-95423371D01*
X130829418Y-95430834D01*
X130826895Y-95432455D01*
X130849683Y-95482355D01*
X130839739Y-95551513D01*
X130828693Y-95568700D01*
X130829418Y-95569166D01*
X130824622Y-95576628D01*
X130764834Y-95707543D01*
X130744353Y-95850000D01*
X130764834Y-95992456D01*
X130824622Y-96123371D01*
X130829418Y-96130834D01*
X130826895Y-96132455D01*
X130849683Y-96182355D01*
X130839739Y-96251513D01*
X130828693Y-96268700D01*
X130829418Y-96269166D01*
X130824622Y-96276628D01*
X130764834Y-96407543D01*
X130744353Y-96550000D01*
X130764834Y-96692456D01*
X130824622Y-96823371D01*
X130824623Y-96823373D01*
X130918872Y-96932143D01*
X131039947Y-97009953D01*
X131039950Y-97009954D01*
X131039949Y-97009954D01*
X131178036Y-97050499D01*
X131178038Y-97050500D01*
X131178039Y-97050500D01*
X131321962Y-97050500D01*
X131321962Y-97050499D01*
X131460050Y-97009954D01*
X131460051Y-97009954D01*
X131460053Y-97009953D01*
X131581128Y-96932143D01*
X131581129Y-96932141D01*
X131582960Y-96930965D01*
X131650000Y-96911280D01*
X131717039Y-96930964D01*
X131717040Y-96930965D01*
X131718870Y-96932141D01*
X131718872Y-96932143D01*
X131796251Y-96981871D01*
X131839948Y-97009954D01*
X131978036Y-97050499D01*
X131978038Y-97050500D01*
X131978039Y-97050500D01*
X132121962Y-97050500D01*
X132121962Y-97050499D01*
X132260050Y-97009954D01*
X132260051Y-97009954D01*
X132260053Y-97009953D01*
X132381128Y-96932143D01*
X132381129Y-96932141D01*
X132382960Y-96930965D01*
X132450000Y-96911280D01*
X132517039Y-96930964D01*
X132517040Y-96930965D01*
X132518870Y-96932141D01*
X132518872Y-96932143D01*
X132596251Y-96981871D01*
X132639948Y-97009954D01*
X132778036Y-97050499D01*
X132778038Y-97050500D01*
X132778039Y-97050500D01*
X132921962Y-97050500D01*
X132921962Y-97050499D01*
X133060053Y-97009953D01*
X133181128Y-96932143D01*
X133275377Y-96823373D01*
X133335165Y-96692457D01*
X133355647Y-96550000D01*
X133335165Y-96407543D01*
X133275377Y-96276627D01*
X133275370Y-96276619D01*
X133270582Y-96269167D01*
X133273108Y-96267543D01*
X133250320Y-96217674D01*
X133260248Y-96148513D01*
X133271310Y-96131300D01*
X133270582Y-96130833D01*
X133275368Y-96123382D01*
X133275377Y-96123373D01*
X133335165Y-95992457D01*
X133355647Y-95850000D01*
X133335165Y-95707543D01*
X133275377Y-95576627D01*
X133275370Y-95576619D01*
X133270582Y-95569167D01*
X133273108Y-95567543D01*
X133250320Y-95517674D01*
X133260248Y-95448513D01*
X133271310Y-95431300D01*
X133270582Y-95430833D01*
X133275368Y-95423382D01*
X133275377Y-95423373D01*
X133335165Y-95292457D01*
X133355647Y-95150000D01*
X133335165Y-95007543D01*
X133275377Y-94876627D01*
X133275375Y-94876625D01*
X133275374Y-94876622D01*
X133236017Y-94831203D01*
X133206991Y-94767648D01*
X133216934Y-94698489D01*
X133236017Y-94668797D01*
X133275374Y-94623377D01*
X133275374Y-94623375D01*
X133275377Y-94623373D01*
X133335165Y-94492457D01*
X133355647Y-94350000D01*
X133335165Y-94207543D01*
X133275377Y-94076627D01*
X133275370Y-94076619D01*
X133270582Y-94069167D01*
X133273108Y-94067543D01*
X133250320Y-94017674D01*
X133260248Y-93948513D01*
X133271310Y-93931300D01*
X133270582Y-93930833D01*
X133275368Y-93923382D01*
X133275377Y-93923373D01*
X133335165Y-93792457D01*
X133355647Y-93650000D01*
X133335165Y-93507543D01*
X133275377Y-93376627D01*
X133275370Y-93376619D01*
X133270582Y-93369167D01*
X133273108Y-93367543D01*
X133250320Y-93317674D01*
X133260248Y-93248513D01*
X133271310Y-93231300D01*
X133270582Y-93230833D01*
X133275368Y-93223382D01*
X133275377Y-93223373D01*
X133335165Y-93092457D01*
X133355647Y-92950000D01*
X133335165Y-92807543D01*
X133275377Y-92676627D01*
X133181128Y-92567857D01*
X133060053Y-92490047D01*
X133060051Y-92490046D01*
X133060049Y-92490045D01*
X133060050Y-92490045D01*
X132921963Y-92449500D01*
X132921961Y-92449500D01*
X132778039Y-92449500D01*
X132778036Y-92449500D01*
X132639949Y-92490045D01*
X132517039Y-92569035D01*
X132450000Y-92588719D01*
X132382961Y-92569035D01*
X132287277Y-92507543D01*
X132260053Y-92490047D01*
X132260051Y-92490046D01*
X132260049Y-92490045D01*
X132260050Y-92490045D01*
X132121963Y-92449500D01*
X132121961Y-92449500D01*
X131978039Y-92449500D01*
X131978036Y-92449500D01*
X131839949Y-92490045D01*
X131717039Y-92569035D01*
X131650000Y-92588719D01*
X131582961Y-92569035D01*
X131487277Y-92507543D01*
X131460053Y-92490047D01*
X131460051Y-92490046D01*
X131460049Y-92490045D01*
X131460050Y-92490045D01*
X131321963Y-92449500D01*
X131321961Y-92449500D01*
X131178039Y-92449500D01*
X131178036Y-92449500D01*
X131039949Y-92490045D01*
X130918873Y-92567856D01*
X130824623Y-92676626D01*
X130824622Y-92676628D01*
X130764834Y-92807543D01*
X130744353Y-92950000D01*
X130186051Y-92950000D01*
X130175377Y-92926627D01*
X130175370Y-92926619D01*
X130170582Y-92919167D01*
X130173108Y-92917543D01*
X130150320Y-92867674D01*
X130160248Y-92798513D01*
X130171310Y-92781300D01*
X130170582Y-92780833D01*
X130175368Y-92773382D01*
X130175377Y-92773373D01*
X130235165Y-92642457D01*
X130255647Y-92500000D01*
X130235165Y-92357543D01*
X130175377Y-92226627D01*
X130081128Y-92117857D01*
X129960053Y-92040047D01*
X129960051Y-92040046D01*
X129960049Y-92040045D01*
X129960050Y-92040045D01*
X129821963Y-91999500D01*
X129821961Y-91999500D01*
X129678039Y-91999500D01*
X129678036Y-91999500D01*
X129539949Y-92040045D01*
X129442039Y-92102968D01*
X129374999Y-92122652D01*
X129307961Y-92102968D01*
X129210050Y-92040045D01*
X129071963Y-91999500D01*
X129071961Y-91999500D01*
X128928039Y-91999500D01*
X128928036Y-91999500D01*
X128789949Y-92040045D01*
X128667039Y-92119035D01*
X128600000Y-92138719D01*
X128532961Y-92119035D01*
X128507960Y-92102968D01*
X128410053Y-92040047D01*
X128410051Y-92040046D01*
X128410049Y-92040045D01*
X128410050Y-92040045D01*
X128271963Y-91999500D01*
X128271961Y-91999500D01*
X128128039Y-91999500D01*
X128128036Y-91999500D01*
X127989949Y-92040045D01*
X127867039Y-92119035D01*
X127800000Y-92138719D01*
X127732961Y-92119035D01*
X127707960Y-92102968D01*
X127610053Y-92040047D01*
X127610051Y-92040046D01*
X127610049Y-92040045D01*
X127610050Y-92040045D01*
X127471963Y-91999500D01*
X127471961Y-91999500D01*
X127328039Y-91999500D01*
X127328036Y-91999500D01*
X127189949Y-92040045D01*
X127068873Y-92117856D01*
X126974623Y-92226626D01*
X126974622Y-92226628D01*
X126914834Y-92357543D01*
X126894353Y-92500000D01*
X104799999Y-92500000D01*
X106363681Y-90936319D01*
X106425004Y-90902834D01*
X106451362Y-90900000D01*
X118350000Y-90900000D01*
X118350000Y-84026333D01*
X118369685Y-83959294D01*
X118386319Y-83938652D01*
X118688652Y-83636319D01*
X118749975Y-83602834D01*
X118776333Y-83600000D01*
X123526000Y-83600000D01*
X123593039Y-83619685D01*
G37*
%TD.AperFunction*%
%TD*%
%TA.AperFunction,Conductor*%
%TO.N,/12V*%
G36*
X145165677Y-136419685D02*
G01*
X145186319Y-136436319D01*
X145463681Y-136713681D01*
X145497166Y-136775004D01*
X145500000Y-136801362D01*
X145500000Y-138589732D01*
X145480315Y-138656771D01*
X145452613Y-138687232D01*
X144833721Y-139173504D01*
X144768847Y-139199444D01*
X144757113Y-139200000D01*
X142104854Y-139200000D01*
X142037815Y-139180315D01*
X142013101Y-139159411D01*
X141582247Y-138685471D01*
X141551717Y-138622625D01*
X141550000Y-138602060D01*
X141550000Y-136951362D01*
X141569685Y-136884323D01*
X141586319Y-136863681D01*
X142013681Y-136436319D01*
X142075004Y-136402834D01*
X142101362Y-136400000D01*
X145098638Y-136400000D01*
X145165677Y-136419685D01*
G37*
%TD.AperFunction*%
%TD*%
M02*
