%TF.GenerationSoftware,KiCad,Pcbnew,9.0.0*%
%TF.CreationDate,2025-05-19T16:40:14-04:00*%
%TF.ProjectId,BitaxeGT,42697461-7865-4475-942e-6b696361645f,v800*%
%TF.SameCoordinates,Original*%
%TF.FileFunction,Paste,Top*%
%TF.FilePolarity,Positive*%
%FSLAX46Y46*%
G04 Gerber Fmt 4.6, Leading zero omitted, Abs format (unit mm)*
G04 Created by KiCad (PCBNEW 9.0.0) date 2025-05-19 16:40:14*
%MOMM*%
%LPD*%
G01*
G04 APERTURE LIST*
G04 Aperture macros list*
%AMRoundRect*
0 Rectangle with rounded corners*
0 $1 Rounding radius*
0 $2 $3 $4 $5 $6 $7 $8 $9 X,Y pos of 4 corners*
0 Add a 4 corners polygon primitive as box body*
4,1,4,$2,$3,$4,$5,$6,$7,$8,$9,$2,$3,0*
0 Add four circle primitives for the rounded corners*
1,1,$1+$1,$2,$3*
1,1,$1+$1,$4,$5*
1,1,$1+$1,$6,$7*
1,1,$1+$1,$8,$9*
0 Add four rect primitives between the rounded corners*
20,1,$1+$1,$2,$3,$4,$5,0*
20,1,$1+$1,$4,$5,$6,$7,0*
20,1,$1+$1,$6,$7,$8,$9,0*
20,1,$1+$1,$8,$9,$2,$3,0*%
G04 Aperture macros list end*
%ADD10C,0.001000*%
%ADD11RoundRect,0.055250X-0.340750X-0.055250X0.340750X-0.055250X0.340750X0.055250X-0.340750X0.055250X0*%
G04 APERTURE END LIST*
%TO.C,U9*%
D10*
X111372500Y-109580000D02*
X110172500Y-109580000D01*
X110172500Y-108460000D01*
X111372500Y-108460000D01*
X111372500Y-109580000D01*
G36*
X111372500Y-109580000D02*
G01*
X110172500Y-109580000D01*
X110172500Y-108460000D01*
X111372500Y-108460000D01*
X111372500Y-109580000D01*
G37*
X111375000Y-111600000D02*
X110175000Y-111600000D01*
X110175000Y-110650000D01*
X111375000Y-110650000D01*
X111375000Y-111600000D01*
G36*
X111375000Y-111600000D02*
G01*
X110175000Y-111600000D01*
X110175000Y-110650000D01*
X111375000Y-110650000D01*
X111375000Y-111600000D01*
G37*
X111375000Y-113575000D02*
X110175000Y-113575000D01*
X110175000Y-112625000D01*
X111375000Y-112625000D01*
X111375000Y-113575000D01*
G36*
X111375000Y-113575000D02*
G01*
X110175000Y-113575000D01*
X110175000Y-112625000D01*
X111375000Y-112625000D01*
X111375000Y-113575000D01*
G37*
X111375000Y-115550000D02*
X110175000Y-115550000D01*
X110175000Y-114600000D01*
X111375000Y-114600000D01*
X111375000Y-115550000D01*
G36*
X111375000Y-115550000D02*
G01*
X110175000Y-115550000D01*
X110175000Y-114600000D01*
X111375000Y-114600000D01*
X111375000Y-115550000D01*
G37*
X113640000Y-113580000D02*
X112440000Y-113580000D01*
X112440000Y-112630000D01*
X113640000Y-112630000D01*
X113640000Y-113580000D01*
G36*
X113640000Y-113580000D02*
G01*
X112440000Y-113580000D01*
X112440000Y-112630000D01*
X113640000Y-112630000D01*
X113640000Y-113580000D01*
G37*
X113650000Y-109585000D02*
X112450000Y-109585000D01*
X112450000Y-108475000D01*
X113650000Y-108475000D01*
X113650000Y-109585000D01*
G36*
X113650000Y-109585000D02*
G01*
X112450000Y-109585000D01*
X112450000Y-108475000D01*
X113650000Y-108475000D01*
X113650000Y-109585000D01*
G37*
X113650000Y-111600000D02*
X112450000Y-111600000D01*
X112450000Y-110650000D01*
X113650000Y-110650000D01*
X113650000Y-111600000D01*
G36*
X113650000Y-111600000D02*
G01*
X112450000Y-111600000D01*
X112450000Y-110650000D01*
X113650000Y-110650000D01*
X113650000Y-111600000D01*
G37*
X113650000Y-115550000D02*
X112450000Y-115550000D01*
X112450000Y-114600000D01*
X113650000Y-114600000D01*
X113650000Y-115550000D01*
G36*
X113650000Y-115550000D02*
G01*
X112450000Y-115550000D01*
X112450000Y-114600000D01*
X113650000Y-114600000D01*
X113650000Y-115550000D01*
G37*
X115790000Y-113580000D02*
X114590000Y-113580000D01*
X114590000Y-112630000D01*
X115790000Y-112630000D01*
X115790000Y-113580000D01*
G36*
X115790000Y-113580000D02*
G01*
X114590000Y-113580000D01*
X114590000Y-112630000D01*
X115790000Y-112630000D01*
X115790000Y-113580000D01*
G37*
X115797500Y-109580000D02*
X114597500Y-109580000D01*
X114597500Y-108470000D01*
X115797500Y-108470000D01*
X115797500Y-109580000D01*
G36*
X115797500Y-109580000D02*
G01*
X114597500Y-109580000D01*
X114597500Y-108470000D01*
X115797500Y-108470000D01*
X115797500Y-109580000D01*
G37*
X115800000Y-111600000D02*
X114600000Y-111600000D01*
X114600000Y-110650000D01*
X115800000Y-110650000D01*
X115800000Y-111600000D01*
G36*
X115800000Y-111600000D02*
G01*
X114600000Y-111600000D01*
X114600000Y-110650000D01*
X115800000Y-110650000D01*
X115800000Y-111600000D01*
G37*
X115800000Y-115550000D02*
X114600000Y-115550000D01*
X114600000Y-114600000D01*
X115800000Y-114600000D01*
X115800000Y-115550000D01*
G36*
X115800000Y-115550000D02*
G01*
X114600000Y-115550000D01*
X114600000Y-114600000D01*
X115800000Y-114600000D01*
X115800000Y-115550000D01*
G37*
%TO.C,U10*%
X147372500Y-109580000D02*
X146172500Y-109580000D01*
X146172500Y-108460000D01*
X147372500Y-108460000D01*
X147372500Y-109580000D01*
G36*
X147372500Y-109580000D02*
G01*
X146172500Y-109580000D01*
X146172500Y-108460000D01*
X147372500Y-108460000D01*
X147372500Y-109580000D01*
G37*
X147375000Y-111600000D02*
X146175000Y-111600000D01*
X146175000Y-110650000D01*
X147375000Y-110650000D01*
X147375000Y-111600000D01*
G36*
X147375000Y-111600000D02*
G01*
X146175000Y-111600000D01*
X146175000Y-110650000D01*
X147375000Y-110650000D01*
X147375000Y-111600000D01*
G37*
X147375000Y-113575000D02*
X146175000Y-113575000D01*
X146175000Y-112625000D01*
X147375000Y-112625000D01*
X147375000Y-113575000D01*
G36*
X147375000Y-113575000D02*
G01*
X146175000Y-113575000D01*
X146175000Y-112625000D01*
X147375000Y-112625000D01*
X147375000Y-113575000D01*
G37*
X147375000Y-115550000D02*
X146175000Y-115550000D01*
X146175000Y-114600000D01*
X147375000Y-114600000D01*
X147375000Y-115550000D01*
G36*
X147375000Y-115550000D02*
G01*
X146175000Y-115550000D01*
X146175000Y-114600000D01*
X147375000Y-114600000D01*
X147375000Y-115550000D01*
G37*
X149640000Y-113580000D02*
X148440000Y-113580000D01*
X148440000Y-112630000D01*
X149640000Y-112630000D01*
X149640000Y-113580000D01*
G36*
X149640000Y-113580000D02*
G01*
X148440000Y-113580000D01*
X148440000Y-112630000D01*
X149640000Y-112630000D01*
X149640000Y-113580000D01*
G37*
X149650000Y-109585000D02*
X148450000Y-109585000D01*
X148450000Y-108475000D01*
X149650000Y-108475000D01*
X149650000Y-109585000D01*
G36*
X149650000Y-109585000D02*
G01*
X148450000Y-109585000D01*
X148450000Y-108475000D01*
X149650000Y-108475000D01*
X149650000Y-109585000D01*
G37*
X149650000Y-111600000D02*
X148450000Y-111600000D01*
X148450000Y-110650000D01*
X149650000Y-110650000D01*
X149650000Y-111600000D01*
G36*
X149650000Y-111600000D02*
G01*
X148450000Y-111600000D01*
X148450000Y-110650000D01*
X149650000Y-110650000D01*
X149650000Y-111600000D01*
G37*
X149650000Y-115550000D02*
X148450000Y-115550000D01*
X148450000Y-114600000D01*
X149650000Y-114600000D01*
X149650000Y-115550000D01*
G36*
X149650000Y-115550000D02*
G01*
X148450000Y-115550000D01*
X148450000Y-114600000D01*
X149650000Y-114600000D01*
X149650000Y-115550000D01*
G37*
X151790000Y-113580000D02*
X150590000Y-113580000D01*
X150590000Y-112630000D01*
X151790000Y-112630000D01*
X151790000Y-113580000D01*
G36*
X151790000Y-113580000D02*
G01*
X150590000Y-113580000D01*
X150590000Y-112630000D01*
X151790000Y-112630000D01*
X151790000Y-113580000D01*
G37*
X151797500Y-109580000D02*
X150597500Y-109580000D01*
X150597500Y-108470000D01*
X151797500Y-108470000D01*
X151797500Y-109580000D01*
G36*
X151797500Y-109580000D02*
G01*
X150597500Y-109580000D01*
X150597500Y-108470000D01*
X151797500Y-108470000D01*
X151797500Y-109580000D01*
G37*
X151800000Y-111600000D02*
X150600000Y-111600000D01*
X150600000Y-110650000D01*
X151800000Y-110650000D01*
X151800000Y-111600000D01*
G36*
X151800000Y-111600000D02*
G01*
X150600000Y-111600000D01*
X150600000Y-110650000D01*
X151800000Y-110650000D01*
X151800000Y-111600000D01*
G37*
X151800000Y-115550000D02*
X150600000Y-115550000D01*
X150600000Y-114600000D01*
X151800000Y-114600000D01*
X151800000Y-115550000D01*
G36*
X151800000Y-115550000D02*
G01*
X150600000Y-115550000D01*
X150600000Y-114600000D01*
X151800000Y-114600000D01*
X151800000Y-115550000D01*
G37*
%TD*%
D11*
%TO.C,U9*%
X109084000Y-108500000D03*
X109084000Y-109000000D03*
X109084000Y-109500000D03*
X109084000Y-110000000D03*
X109084000Y-110500000D03*
X109084000Y-111000000D03*
X109084000Y-111500000D03*
X109084000Y-112000000D03*
X109084000Y-112500000D03*
X109084000Y-113000000D03*
X109084000Y-113500000D03*
X109084000Y-114000000D03*
X109084000Y-114500000D03*
X109084000Y-115000000D03*
X109084000Y-115500000D03*
X116916000Y-115500000D03*
X116916000Y-115000000D03*
X116916000Y-114500000D03*
X116916000Y-114000000D03*
X116916000Y-113500000D03*
X116916000Y-113000000D03*
X116916000Y-112500000D03*
X116916000Y-112000000D03*
X116916000Y-111500000D03*
X116916000Y-111000000D03*
X116916000Y-110500000D03*
X116916000Y-110000000D03*
X116916000Y-109500000D03*
X116916000Y-109000000D03*
X116916000Y-108500000D03*
%TD*%
%TO.C,U10*%
X145084000Y-108500000D03*
X145084000Y-109000000D03*
X145084000Y-109500000D03*
X145084000Y-110000000D03*
X145084000Y-110500000D03*
X145084000Y-111000000D03*
X145084000Y-111500000D03*
X145084000Y-112000000D03*
X145084000Y-112500000D03*
X145084000Y-113000000D03*
X145084000Y-113500000D03*
X145084000Y-114000000D03*
X145084000Y-114500000D03*
X145084000Y-115000000D03*
X145084000Y-115500000D03*
X152916000Y-115500000D03*
X152916000Y-115000000D03*
X152916000Y-114500000D03*
X152916000Y-114000000D03*
X152916000Y-113500000D03*
X152916000Y-113000000D03*
X152916000Y-112500000D03*
X152916000Y-112000000D03*
X152916000Y-111500000D03*
X152916000Y-111000000D03*
X152916000Y-110500000D03*
X152916000Y-110000000D03*
X152916000Y-109500000D03*
X152916000Y-109000000D03*
X152916000Y-108500000D03*
%TD*%
M02*
