%TF.GenerationSoftware,KiCad,Pcbnew,9.0.0*%
%TF.CreationDate,2025-03-16T23:20:56-04:00*%
%TF.ProjectId,BitaxeGT,42697461-7865-4475-942e-6b696361645f,v800*%
%TF.SameCoordinates,Original*%
%TF.FileFunction,Copper,L3,Inr*%
%TF.FilePolarity,Positive*%
%FSLAX46Y46*%
G04 Gerber Fmt 4.6, Leading zero omitted, Abs format (unit mm)*
G04 Created by KiCad (PCBNEW 9.0.0) date 2025-03-16 23:20:56*
%MOMM*%
%LPD*%
G01*
G04 APERTURE LIST*
%TA.AperFunction,ComponentPad*%
%ADD10R,1.700000X1.700000*%
%TD*%
%TA.AperFunction,ComponentPad*%
%ADD11O,1.700000X1.700000*%
%TD*%
%TA.AperFunction,ComponentPad*%
%ADD12C,3.000000*%
%TD*%
%TA.AperFunction,ComponentPad*%
%ADD13C,2.000000*%
%TD*%
%TA.AperFunction,ComponentPad*%
%ADD14C,0.800000*%
%TD*%
%TA.AperFunction,ComponentPad*%
%ADD15C,6.400000*%
%TD*%
%TA.AperFunction,ComponentPad*%
%ADD16C,1.574800*%
%TD*%
%TA.AperFunction,ComponentPad*%
%ADD17C,1.700000*%
%TD*%
%TA.AperFunction,ComponentPad*%
%ADD18C,6.000000*%
%TD*%
%TA.AperFunction,ComponentPad*%
%ADD19C,0.400000*%
%TD*%
%TA.AperFunction,ComponentPad*%
%ADD20O,1.000000X1.800000*%
%TD*%
%TA.AperFunction,ComponentPad*%
%ADD21O,1.000000X2.100000*%
%TD*%
%TA.AperFunction,ViaPad*%
%ADD22C,0.500000*%
%TD*%
%TA.AperFunction,ViaPad*%
%ADD23C,0.600000*%
%TD*%
%TA.AperFunction,ViaPad*%
%ADD24C,1.000000*%
%TD*%
%TA.AperFunction,ViaPad*%
%ADD25C,0.800000*%
%TD*%
%TA.AperFunction,ViaPad*%
%ADD26C,0.700000*%
%TD*%
%TA.AperFunction,ViaPad*%
%ADD27C,0.400000*%
%TD*%
%TA.AperFunction,Conductor*%
%ADD28C,0.400000*%
%TD*%
%TA.AperFunction,Conductor*%
%ADD29C,0.200000*%
%TD*%
G04 APERTURE END LIST*
D10*
%TO.N,/12V*%
%TO.C,J5*%
X142850000Y-41500000D03*
D11*
%TO.N,GND*%
X140310000Y-41500000D03*
%TO.N,Net-(J5-Pin_3)*%
X137770000Y-41500000D03*
%TO.N,Net-(J5-Pin_4)*%
X135230000Y-41500000D03*
%TO.N,Net-(J5-Pin_5)*%
X132690000Y-41500000D03*
%TO.N,Net-(J5-Pin_6)*%
X130150000Y-41500000D03*
%TD*%
D12*
%TO.N,/12V*%
%TO.C,J1*%
X150350000Y-55250000D03*
%TO.N,GND*%
X150350000Y-60250000D03*
D13*
%TO.N,unconnected-(J1-MNT1-Pad3)*%
X160350000Y-52250000D03*
%TO.N,unconnected-(J1-MNT2-Pad4)*%
X160350000Y-63250000D03*
%TD*%
D14*
%TO.N,GND*%
%TO.C,H4*%
X99600000Y-146500000D03*
X100302944Y-144802944D03*
X100302944Y-148197056D03*
X102000000Y-144100000D03*
D15*
X102000000Y-146500000D03*
D14*
X102000000Y-148900000D03*
X103697056Y-144802944D03*
X103697056Y-148197056D03*
X104400000Y-146500000D03*
%TD*%
D16*
%TO.N,GND*%
%TO.C,J7*%
X140620600Y-146338851D03*
%TO.N,/12V*%
X138080600Y-146338851D03*
%TO.N,/fan/FAN_TACH*%
X135540600Y-146338851D03*
%TO.N,/fan/FAN_PWM*%
X133000600Y-146338851D03*
%TD*%
D14*
%TO.N,GND*%
%TO.C,H2*%
X99600000Y-41500000D03*
X100302944Y-39802944D03*
X100302944Y-43197056D03*
X102000000Y-39100000D03*
D15*
X102000000Y-41500000D03*
D14*
X102000000Y-43900000D03*
X103697056Y-39802944D03*
X103697056Y-43197056D03*
X104400000Y-41500000D03*
%TD*%
%TO.N,GND*%
%TO.C,H3*%
X157600000Y-146500000D03*
X158302944Y-144802944D03*
X158302944Y-148197056D03*
X160000000Y-144100000D03*
D15*
X160000000Y-146500000D03*
D14*
X160000000Y-148900000D03*
X161697056Y-144802944D03*
X161697056Y-148197056D03*
X162400000Y-146500000D03*
%TD*%
D17*
%TO.N,GND*%
%TO.C,J3*%
X148200000Y-40550000D03*
D11*
%TO.N,/3V3*%
X147800000Y-43090000D03*
%TO.N,/ESP32/SCL*%
X148200000Y-45630000D03*
%TO.N,/ESP32/SDA*%
X147800000Y-48170000D03*
%TD*%
D14*
%TO.N,GND*%
%TO.C,H1*%
X157600000Y-41500000D03*
X158302944Y-39802944D03*
X158302944Y-43197056D03*
X160000000Y-39100000D03*
D15*
X160000000Y-41500000D03*
D14*
X160000000Y-43900000D03*
X161697056Y-39802944D03*
X161697056Y-43197056D03*
X162400000Y-41500000D03*
%TD*%
D18*
%TO.N,unconnected-(H6-Pad1)*%
%TO.C,H6*%
X106000000Y-87000000D03*
%TD*%
%TO.N,unconnected-(H5-Pad1)*%
%TO.C,H5*%
X156000000Y-87000000D03*
%TD*%
D19*
%TO.N,GND*%
%TO.C,U4*%
X122280000Y-88650000D03*
X122280000Y-87250000D03*
X122280000Y-85850000D03*
X121000000Y-89650000D03*
X121000000Y-88650000D03*
X121000000Y-87250000D03*
X121000000Y-85850000D03*
X121000000Y-84850000D03*
X119720000Y-88650000D03*
X119720000Y-87250000D03*
X119720000Y-85850000D03*
%TD*%
D20*
%TO.N,GND*%
%TO.C,J4*%
X118030000Y-40885000D03*
D21*
X118030000Y-45065000D03*
D20*
X126670000Y-40885000D03*
D21*
X126670000Y-45065000D03*
%TD*%
D19*
%TO.N,GND*%
%TO.C,U1*%
X146630000Y-88650000D03*
X146630000Y-87250000D03*
X146630000Y-85850000D03*
X145350000Y-89650000D03*
X145350000Y-88650000D03*
X145350000Y-87250000D03*
X145350000Y-85850000D03*
X145350000Y-84850000D03*
X144070000Y-88650000D03*
X144070000Y-87250000D03*
X144070000Y-85850000D03*
%TD*%
D18*
%TO.N,unconnected-(H8-Pad1)*%
%TO.C,H8*%
X156000000Y-137000000D03*
%TD*%
%TO.N,unconnected-(H7-Pad1)*%
%TO.C,H7*%
X106000000Y-137000000D03*
%TD*%
D22*
%TO.N,/12V*%
X154450000Y-53250000D03*
X153550000Y-55650000D03*
X144500000Y-53025000D03*
X142000000Y-89400000D03*
X144500000Y-54625000D03*
X116200000Y-88800000D03*
X116900000Y-88200000D03*
X153550000Y-53250000D03*
X147050000Y-53025000D03*
X146200000Y-56225000D03*
X147950000Y-53825000D03*
X154450000Y-54050000D03*
X136700000Y-88250000D03*
X147050000Y-53825000D03*
X152750000Y-54050000D03*
X136700000Y-87650000D03*
X146200000Y-53025000D03*
X153550000Y-54850000D03*
X146200000Y-53825000D03*
X147950000Y-53025000D03*
X140600000Y-89400000D03*
X152750000Y-56450000D03*
X136700000Y-88850000D03*
X116900000Y-90000000D03*
X145400000Y-53025000D03*
X112200000Y-87850000D03*
X136100000Y-88850000D03*
X142000000Y-88200000D03*
X142000000Y-88800000D03*
X116900000Y-88800000D03*
X140600000Y-88200000D03*
X152750000Y-54850000D03*
X112200000Y-87250000D03*
X147950000Y-56225000D03*
X112800000Y-87850000D03*
X117600000Y-89400000D03*
X147050000Y-55425000D03*
X154450000Y-55650000D03*
X112200000Y-88450000D03*
X147050000Y-56225000D03*
X146200000Y-55425000D03*
X141300000Y-88200000D03*
X112800000Y-89050000D03*
X112800000Y-87250000D03*
X155250000Y-53250000D03*
X155250000Y-54050000D03*
X117600000Y-88200000D03*
D23*
X143150000Y-136975000D03*
D22*
X136700000Y-87050000D03*
X136100000Y-88250000D03*
X116200000Y-88200000D03*
X155250000Y-54850000D03*
X145400000Y-56225000D03*
X145400000Y-55425000D03*
X155250000Y-56450000D03*
X145400000Y-54625000D03*
X136100000Y-87050000D03*
X141300000Y-89400000D03*
X141300000Y-90000000D03*
X153550000Y-56450000D03*
X152750000Y-53250000D03*
X155250000Y-55650000D03*
X153550000Y-54050000D03*
X136100000Y-87650000D03*
X144500000Y-56225000D03*
X144500000Y-53825000D03*
X116900000Y-89400000D03*
X154450000Y-54850000D03*
X154450000Y-56450000D03*
X145400000Y-53825000D03*
X144500000Y-55425000D03*
X116200000Y-89400000D03*
X141300000Y-88800000D03*
X112800000Y-88450000D03*
X140600000Y-90000000D03*
X112200000Y-89050000D03*
X147950000Y-55425000D03*
X117600000Y-88800000D03*
X117600000Y-90000000D03*
X116200000Y-90000000D03*
X140600000Y-88800000D03*
X146200000Y-54625000D03*
X147050000Y-54625000D03*
X152750000Y-55650000D03*
X147950000Y-54625000D03*
X142000000Y-90000000D03*
%TO.N,/Power/AGND1*%
X151650000Y-80300000D03*
X147700000Y-81550000D03*
D23*
X141724265Y-80724265D03*
D22*
X145500000Y-82750000D03*
D23*
%TO.N,/Vcore*%
X140200000Y-101975000D03*
X137100000Y-101975000D03*
X129800000Y-107250000D03*
X129800000Y-106450000D03*
X119800000Y-102800000D03*
X122150000Y-102100000D03*
X146380000Y-101975000D03*
X129000000Y-101900000D03*
X149500000Y-107400000D03*
X153400000Y-103550000D03*
X153400000Y-101100000D03*
X154200000Y-106000000D03*
X137800000Y-101975000D03*
X150500000Y-107400000D03*
X155000000Y-100300000D03*
X111500000Y-107400000D03*
X154200000Y-102750000D03*
X115162500Y-102800000D03*
X116850000Y-102100000D03*
X153400000Y-101950000D03*
X116850000Y-102800000D03*
X146500000Y-107400000D03*
X113500000Y-109500000D03*
X127400000Y-107250000D03*
X155000000Y-101950000D03*
X142500000Y-101975000D03*
X146380000Y-102675000D03*
X127400000Y-101900000D03*
X128200000Y-105650000D03*
X113500000Y-108500000D03*
X128200000Y-101900000D03*
X146380000Y-101275000D03*
D22*
X133950000Y-101650000D03*
D23*
X142500000Y-83200000D03*
X112862500Y-101400000D03*
X115500000Y-107400000D03*
X119100000Y-102100000D03*
X129800000Y-103450000D03*
X154200000Y-100300000D03*
X119800000Y-101400000D03*
X155000000Y-105200000D03*
X147500000Y-109500000D03*
X154200000Y-101100000D03*
X152600000Y-103550000D03*
X129800000Y-108050000D03*
X152600000Y-102750000D03*
X129800000Y-104250000D03*
X109900000Y-101400000D03*
X108575000Y-67625000D03*
X114500000Y-109500000D03*
X148500000Y-107400000D03*
X121450000Y-102800000D03*
X127400000Y-106450000D03*
X144000000Y-101275000D03*
X137100000Y-102675000D03*
X155000000Y-106000000D03*
X146500000Y-108500000D03*
X153400000Y-102750000D03*
X152600000Y-101950000D03*
X114462500Y-102800000D03*
X135500000Y-102700000D03*
X110500000Y-108500000D03*
X129000000Y-107250000D03*
X114462500Y-101400000D03*
X140200000Y-101275000D03*
X112862500Y-102800000D03*
X151500000Y-107400000D03*
X135500000Y-101300000D03*
X150500000Y-108500000D03*
X135500000Y-102000000D03*
X152600000Y-104350000D03*
X134800000Y-102000000D03*
X119800000Y-102100000D03*
X113500000Y-107400000D03*
X114462500Y-102100000D03*
X112500000Y-109500000D03*
X114500000Y-108500000D03*
X109900000Y-102100000D03*
X128200000Y-106450000D03*
X119100000Y-102800000D03*
X154200000Y-105200000D03*
X119100000Y-101400000D03*
X154200000Y-103550000D03*
X115500000Y-108500000D03*
X148500000Y-109500000D03*
X110600000Y-101400000D03*
X152600000Y-105200000D03*
X153400000Y-106000000D03*
X110500000Y-107400000D03*
X149500000Y-108500000D03*
X147500000Y-108500000D03*
X142500000Y-102675000D03*
X117550000Y-102100000D03*
X129000000Y-104250000D03*
X141800000Y-101275000D03*
X128200000Y-102650000D03*
X115162500Y-102100000D03*
X141800000Y-102675000D03*
X139500000Y-101975000D03*
X112162500Y-102800000D03*
X148500000Y-108500000D03*
X155000000Y-103550000D03*
X128200000Y-103450000D03*
X116850000Y-101400000D03*
X142500000Y-101275000D03*
X115162500Y-101400000D03*
X129800000Y-101900000D03*
X112500000Y-107400000D03*
D22*
X160700000Y-102700000D03*
D23*
X134800000Y-102700000D03*
X137100000Y-101275000D03*
X112162500Y-101400000D03*
X152600000Y-101100000D03*
X117550000Y-101400000D03*
X111500000Y-108500000D03*
X129800000Y-105650000D03*
X112862500Y-102100000D03*
X114500000Y-107400000D03*
X139500000Y-102675000D03*
X154200000Y-101950000D03*
X144000000Y-102675000D03*
X110500000Y-109500000D03*
X147080000Y-102675000D03*
X121450000Y-102100000D03*
X117550000Y-102800000D03*
X129000000Y-105650000D03*
X128200000Y-108050000D03*
X127400000Y-103450000D03*
X129800000Y-102650000D03*
X147080000Y-101975000D03*
X153400000Y-104350000D03*
X151500000Y-109500000D03*
X127400000Y-105650000D03*
X121450000Y-101400000D03*
X112500000Y-108500000D03*
X134800000Y-101300000D03*
X155000000Y-102750000D03*
X147080000Y-101275000D03*
X137800000Y-101275000D03*
X140200000Y-102675000D03*
X141800000Y-101975000D03*
X153400000Y-100300000D03*
X152600000Y-106000000D03*
X137800000Y-102675000D03*
X144700000Y-101275000D03*
X153400000Y-105200000D03*
X110600000Y-102100000D03*
X144000000Y-101975000D03*
X129000000Y-103450000D03*
X122150000Y-101400000D03*
X109900000Y-102800000D03*
X129000000Y-106450000D03*
X151500000Y-108500000D03*
X144700000Y-101975000D03*
X152600000Y-100300000D03*
X110600000Y-102800000D03*
X115500000Y-109500000D03*
X147500000Y-107400000D03*
X144700000Y-102675000D03*
X154200000Y-104350000D03*
X128200000Y-107250000D03*
X139500000Y-101275000D03*
X155000000Y-104350000D03*
X129000000Y-102650000D03*
X146500000Y-109500000D03*
X129000000Y-108050000D03*
X127400000Y-104250000D03*
X111500000Y-109500000D03*
X150500000Y-109500000D03*
X127400000Y-102650000D03*
X122150000Y-102800000D03*
X112162500Y-102100000D03*
X149500000Y-109500000D03*
X127400000Y-108050000D03*
X155000000Y-101100000D03*
X128200000Y-104250000D03*
D22*
%TO.N,/Power/VSHARE*%
X120450000Y-81200000D03*
X144550000Y-82800000D03*
%TO.N,/Power/EN_UVLO*%
X117500000Y-86950000D03*
X137900000Y-82800000D03*
%TO.N,/5V*%
X106650000Y-120200000D03*
X106050000Y-120200000D03*
D24*
X135700000Y-54250000D03*
D22*
X127450000Y-139300000D03*
X125200000Y-122700000D03*
%TO.N,/ASIC/1V2*%
X102700000Y-100600000D03*
X127300000Y-122700000D03*
X130450000Y-117600000D03*
X102880000Y-131080000D03*
X117825000Y-115625000D03*
X143950000Y-115750000D03*
%TO.N,/ASIC/0V8*%
X142600000Y-116050000D03*
X130450000Y-115762500D03*
X119750000Y-115050000D03*
D25*
%TO.N,/3V3*%
X133650000Y-52500000D03*
X134550000Y-52500000D03*
X134550000Y-51650000D03*
D22*
X104100000Y-130200000D03*
D25*
X132700000Y-52050000D03*
D22*
X127000000Y-65600000D03*
D26*
X114700000Y-40800000D03*
D22*
X108700000Y-133750000D03*
X138350000Y-47400000D03*
D23*
X130300000Y-52025000D03*
D22*
X107425000Y-46150000D03*
X126700000Y-68100000D03*
D25*
X133650000Y-51650000D03*
D22*
X126700000Y-128850000D03*
%TO.N,/Power/PGOOD*%
X130600000Y-64500000D03*
X148062500Y-83900000D03*
D23*
%TO.N,/fan/FAN_TACH*%
X135200000Y-139000000D03*
D22*
%TO.N,/ASIC/TEMP1_P*%
X118328858Y-113867944D03*
D23*
X131700000Y-127890000D03*
D22*
%TO.N,/ASIC/TEMP1_N*%
X118000000Y-113250000D03*
D23*
X130650000Y-127890000D03*
%TO.N,/ASIC/TEMP2_P*%
X134000000Y-127800000D03*
D22*
X155355635Y-114550000D03*
D23*
%TO.N,/ASIC/TEMP2_N*%
X132950000Y-127880000D03*
D22*
X155820645Y-114026770D03*
D23*
%TO.N,/fan/FAN_PWM*%
X133950000Y-140900000D03*
D22*
%TO.N,/Power/BCX_DAT*%
X127291727Y-81200000D03*
X159300000Y-79100000D03*
X148000000Y-82750000D03*
%TO.N,/Power/BCX_CLK*%
X156800000Y-80700000D03*
X147100735Y-82600735D03*
X126500000Y-81200000D03*
%TO.N,/Power/SYNC*%
X125600000Y-81200000D03*
X146203957Y-82697514D03*
X161400000Y-80700000D03*
%TO.N,/ESP32/SDA*%
X109500000Y-131300000D03*
X111400000Y-71500000D03*
D23*
X124100000Y-61190000D03*
D22*
X135650000Y-135250000D03*
D23*
%TO.N,/ESP32/SCL*%
X123320000Y-62465000D03*
D22*
X112000000Y-70600000D03*
X109500000Y-132300000D03*
X135600000Y-136200000D03*
%TO.N,/ASIC/RX_1V2*%
X106000000Y-121200000D03*
%TO.N,/ASIC/CLKI*%
X106200000Y-112550000D03*
%TO.N,/ASIC/BI*%
X105420352Y-112700799D03*
%TO.N,/ASIC/RST_1V2*%
X104675382Y-121611508D03*
%TO.N,/ASIC/TX_1V2*%
X105309522Y-121315080D03*
%TO.N,/ASIC/RST_3V3*%
X109400000Y-73000000D03*
X104800000Y-126550000D03*
%TO.N,/ASIC/TX_3V3*%
X117700000Y-62100000D03*
X105400000Y-127700000D03*
%TO.N,Net-(U4-AVIN)*%
X116950000Y-87500000D03*
X115150000Y-84600000D03*
D27*
%TO.N,Net-(U9-VDD1_0)*%
X108025000Y-109275000D03*
%TO.N,Net-(U9-VDD2_0)*%
X108125000Y-108255000D03*
%TO.N,Net-(U9-VDD3_0)*%
X109150000Y-107630000D03*
D22*
%TO.N,Net-(U9-LITE_PAD)*%
X105550000Y-114050000D03*
%TO.N,Net-(U9-ROSC_SEL)*%
X104100000Y-114950000D03*
%TO.N,Net-(U9-INV_CLKO)*%
X106000000Y-114850000D03*
D23*
%TO.N,/Power/SW1*%
X154200000Y-93900000D03*
X153500000Y-91800000D03*
X154900000Y-93200000D03*
X152800000Y-91800000D03*
X152800000Y-92500000D03*
X154900000Y-92500000D03*
X154900000Y-94600000D03*
X154200000Y-95300000D03*
X152800000Y-93900000D03*
X153500000Y-95300000D03*
X154200000Y-92500000D03*
X148700000Y-89800000D03*
X154900000Y-95300000D03*
X148700000Y-88250000D03*
X152800000Y-96700000D03*
X154200000Y-93200000D03*
X153500000Y-94600000D03*
X153500000Y-93200000D03*
X150500000Y-88600000D03*
X153500000Y-92500000D03*
X153500000Y-96000000D03*
X154900000Y-96700000D03*
X150200000Y-89200000D03*
X148700000Y-89000000D03*
X153500000Y-93900000D03*
X154200000Y-94600000D03*
X148700000Y-90600000D03*
X154200000Y-96700000D03*
X152075000Y-88425000D03*
X154200000Y-91800000D03*
X152800000Y-95300000D03*
X151275000Y-88425000D03*
X153500000Y-96700000D03*
X154900000Y-96000000D03*
X154200000Y-96000000D03*
X154900000Y-93900000D03*
X152800000Y-93200000D03*
X149800000Y-88600000D03*
X152800000Y-96000000D03*
X152800000Y-94600000D03*
X154900000Y-91800000D03*
D22*
%TO.N,Net-(U1-AVIN)*%
X138425000Y-85825000D03*
X138900000Y-82900000D03*
D23*
%TO.N,/Power/SW2*%
X127400000Y-94600000D03*
X129000000Y-93200000D03*
X125700000Y-88400000D03*
X124300000Y-89700000D03*
X129000000Y-95400000D03*
X126400000Y-88400000D03*
X128200000Y-91700000D03*
X128200000Y-92500000D03*
X129000000Y-94600000D03*
X128200000Y-93200000D03*
X129750000Y-95400000D03*
X129000000Y-91700000D03*
X124300000Y-90500000D03*
X129000000Y-93900000D03*
X127400000Y-96200000D03*
X129750000Y-91700000D03*
X129750000Y-90900000D03*
X129750000Y-92500000D03*
X129000000Y-90900000D03*
X129750000Y-93200000D03*
X129750000Y-93900000D03*
X127350000Y-88975000D03*
X127400000Y-91700000D03*
X124300000Y-88900000D03*
X128200000Y-94600000D03*
X128100000Y-88975000D03*
X124300000Y-88200000D03*
X129750000Y-94600000D03*
X129000000Y-96200000D03*
X127400000Y-95400000D03*
X128200000Y-90900000D03*
X128200000Y-93900000D03*
X129000000Y-92500000D03*
X127400000Y-92500000D03*
X127400000Y-93200000D03*
X128200000Y-95400000D03*
X128200000Y-96200000D03*
X126000000Y-89000000D03*
X129750000Y-96200000D03*
X127400000Y-90900000D03*
X127400000Y-93900000D03*
D27*
%TO.N,Net-(U10-VDD3_0)*%
X144940000Y-107570000D03*
X116770000Y-107580000D03*
%TO.N,Net-(U10-VDD2_0)*%
X143925000Y-108280000D03*
X117750000Y-108280000D03*
%TO.N,Net-(U10-VDD1_0)*%
X117850000Y-109325000D03*
X143925000Y-109220000D03*
%TO.N,Net-(U10-VDD3_1)*%
X153010000Y-107540000D03*
%TO.N,Net-(U10-VDD2_1)*%
X154050000Y-108255000D03*
%TO.N,Net-(U10-VDD1_1)*%
X154150000Y-109300000D03*
D22*
%TO.N,/ASIC/0V8_1*%
X106050000Y-115800000D03*
%TO.N,/ASIC/1V2_1*%
X107550000Y-115900000D03*
%TO.N,/ASIC/1V2_2*%
X153797182Y-115702818D03*
%TO.N,/ASIC/0V8_2*%
X154800000Y-115550000D03*
%TO.N,Net-(J5-Pin_3)*%
X116150000Y-63100000D03*
%TO.N,Net-(J5-Pin_4)*%
X114900000Y-63050000D03*
%TO.N,Net-(J5-Pin_5)*%
X113650000Y-63050000D03*
%TO.N,Net-(J5-Pin_6)*%
X112360000Y-63060000D03*
%TO.N,Net-(U1-MSEL1)*%
X140900000Y-84200000D03*
X154150000Y-79150000D03*
%TO.N,Net-(U1-MSEL2)*%
X154150000Y-76300000D03*
X141300000Y-86050000D03*
%TO.N,Net-(U1-VSEL)*%
X140750000Y-85500000D03*
X154150000Y-77700000D03*
%TO.N,Net-(U10-LITE_PAD)*%
X141400000Y-114450000D03*
%TO.N,Net-(U1-ADRSEL)*%
X155150000Y-80550000D03*
X141350000Y-84950000D03*
%TO.N,Net-(U10-NRSTO)*%
X157800000Y-111800000D03*
%TO.N,Net-(U10-ROSC_SEL)*%
X141650000Y-113750000D03*
%TO.N,Net-(U10-INV_CLKO)*%
X141350000Y-115150000D03*
%TO.N,Net-(U10-BI)*%
X136200000Y-113350000D03*
%TO.N,Net-(U10-RI)*%
X157700000Y-115900000D03*
%TO.N,/Power/SCL_VR*%
X149196443Y-85250000D03*
D23*
X154200000Y-74400000D03*
D22*
X155400000Y-47600000D03*
D23*
X152600000Y-73200000D03*
X161700000Y-74850000D03*
D22*
%TO.N,/Power/ALRT_VR*%
X149246091Y-86996091D03*
D23*
X155100000Y-73100000D03*
X161700000Y-69800000D03*
D22*
X133200000Y-68050000D03*
D23*
%TO.N,/Power/SDA_VR*%
X161700000Y-72325000D03*
D22*
X155400000Y-48800000D03*
X148677803Y-84779880D03*
D23*
X153300000Y-72400000D03*
D22*
%TO.N,GND*%
X133200000Y-120900000D03*
D23*
X149500000Y-112250000D03*
D22*
X109300000Y-144950000D03*
D23*
X114500000Y-112250000D03*
X147500000Y-112250000D03*
D22*
X141375000Y-92625000D03*
X137800000Y-97575000D03*
X131800000Y-60100000D03*
X114562500Y-96400000D03*
X105875000Y-46150000D03*
X144100000Y-96975000D03*
D23*
X112550000Y-119000000D03*
D22*
X122050000Y-96400000D03*
D23*
X114500000Y-111250000D03*
D22*
X157675000Y-62400000D03*
D25*
X140100000Y-44400000D03*
D22*
X121450000Y-97600000D03*
D23*
X148600000Y-117050000D03*
D22*
X117650000Y-93000000D03*
D23*
X149600000Y-118050000D03*
D22*
X116850000Y-96400000D03*
D23*
X112500000Y-112250000D03*
D22*
X117940000Y-114450000D03*
X142400000Y-97575000D03*
X131800000Y-58100000D03*
D23*
X147600000Y-117050000D03*
D22*
X155450000Y-58750000D03*
X130800000Y-58100000D03*
X154700000Y-117900000D03*
D23*
X110500000Y-113250000D03*
D22*
X132800000Y-58100000D03*
X132800000Y-57100000D03*
D23*
X146500000Y-113250000D03*
X148500000Y-115250000D03*
D22*
X115525000Y-93025000D03*
X141800000Y-97575000D03*
D26*
X115130000Y-53850000D03*
D22*
X137200000Y-96375000D03*
D23*
X110500000Y-114250000D03*
X114500000Y-115250000D03*
D22*
X146980000Y-96975000D03*
X130800000Y-56100000D03*
D25*
X134550000Y-48200000D03*
D23*
X110550000Y-118000000D03*
D22*
X156550000Y-63300000D03*
D23*
X111550000Y-118000000D03*
D22*
X119200000Y-97600000D03*
D26*
X112330000Y-56650000D03*
D22*
X135980000Y-129890000D03*
X154350000Y-58750000D03*
X117450000Y-97000000D03*
X112862500Y-97000000D03*
X117650000Y-92450000D03*
D23*
X114550000Y-119000000D03*
X150500000Y-112250000D03*
D22*
X116850000Y-97000000D03*
X142400000Y-96375000D03*
X142400000Y-96975000D03*
D23*
X149500000Y-114250000D03*
D22*
X132800000Y-60100000D03*
D23*
X115500000Y-111250000D03*
D22*
X133800000Y-59100000D03*
X119200000Y-97000000D03*
X112800000Y-95300000D03*
D23*
X115500000Y-112250000D03*
D22*
X140100000Y-96975000D03*
X149950000Y-63300000D03*
X105080000Y-133380000D03*
X119800000Y-97600000D03*
D23*
X146600000Y-119050000D03*
D22*
X136000000Y-93900000D03*
X133800000Y-56100000D03*
X135500000Y-97000000D03*
D23*
X112500000Y-114250000D03*
D22*
X136000000Y-93300000D03*
X112200000Y-94100000D03*
D23*
X151500000Y-111250000D03*
D22*
X153250000Y-63300000D03*
X146380000Y-96975000D03*
D23*
X151600000Y-118050000D03*
D22*
X121450000Y-96400000D03*
X153250000Y-59650000D03*
X124450000Y-119950000D03*
X109900000Y-97000000D03*
X112200000Y-95300000D03*
D23*
X150600000Y-117050000D03*
D22*
X106900000Y-130700000D03*
X119800000Y-96400000D03*
X132800000Y-56100000D03*
X153250000Y-62400000D03*
X157675000Y-60550000D03*
X141902545Y-115690356D03*
X112800000Y-94100000D03*
X156550000Y-61450000D03*
X124450000Y-114300000D03*
X154350000Y-63300000D03*
X116850000Y-97600000D03*
X137200000Y-97575000D03*
X114562500Y-97000000D03*
X160900000Y-91700000D03*
X112800000Y-93500000D03*
X132800000Y-61100000D03*
D23*
X146500000Y-112250000D03*
D22*
X140475000Y-92675000D03*
D23*
X110500000Y-115250000D03*
D26*
X115130000Y-56650000D03*
D22*
X117450000Y-96400000D03*
X124450000Y-119300000D03*
X133800000Y-60100000D03*
D27*
X143925000Y-110175000D03*
D22*
X157675000Y-58750000D03*
X131800000Y-62100000D03*
X135500000Y-96400000D03*
D23*
X115500000Y-115250000D03*
D26*
X113730000Y-55250000D03*
D22*
X130800000Y-57100000D03*
X138950000Y-81100000D03*
X112200000Y-93500000D03*
X115162500Y-97000000D03*
D23*
X111500000Y-112250000D03*
D22*
X117050000Y-93000000D03*
X139740000Y-113760000D03*
D26*
X113730000Y-53850000D03*
D22*
X132080000Y-140500000D03*
X110500000Y-97600000D03*
D23*
X112500000Y-113250000D03*
D22*
X136000000Y-95100000D03*
X147700000Y-80500000D03*
D23*
X150600000Y-118050000D03*
D22*
X157675000Y-61450000D03*
D23*
X151600000Y-117050000D03*
D22*
X133800000Y-58100000D03*
D23*
X151600000Y-119050000D03*
D22*
X140100000Y-97575000D03*
X153250000Y-61450000D03*
D23*
X146500000Y-114250000D03*
X115500000Y-113250000D03*
D22*
X130800000Y-59100000D03*
X130800000Y-61100000D03*
X136000000Y-94500000D03*
D23*
X147500000Y-115250000D03*
D22*
X116125000Y-93025000D03*
D23*
X115550000Y-118000000D03*
D26*
X113400000Y-40800000D03*
D23*
X148500000Y-114250000D03*
D22*
X157675000Y-63300000D03*
D23*
X147600000Y-119050000D03*
D22*
X112862500Y-96400000D03*
D23*
X113550000Y-117000000D03*
D22*
X151050000Y-62400000D03*
D23*
X150500000Y-111250000D03*
X147500000Y-113250000D03*
D24*
X106000000Y-67400000D03*
D23*
X110550000Y-119000000D03*
D22*
X153250000Y-58750000D03*
X119800000Y-97000000D03*
D23*
X115500000Y-114250000D03*
X150500000Y-114250000D03*
D22*
X149950000Y-62400000D03*
D23*
X110500000Y-112250000D03*
D22*
X135500000Y-97600000D03*
X117050000Y-92450000D03*
X114760000Y-145740000D03*
X132800000Y-59100000D03*
X153803248Y-114396752D03*
D23*
X148500000Y-113250000D03*
D22*
X139500000Y-96975000D03*
D23*
X113500000Y-114250000D03*
D25*
X132975000Y-48175000D03*
X137400000Y-44400000D03*
D22*
X141975000Y-92625000D03*
X115750000Y-87400000D03*
X136600000Y-94500000D03*
X141975000Y-93175000D03*
D26*
X113730000Y-56650000D03*
D22*
X144100000Y-97575000D03*
D23*
X111500000Y-113250000D03*
D22*
X116125000Y-92475000D03*
D23*
X114500000Y-113250000D03*
D22*
X110500000Y-97000000D03*
X144700000Y-96975000D03*
X155450000Y-61450000D03*
D23*
X149500000Y-113250000D03*
X111500000Y-111250000D03*
D22*
X115525000Y-92475000D03*
D23*
X113550000Y-118000000D03*
D27*
X117900000Y-110070000D03*
D22*
X131800000Y-61100000D03*
X104350000Y-101750000D03*
D23*
X149500000Y-115250000D03*
D22*
X137800000Y-96375000D03*
X141800000Y-96975000D03*
X103790000Y-113400000D03*
X151050000Y-63300000D03*
X140100000Y-96375000D03*
X107850000Y-114750000D03*
X126900000Y-145690000D03*
X156550000Y-59650000D03*
X110500000Y-96400000D03*
X131800000Y-56100000D03*
X156550000Y-62400000D03*
D23*
X149600000Y-119050000D03*
D22*
X140475000Y-93225000D03*
X155450000Y-62400000D03*
D27*
X108125000Y-110075000D03*
D23*
X111550000Y-119000000D03*
D22*
X122050000Y-97600000D03*
D23*
X115550000Y-119000000D03*
X150500000Y-115250000D03*
D22*
X144700000Y-96375000D03*
X130800000Y-60100000D03*
D23*
X113500000Y-112250000D03*
X148600000Y-118050000D03*
D25*
X140975000Y-46375000D03*
D22*
X155450000Y-60550000D03*
D23*
X110500000Y-111250000D03*
D22*
X136600000Y-95100000D03*
D23*
X146600000Y-117050000D03*
D22*
X139875000Y-92675000D03*
X124450000Y-114950000D03*
X154350000Y-59650000D03*
X136600000Y-93300000D03*
D23*
X115550000Y-117000000D03*
D26*
X115130000Y-55250000D03*
D23*
X114500000Y-114250000D03*
X112500000Y-111250000D03*
X113500000Y-111250000D03*
D22*
X146980000Y-97575000D03*
X134900000Y-96400000D03*
D23*
X148500000Y-111250000D03*
X149600000Y-117050000D03*
D22*
X141375000Y-93175000D03*
X129500000Y-128840000D03*
D23*
X113550000Y-119000000D03*
X147500000Y-111250000D03*
D22*
X112800000Y-94700000D03*
X133050000Y-115750000D03*
D23*
X151500000Y-113250000D03*
D22*
X156550000Y-58750000D03*
D23*
X147500000Y-114250000D03*
X112550000Y-117000000D03*
D26*
X112330000Y-53850000D03*
D23*
X148500000Y-112250000D03*
X151500000Y-112250000D03*
D22*
X134900000Y-97000000D03*
X115162500Y-97600000D03*
X112262500Y-97000000D03*
D23*
X112550000Y-118000000D03*
D22*
X155450000Y-63300000D03*
D23*
X148600000Y-119050000D03*
D22*
X154350000Y-60550000D03*
X144700000Y-97575000D03*
X112262500Y-97600000D03*
X139200000Y-83700000D03*
X132800000Y-62100000D03*
X152150000Y-62400000D03*
X154350000Y-61450000D03*
X112200000Y-94700000D03*
X114562500Y-97600000D03*
X131800000Y-57100000D03*
X133800000Y-62100000D03*
X121450000Y-97000000D03*
X153250000Y-60550000D03*
X133800000Y-57100000D03*
X144100000Y-96375000D03*
X103450000Y-121650000D03*
X130800000Y-62100000D03*
X152825000Y-83425000D03*
X143150000Y-135425000D03*
X155450000Y-59650000D03*
X109900000Y-96400000D03*
D25*
X134600000Y-44375000D03*
D23*
X151500000Y-114250000D03*
D22*
X146380000Y-96375000D03*
X154350000Y-62400000D03*
X133250000Y-113850000D03*
X136600000Y-93900000D03*
D23*
X146500000Y-115250000D03*
D22*
X101800000Y-129200000D03*
X156550000Y-60550000D03*
D23*
X146500000Y-111250000D03*
D27*
X154050000Y-110055000D03*
D23*
X114550000Y-118000000D03*
X150500000Y-113250000D03*
D22*
X137800000Y-96975000D03*
D23*
X110550000Y-117000000D03*
X112500000Y-115250000D03*
X111550000Y-117000000D03*
X113500000Y-113250000D03*
D22*
X139875000Y-93225000D03*
X122050000Y-97000000D03*
X146980000Y-96375000D03*
X119200000Y-96400000D03*
X161700000Y-77400000D03*
D23*
X111500000Y-114250000D03*
D22*
X109900000Y-97600000D03*
X112262500Y-96400000D03*
X146380000Y-97575000D03*
D23*
X113500000Y-115250000D03*
D22*
X152150000Y-63300000D03*
X141800000Y-96375000D03*
X139500000Y-96375000D03*
D23*
X147600000Y-118050000D03*
D26*
X112330000Y-55250000D03*
D22*
X134900000Y-97600000D03*
X157675000Y-59650000D03*
D23*
X151500000Y-115250000D03*
X132425000Y-134275000D03*
X149500000Y-111250000D03*
D22*
X137200000Y-96975000D03*
D25*
X134775000Y-46650000D03*
D22*
X117450000Y-97600000D03*
X108000000Y-121500000D03*
X131800000Y-59100000D03*
X127250000Y-82800000D03*
D23*
X150600000Y-119050000D03*
X114550000Y-117000000D03*
D22*
X112862500Y-97600000D03*
D23*
X146600000Y-118050000D03*
D22*
X115162500Y-96400000D03*
X139500000Y-97575000D03*
X133800000Y-61100000D03*
D23*
X111500000Y-115250000D03*
D22*
%TO.N,/Power/BP1v5_2*%
X126327817Y-82850000D03*
X118300000Y-81200000D03*
%TO.N,Net-(U10-BO)*%
X157650000Y-120050000D03*
%TO.N,Net-(U10-CLKO)*%
X157750000Y-118000000D03*
%TO.N,Net-(U10-CO)*%
X157800000Y-113850000D03*
%TO.N,/ESP32/EN*%
X107925000Y-141875000D03*
D23*
X110700000Y-49984314D03*
D22*
X110500000Y-143250000D03*
D26*
X114670000Y-44200000D03*
D23*
%TO.N,/ESP32/P_TX*%
X109820000Y-65500000D03*
D26*
X113400000Y-44250000D03*
D22*
%TO.N,/ESP32/IO0*%
X122800000Y-143350000D03*
D26*
X112150000Y-40800000D03*
D22*
X111400000Y-61450000D03*
%TO.N,/ESP32/P_RX*%
X113300000Y-45800000D03*
X109600000Y-63200000D03*
%TO.N,/ASIC/RX_3V3*%
X118710000Y-62090000D03*
X106000000Y-127100000D03*
%TO.N,/Power/AGND2*%
X122200000Y-81650000D03*
X117650000Y-83100000D03*
X124750000Y-87000000D03*
X124100000Y-83100000D03*
X117500000Y-85700000D03*
%TD*%
D28*
%TO.N,/Vcore*%
X100900000Y-75300000D02*
X100900000Y-94900000D01*
X100900000Y-94900000D02*
X108100000Y-102100000D01*
X160700000Y-102700000D02*
X155050000Y-102700000D01*
X108575000Y-67625000D02*
X100900000Y-75300000D01*
D29*
X155050000Y-102700000D02*
X155000000Y-102750000D01*
D28*
%TO.N,/5V*%
X107200000Y-129700000D02*
X108050000Y-130550000D01*
X106650000Y-120200000D02*
X107200000Y-120750000D01*
X108050000Y-131950000D02*
X115400000Y-139300000D01*
X115400000Y-139300000D02*
X127450000Y-139300000D01*
X108050000Y-130550000D02*
X108050000Y-131950000D01*
X107200000Y-120750000D02*
X107200000Y-129700000D01*
D29*
%TO.N,/ESP32/SDA*%
X113950000Y-135250000D02*
X110000000Y-131300000D01*
X135650000Y-135250000D02*
X113950000Y-135250000D01*
X110000000Y-131300000D02*
X109500000Y-131300000D01*
%TO.N,/ESP32/SCL*%
X135051000Y-135651000D02*
X114116100Y-135651000D01*
X113700000Y-135600000D02*
X110400000Y-132300000D01*
X114116100Y-135651000D02*
X113783900Y-135651000D01*
X135600000Y-136200000D02*
X135051000Y-135651000D01*
X110400000Y-132300000D02*
X109500000Y-132300000D01*
X113732900Y-135600000D02*
X113700000Y-135600000D01*
X113783900Y-135651000D02*
X113732900Y-135600000D01*
%TD*%
%TA.AperFunction,Conductor*%
%TO.N,GND*%
G36*
X146943039Y-84594685D02*
G01*
X146988794Y-84647489D01*
X147000000Y-84699000D01*
X147000000Y-90169566D01*
X149261712Y-92332943D01*
X149296551Y-92393506D01*
X149300000Y-92422550D01*
X149300000Y-97052416D01*
X149280315Y-97119455D01*
X149268170Y-97135366D01*
X148436942Y-98058953D01*
X148377465Y-98095613D01*
X148344775Y-98100000D01*
X134551362Y-98100000D01*
X134484323Y-98080315D01*
X134463681Y-98063681D01*
X133486319Y-97086319D01*
X133452834Y-97024996D01*
X133450000Y-96998638D01*
X133450000Y-91920300D01*
X133469685Y-91853261D01*
X133483345Y-91835698D01*
X134039895Y-91239392D01*
X134100028Y-91203814D01*
X134130546Y-91200000D01*
X142500000Y-91200000D01*
X143700000Y-90000000D01*
X143700000Y-84699000D01*
X143719685Y-84631961D01*
X143772489Y-84586206D01*
X143824000Y-84575000D01*
X146876000Y-84575000D01*
X146943039Y-84594685D01*
G37*
%TD.AperFunction*%
%TD*%
%TA.AperFunction,Conductor*%
%TO.N,/Power/SW1*%
G36*
X152365677Y-87869685D02*
G01*
X152386319Y-87886319D01*
X153350000Y-88850000D01*
X153368040Y-88857504D01*
X153417364Y-88894681D01*
X153609811Y-89136002D01*
X153609812Y-89136003D01*
X153863997Y-89390188D01*
X154145044Y-89614315D01*
X154449418Y-89805566D01*
X154773292Y-89961536D01*
X155028119Y-90050703D01*
X155112580Y-90080258D01*
X155112592Y-90080262D01*
X155463052Y-90160252D01*
X155820260Y-90200499D01*
X155820261Y-90200500D01*
X155820264Y-90200500D01*
X156179739Y-90200500D01*
X156179739Y-90200499D01*
X156536948Y-90160252D01*
X156887408Y-90080262D01*
X157226708Y-89961536D01*
X157320013Y-89916602D01*
X157343645Y-89912711D01*
X157366168Y-89904559D01*
X157377492Y-89907137D01*
X157388951Y-89905251D01*
X157410936Y-89914754D01*
X157434293Y-89920073D01*
X157448697Y-89931076D01*
X157453086Y-89932973D01*
X157462338Y-89941495D01*
X157614530Y-90096673D01*
X157647417Y-90158317D01*
X157650000Y-90183497D01*
X157650000Y-97208209D01*
X157630315Y-97275248D01*
X157613191Y-97296378D01*
X156786233Y-98114169D01*
X156724724Y-98147311D01*
X156699042Y-98150000D01*
X150514561Y-98150000D01*
X150447522Y-98130315D01*
X150412976Y-98097109D01*
X149772415Y-97182021D01*
X149750097Y-97115812D01*
X149750000Y-97110912D01*
X149750000Y-92223195D01*
X147413687Y-90008253D01*
X147378580Y-89947845D01*
X147375000Y-89918266D01*
X147375000Y-87974000D01*
X147394685Y-87906961D01*
X147447489Y-87861206D01*
X147499000Y-87850000D01*
X152298638Y-87850000D01*
X152365677Y-87869685D01*
G37*
%TD.AperFunction*%
%TD*%
%TA.AperFunction,Conductor*%
%TO.N,/Power/SW2*%
G36*
X128865405Y-87769685D02*
G01*
X128886373Y-87786646D01*
X132864009Y-91794174D01*
X132897264Y-91855621D01*
X132900000Y-91881525D01*
X132900000Y-97028982D01*
X132880315Y-97096021D01*
X132866296Y-97113968D01*
X132022037Y-98010986D01*
X131961757Y-98046312D01*
X131931741Y-98050000D01*
X125453450Y-98050000D01*
X125386411Y-98030315D01*
X125363300Y-98011141D01*
X124583850Y-97185841D01*
X124552130Y-97123587D01*
X124550000Y-97100700D01*
X124550000Y-91625000D01*
X123134845Y-90161046D01*
X123102404Y-90099164D01*
X123100000Y-90074863D01*
X123100000Y-87874000D01*
X123119685Y-87806961D01*
X123172489Y-87761206D01*
X123224000Y-87750000D01*
X128798366Y-87750000D01*
X128865405Y-87769685D01*
G37*
%TD.AperFunction*%
%TD*%
%TA.AperFunction,Conductor*%
%TO.N,GND*%
G36*
X122593039Y-84594685D02*
G01*
X122638794Y-84647489D01*
X122650000Y-84699000D01*
X122650000Y-90239998D01*
X124116463Y-91804225D01*
X124147953Y-91866596D01*
X124150000Y-91889034D01*
X124150000Y-97150824D01*
X124130315Y-97217863D01*
X124116297Y-97235809D01*
X123386720Y-98010985D01*
X123326439Y-98046312D01*
X123296423Y-98050000D01*
X108995655Y-98050000D01*
X108928616Y-98030315D01*
X108915245Y-98020394D01*
X108318590Y-97512132D01*
X108280322Y-97453675D01*
X108275000Y-97417738D01*
X108275000Y-92700548D01*
X108294685Y-92633509D01*
X108310335Y-92613861D01*
X108788451Y-92124878D01*
X108849391Y-92090710D01*
X108877274Y-92087572D01*
X117800000Y-92100000D01*
X117807385Y-92090710D01*
X118063830Y-91768084D01*
X119350000Y-90150000D01*
X119350000Y-84699000D01*
X119369685Y-84631961D01*
X119422489Y-84586206D01*
X119474000Y-84575000D01*
X122526000Y-84575000D01*
X122593039Y-84594685D01*
G37*
%TD.AperFunction*%
%TD*%
%TA.AperFunction,Conductor*%
%TO.N,/Vcore*%
G36*
X156517041Y-99669685D02*
G01*
X156536013Y-99684679D01*
X157137013Y-100263420D01*
X157171647Y-100324099D01*
X157175000Y-100352738D01*
X157175000Y-105547855D01*
X157155315Y-105614894D01*
X157137733Y-105636474D01*
X156036150Y-106714619D01*
X155974471Y-106747443D01*
X155949417Y-106750000D01*
X153399999Y-106750000D01*
X153046819Y-107103181D01*
X152985496Y-107136666D01*
X152959138Y-107139500D01*
X152957273Y-107139500D01*
X152855413Y-107166793D01*
X152855410Y-107166794D01*
X152764085Y-107219521D01*
X152689521Y-107294085D01*
X152636794Y-107385410D01*
X152636793Y-107385413D01*
X152609500Y-107487273D01*
X152609500Y-107489138D01*
X152609055Y-107490652D01*
X152608439Y-107495333D01*
X152607709Y-107495236D01*
X152589815Y-107556177D01*
X152573181Y-107576819D01*
X152150000Y-107999999D01*
X152150000Y-109851000D01*
X152130315Y-109918039D01*
X152077511Y-109963794D01*
X152026000Y-109975000D01*
X145974000Y-109975000D01*
X145906961Y-109955315D01*
X145861206Y-109902511D01*
X145850000Y-109851000D01*
X145850000Y-108000000D01*
X145354195Y-107504195D01*
X145322101Y-107448606D01*
X145313208Y-107415414D01*
X145266252Y-107334085D01*
X145260480Y-107324087D01*
X145185913Y-107249520D01*
X145094587Y-107196793D01*
X145094585Y-107196792D01*
X145094584Y-107196792D01*
X145061389Y-107187897D01*
X145005804Y-107155804D01*
X144900000Y-107050000D01*
X142850000Y-107050000D01*
X142849999Y-107050000D01*
X140986319Y-108913681D01*
X140924996Y-108947166D01*
X140898638Y-108950000D01*
X120801362Y-108950000D01*
X120734323Y-108930315D01*
X120713681Y-108913681D01*
X118850000Y-107050000D01*
X117100000Y-107050000D01*
X117046819Y-107103181D01*
X116989893Y-107160106D01*
X116928569Y-107193590D01*
X116870121Y-107192199D01*
X116822727Y-107179500D01*
X116717273Y-107179500D01*
X116615413Y-107206793D01*
X116615410Y-107206794D01*
X116524085Y-107259521D01*
X116449521Y-107334085D01*
X116396794Y-107425410D01*
X116396793Y-107425413D01*
X116369500Y-107527273D01*
X116369500Y-107632727D01*
X116380960Y-107675496D01*
X116382199Y-107680120D01*
X116380536Y-107749970D01*
X116350105Y-107799894D01*
X116150000Y-107999999D01*
X116150000Y-109876000D01*
X116130315Y-109943039D01*
X116077511Y-109988794D01*
X116026000Y-110000000D01*
X109974000Y-110000000D01*
X109906961Y-109980315D01*
X109861206Y-109927511D01*
X109850000Y-109876000D01*
X109850000Y-108000000D01*
X109586819Y-107736819D01*
X109553334Y-107675496D01*
X109550500Y-107649138D01*
X109550500Y-107577275D01*
X109550500Y-107577273D01*
X109523207Y-107475413D01*
X109470480Y-107384087D01*
X109395913Y-107309520D01*
X109309312Y-107259521D01*
X109304589Y-107256794D01*
X109304588Y-107256793D01*
X109304587Y-107256793D01*
X109202727Y-107229500D01*
X109130862Y-107229500D01*
X109063823Y-107209815D01*
X109043181Y-107193181D01*
X108150000Y-106300000D01*
X107627915Y-106300000D01*
X107560876Y-106280315D01*
X107538388Y-106261796D01*
X107034473Y-105735971D01*
X107002301Y-105673950D01*
X107000000Y-105650175D01*
X107000000Y-102049599D01*
X107019685Y-101982560D01*
X107034204Y-101964085D01*
X107963350Y-100988483D01*
X108023838Y-100953512D01*
X108053143Y-100950000D01*
X149100000Y-100950000D01*
X150363681Y-99686319D01*
X150425004Y-99652834D01*
X150451362Y-99650000D01*
X156450002Y-99650000D01*
X156517041Y-99669685D01*
G37*
%TD.AperFunction*%
%TD*%
%TA.AperFunction,Conductor*%
%TO.N,/Power/AGND2*%
G36*
X123615677Y-81369685D02*
G01*
X123636319Y-81386319D01*
X124563681Y-82313681D01*
X124597166Y-82375004D01*
X124600000Y-82401362D01*
X124600000Y-83398638D01*
X124580315Y-83465677D01*
X124563681Y-83486319D01*
X124036319Y-84013681D01*
X123974996Y-84047166D01*
X123948638Y-84050000D01*
X119299999Y-84050000D01*
X118500000Y-84849999D01*
X118500000Y-85976000D01*
X118480315Y-86043039D01*
X118427511Y-86088794D01*
X118376000Y-86100000D01*
X117451362Y-86100000D01*
X117384323Y-86080315D01*
X117363681Y-86063681D01*
X116336319Y-85036319D01*
X116302834Y-84974996D01*
X116300000Y-84948638D01*
X116300000Y-82201362D01*
X116319685Y-82134323D01*
X116336319Y-82113681D01*
X116713681Y-81736319D01*
X116775004Y-81702834D01*
X116801362Y-81700000D01*
X121150000Y-81700000D01*
X121463681Y-81386319D01*
X121525004Y-81352834D01*
X121551362Y-81350000D01*
X123548638Y-81350000D01*
X123615677Y-81369685D01*
G37*
%TD.AperFunction*%
%TD*%
%TA.AperFunction,Conductor*%
%TO.N,/12V*%
G36*
X155815456Y-52319620D02*
G01*
X155836533Y-52336533D01*
X156563681Y-53063681D01*
X156597166Y-53125004D01*
X156600000Y-53151362D01*
X156600000Y-56840843D01*
X156580315Y-56907882D01*
X156554021Y-56937221D01*
X155584121Y-57722378D01*
X155519629Y-57749260D01*
X155506100Y-57750000D01*
X149750000Y-57750000D01*
X137250000Y-80599997D01*
X137250000Y-80600000D01*
X137250000Y-85300000D01*
X138800000Y-86850000D01*
X139800000Y-87850000D01*
X142726000Y-87850000D01*
X142793039Y-87869685D01*
X142838794Y-87922489D01*
X142850000Y-87974000D01*
X142850000Y-90098638D01*
X142830315Y-90165677D01*
X142813681Y-90186319D01*
X142336319Y-90663681D01*
X142274996Y-90697166D01*
X142248638Y-90700000D01*
X132851362Y-90700000D01*
X132784323Y-90680315D01*
X132763681Y-90663681D01*
X130086319Y-87986319D01*
X130052834Y-87924996D01*
X130050000Y-87898638D01*
X130050000Y-81700000D01*
X128950000Y-80650000D01*
X116450000Y-80650000D01*
X116449999Y-80650000D01*
X114749999Y-82350000D01*
X114769731Y-84323170D01*
X114753124Y-84386410D01*
X114730202Y-84426111D01*
X114730201Y-84426112D01*
X114714850Y-84483402D01*
X114699500Y-84540691D01*
X114699500Y-84659309D01*
X114724341Y-84752015D01*
X114730202Y-84773889D01*
X114758733Y-84823306D01*
X114775340Y-84884066D01*
X114795000Y-86850000D01*
X114800000Y-87350000D01*
X115300000Y-87850000D01*
X115688825Y-87850000D01*
X115690691Y-87850500D01*
X115809309Y-87850500D01*
X115811175Y-87850000D01*
X116621994Y-87850000D01*
X116683993Y-87866612D01*
X116776114Y-87919799D01*
X116890691Y-87950500D01*
X116890694Y-87950500D01*
X117009306Y-87950500D01*
X117009309Y-87950500D01*
X117123886Y-87919799D01*
X117216006Y-87866612D01*
X117278006Y-87850000D01*
X118090402Y-87850000D01*
X118157441Y-87869685D01*
X118187230Y-87896538D01*
X118522828Y-88316035D01*
X118549336Y-88380681D01*
X118550000Y-88393497D01*
X118550000Y-90102855D01*
X118530315Y-90169894D01*
X118518679Y-90185236D01*
X118186995Y-90558381D01*
X118127744Y-90595409D01*
X118094316Y-90600000D01*
X109700047Y-90600000D01*
X109633008Y-90580315D01*
X109613974Y-90565261D01*
X108354230Y-89350507D01*
X108319637Y-89289804D01*
X108323354Y-89220034D01*
X108352622Y-89173568D01*
X108390188Y-89136003D01*
X108614315Y-88854956D01*
X108805566Y-88550582D01*
X108961536Y-88226708D01*
X109080262Y-87887408D01*
X109160252Y-87536948D01*
X109200500Y-87179736D01*
X109200500Y-86820264D01*
X109160252Y-86463052D01*
X109080262Y-86112592D01*
X108961536Y-85773292D01*
X108812834Y-85464511D01*
X108805567Y-85449420D01*
X108789523Y-85423886D01*
X108614315Y-85145044D01*
X108390188Y-84863997D01*
X108278206Y-84752015D01*
X108244721Y-84690692D01*
X108241888Y-84664564D01*
X108227328Y-76434386D01*
X108246894Y-76367316D01*
X108263546Y-76346592D01*
X112913665Y-71686414D01*
X112974952Y-71652862D01*
X113001441Y-71650000D01*
X125750000Y-71650000D01*
X125750001Y-71649999D01*
X129172308Y-67990691D01*
X132749500Y-67990691D01*
X132749500Y-68109309D01*
X132780201Y-68223886D01*
X132839511Y-68326613D01*
X132923387Y-68410489D01*
X133026114Y-68469799D01*
X133140691Y-68500500D01*
X133140694Y-68500500D01*
X133259306Y-68500500D01*
X133259309Y-68500500D01*
X133373886Y-68469799D01*
X133476613Y-68410489D01*
X133560489Y-68326613D01*
X133619799Y-68223886D01*
X133650500Y-68109309D01*
X133650500Y-67990691D01*
X133619799Y-67876114D01*
X133560489Y-67773387D01*
X133476613Y-67689511D01*
X133373886Y-67630201D01*
X133259309Y-67599500D01*
X133140691Y-67599500D01*
X133026114Y-67630201D01*
X133026112Y-67630201D01*
X133026112Y-67630202D01*
X132923387Y-67689511D01*
X132923384Y-67689513D01*
X132839513Y-67773384D01*
X132839511Y-67773387D01*
X132780201Y-67876114D01*
X132749500Y-67990691D01*
X129172308Y-67990691D01*
X129259122Y-67897865D01*
X138775574Y-57722378D01*
X143763454Y-52389075D01*
X143823622Y-52353559D01*
X143853500Y-52349777D01*
X155748335Y-52300215D01*
X155815456Y-52319620D01*
G37*
%TD.AperFunction*%
%TD*%
%TA.AperFunction,Conductor*%
%TO.N,/Power/AGND1*%
G36*
X151065318Y-77569581D02*
G01*
X151086666Y-77586666D01*
X152413681Y-78913681D01*
X152447166Y-78975004D01*
X152450000Y-79001362D01*
X152450000Y-82848638D01*
X152430315Y-82915677D01*
X152413681Y-82936319D01*
X151486319Y-83863681D01*
X151424996Y-83897166D01*
X151398638Y-83900000D01*
X148624040Y-83900000D01*
X148557001Y-83880315D01*
X148511246Y-83827511D01*
X148504267Y-83808100D01*
X148482299Y-83726114D01*
X148422989Y-83623387D01*
X148339113Y-83539511D01*
X148236386Y-83480201D01*
X148121809Y-83449500D01*
X148003191Y-83449500D01*
X147888614Y-83480201D01*
X147888612Y-83480201D01*
X147888612Y-83480202D01*
X147785887Y-83539511D01*
X147785884Y-83539513D01*
X147702013Y-83623384D01*
X147702011Y-83623387D01*
X147642701Y-83726114D01*
X147620733Y-83808095D01*
X147584370Y-83867754D01*
X147521523Y-83898283D01*
X147500960Y-83900000D01*
X143051362Y-83900000D01*
X143021921Y-83891355D01*
X142991935Y-83884832D01*
X142986919Y-83881077D01*
X142984323Y-83880315D01*
X142963681Y-83863681D01*
X142841588Y-83741588D01*
X142808103Y-83680265D01*
X142813087Y-83610573D01*
X142841588Y-83566226D01*
X142868303Y-83539511D01*
X142900500Y-83507314D01*
X142966392Y-83393186D01*
X143000500Y-83265892D01*
X143000500Y-83134108D01*
X142966392Y-83006814D01*
X142900500Y-82892686D01*
X142807314Y-82799500D01*
X142750250Y-82766554D01*
X142705455Y-82740691D01*
X144099500Y-82740691D01*
X144099500Y-82859309D01*
X144130201Y-82973886D01*
X144189511Y-83076613D01*
X144273387Y-83160489D01*
X144376114Y-83219799D01*
X144490691Y-83250500D01*
X144490694Y-83250500D01*
X144609306Y-83250500D01*
X144609309Y-83250500D01*
X144723886Y-83219799D01*
X144826613Y-83160489D01*
X144910489Y-83076613D01*
X144969799Y-82973886D01*
X145000500Y-82859309D01*
X145000500Y-82740691D01*
X144973039Y-82638205D01*
X145753457Y-82638205D01*
X145753457Y-82756823D01*
X145784158Y-82871400D01*
X145843468Y-82974127D01*
X145927344Y-83058003D01*
X146030071Y-83117313D01*
X146144648Y-83148014D01*
X146144651Y-83148014D01*
X146263263Y-83148014D01*
X146263266Y-83148014D01*
X146377843Y-83117313D01*
X146480570Y-83058003D01*
X146564446Y-82974127D01*
X146583417Y-82941267D01*
X146633984Y-82893053D01*
X146702591Y-82879829D01*
X146767455Y-82905797D01*
X146778485Y-82915587D01*
X146824122Y-82961224D01*
X146926849Y-83020534D01*
X147041426Y-83051235D01*
X147041429Y-83051235D01*
X147160041Y-83051235D01*
X147160044Y-83051235D01*
X147274621Y-83020534D01*
X147377348Y-82961224D01*
X147405351Y-82933220D01*
X147466670Y-82899737D01*
X147536362Y-82904721D01*
X147592296Y-82946591D01*
X147600416Y-82958901D01*
X147627149Y-83005201D01*
X147639511Y-83026613D01*
X147723387Y-83110489D01*
X147826114Y-83169799D01*
X147940691Y-83200500D01*
X147940694Y-83200500D01*
X148059306Y-83200500D01*
X148059309Y-83200500D01*
X148173886Y-83169799D01*
X148276613Y-83110489D01*
X148360489Y-83026613D01*
X148419799Y-82923886D01*
X148450500Y-82809309D01*
X148450500Y-82690691D01*
X148419799Y-82576114D01*
X148360489Y-82473387D01*
X148276613Y-82389511D01*
X148173886Y-82330201D01*
X148059309Y-82299500D01*
X147940691Y-82299500D01*
X147826114Y-82330201D01*
X147826112Y-82330201D01*
X147826112Y-82330202D01*
X147723387Y-82389511D01*
X147695384Y-82417514D01*
X147634060Y-82450998D01*
X147564369Y-82446012D01*
X147508436Y-82404140D01*
X147500318Y-82391832D01*
X147461228Y-82324128D01*
X147461225Y-82324125D01*
X147461224Y-82324122D01*
X147377348Y-82240246D01*
X147274621Y-82180936D01*
X147160044Y-82150235D01*
X147041426Y-82150235D01*
X146926849Y-82180936D01*
X146926847Y-82180936D01*
X146926847Y-82180937D01*
X146824122Y-82240246D01*
X146824119Y-82240248D01*
X146740248Y-82324119D01*
X146740242Y-82324128D01*
X146721272Y-82356983D01*
X146670704Y-82405197D01*
X146602097Y-82418418D01*
X146537233Y-82392448D01*
X146526206Y-82382661D01*
X146480572Y-82337027D01*
X146480570Y-82337025D01*
X146377843Y-82277715D01*
X146263266Y-82247014D01*
X146144648Y-82247014D01*
X146030071Y-82277715D01*
X146030069Y-82277715D01*
X146030069Y-82277716D01*
X145927344Y-82337025D01*
X145927341Y-82337027D01*
X145843470Y-82420898D01*
X145843468Y-82420901D01*
X145784158Y-82523628D01*
X145753457Y-82638205D01*
X144973039Y-82638205D01*
X144969799Y-82626114D01*
X144967682Y-82622448D01*
X144940930Y-82576112D01*
X144910489Y-82523387D01*
X144826613Y-82439511D01*
X144723886Y-82380201D01*
X144609309Y-82349500D01*
X144490691Y-82349500D01*
X144376114Y-82380201D01*
X144376112Y-82380201D01*
X144376112Y-82380202D01*
X144273387Y-82439511D01*
X144273384Y-82439513D01*
X144189513Y-82523384D01*
X144189511Y-82523387D01*
X144132318Y-82622448D01*
X144130201Y-82626114D01*
X144099500Y-82740691D01*
X142705455Y-82740691D01*
X142693187Y-82733608D01*
X142629539Y-82716554D01*
X142565892Y-82699500D01*
X142434108Y-82699500D01*
X142306812Y-82733608D01*
X142192686Y-82799500D01*
X142192683Y-82799502D01*
X142133774Y-82858412D01*
X142072451Y-82891897D01*
X142002759Y-82886913D01*
X141958412Y-82858412D01*
X141086319Y-81986319D01*
X141052834Y-81924996D01*
X141050000Y-81898638D01*
X141050000Y-80440691D01*
X147249500Y-80440691D01*
X147249500Y-80559309D01*
X147280201Y-80673886D01*
X147339511Y-80776613D01*
X147423387Y-80860489D01*
X147526114Y-80919799D01*
X147640691Y-80950500D01*
X147640694Y-80950500D01*
X147759306Y-80950500D01*
X147759309Y-80950500D01*
X147873886Y-80919799D01*
X147976613Y-80860489D01*
X148060489Y-80776613D01*
X148119799Y-80673886D01*
X148150500Y-80559309D01*
X148150500Y-80440691D01*
X148119799Y-80326114D01*
X148060489Y-80223387D01*
X147976613Y-80139511D01*
X147873886Y-80080201D01*
X147759309Y-80049500D01*
X147640691Y-80049500D01*
X147526114Y-80080201D01*
X147526112Y-80080201D01*
X147526112Y-80080202D01*
X147423387Y-80139511D01*
X147423384Y-80139513D01*
X147339513Y-80223384D01*
X147339511Y-80223387D01*
X147280201Y-80326114D01*
X147249500Y-80440691D01*
X141050000Y-80440691D01*
X141050000Y-80251362D01*
X141069685Y-80184323D01*
X141086319Y-80163681D01*
X142336319Y-78913681D01*
X143614029Y-77635970D01*
X143675350Y-77602487D01*
X143700867Y-77599656D01*
X150998148Y-77550350D01*
X151065318Y-77569581D01*
G37*
%TD.AperFunction*%
%TD*%
M02*
