%TF.GenerationSoftware,KiCad,Pcbnew,9.0.0*%
%TF.CreationDate,2025-05-19T16:40:13-04:00*%
%TF.ProjectId,BitaxeGT,42697461-7865-4475-942e-6b696361645f,v800*%
%TF.SameCoordinates,Original*%
%TF.FileFunction,Copper,L4,Inr*%
%TF.FilePolarity,Positive*%
%FSLAX46Y46*%
G04 Gerber Fmt 4.6, Leading zero omitted, Abs format (unit mm)*
G04 Created by KiCad (PCBNEW 9.0.0) date 2025-05-19 16:40:13*
%MOMM*%
%LPD*%
G01*
G04 APERTURE LIST*
%TA.AperFunction,ComponentPad*%
%ADD10C,0.800000*%
%TD*%
%TA.AperFunction,ComponentPad*%
%ADD11C,6.400000*%
%TD*%
%TA.AperFunction,ComponentPad*%
%ADD12C,1.574800*%
%TD*%
%TA.AperFunction,ComponentPad*%
%ADD13C,1.700000*%
%TD*%
%TA.AperFunction,ComponentPad*%
%ADD14O,1.700000X1.700000*%
%TD*%
%TA.AperFunction,ComponentPad*%
%ADD15C,6.000000*%
%TD*%
%TA.AperFunction,ComponentPad*%
%ADD16C,0.400000*%
%TD*%
%TA.AperFunction,ComponentPad*%
%ADD17C,0.499999*%
%TD*%
%TA.AperFunction,ComponentPad*%
%ADD18C,3.000000*%
%TD*%
%TA.AperFunction,ComponentPad*%
%ADD19C,2.000000*%
%TD*%
%TA.AperFunction,ComponentPad*%
%ADD20O,1.000000X1.800000*%
%TD*%
%TA.AperFunction,ComponentPad*%
%ADD21O,1.000000X2.100000*%
%TD*%
%TA.AperFunction,ViaPad*%
%ADD22C,0.500000*%
%TD*%
%TA.AperFunction,ViaPad*%
%ADD23C,0.600000*%
%TD*%
%TA.AperFunction,ViaPad*%
%ADD24C,0.800000*%
%TD*%
%TA.AperFunction,ViaPad*%
%ADD25C,0.700000*%
%TD*%
%TA.AperFunction,ViaPad*%
%ADD26C,1.000000*%
%TD*%
%TA.AperFunction,Conductor*%
%ADD27C,0.800000*%
%TD*%
%TA.AperFunction,Conductor*%
%ADD28C,0.200000*%
%TD*%
%TA.AperFunction,Conductor*%
%ADD29C,0.400000*%
%TD*%
G04 APERTURE END LIST*
D10*
%TO.N,GND*%
%TO.C,H4*%
X99600000Y-146500000D03*
X100302944Y-144802944D03*
X100302944Y-148197056D03*
X102000000Y-144100000D03*
D11*
X102000000Y-146500000D03*
D10*
X102000000Y-148900000D03*
X103697056Y-144802944D03*
X103697056Y-148197056D03*
X104400000Y-146500000D03*
%TD*%
D12*
%TO.N,GND*%
%TO.C,J7*%
X133180600Y-146338851D03*
%TO.N,/12V*%
X130640600Y-146338851D03*
%TO.N,/fan/FAN_TACH*%
X128100600Y-146338851D03*
%TO.N,/fan/FAN_PWM*%
X125560600Y-146338851D03*
%TD*%
D10*
%TO.N,GND*%
%TO.C,H2*%
X99600000Y-41500000D03*
X100302944Y-39802944D03*
X100302944Y-43197056D03*
X102000000Y-39100000D03*
D11*
X102000000Y-41500000D03*
D10*
X102000000Y-43900000D03*
X103697056Y-39802944D03*
X103697056Y-43197056D03*
X104400000Y-41500000D03*
%TD*%
%TO.N,GND*%
%TO.C,H3*%
X157600000Y-146500000D03*
X158302944Y-144802944D03*
X158302944Y-148197056D03*
X160000000Y-144100000D03*
D11*
X160000000Y-146500000D03*
D10*
X160000000Y-148900000D03*
X161697056Y-144802944D03*
X161697056Y-148197056D03*
X162400000Y-146500000D03*
%TD*%
D13*
%TO.N,GND*%
%TO.C,J3*%
X148200000Y-40550000D03*
D14*
%TO.N,/3V3*%
X147800000Y-43090000D03*
%TO.N,/ESP32/SCL*%
X148200000Y-45630000D03*
%TO.N,/ESP32/SDA*%
X147800000Y-48170000D03*
%TD*%
D10*
%TO.N,GND*%
%TO.C,H1*%
X157600000Y-41500000D03*
X158302944Y-39802944D03*
X158302944Y-43197056D03*
X160000000Y-39100000D03*
D11*
X160000000Y-41500000D03*
D10*
X160000000Y-43900000D03*
X161697056Y-39802944D03*
X161697056Y-43197056D03*
X162400000Y-41500000D03*
%TD*%
D15*
%TO.N,unconnected-(H6-Pad1)*%
%TO.C,H6*%
X106000000Y-87000000D03*
%TD*%
%TO.N,unconnected-(H5-Pad1)*%
%TO.C,H5*%
X156000000Y-87000000D03*
%TD*%
D16*
%TO.N,GND*%
%TO.C,U4*%
X122280000Y-88650000D03*
X122280000Y-87250000D03*
X122280000Y-85850000D03*
X121000000Y-89650000D03*
X121000000Y-88650000D03*
X121000000Y-87250000D03*
X121000000Y-85850000D03*
X121000000Y-84850000D03*
X119720000Y-88650000D03*
X119720000Y-87250000D03*
X119720000Y-85850000D03*
%TD*%
D17*
%TO.N,unconnected-(U2-PAD-Pad17)_1*%
%TO.C,U2*%
X106070001Y-124400000D03*
%TO.N,unconnected-(U2-PAD-Pad17)*%
X104569999Y-124400000D03*
%TD*%
D18*
%TO.N,/12V*%
%TO.C,J1*%
X150350000Y-60250000D03*
%TO.N,GND*%
X150350000Y-55250000D03*
D19*
%TO.N,unconnected-(J1-MNT1-Pad3)*%
X160350000Y-63250000D03*
%TO.N,unconnected-(J1-MNT2-Pad4)*%
X160350000Y-52250000D03*
%TD*%
D20*
%TO.N,GND*%
%TO.C,J4*%
X118030000Y-40885000D03*
D21*
X118030000Y-45065000D03*
D20*
X126670000Y-40885000D03*
D21*
X126670000Y-45065000D03*
%TD*%
D16*
%TO.N,GND*%
%TO.C,U1*%
X146630000Y-88650000D03*
X146630000Y-87250000D03*
X146630000Y-85850000D03*
X145350000Y-89650000D03*
X145350000Y-88650000D03*
X145350000Y-87250000D03*
X145350000Y-85850000D03*
X145350000Y-84850000D03*
X144070000Y-88650000D03*
X144070000Y-87250000D03*
X144070000Y-85850000D03*
%TD*%
D15*
%TO.N,unconnected-(H8-Pad1)*%
%TO.C,H8*%
X156000000Y-137000000D03*
%TD*%
%TO.N,unconnected-(H7-Pad1)*%
%TO.C,H7*%
X106000000Y-137000000D03*
%TD*%
D22*
%TO.N,GND*%
X154200000Y-110050000D03*
%TO.N,/12V*%
X151960000Y-62620000D03*
X137340000Y-87050000D03*
X143785000Y-58990000D03*
X154827500Y-58970000D03*
X152715000Y-61700000D03*
X144841250Y-63540000D03*
X143340473Y-136366057D03*
X153771250Y-63520000D03*
X156940000Y-62590000D03*
X148791250Y-63530000D03*
X137340000Y-87650000D03*
X149847500Y-63530000D03*
X145897500Y-60810000D03*
X136700000Y-88250000D03*
X152715000Y-62610000D03*
X152715000Y-58970000D03*
X154827500Y-63520000D03*
X136700000Y-87650000D03*
X144841250Y-62630000D03*
X154827500Y-61700000D03*
X135470000Y-87650000D03*
X150903750Y-63530000D03*
X156940000Y-59860000D03*
X145897500Y-61720000D03*
X144841250Y-58990000D03*
X143785000Y-60810000D03*
X152715000Y-60790000D03*
X146953750Y-61720000D03*
X151960000Y-63530000D03*
X155883750Y-63520000D03*
X154827500Y-62610000D03*
X145897500Y-62630000D03*
X148010000Y-58970000D03*
X143785000Y-63540000D03*
X136700000Y-88850000D03*
X148791250Y-62620000D03*
X135470000Y-87050000D03*
X156940000Y-58950000D03*
X111590000Y-88460000D03*
X112200000Y-87850000D03*
X136100000Y-88850000D03*
X137340000Y-88850000D03*
X153771250Y-59880000D03*
X143785000Y-62630000D03*
X112200000Y-87250000D03*
X113400000Y-88460000D03*
X113400000Y-87860000D03*
X112800000Y-87850000D03*
X153771250Y-61700000D03*
X153771250Y-60790000D03*
X113400000Y-87260000D03*
X112200000Y-88450000D03*
X148010000Y-63520000D03*
X143785000Y-61720000D03*
X112800000Y-89050000D03*
X144841250Y-61720000D03*
X144841250Y-59900000D03*
X112800000Y-87250000D03*
X111590000Y-87260000D03*
X150903750Y-62620000D03*
X152715000Y-63520000D03*
D23*
X144170000Y-134315000D03*
D22*
X136700000Y-87050000D03*
X136100000Y-88250000D03*
X146953750Y-60810000D03*
X136100000Y-87050000D03*
X146953750Y-62630000D03*
X148010000Y-59880000D03*
X144841250Y-60810000D03*
X153771250Y-58970000D03*
X111590000Y-89060000D03*
X152715000Y-59880000D03*
X136100000Y-87650000D03*
X148010000Y-62610000D03*
X146953750Y-59900000D03*
X143340473Y-137026057D03*
X155883750Y-62610000D03*
X154827500Y-60790000D03*
X156940000Y-61680000D03*
X156940000Y-63500000D03*
X155883750Y-61700000D03*
X146953750Y-58990000D03*
X143890473Y-136356057D03*
X155883750Y-59880000D03*
X145897500Y-58990000D03*
X113400000Y-89060000D03*
X137340000Y-88250000D03*
X135470000Y-88850000D03*
X148010000Y-60790000D03*
X145897500Y-59900000D03*
X143890473Y-137036057D03*
X112800000Y-88450000D03*
X148010000Y-61700000D03*
X112200000Y-89050000D03*
X154827500Y-59880000D03*
X143785000Y-59900000D03*
X146953750Y-63540000D03*
X156940000Y-60770000D03*
X155883750Y-60790000D03*
X135470000Y-88250000D03*
X145897500Y-63540000D03*
X153771250Y-62610000D03*
X155883750Y-58970000D03*
X149847500Y-62620000D03*
X111590000Y-87860000D03*
%TO.N,/Power/AGND1*%
X151400000Y-78260000D03*
X145640000Y-81410000D03*
X141450000Y-80820000D03*
X146360000Y-80800000D03*
D23*
%TO.N,/Vcore*%
X140200000Y-101975000D03*
X137100000Y-101975000D03*
X129800000Y-107250000D03*
X129800000Y-106450000D03*
X119800000Y-102800000D03*
X122150000Y-102100000D03*
X146380000Y-101975000D03*
X129000000Y-101900000D03*
X149500000Y-107400000D03*
X153400000Y-103550000D03*
X153400000Y-101100000D03*
X154200000Y-106000000D03*
X137800000Y-101975000D03*
X150500000Y-107400000D03*
X155000000Y-100300000D03*
X111500000Y-107400000D03*
X154200000Y-102750000D03*
X115162500Y-102800000D03*
X116850000Y-102100000D03*
X153400000Y-101950000D03*
X116850000Y-102800000D03*
X146500000Y-107400000D03*
X113500000Y-109500000D03*
X127400000Y-107250000D03*
X155000000Y-101950000D03*
X142500000Y-101975000D03*
X146380000Y-102675000D03*
X127400000Y-101900000D03*
X128200000Y-105650000D03*
X113500000Y-108500000D03*
X128200000Y-101900000D03*
X146380000Y-101275000D03*
D22*
X133950000Y-101650000D03*
D23*
X112862500Y-101400000D03*
X115500000Y-107400000D03*
X119100000Y-102100000D03*
X129800000Y-103450000D03*
X154200000Y-100300000D03*
X119800000Y-101400000D03*
X155000000Y-105200000D03*
X147500000Y-109500000D03*
X154200000Y-101100000D03*
X152600000Y-103550000D03*
X129800000Y-108050000D03*
X152600000Y-102750000D03*
X129800000Y-104250000D03*
X109900000Y-101400000D03*
X108575000Y-67625000D03*
X114500000Y-109500000D03*
X148500000Y-107400000D03*
X121450000Y-102800000D03*
X127400000Y-106450000D03*
X144000000Y-101275000D03*
X137100000Y-102675000D03*
X155000000Y-106000000D03*
X146500000Y-108500000D03*
X153400000Y-102750000D03*
X152600000Y-101950000D03*
X114462500Y-102800000D03*
X135500000Y-102700000D03*
X110500000Y-108500000D03*
X129000000Y-107250000D03*
X114462500Y-101400000D03*
X140200000Y-101275000D03*
X112862500Y-102800000D03*
X151500000Y-107400000D03*
X135500000Y-101300000D03*
X150500000Y-108500000D03*
X135500000Y-102000000D03*
X152600000Y-104350000D03*
X134800000Y-102000000D03*
X119800000Y-102100000D03*
X113500000Y-107400000D03*
X114462500Y-102100000D03*
X112500000Y-109500000D03*
X114500000Y-108500000D03*
X109900000Y-102100000D03*
X128200000Y-106450000D03*
X119100000Y-102800000D03*
X154200000Y-105200000D03*
X119100000Y-101400000D03*
X154200000Y-103550000D03*
X115500000Y-108500000D03*
X148500000Y-109500000D03*
X110600000Y-101400000D03*
X152600000Y-105200000D03*
X153400000Y-106000000D03*
X110500000Y-107400000D03*
X149500000Y-108500000D03*
X147500000Y-108500000D03*
X142500000Y-102675000D03*
X117550000Y-102100000D03*
X129000000Y-104250000D03*
X141800000Y-101275000D03*
X128200000Y-102650000D03*
X115162500Y-102100000D03*
X141800000Y-102675000D03*
X139500000Y-101975000D03*
X112162500Y-102800000D03*
X148500000Y-108500000D03*
X155000000Y-103550000D03*
X128200000Y-103450000D03*
X116850000Y-101400000D03*
D22*
X143250000Y-81320000D03*
D23*
X142500000Y-101275000D03*
X115162500Y-101400000D03*
X129800000Y-101900000D03*
X112500000Y-107400000D03*
D22*
X160700000Y-102700000D03*
D23*
X134800000Y-102700000D03*
X137100000Y-101275000D03*
X112162500Y-101400000D03*
X152600000Y-101100000D03*
X117550000Y-101400000D03*
X111500000Y-108500000D03*
X129800000Y-105650000D03*
X112862500Y-102100000D03*
X114500000Y-107400000D03*
X139500000Y-102675000D03*
X154200000Y-101950000D03*
X144000000Y-102675000D03*
X110500000Y-109500000D03*
X147080000Y-102675000D03*
X121450000Y-102100000D03*
X117550000Y-102800000D03*
X129000000Y-105650000D03*
X128200000Y-108050000D03*
X127400000Y-103450000D03*
X129800000Y-102650000D03*
X147080000Y-101975000D03*
X153400000Y-104350000D03*
X151500000Y-109500000D03*
X127400000Y-105650000D03*
X121450000Y-101400000D03*
X112500000Y-108500000D03*
X134800000Y-101300000D03*
X155000000Y-102750000D03*
X147080000Y-101275000D03*
X137800000Y-101275000D03*
X140200000Y-102675000D03*
X141800000Y-101975000D03*
X153400000Y-100300000D03*
X152600000Y-106000000D03*
X137800000Y-102675000D03*
X144700000Y-101275000D03*
X153400000Y-105200000D03*
X110600000Y-102100000D03*
X144000000Y-101975000D03*
X129000000Y-103450000D03*
X122150000Y-101400000D03*
X109900000Y-102800000D03*
X129000000Y-106450000D03*
X151500000Y-108500000D03*
X144700000Y-101975000D03*
X152600000Y-100300000D03*
X110600000Y-102800000D03*
X115500000Y-109500000D03*
X147500000Y-107400000D03*
X144700000Y-102675000D03*
X154200000Y-104350000D03*
X128200000Y-107250000D03*
X139500000Y-101275000D03*
X155000000Y-104350000D03*
X129000000Y-102650000D03*
X146500000Y-109500000D03*
X129000000Y-108050000D03*
X127400000Y-104250000D03*
X111500000Y-109500000D03*
X150500000Y-109500000D03*
X127400000Y-102650000D03*
X122150000Y-102800000D03*
X112162500Y-102100000D03*
X149500000Y-109500000D03*
X127400000Y-108050000D03*
X155000000Y-101100000D03*
X128200000Y-104250000D03*
D22*
%TO.N,/Power/VSHARE*%
X120450000Y-81200000D03*
X144670000Y-81410000D03*
%TO.N,/Power/EN_UVLO*%
X115080000Y-85200000D03*
X137550000Y-82790000D03*
%TO.N,/5V*%
X106650000Y-120200000D03*
X138940000Y-59590000D03*
X138930000Y-58920000D03*
X106050000Y-120200000D03*
X138940000Y-60297500D03*
X127450000Y-139300000D03*
X125200000Y-122700000D03*
X129200000Y-57100000D03*
X138940000Y-58170000D03*
%TO.N,/ASIC/1V2*%
X103450000Y-100590000D03*
X127300000Y-122700000D03*
X130430000Y-116720000D03*
X107940000Y-123380000D03*
X117825000Y-115625000D03*
X143940000Y-116560000D03*
X103368909Y-126091091D03*
%TO.N,/ASIC/0V8*%
X142610000Y-116570000D03*
X130450000Y-115762500D03*
X119750000Y-115050000D03*
D24*
%TO.N,/3V3*%
X133680000Y-55481821D03*
X134580000Y-55481821D03*
X134580000Y-54631821D03*
D22*
X104010000Y-129210000D03*
X107780000Y-77110000D03*
D24*
X132730000Y-55031821D03*
D22*
X125990000Y-62790000D03*
D25*
X114700000Y-40800000D03*
D22*
X138380000Y-50381821D03*
D23*
X130300000Y-52025000D03*
D22*
X107425000Y-46150000D03*
D24*
X133680000Y-54631821D03*
D22*
X126700000Y-128850000D03*
%TO.N,/Power/PGOOD*%
X127430000Y-60530000D03*
X149090000Y-73910000D03*
D23*
%TO.N,/fan/FAN_TACH*%
X134250000Y-139000000D03*
D22*
%TO.N,/ASIC/TEMP1_P*%
X118328858Y-113867944D03*
D23*
X131700000Y-127890000D03*
D22*
%TO.N,/ASIC/TEMP1_N*%
X118000000Y-113250000D03*
D23*
X130650000Y-127890000D03*
%TO.N,/ASIC/TEMP2_P*%
X134000000Y-127800000D03*
D22*
X155355635Y-114550000D03*
D23*
%TO.N,/ASIC/TEMP2_N*%
X132950000Y-127880000D03*
D22*
X155820645Y-114026770D03*
D23*
%TO.N,/fan/FAN_PWM*%
X131430000Y-141810000D03*
D22*
%TO.N,/Power/BCX_DAT*%
X126810000Y-79660000D03*
X161580000Y-82450000D03*
X148550000Y-80250000D03*
%TO.N,/Power/BCX_CLK*%
X156800000Y-80700000D03*
X147780000Y-80249999D03*
X126180000Y-80560000D03*
%TO.N,/Power/SYNC*%
X125286195Y-80547010D03*
X147080102Y-80262067D03*
X161560000Y-85380000D03*
%TO.N,/ESP32/SDA*%
X109500000Y-131300000D03*
X111400000Y-71500000D03*
D23*
X124100000Y-61190000D03*
D22*
X135650000Y-135250000D03*
D23*
%TO.N,/ESP32/SCL*%
X123320000Y-62465000D03*
D22*
X112000000Y-70600000D03*
X109500000Y-132300000D03*
X135600000Y-136200000D03*
%TO.N,/ASIC/RX_1V2*%
X106000000Y-121200000D03*
%TO.N,/ASIC/CLKI*%
X106200000Y-112550000D03*
%TO.N,/ASIC/BI*%
X105420352Y-112700799D03*
%TO.N,/ASIC/RST_1V2*%
X104675382Y-121611508D03*
%TO.N,/ASIC/TX_1V2*%
X105309522Y-121315080D03*
%TO.N,/ASIC/RST_3V3*%
X109400000Y-73000000D03*
X104698999Y-126896596D03*
%TO.N,/ASIC/TX_3V3*%
X117700000Y-62100000D03*
X105260000Y-128150000D03*
%TO.N,Net-(U4-AVIN)*%
X115070000Y-86130000D03*
X115460000Y-83040000D03*
%TO.N,Net-(U9-VDD1_0)*%
X108025000Y-109275000D03*
%TO.N,Net-(U9-VDD2_0)*%
X108125000Y-108255000D03*
%TO.N,Net-(U9-VDD3_0)*%
X109480000Y-107340000D03*
%TO.N,Net-(U9-LITE_PAD)*%
X105550000Y-114050000D03*
%TO.N,Net-(U9-ROSC_SEL)*%
X104100000Y-114950000D03*
%TO.N,Net-(U9-INV_CLKO)*%
X106000000Y-114850000D03*
D23*
%TO.N,/Power/SW1*%
X154200000Y-93900000D03*
X153500000Y-91800000D03*
X154900000Y-93200000D03*
X152800000Y-91800000D03*
X152800000Y-92500000D03*
X154900000Y-92500000D03*
X154900000Y-94600000D03*
X154200000Y-95300000D03*
X152800000Y-93900000D03*
X153500000Y-95300000D03*
X154200000Y-92500000D03*
X150250000Y-91858000D03*
X154900000Y-95300000D03*
X150250000Y-90194000D03*
X152800000Y-96700000D03*
X154200000Y-93200000D03*
X153500000Y-94600000D03*
X153500000Y-93200000D03*
X151550000Y-89290000D03*
X153500000Y-92500000D03*
X153500000Y-96000000D03*
X154900000Y-96700000D03*
X150250000Y-89362000D03*
X150250000Y-91026000D03*
X153500000Y-93900000D03*
X154200000Y-94600000D03*
X150250000Y-92690000D03*
X154200000Y-96700000D03*
X152075000Y-88425000D03*
X154200000Y-91800000D03*
X152800000Y-95300000D03*
X151275000Y-88425000D03*
X153500000Y-96700000D03*
X154900000Y-96000000D03*
X154200000Y-96000000D03*
X154900000Y-93900000D03*
X152800000Y-93200000D03*
X150250000Y-88530000D03*
X152800000Y-96000000D03*
X152800000Y-94600000D03*
X154900000Y-91800000D03*
D22*
%TO.N,Net-(U1-AVIN)*%
X137790000Y-84890000D03*
X140490000Y-80820000D03*
D23*
%TO.N,/Power/SW2*%
X127400000Y-94600000D03*
X129000000Y-93200000D03*
X125700000Y-88400000D03*
X125970000Y-91475000D03*
X129000000Y-95400000D03*
X126400000Y-88400000D03*
X128200000Y-91700000D03*
X128200000Y-92500000D03*
X129000000Y-94600000D03*
X128200000Y-93200000D03*
X129750000Y-95400000D03*
X129000000Y-91700000D03*
X125970000Y-92300000D03*
X129000000Y-93900000D03*
X127400000Y-96200000D03*
X129750000Y-91700000D03*
X129750000Y-90900000D03*
X129750000Y-92500000D03*
X129000000Y-90900000D03*
X129750000Y-93200000D03*
X129750000Y-93900000D03*
X127350000Y-88975000D03*
X127400000Y-91700000D03*
X125970000Y-90650000D03*
X128200000Y-94600000D03*
X128100000Y-88975000D03*
X125970000Y-89825000D03*
X129750000Y-94600000D03*
X129000000Y-96200000D03*
X127400000Y-95400000D03*
X128200000Y-90900000D03*
X128200000Y-93900000D03*
X129000000Y-92500000D03*
X127400000Y-92500000D03*
X127400000Y-93200000D03*
X128200000Y-95400000D03*
X128200000Y-96200000D03*
X125970000Y-89000000D03*
X129750000Y-96200000D03*
X127400000Y-90900000D03*
X127400000Y-93900000D03*
D22*
%TO.N,Net-(U10-VDD3_0)*%
X145360000Y-107300000D03*
X116640000Y-107350000D03*
%TO.N,Net-(U10-VDD2_0)*%
X143925000Y-108280000D03*
X117750000Y-108280000D03*
%TO.N,Net-(U10-VDD1_0)*%
X117950000Y-109350000D03*
X143925000Y-109220000D03*
%TO.N,Net-(U10-VDD3_1)*%
X152730000Y-107290000D03*
%TO.N,Net-(U10-VDD2_1)*%
X154050000Y-108255000D03*
%TO.N,Net-(U10-VDD1_1)*%
X154050000Y-109195000D03*
%TO.N,/ASIC/0V8_1*%
X106050000Y-115800000D03*
%TO.N,/ASIC/1V2_1*%
X107550000Y-115900000D03*
%TO.N,/ASIC/1V2_2*%
X153797182Y-115702818D03*
%TO.N,/ASIC/0V8_2*%
X154800000Y-115550000D03*
%TO.N,Net-(U1-MSEL1)*%
X141615493Y-81579847D03*
X154150000Y-79150000D03*
%TO.N,Net-(U1-MSEL2)*%
X154150000Y-76300000D03*
X139740000Y-84420000D03*
%TO.N,Net-(U1-VSEL)*%
X139835358Y-82918723D03*
X154150000Y-77700000D03*
%TO.N,Net-(U10-LITE_PAD)*%
X141400000Y-114450000D03*
%TO.N,Net-(U1-ADRSEL)*%
X154500000Y-80490000D03*
X140488170Y-81580000D03*
%TO.N,Net-(U10-NRSTO)*%
X157800000Y-111800000D03*
%TO.N,Net-(U10-ROSC_SEL)*%
X141650000Y-113750000D03*
%TO.N,Net-(U10-INV_CLKO)*%
X141350000Y-115150000D03*
%TO.N,Net-(U10-BI)*%
X136200000Y-113350000D03*
%TO.N,Net-(U10-RI)*%
X157700000Y-115900000D03*
D23*
%TO.N,/Power/SCL_VR*%
X151870000Y-73150000D03*
D22*
X155400000Y-47600000D03*
D23*
X150240000Y-73200000D03*
X161460000Y-69180000D03*
D22*
%TO.N,/Power/ALRT_VR*%
X150301539Y-86057693D03*
D23*
X153260000Y-69190000D03*
X154930000Y-69190000D03*
D22*
X125990000Y-61770000D03*
D23*
%TO.N,/Power/SDA_VR*%
X158200000Y-69180000D03*
D22*
X155400000Y-48800000D03*
X149740000Y-74420000D03*
D23*
X151130000Y-72375000D03*
D22*
%TO.N,GND*%
X133200000Y-120900000D03*
D23*
X149500000Y-112250000D03*
X114500000Y-112250000D03*
X147500000Y-112250000D03*
D22*
X141375000Y-92625000D03*
X137800000Y-97575000D03*
X131990000Y-62860000D03*
X114562500Y-96400000D03*
X113430000Y-94110000D03*
X105875000Y-46150000D03*
X144100000Y-96975000D03*
D23*
X112550000Y-119000000D03*
D22*
X122050000Y-96400000D03*
D23*
X114500000Y-111250000D03*
D22*
X149557500Y-52070000D03*
X156950000Y-55710000D03*
D24*
X140130000Y-47381821D03*
D22*
X121450000Y-97600000D03*
X148501250Y-52980000D03*
D23*
X148600000Y-117050000D03*
D22*
X113430000Y-95310000D03*
X113430000Y-94710000D03*
X117650000Y-93000000D03*
D23*
X149600000Y-118050000D03*
D22*
X116850000Y-96400000D03*
D23*
X112500000Y-112250000D03*
D22*
X117740000Y-114450000D03*
X142400000Y-97575000D03*
X131990000Y-60860000D03*
D23*
X147600000Y-117050000D03*
D22*
X154837500Y-52090000D03*
X130990000Y-60860000D03*
X154700000Y-117900000D03*
D23*
X110500000Y-113250000D03*
D22*
X132990000Y-60860000D03*
X132990000Y-59860000D03*
D23*
X146500000Y-113250000D03*
X148500000Y-115250000D03*
D22*
X151670000Y-52980000D03*
X115525000Y-93025000D03*
X141800000Y-97575000D03*
D25*
X115140000Y-53850000D03*
D22*
X137200000Y-96375000D03*
D23*
X110500000Y-114250000D03*
X114500000Y-115250000D03*
D22*
X146980000Y-96975000D03*
X130990000Y-58860000D03*
D24*
X134555000Y-52006821D03*
D23*
X110550000Y-118000000D03*
D22*
X155893750Y-56640000D03*
D23*
X111550000Y-118000000D03*
D22*
X119200000Y-97600000D03*
D25*
X112330000Y-56650000D03*
D22*
X135980000Y-129890000D03*
X153781250Y-52090000D03*
X117450000Y-97000000D03*
X112862500Y-97000000D03*
X117650000Y-92450000D03*
D23*
X114550000Y-119000000D03*
X150500000Y-112250000D03*
D22*
X116850000Y-97000000D03*
X142400000Y-96375000D03*
X142400000Y-96975000D03*
D23*
X149500000Y-114250000D03*
D22*
X132990000Y-62860000D03*
D23*
X115500000Y-111250000D03*
D22*
X133990000Y-61860000D03*
X119200000Y-97000000D03*
X158880000Y-76740000D03*
X112800000Y-95300000D03*
D23*
X115500000Y-112250000D03*
D22*
X140100000Y-96975000D03*
X119800000Y-97600000D03*
D23*
X146600000Y-119050000D03*
D22*
X136000000Y-93900000D03*
X133990000Y-58860000D03*
X135500000Y-97000000D03*
X106700000Y-77110000D03*
D23*
X112500000Y-114250000D03*
D22*
X136000000Y-93300000D03*
X112200000Y-94100000D03*
D23*
X151500000Y-111250000D03*
D22*
X152725000Y-56640000D03*
X146380000Y-96975000D03*
X150613750Y-52070000D03*
D23*
X151600000Y-118050000D03*
D22*
X121450000Y-96400000D03*
X152725000Y-53000000D03*
X124450000Y-119950000D03*
X109900000Y-97000000D03*
X112200000Y-95300000D03*
D23*
X150600000Y-117050000D03*
D22*
X106790000Y-126920000D03*
X119800000Y-96400000D03*
X132990000Y-58860000D03*
X152725000Y-55730000D03*
X156950000Y-53890000D03*
X142920000Y-114950000D03*
X112800000Y-94100000D03*
X155893750Y-54820000D03*
X124450000Y-114300000D03*
X153781250Y-56640000D03*
X116850000Y-97600000D03*
X137200000Y-97575000D03*
X114562500Y-97000000D03*
X160900000Y-91700000D03*
X112800000Y-93500000D03*
X132990000Y-63860000D03*
D23*
X146500000Y-112250000D03*
D22*
X140475000Y-92675000D03*
D23*
X110500000Y-115250000D03*
D25*
X115140000Y-56650000D03*
D22*
X117450000Y-96400000D03*
X124450000Y-119300000D03*
X133990000Y-62860000D03*
X143870000Y-110080000D03*
X156950000Y-52070000D03*
X131990000Y-64860000D03*
X135500000Y-96400000D03*
D23*
X115500000Y-115250000D03*
D25*
X113740000Y-55250000D03*
D22*
X130990000Y-59860000D03*
X137620000Y-81120000D03*
X112200000Y-93500000D03*
X115162500Y-97000000D03*
D23*
X111500000Y-112250000D03*
D22*
X117050000Y-93000000D03*
X139740000Y-113760000D03*
D25*
X113740000Y-53850000D03*
D22*
X132080000Y-140500000D03*
X110500000Y-97600000D03*
D23*
X112500000Y-113250000D03*
D22*
X136000000Y-95100000D03*
X145660000Y-80360000D03*
D23*
X150600000Y-118050000D03*
D22*
X156950000Y-54800000D03*
D23*
X151600000Y-117050000D03*
D22*
X133990000Y-60860000D03*
D23*
X151600000Y-119050000D03*
D22*
X140100000Y-97575000D03*
X152725000Y-54820000D03*
D23*
X146500000Y-114250000D03*
X115500000Y-113250000D03*
D22*
X130990000Y-61860000D03*
X130990000Y-63860000D03*
X136000000Y-94500000D03*
D23*
X147500000Y-115250000D03*
D22*
X116125000Y-93025000D03*
D23*
X115550000Y-118000000D03*
D25*
X113400000Y-40800000D03*
D23*
X148500000Y-114250000D03*
D22*
X156950000Y-56620000D03*
D23*
X147600000Y-119050000D03*
D22*
X112862500Y-96400000D03*
D23*
X113550000Y-117000000D03*
X150500000Y-111250000D03*
X147500000Y-113250000D03*
D26*
X106000000Y-67400000D03*
D23*
X110550000Y-119000000D03*
D22*
X152725000Y-52090000D03*
X119800000Y-97000000D03*
D23*
X115500000Y-114250000D03*
X150500000Y-114250000D03*
X110500000Y-112250000D03*
D22*
X135500000Y-97600000D03*
X117050000Y-92450000D03*
X132990000Y-61860000D03*
X153803248Y-114396752D03*
D23*
X148500000Y-113250000D03*
D22*
X139500000Y-96975000D03*
D23*
X113500000Y-114250000D03*
D24*
X133040000Y-52030000D03*
X137430000Y-47381821D03*
D22*
X141975000Y-92625000D03*
X115650000Y-84310000D03*
X136600000Y-94500000D03*
X141975000Y-93175000D03*
D25*
X113740000Y-56650000D03*
D22*
X144100000Y-97575000D03*
D23*
X111500000Y-113250000D03*
D22*
X116125000Y-92475000D03*
D23*
X114500000Y-113250000D03*
D22*
X110500000Y-97000000D03*
X144700000Y-96975000D03*
X154837500Y-54820000D03*
D23*
X149500000Y-113250000D03*
X111500000Y-111250000D03*
D22*
X115525000Y-92475000D03*
D23*
X113550000Y-118000000D03*
D22*
X118810000Y-110100000D03*
X131990000Y-63860000D03*
X104350000Y-101750000D03*
D23*
X149500000Y-115250000D03*
D22*
X111570000Y-93500000D03*
X137800000Y-96375000D03*
X141800000Y-96975000D03*
X103790000Y-113400000D03*
X140100000Y-96375000D03*
X107850000Y-114750000D03*
X155893750Y-53000000D03*
X110500000Y-96400000D03*
X131990000Y-58860000D03*
X155893750Y-55730000D03*
D23*
X149600000Y-119050000D03*
D22*
X140475000Y-93225000D03*
X111570000Y-95300000D03*
X154837500Y-55730000D03*
X107079162Y-110220838D03*
D23*
X111550000Y-119000000D03*
D22*
X122050000Y-97600000D03*
D23*
X115550000Y-119000000D03*
X150500000Y-115250000D03*
D22*
X144700000Y-96375000D03*
X130990000Y-62860000D03*
D23*
X113500000Y-112250000D03*
D22*
X113430000Y-93510000D03*
D23*
X148600000Y-118050000D03*
D24*
X140955000Y-50106821D03*
D22*
X154837500Y-53910000D03*
D23*
X110500000Y-111250000D03*
D22*
X136600000Y-95100000D03*
D23*
X146600000Y-117050000D03*
D22*
X139875000Y-92675000D03*
X111570000Y-94700000D03*
X111570000Y-94100000D03*
X124450000Y-114950000D03*
X153781250Y-53000000D03*
X136600000Y-93300000D03*
D23*
X115550000Y-117000000D03*
D25*
X115140000Y-55250000D03*
D23*
X114500000Y-114250000D03*
D22*
X148501250Y-52070000D03*
D23*
X112500000Y-111250000D03*
X113500000Y-111250000D03*
D22*
X146980000Y-97575000D03*
X134900000Y-96400000D03*
D23*
X148500000Y-111250000D03*
X149600000Y-117050000D03*
D22*
X141375000Y-93175000D03*
X129500000Y-128840000D03*
D23*
X113550000Y-119000000D03*
X147500000Y-111250000D03*
D22*
X112800000Y-94700000D03*
X151670000Y-52070000D03*
X132210000Y-114870000D03*
D23*
X151500000Y-113250000D03*
D22*
X155893750Y-52090000D03*
D23*
X147500000Y-114250000D03*
X112550000Y-117000000D03*
D25*
X112330000Y-53850000D03*
D23*
X148500000Y-112250000D03*
X151500000Y-112250000D03*
D22*
X134900000Y-97000000D03*
X115162500Y-97600000D03*
X112262500Y-97000000D03*
D23*
X112550000Y-118000000D03*
D22*
X154837500Y-56640000D03*
D23*
X148600000Y-119050000D03*
D22*
X149557500Y-52980000D03*
X153781250Y-53910000D03*
X144700000Y-97575000D03*
X112262500Y-97600000D03*
X138970000Y-83620000D03*
X132990000Y-64860000D03*
X153781250Y-54820000D03*
X112200000Y-94700000D03*
X114562500Y-97600000D03*
X131990000Y-59860000D03*
X133990000Y-64860000D03*
X121450000Y-97000000D03*
X152725000Y-53910000D03*
X133990000Y-59860000D03*
X144100000Y-96375000D03*
X103450000Y-121650000D03*
X130990000Y-64860000D03*
X152900000Y-82780000D03*
X144170000Y-132765000D03*
X154837500Y-53000000D03*
X109900000Y-96400000D03*
D24*
X134630000Y-47356821D03*
D23*
X151500000Y-114250000D03*
D22*
X146380000Y-96375000D03*
X153781250Y-55730000D03*
X133250000Y-113850000D03*
X136600000Y-93900000D03*
D23*
X146500000Y-115250000D03*
D22*
X101690000Y-128210000D03*
X103990000Y-130170000D03*
X155893750Y-53910000D03*
D23*
X146500000Y-111250000D03*
X114550000Y-118000000D03*
X150500000Y-113250000D03*
D22*
X137800000Y-96975000D03*
D23*
X110550000Y-117000000D03*
X112500000Y-115250000D03*
X111550000Y-117000000D03*
X113500000Y-113250000D03*
D22*
X139875000Y-93225000D03*
X122050000Y-97000000D03*
X146980000Y-96375000D03*
X119200000Y-96400000D03*
X160920000Y-47440000D03*
D23*
X111500000Y-114250000D03*
D22*
X109900000Y-97600000D03*
X112262500Y-96400000D03*
X146380000Y-97575000D03*
D23*
X113500000Y-115250000D03*
D22*
X141800000Y-96375000D03*
X139500000Y-96375000D03*
D23*
X147600000Y-118050000D03*
D25*
X112330000Y-55250000D03*
D22*
X134900000Y-97600000D03*
X156950000Y-52980000D03*
D23*
X151500000Y-115250000D03*
X132425000Y-134275000D03*
X149500000Y-111250000D03*
D22*
X137200000Y-96975000D03*
D24*
X134805000Y-49631821D03*
D22*
X117450000Y-97600000D03*
X108000000Y-121500000D03*
X131990000Y-61860000D03*
X127220000Y-82540000D03*
D23*
X150600000Y-119050000D03*
X114550000Y-117000000D03*
D22*
X112862500Y-97600000D03*
D23*
X146600000Y-118050000D03*
D22*
X115162500Y-96400000D03*
X139500000Y-97575000D03*
X150613750Y-52980000D03*
X133990000Y-63860000D03*
D23*
X111500000Y-115250000D03*
D22*
%TO.N,/Power/BP1v5_2*%
X126327817Y-82850000D03*
X118300000Y-81200000D03*
%TO.N,Net-(U10-BO)*%
X157650000Y-120050000D03*
%TO.N,Net-(U10-CLKO)*%
X157750000Y-118000000D03*
%TO.N,Net-(U10-CO)*%
X157800000Y-113850000D03*
%TO.N,/ESP32/EN*%
X103734620Y-73384620D03*
D25*
X114670000Y-44200000D03*
D23*
%TO.N,/ESP32/P_TX*%
X109820000Y-65500000D03*
D25*
X113400000Y-44250000D03*
D22*
%TO.N,/ESP32/IO0*%
X151910000Y-74400000D03*
D25*
X112150000Y-40800000D03*
D22*
X111400000Y-61450000D03*
X123460000Y-67800000D03*
%TO.N,/ESP32/P_RX*%
X109950000Y-63200000D03*
%TO.N,/ASIC/RX_3V3*%
X118710000Y-62090000D03*
X105930000Y-127530000D03*
%TO.N,/Power/AGND2*%
X128200000Y-81580000D03*
X122200000Y-81650000D03*
X115500000Y-82060000D03*
X125990000Y-85840000D03*
%TO.N,Net-(J2-Pin_5)*%
X137120000Y-42580159D03*
X116150000Y-63100000D03*
%TO.N,Net-(J2-Pin_8)*%
X112360000Y-63060000D03*
X131764719Y-44144719D03*
%TO.N,Net-(J2-Pin_7)*%
X132550000Y-43610000D03*
X113650000Y-63050000D03*
%TO.N,Net-(J2-Pin_6)*%
X136560000Y-42080000D03*
X114900000Y-63050000D03*
%TO.N,/ESP32/P_RX*%
X112600000Y-45800000D03*
D23*
%TO.N,/ESP32/EN*%
X110700000Y-49984314D03*
%TD*%
D27*
%TO.N,/12V*%
X160400000Y-75760000D02*
X160400000Y-89675000D01*
X156510000Y-71870000D02*
X160400000Y-75760000D01*
X161950000Y-119150000D02*
X145780000Y-135320000D01*
X156510000Y-63236250D02*
X156510000Y-71870000D01*
X160400000Y-89675000D02*
X161950000Y-91225000D01*
X161950000Y-91225000D02*
X161950000Y-119150000D01*
X145780000Y-135320000D02*
X139800000Y-135320000D01*
X139800000Y-135320000D02*
X130640600Y-144479400D01*
X130640600Y-144479400D02*
X130640600Y-146338851D01*
D28*
%TO.N,/Vcore*%
X135010000Y-86150000D02*
X133950000Y-87210000D01*
X143250000Y-81750000D02*
X143250000Y-81320000D01*
X142490000Y-82510000D02*
X143250000Y-81750000D01*
X133950000Y-87210000D02*
X133950000Y-101650000D01*
X142490000Y-82510000D02*
X138850000Y-86150000D01*
X138850000Y-86150000D02*
X135010000Y-86150000D01*
%TO.N,/Power/VSHARE*%
X120700000Y-80950000D02*
X123650000Y-80950000D01*
X120450000Y-81200000D02*
X120700000Y-80950000D01*
X131000000Y-80100000D02*
X143380000Y-80100000D01*
X127550000Y-83550000D02*
X131000000Y-80100000D01*
X143380000Y-80100000D02*
X144670000Y-81390000D01*
X144670000Y-81390000D02*
X144670000Y-81410000D01*
X126250000Y-83550000D02*
X127550000Y-83550000D01*
X123650000Y-80950000D02*
X126250000Y-83550000D01*
%TO.N,/Power/EN_UVLO*%
X115820000Y-85200000D02*
X116430000Y-84590000D01*
X116430000Y-84590000D02*
X116430000Y-83560000D01*
X117540000Y-82450000D02*
X124400000Y-82450000D01*
X115080000Y-85200000D02*
X115820000Y-85200000D01*
X127880000Y-84000000D02*
X129080000Y-82800000D01*
X137540000Y-82800000D02*
X137550000Y-82790000D01*
X116430000Y-83560000D02*
X117540000Y-82450000D01*
X124400000Y-82450000D02*
X125950000Y-84000000D01*
X129080000Y-82800000D02*
X137540000Y-82800000D01*
X125950000Y-84000000D02*
X127880000Y-84000000D01*
D29*
%TO.N,/5V*%
X110130000Y-122680000D02*
X107650000Y-120200000D01*
X125200000Y-122700000D02*
X125180000Y-122680000D01*
X107650000Y-120200000D02*
X106650000Y-120200000D01*
X125180000Y-122680000D02*
X110130000Y-122680000D01*
X106050000Y-120200000D02*
X106650000Y-120200000D01*
%TO.N,/ASIC/1V2*%
X107610000Y-123050000D02*
X107940000Y-123380000D01*
X103440000Y-100600000D02*
X102675000Y-100600000D01*
X102500000Y-123050000D02*
X107610000Y-123050000D01*
X108460000Y-123900000D02*
X107940000Y-123380000D01*
X102500000Y-100775000D02*
X102500000Y-122600000D01*
X102500000Y-125222182D02*
X103368909Y-126091091D01*
X103450000Y-100590000D02*
X103440000Y-100600000D01*
X102675000Y-100600000D02*
X102500000Y-100775000D01*
X102500000Y-123050000D02*
X102500000Y-125222182D01*
X126100000Y-123900000D02*
X108460000Y-123900000D01*
X127300000Y-122700000D02*
X126100000Y-123900000D01*
X102500000Y-122600000D02*
X102500000Y-123050000D01*
%TO.N,/3V3*%
X121800000Y-133750000D02*
X126700000Y-128850000D01*
X108700000Y-133750000D02*
X108550000Y-133750000D01*
X108700000Y-133750000D02*
X121800000Y-133750000D01*
X108550000Y-133750000D02*
X104010000Y-129210000D01*
D28*
%TO.N,/Power/PGOOD*%
X137470000Y-73910000D02*
X149090000Y-73910000D01*
X127430000Y-63870000D02*
X137470000Y-73910000D01*
X127430000Y-60530000D02*
X127430000Y-63870000D01*
%TO.N,/ASIC/TEMP1_P*%
X130000000Y-128150000D02*
X130341000Y-128491000D01*
X118328858Y-113867944D02*
X118417944Y-113867944D01*
X131099000Y-128491000D02*
X131700000Y-127890000D01*
X128250000Y-121850000D02*
X130000000Y-123600000D01*
X118750000Y-117850000D02*
X122750000Y-121850000D01*
X118417944Y-113867944D02*
X118750000Y-114200000D01*
X118750000Y-114200000D02*
X118750000Y-117850000D01*
X130000000Y-123600000D02*
X130000000Y-128150000D01*
X122750000Y-121850000D02*
X128250000Y-121850000D01*
X130341000Y-128491000D02*
X131099000Y-128491000D01*
%TO.N,/ASIC/TEMP1_N*%
X118000000Y-113250000D02*
X118488733Y-113250000D01*
X119200000Y-113961267D02*
X119200000Y-117600000D01*
X130650000Y-123550000D02*
X130650000Y-127890000D01*
X128450000Y-121350000D02*
X130650000Y-123550000D01*
X118488733Y-113250000D02*
X119200000Y-113961267D01*
X122950000Y-121350000D02*
X128450000Y-121350000D01*
X119200000Y-117600000D02*
X122950000Y-121350000D01*
%TO.N,/ASIC/TEMP2_P*%
X155450000Y-120350000D02*
X151750000Y-124050000D01*
X151750000Y-124050000D02*
X137750000Y-124050000D01*
X155355635Y-114550000D02*
X155450000Y-114644365D01*
X137750000Y-124050000D02*
X134000000Y-127800000D01*
X155450000Y-114644365D02*
X155450000Y-120350000D01*
%TO.N,/ASIC/TEMP2_N*%
X155905635Y-114111760D02*
X155905635Y-118794365D01*
X155900000Y-118800000D02*
X155900000Y-120465685D01*
X138150000Y-124499943D02*
X134249943Y-128400000D01*
X155900000Y-120465685D02*
X151905685Y-124460000D01*
X155820645Y-114026770D02*
X155905635Y-114111760D01*
X151905685Y-124460000D02*
X138150000Y-124460000D01*
X138150000Y-124460000D02*
X138150000Y-124499943D01*
X133470000Y-128400000D02*
X132950000Y-127880000D01*
X134249943Y-128400000D02*
X133470000Y-128400000D01*
X155905635Y-118794365D02*
X155900000Y-118800000D01*
%TO.N,/Power/BCX_DAT*%
X148550000Y-79340000D02*
X148550000Y-80250000D01*
X126810000Y-79640000D02*
X127700000Y-78750000D01*
X126810000Y-79660000D02*
X126810000Y-79640000D01*
X147960000Y-78750000D02*
X148550000Y-79340000D01*
X127700000Y-78750000D02*
X147960000Y-78750000D01*
%TO.N,/Power/BCX_CLK*%
X126180000Y-80560000D02*
X126980000Y-80560000D01*
X126980000Y-80560000D02*
X128340000Y-79200000D01*
X128340000Y-79200000D02*
X147220000Y-79200000D01*
X147760000Y-79740000D02*
X147760000Y-80229999D01*
X147760000Y-80229999D02*
X147780000Y-80249999D01*
X147220000Y-79200000D02*
X147760000Y-79740000D01*
%TO.N,/Power/SYNC*%
X146540000Y-79650000D02*
X147080102Y-80190102D01*
X125286195Y-80547010D02*
X125286195Y-80886195D01*
X127520000Y-81270000D02*
X129140000Y-79650000D01*
X147080102Y-80190102D02*
X147080102Y-80262067D01*
X129140000Y-79650000D02*
X146540000Y-79650000D01*
X125670000Y-81270000D02*
X127520000Y-81270000D01*
X125286195Y-80886195D02*
X125670000Y-81270000D01*
%TO.N,/ESP32/SDA*%
X124100000Y-63375000D02*
X115975000Y-71500000D01*
X115975000Y-71500000D02*
X111400000Y-71500000D01*
X133275000Y-45675000D02*
X124100000Y-54850000D01*
X145305000Y-45675000D02*
X133275000Y-45675000D01*
X124100000Y-54850000D02*
X124100000Y-63375000D01*
X147800000Y-48170000D02*
X145305000Y-45675000D01*
%TO.N,/ESP32/SCL*%
X147770000Y-45200000D02*
X133184314Y-45200000D01*
X123320000Y-62465000D02*
X123320000Y-62905000D01*
X148200000Y-45630000D02*
X147770000Y-45200000D01*
X123310000Y-62455000D02*
X123320000Y-62465000D01*
X133184314Y-45200000D02*
X123310000Y-55074314D01*
X115625000Y-70600000D02*
X112000000Y-70600000D01*
X123310000Y-55074314D02*
X123310000Y-62455000D01*
X123320000Y-62905000D02*
X115625000Y-70600000D01*
%TO.N,/ASIC/RST_3V3*%
X101900000Y-125400000D02*
X103396596Y-126896596D01*
X101900000Y-125400000D02*
X101900000Y-80500000D01*
X101900000Y-80500000D02*
X109400000Y-73000000D01*
X103396596Y-126896596D02*
X104698999Y-126896596D01*
%TO.N,/ASIC/TX_3V3*%
X103120000Y-128150000D02*
X105260000Y-128150000D01*
X100800000Y-125830000D02*
X103120000Y-128150000D01*
X100800000Y-80000000D02*
X100800000Y-125830000D01*
X117700000Y-63100000D02*
X100800000Y-80000000D01*
X117700000Y-62100000D02*
X117700000Y-63100000D01*
%TO.N,Net-(U4-AVIN)*%
X114420000Y-83660000D02*
X115040000Y-83040000D01*
X114420000Y-85480000D02*
X114420000Y-83660000D01*
X115040000Y-83040000D02*
X115460000Y-83040000D01*
X115070000Y-86130000D02*
X114420000Y-85480000D01*
%TO.N,Net-(U1-AVIN)*%
X140490000Y-80820000D02*
X140470000Y-80840000D01*
X138270000Y-84410000D02*
X137790000Y-84890000D01*
X138270000Y-82470000D02*
X138270000Y-84410000D01*
X139900000Y-80840000D02*
X138270000Y-82470000D01*
X140470000Y-80840000D02*
X139900000Y-80840000D01*
%TO.N,/Power/SCL_VR*%
X150240000Y-73200000D02*
X145400000Y-73200000D01*
X139700000Y-67500000D02*
X139700000Y-57130000D01*
X153200000Y-49800000D02*
X155400000Y-47600000D01*
X145400000Y-73200000D02*
X139700000Y-67500000D01*
X147030000Y-49800000D02*
X153200000Y-49800000D01*
X139700000Y-57130000D02*
X147030000Y-49800000D01*
%TO.N,/Power/ALRT_VR*%
X153250000Y-74980000D02*
X150301539Y-77928461D01*
X153250000Y-69200000D02*
X153250000Y-74980000D01*
X150301539Y-77928461D02*
X150301539Y-86057693D01*
X153260000Y-69190000D02*
X153250000Y-69200000D01*
%TO.N,/Power/SDA_VR*%
X145475000Y-72375000D02*
X140400000Y-67300000D01*
X153700000Y-50500000D02*
X155400000Y-48800000D01*
X147250000Y-50500000D02*
X153700000Y-50500000D01*
X149740000Y-74420000D02*
X150450000Y-74420000D01*
X140400000Y-67300000D02*
X140400000Y-57350000D01*
X151130000Y-72375000D02*
X145475000Y-72375000D01*
X150450000Y-74420000D02*
X151130000Y-73740000D01*
X140400000Y-57350000D02*
X147250000Y-50500000D01*
X151130000Y-73740000D02*
X151130000Y-72375000D01*
%TO.N,/Power/BP1v5_2*%
X119000000Y-80500000D02*
X118300000Y-81200000D01*
X126300000Y-82850000D02*
X123950000Y-80500000D01*
X123950000Y-80500000D02*
X119000000Y-80500000D01*
X126327817Y-82850000D02*
X126300000Y-82850000D01*
%TO.N,/ESP32/EN*%
X114670000Y-44200000D02*
X114670000Y-46014314D01*
X114670000Y-46014314D02*
X110700000Y-49984314D01*
X110700000Y-49984314D02*
X110700000Y-66419240D01*
X110700000Y-66419240D02*
X103734620Y-73384620D01*
%TO.N,/ESP32/P_TX*%
X108975000Y-48600000D02*
X113325000Y-44250000D01*
X113325000Y-44250000D02*
X113400000Y-44250000D01*
X109820000Y-65500000D02*
X108975000Y-64655000D01*
X108975000Y-64655000D02*
X108975000Y-48600000D01*
%TO.N,/ESP32/IO0*%
X112150000Y-40800000D02*
X113300000Y-39650000D01*
X151910000Y-74420000D02*
X150940000Y-75390000D01*
X111400000Y-50600000D02*
X111400000Y-61450000D01*
X116900000Y-45100000D02*
X111400000Y-50600000D01*
X116900000Y-41100000D02*
X116900000Y-45100000D01*
X150940000Y-75390000D02*
X131050000Y-75390000D01*
X151910000Y-74400000D02*
X151910000Y-74420000D01*
X131050000Y-75390000D02*
X123460000Y-67800000D01*
X113300000Y-39650000D02*
X115450000Y-39650000D01*
X115450000Y-39650000D02*
X116900000Y-41100000D01*
%TO.N,/ESP32/P_RX*%
X112600000Y-46500000D02*
X112600000Y-45800000D01*
X109950000Y-49150000D02*
X112600000Y-46500000D01*
X109950000Y-63200000D02*
X109950000Y-49150000D01*
%TO.N,/ASIC/RX_3V3*%
X105930000Y-127530000D02*
X105920000Y-127540000D01*
X103240000Y-127540000D02*
X101400000Y-125700000D01*
X101400000Y-125700000D02*
X101400000Y-80100000D01*
X118710000Y-62790000D02*
X118710000Y-62090000D01*
X105920000Y-127540000D02*
X103240000Y-127540000D01*
X101400000Y-80100000D02*
X118710000Y-62790000D01*
%TO.N,Net-(J2-Pin_5)*%
X136970159Y-42730000D02*
X137120000Y-42580159D01*
X116150000Y-61668628D02*
X135088628Y-42730000D01*
X116150000Y-63100000D02*
X116150000Y-61668628D01*
X135088628Y-42730000D02*
X136970159Y-42730000D01*
%TO.N,Net-(J2-Pin_8)*%
X131764719Y-44355437D02*
X131764719Y-44144719D01*
X112360000Y-63060000D02*
X112920000Y-62500000D01*
X113621156Y-62499000D02*
X131764719Y-44355437D01*
X112920000Y-62500000D02*
X113420768Y-62500000D01*
X113421768Y-62499000D02*
X113621156Y-62499000D01*
X113420768Y-62500000D02*
X113421768Y-62499000D01*
%TO.N,Net-(J2-Pin_7)*%
X132690000Y-43997256D02*
X132690000Y-43750000D01*
X113650000Y-63037256D02*
X132690000Y-43997256D01*
X132690000Y-43750000D02*
X132550000Y-43610000D01*
X113650000Y-63050000D02*
X113650000Y-63037256D01*
%TO.N,Net-(J2-Pin_6)*%
X136502942Y-42022942D02*
X136560000Y-42080000D01*
X114900000Y-63050000D02*
X114900000Y-62352942D01*
X114900000Y-62352942D02*
X135230000Y-42022942D01*
X135230000Y-42022942D02*
X136502942Y-42022942D01*
%TD*%
%TA.AperFunction,Conductor*%
%TO.N,/12V*%
G36*
X145176150Y-133795742D02*
G01*
X145196792Y-133812376D01*
X145464154Y-134079738D01*
X145497639Y-134141061D01*
X145500473Y-134167419D01*
X145500473Y-137285789D01*
X145480788Y-137352828D01*
X145453086Y-137383289D01*
X144834194Y-137869561D01*
X144769320Y-137895501D01*
X144757586Y-137896057D01*
X142105327Y-137896057D01*
X142038288Y-137876372D01*
X142013574Y-137855468D01*
X141582720Y-137381528D01*
X141552190Y-137318682D01*
X141550473Y-137298117D01*
X141550473Y-134087419D01*
X141570158Y-134020380D01*
X141586792Y-133999738D01*
X141774154Y-133812376D01*
X141835477Y-133778891D01*
X141861835Y-133776057D01*
X145109111Y-133776057D01*
X145176150Y-133795742D01*
G37*
%TD.AperFunction*%
%TD*%
%TA.AperFunction,Conductor*%
%TO.N,GND*%
G36*
X123593039Y-83619685D02*
G01*
X123638794Y-83672489D01*
X123650000Y-83724000D01*
X123650000Y-90900000D01*
X125464818Y-90900000D01*
X125531857Y-90919685D01*
X125557159Y-90941241D01*
X125565762Y-90950840D01*
X125569500Y-90957314D01*
X125589392Y-90977206D01*
X125591664Y-90979741D01*
X125605304Y-91008333D01*
X125620490Y-91036145D01*
X125620239Y-91039640D01*
X125621748Y-91042802D01*
X125617765Y-91074222D01*
X125615504Y-91105836D01*
X125613330Y-91109218D01*
X125612963Y-91112117D01*
X125606537Y-91119788D01*
X125587006Y-91150179D01*
X125569503Y-91167682D01*
X125569500Y-91167686D01*
X125503608Y-91281812D01*
X125474034Y-91392186D01*
X125469500Y-91409108D01*
X125469500Y-91540892D01*
X125472124Y-91550686D01*
X125503608Y-91668187D01*
X125536554Y-91725250D01*
X125569500Y-91782314D01*
X125569502Y-91782316D01*
X125569503Y-91782317D01*
X125587006Y-91799821D01*
X125620490Y-91861145D01*
X125615504Y-91930836D01*
X125587006Y-91975179D01*
X125569503Y-91992682D01*
X125569500Y-91992686D01*
X125503608Y-92106812D01*
X125469500Y-92234108D01*
X125469500Y-92365891D01*
X125503608Y-92493187D01*
X125536554Y-92550250D01*
X125569500Y-92607314D01*
X125662686Y-92700500D01*
X125776814Y-92766392D01*
X125904108Y-92800500D01*
X125904110Y-92800500D01*
X126035890Y-92800500D01*
X126035892Y-92800500D01*
X126163186Y-92766392D01*
X126277314Y-92700500D01*
X126370500Y-92607314D01*
X126436392Y-92493186D01*
X126470500Y-92365892D01*
X126470500Y-92234108D01*
X126436392Y-92106814D01*
X126370500Y-91992686D01*
X126352995Y-91975181D01*
X126319510Y-91913858D01*
X126324494Y-91844166D01*
X126352995Y-91799819D01*
X126360706Y-91792108D01*
X126370500Y-91782314D01*
X126436392Y-91668186D01*
X126470500Y-91540892D01*
X126470500Y-91409108D01*
X126436392Y-91281814D01*
X126370500Y-91167686D01*
X126352995Y-91150181D01*
X126350298Y-91145243D01*
X126345616Y-91142122D01*
X126333735Y-91114910D01*
X126319510Y-91088858D01*
X126319911Y-91083245D01*
X126317660Y-91078089D01*
X126322376Y-91048779D01*
X126324494Y-91019166D01*
X126328101Y-91013200D01*
X126328760Y-91009107D01*
X126341337Y-90991311D01*
X126348336Y-90979739D01*
X126350590Y-90977223D01*
X126370500Y-90957314D01*
X126374239Y-90950837D01*
X126382842Y-90941239D01*
X126402029Y-90929357D01*
X126418364Y-90913783D01*
X126432858Y-90910266D01*
X126442244Y-90904455D01*
X126455875Y-90904683D01*
X126475182Y-90900000D01*
X126786696Y-90900000D01*
X126853735Y-90919685D01*
X126899490Y-90972489D01*
X126906469Y-90991902D01*
X126912176Y-91013200D01*
X126933608Y-91093187D01*
X126961861Y-91142122D01*
X126999500Y-91207314D01*
X126999502Y-91207316D01*
X127004505Y-91212319D01*
X127037990Y-91273642D01*
X127033006Y-91343334D01*
X127004505Y-91387681D01*
X126999502Y-91392683D01*
X126999500Y-91392686D01*
X126933608Y-91506812D01*
X126906814Y-91606812D01*
X126899500Y-91634108D01*
X126899500Y-91765892D01*
X126906525Y-91792110D01*
X126933608Y-91893187D01*
X126951336Y-91923892D01*
X126999500Y-92007314D01*
X126999502Y-92007316D01*
X127004505Y-92012319D01*
X127037990Y-92073642D01*
X127033006Y-92143334D01*
X127004505Y-92187681D01*
X126999502Y-92192683D01*
X126999500Y-92192686D01*
X126933608Y-92306812D01*
X126917778Y-92365892D01*
X126899500Y-92434108D01*
X126899500Y-92565892D01*
X126915099Y-92624110D01*
X126933609Y-92693188D01*
X126933609Y-92693189D01*
X126988348Y-92788000D01*
X127004821Y-92855900D01*
X126988348Y-92912000D01*
X126933609Y-93006810D01*
X126933609Y-93006811D01*
X126899500Y-93134108D01*
X126899500Y-93265891D01*
X126933609Y-93393188D01*
X126933609Y-93393189D01*
X126988348Y-93488000D01*
X127004821Y-93555900D01*
X126988348Y-93612000D01*
X126933609Y-93706810D01*
X126933609Y-93706811D01*
X126899500Y-93834108D01*
X126899500Y-93965891D01*
X126933609Y-94093188D01*
X126933609Y-94093189D01*
X126988348Y-94188000D01*
X127004821Y-94255900D01*
X126988348Y-94312000D01*
X126933609Y-94406810D01*
X126933609Y-94406811D01*
X126899500Y-94534108D01*
X126899500Y-94665891D01*
X126933608Y-94793187D01*
X126966554Y-94850250D01*
X126999500Y-94907314D01*
X126999502Y-94907316D01*
X127004505Y-94912319D01*
X127037990Y-94973642D01*
X127033006Y-95043334D01*
X127004505Y-95087681D01*
X126999502Y-95092683D01*
X126999500Y-95092686D01*
X126933608Y-95206812D01*
X126899500Y-95334108D01*
X126899500Y-95465891D01*
X126933608Y-95593187D01*
X126963003Y-95644100D01*
X126999500Y-95707314D01*
X126999502Y-95707316D01*
X127004505Y-95712319D01*
X127037990Y-95773642D01*
X127033006Y-95843334D01*
X127004505Y-95887681D01*
X126999502Y-95892683D01*
X126999500Y-95892686D01*
X126933608Y-96006812D01*
X126917778Y-96065892D01*
X126899500Y-96134108D01*
X126899500Y-96265892D01*
X126905424Y-96288000D01*
X126933608Y-96393187D01*
X126966554Y-96450250D01*
X126999500Y-96507314D01*
X127092686Y-96600500D01*
X127206814Y-96666392D01*
X127334108Y-96700500D01*
X127334110Y-96700500D01*
X127465890Y-96700500D01*
X127465892Y-96700500D01*
X127593186Y-96666392D01*
X127707314Y-96600500D01*
X127712319Y-96595495D01*
X127773642Y-96562010D01*
X127843334Y-96566994D01*
X127887681Y-96595495D01*
X127892686Y-96600500D01*
X128006814Y-96666392D01*
X128134108Y-96700500D01*
X128134110Y-96700500D01*
X128265890Y-96700500D01*
X128265892Y-96700500D01*
X128393186Y-96666392D01*
X128507314Y-96600500D01*
X128512319Y-96595495D01*
X128573642Y-96562010D01*
X128643334Y-96566994D01*
X128687681Y-96595495D01*
X128692686Y-96600500D01*
X128806814Y-96666392D01*
X128934108Y-96700500D01*
X128934110Y-96700500D01*
X129065890Y-96700500D01*
X129065892Y-96700500D01*
X129193186Y-96666392D01*
X129307314Y-96600500D01*
X129307315Y-96600498D01*
X129312999Y-96597217D01*
X129380899Y-96580744D01*
X129437001Y-96597217D01*
X129442684Y-96600498D01*
X129442686Y-96600500D01*
X129556814Y-96666392D01*
X129684108Y-96700500D01*
X129684110Y-96700500D01*
X129815890Y-96700500D01*
X129815892Y-96700500D01*
X129943186Y-96666392D01*
X130057314Y-96600500D01*
X130150500Y-96507314D01*
X130216392Y-96393186D01*
X130250500Y-96265892D01*
X130250500Y-96134108D01*
X130216392Y-96006814D01*
X130150500Y-95892686D01*
X130145495Y-95887681D01*
X130112010Y-95826358D01*
X130116994Y-95756666D01*
X130145495Y-95712319D01*
X130145814Y-95712000D01*
X130150500Y-95707314D01*
X130216392Y-95593186D01*
X130250500Y-95465892D01*
X130250500Y-95334108D01*
X130216392Y-95206814D01*
X130150500Y-95092686D01*
X130145495Y-95087681D01*
X130112010Y-95026358D01*
X130116994Y-94956666D01*
X130145495Y-94912319D01*
X130150500Y-94907314D01*
X130216392Y-94793186D01*
X130250500Y-94665892D01*
X130250500Y-94534108D01*
X130216392Y-94406814D01*
X130161650Y-94311999D01*
X130145178Y-94244100D01*
X130161650Y-94188000D01*
X130216392Y-94093186D01*
X130250500Y-93965892D01*
X130250500Y-93834108D01*
X130216392Y-93706814D01*
X130161650Y-93611999D01*
X130145178Y-93544100D01*
X130161650Y-93488000D01*
X130216392Y-93393186D01*
X130250500Y-93265892D01*
X130250500Y-93134108D01*
X130216392Y-93006814D01*
X130161650Y-92911999D01*
X130145178Y-92844100D01*
X130161650Y-92788000D01*
X130216392Y-92693186D01*
X130250500Y-92565892D01*
X130250500Y-92434108D01*
X130216392Y-92306814D01*
X130150500Y-92192686D01*
X130145495Y-92187681D01*
X130112010Y-92126358D01*
X130116994Y-92056666D01*
X130145495Y-92012319D01*
X130150500Y-92007314D01*
X130216392Y-91893186D01*
X130250500Y-91765892D01*
X130250500Y-91634108D01*
X130216392Y-91506814D01*
X130150500Y-91392686D01*
X130145495Y-91387681D01*
X130112010Y-91326358D01*
X130116994Y-91256666D01*
X130145495Y-91212319D01*
X130150500Y-91207314D01*
X130216392Y-91093186D01*
X130243529Y-90991905D01*
X130279894Y-90932246D01*
X130342741Y-90901717D01*
X130363304Y-90900000D01*
X133525500Y-90900000D01*
X133592539Y-90919685D01*
X133638294Y-90972489D01*
X133649500Y-91024000D01*
X133649500Y-101262036D01*
X133629815Y-101329075D01*
X133613181Y-101349717D01*
X133589513Y-101373384D01*
X133589511Y-101373387D01*
X133534777Y-101468189D01*
X133530201Y-101476114D01*
X133499500Y-101590691D01*
X133499500Y-101709309D01*
X133530201Y-101823886D01*
X133589511Y-101926613D01*
X133673387Y-102010489D01*
X133776114Y-102069799D01*
X133890691Y-102100500D01*
X133890694Y-102100500D01*
X134009306Y-102100500D01*
X134009309Y-102100500D01*
X134123886Y-102069799D01*
X134136925Y-102062270D01*
X134204823Y-102045795D01*
X134270851Y-102068644D01*
X134311801Y-102118314D01*
X134316048Y-102127651D01*
X134333608Y-102193186D01*
X134391344Y-102293187D01*
X134393833Y-102298659D01*
X134397941Y-102327542D01*
X134404821Y-102355900D01*
X134402903Y-102362429D01*
X134403672Y-102367832D01*
X134397123Y-102382113D01*
X134388348Y-102412000D01*
X134333609Y-102506810D01*
X134333609Y-102506811D01*
X134333609Y-102506812D01*
X134333608Y-102506814D01*
X134312945Y-102583930D01*
X134299500Y-102634108D01*
X134299500Y-102765891D01*
X134333608Y-102893187D01*
X134336532Y-102898251D01*
X134399500Y-103007314D01*
X134492686Y-103100500D01*
X134591521Y-103157563D01*
X134591956Y-103157814D01*
X134606814Y-103166392D01*
X134734108Y-103200500D01*
X134734110Y-103200500D01*
X134865890Y-103200500D01*
X134865892Y-103200500D01*
X134993186Y-103166392D01*
X135088000Y-103111650D01*
X135155900Y-103095178D01*
X135211999Y-103111650D01*
X135263511Y-103141391D01*
X135291956Y-103157814D01*
X135306814Y-103166392D01*
X135434108Y-103200500D01*
X135434110Y-103200500D01*
X135565890Y-103200500D01*
X135565892Y-103200500D01*
X135693186Y-103166392D01*
X135807314Y-103100500D01*
X135900500Y-103007314D01*
X135966392Y-102893186D01*
X136000500Y-102765892D01*
X136000500Y-102634108D01*
X135966392Y-102506814D01*
X135911650Y-102411999D01*
X135895178Y-102344100D01*
X135911650Y-102288000D01*
X135966392Y-102193186D01*
X136000500Y-102065892D01*
X136000500Y-101934108D01*
X135966392Y-101806814D01*
X135911650Y-101711999D01*
X135895178Y-101644100D01*
X135911650Y-101588000D01*
X135966392Y-101493186D01*
X136000500Y-101365892D01*
X136000500Y-101234108D01*
X135993801Y-101209108D01*
X136599500Y-101209108D01*
X136599500Y-101340892D01*
X136632993Y-101465892D01*
X136633609Y-101468188D01*
X136633609Y-101468189D01*
X136688348Y-101563000D01*
X136704821Y-101630900D01*
X136688348Y-101687000D01*
X136633609Y-101781810D01*
X136633609Y-101781811D01*
X136633609Y-101781812D01*
X136633608Y-101781814D01*
X136599500Y-101909108D01*
X136599500Y-102040892D01*
X136632993Y-102165892D01*
X136633609Y-102168188D01*
X136633609Y-102168189D01*
X136688348Y-102263000D01*
X136704821Y-102330900D01*
X136688348Y-102387000D01*
X136633609Y-102481810D01*
X136633609Y-102481811D01*
X136633609Y-102481812D01*
X136633608Y-102481814D01*
X136599500Y-102609108D01*
X136599500Y-102740892D01*
X136606199Y-102765892D01*
X136633608Y-102868187D01*
X136648042Y-102893187D01*
X136699500Y-102982314D01*
X136792686Y-103075500D01*
X136906814Y-103141392D01*
X137034108Y-103175500D01*
X137034110Y-103175500D01*
X137165890Y-103175500D01*
X137165892Y-103175500D01*
X137293186Y-103141392D01*
X137388000Y-103086650D01*
X137455900Y-103070178D01*
X137511999Y-103086650D01*
X137606814Y-103141392D01*
X137734108Y-103175500D01*
X137734110Y-103175500D01*
X137865890Y-103175500D01*
X137865892Y-103175500D01*
X137993186Y-103141392D01*
X138107314Y-103075500D01*
X138200500Y-102982314D01*
X138266392Y-102868186D01*
X138300500Y-102740892D01*
X138300500Y-102609108D01*
X138266392Y-102481814D01*
X138211650Y-102386999D01*
X138195178Y-102319100D01*
X138211650Y-102263000D01*
X138266392Y-102168186D01*
X138300500Y-102040892D01*
X138300500Y-101909108D01*
X138266392Y-101781814D01*
X138211650Y-101686999D01*
X138195178Y-101619100D01*
X138211650Y-101563000D01*
X138266392Y-101468186D01*
X138300500Y-101340892D01*
X138300500Y-101209108D01*
X138999500Y-101209108D01*
X138999500Y-101340892D01*
X139032993Y-101465892D01*
X139033609Y-101468188D01*
X139033609Y-101468189D01*
X139088348Y-101563000D01*
X139104821Y-101630900D01*
X139088348Y-101687000D01*
X139033609Y-101781810D01*
X139033609Y-101781811D01*
X139033609Y-101781812D01*
X139033608Y-101781814D01*
X138999500Y-101909108D01*
X138999500Y-102040892D01*
X139032993Y-102165892D01*
X139033609Y-102168188D01*
X139033609Y-102168189D01*
X139088348Y-102263000D01*
X139104821Y-102330900D01*
X139088348Y-102387000D01*
X139033609Y-102481810D01*
X139033609Y-102481811D01*
X139033609Y-102481812D01*
X139033608Y-102481814D01*
X138999500Y-102609108D01*
X138999500Y-102740892D01*
X139006199Y-102765892D01*
X139033608Y-102868187D01*
X139048042Y-102893187D01*
X139099500Y-102982314D01*
X139192686Y-103075500D01*
X139306814Y-103141392D01*
X139434108Y-103175500D01*
X139434110Y-103175500D01*
X139565890Y-103175500D01*
X139565892Y-103175500D01*
X139693186Y-103141392D01*
X139788000Y-103086650D01*
X139855900Y-103070178D01*
X139911999Y-103086650D01*
X140006814Y-103141392D01*
X140134108Y-103175500D01*
X140134110Y-103175500D01*
X140265890Y-103175500D01*
X140265892Y-103175500D01*
X140393186Y-103141392D01*
X140507314Y-103075500D01*
X140600500Y-102982314D01*
X140666392Y-102868186D01*
X140700500Y-102740892D01*
X140700500Y-102609108D01*
X140666392Y-102481814D01*
X140611650Y-102386999D01*
X140595178Y-102319100D01*
X140611650Y-102263000D01*
X140666392Y-102168186D01*
X140700500Y-102040892D01*
X140700500Y-101909108D01*
X140666392Y-101781814D01*
X140611650Y-101686999D01*
X140595178Y-101619100D01*
X140611650Y-101563000D01*
X140666392Y-101468186D01*
X140700500Y-101340892D01*
X140700500Y-101209108D01*
X141299500Y-101209108D01*
X141299500Y-101340892D01*
X141332993Y-101465892D01*
X141333609Y-101468188D01*
X141333609Y-101468189D01*
X141388348Y-101563000D01*
X141404821Y-101630900D01*
X141388348Y-101687000D01*
X141333609Y-101781810D01*
X141333609Y-101781811D01*
X141333609Y-101781812D01*
X141333608Y-101781814D01*
X141299500Y-101909108D01*
X141299500Y-102040892D01*
X141332993Y-102165892D01*
X141333609Y-102168188D01*
X141333609Y-102168189D01*
X141388348Y-102263000D01*
X141404821Y-102330900D01*
X141388348Y-102387000D01*
X141333609Y-102481810D01*
X141333609Y-102481811D01*
X141333609Y-102481812D01*
X141333608Y-102481814D01*
X141299500Y-102609108D01*
X141299500Y-102740892D01*
X141306199Y-102765892D01*
X141333608Y-102868187D01*
X141348042Y-102893187D01*
X141399500Y-102982314D01*
X141492686Y-103075500D01*
X141606814Y-103141392D01*
X141734108Y-103175500D01*
X141734110Y-103175500D01*
X141865890Y-103175500D01*
X141865892Y-103175500D01*
X141993186Y-103141392D01*
X142088000Y-103086650D01*
X142155900Y-103070178D01*
X142211999Y-103086650D01*
X142306814Y-103141392D01*
X142434108Y-103175500D01*
X142434110Y-103175500D01*
X142565890Y-103175500D01*
X142565892Y-103175500D01*
X142693186Y-103141392D01*
X142807314Y-103075500D01*
X142900500Y-102982314D01*
X142966392Y-102868186D01*
X143000500Y-102740892D01*
X143000500Y-102609108D01*
X142966392Y-102481814D01*
X142911650Y-102386999D01*
X142895178Y-102319100D01*
X142911650Y-102263000D01*
X142966392Y-102168186D01*
X143000500Y-102040892D01*
X143000500Y-101909108D01*
X142966392Y-101781814D01*
X142911650Y-101686999D01*
X142895178Y-101619100D01*
X142911650Y-101563000D01*
X142966392Y-101468186D01*
X143000500Y-101340892D01*
X143000500Y-101209108D01*
X143499500Y-101209108D01*
X143499500Y-101340892D01*
X143532993Y-101465892D01*
X143533609Y-101468188D01*
X143533609Y-101468189D01*
X143588348Y-101563000D01*
X143604821Y-101630900D01*
X143588348Y-101687000D01*
X143533609Y-101781810D01*
X143533609Y-101781811D01*
X143533609Y-101781812D01*
X143533608Y-101781814D01*
X143499500Y-101909108D01*
X143499500Y-102040892D01*
X143532993Y-102165892D01*
X143533609Y-102168188D01*
X143533609Y-102168189D01*
X143588348Y-102263000D01*
X143604821Y-102330900D01*
X143588348Y-102387000D01*
X143533609Y-102481810D01*
X143533609Y-102481811D01*
X143533609Y-102481812D01*
X143533608Y-102481814D01*
X143499500Y-102609108D01*
X143499500Y-102740892D01*
X143506199Y-102765892D01*
X143533608Y-102868187D01*
X143548042Y-102893187D01*
X143599500Y-102982314D01*
X143692686Y-103075500D01*
X143806814Y-103141392D01*
X143934108Y-103175500D01*
X143934110Y-103175500D01*
X144065890Y-103175500D01*
X144065892Y-103175500D01*
X144193186Y-103141392D01*
X144288000Y-103086650D01*
X144355900Y-103070178D01*
X144411999Y-103086650D01*
X144506814Y-103141392D01*
X144634108Y-103175500D01*
X144634110Y-103175500D01*
X144765890Y-103175500D01*
X144765892Y-103175500D01*
X144893186Y-103141392D01*
X145007314Y-103075500D01*
X145100500Y-102982314D01*
X145166392Y-102868186D01*
X145200500Y-102740892D01*
X145200500Y-102609108D01*
X145166392Y-102481814D01*
X145111650Y-102386999D01*
X145095178Y-102319100D01*
X145111650Y-102263000D01*
X145166392Y-102168186D01*
X145200500Y-102040892D01*
X145200500Y-101909108D01*
X145166392Y-101781814D01*
X145111650Y-101686999D01*
X145095178Y-101619100D01*
X145111650Y-101563000D01*
X145166392Y-101468186D01*
X145200500Y-101340892D01*
X145200500Y-101209108D01*
X145879500Y-101209108D01*
X145879500Y-101340892D01*
X145912993Y-101465892D01*
X145913609Y-101468188D01*
X145913609Y-101468189D01*
X145968348Y-101563000D01*
X145984821Y-101630900D01*
X145968348Y-101687000D01*
X145913609Y-101781810D01*
X145913609Y-101781811D01*
X145913609Y-101781812D01*
X145913608Y-101781814D01*
X145879500Y-101909108D01*
X145879500Y-102040892D01*
X145912993Y-102165892D01*
X145913609Y-102168188D01*
X145913609Y-102168189D01*
X145968348Y-102263000D01*
X145984821Y-102330900D01*
X145968348Y-102387000D01*
X145913609Y-102481810D01*
X145913609Y-102481811D01*
X145913609Y-102481812D01*
X145913608Y-102481814D01*
X145879500Y-102609108D01*
X145879500Y-102740892D01*
X145886199Y-102765892D01*
X145913608Y-102868187D01*
X145928042Y-102893187D01*
X145979500Y-102982314D01*
X146072686Y-103075500D01*
X146186814Y-103141392D01*
X146314108Y-103175500D01*
X146314110Y-103175500D01*
X146445890Y-103175500D01*
X146445892Y-103175500D01*
X146573186Y-103141392D01*
X146668000Y-103086650D01*
X146735900Y-103070178D01*
X146791999Y-103086650D01*
X146886814Y-103141392D01*
X147014108Y-103175500D01*
X147014110Y-103175500D01*
X147145890Y-103175500D01*
X147145892Y-103175500D01*
X147273186Y-103141392D01*
X147387314Y-103075500D01*
X147480500Y-102982314D01*
X147546392Y-102868186D01*
X147580500Y-102740892D01*
X147580500Y-102609108D01*
X147546392Y-102481814D01*
X147491650Y-102386999D01*
X147475178Y-102319100D01*
X147491650Y-102263000D01*
X147546392Y-102168186D01*
X147580500Y-102040892D01*
X147580500Y-101909108D01*
X147546392Y-101781814D01*
X147491650Y-101686999D01*
X147475178Y-101619100D01*
X147491650Y-101563000D01*
X147546392Y-101468186D01*
X147580500Y-101340892D01*
X147580500Y-101209108D01*
X147546392Y-101081814D01*
X147480500Y-100967686D01*
X147387314Y-100874500D01*
X147316487Y-100833608D01*
X147273187Y-100808608D01*
X147209539Y-100791554D01*
X147145892Y-100774500D01*
X147014108Y-100774500D01*
X146886814Y-100808608D01*
X146886813Y-100808608D01*
X146886811Y-100808609D01*
X146886810Y-100808609D01*
X146792000Y-100863348D01*
X146724100Y-100879821D01*
X146668000Y-100863348D01*
X146573189Y-100808609D01*
X146573186Y-100808608D01*
X146445892Y-100774500D01*
X146314108Y-100774500D01*
X146186812Y-100808608D01*
X146072686Y-100874500D01*
X146072683Y-100874502D01*
X145979502Y-100967683D01*
X145979500Y-100967686D01*
X145913608Y-101081812D01*
X145880115Y-101206812D01*
X145879500Y-101209108D01*
X145200500Y-101209108D01*
X145166392Y-101081814D01*
X145100500Y-100967686D01*
X145007314Y-100874500D01*
X144936487Y-100833608D01*
X144893187Y-100808608D01*
X144829539Y-100791554D01*
X144765892Y-100774500D01*
X144634108Y-100774500D01*
X144506814Y-100808608D01*
X144506813Y-100808608D01*
X144506811Y-100808609D01*
X144506810Y-100808609D01*
X144412000Y-100863348D01*
X144344100Y-100879821D01*
X144288000Y-100863348D01*
X144193189Y-100808609D01*
X144193186Y-100808608D01*
X144065892Y-100774500D01*
X143934108Y-100774500D01*
X143806812Y-100808608D01*
X143692686Y-100874500D01*
X143692683Y-100874502D01*
X143599502Y-100967683D01*
X143599500Y-100967686D01*
X143533608Y-101081812D01*
X143500115Y-101206812D01*
X143499500Y-101209108D01*
X143000500Y-101209108D01*
X142966392Y-101081814D01*
X142900500Y-100967686D01*
X142807314Y-100874500D01*
X142736487Y-100833608D01*
X142693187Y-100808608D01*
X142629539Y-100791554D01*
X142565892Y-100774500D01*
X142434108Y-100774500D01*
X142306814Y-100808608D01*
X142306813Y-100808608D01*
X142306811Y-100808609D01*
X142306810Y-100808609D01*
X142212000Y-100863348D01*
X142144100Y-100879821D01*
X142088000Y-100863348D01*
X141993189Y-100808609D01*
X141993186Y-100808608D01*
X141865892Y-100774500D01*
X141734108Y-100774500D01*
X141606812Y-100808608D01*
X141492686Y-100874500D01*
X141492683Y-100874502D01*
X141399502Y-100967683D01*
X141399500Y-100967686D01*
X141333608Y-101081812D01*
X141300115Y-101206812D01*
X141299500Y-101209108D01*
X140700500Y-101209108D01*
X140666392Y-101081814D01*
X140600500Y-100967686D01*
X140507314Y-100874500D01*
X140436487Y-100833608D01*
X140393187Y-100808608D01*
X140329539Y-100791554D01*
X140265892Y-100774500D01*
X140134108Y-100774500D01*
X140006814Y-100808608D01*
X140006813Y-100808608D01*
X140006811Y-100808609D01*
X140006810Y-100808609D01*
X139912000Y-100863348D01*
X139844100Y-100879821D01*
X139788000Y-100863348D01*
X139693189Y-100808609D01*
X139693186Y-100808608D01*
X139565892Y-100774500D01*
X139434108Y-100774500D01*
X139306812Y-100808608D01*
X139192686Y-100874500D01*
X139192683Y-100874502D01*
X139099502Y-100967683D01*
X139099500Y-100967686D01*
X139033608Y-101081812D01*
X139000115Y-101206812D01*
X138999500Y-101209108D01*
X138300500Y-101209108D01*
X138266392Y-101081814D01*
X138200500Y-100967686D01*
X138107314Y-100874500D01*
X138036487Y-100833608D01*
X137993187Y-100808608D01*
X137929539Y-100791554D01*
X137865892Y-100774500D01*
X137734108Y-100774500D01*
X137606814Y-100808608D01*
X137606813Y-100808608D01*
X137606811Y-100808609D01*
X137606810Y-100808609D01*
X137512000Y-100863348D01*
X137444100Y-100879821D01*
X137388000Y-100863348D01*
X137293189Y-100808609D01*
X137293186Y-100808608D01*
X137165892Y-100774500D01*
X137034108Y-100774500D01*
X136906812Y-100808608D01*
X136792686Y-100874500D01*
X136792683Y-100874502D01*
X136699502Y-100967683D01*
X136699500Y-100967686D01*
X136633608Y-101081812D01*
X136600115Y-101206812D01*
X136599500Y-101209108D01*
X135993801Y-101209108D01*
X135966392Y-101106814D01*
X135900500Y-100992686D01*
X135807314Y-100899500D01*
X135744697Y-100863348D01*
X135693187Y-100833608D01*
X135629539Y-100816554D01*
X135565892Y-100799500D01*
X135434108Y-100799500D01*
X135306814Y-100833608D01*
X135306813Y-100833608D01*
X135306811Y-100833609D01*
X135306810Y-100833609D01*
X135212000Y-100888348D01*
X135144100Y-100904821D01*
X135088000Y-100888348D01*
X134993189Y-100833609D01*
X134993186Y-100833608D01*
X134865892Y-100799500D01*
X134734108Y-100799500D01*
X134606812Y-100833608D01*
X134492686Y-100899500D01*
X134492683Y-100899502D01*
X134462181Y-100930005D01*
X134400858Y-100963490D01*
X134331166Y-100958506D01*
X134275233Y-100916634D01*
X134250816Y-100851170D01*
X134250500Y-100842324D01*
X134250500Y-100234108D01*
X152099500Y-100234108D01*
X152099500Y-100365891D01*
X152133608Y-100493187D01*
X152155263Y-100530693D01*
X152199500Y-100607314D01*
X152199502Y-100607316D01*
X152204505Y-100612319D01*
X152237990Y-100673642D01*
X152233006Y-100743334D01*
X152204505Y-100787681D01*
X152199502Y-100792683D01*
X152199500Y-100792686D01*
X152133608Y-100906812D01*
X152099500Y-101034108D01*
X152099500Y-101165891D01*
X152133608Y-101293187D01*
X152161151Y-101340892D01*
X152199500Y-101407314D01*
X152199502Y-101407316D01*
X152229505Y-101437319D01*
X152262990Y-101498642D01*
X152258006Y-101568334D01*
X152229505Y-101612681D01*
X152199502Y-101642683D01*
X152199500Y-101642686D01*
X152133608Y-101756812D01*
X152118821Y-101812000D01*
X152099500Y-101884108D01*
X152099500Y-102015892D01*
X152111927Y-102062271D01*
X152133608Y-102143187D01*
X152162476Y-102193186D01*
X152199500Y-102257314D01*
X152199502Y-102257316D01*
X152204505Y-102262319D01*
X152237990Y-102323642D01*
X152233006Y-102393334D01*
X152204505Y-102437681D01*
X152199502Y-102442683D01*
X152199500Y-102442686D01*
X152133608Y-102556812D01*
X152099500Y-102684108D01*
X152099500Y-102815891D01*
X152133608Y-102943187D01*
X152156200Y-102982316D01*
X152199500Y-103057314D01*
X152199502Y-103057316D01*
X152204505Y-103062319D01*
X152237990Y-103123642D01*
X152233006Y-103193334D01*
X152204505Y-103237681D01*
X152199502Y-103242683D01*
X152199500Y-103242686D01*
X152133608Y-103356812D01*
X152099500Y-103484108D01*
X152099500Y-103615891D01*
X152133608Y-103743187D01*
X152144654Y-103762319D01*
X152199500Y-103857314D01*
X152199502Y-103857316D01*
X152204505Y-103862319D01*
X152237990Y-103923642D01*
X152233006Y-103993334D01*
X152204505Y-104037681D01*
X152199502Y-104042683D01*
X152199500Y-104042686D01*
X152133608Y-104156812D01*
X152099500Y-104284108D01*
X152099500Y-104415891D01*
X152133608Y-104543187D01*
X152166554Y-104600250D01*
X152199500Y-104657314D01*
X152199502Y-104657316D01*
X152229505Y-104687319D01*
X152262990Y-104748642D01*
X152258006Y-104818334D01*
X152229505Y-104862681D01*
X152199502Y-104892683D01*
X152199500Y-104892686D01*
X152133608Y-105006812D01*
X152099500Y-105134108D01*
X152099500Y-105265891D01*
X152133608Y-105393187D01*
X152166554Y-105450250D01*
X152199500Y-105507314D01*
X152199502Y-105507316D01*
X152204505Y-105512319D01*
X152237990Y-105573642D01*
X152233006Y-105643334D01*
X152204505Y-105687681D01*
X152199502Y-105692683D01*
X152199500Y-105692686D01*
X152133608Y-105806812D01*
X152123862Y-105843186D01*
X152099500Y-105934108D01*
X152099500Y-106065892D01*
X152106853Y-106093334D01*
X152133608Y-106193187D01*
X152166554Y-106250250D01*
X152199500Y-106307314D01*
X152292686Y-106400500D01*
X152406814Y-106466392D01*
X152534108Y-106500500D01*
X152534110Y-106500500D01*
X152665890Y-106500500D01*
X152665892Y-106500500D01*
X152793186Y-106466392D01*
X152907314Y-106400500D01*
X152912319Y-106395495D01*
X152973642Y-106362010D01*
X153043334Y-106366994D01*
X153087681Y-106395495D01*
X153092686Y-106400500D01*
X153206814Y-106466392D01*
X153334108Y-106500500D01*
X153334110Y-106500500D01*
X153465890Y-106500500D01*
X153465892Y-106500500D01*
X153593186Y-106466392D01*
X153707314Y-106400500D01*
X153712319Y-106395495D01*
X153773642Y-106362010D01*
X153843334Y-106366994D01*
X153887681Y-106395495D01*
X153892686Y-106400500D01*
X154006814Y-106466392D01*
X154134108Y-106500500D01*
X154134110Y-106500500D01*
X154265890Y-106500500D01*
X154265892Y-106500500D01*
X154393186Y-106466392D01*
X154507314Y-106400500D01*
X154512319Y-106395495D01*
X154573642Y-106362010D01*
X154643334Y-106366994D01*
X154687681Y-106395495D01*
X154692686Y-106400500D01*
X154806814Y-106466392D01*
X154934108Y-106500500D01*
X154934110Y-106500500D01*
X155065890Y-106500500D01*
X155065892Y-106500500D01*
X155193186Y-106466392D01*
X155307314Y-106400500D01*
X155400500Y-106307314D01*
X155466392Y-106193186D01*
X155500500Y-106065892D01*
X155500500Y-105934108D01*
X155466392Y-105806814D01*
X155400500Y-105692686D01*
X155395495Y-105687681D01*
X155362010Y-105626358D01*
X155366994Y-105556666D01*
X155395495Y-105512319D01*
X155400500Y-105507314D01*
X155466392Y-105393186D01*
X155500500Y-105265892D01*
X155500500Y-105134108D01*
X155466392Y-105006814D01*
X155400500Y-104892686D01*
X155370495Y-104862681D01*
X155337010Y-104801358D01*
X155341994Y-104731666D01*
X155370495Y-104687319D01*
X155400500Y-104657314D01*
X155466392Y-104543186D01*
X155500500Y-104415892D01*
X155500500Y-104284108D01*
X155466392Y-104156814D01*
X155400500Y-104042686D01*
X155395495Y-104037681D01*
X155362010Y-103976358D01*
X155366994Y-103906666D01*
X155395495Y-103862319D01*
X155400500Y-103857314D01*
X155466392Y-103743186D01*
X155500500Y-103615892D01*
X155500500Y-103484108D01*
X155466392Y-103356814D01*
X155400500Y-103242686D01*
X155395495Y-103237681D01*
X155362010Y-103176358D01*
X155366994Y-103106666D01*
X155395495Y-103062319D01*
X155397328Y-103060486D01*
X155400500Y-103057314D01*
X155466392Y-102943186D01*
X155500500Y-102815892D01*
X155500500Y-102684108D01*
X155466392Y-102556814D01*
X155400500Y-102442686D01*
X155395495Y-102437681D01*
X155362010Y-102376358D01*
X155366994Y-102306666D01*
X155395495Y-102262319D01*
X155400500Y-102257314D01*
X155466392Y-102143186D01*
X155500500Y-102015892D01*
X155500500Y-101884108D01*
X155466392Y-101756814D01*
X155400500Y-101642686D01*
X155370495Y-101612681D01*
X155337010Y-101551358D01*
X155341994Y-101481666D01*
X155370495Y-101437319D01*
X155374206Y-101433608D01*
X155400500Y-101407314D01*
X155466392Y-101293186D01*
X155500500Y-101165892D01*
X155500500Y-101034108D01*
X155466392Y-100906814D01*
X155400500Y-100792686D01*
X155395495Y-100787681D01*
X155362010Y-100726358D01*
X155366994Y-100656666D01*
X155395495Y-100612319D01*
X155400500Y-100607314D01*
X155466392Y-100493186D01*
X155500500Y-100365892D01*
X155500500Y-100234108D01*
X155466392Y-100106814D01*
X155400500Y-99992686D01*
X155307314Y-99899500D01*
X155250250Y-99866554D01*
X155193187Y-99833608D01*
X155129539Y-99816554D01*
X155065892Y-99799500D01*
X154934108Y-99799500D01*
X154806812Y-99833608D01*
X154692686Y-99899500D01*
X154692683Y-99899502D01*
X154687681Y-99904505D01*
X154626358Y-99937990D01*
X154556666Y-99933006D01*
X154512319Y-99904505D01*
X154507316Y-99899502D01*
X154507314Y-99899500D01*
X154450250Y-99866554D01*
X154393187Y-99833608D01*
X154329539Y-99816554D01*
X154265892Y-99799500D01*
X154134108Y-99799500D01*
X154006812Y-99833608D01*
X153892686Y-99899500D01*
X153892683Y-99899502D01*
X153887681Y-99904505D01*
X153826358Y-99937990D01*
X153756666Y-99933006D01*
X153712319Y-99904505D01*
X153707316Y-99899502D01*
X153707314Y-99899500D01*
X153650250Y-99866554D01*
X153593187Y-99833608D01*
X153529539Y-99816554D01*
X153465892Y-99799500D01*
X153334108Y-99799500D01*
X153206812Y-99833608D01*
X153092686Y-99899500D01*
X153092683Y-99899502D01*
X153087681Y-99904505D01*
X153026358Y-99937990D01*
X152956666Y-99933006D01*
X152912319Y-99904505D01*
X152907316Y-99899502D01*
X152907314Y-99899500D01*
X152850250Y-99866554D01*
X152793187Y-99833608D01*
X152729539Y-99816554D01*
X152665892Y-99799500D01*
X152534108Y-99799500D01*
X152406812Y-99833608D01*
X152292686Y-99899500D01*
X152292683Y-99899502D01*
X152199502Y-99992683D01*
X152199500Y-99992686D01*
X152133608Y-100106812D01*
X152099500Y-100234108D01*
X134250500Y-100234108D01*
X134250500Y-91024000D01*
X134270185Y-90956961D01*
X134322989Y-90911206D01*
X134374500Y-90900000D01*
X142700000Y-90900000D01*
X142700000Y-83724000D01*
X142719685Y-83656961D01*
X142772489Y-83611206D01*
X142824000Y-83600000D01*
X147876000Y-83600000D01*
X147943039Y-83619685D01*
X147988794Y-83672489D01*
X148000000Y-83724000D01*
X148000000Y-90900000D01*
X149625500Y-90900000D01*
X149692539Y-90919685D01*
X149738294Y-90972489D01*
X149749500Y-91024000D01*
X149749500Y-91091892D01*
X149754919Y-91112117D01*
X149783608Y-91219187D01*
X149791476Y-91232814D01*
X149849500Y-91333314D01*
X149870505Y-91354319D01*
X149870506Y-91354320D01*
X149903990Y-91415644D01*
X149899004Y-91485336D01*
X149870506Y-91529680D01*
X149849500Y-91550686D01*
X149783608Y-91664812D01*
X149749500Y-91792108D01*
X149749500Y-91923891D01*
X149783608Y-92051187D01*
X149811791Y-92100000D01*
X149849500Y-92165314D01*
X149870505Y-92186319D01*
X149870506Y-92186320D01*
X149903990Y-92247644D01*
X149899004Y-92317336D01*
X149870506Y-92361680D01*
X149849500Y-92382686D01*
X149783608Y-92496812D01*
X149765099Y-92565890D01*
X149749500Y-92624108D01*
X149749500Y-92755892D01*
X149758103Y-92787999D01*
X149783608Y-92883187D01*
X149800244Y-92912000D01*
X149849500Y-92997314D01*
X149942686Y-93090500D01*
X150056814Y-93156392D01*
X150184108Y-93190500D01*
X150184110Y-93190500D01*
X150315890Y-93190500D01*
X150315892Y-93190500D01*
X150443186Y-93156392D01*
X150557314Y-93090500D01*
X150650500Y-92997314D01*
X150716392Y-92883186D01*
X150750500Y-92755892D01*
X150750500Y-92624108D01*
X150716392Y-92496814D01*
X150650500Y-92382686D01*
X150629494Y-92361680D01*
X150596010Y-92300358D01*
X150600994Y-92230666D01*
X150629495Y-92186319D01*
X150650500Y-92165314D01*
X150716392Y-92051186D01*
X150750500Y-91923892D01*
X150750500Y-91792108D01*
X150734959Y-91734108D01*
X152299500Y-91734108D01*
X152299500Y-91865892D01*
X152333473Y-91992683D01*
X152333609Y-91993188D01*
X152333609Y-91993189D01*
X152388348Y-92088000D01*
X152404821Y-92155900D01*
X152388348Y-92212000D01*
X152333609Y-92306810D01*
X152333609Y-92306811D01*
X152333609Y-92306812D01*
X152333608Y-92306814D01*
X152299500Y-92434108D01*
X152299500Y-92565892D01*
X152315099Y-92624110D01*
X152333609Y-92693188D01*
X152333609Y-92693189D01*
X152388348Y-92788000D01*
X152404821Y-92855900D01*
X152388348Y-92912000D01*
X152333609Y-93006810D01*
X152333609Y-93006811D01*
X152299500Y-93134108D01*
X152299500Y-93265891D01*
X152333609Y-93393188D01*
X152333609Y-93393189D01*
X152388348Y-93488000D01*
X152404821Y-93555900D01*
X152388348Y-93612000D01*
X152333609Y-93706810D01*
X152333609Y-93706811D01*
X152299500Y-93834108D01*
X152299500Y-93965891D01*
X152333609Y-94093188D01*
X152333609Y-94093189D01*
X152388348Y-94188000D01*
X152404821Y-94255900D01*
X152388348Y-94312000D01*
X152333609Y-94406810D01*
X152333609Y-94406811D01*
X152299500Y-94534108D01*
X152299500Y-94665891D01*
X152333609Y-94793188D01*
X152333609Y-94793189D01*
X152388348Y-94888000D01*
X152404821Y-94955900D01*
X152388348Y-95012000D01*
X152333609Y-95106810D01*
X152333609Y-95106811D01*
X152333609Y-95106812D01*
X152333608Y-95106814D01*
X152299500Y-95234108D01*
X152299500Y-95365892D01*
X152326294Y-95465891D01*
X152333609Y-95493188D01*
X152333609Y-95493189D01*
X152388348Y-95588000D01*
X152404821Y-95655900D01*
X152388348Y-95712000D01*
X152333609Y-95806810D01*
X152333609Y-95806811D01*
X152333609Y-95806812D01*
X152333608Y-95806814D01*
X152299500Y-95934108D01*
X152299500Y-96065892D01*
X152317778Y-96134108D01*
X152333609Y-96193188D01*
X152333609Y-96193189D01*
X152388348Y-96288000D01*
X152404821Y-96355900D01*
X152388348Y-96412000D01*
X152333609Y-96506810D01*
X152333609Y-96506811D01*
X152333609Y-96506812D01*
X152333608Y-96506814D01*
X152317483Y-96566994D01*
X152299500Y-96634108D01*
X152299500Y-96765891D01*
X152333608Y-96893187D01*
X152366554Y-96950250D01*
X152399500Y-97007314D01*
X152492686Y-97100500D01*
X152606814Y-97166392D01*
X152734108Y-97200500D01*
X152734110Y-97200500D01*
X152865890Y-97200500D01*
X152865892Y-97200500D01*
X152993186Y-97166392D01*
X153088000Y-97111650D01*
X153155900Y-97095178D01*
X153211999Y-97111650D01*
X153306814Y-97166392D01*
X153434108Y-97200500D01*
X153434110Y-97200500D01*
X153565890Y-97200500D01*
X153565892Y-97200500D01*
X153693186Y-97166392D01*
X153788000Y-97111650D01*
X153855900Y-97095178D01*
X153911999Y-97111650D01*
X154006814Y-97166392D01*
X154134108Y-97200500D01*
X154134110Y-97200500D01*
X154265890Y-97200500D01*
X154265892Y-97200500D01*
X154393186Y-97166392D01*
X154488000Y-97111650D01*
X154555900Y-97095178D01*
X154611999Y-97111650D01*
X154706814Y-97166392D01*
X154834108Y-97200500D01*
X154834110Y-97200500D01*
X154965890Y-97200500D01*
X154965892Y-97200500D01*
X155093186Y-97166392D01*
X155207314Y-97100500D01*
X155300500Y-97007314D01*
X155366392Y-96893186D01*
X155400500Y-96765892D01*
X155400500Y-96634108D01*
X155366392Y-96506814D01*
X155311650Y-96411999D01*
X155295178Y-96344100D01*
X155311650Y-96288000D01*
X155366392Y-96193186D01*
X155400500Y-96065892D01*
X155400500Y-95934108D01*
X155366392Y-95806814D01*
X155311650Y-95711999D01*
X155295178Y-95644100D01*
X155311650Y-95588000D01*
X155366392Y-95493186D01*
X155400500Y-95365892D01*
X155400500Y-95234108D01*
X155366392Y-95106814D01*
X155357946Y-95092186D01*
X155343513Y-95067186D01*
X155311650Y-95011999D01*
X155295178Y-94944100D01*
X155311650Y-94888000D01*
X155366392Y-94793186D01*
X155400500Y-94665892D01*
X155400500Y-94534108D01*
X155366392Y-94406814D01*
X155311650Y-94311999D01*
X155295178Y-94244100D01*
X155311650Y-94188000D01*
X155366392Y-94093186D01*
X155400500Y-93965892D01*
X155400500Y-93834108D01*
X155366392Y-93706814D01*
X155311650Y-93611999D01*
X155295178Y-93544100D01*
X155311650Y-93488000D01*
X155366392Y-93393186D01*
X155400500Y-93265892D01*
X155400500Y-93134108D01*
X155366392Y-93006814D01*
X155311650Y-92911999D01*
X155295178Y-92844100D01*
X155311650Y-92788000D01*
X155366392Y-92693186D01*
X155400500Y-92565892D01*
X155400500Y-92434108D01*
X155366392Y-92306814D01*
X155311650Y-92211999D01*
X155295178Y-92144100D01*
X155311650Y-92088000D01*
X155366392Y-91993186D01*
X155400500Y-91865892D01*
X155400500Y-91734108D01*
X155366392Y-91606814D01*
X155300500Y-91492686D01*
X155207314Y-91399500D01*
X155150250Y-91366554D01*
X155093187Y-91333608D01*
X154982910Y-91304060D01*
X154965892Y-91299500D01*
X154834108Y-91299500D01*
X154706814Y-91333608D01*
X154706813Y-91333608D01*
X154706811Y-91333609D01*
X154706810Y-91333609D01*
X154612000Y-91388348D01*
X154544100Y-91404821D01*
X154488000Y-91388348D01*
X154393189Y-91333609D01*
X154393186Y-91333608D01*
X154265892Y-91299500D01*
X154134108Y-91299500D01*
X154006814Y-91333608D01*
X154006813Y-91333608D01*
X154006811Y-91333609D01*
X154006810Y-91333609D01*
X153912000Y-91388348D01*
X153844100Y-91404821D01*
X153788000Y-91388348D01*
X153693189Y-91333609D01*
X153693186Y-91333608D01*
X153565892Y-91299500D01*
X153434108Y-91299500D01*
X153306814Y-91333608D01*
X153306813Y-91333608D01*
X153306811Y-91333609D01*
X153306810Y-91333609D01*
X153212000Y-91388348D01*
X153144100Y-91404821D01*
X153088000Y-91388348D01*
X152993189Y-91333609D01*
X152993186Y-91333608D01*
X152865892Y-91299500D01*
X152734108Y-91299500D01*
X152606812Y-91333608D01*
X152492686Y-91399500D01*
X152492683Y-91399502D01*
X152399502Y-91492683D01*
X152399500Y-91492686D01*
X152333608Y-91606812D01*
X152317163Y-91668187D01*
X152299500Y-91734108D01*
X150734959Y-91734108D01*
X150716392Y-91664814D01*
X150650500Y-91550686D01*
X150629494Y-91529680D01*
X150596010Y-91468358D01*
X150600994Y-91398666D01*
X150629495Y-91354319D01*
X150650500Y-91333314D01*
X150716392Y-91219186D01*
X150750500Y-91091892D01*
X150750500Y-91024000D01*
X150770185Y-90956961D01*
X150822989Y-90911206D01*
X150874500Y-90900000D01*
X158748638Y-90900000D01*
X158815677Y-90919685D01*
X158836319Y-90936319D01*
X161313181Y-93413181D01*
X161346666Y-93474504D01*
X161349500Y-93500862D01*
X161349500Y-102461192D01*
X161329815Y-102528231D01*
X161277011Y-102573986D01*
X161207853Y-102583930D01*
X161144297Y-102554905D01*
X161118114Y-102523193D01*
X161060492Y-102423393D01*
X161060489Y-102423387D01*
X160976613Y-102339511D01*
X160873886Y-102280201D01*
X160759309Y-102249500D01*
X160640691Y-102249500D01*
X160526114Y-102280201D01*
X160526112Y-102280201D01*
X160526112Y-102280202D01*
X160423387Y-102339511D01*
X160423384Y-102339513D01*
X160339513Y-102423384D01*
X160339511Y-102423387D01*
X160305780Y-102481811D01*
X160280201Y-102526114D01*
X160249500Y-102640691D01*
X160249500Y-102759309D01*
X160280201Y-102873886D01*
X160339511Y-102976613D01*
X160423387Y-103060489D01*
X160526114Y-103119799D01*
X160640691Y-103150500D01*
X160640694Y-103150500D01*
X160759306Y-103150500D01*
X160759309Y-103150500D01*
X160873886Y-103119799D01*
X160976613Y-103060489D01*
X161060489Y-102976613D01*
X161118113Y-102876805D01*
X161168681Y-102828591D01*
X161237288Y-102815369D01*
X161302152Y-102841337D01*
X161342680Y-102898251D01*
X161349500Y-102938807D01*
X161349500Y-118649138D01*
X161329815Y-118716177D01*
X161313181Y-118736819D01*
X159186319Y-120863681D01*
X159124996Y-120897166D01*
X159098638Y-120900000D01*
X156190018Y-120900000D01*
X156174243Y-120895367D01*
X156157807Y-120895743D01*
X156141411Y-120885727D01*
X156122979Y-120880315D01*
X156112213Y-120867890D01*
X156098183Y-120859320D01*
X156089804Y-120842030D01*
X156077224Y-120827511D01*
X156074884Y-120811238D01*
X156067715Y-120796443D01*
X156070014Y-120777369D01*
X156067280Y-120758353D01*
X156074186Y-120742762D01*
X156076077Y-120727076D01*
X156090683Y-120705517D01*
X156094476Y-120696957D01*
X156098198Y-120692457D01*
X156140460Y-120650196D01*
X156152108Y-120630021D01*
X156180021Y-120581674D01*
X156200500Y-120505247D01*
X156200500Y-119990691D01*
X157199500Y-119990691D01*
X157199500Y-120109309D01*
X157230201Y-120223886D01*
X157289511Y-120326613D01*
X157373387Y-120410489D01*
X157476114Y-120469799D01*
X157590691Y-120500500D01*
X157590694Y-120500500D01*
X157709306Y-120500500D01*
X157709309Y-120500500D01*
X157823886Y-120469799D01*
X157926613Y-120410489D01*
X158010489Y-120326613D01*
X158069799Y-120223886D01*
X158100500Y-120109309D01*
X158100500Y-119990691D01*
X158069799Y-119876114D01*
X158010489Y-119773387D01*
X157926613Y-119689511D01*
X157823886Y-119630201D01*
X157709309Y-119599500D01*
X157590691Y-119599500D01*
X157476114Y-119630201D01*
X157476112Y-119630201D01*
X157476112Y-119630202D01*
X157373387Y-119689511D01*
X157373384Y-119689513D01*
X157289513Y-119773384D01*
X157289511Y-119773387D01*
X157274435Y-119799500D01*
X157230201Y-119876114D01*
X157199500Y-119990691D01*
X156200500Y-119990691D01*
X156200500Y-118871280D01*
X156204725Y-118839187D01*
X156206135Y-118833927D01*
X156206135Y-117940691D01*
X157299500Y-117940691D01*
X157299500Y-118059309D01*
X157330201Y-118173886D01*
X157389511Y-118276613D01*
X157473387Y-118360489D01*
X157576114Y-118419799D01*
X157690691Y-118450500D01*
X157690694Y-118450500D01*
X157809306Y-118450500D01*
X157809309Y-118450500D01*
X157923886Y-118419799D01*
X158026613Y-118360489D01*
X158110489Y-118276613D01*
X158169799Y-118173886D01*
X158200500Y-118059309D01*
X158200500Y-117940691D01*
X158169799Y-117826114D01*
X158110489Y-117723387D01*
X158026613Y-117639511D01*
X157923886Y-117580201D01*
X157809309Y-117549500D01*
X157690691Y-117549500D01*
X157576114Y-117580201D01*
X157576112Y-117580201D01*
X157576112Y-117580202D01*
X157473387Y-117639511D01*
X157473384Y-117639513D01*
X157389513Y-117723384D01*
X157389511Y-117723387D01*
X157330201Y-117826114D01*
X157299500Y-117940691D01*
X156206135Y-117940691D01*
X156206135Y-115840691D01*
X157249500Y-115840691D01*
X157249500Y-115959309D01*
X157280201Y-116073886D01*
X157339511Y-116176613D01*
X157423387Y-116260489D01*
X157526114Y-116319799D01*
X157640691Y-116350500D01*
X157640694Y-116350500D01*
X157759306Y-116350500D01*
X157759309Y-116350500D01*
X157873886Y-116319799D01*
X157976613Y-116260489D01*
X158060489Y-116176613D01*
X158119799Y-116073886D01*
X158150500Y-115959309D01*
X158150500Y-115840691D01*
X158119799Y-115726114D01*
X158060489Y-115623387D01*
X157976613Y-115539511D01*
X157873886Y-115480201D01*
X157759309Y-115449500D01*
X157640691Y-115449500D01*
X157526114Y-115480201D01*
X157526112Y-115480201D01*
X157526112Y-115480202D01*
X157423387Y-115539511D01*
X157423384Y-115539513D01*
X157339513Y-115623384D01*
X157339511Y-115623387D01*
X157293435Y-115703193D01*
X157280201Y-115726114D01*
X157249500Y-115840691D01*
X156206135Y-115840691D01*
X156206135Y-114293306D01*
X156222749Y-114231304D01*
X156227032Y-114223886D01*
X156240444Y-114200656D01*
X156271145Y-114086079D01*
X156271145Y-113967461D01*
X156240444Y-113852884D01*
X156236053Y-113845278D01*
X156235642Y-113844566D01*
X156235641Y-113844565D01*
X156234544Y-113842665D01*
X156204537Y-113790691D01*
X157349500Y-113790691D01*
X157349500Y-113909309D01*
X157380201Y-114023886D01*
X157439511Y-114126613D01*
X157523387Y-114210489D01*
X157626114Y-114269799D01*
X157740691Y-114300500D01*
X157740694Y-114300500D01*
X157859306Y-114300500D01*
X157859309Y-114300500D01*
X157973886Y-114269799D01*
X158076613Y-114210489D01*
X158160489Y-114126613D01*
X158219799Y-114023886D01*
X158250500Y-113909309D01*
X158250500Y-113790691D01*
X158219799Y-113676114D01*
X158160489Y-113573387D01*
X158076613Y-113489511D01*
X157973886Y-113430201D01*
X157859309Y-113399500D01*
X157740691Y-113399500D01*
X157626114Y-113430201D01*
X157626112Y-113430201D01*
X157626112Y-113430202D01*
X157523387Y-113489511D01*
X157523384Y-113489513D01*
X157439513Y-113573384D01*
X157439511Y-113573387D01*
X157385494Y-113666947D01*
X157380201Y-113676114D01*
X157349500Y-113790691D01*
X156204537Y-113790691D01*
X156181134Y-113750157D01*
X156097258Y-113666281D01*
X155994531Y-113606971D01*
X155879954Y-113576270D01*
X155761336Y-113576270D01*
X155646759Y-113606971D01*
X155646757Y-113606971D01*
X155646757Y-113606972D01*
X155544032Y-113666281D01*
X155544029Y-113666283D01*
X155460158Y-113750154D01*
X155460156Y-113750157D01*
X155405239Y-113845276D01*
X155400846Y-113852884D01*
X155370145Y-113967461D01*
X155370145Y-113967463D01*
X155370145Y-113984572D01*
X155350460Y-114051611D01*
X155297656Y-114097366D01*
X155278245Y-114104344D01*
X155181749Y-114130201D01*
X155181747Y-114130201D01*
X155181747Y-114130202D01*
X155079022Y-114189511D01*
X155079019Y-114189513D01*
X154995148Y-114273384D01*
X154995146Y-114273387D01*
X154964415Y-114326615D01*
X154935836Y-114376114D01*
X154905135Y-114490691D01*
X154905135Y-114609309D01*
X154935836Y-114723886D01*
X154995146Y-114826613D01*
X154995148Y-114826615D01*
X155079023Y-114910490D01*
X155080842Y-114911886D01*
X155081986Y-114913453D01*
X155084769Y-114916236D01*
X155084334Y-114916670D01*
X155122042Y-114968315D01*
X155126194Y-115038061D01*
X155091979Y-115098980D01*
X155030260Y-115131730D01*
X154973259Y-115130033D01*
X154859309Y-115099500D01*
X154740691Y-115099500D01*
X154626114Y-115130201D01*
X154626112Y-115130201D01*
X154626112Y-115130202D01*
X154523387Y-115189511D01*
X154523384Y-115189513D01*
X154439513Y-115273384D01*
X154439511Y-115273387D01*
X154380200Y-115376114D01*
X154380199Y-115376116D01*
X154377735Y-115385314D01*
X154341368Y-115444973D01*
X154278520Y-115475499D01*
X154209144Y-115467201D01*
X154163571Y-115431798D01*
X154163418Y-115431952D01*
X154162194Y-115430728D01*
X154159586Y-115428702D01*
X154157674Y-115426211D01*
X154157671Y-115426205D01*
X154073795Y-115342329D01*
X153971068Y-115283019D01*
X153856491Y-115252318D01*
X153737873Y-115252318D01*
X153623296Y-115283019D01*
X153623294Y-115283019D01*
X153623294Y-115283020D01*
X153520569Y-115342329D01*
X153520566Y-115342331D01*
X153436695Y-115426202D01*
X153436693Y-115426205D01*
X153405518Y-115480202D01*
X153377383Y-115528932D01*
X153346682Y-115643509D01*
X153346682Y-115762127D01*
X153377383Y-115876704D01*
X153436693Y-115979431D01*
X153520569Y-116063307D01*
X153623296Y-116122617D01*
X153737873Y-116153318D01*
X153737876Y-116153318D01*
X153856488Y-116153318D01*
X153856491Y-116153318D01*
X153971068Y-116122617D01*
X154073795Y-116063307D01*
X154157671Y-115979431D01*
X154216981Y-115876704D01*
X154219445Y-115867507D01*
X154255807Y-115807850D01*
X154318653Y-115777319D01*
X154388029Y-115785612D01*
X154433610Y-115821019D01*
X154433764Y-115820866D01*
X154434989Y-115822091D01*
X154437593Y-115824114D01*
X154439509Y-115826611D01*
X154439511Y-115826613D01*
X154523387Y-115910489D01*
X154626114Y-115969799D01*
X154740691Y-116000500D01*
X154740694Y-116000500D01*
X154859306Y-116000500D01*
X154859309Y-116000500D01*
X154973886Y-115969799D01*
X154973897Y-115969792D01*
X154978046Y-115968075D01*
X155047515Y-115960606D01*
X155109995Y-115991880D01*
X155145648Y-116051969D01*
X155149500Y-116082636D01*
X155149500Y-120174167D01*
X155129815Y-120241206D01*
X155113181Y-120261848D01*
X154511348Y-120863681D01*
X154450025Y-120897166D01*
X154423667Y-120900000D01*
X122976333Y-120900000D01*
X122909294Y-120880315D01*
X122888652Y-120863681D01*
X119536819Y-117511848D01*
X119503334Y-117450525D01*
X119500500Y-117424167D01*
X119500500Y-116660691D01*
X129979500Y-116660691D01*
X129979500Y-116779309D01*
X130010201Y-116893886D01*
X130069511Y-116996613D01*
X130153387Y-117080489D01*
X130256114Y-117139799D01*
X130370691Y-117170500D01*
X130370694Y-117170500D01*
X130489306Y-117170500D01*
X130489309Y-117170500D01*
X130603886Y-117139799D01*
X130706613Y-117080489D01*
X130790489Y-116996613D01*
X130849799Y-116893886D01*
X130880500Y-116779309D01*
X130880500Y-116660691D01*
X130849799Y-116546114D01*
X130829347Y-116510691D01*
X142159500Y-116510691D01*
X142159500Y-116629309D01*
X142190201Y-116743886D01*
X142249511Y-116846613D01*
X142333387Y-116930489D01*
X142436114Y-116989799D01*
X142550691Y-117020500D01*
X142550694Y-117020500D01*
X142669306Y-117020500D01*
X142669309Y-117020500D01*
X142783886Y-116989799D01*
X142886613Y-116930489D01*
X142970489Y-116846613D01*
X143029799Y-116743886D01*
X143060500Y-116629309D01*
X143060500Y-116510691D01*
X143057820Y-116500691D01*
X143489500Y-116500691D01*
X143489500Y-116619309D01*
X143520201Y-116733886D01*
X143579511Y-116836613D01*
X143663387Y-116920489D01*
X143766114Y-116979799D01*
X143880691Y-117010500D01*
X143880694Y-117010500D01*
X143999306Y-117010500D01*
X143999309Y-117010500D01*
X144113886Y-116979799D01*
X144216613Y-116920489D01*
X144300489Y-116836613D01*
X144359799Y-116733886D01*
X144390500Y-116619309D01*
X144390500Y-116500691D01*
X144359799Y-116386114D01*
X144300489Y-116283387D01*
X144216613Y-116199511D01*
X144113886Y-116140201D01*
X143999309Y-116109500D01*
X143880691Y-116109500D01*
X143766114Y-116140201D01*
X143766112Y-116140201D01*
X143766112Y-116140202D01*
X143663387Y-116199511D01*
X143663384Y-116199513D01*
X143579513Y-116283384D01*
X143579511Y-116283387D01*
X143535562Y-116359509D01*
X143520201Y-116386114D01*
X143489500Y-116500691D01*
X143057820Y-116500691D01*
X143029799Y-116396114D01*
X142970489Y-116293387D01*
X142886613Y-116209511D01*
X142783886Y-116150201D01*
X142669309Y-116119500D01*
X142550691Y-116119500D01*
X142436114Y-116150201D01*
X142436112Y-116150201D01*
X142436112Y-116150202D01*
X142333387Y-116209511D01*
X142333384Y-116209513D01*
X142249513Y-116293384D01*
X142249511Y-116293387D01*
X142195975Y-116386114D01*
X142190201Y-116396114D01*
X142159500Y-116510691D01*
X130829347Y-116510691D01*
X130790489Y-116443387D01*
X130706613Y-116359511D01*
X130702347Y-116357048D01*
X130697775Y-116354408D01*
X130649561Y-116303839D01*
X130636341Y-116235232D01*
X130662311Y-116170368D01*
X130697776Y-116139637D01*
X130726613Y-116122989D01*
X130810489Y-116039113D01*
X130869799Y-115936386D01*
X130900500Y-115821809D01*
X130900500Y-115703191D01*
X130869799Y-115588614D01*
X130810489Y-115485887D01*
X130726613Y-115402011D01*
X130623886Y-115342701D01*
X130509309Y-115312000D01*
X130390691Y-115312000D01*
X130276114Y-115342701D01*
X130276112Y-115342701D01*
X130276112Y-115342702D01*
X130173387Y-115402011D01*
X130173384Y-115402013D01*
X130089513Y-115485884D01*
X130089511Y-115485887D01*
X130043435Y-115565693D01*
X130030201Y-115588614D01*
X129999500Y-115703191D01*
X129999500Y-115821809D01*
X130030201Y-115936386D01*
X130089511Y-116039113D01*
X130173387Y-116122989D01*
X130181511Y-116127679D01*
X130182222Y-116128090D01*
X130230436Y-116178657D01*
X130243658Y-116247265D01*
X130217690Y-116312129D01*
X130182223Y-116342861D01*
X130153393Y-116359507D01*
X130153384Y-116359513D01*
X130069513Y-116443384D01*
X130069511Y-116443387D01*
X130030652Y-116510693D01*
X130010201Y-116546114D01*
X129979500Y-116660691D01*
X119500500Y-116660691D01*
X119500500Y-115611138D01*
X119520185Y-115544099D01*
X119572989Y-115498344D01*
X119642147Y-115488400D01*
X119656583Y-115491360D01*
X119690691Y-115500500D01*
X119690694Y-115500500D01*
X119809306Y-115500500D01*
X119809309Y-115500500D01*
X119923886Y-115469799D01*
X120026613Y-115410489D01*
X120110489Y-115326613D01*
X120169799Y-115223886D01*
X120200500Y-115109309D01*
X120200500Y-115090691D01*
X140899500Y-115090691D01*
X140899500Y-115209309D01*
X140930201Y-115323886D01*
X140989511Y-115426613D01*
X141073387Y-115510489D01*
X141176114Y-115569799D01*
X141290691Y-115600500D01*
X141290694Y-115600500D01*
X141409306Y-115600500D01*
X141409309Y-115600500D01*
X141523886Y-115569799D01*
X141626613Y-115510489D01*
X141710489Y-115426613D01*
X141769799Y-115323886D01*
X141800500Y-115209309D01*
X141800500Y-115090691D01*
X141769799Y-114976114D01*
X141722640Y-114894433D01*
X141706168Y-114826536D01*
X141729020Y-114760509D01*
X141742343Y-114744758D01*
X141760489Y-114726613D01*
X141819799Y-114623886D01*
X141850500Y-114509309D01*
X141850500Y-114390691D01*
X141820301Y-114277987D01*
X141821964Y-114208142D01*
X141861126Y-114150280D01*
X141878063Y-114138519D01*
X141926613Y-114110489D01*
X142010489Y-114026613D01*
X142069799Y-113923886D01*
X142100500Y-113809309D01*
X142100500Y-113690691D01*
X142069799Y-113576114D01*
X142010489Y-113473387D01*
X141926613Y-113389511D01*
X141823886Y-113330201D01*
X141709309Y-113299500D01*
X141590691Y-113299500D01*
X141476114Y-113330201D01*
X141476112Y-113330201D01*
X141476112Y-113330202D01*
X141373387Y-113389511D01*
X141373384Y-113389513D01*
X141289513Y-113473384D01*
X141289511Y-113473387D01*
X141258780Y-113526615D01*
X141230201Y-113576114D01*
X141199500Y-113690691D01*
X141199500Y-113809309D01*
X141229617Y-113921705D01*
X141229698Y-113922007D01*
X141228035Y-113991857D01*
X141188873Y-114049720D01*
X141171924Y-114061488D01*
X141123387Y-114089511D01*
X141123384Y-114089513D01*
X141039513Y-114173384D01*
X141039511Y-114173387D01*
X141010355Y-114223887D01*
X140980201Y-114276114D01*
X140949500Y-114390691D01*
X140949500Y-114509309D01*
X140980201Y-114623886D01*
X141008779Y-114673384D01*
X141027358Y-114705563D01*
X141043831Y-114773463D01*
X141020979Y-114839490D01*
X141007654Y-114855243D01*
X140989514Y-114873383D01*
X140989511Y-114873387D01*
X140930201Y-114976114D01*
X140899500Y-115090691D01*
X120200500Y-115090691D01*
X120200500Y-114990691D01*
X120169799Y-114876114D01*
X120110489Y-114773387D01*
X120026613Y-114689511D01*
X119923886Y-114630201D01*
X119809309Y-114599500D01*
X119690691Y-114599500D01*
X119690686Y-114599500D01*
X119656591Y-114608636D01*
X119586741Y-114606972D01*
X119528880Y-114567809D01*
X119501377Y-114503580D01*
X119500500Y-114488861D01*
X119500500Y-113921706D01*
X119497178Y-113909309D01*
X119480021Y-113845278D01*
X119479609Y-113844565D01*
X119440464Y-113776762D01*
X119440458Y-113776754D01*
X118954395Y-113290691D01*
X135749500Y-113290691D01*
X135749500Y-113409309D01*
X135780201Y-113523886D01*
X135839511Y-113626613D01*
X135923387Y-113710489D01*
X136026114Y-113769799D01*
X136140691Y-113800500D01*
X136140694Y-113800500D01*
X136259306Y-113800500D01*
X136259309Y-113800500D01*
X136373886Y-113769799D01*
X136476613Y-113710489D01*
X136560489Y-113626613D01*
X136619799Y-113523886D01*
X136650500Y-113409309D01*
X136650500Y-113290691D01*
X136619799Y-113176114D01*
X136560489Y-113073387D01*
X136476613Y-112989511D01*
X136373886Y-112930201D01*
X136259309Y-112899500D01*
X136140691Y-112899500D01*
X136026114Y-112930201D01*
X136026112Y-112930201D01*
X136026112Y-112930202D01*
X135923387Y-112989511D01*
X135923384Y-112989513D01*
X135839513Y-113073384D01*
X135839511Y-113073387D01*
X135780201Y-113176114D01*
X135749500Y-113290691D01*
X118954395Y-113290691D01*
X118673245Y-113009541D01*
X118673240Y-113009537D01*
X118655857Y-112999502D01*
X118655853Y-112999498D01*
X118655853Y-112999499D01*
X118617600Y-112977414D01*
X118604723Y-112969979D01*
X118579246Y-112963152D01*
X118528295Y-112949500D01*
X118528293Y-112949500D01*
X118387964Y-112949500D01*
X118320925Y-112929815D01*
X118300283Y-112913181D01*
X118276615Y-112889513D01*
X118276613Y-112889511D01*
X118173886Y-112830201D01*
X118059309Y-112799500D01*
X117940691Y-112799500D01*
X117826114Y-112830201D01*
X117826112Y-112830201D01*
X117826112Y-112830202D01*
X117723387Y-112889511D01*
X117723384Y-112889513D01*
X117639513Y-112973384D01*
X117639511Y-112973387D01*
X117588763Y-113061285D01*
X117580201Y-113076114D01*
X117549500Y-113190691D01*
X117549500Y-113309309D01*
X117580201Y-113423886D01*
X117639511Y-113526613D01*
X117723387Y-113610489D01*
X117821175Y-113666947D01*
X117869390Y-113717514D01*
X117882612Y-113786122D01*
X117878952Y-113806416D01*
X117878358Y-113808630D01*
X117878358Y-113808635D01*
X117878358Y-113927253D01*
X117909059Y-114041830D01*
X117968369Y-114144557D01*
X118052245Y-114228433D01*
X118154972Y-114287743D01*
X118269549Y-114318444D01*
X118269552Y-114318444D01*
X118325500Y-114318444D01*
X118392539Y-114338129D01*
X118438294Y-114390933D01*
X118449500Y-114442444D01*
X118449500Y-115342892D01*
X118429815Y-115409931D01*
X118377011Y-115455686D01*
X118307853Y-115465630D01*
X118244297Y-115436605D01*
X118218113Y-115404893D01*
X118197850Y-115369797D01*
X118185489Y-115348387D01*
X118101613Y-115264511D01*
X117998886Y-115205201D01*
X117884309Y-115174500D01*
X117765691Y-115174500D01*
X117651114Y-115205201D01*
X117651112Y-115205201D01*
X117651112Y-115205202D01*
X117548387Y-115264511D01*
X117548384Y-115264513D01*
X117464513Y-115348384D01*
X117464511Y-115348387D01*
X117408747Y-115444973D01*
X117405201Y-115451114D01*
X117374500Y-115565691D01*
X117374500Y-115684309D01*
X117405201Y-115798886D01*
X117464511Y-115901613D01*
X117548387Y-115985489D01*
X117651114Y-116044799D01*
X117765691Y-116075500D01*
X117765694Y-116075500D01*
X117884306Y-116075500D01*
X117884309Y-116075500D01*
X117998886Y-116044799D01*
X118101613Y-115985489D01*
X118185489Y-115901613D01*
X118218113Y-115845106D01*
X118268680Y-115796891D01*
X118337287Y-115783669D01*
X118402152Y-115809637D01*
X118442680Y-115866551D01*
X118449500Y-115907107D01*
X118449500Y-117889562D01*
X118463152Y-117940513D01*
X118469979Y-117965990D01*
X118469982Y-117965995D01*
X118509535Y-118034504D01*
X118509541Y-118034512D01*
X121163348Y-120688319D01*
X121196833Y-120749642D01*
X121191849Y-120819334D01*
X121149977Y-120875267D01*
X121084513Y-120899684D01*
X121075667Y-120900000D01*
X108967755Y-120900000D01*
X108900716Y-120880315D01*
X108880074Y-120863681D01*
X107895915Y-119879522D01*
X107895914Y-119879521D01*
X107895913Y-119879520D01*
X107850250Y-119853156D01*
X107804589Y-119826793D01*
X107753657Y-119813146D01*
X107702727Y-119799500D01*
X107702726Y-119799500D01*
X106890538Y-119799500D01*
X106828537Y-119782886D01*
X106823890Y-119780203D01*
X106823887Y-119780201D01*
X106795241Y-119772525D01*
X106709309Y-119749500D01*
X106590691Y-119749500D01*
X106521944Y-119767920D01*
X106476112Y-119780201D01*
X106476109Y-119780203D01*
X106471463Y-119782886D01*
X106455975Y-119787036D01*
X106444397Y-119794477D01*
X106409462Y-119799500D01*
X106290538Y-119799500D01*
X106228537Y-119782886D01*
X106223890Y-119780203D01*
X106223887Y-119780201D01*
X106195241Y-119772525D01*
X106109309Y-119749500D01*
X105990691Y-119749500D01*
X105876114Y-119780201D01*
X105876112Y-119780201D01*
X105876112Y-119780202D01*
X105773387Y-119839511D01*
X105773384Y-119839513D01*
X105689513Y-119923384D01*
X105689511Y-119923387D01*
X105650652Y-119990693D01*
X105630201Y-120026114D01*
X105599500Y-120140691D01*
X105599500Y-120259309D01*
X105630201Y-120373886D01*
X105689511Y-120476613D01*
X105773387Y-120560489D01*
X105804027Y-120578179D01*
X105804594Y-120578773D01*
X105805391Y-120578978D01*
X105828650Y-120604003D01*
X105852241Y-120628744D01*
X105852396Y-120629552D01*
X105852958Y-120630156D01*
X105858996Y-120663794D01*
X105865465Y-120697351D01*
X105865158Y-120698116D01*
X105865304Y-120698926D01*
X105852198Y-120730489D01*
X105839497Y-120762216D01*
X105838722Y-120762945D01*
X105838511Y-120763454D01*
X105834910Y-120766534D01*
X105812659Y-120787482D01*
X105808446Y-120790401D01*
X105723387Y-120839511D01*
X105691329Y-120871568D01*
X105682169Y-120877917D01*
X105659162Y-120885552D01*
X105637894Y-120897166D01*
X105617591Y-120899348D01*
X105615856Y-120899925D01*
X105614785Y-120899650D01*
X105611536Y-120900000D01*
X105517344Y-120900000D01*
X105485250Y-120895775D01*
X105483409Y-120895281D01*
X105483408Y-120895281D01*
X105368831Y-120864580D01*
X105315942Y-120864580D01*
X105248903Y-120844895D01*
X105228261Y-120828261D01*
X103486217Y-119086217D01*
X103452732Y-119024894D01*
X103449898Y-118998783D01*
X103447845Y-117965990D01*
X103442292Y-115173159D01*
X103461843Y-115106082D01*
X103514556Y-115060222D01*
X103583695Y-115050141D01*
X103647308Y-115079040D01*
X103675072Y-115117461D01*
X103676137Y-115116847D01*
X103680200Y-115123885D01*
X103680201Y-115123886D01*
X103739511Y-115226613D01*
X103823387Y-115310489D01*
X103926114Y-115369799D01*
X104040691Y-115400500D01*
X104040694Y-115400500D01*
X104159306Y-115400500D01*
X104159309Y-115400500D01*
X104273886Y-115369799D01*
X104376613Y-115310489D01*
X104460489Y-115226613D01*
X104519799Y-115123886D01*
X104550500Y-115009309D01*
X104550500Y-114890691D01*
X104519799Y-114776114D01*
X104460489Y-114673387D01*
X104376613Y-114589511D01*
X104273886Y-114530201D01*
X104159309Y-114499500D01*
X104040691Y-114499500D01*
X103926114Y-114530201D01*
X103926112Y-114530201D01*
X103926112Y-114530202D01*
X103823387Y-114589511D01*
X103823384Y-114589513D01*
X103739513Y-114673384D01*
X103739511Y-114673387D01*
X103680198Y-114776118D01*
X103679970Y-114776670D01*
X103679652Y-114777063D01*
X103676137Y-114783153D01*
X103675187Y-114782604D01*
X103636128Y-114831073D01*
X103569833Y-114853136D01*
X103502134Y-114835855D01*
X103454525Y-114784717D01*
X103441410Y-114729462D01*
X103439941Y-113990691D01*
X105099500Y-113990691D01*
X105099500Y-114109309D01*
X105130201Y-114223886D01*
X105189511Y-114326613D01*
X105273387Y-114410489D01*
X105376114Y-114469799D01*
X105490691Y-114500500D01*
X105490694Y-114500500D01*
X105498542Y-114502603D01*
X105497740Y-114505592D01*
X105548234Y-114527932D01*
X105586703Y-114586258D01*
X105587532Y-114656123D01*
X105582713Y-114670047D01*
X105580203Y-114676106D01*
X105580201Y-114676114D01*
X105549500Y-114790691D01*
X105549500Y-114909309D01*
X105580201Y-115023886D01*
X105639511Y-115126613D01*
X105723387Y-115210489D01*
X105761520Y-115232505D01*
X105809736Y-115283072D01*
X105822959Y-115351679D01*
X105796991Y-115416544D01*
X105775014Y-115438262D01*
X105773388Y-115439509D01*
X105689513Y-115523384D01*
X105689511Y-115523387D01*
X105665087Y-115565691D01*
X105630201Y-115626114D01*
X105599500Y-115740691D01*
X105599500Y-115859309D01*
X105630201Y-115973886D01*
X105689511Y-116076613D01*
X105773387Y-116160489D01*
X105876114Y-116219799D01*
X105990691Y-116250500D01*
X105990694Y-116250500D01*
X106109306Y-116250500D01*
X106109309Y-116250500D01*
X106223886Y-116219799D01*
X106326613Y-116160489D01*
X106410489Y-116076613D01*
X106469799Y-115973886D01*
X106500500Y-115859309D01*
X106500500Y-115840691D01*
X107099500Y-115840691D01*
X107099500Y-115959309D01*
X107130201Y-116073886D01*
X107189511Y-116176613D01*
X107273387Y-116260489D01*
X107376114Y-116319799D01*
X107490691Y-116350500D01*
X107490694Y-116350500D01*
X107609306Y-116350500D01*
X107609309Y-116350500D01*
X107723886Y-116319799D01*
X107826613Y-116260489D01*
X107910489Y-116176613D01*
X107969799Y-116073886D01*
X108000500Y-115959309D01*
X108000500Y-115840691D01*
X107969799Y-115726114D01*
X107910489Y-115623387D01*
X107826613Y-115539511D01*
X107723886Y-115480201D01*
X107609309Y-115449500D01*
X107490691Y-115449500D01*
X107376114Y-115480201D01*
X107376112Y-115480201D01*
X107376112Y-115480202D01*
X107273387Y-115539511D01*
X107273384Y-115539513D01*
X107189513Y-115623384D01*
X107189511Y-115623387D01*
X107143435Y-115703193D01*
X107130201Y-115726114D01*
X107099500Y-115840691D01*
X106500500Y-115840691D01*
X106500500Y-115740691D01*
X106469799Y-115626114D01*
X106410489Y-115523387D01*
X106326613Y-115439511D01*
X106288477Y-115417492D01*
X106240263Y-115366926D01*
X106227041Y-115298319D01*
X106253009Y-115233455D01*
X106274999Y-115211727D01*
X106276606Y-115210492D01*
X106276613Y-115210489D01*
X106360489Y-115126613D01*
X106419799Y-115023886D01*
X106450500Y-114909309D01*
X106450500Y-114790691D01*
X106419799Y-114676114D01*
X106360489Y-114573387D01*
X106276613Y-114489511D01*
X106173886Y-114430201D01*
X106059309Y-114399500D01*
X106059306Y-114399500D01*
X106051458Y-114397397D01*
X106052256Y-114394416D01*
X106001717Y-114372027D01*
X105963278Y-114313682D01*
X105962484Y-114243816D01*
X105967290Y-114229942D01*
X105969793Y-114223895D01*
X105969799Y-114223886D01*
X106000500Y-114109309D01*
X106000500Y-113990691D01*
X105969799Y-113876114D01*
X105910489Y-113773387D01*
X105826613Y-113689511D01*
X105723886Y-113630201D01*
X105609309Y-113599500D01*
X105490691Y-113599500D01*
X105376114Y-113630201D01*
X105376112Y-113630201D01*
X105376112Y-113630202D01*
X105273387Y-113689511D01*
X105273384Y-113689513D01*
X105189513Y-113773384D01*
X105189511Y-113773387D01*
X105170442Y-113806416D01*
X105130201Y-113876114D01*
X105099500Y-113990691D01*
X103439941Y-113990691D01*
X103437259Y-112641490D01*
X104969852Y-112641490D01*
X104969852Y-112760108D01*
X105000553Y-112874685D01*
X105059863Y-112977412D01*
X105143739Y-113061288D01*
X105246466Y-113120598D01*
X105361043Y-113151299D01*
X105361046Y-113151299D01*
X105479658Y-113151299D01*
X105479661Y-113151299D01*
X105594238Y-113120598D01*
X105696965Y-113061288D01*
X105780841Y-112977412D01*
X105783452Y-112972888D01*
X105834012Y-112924671D01*
X105902618Y-112911442D01*
X105952840Y-112927494D01*
X106026114Y-112969799D01*
X106140691Y-113000500D01*
X106140694Y-113000500D01*
X106259306Y-113000500D01*
X106259309Y-113000500D01*
X106373886Y-112969799D01*
X106476613Y-112910489D01*
X106560489Y-112826613D01*
X106619799Y-112723886D01*
X106650500Y-112609309D01*
X106650500Y-112490691D01*
X106619799Y-112376114D01*
X106560489Y-112273387D01*
X106476613Y-112189511D01*
X106373886Y-112130201D01*
X106259309Y-112099500D01*
X106140691Y-112099500D01*
X106026114Y-112130201D01*
X106026112Y-112130201D01*
X106026112Y-112130202D01*
X105923387Y-112189511D01*
X105923384Y-112189513D01*
X105839513Y-112273384D01*
X105839506Y-112273393D01*
X105836895Y-112277917D01*
X105786328Y-112326132D01*
X105717720Y-112339354D01*
X105667508Y-112323303D01*
X105594238Y-112281000D01*
X105479661Y-112250299D01*
X105361043Y-112250299D01*
X105246466Y-112281000D01*
X105246464Y-112281000D01*
X105246464Y-112281001D01*
X105143739Y-112340310D01*
X105143736Y-112340312D01*
X105059865Y-112424183D01*
X105059863Y-112424186D01*
X105000553Y-112526913D01*
X104969852Y-112641490D01*
X103437259Y-112641490D01*
X103435468Y-111740691D01*
X157349500Y-111740691D01*
X157349500Y-111859309D01*
X157380201Y-111973886D01*
X157439511Y-112076613D01*
X157523387Y-112160489D01*
X157626114Y-112219799D01*
X157740691Y-112250500D01*
X157740694Y-112250500D01*
X157859306Y-112250500D01*
X157859309Y-112250500D01*
X157973886Y-112219799D01*
X158076613Y-112160489D01*
X158160489Y-112076613D01*
X158219799Y-111973886D01*
X158250500Y-111859309D01*
X158250500Y-111740691D01*
X158219799Y-111626114D01*
X158160489Y-111523387D01*
X158076613Y-111439511D01*
X157973886Y-111380201D01*
X157859309Y-111349500D01*
X157740691Y-111349500D01*
X157626114Y-111380201D01*
X157626112Y-111380201D01*
X157626112Y-111380202D01*
X157523387Y-111439511D01*
X157523384Y-111439513D01*
X157439513Y-111523384D01*
X157439511Y-111523387D01*
X157380201Y-111626114D01*
X157349500Y-111740691D01*
X103435468Y-111740691D01*
X103430449Y-109215691D01*
X107574500Y-109215691D01*
X107574500Y-109334309D01*
X107605201Y-109448886D01*
X107664511Y-109551613D01*
X107748387Y-109635489D01*
X107851114Y-109694799D01*
X107965691Y-109725500D01*
X107965694Y-109725500D01*
X108084306Y-109725500D01*
X108084309Y-109725500D01*
X108198886Y-109694799D01*
X108301613Y-109635489D01*
X108385489Y-109551613D01*
X108444799Y-109448886D01*
X108475500Y-109334309D01*
X108475500Y-109215691D01*
X108444799Y-109101114D01*
X108385489Y-108998387D01*
X108301613Y-108914511D01*
X108276419Y-108899965D01*
X108228205Y-108849398D01*
X108214983Y-108780791D01*
X108240951Y-108715926D01*
X108292056Y-108679534D01*
X108291382Y-108677907D01*
X108298883Y-108674799D01*
X108298886Y-108674799D01*
X108401613Y-108615489D01*
X108485489Y-108531613D01*
X108544799Y-108428886D01*
X108575500Y-108314309D01*
X108575500Y-108195691D01*
X108544799Y-108081114D01*
X108485489Y-107978387D01*
X108401613Y-107894511D01*
X108298886Y-107835201D01*
X108184309Y-107804500D01*
X108065691Y-107804500D01*
X107951114Y-107835201D01*
X107951112Y-107835201D01*
X107951112Y-107835202D01*
X107848387Y-107894511D01*
X107848384Y-107894513D01*
X107764513Y-107978384D01*
X107764511Y-107978387D01*
X107705201Y-108081114D01*
X107674500Y-108195691D01*
X107674500Y-108314309D01*
X107705201Y-108428886D01*
X107764511Y-108531613D01*
X107848387Y-108615489D01*
X107873578Y-108630033D01*
X107921794Y-108680600D01*
X107935017Y-108749207D01*
X107909049Y-108814072D01*
X107857943Y-108850463D01*
X107858618Y-108852093D01*
X107851114Y-108855200D01*
X107748387Y-108914511D01*
X107748384Y-108914513D01*
X107664513Y-108998384D01*
X107664511Y-108998387D01*
X107636956Y-109046114D01*
X107605201Y-109101114D01*
X107574500Y-109215691D01*
X103430449Y-109215691D01*
X103426602Y-107280691D01*
X109029500Y-107280691D01*
X109029500Y-107399309D01*
X109060201Y-107513886D01*
X109119511Y-107616613D01*
X109203387Y-107700489D01*
X109306114Y-107759799D01*
X109420691Y-107790500D01*
X109420694Y-107790500D01*
X109539306Y-107790500D01*
X109539309Y-107790500D01*
X109653886Y-107759799D01*
X109756613Y-107700489D01*
X109840489Y-107616613D01*
X109840493Y-107616605D01*
X109845431Y-107610171D01*
X109901857Y-107568966D01*
X109971603Y-107564808D01*
X110032525Y-107599017D01*
X110051196Y-107623652D01*
X110096182Y-107701567D01*
X110099500Y-107707314D01*
X110192686Y-107800500D01*
X110265628Y-107842613D01*
X110313843Y-107893180D01*
X110327065Y-107961788D01*
X110301097Y-108026652D01*
X110265628Y-108057386D01*
X110192689Y-108099498D01*
X110192686Y-108099500D01*
X110192683Y-108099502D01*
X110099502Y-108192683D01*
X110099500Y-108192686D01*
X110033608Y-108306812D01*
X110005421Y-108412010D01*
X109999500Y-108434108D01*
X109999500Y-108565892D01*
X110014115Y-108620437D01*
X110033608Y-108693187D01*
X110055151Y-108730500D01*
X110099500Y-108807314D01*
X110099502Y-108807316D01*
X110192687Y-108900501D01*
X110194158Y-108901630D01*
X110195083Y-108902897D01*
X110198433Y-108906247D01*
X110197910Y-108906769D01*
X110235356Y-108958060D01*
X110239506Y-109027807D01*
X110205289Y-109088725D01*
X110194158Y-109098370D01*
X110192687Y-109099498D01*
X110099502Y-109192683D01*
X110099500Y-109192686D01*
X110033608Y-109306812D01*
X110010277Y-109393886D01*
X109999500Y-109434108D01*
X109999500Y-109565892D01*
X110015770Y-109626612D01*
X110033608Y-109693187D01*
X110066554Y-109750250D01*
X110099500Y-109807314D01*
X110192686Y-109900500D01*
X110306814Y-109966392D01*
X110434108Y-110000500D01*
X110434110Y-110000500D01*
X110565890Y-110000500D01*
X110565892Y-110000500D01*
X110693186Y-109966392D01*
X110807314Y-109900500D01*
X110900500Y-109807314D01*
X110900504Y-109807306D01*
X110901625Y-109805847D01*
X110902892Y-109804921D01*
X110906247Y-109801567D01*
X110906770Y-109802090D01*
X110958053Y-109764645D01*
X111027799Y-109760491D01*
X111088719Y-109794704D01*
X111098375Y-109805847D01*
X111099498Y-109807311D01*
X111099500Y-109807314D01*
X111192686Y-109900500D01*
X111306814Y-109966392D01*
X111434108Y-110000500D01*
X111434110Y-110000500D01*
X111565890Y-110000500D01*
X111565892Y-110000500D01*
X111693186Y-109966392D01*
X111807314Y-109900500D01*
X111900500Y-109807314D01*
X111900504Y-109807306D01*
X111901625Y-109805847D01*
X111902892Y-109804921D01*
X111906247Y-109801567D01*
X111906770Y-109802090D01*
X111958053Y-109764645D01*
X112027799Y-109760491D01*
X112088719Y-109794704D01*
X112098375Y-109805847D01*
X112099498Y-109807311D01*
X112099500Y-109807314D01*
X112192686Y-109900500D01*
X112306814Y-109966392D01*
X112434108Y-110000500D01*
X112434110Y-110000500D01*
X112565890Y-110000500D01*
X112565892Y-110000500D01*
X112693186Y-109966392D01*
X112807314Y-109900500D01*
X112900500Y-109807314D01*
X112900504Y-109807306D01*
X112901625Y-109805847D01*
X112902892Y-109804921D01*
X112906247Y-109801567D01*
X112906770Y-109802090D01*
X112958053Y-109764645D01*
X113027799Y-109760491D01*
X113088719Y-109794704D01*
X113098375Y-109805847D01*
X113099498Y-109807311D01*
X113099500Y-109807314D01*
X113192686Y-109900500D01*
X113306814Y-109966392D01*
X113434108Y-110000500D01*
X113434110Y-110000500D01*
X113565890Y-110000500D01*
X113565892Y-110000500D01*
X113693186Y-109966392D01*
X113807314Y-109900500D01*
X113900500Y-109807314D01*
X113900504Y-109807306D01*
X113901625Y-109805847D01*
X113902892Y-109804921D01*
X113906247Y-109801567D01*
X113906770Y-109802090D01*
X113958053Y-109764645D01*
X114027799Y-109760491D01*
X114088719Y-109794704D01*
X114098375Y-109805847D01*
X114099498Y-109807311D01*
X114099500Y-109807314D01*
X114192686Y-109900500D01*
X114306814Y-109966392D01*
X114434108Y-110000500D01*
X114434110Y-110000500D01*
X114565890Y-110000500D01*
X114565892Y-110000500D01*
X114693186Y-109966392D01*
X114807314Y-109900500D01*
X114900500Y-109807314D01*
X114900504Y-109807306D01*
X114901625Y-109805847D01*
X114902892Y-109804921D01*
X114906247Y-109801567D01*
X114906770Y-109802090D01*
X114958053Y-109764645D01*
X115027799Y-109760491D01*
X115088719Y-109794704D01*
X115098375Y-109805847D01*
X115099498Y-109807311D01*
X115099500Y-109807314D01*
X115192686Y-109900500D01*
X115306814Y-109966392D01*
X115434108Y-110000500D01*
X115434110Y-110000500D01*
X115565890Y-110000500D01*
X115565892Y-110000500D01*
X115693186Y-109966392D01*
X115807314Y-109900500D01*
X115900500Y-109807314D01*
X115966392Y-109693186D01*
X116000500Y-109565892D01*
X116000500Y-109434108D01*
X115966392Y-109306814D01*
X115900500Y-109192686D01*
X115807314Y-109099500D01*
X115807311Y-109099498D01*
X115805847Y-109098375D01*
X115804921Y-109097107D01*
X115801567Y-109093753D01*
X115802090Y-109093229D01*
X115764645Y-109041947D01*
X115760491Y-108972201D01*
X115794704Y-108911281D01*
X115805847Y-108901625D01*
X115807306Y-108900504D01*
X115807314Y-108900500D01*
X115900500Y-108807314D01*
X115966392Y-108693186D01*
X116000500Y-108565892D01*
X116000500Y-108434108D01*
X115966392Y-108306814D01*
X115916669Y-108220691D01*
X117299500Y-108220691D01*
X117299500Y-108339309D01*
X117330201Y-108453886D01*
X117389511Y-108556613D01*
X117473387Y-108640489D01*
X117576114Y-108699799D01*
X117690691Y-108730500D01*
X117690693Y-108730500D01*
X117696123Y-108731955D01*
X117755783Y-108768320D01*
X117786312Y-108831167D01*
X117778017Y-108900543D01*
X117733532Y-108954421D01*
X117726031Y-108959116D01*
X117673390Y-108989509D01*
X117673384Y-108989513D01*
X117589513Y-109073384D01*
X117589511Y-109073387D01*
X117539106Y-109160691D01*
X117530201Y-109176114D01*
X117499500Y-109290691D01*
X117499500Y-109409309D01*
X117530201Y-109523886D01*
X117589511Y-109626613D01*
X117673387Y-109710489D01*
X117776114Y-109769799D01*
X117890691Y-109800500D01*
X117890694Y-109800500D01*
X118009306Y-109800500D01*
X118009309Y-109800500D01*
X118123886Y-109769799D01*
X118226613Y-109710489D01*
X118310489Y-109626613D01*
X118369799Y-109523886D01*
X118400500Y-109409309D01*
X118400500Y-109290691D01*
X118369799Y-109176114D01*
X118310489Y-109073387D01*
X118226613Y-108989511D01*
X118146725Y-108943387D01*
X118123887Y-108930201D01*
X118003876Y-108898044D01*
X117944215Y-108861678D01*
X117913687Y-108798831D01*
X117921982Y-108729456D01*
X117966468Y-108675578D01*
X117973971Y-108670882D01*
X117978644Y-108668184D01*
X118026613Y-108640489D01*
X118110489Y-108556613D01*
X118169799Y-108453886D01*
X118200500Y-108339309D01*
X118200500Y-108220691D01*
X118169799Y-108106114D01*
X118110489Y-108003387D01*
X118026613Y-107919511D01*
X117923886Y-107860201D01*
X117809309Y-107829500D01*
X117690691Y-107829500D01*
X117576114Y-107860201D01*
X117576112Y-107860201D01*
X117576112Y-107860202D01*
X117473387Y-107919511D01*
X117473384Y-107919513D01*
X117389513Y-108003384D01*
X117389511Y-108003387D01*
X117334020Y-108099500D01*
X117330201Y-108106114D01*
X117299500Y-108220691D01*
X115916669Y-108220691D01*
X115900500Y-108192686D01*
X115807314Y-108099500D01*
X115734371Y-108057386D01*
X115686156Y-108006820D01*
X115672933Y-107938213D01*
X115698901Y-107873348D01*
X115734372Y-107842613D01*
X115807314Y-107800500D01*
X115900500Y-107707314D01*
X115966392Y-107593186D01*
X115982817Y-107531884D01*
X116019180Y-107472226D01*
X116082027Y-107441696D01*
X116151402Y-107449990D01*
X116205281Y-107494475D01*
X116217152Y-107516526D01*
X116220199Y-107523883D01*
X116224820Y-107531887D01*
X116279511Y-107626613D01*
X116363387Y-107710489D01*
X116466114Y-107769799D01*
X116580691Y-107800500D01*
X116580694Y-107800500D01*
X116699306Y-107800500D01*
X116699309Y-107800500D01*
X116813886Y-107769799D01*
X116916613Y-107710489D01*
X117000489Y-107626613D01*
X117059799Y-107523886D01*
X117090500Y-107409309D01*
X117090500Y-107290691D01*
X117059799Y-107176114D01*
X117000489Y-107073387D01*
X116916613Y-106989511D01*
X116813886Y-106930201D01*
X116699309Y-106899500D01*
X116580691Y-106899500D01*
X116466114Y-106930201D01*
X116466112Y-106930201D01*
X116466112Y-106930202D01*
X116363387Y-106989511D01*
X116363384Y-106989513D01*
X116279513Y-107073384D01*
X116279511Y-107073387D01*
X116220200Y-107176114D01*
X116220200Y-107176115D01*
X116208957Y-107218074D01*
X116172592Y-107277734D01*
X116109744Y-107308262D01*
X116040369Y-107299967D01*
X115986492Y-107255481D01*
X115969408Y-107218071D01*
X115966392Y-107206814D01*
X115900500Y-107092686D01*
X115807314Y-106999500D01*
X115708910Y-106942686D01*
X115693187Y-106933608D01*
X115629539Y-106916554D01*
X115565892Y-106899500D01*
X115434108Y-106899500D01*
X115306812Y-106933608D01*
X115192686Y-106999500D01*
X115192683Y-106999502D01*
X115099498Y-107092687D01*
X115098370Y-107094158D01*
X115097102Y-107095083D01*
X115093753Y-107098433D01*
X115093230Y-107097910D01*
X115041940Y-107135356D01*
X114972193Y-107139506D01*
X114911275Y-107105289D01*
X114901630Y-107094158D01*
X114900501Y-107092687D01*
X114807316Y-106999502D01*
X114807314Y-106999500D01*
X114708910Y-106942686D01*
X114693187Y-106933608D01*
X114629539Y-106916554D01*
X114565892Y-106899500D01*
X114434108Y-106899500D01*
X114306812Y-106933608D01*
X114192686Y-106999500D01*
X114192683Y-106999502D01*
X114099498Y-107092687D01*
X114098370Y-107094158D01*
X114097102Y-107095083D01*
X114093753Y-107098433D01*
X114093230Y-107097910D01*
X114041940Y-107135356D01*
X113972193Y-107139506D01*
X113911275Y-107105289D01*
X113901630Y-107094158D01*
X113900501Y-107092687D01*
X113807316Y-106999502D01*
X113807314Y-106999500D01*
X113708910Y-106942686D01*
X113693187Y-106933608D01*
X113629539Y-106916554D01*
X113565892Y-106899500D01*
X113434108Y-106899500D01*
X113306812Y-106933608D01*
X113192686Y-106999500D01*
X113192683Y-106999502D01*
X113099498Y-107092687D01*
X113098370Y-107094158D01*
X113097102Y-107095083D01*
X113093753Y-107098433D01*
X113093230Y-107097910D01*
X113041940Y-107135356D01*
X112972193Y-107139506D01*
X112911275Y-107105289D01*
X112901630Y-107094158D01*
X112900501Y-107092687D01*
X112807316Y-106999502D01*
X112807314Y-106999500D01*
X112708910Y-106942686D01*
X112693187Y-106933608D01*
X112629539Y-106916554D01*
X112565892Y-106899500D01*
X112434108Y-106899500D01*
X112306812Y-106933608D01*
X112192686Y-106999500D01*
X112192683Y-106999502D01*
X112099498Y-107092687D01*
X112098370Y-107094158D01*
X112097102Y-107095083D01*
X112093753Y-107098433D01*
X112093230Y-107097910D01*
X112041940Y-107135356D01*
X111972193Y-107139506D01*
X111911275Y-107105289D01*
X111901630Y-107094158D01*
X111900501Y-107092687D01*
X111807316Y-106999502D01*
X111807314Y-106999500D01*
X111708910Y-106942686D01*
X111693187Y-106933608D01*
X111629539Y-106916554D01*
X111565892Y-106899500D01*
X111434108Y-106899500D01*
X111306812Y-106933608D01*
X111192686Y-106999500D01*
X111192683Y-106999502D01*
X111099498Y-107092687D01*
X111098370Y-107094158D01*
X111097102Y-107095083D01*
X111093753Y-107098433D01*
X111093230Y-107097910D01*
X111041940Y-107135356D01*
X110972193Y-107139506D01*
X110911275Y-107105289D01*
X110901630Y-107094158D01*
X110900501Y-107092687D01*
X110807316Y-106999502D01*
X110807314Y-106999500D01*
X110708910Y-106942686D01*
X110693187Y-106933608D01*
X110629539Y-106916554D01*
X110565892Y-106899500D01*
X110434108Y-106899500D01*
X110306812Y-106933608D01*
X110192686Y-106999500D01*
X110192683Y-106999502D01*
X110099502Y-107092683D01*
X110099497Y-107092689D01*
X110085838Y-107116348D01*
X110035270Y-107164563D01*
X109966662Y-107177784D01*
X109901798Y-107151815D01*
X109871065Y-107116346D01*
X109860421Y-107097910D01*
X109840489Y-107063387D01*
X109756613Y-106979511D01*
X109653886Y-106920201D01*
X109539309Y-106889500D01*
X109420691Y-106889500D01*
X109306114Y-106920201D01*
X109306112Y-106920201D01*
X109306112Y-106920202D01*
X109203387Y-106979511D01*
X109203384Y-106979513D01*
X109119513Y-107063384D01*
X109119511Y-107063387D01*
X109068457Y-107151815D01*
X109060201Y-107166114D01*
X109029500Y-107280691D01*
X103426602Y-107280691D01*
X103423229Y-105584108D01*
X126899500Y-105584108D01*
X126899500Y-105715891D01*
X126933608Y-105843187D01*
X126966554Y-105900250D01*
X126999500Y-105957314D01*
X126999502Y-105957316D01*
X127004505Y-105962319D01*
X127037990Y-106023642D01*
X127033006Y-106093334D01*
X127004505Y-106137681D01*
X126999502Y-106142683D01*
X126999500Y-106142686D01*
X126933608Y-106256812D01*
X126899500Y-106384108D01*
X126899500Y-106515891D01*
X126933608Y-106643187D01*
X126966554Y-106700250D01*
X126999500Y-106757314D01*
X126999502Y-106757316D01*
X127004505Y-106762319D01*
X127037990Y-106823642D01*
X127033006Y-106893334D01*
X127004505Y-106937681D01*
X126999502Y-106942683D01*
X126999500Y-106942686D01*
X126933608Y-107056812D01*
X126901642Y-107176114D01*
X126899500Y-107184108D01*
X126899500Y-107315892D01*
X126916554Y-107379539D01*
X126933608Y-107443187D01*
X126951333Y-107473887D01*
X126999500Y-107557314D01*
X126999502Y-107557316D01*
X127004505Y-107562319D01*
X127037990Y-107623642D01*
X127033006Y-107693334D01*
X127004505Y-107737681D01*
X126999502Y-107742683D01*
X126999500Y-107742686D01*
X126933608Y-107856812D01*
X126899500Y-107984108D01*
X126899500Y-108115891D01*
X126933608Y-108243187D01*
X126951725Y-108274566D01*
X126999500Y-108357314D01*
X127092686Y-108450500D01*
X127206814Y-108516392D01*
X127334108Y-108550500D01*
X127334110Y-108550500D01*
X127465890Y-108550500D01*
X127465892Y-108550500D01*
X127593186Y-108516392D01*
X127707314Y-108450500D01*
X127712319Y-108445495D01*
X127773642Y-108412010D01*
X127843334Y-108416994D01*
X127887681Y-108445495D01*
X127892686Y-108450500D01*
X128006814Y-108516392D01*
X128134108Y-108550500D01*
X128134110Y-108550500D01*
X128265890Y-108550500D01*
X128265892Y-108550500D01*
X128393186Y-108516392D01*
X128507314Y-108450500D01*
X128512319Y-108445495D01*
X128573642Y-108412010D01*
X128643334Y-108416994D01*
X128687681Y-108445495D01*
X128692686Y-108450500D01*
X128806814Y-108516392D01*
X128934108Y-108550500D01*
X128934110Y-108550500D01*
X129065890Y-108550500D01*
X129065892Y-108550500D01*
X129193186Y-108516392D01*
X129307314Y-108450500D01*
X129312319Y-108445495D01*
X129373642Y-108412010D01*
X129443334Y-108416994D01*
X129487681Y-108445495D01*
X129492686Y-108450500D01*
X129606814Y-108516392D01*
X129734108Y-108550500D01*
X129734110Y-108550500D01*
X129865890Y-108550500D01*
X129865892Y-108550500D01*
X129993186Y-108516392D01*
X130107314Y-108450500D01*
X130200500Y-108357314D01*
X130266392Y-108243186D01*
X130272419Y-108220691D01*
X143474500Y-108220691D01*
X143474500Y-108339309D01*
X143505201Y-108453886D01*
X143564511Y-108556613D01*
X143648387Y-108640489D01*
X143648388Y-108640490D01*
X143648390Y-108640491D01*
X143652069Y-108642615D01*
X143654551Y-108645218D01*
X143654836Y-108645437D01*
X143654801Y-108645481D01*
X143700283Y-108693184D01*
X143713503Y-108761792D01*
X143687533Y-108826655D01*
X143652069Y-108857385D01*
X143648390Y-108859508D01*
X143648384Y-108859513D01*
X143564513Y-108943384D01*
X143564511Y-108943387D01*
X143505201Y-109046114D01*
X143474500Y-109160691D01*
X143474500Y-109279309D01*
X143505201Y-109393886D01*
X143564511Y-109496613D01*
X143648387Y-109580489D01*
X143751114Y-109639799D01*
X143865691Y-109670500D01*
X143865694Y-109670500D01*
X143984306Y-109670500D01*
X143984309Y-109670500D01*
X144098886Y-109639799D01*
X144201613Y-109580489D01*
X144285489Y-109496613D01*
X144344799Y-109393886D01*
X144375500Y-109279309D01*
X144375500Y-109160691D01*
X144344799Y-109046114D01*
X144285489Y-108943387D01*
X144201613Y-108859511D01*
X144197933Y-108857386D01*
X144195452Y-108854784D01*
X144195164Y-108854563D01*
X144195198Y-108854518D01*
X144149719Y-108806820D01*
X144136495Y-108738213D01*
X144162463Y-108673349D01*
X144197934Y-108642613D01*
X144201613Y-108640489D01*
X144285489Y-108556613D01*
X144344799Y-108453886D01*
X144375500Y-108339309D01*
X144375500Y-108220691D01*
X144344799Y-108106114D01*
X144285489Y-108003387D01*
X144201613Y-107919511D01*
X144098886Y-107860201D01*
X143984309Y-107829500D01*
X143865691Y-107829500D01*
X143751114Y-107860201D01*
X143751112Y-107860201D01*
X143751112Y-107860202D01*
X143648387Y-107919511D01*
X143648384Y-107919513D01*
X143564513Y-108003384D01*
X143564511Y-108003387D01*
X143509020Y-108099500D01*
X143505201Y-108106114D01*
X143474500Y-108220691D01*
X130272419Y-108220691D01*
X130300500Y-108115892D01*
X130300500Y-107984108D01*
X130266392Y-107856814D01*
X130200500Y-107742686D01*
X130195495Y-107737681D01*
X130162010Y-107676358D01*
X130166994Y-107606666D01*
X130195495Y-107562319D01*
X130200500Y-107557314D01*
X130266392Y-107443186D01*
X130300500Y-107315892D01*
X130300500Y-107240691D01*
X144909500Y-107240691D01*
X144909500Y-107359309D01*
X144940201Y-107473886D01*
X144999511Y-107576613D01*
X145083387Y-107660489D01*
X145186114Y-107719799D01*
X145300691Y-107750500D01*
X145300694Y-107750500D01*
X145419306Y-107750500D01*
X145419309Y-107750500D01*
X145533886Y-107719799D01*
X145636613Y-107660489D01*
X145720489Y-107576613D01*
X145779799Y-107473886D01*
X145779799Y-107473883D01*
X145781639Y-107470698D01*
X145832206Y-107422482D01*
X145900813Y-107409259D01*
X145965678Y-107435227D01*
X146006206Y-107492142D01*
X146008800Y-107500603D01*
X146033608Y-107593186D01*
X146099500Y-107707314D01*
X146192686Y-107800500D01*
X146265628Y-107842613D01*
X146313843Y-107893180D01*
X146327065Y-107961788D01*
X146301097Y-108026652D01*
X146265628Y-108057386D01*
X146192689Y-108099498D01*
X146192686Y-108099500D01*
X146192683Y-108099502D01*
X146099502Y-108192683D01*
X146099500Y-108192686D01*
X146033608Y-108306812D01*
X146005421Y-108412010D01*
X145999500Y-108434108D01*
X145999500Y-108565892D01*
X146014115Y-108620437D01*
X146033608Y-108693187D01*
X146055151Y-108730500D01*
X146099500Y-108807314D01*
X146099502Y-108807316D01*
X146192687Y-108900501D01*
X146194158Y-108901630D01*
X146195083Y-108902897D01*
X146198433Y-108906247D01*
X146197910Y-108906769D01*
X146235356Y-108958060D01*
X146239506Y-109027807D01*
X146205289Y-109088725D01*
X146194158Y-109098370D01*
X146192687Y-109099498D01*
X146099502Y-109192683D01*
X146099500Y-109192686D01*
X146033608Y-109306812D01*
X146010277Y-109393886D01*
X145999500Y-109434108D01*
X145999500Y-109565892D01*
X146015770Y-109626612D01*
X146033608Y-109693187D01*
X146066554Y-109750250D01*
X146099500Y-109807314D01*
X146192686Y-109900500D01*
X146306814Y-109966392D01*
X146434108Y-110000500D01*
X146434110Y-110000500D01*
X146565890Y-110000500D01*
X146565892Y-110000500D01*
X146693186Y-109966392D01*
X146807314Y-109900500D01*
X146900500Y-109807314D01*
X146900504Y-109807306D01*
X146901625Y-109805847D01*
X146902892Y-109804921D01*
X146906247Y-109801567D01*
X146906770Y-109802090D01*
X146958053Y-109764645D01*
X147027799Y-109760491D01*
X147088719Y-109794704D01*
X147098375Y-109805847D01*
X147099498Y-109807311D01*
X147099500Y-109807314D01*
X147192686Y-109900500D01*
X147306814Y-109966392D01*
X147434108Y-110000500D01*
X147434110Y-110000500D01*
X147565890Y-110000500D01*
X147565892Y-110000500D01*
X147693186Y-109966392D01*
X147807314Y-109900500D01*
X147900500Y-109807314D01*
X147900504Y-109807306D01*
X147901625Y-109805847D01*
X147902892Y-109804921D01*
X147906247Y-109801567D01*
X147906770Y-109802090D01*
X147958053Y-109764645D01*
X148027799Y-109760491D01*
X148088719Y-109794704D01*
X148098375Y-109805847D01*
X148099498Y-109807311D01*
X148099500Y-109807314D01*
X148192686Y-109900500D01*
X148306814Y-109966392D01*
X148434108Y-110000500D01*
X148434110Y-110000500D01*
X148565890Y-110000500D01*
X148565892Y-110000500D01*
X148693186Y-109966392D01*
X148807314Y-109900500D01*
X148900500Y-109807314D01*
X148900504Y-109807306D01*
X148901625Y-109805847D01*
X148902892Y-109804921D01*
X148906247Y-109801567D01*
X148906770Y-109802090D01*
X148958053Y-109764645D01*
X149027799Y-109760491D01*
X149088719Y-109794704D01*
X149098375Y-109805847D01*
X149099498Y-109807311D01*
X149099500Y-109807314D01*
X149192686Y-109900500D01*
X149306814Y-109966392D01*
X149434108Y-110000500D01*
X149434110Y-110000500D01*
X149565890Y-110000500D01*
X149565892Y-110000500D01*
X149693186Y-109966392D01*
X149807314Y-109900500D01*
X149900500Y-109807314D01*
X149900504Y-109807306D01*
X149901625Y-109805847D01*
X149902892Y-109804921D01*
X149906247Y-109801567D01*
X149906770Y-109802090D01*
X149958053Y-109764645D01*
X150027799Y-109760491D01*
X150088719Y-109794704D01*
X150098375Y-109805847D01*
X150099498Y-109807311D01*
X150099500Y-109807314D01*
X150192686Y-109900500D01*
X150306814Y-109966392D01*
X150434108Y-110000500D01*
X150434110Y-110000500D01*
X150565890Y-110000500D01*
X150565892Y-110000500D01*
X150693186Y-109966392D01*
X150807314Y-109900500D01*
X150900500Y-109807314D01*
X150900504Y-109807306D01*
X150901625Y-109805847D01*
X150902892Y-109804921D01*
X150906247Y-109801567D01*
X150906770Y-109802090D01*
X150958053Y-109764645D01*
X151027799Y-109760491D01*
X151088719Y-109794704D01*
X151098375Y-109805847D01*
X151099498Y-109807311D01*
X151099500Y-109807314D01*
X151192686Y-109900500D01*
X151306814Y-109966392D01*
X151434108Y-110000500D01*
X151434110Y-110000500D01*
X151565890Y-110000500D01*
X151565892Y-110000500D01*
X151693186Y-109966392D01*
X151807314Y-109900500D01*
X151900500Y-109807314D01*
X151966392Y-109693186D01*
X152000500Y-109565892D01*
X152000500Y-109434108D01*
X151966392Y-109306814D01*
X151900500Y-109192686D01*
X151807314Y-109099500D01*
X151807311Y-109099498D01*
X151805847Y-109098375D01*
X151804921Y-109097107D01*
X151801567Y-109093753D01*
X151802090Y-109093229D01*
X151764645Y-109041947D01*
X151760491Y-108972201D01*
X151794704Y-108911281D01*
X151805847Y-108901625D01*
X151807306Y-108900504D01*
X151807314Y-108900500D01*
X151900500Y-108807314D01*
X151966392Y-108693186D01*
X152000500Y-108565892D01*
X152000500Y-108434108D01*
X151966392Y-108306814D01*
X151902235Y-108195691D01*
X153599500Y-108195691D01*
X153599500Y-108314309D01*
X153630201Y-108428886D01*
X153689511Y-108531613D01*
X153773387Y-108615489D01*
X153773388Y-108615490D01*
X153773390Y-108615491D01*
X153777069Y-108617615D01*
X153779551Y-108620218D01*
X153779836Y-108620437D01*
X153779801Y-108620481D01*
X153825283Y-108668184D01*
X153838503Y-108736792D01*
X153812533Y-108801655D01*
X153777069Y-108832385D01*
X153773390Y-108834508D01*
X153773384Y-108834513D01*
X153689513Y-108918384D01*
X153689511Y-108918387D01*
X153643323Y-108998387D01*
X153630201Y-109021114D01*
X153599500Y-109135691D01*
X153599500Y-109254309D01*
X153630201Y-109368886D01*
X153689511Y-109471613D01*
X153773387Y-109555489D01*
X153876114Y-109614799D01*
X153990691Y-109645500D01*
X153990694Y-109645500D01*
X154109306Y-109645500D01*
X154109309Y-109645500D01*
X154223886Y-109614799D01*
X154326613Y-109555489D01*
X154410489Y-109471613D01*
X154469799Y-109368886D01*
X154500500Y-109254309D01*
X154500500Y-109135691D01*
X154469799Y-109021114D01*
X154410489Y-108918387D01*
X154326613Y-108834511D01*
X154322933Y-108832386D01*
X154320452Y-108829784D01*
X154320164Y-108829563D01*
X154320198Y-108829518D01*
X154274719Y-108781820D01*
X154261495Y-108713213D01*
X154287463Y-108648349D01*
X154322934Y-108617613D01*
X154326613Y-108615489D01*
X154410489Y-108531613D01*
X154469799Y-108428886D01*
X154500500Y-108314309D01*
X154500500Y-108195691D01*
X154469799Y-108081114D01*
X154410489Y-107978387D01*
X154326613Y-107894511D01*
X154223886Y-107835201D01*
X154109309Y-107804500D01*
X153990691Y-107804500D01*
X153876114Y-107835201D01*
X153876112Y-107835201D01*
X153876112Y-107835202D01*
X153773387Y-107894511D01*
X153773384Y-107894513D01*
X153689513Y-107978384D01*
X153689511Y-107978387D01*
X153630201Y-108081114D01*
X153599500Y-108195691D01*
X151902235Y-108195691D01*
X151900500Y-108192686D01*
X151807314Y-108099500D01*
X151734371Y-108057386D01*
X151686156Y-108006820D01*
X151672933Y-107938213D01*
X151698901Y-107873348D01*
X151734372Y-107842613D01*
X151807314Y-107800500D01*
X151900500Y-107707314D01*
X151966392Y-107593186D01*
X152000500Y-107465892D01*
X152000500Y-107334108D01*
X151972790Y-107230691D01*
X152279500Y-107230691D01*
X152279500Y-107349309D01*
X152310201Y-107463886D01*
X152369511Y-107566613D01*
X152453387Y-107650489D01*
X152556114Y-107709799D01*
X152670691Y-107740500D01*
X152670694Y-107740500D01*
X152789306Y-107740500D01*
X152789309Y-107740500D01*
X152903886Y-107709799D01*
X153006613Y-107650489D01*
X153090489Y-107566613D01*
X153149799Y-107463886D01*
X153180500Y-107349309D01*
X153180500Y-107230691D01*
X153149799Y-107116114D01*
X153090489Y-107013387D01*
X153006613Y-106929511D01*
X152903886Y-106870201D01*
X152789309Y-106839500D01*
X152670691Y-106839500D01*
X152556114Y-106870201D01*
X152556112Y-106870201D01*
X152556112Y-106870202D01*
X152453387Y-106929511D01*
X152453384Y-106929513D01*
X152369513Y-107013384D01*
X152369511Y-107013387D01*
X152323726Y-107092689D01*
X152310201Y-107116114D01*
X152279500Y-107230691D01*
X151972790Y-107230691D01*
X151966392Y-107206814D01*
X151900500Y-107092686D01*
X151807314Y-106999500D01*
X151708910Y-106942686D01*
X151693187Y-106933608D01*
X151629539Y-106916554D01*
X151565892Y-106899500D01*
X151434108Y-106899500D01*
X151306812Y-106933608D01*
X151192686Y-106999500D01*
X151192683Y-106999502D01*
X151099498Y-107092687D01*
X151098370Y-107094158D01*
X151097102Y-107095083D01*
X151093753Y-107098433D01*
X151093230Y-107097910D01*
X151041940Y-107135356D01*
X150972193Y-107139506D01*
X150911275Y-107105289D01*
X150901630Y-107094158D01*
X150900501Y-107092687D01*
X150807316Y-106999502D01*
X150807314Y-106999500D01*
X150708910Y-106942686D01*
X150693187Y-106933608D01*
X150629539Y-106916554D01*
X150565892Y-106899500D01*
X150434108Y-106899500D01*
X150306812Y-106933608D01*
X150192686Y-106999500D01*
X150192683Y-106999502D01*
X150099498Y-107092687D01*
X150098370Y-107094158D01*
X150097102Y-107095083D01*
X150093753Y-107098433D01*
X150093230Y-107097910D01*
X150041940Y-107135356D01*
X149972193Y-107139506D01*
X149911275Y-107105289D01*
X149901630Y-107094158D01*
X149900501Y-107092687D01*
X149807316Y-106999502D01*
X149807314Y-106999500D01*
X149708910Y-106942686D01*
X149693187Y-106933608D01*
X149629539Y-106916554D01*
X149565892Y-106899500D01*
X149434108Y-106899500D01*
X149306812Y-106933608D01*
X149192686Y-106999500D01*
X149192683Y-106999502D01*
X149099498Y-107092687D01*
X149098370Y-107094158D01*
X149097102Y-107095083D01*
X149093753Y-107098433D01*
X149093230Y-107097910D01*
X149041940Y-107135356D01*
X148972193Y-107139506D01*
X148911275Y-107105289D01*
X148901630Y-107094158D01*
X148900501Y-107092687D01*
X148807316Y-106999502D01*
X148807314Y-106999500D01*
X148708910Y-106942686D01*
X148693187Y-106933608D01*
X148629539Y-106916554D01*
X148565892Y-106899500D01*
X148434108Y-106899500D01*
X148306812Y-106933608D01*
X148192686Y-106999500D01*
X148192683Y-106999502D01*
X148099498Y-107092687D01*
X148098370Y-107094158D01*
X148097102Y-107095083D01*
X148093753Y-107098433D01*
X148093230Y-107097910D01*
X148041940Y-107135356D01*
X147972193Y-107139506D01*
X147911275Y-107105289D01*
X147901630Y-107094158D01*
X147900501Y-107092687D01*
X147807316Y-106999502D01*
X147807314Y-106999500D01*
X147708910Y-106942686D01*
X147693187Y-106933608D01*
X147629539Y-106916554D01*
X147565892Y-106899500D01*
X147434108Y-106899500D01*
X147306812Y-106933608D01*
X147192686Y-106999500D01*
X147192683Y-106999502D01*
X147099498Y-107092687D01*
X147098370Y-107094158D01*
X147097102Y-107095083D01*
X147093753Y-107098433D01*
X147093230Y-107097910D01*
X147041940Y-107135356D01*
X146972193Y-107139506D01*
X146911275Y-107105289D01*
X146901630Y-107094158D01*
X146900501Y-107092687D01*
X146807316Y-106999502D01*
X146807314Y-106999500D01*
X146708910Y-106942686D01*
X146693187Y-106933608D01*
X146629539Y-106916554D01*
X146565892Y-106899500D01*
X146434108Y-106899500D01*
X146306812Y-106933608D01*
X146192686Y-106999500D01*
X146192683Y-106999502D01*
X146099502Y-107092683D01*
X146099500Y-107092686D01*
X146033606Y-107206816D01*
X146032413Y-107209698D01*
X146030755Y-107211754D01*
X146029544Y-107213853D01*
X146029216Y-107213664D01*
X145988570Y-107264100D01*
X145922276Y-107286163D01*
X145854577Y-107268882D01*
X145806968Y-107217744D01*
X145798080Y-107194342D01*
X145779799Y-107126114D01*
X145720489Y-107023387D01*
X145636613Y-106939511D01*
X145533886Y-106880201D01*
X145419309Y-106849500D01*
X145300691Y-106849500D01*
X145186114Y-106880201D01*
X145186112Y-106880201D01*
X145186112Y-106880202D01*
X145083387Y-106939511D01*
X145083384Y-106939513D01*
X144999513Y-107023384D01*
X144999511Y-107023387D01*
X144945841Y-107116346D01*
X144940201Y-107126114D01*
X144909500Y-107240691D01*
X130300500Y-107240691D01*
X130300500Y-107184108D01*
X130266392Y-107056814D01*
X130200500Y-106942686D01*
X130195495Y-106937681D01*
X130162010Y-106876358D01*
X130166994Y-106806666D01*
X130195495Y-106762319D01*
X130200500Y-106757314D01*
X130266392Y-106643186D01*
X130300500Y-106515892D01*
X130300500Y-106384108D01*
X130266392Y-106256814D01*
X130200500Y-106142686D01*
X130195495Y-106137681D01*
X130162010Y-106076358D01*
X130166994Y-106006666D01*
X130195495Y-105962319D01*
X130200500Y-105957314D01*
X130266392Y-105843186D01*
X130300500Y-105715892D01*
X130300500Y-105584108D01*
X130266392Y-105456814D01*
X130200500Y-105342686D01*
X130107314Y-105249500D01*
X130050250Y-105216554D01*
X129993187Y-105183608D01*
X129929539Y-105166554D01*
X129865892Y-105149500D01*
X129734108Y-105149500D01*
X129606812Y-105183608D01*
X129492686Y-105249500D01*
X129492683Y-105249502D01*
X129487681Y-105254505D01*
X129426358Y-105287990D01*
X129356666Y-105283006D01*
X129312319Y-105254505D01*
X129307316Y-105249502D01*
X129307314Y-105249500D01*
X129250250Y-105216554D01*
X129193187Y-105183608D01*
X129129539Y-105166554D01*
X129065892Y-105149500D01*
X128934108Y-105149500D01*
X128806812Y-105183608D01*
X128692686Y-105249500D01*
X128692683Y-105249502D01*
X128687681Y-105254505D01*
X128626358Y-105287990D01*
X128556666Y-105283006D01*
X128512319Y-105254505D01*
X128507316Y-105249502D01*
X128507314Y-105249500D01*
X128450250Y-105216554D01*
X128393187Y-105183608D01*
X128329539Y-105166554D01*
X128265892Y-105149500D01*
X128134108Y-105149500D01*
X128006812Y-105183608D01*
X127892686Y-105249500D01*
X127892683Y-105249502D01*
X127887681Y-105254505D01*
X127826358Y-105287990D01*
X127756666Y-105283006D01*
X127712319Y-105254505D01*
X127707316Y-105249502D01*
X127707314Y-105249500D01*
X127650250Y-105216554D01*
X127593187Y-105183608D01*
X127529539Y-105166554D01*
X127465892Y-105149500D01*
X127334108Y-105149500D01*
X127206812Y-105183608D01*
X127092686Y-105249500D01*
X127092683Y-105249502D01*
X126999502Y-105342683D01*
X126999500Y-105342686D01*
X126933608Y-105456812D01*
X126899500Y-105584108D01*
X103423229Y-105584108D01*
X103415235Y-101562999D01*
X103414780Y-101334108D01*
X109399500Y-101334108D01*
X109399500Y-101465892D01*
X109433473Y-101592683D01*
X109433609Y-101593188D01*
X109433609Y-101593189D01*
X109488348Y-101688000D01*
X109504821Y-101755900D01*
X109488348Y-101812000D01*
X109433609Y-101906810D01*
X109433609Y-101906811D01*
X109433609Y-101906812D01*
X109433608Y-101906814D01*
X109399500Y-102034108D01*
X109399500Y-102165892D01*
X109432218Y-102287999D01*
X109433609Y-102293188D01*
X109433609Y-102293189D01*
X109488348Y-102388000D01*
X109504821Y-102455900D01*
X109488348Y-102512000D01*
X109433609Y-102606810D01*
X109433609Y-102606811D01*
X109433609Y-102606812D01*
X109433608Y-102606814D01*
X109399500Y-102734108D01*
X109399500Y-102865892D01*
X109416554Y-102929539D01*
X109433608Y-102993187D01*
X109441766Y-103007316D01*
X109499500Y-103107314D01*
X109592686Y-103200500D01*
X109706814Y-103266392D01*
X109834108Y-103300500D01*
X109834110Y-103300500D01*
X109965890Y-103300500D01*
X109965892Y-103300500D01*
X110093186Y-103266392D01*
X110188000Y-103211650D01*
X110255900Y-103195178D01*
X110311999Y-103211650D01*
X110406814Y-103266392D01*
X110534108Y-103300500D01*
X110534110Y-103300500D01*
X110665890Y-103300500D01*
X110665892Y-103300500D01*
X110793186Y-103266392D01*
X110907314Y-103200500D01*
X111000500Y-103107314D01*
X111066392Y-102993186D01*
X111100500Y-102865892D01*
X111100500Y-102734108D01*
X111066392Y-102606814D01*
X111011650Y-102511999D01*
X110995178Y-102444100D01*
X111011650Y-102388000D01*
X111066392Y-102293186D01*
X111100500Y-102165892D01*
X111100500Y-102034108D01*
X111066392Y-101906814D01*
X111011650Y-101811999D01*
X110995178Y-101744100D01*
X111011650Y-101688000D01*
X111066392Y-101593186D01*
X111100500Y-101465892D01*
X111100500Y-101334108D01*
X111662000Y-101334108D01*
X111662000Y-101465892D01*
X111695973Y-101592683D01*
X111696109Y-101593188D01*
X111696109Y-101593189D01*
X111750848Y-101688000D01*
X111767321Y-101755900D01*
X111750848Y-101812000D01*
X111696109Y-101906810D01*
X111696109Y-101906811D01*
X111696109Y-101906812D01*
X111696108Y-101906814D01*
X111662000Y-102034108D01*
X111662000Y-102165892D01*
X111694718Y-102287999D01*
X111696109Y-102293188D01*
X111696109Y-102293189D01*
X111750848Y-102388000D01*
X111767321Y-102455900D01*
X111750848Y-102512000D01*
X111696109Y-102606810D01*
X111696109Y-102606811D01*
X111696109Y-102606812D01*
X111696108Y-102606814D01*
X111662000Y-102734108D01*
X111662000Y-102865892D01*
X111679054Y-102929539D01*
X111696108Y-102993187D01*
X111704266Y-103007316D01*
X111762000Y-103107314D01*
X111855186Y-103200500D01*
X111969314Y-103266392D01*
X112096608Y-103300500D01*
X112096610Y-103300500D01*
X112228390Y-103300500D01*
X112228392Y-103300500D01*
X112355686Y-103266392D01*
X112450500Y-103211650D01*
X112518400Y-103195178D01*
X112574499Y-103211650D01*
X112669314Y-103266392D01*
X112796608Y-103300500D01*
X112796610Y-103300500D01*
X112928390Y-103300500D01*
X112928392Y-103300500D01*
X113055686Y-103266392D01*
X113169814Y-103200500D01*
X113263000Y-103107314D01*
X113328892Y-102993186D01*
X113363000Y-102865892D01*
X113363000Y-102734108D01*
X113328892Y-102606814D01*
X113274150Y-102511999D01*
X113257678Y-102444100D01*
X113274150Y-102388000D01*
X113328892Y-102293186D01*
X113363000Y-102165892D01*
X113363000Y-102034108D01*
X113328892Y-101906814D01*
X113274150Y-101811999D01*
X113257678Y-101744100D01*
X113274150Y-101688000D01*
X113328892Y-101593186D01*
X113363000Y-101465892D01*
X113363000Y-101334108D01*
X113962000Y-101334108D01*
X113962000Y-101465892D01*
X113995973Y-101592683D01*
X113996109Y-101593188D01*
X113996109Y-101593189D01*
X114050848Y-101688000D01*
X114067321Y-101755900D01*
X114050848Y-101812000D01*
X113996109Y-101906810D01*
X113996109Y-101906811D01*
X113996109Y-101906812D01*
X113996108Y-101906814D01*
X113962000Y-102034108D01*
X113962000Y-102165892D01*
X113994718Y-102287999D01*
X113996109Y-102293188D01*
X113996109Y-102293189D01*
X114050848Y-102388000D01*
X114067321Y-102455900D01*
X114050848Y-102512000D01*
X113996109Y-102606810D01*
X113996109Y-102606811D01*
X113996109Y-102606812D01*
X113996108Y-102606814D01*
X113962000Y-102734108D01*
X113962000Y-102865892D01*
X113979054Y-102929539D01*
X113996108Y-102993187D01*
X114004266Y-103007316D01*
X114062000Y-103107314D01*
X114155186Y-103200500D01*
X114269314Y-103266392D01*
X114396608Y-103300500D01*
X114396610Y-103300500D01*
X114528390Y-103300500D01*
X114528392Y-103300500D01*
X114655686Y-103266392D01*
X114750500Y-103211650D01*
X114818400Y-103195178D01*
X114874499Y-103211650D01*
X114969314Y-103266392D01*
X115096608Y-103300500D01*
X115096610Y-103300500D01*
X115228390Y-103300500D01*
X115228392Y-103300500D01*
X115355686Y-103266392D01*
X115469814Y-103200500D01*
X115563000Y-103107314D01*
X115628892Y-102993186D01*
X115663000Y-102865892D01*
X115663000Y-102734108D01*
X115628892Y-102606814D01*
X115574150Y-102511999D01*
X115557678Y-102444100D01*
X115574150Y-102388000D01*
X115628892Y-102293186D01*
X115663000Y-102165892D01*
X115663000Y-102034108D01*
X115628892Y-101906814D01*
X115574150Y-101811999D01*
X115557678Y-101744100D01*
X115574150Y-101688000D01*
X115628892Y-101593186D01*
X115663000Y-101465892D01*
X115663000Y-101334108D01*
X116349500Y-101334108D01*
X116349500Y-101465892D01*
X116383473Y-101592683D01*
X116383609Y-101593188D01*
X116383609Y-101593189D01*
X116438348Y-101688000D01*
X116454821Y-101755900D01*
X116438348Y-101812000D01*
X116383609Y-101906810D01*
X116383609Y-101906811D01*
X116383609Y-101906812D01*
X116383608Y-101906814D01*
X116349500Y-102034108D01*
X116349500Y-102165892D01*
X116382218Y-102287999D01*
X116383609Y-102293188D01*
X116383609Y-102293189D01*
X116438348Y-102388000D01*
X116454821Y-102455900D01*
X116438348Y-102512000D01*
X116383609Y-102606810D01*
X116383609Y-102606811D01*
X116383609Y-102606812D01*
X116383608Y-102606814D01*
X116349500Y-102734108D01*
X116349500Y-102865892D01*
X116366554Y-102929539D01*
X116383608Y-102993187D01*
X116391766Y-103007316D01*
X116449500Y-103107314D01*
X116542686Y-103200500D01*
X116656814Y-103266392D01*
X116784108Y-103300500D01*
X116784110Y-103300500D01*
X116915890Y-103300500D01*
X116915892Y-103300500D01*
X117043186Y-103266392D01*
X117138000Y-103211650D01*
X117205900Y-103195178D01*
X117261999Y-103211650D01*
X117356814Y-103266392D01*
X117484108Y-103300500D01*
X117484110Y-103300500D01*
X117615890Y-103300500D01*
X117615892Y-103300500D01*
X117743186Y-103266392D01*
X117857314Y-103200500D01*
X117950500Y-103107314D01*
X118016392Y-102993186D01*
X118050500Y-102865892D01*
X118050500Y-102734108D01*
X118016392Y-102606814D01*
X117961650Y-102511999D01*
X117945178Y-102444100D01*
X117961650Y-102388000D01*
X118016392Y-102293186D01*
X118050500Y-102165892D01*
X118050500Y-102034108D01*
X118016392Y-101906814D01*
X117961650Y-101811999D01*
X117945178Y-101744100D01*
X117961650Y-101688000D01*
X118016392Y-101593186D01*
X118050500Y-101465892D01*
X118050500Y-101334108D01*
X118599500Y-101334108D01*
X118599500Y-101465892D01*
X118633473Y-101592683D01*
X118633609Y-101593188D01*
X118633609Y-101593189D01*
X118688348Y-101688000D01*
X118704821Y-101755900D01*
X118688348Y-101812000D01*
X118633609Y-101906810D01*
X118633609Y-101906811D01*
X118633609Y-101906812D01*
X118633608Y-101906814D01*
X118599500Y-102034108D01*
X118599500Y-102165892D01*
X118632218Y-102287999D01*
X118633609Y-102293188D01*
X118633609Y-102293189D01*
X118688348Y-102388000D01*
X118704821Y-102455900D01*
X118688348Y-102512000D01*
X118633609Y-102606810D01*
X118633609Y-102606811D01*
X118633609Y-102606812D01*
X118633608Y-102606814D01*
X118599500Y-102734108D01*
X118599500Y-102865892D01*
X118616554Y-102929539D01*
X118633608Y-102993187D01*
X118641766Y-103007316D01*
X118699500Y-103107314D01*
X118792686Y-103200500D01*
X118906814Y-103266392D01*
X119034108Y-103300500D01*
X119034110Y-103300500D01*
X119165890Y-103300500D01*
X119165892Y-103300500D01*
X119293186Y-103266392D01*
X119388000Y-103211650D01*
X119455900Y-103195178D01*
X119511999Y-103211650D01*
X119606814Y-103266392D01*
X119734108Y-103300500D01*
X119734110Y-103300500D01*
X119865890Y-103300500D01*
X119865892Y-103300500D01*
X119993186Y-103266392D01*
X120107314Y-103200500D01*
X120200500Y-103107314D01*
X120266392Y-102993186D01*
X120300500Y-102865892D01*
X120300500Y-102734108D01*
X120266392Y-102606814D01*
X120211650Y-102511999D01*
X120195178Y-102444100D01*
X120211650Y-102388000D01*
X120266392Y-102293186D01*
X120300500Y-102165892D01*
X120300500Y-102034108D01*
X120266392Y-101906814D01*
X120211650Y-101811999D01*
X120195178Y-101744100D01*
X120211650Y-101688000D01*
X120266392Y-101593186D01*
X120300500Y-101465892D01*
X120300500Y-101334108D01*
X120949500Y-101334108D01*
X120949500Y-101465892D01*
X120983473Y-101592683D01*
X120983609Y-101593188D01*
X120983609Y-101593189D01*
X121038348Y-101688000D01*
X121054821Y-101755900D01*
X121038348Y-101812000D01*
X120983609Y-101906810D01*
X120983609Y-101906811D01*
X120983609Y-101906812D01*
X120983608Y-101906814D01*
X120949500Y-102034108D01*
X120949500Y-102165892D01*
X120982218Y-102287999D01*
X120983609Y-102293188D01*
X120983609Y-102293189D01*
X121038348Y-102388000D01*
X121054821Y-102455900D01*
X121038348Y-102512000D01*
X120983609Y-102606810D01*
X120983609Y-102606811D01*
X120983609Y-102606812D01*
X120983608Y-102606814D01*
X120949500Y-102734108D01*
X120949500Y-102865892D01*
X120966554Y-102929539D01*
X120983608Y-102993187D01*
X120991766Y-103007316D01*
X121049500Y-103107314D01*
X121142686Y-103200500D01*
X121256814Y-103266392D01*
X121384108Y-103300500D01*
X121384110Y-103300500D01*
X121515890Y-103300500D01*
X121515892Y-103300500D01*
X121643186Y-103266392D01*
X121738000Y-103211650D01*
X121805900Y-103195178D01*
X121861999Y-103211650D01*
X121956814Y-103266392D01*
X122084108Y-103300500D01*
X122084110Y-103300500D01*
X122215890Y-103300500D01*
X122215892Y-103300500D01*
X122343186Y-103266392D01*
X122457314Y-103200500D01*
X122550500Y-103107314D01*
X122616392Y-102993186D01*
X122650500Y-102865892D01*
X122650500Y-102734108D01*
X122616392Y-102606814D01*
X122561650Y-102511999D01*
X122545178Y-102444100D01*
X122561650Y-102388000D01*
X122616392Y-102293186D01*
X122650500Y-102165892D01*
X122650500Y-102034108D01*
X122616392Y-101906814D01*
X122616389Y-101906808D01*
X122605520Y-101887982D01*
X122605519Y-101887981D01*
X122574415Y-101834108D01*
X126899500Y-101834108D01*
X126899500Y-101965892D01*
X126926294Y-102065891D01*
X126933609Y-102093188D01*
X126933609Y-102093189D01*
X127002782Y-102213000D01*
X127019255Y-102280900D01*
X127002782Y-102337000D01*
X126933609Y-102456810D01*
X126933609Y-102456811D01*
X126933609Y-102456812D01*
X126933608Y-102456814D01*
X126899500Y-102584108D01*
X126899500Y-102715892D01*
X126912897Y-102765890D01*
X126933608Y-102843187D01*
X126962476Y-102893186D01*
X126999500Y-102957314D01*
X126999502Y-102957316D01*
X127004505Y-102962319D01*
X127037990Y-103023642D01*
X127033006Y-103093334D01*
X127004505Y-103137681D01*
X126999502Y-103142683D01*
X126999500Y-103142686D01*
X126933608Y-103256812D01*
X126899500Y-103384108D01*
X126899500Y-103515891D01*
X126933608Y-103643187D01*
X126966554Y-103700250D01*
X126999500Y-103757314D01*
X126999502Y-103757316D01*
X127004505Y-103762319D01*
X127037990Y-103823642D01*
X127033006Y-103893334D01*
X127004505Y-103937681D01*
X126999502Y-103942683D01*
X126999500Y-103942686D01*
X126933608Y-104056812D01*
X126899500Y-104184108D01*
X126899500Y-104315891D01*
X126933608Y-104443187D01*
X126966554Y-104500250D01*
X126999500Y-104557314D01*
X127092686Y-104650500D01*
X127206814Y-104716392D01*
X127334108Y-104750500D01*
X127334110Y-104750500D01*
X127465890Y-104750500D01*
X127465892Y-104750500D01*
X127593186Y-104716392D01*
X127707314Y-104650500D01*
X127712319Y-104645495D01*
X127773642Y-104612010D01*
X127843334Y-104616994D01*
X127887681Y-104645495D01*
X127892686Y-104650500D01*
X128006814Y-104716392D01*
X128134108Y-104750500D01*
X128134110Y-104750500D01*
X128265890Y-104750500D01*
X128265892Y-104750500D01*
X128393186Y-104716392D01*
X128507314Y-104650500D01*
X128512319Y-104645495D01*
X128573642Y-104612010D01*
X128643334Y-104616994D01*
X128687681Y-104645495D01*
X128692686Y-104650500D01*
X128806814Y-104716392D01*
X128934108Y-104750500D01*
X128934110Y-104750500D01*
X129065890Y-104750500D01*
X129065892Y-104750500D01*
X129193186Y-104716392D01*
X129307314Y-104650500D01*
X129312319Y-104645495D01*
X129373642Y-104612010D01*
X129443334Y-104616994D01*
X129487681Y-104645495D01*
X129492686Y-104650500D01*
X129606814Y-104716392D01*
X129734108Y-104750500D01*
X129734110Y-104750500D01*
X129865890Y-104750500D01*
X129865892Y-104750500D01*
X129993186Y-104716392D01*
X130107314Y-104650500D01*
X130200500Y-104557314D01*
X130266392Y-104443186D01*
X130300500Y-104315892D01*
X130300500Y-104184108D01*
X130266392Y-104056814D01*
X130257946Y-104042186D01*
X130257563Y-104041521D01*
X130200500Y-103942686D01*
X130195495Y-103937681D01*
X130162010Y-103876358D01*
X130166994Y-103806666D01*
X130195495Y-103762319D01*
X130200500Y-103757314D01*
X130266392Y-103643186D01*
X130300500Y-103515892D01*
X130300500Y-103384108D01*
X130266392Y-103256814D01*
X130257946Y-103242186D01*
X130257563Y-103241521D01*
X130200500Y-103142686D01*
X130195495Y-103137681D01*
X130162010Y-103076358D01*
X130166994Y-103006666D01*
X130195495Y-102962319D01*
X130200500Y-102957314D01*
X130266392Y-102843186D01*
X130300500Y-102715892D01*
X130300500Y-102584108D01*
X130266392Y-102456814D01*
X130257946Y-102442186D01*
X130240519Y-102412001D01*
X130200500Y-102342686D01*
X130200498Y-102342684D01*
X130197217Y-102337001D01*
X130180744Y-102269101D01*
X130197217Y-102212999D01*
X130200498Y-102207315D01*
X130200500Y-102207314D01*
X130266392Y-102093186D01*
X130300500Y-101965892D01*
X130300500Y-101834108D01*
X130266392Y-101706814D01*
X130200500Y-101592686D01*
X130107314Y-101499500D01*
X130049100Y-101465890D01*
X129993187Y-101433608D01*
X129929539Y-101416554D01*
X129865892Y-101399500D01*
X129734108Y-101399500D01*
X129606812Y-101433608D01*
X129492686Y-101499500D01*
X129492683Y-101499502D01*
X129487681Y-101504505D01*
X129426358Y-101537990D01*
X129356666Y-101533006D01*
X129312319Y-101504505D01*
X129307316Y-101499502D01*
X129307314Y-101499500D01*
X129249100Y-101465890D01*
X129193187Y-101433608D01*
X129129539Y-101416554D01*
X129065892Y-101399500D01*
X128934108Y-101399500D01*
X128806812Y-101433608D01*
X128692686Y-101499500D01*
X128692683Y-101499502D01*
X128687681Y-101504505D01*
X128626358Y-101537990D01*
X128556666Y-101533006D01*
X128512319Y-101504505D01*
X128507316Y-101499502D01*
X128507314Y-101499500D01*
X128449100Y-101465890D01*
X128393187Y-101433608D01*
X128329539Y-101416554D01*
X128265892Y-101399500D01*
X128134108Y-101399500D01*
X128006812Y-101433608D01*
X127892686Y-101499500D01*
X127892683Y-101499502D01*
X127887681Y-101504505D01*
X127826358Y-101537990D01*
X127756666Y-101533006D01*
X127712319Y-101504505D01*
X127707316Y-101499502D01*
X127707314Y-101499500D01*
X127649100Y-101465890D01*
X127593187Y-101433608D01*
X127529539Y-101416554D01*
X127465892Y-101399500D01*
X127334108Y-101399500D01*
X127206812Y-101433608D01*
X127092686Y-101499500D01*
X127092683Y-101499502D01*
X126999502Y-101592683D01*
X126999500Y-101592686D01*
X126933608Y-101706812D01*
X126913512Y-101781814D01*
X126899500Y-101834108D01*
X122574415Y-101834108D01*
X122561651Y-101812000D01*
X122545178Y-101744100D01*
X122561650Y-101688000D01*
X122616392Y-101593186D01*
X122650500Y-101465892D01*
X122650500Y-101334108D01*
X122616392Y-101206814D01*
X122550500Y-101092686D01*
X122457314Y-100999500D01*
X122394943Y-100963490D01*
X122343187Y-100933608D01*
X122243188Y-100906814D01*
X122215892Y-100899500D01*
X122084108Y-100899500D01*
X121956814Y-100933608D01*
X121956813Y-100933608D01*
X121956811Y-100933609D01*
X121956810Y-100933609D01*
X121862000Y-100988348D01*
X121794100Y-101004821D01*
X121738000Y-100988348D01*
X121643189Y-100933609D01*
X121643186Y-100933608D01*
X121515892Y-100899500D01*
X121384108Y-100899500D01*
X121256812Y-100933608D01*
X121142686Y-100999500D01*
X121142683Y-100999502D01*
X121049502Y-101092683D01*
X121049500Y-101092686D01*
X120983608Y-101206812D01*
X120955049Y-101313398D01*
X120949500Y-101334108D01*
X120300500Y-101334108D01*
X120266392Y-101206814D01*
X120200500Y-101092686D01*
X120107314Y-100999500D01*
X120044943Y-100963490D01*
X119993187Y-100933608D01*
X119893188Y-100906814D01*
X119865892Y-100899500D01*
X119734108Y-100899500D01*
X119606814Y-100933608D01*
X119606813Y-100933608D01*
X119606811Y-100933609D01*
X119606810Y-100933609D01*
X119512000Y-100988348D01*
X119444100Y-101004821D01*
X119388000Y-100988348D01*
X119293189Y-100933609D01*
X119293186Y-100933608D01*
X119165892Y-100899500D01*
X119034108Y-100899500D01*
X118906812Y-100933608D01*
X118792686Y-100999500D01*
X118792683Y-100999502D01*
X118699502Y-101092683D01*
X118699500Y-101092686D01*
X118633608Y-101206812D01*
X118605049Y-101313398D01*
X118599500Y-101334108D01*
X118050500Y-101334108D01*
X118016392Y-101206814D01*
X117950500Y-101092686D01*
X117857314Y-100999500D01*
X117794943Y-100963490D01*
X117743187Y-100933608D01*
X117643188Y-100906814D01*
X117615892Y-100899500D01*
X117484108Y-100899500D01*
X117356814Y-100933608D01*
X117356813Y-100933608D01*
X117356811Y-100933609D01*
X117356810Y-100933609D01*
X117262000Y-100988348D01*
X117194100Y-101004821D01*
X117138000Y-100988348D01*
X117043189Y-100933609D01*
X117043186Y-100933608D01*
X116915892Y-100899500D01*
X116784108Y-100899500D01*
X116656812Y-100933608D01*
X116542686Y-100999500D01*
X116542683Y-100999502D01*
X116449502Y-101092683D01*
X116449500Y-101092686D01*
X116383608Y-101206812D01*
X116355049Y-101313398D01*
X116349500Y-101334108D01*
X115663000Y-101334108D01*
X115628892Y-101206814D01*
X115563000Y-101092686D01*
X115469814Y-100999500D01*
X115407443Y-100963490D01*
X115355687Y-100933608D01*
X115255688Y-100906814D01*
X115228392Y-100899500D01*
X115096608Y-100899500D01*
X114969314Y-100933608D01*
X114969313Y-100933608D01*
X114969311Y-100933609D01*
X114969310Y-100933609D01*
X114874500Y-100988348D01*
X114806600Y-101004821D01*
X114750500Y-100988348D01*
X114655689Y-100933609D01*
X114655686Y-100933608D01*
X114528392Y-100899500D01*
X114396608Y-100899500D01*
X114269312Y-100933608D01*
X114155186Y-100999500D01*
X114155183Y-100999502D01*
X114062002Y-101092683D01*
X114062000Y-101092686D01*
X113996108Y-101206812D01*
X113967549Y-101313398D01*
X113962000Y-101334108D01*
X113363000Y-101334108D01*
X113328892Y-101206814D01*
X113263000Y-101092686D01*
X113169814Y-100999500D01*
X113107443Y-100963490D01*
X113055687Y-100933608D01*
X112955688Y-100906814D01*
X112928392Y-100899500D01*
X112796608Y-100899500D01*
X112669314Y-100933608D01*
X112669313Y-100933608D01*
X112669311Y-100933609D01*
X112669310Y-100933609D01*
X112574500Y-100988348D01*
X112506600Y-101004821D01*
X112450500Y-100988348D01*
X112355689Y-100933609D01*
X112355686Y-100933608D01*
X112228392Y-100899500D01*
X112096608Y-100899500D01*
X111969312Y-100933608D01*
X111855186Y-100999500D01*
X111855183Y-100999502D01*
X111762002Y-101092683D01*
X111762000Y-101092686D01*
X111696108Y-101206812D01*
X111667549Y-101313398D01*
X111662000Y-101334108D01*
X111100500Y-101334108D01*
X111066392Y-101206814D01*
X111000500Y-101092686D01*
X110907314Y-100999500D01*
X110844943Y-100963490D01*
X110793187Y-100933608D01*
X110693188Y-100906814D01*
X110665892Y-100899500D01*
X110534108Y-100899500D01*
X110406814Y-100933608D01*
X110406813Y-100933608D01*
X110406811Y-100933609D01*
X110406810Y-100933609D01*
X110312000Y-100988348D01*
X110244100Y-101004821D01*
X110188000Y-100988348D01*
X110093189Y-100933609D01*
X110093186Y-100933608D01*
X109965892Y-100899500D01*
X109834108Y-100899500D01*
X109706812Y-100933608D01*
X109592686Y-100999500D01*
X109592683Y-100999502D01*
X109499502Y-101092683D01*
X109499500Y-101092686D01*
X109433608Y-101206812D01*
X109405049Y-101313398D01*
X109399500Y-101334108D01*
X103414780Y-101334108D01*
X103414764Y-101326228D01*
X103414436Y-101161316D01*
X103433987Y-101094237D01*
X103486700Y-101048377D01*
X103506343Y-101041294D01*
X103509306Y-101040500D01*
X103509309Y-101040500D01*
X103623886Y-101009799D01*
X103726613Y-100950489D01*
X103810489Y-100866613D01*
X103869799Y-100763886D01*
X103900500Y-100649309D01*
X103900500Y-100530691D01*
X103869799Y-100416114D01*
X103810489Y-100313387D01*
X103726613Y-100229511D01*
X103623886Y-100170201D01*
X103509309Y-100139500D01*
X103509306Y-100139500D01*
X103504070Y-100138097D01*
X103444410Y-100101732D01*
X103413881Y-100038885D01*
X103412164Y-100018569D01*
X103411796Y-99833608D01*
X103400102Y-93951504D01*
X103419653Y-93884427D01*
X103436416Y-93863583D01*
X106363681Y-90936319D01*
X106425004Y-90902834D01*
X106451362Y-90900000D01*
X118350000Y-90900000D01*
X118350000Y-83724000D01*
X118369685Y-83656961D01*
X118422489Y-83611206D01*
X118474000Y-83600000D01*
X123526000Y-83600000D01*
X123593039Y-83619685D01*
G37*
%TD.AperFunction*%
%TD*%
%TA.AperFunction,Conductor*%
%TO.N,GND*%
G36*
X157301165Y-51259685D02*
G01*
X157325308Y-51279965D01*
X158379419Y-52423728D01*
X158410377Y-52486364D01*
X158412237Y-52507762D01*
X158412237Y-56491756D01*
X158392552Y-56558795D01*
X158374111Y-56581208D01*
X157318947Y-57594166D01*
X157256953Y-57626393D01*
X157233231Y-57628714D01*
X148291084Y-57640123D01*
X148224020Y-57620524D01*
X148200613Y-57601092D01*
X147113783Y-56445907D01*
X147082183Y-56383591D01*
X147080096Y-56360696D01*
X147087881Y-52363947D01*
X147107696Y-52296950D01*
X147127498Y-52273334D01*
X148204636Y-51273133D01*
X148267157Y-51241941D01*
X148289012Y-51240000D01*
X157234126Y-51240000D01*
X157301165Y-51259685D01*
G37*
%TD.AperFunction*%
%TD*%
%TA.AperFunction,Conductor*%
%TO.N,/12V*%
G36*
X157539601Y-58369973D02*
G01*
X157563173Y-58389458D01*
X158255470Y-59120216D01*
X158287799Y-59183424D01*
X158290000Y-59206871D01*
X158290000Y-63217908D01*
X158269998Y-63286029D01*
X158250656Y-63309378D01*
X157304782Y-64205470D01*
X157241573Y-64237799D01*
X157218126Y-64240000D01*
X143210148Y-64240000D01*
X143142027Y-64219998D01*
X143121053Y-64203095D01*
X142296905Y-63378947D01*
X142262879Y-63316635D01*
X142260000Y-63289852D01*
X142260000Y-59330151D01*
X142280002Y-59262030D01*
X142296808Y-59241151D01*
X143119167Y-58417063D01*
X143181440Y-58382975D01*
X143208082Y-58380067D01*
X157471438Y-58350114D01*
X157539601Y-58369973D01*
G37*
%TD.AperFunction*%
%TD*%
M02*
