%TF.GenerationSoftware,KiCad,Pcbnew,9.0.0*%
%TF.CreationDate,2025-05-19T16:40:13-04:00*%
%TF.ProjectId,BitaxeGT,42697461-7865-4475-942e-6b696361645f,v800*%
%TF.SameCoordinates,Original*%
%TF.FileFunction,Copper,L1,Top*%
%TF.FilePolarity,Positive*%
%FSLAX46Y46*%
G04 Gerber Fmt 4.6, Leading zero omitted, Abs format (unit mm)*
G04 Created by KiCad (PCBNEW 9.0.0) date 2025-05-19 16:40:13*
%MOMM*%
%LPD*%
G01*
G04 APERTURE LIST*
G04 Aperture macros list*
%AMRoundRect*
0 Rectangle with rounded corners*
0 $1 Rounding radius*
0 $2 $3 $4 $5 $6 $7 $8 $9 X,Y pos of 4 corners*
0 Add a 4 corners polygon primitive as box body*
4,1,4,$2,$3,$4,$5,$6,$7,$8,$9,$2,$3,0*
0 Add four circle primitives for the rounded corners*
1,1,$1+$1,$2,$3*
1,1,$1+$1,$4,$5*
1,1,$1+$1,$6,$7*
1,1,$1+$1,$8,$9*
0 Add four rect primitives between the rounded corners*
20,1,$1+$1,$2,$3,$4,$5,0*
20,1,$1+$1,$4,$5,$6,$7,0*
20,1,$1+$1,$6,$7,$8,$9,0*
20,1,$1+$1,$8,$9,$2,$3,0*%
G04 Aperture macros list end*
%TA.AperFunction,EtchedComponent*%
%ADD10C,0.000000*%
%TD*%
%TA.AperFunction,SMDPad,CuDef*%
%ADD11C,1.000000*%
%TD*%
%TA.AperFunction,SMDPad,CuDef*%
%ADD12RoundRect,0.055250X-0.340750X-0.055250X0.340750X-0.055250X0.340750X0.055250X-0.340750X0.055250X0*%
%TD*%
%TA.AperFunction,SMDPad,CuDef*%
%ADD13R,6.300000X1.840000*%
%TD*%
%TA.AperFunction,SMDPad,CuDef*%
%ADD14R,6.300000X5.520000*%
%TD*%
%TA.AperFunction,ComponentPad*%
%ADD15C,0.800000*%
%TD*%
%TA.AperFunction,ComponentPad*%
%ADD16C,6.400000*%
%TD*%
%TA.AperFunction,ComponentPad*%
%ADD17C,1.574800*%
%TD*%
%TA.AperFunction,ComponentPad*%
%ADD18C,1.700000*%
%TD*%
%TA.AperFunction,ComponentPad*%
%ADD19O,1.700000X1.700000*%
%TD*%
%TA.AperFunction,ComponentPad*%
%ADD20C,6.000000*%
%TD*%
%TA.AperFunction,ComponentPad*%
%ADD21C,0.400000*%
%TD*%
%TA.AperFunction,ComponentPad*%
%ADD22C,0.499999*%
%TD*%
%TA.AperFunction,ComponentPad*%
%ADD23C,3.000000*%
%TD*%
%TA.AperFunction,ComponentPad*%
%ADD24C,2.000000*%
%TD*%
%TA.AperFunction,ComponentPad*%
%ADD25O,1.000000X1.800000*%
%TD*%
%TA.AperFunction,ComponentPad*%
%ADD26O,1.000000X2.100000*%
%TD*%
%TA.AperFunction,ViaPad*%
%ADD27C,0.500000*%
%TD*%
%TA.AperFunction,ViaPad*%
%ADD28C,0.600000*%
%TD*%
%TA.AperFunction,ViaPad*%
%ADD29C,0.800000*%
%TD*%
%TA.AperFunction,ViaPad*%
%ADD30C,0.700000*%
%TD*%
%TA.AperFunction,ViaPad*%
%ADD31C,1.000000*%
%TD*%
%TA.AperFunction,Conductor*%
%ADD32C,0.200000*%
%TD*%
%TA.AperFunction,Conductor*%
%ADD33C,0.400000*%
%TD*%
G04 APERTURE END LIST*
D10*
%TA.AperFunction,EtchedComponent*%
%TO.C,G\u002A\u002A\u002A*%
G36*
X125587177Y-64633387D02*
G01*
X125977726Y-65023936D01*
X125592597Y-65409486D01*
X125489016Y-65512783D01*
X125395151Y-65605630D01*
X125314984Y-65684149D01*
X125252497Y-65744464D01*
X125211672Y-65782697D01*
X125196628Y-65795037D01*
X125179598Y-65780895D01*
X125137190Y-65741055D01*
X125073388Y-65679393D01*
X124992174Y-65599788D01*
X124897530Y-65506116D01*
X124800659Y-65409486D01*
X124415531Y-65023936D01*
X124806080Y-64633387D01*
X125196628Y-64242838D01*
X125587177Y-64633387D01*
G37*
%TD.AperFunction*%
%TA.AperFunction,EtchedComponent*%
G36*
X128780281Y-65695640D02*
G01*
X128780550Y-66481804D01*
X129206184Y-66487436D01*
X129631818Y-66493068D01*
X129358632Y-66831666D01*
X129085446Y-67170263D01*
X128932998Y-67170263D01*
X128780550Y-67170263D01*
X128780666Y-68696555D01*
X128781009Y-69038320D01*
X128781982Y-69339789D01*
X128783582Y-69600779D01*
X128785807Y-69821101D01*
X128788654Y-70000570D01*
X128792121Y-70139001D01*
X128796204Y-70236207D01*
X128800902Y-70292002D01*
X128802889Y-70302459D01*
X128840407Y-70383150D01*
X128903749Y-70467483D01*
X128980938Y-70541554D01*
X129046137Y-70584867D01*
X129116832Y-70621135D01*
X129013376Y-70685447D01*
X128907613Y-70773665D01*
X128850444Y-70850946D01*
X128790968Y-70952133D01*
X128785183Y-72335500D01*
X128784086Y-72610116D01*
X128783305Y-72846088D01*
X128782907Y-73046447D01*
X128782959Y-73214221D01*
X128783527Y-73352440D01*
X128784677Y-73464133D01*
X128786476Y-73552329D01*
X128788991Y-73620059D01*
X128792287Y-73670351D01*
X128796432Y-73706235D01*
X128801491Y-73730740D01*
X128807532Y-73746896D01*
X128814621Y-73757732D01*
X128816438Y-73759826D01*
X128895934Y-73821857D01*
X128999021Y-73865927D01*
X129109153Y-73885293D01*
X129125168Y-73885650D01*
X129204355Y-73880449D01*
X129271851Y-73861015D01*
X129341939Y-73821606D01*
X129410861Y-73770747D01*
X129461677Y-73734439D01*
X129486387Y-73724752D01*
X129487719Y-73738220D01*
X129468401Y-73771377D01*
X129431162Y-73820756D01*
X129378729Y-73882892D01*
X129313831Y-73954318D01*
X129239196Y-74031567D01*
X129157551Y-74111174D01*
X129103705Y-74161012D01*
X128951378Y-74305468D01*
X128806744Y-74455043D01*
X128674246Y-74604324D01*
X128558329Y-74747898D01*
X128463437Y-74880350D01*
X128394015Y-74996269D01*
X128363919Y-75062106D01*
X128329515Y-75152741D01*
X127898675Y-74751734D01*
X127467834Y-74350727D01*
X127467325Y-72713941D01*
X127466961Y-72404645D01*
X127466087Y-72120358D01*
X127464727Y-71863066D01*
X127462904Y-71634758D01*
X127460644Y-71437420D01*
X127457971Y-71273040D01*
X127454908Y-71143604D01*
X127451481Y-71051101D01*
X127447714Y-70997517D01*
X127446177Y-70987681D01*
X127398928Y-70864462D01*
X127321540Y-70756849D01*
X127223720Y-70677522D01*
X127132611Y-70624128D01*
X127190830Y-70594073D01*
X127291973Y-70522089D01*
X127379518Y-70422060D01*
X127412441Y-70368704D01*
X127420866Y-70352537D01*
X127428179Y-70335478D01*
X127434470Y-70314596D01*
X127439831Y-70286958D01*
X127444353Y-70249630D01*
X127448125Y-70199680D01*
X127451240Y-70134176D01*
X127453787Y-70050184D01*
X127455859Y-69944772D01*
X127457544Y-69815007D01*
X127458936Y-69657956D01*
X127460123Y-69470687D01*
X127461197Y-69250267D01*
X127462249Y-68993763D01*
X127463259Y-68727810D01*
X127469102Y-67170263D01*
X127145499Y-67170263D01*
X127034701Y-67169286D01*
X126940242Y-67166589D01*
X126869199Y-67162525D01*
X126828651Y-67157444D01*
X126821895Y-67154177D01*
X126831823Y-67131755D01*
X126859385Y-67079401D01*
X126901244Y-67003196D01*
X126954066Y-66909222D01*
X127007588Y-66815579D01*
X127193281Y-66493068D01*
X127429532Y-66480396D01*
X127542372Y-66471618D01*
X127644816Y-66458666D01*
X127724648Y-66443273D01*
X127754949Y-66434223D01*
X127925620Y-66348312D01*
X128087513Y-66222733D01*
X128239689Y-66058743D01*
X128381208Y-65857605D01*
X128511131Y-65620578D01*
X128628517Y-65348923D01*
X128688343Y-65182391D01*
X128780013Y-64909475D01*
X128780281Y-65695640D01*
G37*
%TD.AperFunction*%
%TA.AperFunction,EtchedComponent*%
G36*
X124787698Y-66475424D02*
G01*
X124829701Y-66508955D01*
X124891107Y-66560813D01*
X124966152Y-66626198D01*
X124992002Y-66649102D01*
X125189609Y-66814585D01*
X125379732Y-66953468D01*
X125557392Y-67062318D01*
X125675874Y-67120635D01*
X125751833Y-67150602D01*
X125819740Y-67168502D01*
X125895885Y-67177299D01*
X125996562Y-67179960D01*
X126001966Y-67179983D01*
X126091695Y-67181109D01*
X126146562Y-67184564D01*
X126173366Y-67191670D01*
X126178909Y-67203748D01*
X126175037Y-67213592D01*
X126142450Y-67260417D01*
X126090293Y-67321488D01*
X126029357Y-67385563D01*
X125970431Y-67441402D01*
X125924302Y-67477762D01*
X125917876Y-67481540D01*
X125863404Y-67510693D01*
X125863862Y-68866770D01*
X125864007Y-69138774D01*
X125864304Y-69372269D01*
X125864838Y-69570422D01*
X125865695Y-69736396D01*
X125866961Y-69873356D01*
X125868723Y-69984468D01*
X125871066Y-70072897D01*
X125874076Y-70141808D01*
X125877840Y-70194365D01*
X125882443Y-70233735D01*
X125887971Y-70263081D01*
X125894511Y-70285569D01*
X125902149Y-70304364D01*
X125902991Y-70306194D01*
X125963885Y-70400669D01*
X126050654Y-70488636D01*
X126144700Y-70552971D01*
X126181064Y-70575484D01*
X126179567Y-70585652D01*
X126169387Y-70586656D01*
X126128853Y-70603336D01*
X126074304Y-70645911D01*
X126014249Y-70705217D01*
X125957199Y-70772088D01*
X125911664Y-70837360D01*
X125886229Y-70891602D01*
X125880861Y-70932222D01*
X125876224Y-71012934D01*
X125872312Y-71133966D01*
X125869123Y-71295546D01*
X125866653Y-71497899D01*
X125864898Y-71741254D01*
X125863855Y-72025837D01*
X125863521Y-72328670D01*
X125863404Y-73684369D01*
X125924704Y-73743098D01*
X126005764Y-73796987D01*
X126108951Y-73832354D01*
X126217058Y-73844441D01*
X126272873Y-73839352D01*
X126329484Y-73827341D01*
X126373635Y-73811313D01*
X126419179Y-73784268D01*
X126479973Y-73739203D01*
X126496615Y-73726296D01*
X126546669Y-73690112D01*
X126567219Y-73682288D01*
X126558751Y-73702249D01*
X126521753Y-73749419D01*
X126456709Y-73823222D01*
X126364108Y-73923082D01*
X126244433Y-74048424D01*
X126098173Y-74198671D01*
X126094254Y-74202666D01*
X125917182Y-74386232D01*
X125770086Y-74545737D01*
X125650892Y-74683755D01*
X125557524Y-74802862D01*
X125487908Y-74905633D01*
X125439971Y-74994642D01*
X125423209Y-75035547D01*
X125403337Y-75082740D01*
X125387579Y-75107089D01*
X125385182Y-75108032D01*
X125367696Y-75093967D01*
X125324040Y-75054775D01*
X125258169Y-74994126D01*
X125174038Y-74915689D01*
X125075600Y-74823134D01*
X124966811Y-74720130D01*
X124952914Y-74706924D01*
X124532088Y-74306850D01*
X124530970Y-72623613D01*
X124530653Y-72309530D01*
X124530118Y-72034576D01*
X124529322Y-71796208D01*
X124528220Y-71591882D01*
X124526771Y-71419054D01*
X124524931Y-71275181D01*
X124522656Y-71157720D01*
X124519904Y-71064125D01*
X124516631Y-70991855D01*
X124512794Y-70938364D01*
X124508349Y-70901110D01*
X124503255Y-70877549D01*
X124501204Y-70871811D01*
X124442634Y-70772842D01*
X124359433Y-70684583D01*
X124265811Y-70621908D01*
X124259807Y-70619120D01*
X124175239Y-70580986D01*
X124253571Y-70545109D01*
X124319127Y-70505850D01*
X124384441Y-70453001D01*
X124398566Y-70438968D01*
X124425984Y-70410031D01*
X124449294Y-70383267D01*
X124468828Y-70355207D01*
X124484921Y-70322381D01*
X124497905Y-70281319D01*
X124508113Y-70228551D01*
X124515880Y-70160608D01*
X124521538Y-70074019D01*
X124525420Y-69965316D01*
X124527860Y-69831028D01*
X124529191Y-69667685D01*
X124529746Y-69471818D01*
X124529859Y-69239956D01*
X124529852Y-69071967D01*
X124529852Y-67930167D01*
X124423115Y-67892258D01*
X124306525Y-67842120D01*
X124197402Y-67779433D01*
X124108042Y-67711954D01*
X124063292Y-67665331D01*
X124013037Y-67601117D01*
X124388903Y-67036674D01*
X124479763Y-66900286D01*
X124563083Y-66775327D01*
X124636096Y-66665937D01*
X124696034Y-66576258D01*
X124740132Y-66510431D01*
X124765621Y-66472597D01*
X124770863Y-66465018D01*
X124787698Y-66475424D01*
G37*
%TD.AperFunction*%
%TA.AperFunction,EtchedComponent*%
G36*
X143252715Y-66521975D02*
G01*
X143277082Y-66534221D01*
X143336090Y-66559404D01*
X143425358Y-66595844D01*
X143540502Y-66641858D01*
X143677140Y-66695765D01*
X143830889Y-66755882D01*
X143997365Y-66820529D01*
X144172187Y-66888023D01*
X144350972Y-66956683D01*
X144529336Y-67024826D01*
X144702896Y-67090772D01*
X144867271Y-67152838D01*
X145018077Y-67209342D01*
X145150931Y-67258603D01*
X145261451Y-67298940D01*
X145345253Y-67328669D01*
X145397955Y-67346110D01*
X145407546Y-67348824D01*
X145494900Y-67365749D01*
X145571001Y-67370770D01*
X145601965Y-67367754D01*
X145708876Y-67326163D01*
X145802503Y-67253273D01*
X145865589Y-67166757D01*
X145912205Y-67076497D01*
X145900378Y-67189837D01*
X145865861Y-67340291D01*
X145798197Y-67474704D01*
X145702254Y-67586834D01*
X145582902Y-67670438D01*
X145498075Y-67705591D01*
X145387440Y-67740466D01*
X145387440Y-68023960D01*
X145388131Y-68141910D01*
X145390952Y-68227232D01*
X145397031Y-68288961D01*
X145407491Y-68336129D01*
X145423460Y-68377770D01*
X145434323Y-68400257D01*
X145477980Y-68467032D01*
X145532077Y-68524759D01*
X145552007Y-68540111D01*
X145622807Y-68587162D01*
X145551175Y-68587162D01*
X145463969Y-68596135D01*
X145354386Y-68620453D01*
X145237011Y-68656210D01*
X145126430Y-68699504D01*
X145119128Y-68702804D01*
X145010367Y-68758748D01*
X144901130Y-68828511D01*
X144788031Y-68915225D01*
X144667686Y-69022018D01*
X144536711Y-69152022D01*
X144391721Y-69308366D01*
X144229331Y-69494180D01*
X144108440Y-69637525D01*
X144011785Y-69752681D01*
X143915105Y-69866491D01*
X143824608Y-69971747D01*
X143746503Y-70061239D01*
X143687001Y-70127758D01*
X143674783Y-70141002D01*
X143474797Y-70334075D01*
X143267794Y-70492682D01*
X143057117Y-70614654D01*
X142846108Y-70697819D01*
X142795753Y-70711772D01*
X142647408Y-70749443D01*
X142642043Y-72051430D01*
X142641067Y-72328032D01*
X142640615Y-72565560D01*
X142640727Y-72766612D01*
X142641444Y-72933783D01*
X142642808Y-73069673D01*
X142644858Y-73176877D01*
X142647637Y-73257992D01*
X142651185Y-73315616D01*
X142655542Y-73352345D01*
X142660751Y-73370778D01*
X142662880Y-73373463D01*
X142688684Y-73385875D01*
X142747817Y-73410543D01*
X142834764Y-73445371D01*
X142944013Y-73488269D01*
X143070051Y-73537141D01*
X143207365Y-73589895D01*
X143350441Y-73644437D01*
X143493767Y-73698674D01*
X143631829Y-73750514D01*
X143759114Y-73797862D01*
X143870110Y-73838626D01*
X143959304Y-73870711D01*
X144021181Y-73892026D01*
X144050229Y-73900475D01*
X144051028Y-73900533D01*
X144060194Y-73892215D01*
X144066756Y-73864321D01*
X144070916Y-73812440D01*
X144072880Y-73732163D01*
X144072851Y-73619078D01*
X144071034Y-73468775D01*
X144071025Y-73468171D01*
X144067854Y-73306501D01*
X144062991Y-73180648D01*
X144054944Y-73084759D01*
X144042223Y-73012978D01*
X144023338Y-72959450D01*
X143996798Y-72918319D01*
X143961114Y-72883732D01*
X143914794Y-72849833D01*
X143913386Y-72848875D01*
X143835847Y-72796186D01*
X143930071Y-72796186D01*
X144091395Y-72778083D01*
X144260189Y-72726682D01*
X144426073Y-72646337D01*
X144578667Y-72541407D01*
X144618907Y-72507041D01*
X144671520Y-72454386D01*
X144741714Y-72376425D01*
X144822393Y-72281438D01*
X144906465Y-72177704D01*
X144960164Y-72108733D01*
X145039649Y-72006948D01*
X145117318Y-71911322D01*
X145186990Y-71829192D01*
X145242485Y-71767891D01*
X145270290Y-71740687D01*
X145366273Y-71671115D01*
X145481203Y-71608903D01*
X145598930Y-71561690D01*
X145699992Y-71537511D01*
X145748286Y-71532980D01*
X145767494Y-71534556D01*
X145762502Y-71538140D01*
X145672770Y-71589120D01*
X145586147Y-71663636D01*
X145520458Y-71746238D01*
X145518330Y-71749813D01*
X145490521Y-71799936D01*
X145467474Y-71849690D01*
X145448657Y-71903596D01*
X145433541Y-71966174D01*
X145421596Y-72041946D01*
X145412293Y-72135431D01*
X145405101Y-72251152D01*
X145399492Y-72393627D01*
X145394935Y-72567379D01*
X145390900Y-72776928D01*
X145389713Y-72847417D01*
X145377022Y-73617516D01*
X145217022Y-73642230D01*
X144949020Y-73704225D01*
X144688717Y-73804691D01*
X144441468Y-73940490D01*
X144212630Y-74108486D01*
X144007559Y-74305541D01*
X143929927Y-74396064D01*
X143875687Y-74469061D01*
X143814462Y-74560968D01*
X143750417Y-74664380D01*
X143687713Y-74771892D01*
X143630516Y-74876099D01*
X143582989Y-74969597D01*
X143549294Y-75044980D01*
X143533597Y-75094844D01*
X143532970Y-75102045D01*
X143517895Y-75125985D01*
X143484355Y-75126625D01*
X143458999Y-75111727D01*
X143435912Y-75100658D01*
X143378259Y-75076541D01*
X143290448Y-75041075D01*
X143176891Y-74995959D01*
X143041997Y-74942893D01*
X142890177Y-74883576D01*
X142725840Y-74819706D01*
X142553397Y-74752983D01*
X142377258Y-74685106D01*
X142201833Y-74617775D01*
X142031532Y-74552687D01*
X141870764Y-74491543D01*
X141723941Y-74436042D01*
X141595473Y-74387882D01*
X141489768Y-74348763D01*
X141411238Y-74320385D01*
X141364293Y-74304445D01*
X141361566Y-74303619D01*
X141244977Y-74281974D01*
X141132126Y-74279963D01*
X141028757Y-74300736D01*
X140945082Y-74349902D01*
X140873441Y-74432855D01*
X140842351Y-74483963D01*
X140801741Y-74556891D01*
X140814475Y-74452707D01*
X140851643Y-74299917D01*
X140920984Y-74163600D01*
X141017574Y-74049621D01*
X141136492Y-73963847D01*
X141266973Y-73913512D01*
X141324274Y-73899740D01*
X141324070Y-72457191D01*
X141323867Y-71014643D01*
X141274956Y-70909608D01*
X141199123Y-70790926D01*
X141097903Y-70704051D01*
X141035294Y-70671970D01*
X140969982Y-70644917D01*
X141078660Y-70579739D01*
X141191550Y-70489173D01*
X141250597Y-70412032D01*
X141313855Y-70309503D01*
X141319579Y-69167884D01*
X141319722Y-69139336D01*
X142636989Y-69139336D01*
X142637279Y-69434815D01*
X142638135Y-69699236D01*
X142639538Y-69931220D01*
X142641469Y-70129391D01*
X142643909Y-70292371D01*
X142646837Y-70418782D01*
X142650235Y-70507247D01*
X142654083Y-70556389D01*
X142657055Y-70566653D01*
X142686240Y-70559503D01*
X142740404Y-70541065D01*
X142787284Y-70523321D01*
X142942279Y-70447203D01*
X143107126Y-70339195D01*
X143274789Y-70205507D01*
X143438230Y-70052346D01*
X143590413Y-69885920D01*
X143724299Y-69712438D01*
X143751310Y-69672876D01*
X143859502Y-69499144D01*
X143941994Y-69337796D01*
X144001716Y-69178735D01*
X144041603Y-69011864D01*
X144064585Y-68827086D01*
X144073597Y-68614304D01*
X144073998Y-68561849D01*
X144073737Y-68445968D01*
X144071729Y-68364927D01*
X144067169Y-68311904D01*
X144059255Y-68280078D01*
X144047181Y-68262624D01*
X144038015Y-68256430D01*
X144011016Y-68244669D01*
X143951433Y-68220331D01*
X143864637Y-68185519D01*
X143755999Y-68142336D01*
X143630888Y-68092884D01*
X143494677Y-68039265D01*
X143352734Y-67983582D01*
X143210431Y-67927938D01*
X143073139Y-67874435D01*
X142946228Y-67825175D01*
X142835068Y-67782260D01*
X142745030Y-67747795D01*
X142681484Y-67723880D01*
X142649802Y-67712618D01*
X142647368Y-67712018D01*
X142645625Y-67732293D01*
X142643974Y-67790871D01*
X142642439Y-67884381D01*
X142641045Y-68009453D01*
X142639816Y-68162716D01*
X142638778Y-68340800D01*
X142637953Y-68540334D01*
X142637368Y-68757947D01*
X142637046Y-68990270D01*
X142636989Y-69139336D01*
X141319722Y-69139336D01*
X141325303Y-68026265D01*
X141402926Y-68014368D01*
X141708723Y-67948470D01*
X141991024Y-67848161D01*
X142249698Y-67713537D01*
X142484618Y-67544694D01*
X142695652Y-67341726D01*
X142882672Y-67104731D01*
X143045549Y-66833802D01*
X143071337Y-66783356D01*
X143110949Y-66700916D01*
X143144097Y-66626355D01*
X143165416Y-66571953D01*
X143169239Y-66559361D01*
X143192499Y-66513611D01*
X143226834Y-66505724D01*
X143252715Y-66521975D01*
G37*
%TD.AperFunction*%
%TA.AperFunction,EtchedComponent*%
G36*
X132325003Y-66518531D02*
G01*
X132356060Y-66533311D01*
X132396999Y-66551255D01*
X132472163Y-66581947D01*
X132576826Y-66623586D01*
X132706262Y-66674369D01*
X132855742Y-66732494D01*
X133020542Y-66796159D01*
X133195933Y-66863560D01*
X133377190Y-66932896D01*
X133559584Y-67002364D01*
X133738391Y-67070162D01*
X133908882Y-67134488D01*
X134066331Y-67193538D01*
X134206011Y-67245511D01*
X134323196Y-67288605D01*
X134413158Y-67321016D01*
X134471172Y-67340942D01*
X134485765Y-67345403D01*
X134580102Y-67365347D01*
X134658113Y-67370571D01*
X134683714Y-67367709D01*
X134790392Y-67326190D01*
X134883912Y-67253404D01*
X134947131Y-67166757D01*
X134993747Y-67076497D01*
X134981920Y-67189837D01*
X134947404Y-67340291D01*
X134879739Y-67474704D01*
X134783796Y-67586834D01*
X134664444Y-67670438D01*
X134579617Y-67705591D01*
X134468983Y-67740466D01*
X134468983Y-68979239D01*
X134469281Y-69270542D01*
X134470198Y-69521883D01*
X134471764Y-69734969D01*
X134474011Y-69911508D01*
X134476970Y-70053207D01*
X134480672Y-70161774D01*
X134485149Y-70238915D01*
X134490431Y-70286338D01*
X134493165Y-70298725D01*
X134536524Y-70390013D01*
X134605881Y-70480018D01*
X134688367Y-70554005D01*
X134745496Y-70587692D01*
X134826385Y-70623908D01*
X134729158Y-70670974D01*
X134630170Y-70739647D01*
X134548249Y-70836198D01*
X134494327Y-70947286D01*
X134489604Y-70963352D01*
X134485105Y-71001899D01*
X134481293Y-71080608D01*
X134478184Y-71197972D01*
X134475796Y-71352485D01*
X134474145Y-71542640D01*
X134473247Y-71766930D01*
X134473119Y-72023850D01*
X134473778Y-72311892D01*
X134474038Y-72381360D01*
X134479401Y-73721643D01*
X134577507Y-73782295D01*
X134678245Y-73829228D01*
X134787025Y-73854991D01*
X134887305Y-73856179D01*
X134912960Y-73851311D01*
X134957001Y-73832844D01*
X135019319Y-73797993D01*
X135071929Y-73764049D01*
X135126050Y-73729052D01*
X135155877Y-73715539D01*
X135160609Y-73724521D01*
X135139445Y-73757007D01*
X135091585Y-73814009D01*
X135016228Y-73896537D01*
X134912573Y-74005601D01*
X134779821Y-74142213D01*
X134740970Y-74181830D01*
X134630705Y-74295217D01*
X134524703Y-74406300D01*
X134428214Y-74509418D01*
X134346490Y-74598908D01*
X134284781Y-74669108D01*
X134253392Y-74707527D01*
X134190719Y-74795529D01*
X134132120Y-74887803D01*
X134082630Y-74975342D01*
X134047284Y-75049141D01*
X134031117Y-75100192D01*
X134030638Y-75105972D01*
X134016627Y-75100436D01*
X133977179Y-75067793D01*
X133915558Y-75011151D01*
X133835030Y-74933617D01*
X133738858Y-74838298D01*
X133630309Y-74728300D01*
X133586367Y-74683168D01*
X133142868Y-74226016D01*
X133023482Y-74370617D01*
X132891357Y-74547377D01*
X132775434Y-74735371D01*
X132684090Y-74920559D01*
X132660787Y-74978610D01*
X132629772Y-75058816D01*
X132608111Y-75105552D01*
X132591369Y-75124673D01*
X132575114Y-75122036D01*
X132561300Y-75110029D01*
X132537589Y-75098042D01*
X132479269Y-75073091D01*
X132390742Y-75036869D01*
X132276409Y-74991070D01*
X132140672Y-74937389D01*
X131987932Y-74877520D01*
X131822591Y-74813157D01*
X131649050Y-74745995D01*
X131471711Y-74677726D01*
X131294976Y-74610046D01*
X131123245Y-74544648D01*
X130960921Y-74483227D01*
X130812404Y-74427477D01*
X130682097Y-74379092D01*
X130574401Y-74339766D01*
X130493717Y-74311193D01*
X130444447Y-74295067D01*
X130442544Y-74294521D01*
X130361221Y-74274064D01*
X130286785Y-74259713D01*
X130238717Y-74254758D01*
X130128464Y-74274769D01*
X130030001Y-74332942D01*
X129947400Y-74426483D01*
X129919520Y-74473544D01*
X129897561Y-74511705D01*
X129887977Y-74514739D01*
X129885732Y-74491367D01*
X129891305Y-74448983D01*
X129906685Y-74382093D01*
X129926897Y-74310701D01*
X129991712Y-74165034D01*
X130086941Y-74047422D01*
X130211297Y-73959285D01*
X130270377Y-73932008D01*
X130395398Y-73881809D01*
X130395398Y-73021237D01*
X130395398Y-72175579D01*
X131742243Y-72175579D01*
X131743195Y-72362672D01*
X131744335Y-72534431D01*
X131749787Y-73364808D01*
X132437399Y-73631270D01*
X132597269Y-73693095D01*
X132744849Y-73749923D01*
X132875637Y-73800039D01*
X132985130Y-73841728D01*
X133068826Y-73873276D01*
X133122223Y-73892967D01*
X133140640Y-73899132D01*
X133143029Y-73879024D01*
X133145307Y-73820301D01*
X133147446Y-73726021D01*
X133149418Y-73599245D01*
X133151196Y-73443030D01*
X133152752Y-73260435D01*
X133154059Y-73054519D01*
X133155088Y-72828340D01*
X133155812Y-72584958D01*
X133156204Y-72327431D01*
X133156267Y-72171083D01*
X133156267Y-70441633D01*
X133046874Y-70441880D01*
X132873505Y-70462152D01*
X132697049Y-70519841D01*
X132522144Y-70611413D01*
X132353431Y-70733335D01*
X132195547Y-70882074D01*
X132053132Y-71054095D01*
X131930825Y-71245865D01*
X131890965Y-71322405D01*
X131854348Y-71397173D01*
X131824127Y-71461358D01*
X131799716Y-71519806D01*
X131780528Y-71577367D01*
X131765977Y-71638888D01*
X131755476Y-71709217D01*
X131748439Y-71793203D01*
X131744278Y-71895693D01*
X131742409Y-72021536D01*
X131742243Y-72175579D01*
X130395398Y-72175579D01*
X130395398Y-72160665D01*
X130329459Y-72021483D01*
X130282066Y-71934654D01*
X130224683Y-71847914D01*
X130177095Y-71788541D01*
X130090670Y-71694780D01*
X130190942Y-71682256D01*
X130382202Y-71653479D01*
X130556901Y-71615558D01*
X130720764Y-71565619D01*
X130879516Y-71500787D01*
X131038884Y-71418189D01*
X131204591Y-71314951D01*
X131382363Y-71188198D01*
X131577927Y-71035057D01*
X131728950Y-70910217D01*
X131924296Y-70748868D01*
X132094999Y-70614843D01*
X132245555Y-70505676D01*
X132380461Y-70418900D01*
X132504213Y-70352049D01*
X132621308Y-70302655D01*
X132736243Y-70268252D01*
X132853513Y-70246373D01*
X132958318Y-70235784D01*
X133145849Y-70222847D01*
X133151264Y-69249572D01*
X133152447Y-69022396D01*
X133153171Y-68833322D01*
X133153322Y-68678777D01*
X133152788Y-68555190D01*
X133151457Y-68458990D01*
X133149215Y-68386606D01*
X133145952Y-68334467D01*
X133141553Y-68299001D01*
X133135908Y-68276637D01*
X133128902Y-68263804D01*
X133120425Y-68256931D01*
X133120008Y-68256705D01*
X133091318Y-68244056D01*
X133030232Y-68218945D01*
X132942133Y-68183479D01*
X132832405Y-68139764D01*
X132706430Y-68089906D01*
X132569592Y-68036013D01*
X132427274Y-67980191D01*
X132284859Y-67924546D01*
X132147731Y-67871184D01*
X132021272Y-67822213D01*
X131910866Y-67779740D01*
X131821896Y-67745869D01*
X131759744Y-67722709D01*
X131729796Y-67712365D01*
X131728088Y-67712018D01*
X131724971Y-67732079D01*
X131722690Y-67789173D01*
X131721268Y-67878669D01*
X131720726Y-67995934D01*
X131721085Y-68136337D01*
X131722367Y-68295245D01*
X131724583Y-68467351D01*
X131728516Y-68694222D01*
X131733137Y-68883899D01*
X131738909Y-69040862D01*
X131746297Y-69169591D01*
X131755767Y-69274564D01*
X131767784Y-69360262D01*
X131782813Y-69431163D01*
X131801319Y-69491747D01*
X131823767Y-69546493D01*
X131840093Y-69579908D01*
X131918860Y-69691253D01*
X132026991Y-69783255D01*
X132062338Y-69804727D01*
X132124848Y-69839549D01*
X132031083Y-69827062D01*
X131921825Y-69803771D01*
X131817503Y-69761760D01*
X131713578Y-69697584D01*
X131605512Y-69607800D01*
X131488765Y-69488961D01*
X131358798Y-69337623D01*
X131315287Y-69283786D01*
X131173051Y-69111391D01*
X131046383Y-68971367D01*
X130930312Y-68859824D01*
X130819862Y-68772876D01*
X130710059Y-68706634D01*
X130595931Y-68657209D01*
X130472504Y-68620714D01*
X130464679Y-68618847D01*
X130380350Y-68601984D01*
X130298853Y-68590574D01*
X130251668Y-68587470D01*
X130170449Y-68587162D01*
X130240933Y-68539663D01*
X130324677Y-68463096D01*
X130377984Y-68364645D01*
X130402940Y-68239714D01*
X130405473Y-68176580D01*
X130405816Y-68026458D01*
X130483954Y-68014070D01*
X130639937Y-67983951D01*
X130802715Y-67943281D01*
X130954953Y-67896755D01*
X131056566Y-67858869D01*
X131257555Y-67757635D01*
X131458527Y-67623983D01*
X131649737Y-67466019D01*
X131821442Y-67291846D01*
X131963898Y-67109571D01*
X131972113Y-67097334D01*
X132029456Y-67005812D01*
X132089322Y-66901546D01*
X132146611Y-66794378D01*
X132196227Y-66694149D01*
X132233070Y-66610703D01*
X132250781Y-66559361D01*
X132264405Y-66518994D01*
X132285291Y-66506338D01*
X132325003Y-66518531D01*
G37*
%TD.AperFunction*%
%TA.AperFunction,EtchedComponent*%
G36*
X138960270Y-66517090D02*
G01*
X139003146Y-66554271D01*
X139063794Y-66609588D01*
X139136142Y-66677600D01*
X139147452Y-66688391D01*
X139332613Y-66851859D01*
X139518085Y-66989668D01*
X139699649Y-67099490D01*
X139873089Y-67179001D01*
X140034184Y-67225872D01*
X140144338Y-67238206D01*
X140221502Y-67236996D01*
X140288157Y-67231110D01*
X140320689Y-67224426D01*
X140354464Y-67215851D01*
X140356547Y-67230251D01*
X140344567Y-67254319D01*
X140314762Y-67296129D01*
X140264431Y-67354195D01*
X140203658Y-67418170D01*
X140142525Y-67477707D01*
X140091115Y-67522461D01*
X140067060Y-67539062D01*
X140058613Y-67545385D01*
X140051438Y-67556876D01*
X140045383Y-67576891D01*
X140040300Y-67608785D01*
X140036038Y-67655914D01*
X140032449Y-67721634D01*
X140029382Y-67809300D01*
X140026689Y-67922268D01*
X140024219Y-68063892D01*
X140021823Y-68237529D01*
X140019351Y-68446534D01*
X140016998Y-68662036D01*
X140005200Y-69764657D01*
X139859392Y-69800452D01*
X139760156Y-69830076D01*
X139660087Y-69871696D01*
X139554210Y-69928435D01*
X139437551Y-70003416D01*
X139305135Y-70099760D01*
X139151987Y-70220591D01*
X139030956Y-70320434D01*
X138983291Y-70362867D01*
X138954074Y-70393973D01*
X138949233Y-70405167D01*
X138973050Y-70416177D01*
X139029481Y-70439105D01*
X139112025Y-70471501D01*
X139214180Y-70510913D01*
X139329441Y-70554889D01*
X139451308Y-70600979D01*
X139573277Y-70646731D01*
X139688845Y-70689694D01*
X139791511Y-70727418D01*
X139874771Y-70757450D01*
X139932124Y-70777339D01*
X139955038Y-70784313D01*
X140035685Y-70785840D01*
X140127262Y-70763716D01*
X140210611Y-70723124D01*
X140228239Y-70710444D01*
X140271135Y-70665801D01*
X140316735Y-70602290D01*
X140335752Y-70569866D01*
X140362330Y-70524246D01*
X140377435Y-70506131D01*
X140378562Y-70514561D01*
X140370047Y-70560838D01*
X140359894Y-70626542D01*
X140356606Y-70650097D01*
X140318095Y-70785353D01*
X140243975Y-70907627D01*
X140139762Y-71010660D01*
X140010975Y-71088197D01*
X139949048Y-71112262D01*
X139855283Y-71143133D01*
X139849911Y-72410924D01*
X139844539Y-73678715D01*
X139891584Y-73729863D01*
X139981187Y-73798953D01*
X140092150Y-73842362D01*
X140211076Y-73857146D01*
X140324569Y-73840362D01*
X140350825Y-73830762D01*
X140412038Y-73797919D01*
X140475938Y-73753451D01*
X140485595Y-73745563D01*
X140526286Y-73716237D01*
X140550437Y-73708460D01*
X140553314Y-73713137D01*
X140539262Y-73734091D01*
X140499681Y-73780399D01*
X140438433Y-73847874D01*
X140359382Y-73932327D01*
X140266391Y-74029570D01*
X140172056Y-74126515D01*
X140011446Y-74291788D01*
X139877991Y-74432846D01*
X139768281Y-74553803D01*
X139678901Y-74658769D01*
X139606441Y-74751855D01*
X139547489Y-74837172D01*
X139498631Y-74918833D01*
X139471042Y-74971160D01*
X139394011Y-75124495D01*
X138968289Y-74726547D01*
X138542568Y-74328600D01*
X138532149Y-72994770D01*
X138521731Y-71660940D01*
X137854955Y-71405707D01*
X137696315Y-71345036D01*
X137549054Y-71288823D01*
X137417951Y-71238884D01*
X137307785Y-71197033D01*
X137223337Y-71165089D01*
X137169385Y-71144868D01*
X137151714Y-71138455D01*
X137144252Y-71137785D01*
X137137880Y-71143077D01*
X137132514Y-71157342D01*
X137128067Y-71183588D01*
X137124453Y-71224827D01*
X137121588Y-71284068D01*
X137119384Y-71364319D01*
X137117756Y-71468592D01*
X137116618Y-71599895D01*
X137115884Y-71761239D01*
X137115469Y-71955633D01*
X137115286Y-72186087D01*
X137115250Y-72416886D01*
X137115250Y-73707335D01*
X137193388Y-73761096D01*
X137298004Y-73822206D01*
X137394021Y-73852707D01*
X137465622Y-73858402D01*
X137554092Y-73844359D01*
X137646911Y-73808628D01*
X137725057Y-73759379D01*
X137748791Y-73736782D01*
X137783709Y-73704298D01*
X137807511Y-73692166D01*
X137814315Y-73701749D01*
X137798482Y-73731453D01*
X137758761Y-73782713D01*
X137693896Y-73856964D01*
X137602635Y-73955640D01*
X137483723Y-74080176D01*
X137335906Y-74232006D01*
X137334029Y-74233922D01*
X137182394Y-74390456D01*
X137057923Y-74523591D01*
X136956919Y-74637931D01*
X136875686Y-74738083D01*
X136810526Y-74828651D01*
X136757743Y-74914242D01*
X136713641Y-74999461D01*
X136705474Y-75017001D01*
X136677557Y-75076563D01*
X136657361Y-75116991D01*
X136650105Y-75128644D01*
X136634615Y-75114604D01*
X136592666Y-75075556D01*
X136528096Y-75015100D01*
X136444746Y-74936839D01*
X136346456Y-74844376D01*
X136237067Y-74741312D01*
X136214061Y-74719618D01*
X135781698Y-74311850D01*
X135781698Y-72959516D01*
X135781855Y-72677634D01*
X135782359Y-72434925D01*
X135783256Y-72228890D01*
X135784596Y-72057032D01*
X135786425Y-71916850D01*
X135788793Y-71805846D01*
X135791746Y-71721521D01*
X135795332Y-71661376D01*
X135799601Y-71622913D01*
X135804598Y-71603632D01*
X135807744Y-71600279D01*
X135839945Y-71592150D01*
X135899993Y-71577302D01*
X135975238Y-71558863D01*
X135979647Y-71557787D01*
X136072261Y-71529229D01*
X136178437Y-71487644D01*
X136276161Y-71441705D01*
X136281780Y-71438730D01*
X136353241Y-71397410D01*
X136436913Y-71344105D01*
X136526576Y-71283397D01*
X136616011Y-71219868D01*
X136698999Y-71158099D01*
X136769319Y-71102674D01*
X136820753Y-71058173D01*
X136847082Y-71029178D01*
X136848409Y-71021283D01*
X136823786Y-71008510D01*
X136766932Y-70984132D01*
X136684775Y-70950797D01*
X136584244Y-70911154D01*
X136472267Y-70867853D01*
X136355774Y-70823541D01*
X136241692Y-70780867D01*
X136136951Y-70742481D01*
X136048479Y-70711031D01*
X135983204Y-70689166D01*
X135966022Y-70683950D01*
X135830208Y-70655848D01*
X135718072Y-70658933D01*
X135623788Y-70694964D01*
X135541529Y-70765699D01*
X135495193Y-70826012D01*
X135456081Y-70877943D01*
X135433697Y-70893652D01*
X135427921Y-70872610D01*
X135438633Y-70814288D01*
X135465714Y-70718159D01*
X135468644Y-70708625D01*
X135516112Y-70593606D01*
X135579138Y-70494664D01*
X135587297Y-70484809D01*
X135649584Y-70425892D01*
X135728333Y-70370360D01*
X135810540Y-70325777D01*
X135883201Y-70299708D01*
X135911928Y-70295979D01*
X135919791Y-70293986D01*
X135926439Y-70285962D01*
X135931973Y-70268692D01*
X135936494Y-70238964D01*
X135940104Y-70193565D01*
X135942905Y-70129283D01*
X135944997Y-70042905D01*
X135946483Y-69931217D01*
X135947464Y-69791007D01*
X135948041Y-69619063D01*
X135948316Y-69412171D01*
X135948392Y-69167118D01*
X135948392Y-69142167D01*
X135948392Y-67988558D01*
X135849417Y-67951217D01*
X135755323Y-67909144D01*
X135663007Y-67856422D01*
X135578825Y-67798185D01*
X135509130Y-67739568D01*
X135460276Y-67685705D01*
X135438618Y-67641731D01*
X135441628Y-67621698D01*
X135460068Y-67592725D01*
X135497447Y-67535574D01*
X135550334Y-67455386D01*
X135615298Y-67357306D01*
X135688911Y-67246475D01*
X135767742Y-67128037D01*
X135848362Y-67007134D01*
X135927339Y-66888909D01*
X136001245Y-66778505D01*
X136066648Y-66681065D01*
X136120120Y-66601731D01*
X136158230Y-66545647D01*
X136177549Y-66517955D01*
X136178986Y-66516129D01*
X136199946Y-66522209D01*
X136244441Y-66552981D01*
X136306408Y-66603799D01*
X136379573Y-66669820D01*
X136578679Y-66843680D01*
X136773276Y-66987912D01*
X136960682Y-67101193D01*
X137138217Y-67182204D01*
X137303203Y-67229623D01*
X137452958Y-67242127D01*
X137524464Y-67234292D01*
X137584275Y-67224804D01*
X137624483Y-67221591D01*
X137633424Y-67223082D01*
X137622612Y-67239840D01*
X137587492Y-67279842D01*
X137533506Y-67337148D01*
X137466096Y-67405822D01*
X137464096Y-67407823D01*
X137287061Y-67584858D01*
X137279293Y-68672223D01*
X137271526Y-69759589D01*
X137979975Y-70037867D01*
X138141658Y-70101328D01*
X138290658Y-70159719D01*
X138422637Y-70211347D01*
X138533258Y-70254519D01*
X138618185Y-70287543D01*
X138673080Y-70308726D01*
X138693607Y-70316376D01*
X138693634Y-70316379D01*
X138694601Y-70296209D01*
X138695510Y-70238101D01*
X138696344Y-70145789D01*
X138697086Y-70023008D01*
X138697719Y-69873495D01*
X138698228Y-69700982D01*
X138698594Y-69509206D01*
X138698801Y-69301902D01*
X138698843Y-69154857D01*
X138698843Y-67993102D01*
X138574503Y-67944888D01*
X138483941Y-67902848D01*
X138390662Y-67848075D01*
X138305063Y-67787857D01*
X138237545Y-67729482D01*
X138199453Y-67682057D01*
X138193879Y-67666686D01*
X138194213Y-67647236D01*
X138202620Y-67619932D01*
X138221264Y-67581001D01*
X138252309Y-67526670D01*
X138297918Y-67453165D01*
X138360257Y-67356714D01*
X138441490Y-67233542D01*
X138543779Y-67079876D01*
X138551137Y-67068849D01*
X138642405Y-66932653D01*
X138726494Y-66808254D01*
X138800591Y-66699730D01*
X138861884Y-66611158D01*
X138907559Y-66546615D01*
X138934804Y-66510177D01*
X138941233Y-66503487D01*
X138960270Y-66517090D01*
G37*
%TD.AperFunction*%
%TA.AperFunction,EtchedComponent*%
G36*
X120758418Y-64302747D02*
G01*
X120812374Y-64348801D01*
X120859610Y-64384637D01*
X120876368Y-64395199D01*
X120902874Y-64406501D01*
X120964448Y-64431180D01*
X121057234Y-64467734D01*
X121177372Y-64514663D01*
X121321006Y-64570464D01*
X121484277Y-64633635D01*
X121663327Y-64702676D01*
X121854298Y-64776084D01*
X121898429Y-64793016D01*
X122125913Y-64880062D01*
X122318215Y-64953108D01*
X122478940Y-65013391D01*
X122611694Y-65062152D01*
X122720081Y-65100627D01*
X122807707Y-65130056D01*
X122878177Y-65151677D01*
X122935097Y-65166729D01*
X122982071Y-65176450D01*
X123022705Y-65182079D01*
X123034032Y-65183141D01*
X123191189Y-65184089D01*
X123344481Y-65162556D01*
X123478942Y-65120966D01*
X123511822Y-65105731D01*
X123594388Y-65048082D01*
X123670598Y-64967611D01*
X123729119Y-64878161D01*
X123756031Y-64807486D01*
X123775266Y-64721944D01*
X123777498Y-64821440D01*
X123760440Y-64975507D01*
X123703348Y-65125533D01*
X123607808Y-65269632D01*
X123475402Y-65405923D01*
X123307716Y-65532521D01*
X123106334Y-65647544D01*
X123066070Y-65667139D01*
X122862912Y-65763584D01*
X122862912Y-67015581D01*
X122862912Y-68267577D01*
X122321745Y-68598820D01*
X122187737Y-68681595D01*
X122066780Y-68757757D01*
X121963053Y-68824558D01*
X121880738Y-68879249D01*
X121824015Y-68919081D01*
X121797063Y-68941307D01*
X121795617Y-68944721D01*
X121818258Y-68955758D01*
X121874738Y-68979654D01*
X121959979Y-69014366D01*
X122068903Y-69057854D01*
X122196431Y-69108074D01*
X122337485Y-69162984D01*
X122361053Y-69172101D01*
X122545808Y-69242744D01*
X122696786Y-69298254D01*
X122818649Y-69339600D01*
X122916058Y-69367750D01*
X122993674Y-69383672D01*
X123056158Y-69388334D01*
X123108171Y-69382707D01*
X123154374Y-69367756D01*
X123197119Y-69345808D01*
X123257952Y-69295344D01*
X123312328Y-69224984D01*
X123350417Y-69149776D01*
X123362651Y-69092453D01*
X123371723Y-69055867D01*
X123386380Y-69045570D01*
X123398121Y-69062348D01*
X123403122Y-69114454D01*
X123401589Y-69204551D01*
X123400489Y-69227892D01*
X123377152Y-69396879D01*
X123323567Y-69544567D01*
X123236703Y-69675855D01*
X123113533Y-69795645D01*
X122997832Y-69879379D01*
X122862912Y-69967282D01*
X122863028Y-71605729D01*
X122863333Y-71942200D01*
X122864190Y-72244376D01*
X122865587Y-72511332D01*
X122867513Y-72742144D01*
X122869956Y-72935886D01*
X122872905Y-73091633D01*
X122876347Y-73208460D01*
X122880272Y-73285442D01*
X122884546Y-73321231D01*
X122908569Y-73382146D01*
X122947432Y-73456325D01*
X122976786Y-73503553D01*
X123009932Y-73558214D01*
X123026157Y-73596422D01*
X123022988Y-73609232D01*
X122951727Y-73615353D01*
X122855366Y-73630019D01*
X122748890Y-73650387D01*
X122647285Y-73673611D01*
X122571198Y-73694988D01*
X122369333Y-73775134D01*
X122152797Y-73888463D01*
X121926500Y-74031372D01*
X121695354Y-74200256D01*
X121464271Y-74391514D01*
X121238161Y-74601542D01*
X121021935Y-74826737D01*
X121008997Y-74841082D01*
X120935332Y-74922952D01*
X120869128Y-74996324D01*
X120816652Y-75054268D01*
X120784169Y-75089855D01*
X120779902Y-75094451D01*
X120770330Y-75102481D01*
X120757087Y-75106848D01*
X120736859Y-75106278D01*
X120706332Y-75099500D01*
X120662193Y-75085239D01*
X120601128Y-75062225D01*
X120519823Y-75029183D01*
X120414966Y-74984842D01*
X120283241Y-74927929D01*
X120121336Y-74857170D01*
X119925938Y-74771294D01*
X119839991Y-74733453D01*
X119646672Y-74648189D01*
X119455954Y-74563832D01*
X119273109Y-74482733D01*
X119103415Y-74407242D01*
X118952146Y-74339707D01*
X118824577Y-74282479D01*
X118725984Y-74237908D01*
X118674725Y-74214429D01*
X118458453Y-74118565D01*
X118267352Y-74043968D01*
X118092343Y-73988163D01*
X117924348Y-73948676D01*
X117754289Y-73923029D01*
X117573087Y-73908750D01*
X117549540Y-73907656D01*
X117314713Y-73908869D01*
X117109155Y-73935317D01*
X116927858Y-73988528D01*
X116765817Y-74070031D01*
X116618024Y-74181355D01*
X116600055Y-74197673D01*
X116481978Y-74324605D01*
X116394605Y-74461171D01*
X116335422Y-74613955D01*
X116301912Y-74789536D01*
X116291562Y-74994496D01*
X116291602Y-75004881D01*
X116300515Y-75200170D01*
X116326816Y-75370858D01*
X116373700Y-75531525D01*
X116442303Y-75692494D01*
X116539756Y-75853139D01*
X116668207Y-76002717D01*
X116817303Y-76130747D01*
X116963702Y-76220441D01*
X117037286Y-76259891D01*
X117072829Y-76285163D01*
X117071843Y-76295191D01*
X117035843Y-76288912D01*
X116966345Y-76265259D01*
X116923934Y-76248412D01*
X116738454Y-76149954D01*
X116568847Y-76015056D01*
X116417913Y-75846846D01*
X116288447Y-75648455D01*
X116183249Y-75423010D01*
X116181243Y-75417807D01*
X116159447Y-75358956D01*
X116143899Y-75308120D01*
X116133588Y-75256495D01*
X116127501Y-75195280D01*
X116124629Y-75115670D01*
X116123958Y-75008865D01*
X116124221Y-74921534D01*
X116125529Y-74785832D01*
X116128818Y-74681336D01*
X116135175Y-74597588D01*
X116145685Y-74524128D01*
X116161434Y-74450500D01*
X116180898Y-74375768D01*
X116278304Y-74087885D01*
X116404932Y-73829630D01*
X116560366Y-73601333D01*
X116744192Y-73403324D01*
X116955992Y-73235935D01*
X117195352Y-73099496D01*
X117461857Y-72994337D01*
X117755090Y-72920789D01*
X118060333Y-72880314D01*
X118170905Y-72872203D01*
X118265143Y-72867933D01*
X118354970Y-72867704D01*
X118452311Y-72871715D01*
X118569089Y-72880165D01*
X118691164Y-72890861D01*
X118801368Y-72900924D01*
X118795348Y-71968202D01*
X118793868Y-71746642D01*
X118792415Y-71562822D01*
X118792311Y-71553236D01*
X120112461Y-71553236D01*
X120112477Y-71870646D01*
X120112566Y-72148985D01*
X120112784Y-72390854D01*
X120113191Y-72598856D01*
X120113844Y-72775593D01*
X120114803Y-72923667D01*
X120116125Y-73045679D01*
X120117869Y-73144233D01*
X120120093Y-73221929D01*
X120122855Y-73281371D01*
X120126215Y-73325160D01*
X120130229Y-73355897D01*
X120134957Y-73376186D01*
X120140456Y-73388629D01*
X120146786Y-73395827D01*
X120153870Y-73400310D01*
X120185922Y-73414515D01*
X120250180Y-73440633D01*
X120341127Y-73476567D01*
X120453242Y-73520223D01*
X120581009Y-73569505D01*
X120718908Y-73622318D01*
X120861420Y-73676566D01*
X121003028Y-73730155D01*
X121138212Y-73780988D01*
X121261453Y-73826971D01*
X121367235Y-73866008D01*
X121450036Y-73896004D01*
X121504340Y-73914864D01*
X121524151Y-73920584D01*
X121528859Y-73912980D01*
X121533002Y-73888420D01*
X121536611Y-73844732D01*
X121539716Y-73779745D01*
X121542350Y-73691288D01*
X121544543Y-73577189D01*
X121546325Y-73435278D01*
X121547730Y-73263382D01*
X121548786Y-73059331D01*
X121549526Y-72820954D01*
X121549981Y-72546080D01*
X121550181Y-72232536D01*
X121550197Y-72101547D01*
X121550197Y-70281724D01*
X120868166Y-70014657D01*
X120707946Y-69952051D01*
X120559027Y-69894115D01*
X120426108Y-69842657D01*
X120313888Y-69799486D01*
X120227065Y-69766411D01*
X120170337Y-69745239D01*
X120149298Y-69737956D01*
X120142884Y-69737846D01*
X120137259Y-69742785D01*
X120132372Y-69755317D01*
X120128171Y-69777987D01*
X120124604Y-69813340D01*
X120121620Y-69863922D01*
X120119167Y-69932277D01*
X120117194Y-70020952D01*
X120115648Y-70132490D01*
X120114479Y-70269438D01*
X120113633Y-70434340D01*
X120113061Y-70629741D01*
X120112710Y-70858187D01*
X120112529Y-71122223D01*
X120112465Y-71424394D01*
X120112461Y-71553236D01*
X118792311Y-71553236D01*
X118790790Y-71412807D01*
X118788794Y-71292664D01*
X118786226Y-71198458D01*
X118782887Y-71126258D01*
X118778576Y-71072127D01*
X118773096Y-71032134D01*
X118766245Y-71002344D01*
X118757824Y-70978824D01*
X118747634Y-70957640D01*
X118743672Y-70950160D01*
X118658245Y-70834140D01*
X118539774Y-70743228D01*
X118425624Y-70690344D01*
X118360956Y-70664731D01*
X118315511Y-70642849D01*
X118299664Y-70630177D01*
X118317876Y-70616991D01*
X118365197Y-70597117D01*
X118419475Y-70578687D01*
X118523085Y-70530533D01*
X118622053Y-70456566D01*
X118705546Y-70367093D01*
X118762728Y-70272422D01*
X118774137Y-70241266D01*
X118778850Y-70215208D01*
X118783005Y-70169176D01*
X118786628Y-70101131D01*
X118789746Y-70009038D01*
X118792387Y-69890859D01*
X118794576Y-69744556D01*
X118796340Y-69568093D01*
X118797706Y-69359432D01*
X118798702Y-69116537D01*
X118799353Y-68837369D01*
X118799686Y-68519893D01*
X118799746Y-68291603D01*
X118799760Y-67959215D01*
X118799695Y-67665841D01*
X118799488Y-67491828D01*
X120112461Y-67491828D01*
X120112660Y-67812820D01*
X120113243Y-68111361D01*
X120114191Y-68385466D01*
X120115485Y-68633145D01*
X120117106Y-68852412D01*
X120119034Y-69041279D01*
X120121251Y-69197758D01*
X120123736Y-69319863D01*
X120126471Y-69405605D01*
X120129437Y-69452997D01*
X120131549Y-69462305D01*
X120153405Y-69447847D01*
X120195045Y-69409325D01*
X120248786Y-69354017D01*
X120269001Y-69332076D01*
X120380567Y-69202096D01*
X120500938Y-69049639D01*
X120619367Y-68889030D01*
X120725108Y-68734596D01*
X120769116Y-68665384D01*
X120868526Y-68503984D01*
X120955535Y-68584187D01*
X120991117Y-68614092D01*
X121033383Y-68642726D01*
X121087821Y-68672677D01*
X121159922Y-68706536D01*
X121255175Y-68746895D01*
X121379072Y-68796342D01*
X121524298Y-68852559D01*
X121529600Y-68847151D01*
X121534109Y-68824884D01*
X121537861Y-68783274D01*
X121540894Y-68719833D01*
X121543244Y-68632076D01*
X121544950Y-68517517D01*
X121546049Y-68373670D01*
X121546577Y-68198048D01*
X121546572Y-67988166D01*
X121546072Y-67741538D01*
X121545135Y-67461494D01*
X121539778Y-66060377D01*
X120870401Y-65804919D01*
X120711004Y-65744168D01*
X120562615Y-65687766D01*
X120430076Y-65637543D01*
X120318232Y-65595328D01*
X120231923Y-65562949D01*
X120175994Y-65542235D01*
X120156742Y-65535406D01*
X120112461Y-65521351D01*
X120112461Y-67491828D01*
X118799488Y-67491828D01*
X118799389Y-67408823D01*
X118798682Y-67185502D01*
X118797411Y-66993218D01*
X118795416Y-66829313D01*
X118792535Y-66691127D01*
X118788607Y-66576002D01*
X118783471Y-66481279D01*
X118776965Y-66404299D01*
X118768928Y-66342402D01*
X118759199Y-66292930D01*
X118747616Y-66253224D01*
X118734018Y-66220625D01*
X118718243Y-66192473D01*
X118700132Y-66166111D01*
X118679521Y-66138879D01*
X118668251Y-66124136D01*
X118632732Y-66084569D01*
X118570934Y-66023399D01*
X118488467Y-65945852D01*
X118390938Y-65857157D01*
X118283954Y-65762541D01*
X118232712Y-65718125D01*
X118089327Y-65595642D01*
X117997466Y-65521351D01*
X117971648Y-65500471D01*
X117873970Y-65432533D01*
X117790588Y-65391754D01*
X117715796Y-65378056D01*
X117643889Y-65391363D01*
X117569163Y-65431600D01*
X117485911Y-65498689D01*
X117388430Y-65592554D01*
X117278505Y-65705363D01*
X117035619Y-65967047D01*
X116827434Y-66213957D01*
X116651383Y-66449969D01*
X116504898Y-66678955D01*
X116385412Y-66904791D01*
X116290357Y-67131350D01*
X116245588Y-67264028D01*
X116211634Y-67378024D01*
X116189153Y-67467702D01*
X116175719Y-67548027D01*
X116168902Y-67633966D01*
X116166273Y-67740488D01*
X116166140Y-67753692D01*
X116169299Y-67917505D01*
X116183886Y-68054019D01*
X116212487Y-68176661D01*
X116257688Y-68298856D01*
X116281195Y-68351042D01*
X116371157Y-68495453D01*
X116491311Y-68615153D01*
X116636592Y-68707651D01*
X116801935Y-68770457D01*
X116982275Y-68801077D01*
X117172547Y-68797022D01*
X117184787Y-68795543D01*
X117389419Y-68751561D01*
X117577754Y-68672455D01*
X117754037Y-68556013D01*
X117900875Y-68422649D01*
X117948696Y-68375492D01*
X117974922Y-68353970D01*
X117976788Y-68360143D01*
X117969764Y-68371311D01*
X117868839Y-68489347D01*
X117735752Y-68600532D01*
X117580011Y-68698741D01*
X117411122Y-68777850D01*
X117265237Y-68825268D01*
X117071666Y-68854473D01*
X116882380Y-68844089D01*
X116702109Y-68796195D01*
X116535582Y-68712873D01*
X116387529Y-68596204D01*
X116262680Y-68448269D01*
X116208956Y-68360520D01*
X116170279Y-68270662D01*
X116133971Y-68152998D01*
X116103184Y-68021392D01*
X116081067Y-67889703D01*
X116070770Y-67771794D01*
X116070405Y-67750784D01*
X116077949Y-67630334D01*
X116099505Y-67484011D01*
X116132736Y-67324279D01*
X116175307Y-67163599D01*
X116188716Y-67119711D01*
X116281000Y-66879292D01*
X116409497Y-66625347D01*
X116572001Y-66360498D01*
X116766307Y-66087363D01*
X116990209Y-65808564D01*
X117241501Y-65526721D01*
X117517978Y-65244455D01*
X117817434Y-64964385D01*
X118137664Y-64689133D01*
X118430591Y-64456276D01*
X118526145Y-64383799D01*
X118610698Y-64321095D01*
X118678582Y-64272254D01*
X118724124Y-64241367D01*
X118741119Y-64232281D01*
X118763992Y-64248716D01*
X118770245Y-64260594D01*
X118787578Y-64281178D01*
X118831181Y-64325673D01*
X118896899Y-64390196D01*
X118980578Y-64470864D01*
X119078064Y-64563793D01*
X119185202Y-64665101D01*
X119297840Y-64770903D01*
X119411821Y-64877317D01*
X119522993Y-64980458D01*
X119627200Y-65076445D01*
X119720290Y-65161392D01*
X119798107Y-65231418D01*
X119856498Y-65282638D01*
X119891309Y-65311169D01*
X119899028Y-65315792D01*
X119922963Y-65301006D01*
X119968479Y-65260635D01*
X120029947Y-65200660D01*
X120101737Y-65127059D01*
X120178221Y-65045813D01*
X120253770Y-64962903D01*
X120322756Y-64884308D01*
X120379549Y-64816008D01*
X120418521Y-64763984D01*
X120418767Y-64763618D01*
X120493446Y-64643736D01*
X120562918Y-64516593D01*
X120619942Y-64396209D01*
X120653214Y-64309676D01*
X120678776Y-64230795D01*
X120758418Y-64302747D01*
G37*
%TD.AperFunction*%
%TD*%
D11*
%TO.P,FID4,*%
%TO.N,*%
X153750000Y-41460000D03*
%TD*%
%TO.P,FID3,*%
%TO.N,*%
X154700000Y-148500000D03*
%TD*%
%TO.P,FID2,*%
%TO.N,*%
X106833200Y-148440000D03*
%TD*%
%TO.P,FID1,*%
%TO.N,*%
X107652800Y-39782000D03*
%TD*%
D12*
%TO.P,U9,1,VDD3_0*%
%TO.N,Net-(U9-VDD3_0)*%
X109084000Y-108500000D03*
%TO.P,U9,2,VDD2_0*%
%TO.N,Net-(U9-VDD2_0)*%
X109084000Y-109000000D03*
%TO.P,U9,3,VDD1_0*%
%TO.N,Net-(U9-VDD1_0)*%
X109084000Y-109500000D03*
%TO.P,U9,4,VSS*%
%TO.N,GND*%
X109084000Y-110000000D03*
%TO.P,U9,5,NRSTI*%
%TO.N,/ASIC/RST_1V2*%
X109084000Y-110500000D03*
%TO.P,U9,6,CI*%
%TO.N,/ASIC/TX_1V2*%
X109084000Y-111000000D03*
%TO.P,U9,7,RO*%
%TO.N,/ASIC/RX_1V2*%
X109084000Y-111500000D03*
%TO.P,U9,8,CLKI*%
%TO.N,/ASIC/CLKI*%
X109084000Y-112000000D03*
%TO.P,U9,9,BI*%
%TO.N,/ASIC/BI*%
X109084000Y-112500000D03*
%TO.P,U9,10,ROSC_SEL*%
%TO.N,Net-(U9-ROSC_SEL)*%
X109084000Y-113000000D03*
%TO.P,U9,11,LITE_PAD*%
%TO.N,Net-(U9-LITE_PAD)*%
X109084000Y-113500000D03*
%TO.P,U9,12,INV_CLKO*%
%TO.N,Net-(U9-INV_CLKO)*%
X109084000Y-114000000D03*
%TO.P,U9,13,PLL_VSS*%
%TO.N,GND*%
X109084000Y-114500000D03*
%TO.P,U9,14,VDDIO_08_0*%
%TO.N,/ASIC/0V8_1*%
X109084000Y-115000000D03*
%TO.P,U9,15,VDDIO_12_0*%
%TO.N,/ASIC/1V2_1*%
X109084000Y-115500000D03*
%TO.P,U9,16,VDDIO_12_1*%
%TO.N,/ASIC/1V2*%
X116916000Y-115500000D03*
%TO.P,U9,17,VDDIO_08_1*%
%TO.N,/ASIC/0V8*%
X116916000Y-115000000D03*
%TO.P,U9,18,VSS*%
%TO.N,GND*%
X116916000Y-114500000D03*
%TO.P,U9,19,PIN_MODE*%
%TO.N,unconnected-(U9-PIN_MODE-Pad19)*%
X116916000Y-114000000D03*
%TO.P,U9,20,TEMP_P*%
%TO.N,/ASIC/TEMP1_P*%
X116916000Y-113500000D03*
%TO.P,U9,21,TEMP_N*%
%TO.N,/ASIC/TEMP1_N*%
X116916000Y-113000000D03*
%TO.P,U9,22,BO*%
%TO.N,Net-(U10-BI)*%
X116916000Y-112500000D03*
%TO.P,U9,23,CLKO*%
%TO.N,Net-(U10-CLKI)*%
X116916000Y-112000000D03*
%TO.P,U9,24,RI*%
%TO.N,Net-(U10-RO)*%
X116916000Y-111500000D03*
%TO.P,U9,25,CO*%
%TO.N,Net-(U10-CI)*%
X116916000Y-111000000D03*
%TO.P,U9,26,NRSTO*%
%TO.N,Net-(U10-NRSTI)*%
X116916000Y-110500000D03*
%TO.P,U9,27,VSS*%
%TO.N,GND*%
X116916000Y-110000000D03*
%TO.P,U9,28,VDD1_1*%
%TO.N,Net-(U10-VDD1_0)*%
X116916000Y-109500000D03*
%TO.P,U9,29,VDD2_1*%
%TO.N,Net-(U10-VDD2_0)*%
X116916000Y-109000000D03*
%TO.P,U9,30,VDD3_1*%
%TO.N,Net-(U10-VDD3_0)*%
X116916000Y-108500000D03*
D13*
%TO.P,U9,31,VDD*%
%TO.N,/Vcore*%
X113000000Y-109060000D03*
D14*
%TO.P,U9,32,VSS*%
%TO.N,GND*%
X113000000Y-113110000D03*
%TD*%
D15*
%TO.P,H4,1,1*%
%TO.N,GND*%
X99600000Y-146500000D03*
X100302944Y-144802944D03*
X100302944Y-148197056D03*
X102000000Y-144100000D03*
D16*
X102000000Y-146500000D03*
D15*
X102000000Y-148900000D03*
X103697056Y-144802944D03*
X103697056Y-148197056D03*
X104400000Y-146500000D03*
%TD*%
D17*
%TO.P,J7,1,Pin_1*%
%TO.N,GND*%
X133180600Y-146338851D03*
%TO.P,J7,2,Pin_2*%
%TO.N,/12V*%
X130640600Y-146338851D03*
%TO.P,J7,3,Pin_3*%
%TO.N,/fan/FAN_TACH*%
X128100600Y-146338851D03*
%TO.P,J7,4,Pin_4*%
%TO.N,/fan/FAN_PWM*%
X125560600Y-146338851D03*
%TD*%
D12*
%TO.P,U10,1,VDD3_0*%
%TO.N,Net-(U10-VDD3_0)*%
X145084000Y-108500000D03*
%TO.P,U10,2,VDD2_0*%
%TO.N,Net-(U10-VDD2_0)*%
X145084000Y-109000000D03*
%TO.P,U10,3,VDD1_0*%
%TO.N,Net-(U10-VDD1_0)*%
X145084000Y-109500000D03*
%TO.P,U10,4,VSS*%
%TO.N,GND*%
X145084000Y-110000000D03*
%TO.P,U10,5,NRSTI*%
%TO.N,Net-(U10-NRSTI)*%
X145084000Y-110500000D03*
%TO.P,U10,6,CI*%
%TO.N,Net-(U10-CI)*%
X145084000Y-111000000D03*
%TO.P,U10,7,RO*%
%TO.N,Net-(U10-RO)*%
X145084000Y-111500000D03*
%TO.P,U10,8,CLKI*%
%TO.N,Net-(U10-CLKI)*%
X145084000Y-112000000D03*
%TO.P,U10,9,BI*%
%TO.N,Net-(U10-BI)*%
X145084000Y-112500000D03*
%TO.P,U10,10,ROSC_SEL*%
%TO.N,Net-(U10-ROSC_SEL)*%
X145084000Y-113000000D03*
%TO.P,U10,11,LITE_PAD*%
%TO.N,Net-(U10-LITE_PAD)*%
X145084000Y-113500000D03*
%TO.P,U10,12,INV_CLKO*%
%TO.N,Net-(U10-INV_CLKO)*%
X145084000Y-114000000D03*
%TO.P,U10,13,PLL_VSS*%
%TO.N,GND*%
X145084000Y-114500000D03*
%TO.P,U10,14,VDDIO_08_0*%
%TO.N,/ASIC/0V8*%
X145084000Y-115000000D03*
%TO.P,U10,15,VDDIO_12_0*%
%TO.N,/ASIC/1V2*%
X145084000Y-115500000D03*
%TO.P,U10,16,VDDIO_12_1*%
%TO.N,/ASIC/1V2_2*%
X152916000Y-115500000D03*
%TO.P,U10,17,VDDIO_08_1*%
%TO.N,/ASIC/0V8_2*%
X152916000Y-115000000D03*
%TO.P,U10,18,VSS*%
%TO.N,GND*%
X152916000Y-114500000D03*
%TO.P,U10,19,PIN_MODE*%
%TO.N,unconnected-(U10-PIN_MODE-Pad19)*%
X152916000Y-114000000D03*
%TO.P,U10,20,TEMP_P*%
%TO.N,/ASIC/TEMP2_P*%
X152916000Y-113500000D03*
%TO.P,U10,21,TEMP_N*%
%TO.N,/ASIC/TEMP2_N*%
X152916000Y-113000000D03*
%TO.P,U10,22,BO*%
%TO.N,Net-(U10-BO)*%
X152916000Y-112500000D03*
%TO.P,U10,23,CLKO*%
%TO.N,Net-(U10-CLKO)*%
X152916000Y-112000000D03*
%TO.P,U10,24,RI*%
%TO.N,Net-(U10-RI)*%
X152916000Y-111500000D03*
%TO.P,U10,25,CO*%
%TO.N,Net-(U10-CO)*%
X152916000Y-111000000D03*
%TO.P,U10,26,NRSTO*%
%TO.N,Net-(U10-NRSTO)*%
X152916000Y-110500000D03*
%TO.P,U10,27,VSS*%
%TO.N,GND*%
X152916000Y-110000000D03*
%TO.P,U10,28,VDD1_1*%
%TO.N,Net-(U10-VDD1_1)*%
X152916000Y-109500000D03*
%TO.P,U10,29,VDD2_1*%
%TO.N,Net-(U10-VDD2_1)*%
X152916000Y-109000000D03*
%TO.P,U10,30,VDD3_1*%
%TO.N,Net-(U10-VDD3_1)*%
X152916000Y-108500000D03*
D13*
%TO.P,U10,31,VDD*%
%TO.N,/Vcore*%
X149000000Y-109060000D03*
D14*
%TO.P,U10,32,VSS*%
%TO.N,GND*%
X149000000Y-113110000D03*
%TD*%
D15*
%TO.P,H2,1,1*%
%TO.N,GND*%
X99600000Y-41500000D03*
X100302944Y-39802944D03*
X100302944Y-43197056D03*
X102000000Y-39100000D03*
D16*
X102000000Y-41500000D03*
D15*
X102000000Y-43900000D03*
X103697056Y-39802944D03*
X103697056Y-43197056D03*
X104400000Y-41500000D03*
%TD*%
%TO.P,H3,1,1*%
%TO.N,GND*%
X157600000Y-146500000D03*
X158302944Y-144802944D03*
X158302944Y-148197056D03*
X160000000Y-144100000D03*
D16*
X160000000Y-146500000D03*
D15*
X160000000Y-148900000D03*
X161697056Y-144802944D03*
X161697056Y-148197056D03*
X162400000Y-146500000D03*
%TD*%
D18*
%TO.P,J3,1,Pin_1*%
%TO.N,GND*%
X148200000Y-40550000D03*
D19*
%TO.P,J3,2,Pin_2*%
%TO.N,/3V3*%
X147800000Y-43090000D03*
%TO.P,J3,3,Pin_3*%
%TO.N,/ESP32/SCL*%
X148200000Y-45630000D03*
%TO.P,J3,4,Pin_4*%
%TO.N,/ESP32/SDA*%
X147800000Y-48170000D03*
%TD*%
D15*
%TO.P,H1,1,1*%
%TO.N,GND*%
X157600000Y-41500000D03*
X158302944Y-39802944D03*
X158302944Y-43197056D03*
X160000000Y-39100000D03*
D16*
X160000000Y-41500000D03*
D15*
X160000000Y-43900000D03*
X161697056Y-39802944D03*
X161697056Y-43197056D03*
X162400000Y-41500000D03*
%TD*%
D20*
%TO.P,H6,1,1*%
%TO.N,unconnected-(H6-Pad1)*%
X106000000Y-87000000D03*
%TD*%
%TO.P,H5,1,1*%
%TO.N,unconnected-(H5-Pad1)*%
X156000000Y-87000000D03*
%TD*%
D21*
%TO.P,U4,41,PAD*%
%TO.N,GND*%
X122280000Y-88650000D03*
X122280000Y-87250000D03*
X122280000Y-85850000D03*
X121000000Y-89650000D03*
X121000000Y-88650000D03*
X121000000Y-87250000D03*
X121000000Y-85850000D03*
X121000000Y-84850000D03*
X119720000Y-88650000D03*
X119720000Y-87250000D03*
X119720000Y-85850000D03*
%TD*%
D22*
%TO.P,U2,17,PAD*%
%TO.N,unconnected-(U2-PAD-Pad17)_1*%
X106070001Y-124400000D03*
%TO.N,unconnected-(U2-PAD-Pad17)*%
X104569999Y-124400000D03*
%TD*%
D23*
%TO.P,J1,1,+V*%
%TO.N,/12V*%
X150350000Y-60250000D03*
%TO.P,J1,2,GND*%
%TO.N,GND*%
X150350000Y-55250000D03*
D24*
%TO.P,J1,3,MNT1*%
%TO.N,unconnected-(J1-MNT1-Pad3)*%
X160350000Y-63250000D03*
%TO.P,J1,4,MNT2*%
%TO.N,unconnected-(J1-MNT2-Pad4)*%
X160350000Y-52250000D03*
%TD*%
D25*
%TO.P,J4,S1,SHIELD*%
%TO.N,GND*%
X118030000Y-40885000D03*
D26*
X118030000Y-45065000D03*
D25*
X126670000Y-40885000D03*
D26*
X126670000Y-45065000D03*
%TD*%
D21*
%TO.P,U1,41,PAD*%
%TO.N,GND*%
X146630000Y-88650000D03*
X146630000Y-87250000D03*
X146630000Y-85850000D03*
X145350000Y-89650000D03*
X145350000Y-88650000D03*
X145350000Y-87250000D03*
X145350000Y-85850000D03*
X145350000Y-84850000D03*
X144070000Y-88650000D03*
X144070000Y-87250000D03*
X144070000Y-85850000D03*
%TD*%
D20*
%TO.P,H8,1,1*%
%TO.N,unconnected-(H8-Pad1)*%
X156000000Y-137000000D03*
%TD*%
%TO.P,H7,1,1*%
%TO.N,unconnected-(H7-Pad1)*%
X106000000Y-137000000D03*
%TD*%
D27*
%TO.N,GND*%
X154200000Y-110050000D03*
%TO.N,/12V*%
X151960000Y-62620000D03*
X137340000Y-87050000D03*
X143785000Y-58990000D03*
X154827500Y-58970000D03*
X152715000Y-61700000D03*
X144841250Y-63540000D03*
X143340473Y-136366057D03*
X153771250Y-63520000D03*
X156940000Y-62590000D03*
X148791250Y-63530000D03*
X137340000Y-87650000D03*
X149847500Y-63530000D03*
X145897500Y-60810000D03*
X136700000Y-88250000D03*
X152715000Y-62610000D03*
X152715000Y-58970000D03*
X154827500Y-63520000D03*
X136700000Y-87650000D03*
X144841250Y-62630000D03*
X154827500Y-61700000D03*
X135470000Y-87650000D03*
X150903750Y-63530000D03*
X156940000Y-59860000D03*
X145897500Y-61720000D03*
X144841250Y-58990000D03*
X143785000Y-60810000D03*
X152715000Y-60790000D03*
X146953750Y-61720000D03*
X151960000Y-63530000D03*
X155883750Y-63520000D03*
X154827500Y-62610000D03*
X145897500Y-62630000D03*
X148010000Y-58970000D03*
X143785000Y-63540000D03*
X136700000Y-88850000D03*
X148791250Y-62620000D03*
X135470000Y-87050000D03*
X156940000Y-58950000D03*
X111590000Y-88460000D03*
X112200000Y-87850000D03*
X136100000Y-88850000D03*
X137340000Y-88850000D03*
X153771250Y-59880000D03*
X143785000Y-62630000D03*
X112200000Y-87250000D03*
X113400000Y-88460000D03*
X113400000Y-87860000D03*
X112800000Y-87850000D03*
X153771250Y-61700000D03*
X153771250Y-60790000D03*
X113400000Y-87260000D03*
X112200000Y-88450000D03*
X148010000Y-63520000D03*
X143785000Y-61720000D03*
X112800000Y-89050000D03*
X144841250Y-61720000D03*
X144841250Y-59900000D03*
X112800000Y-87250000D03*
X111590000Y-87260000D03*
X150903750Y-62620000D03*
X152715000Y-63520000D03*
D28*
X144170000Y-134315000D03*
D27*
X136700000Y-87050000D03*
X136100000Y-88250000D03*
X146953750Y-60810000D03*
X136100000Y-87050000D03*
X146953750Y-62630000D03*
X148010000Y-59880000D03*
X144841250Y-60810000D03*
X153771250Y-58970000D03*
X111590000Y-89060000D03*
X152715000Y-59880000D03*
X136100000Y-87650000D03*
X148010000Y-62610000D03*
X146953750Y-59900000D03*
X143340473Y-137026057D03*
X155883750Y-62610000D03*
X154827500Y-60790000D03*
X156940000Y-61680000D03*
X156940000Y-63500000D03*
X155883750Y-61700000D03*
X146953750Y-58990000D03*
X143890473Y-136356057D03*
X155883750Y-59880000D03*
X145897500Y-58990000D03*
X113400000Y-89060000D03*
X137340000Y-88250000D03*
X135470000Y-88850000D03*
X148010000Y-60790000D03*
X145897500Y-59900000D03*
X143890473Y-137036057D03*
X112800000Y-88450000D03*
X148010000Y-61700000D03*
X112200000Y-89050000D03*
X154827500Y-59880000D03*
X143785000Y-59900000D03*
X146953750Y-63540000D03*
X156940000Y-60770000D03*
X155883750Y-60790000D03*
X135470000Y-88250000D03*
X145897500Y-63540000D03*
X153771250Y-62610000D03*
X155883750Y-58970000D03*
X149847500Y-62620000D03*
X111590000Y-87860000D03*
%TO.N,/Power/AGND1*%
X151400000Y-78260000D03*
X145640000Y-81410000D03*
X141450000Y-80820000D03*
X146360000Y-80800000D03*
D28*
%TO.N,/Vcore*%
X140200000Y-101975000D03*
X137100000Y-101975000D03*
X129800000Y-107250000D03*
X129800000Y-106450000D03*
X119800000Y-102800000D03*
X122150000Y-102100000D03*
X146380000Y-101975000D03*
X129000000Y-101900000D03*
X149500000Y-107400000D03*
X153400000Y-103550000D03*
X153400000Y-101100000D03*
X154200000Y-106000000D03*
X137800000Y-101975000D03*
X150500000Y-107400000D03*
X155000000Y-100300000D03*
X111500000Y-107400000D03*
X154200000Y-102750000D03*
X115162500Y-102800000D03*
X116850000Y-102100000D03*
X153400000Y-101950000D03*
X116850000Y-102800000D03*
X146500000Y-107400000D03*
X113500000Y-109500000D03*
X127400000Y-107250000D03*
X155000000Y-101950000D03*
X142500000Y-101975000D03*
X146380000Y-102675000D03*
X127400000Y-101900000D03*
X128200000Y-105650000D03*
X113500000Y-108500000D03*
X128200000Y-101900000D03*
X146380000Y-101275000D03*
D27*
X133950000Y-101650000D03*
D28*
X112862500Y-101400000D03*
X115500000Y-107400000D03*
X119100000Y-102100000D03*
X129800000Y-103450000D03*
X154200000Y-100300000D03*
X119800000Y-101400000D03*
X155000000Y-105200000D03*
X147500000Y-109500000D03*
X154200000Y-101100000D03*
X152600000Y-103550000D03*
X129800000Y-108050000D03*
X152600000Y-102750000D03*
X129800000Y-104250000D03*
X109900000Y-101400000D03*
X108575000Y-67625000D03*
X114500000Y-109500000D03*
X148500000Y-107400000D03*
X121450000Y-102800000D03*
X127400000Y-106450000D03*
X144000000Y-101275000D03*
X137100000Y-102675000D03*
X155000000Y-106000000D03*
X146500000Y-108500000D03*
X153400000Y-102750000D03*
X152600000Y-101950000D03*
X114462500Y-102800000D03*
X135500000Y-102700000D03*
X110500000Y-108500000D03*
X129000000Y-107250000D03*
X114462500Y-101400000D03*
X140200000Y-101275000D03*
X112862500Y-102800000D03*
X151500000Y-107400000D03*
X135500000Y-101300000D03*
X150500000Y-108500000D03*
X135500000Y-102000000D03*
X152600000Y-104350000D03*
X134800000Y-102000000D03*
X119800000Y-102100000D03*
X113500000Y-107400000D03*
X114462500Y-102100000D03*
X112500000Y-109500000D03*
X114500000Y-108500000D03*
X109900000Y-102100000D03*
X128200000Y-106450000D03*
X119100000Y-102800000D03*
X154200000Y-105200000D03*
X119100000Y-101400000D03*
X154200000Y-103550000D03*
X115500000Y-108500000D03*
X148500000Y-109500000D03*
X110600000Y-101400000D03*
X152600000Y-105200000D03*
X153400000Y-106000000D03*
X110500000Y-107400000D03*
X149500000Y-108500000D03*
X147500000Y-108500000D03*
X142500000Y-102675000D03*
X117550000Y-102100000D03*
X129000000Y-104250000D03*
X141800000Y-101275000D03*
X128200000Y-102650000D03*
X115162500Y-102100000D03*
X141800000Y-102675000D03*
X139500000Y-101975000D03*
X112162500Y-102800000D03*
X148500000Y-108500000D03*
X155000000Y-103550000D03*
X128200000Y-103450000D03*
X116850000Y-101400000D03*
D27*
X143250000Y-81320000D03*
D28*
X142500000Y-101275000D03*
X115162500Y-101400000D03*
X129800000Y-101900000D03*
X112500000Y-107400000D03*
D27*
X160700000Y-102700000D03*
D28*
X134800000Y-102700000D03*
X137100000Y-101275000D03*
X112162500Y-101400000D03*
X152600000Y-101100000D03*
X117550000Y-101400000D03*
X111500000Y-108500000D03*
X129800000Y-105650000D03*
X112862500Y-102100000D03*
X114500000Y-107400000D03*
X139500000Y-102675000D03*
X154200000Y-101950000D03*
X144000000Y-102675000D03*
X110500000Y-109500000D03*
X147080000Y-102675000D03*
X121450000Y-102100000D03*
X117550000Y-102800000D03*
X129000000Y-105650000D03*
X128200000Y-108050000D03*
X127400000Y-103450000D03*
X129800000Y-102650000D03*
X147080000Y-101975000D03*
X153400000Y-104350000D03*
X151500000Y-109500000D03*
X127400000Y-105650000D03*
X121450000Y-101400000D03*
X112500000Y-108500000D03*
X134800000Y-101300000D03*
X155000000Y-102750000D03*
X147080000Y-101275000D03*
X137800000Y-101275000D03*
X140200000Y-102675000D03*
X141800000Y-101975000D03*
X153400000Y-100300000D03*
X152600000Y-106000000D03*
X137800000Y-102675000D03*
X144700000Y-101275000D03*
X153400000Y-105200000D03*
X110600000Y-102100000D03*
X144000000Y-101975000D03*
X129000000Y-103450000D03*
X122150000Y-101400000D03*
X109900000Y-102800000D03*
X129000000Y-106450000D03*
X151500000Y-108500000D03*
X144700000Y-101975000D03*
X152600000Y-100300000D03*
X110600000Y-102800000D03*
X115500000Y-109500000D03*
X147500000Y-107400000D03*
X144700000Y-102675000D03*
X154200000Y-104350000D03*
X128200000Y-107250000D03*
X139500000Y-101275000D03*
X155000000Y-104350000D03*
X129000000Y-102650000D03*
X146500000Y-109500000D03*
X129000000Y-108050000D03*
X127400000Y-104250000D03*
X111500000Y-109500000D03*
X150500000Y-109500000D03*
X127400000Y-102650000D03*
X122150000Y-102800000D03*
X112162500Y-102100000D03*
X149500000Y-109500000D03*
X127400000Y-108050000D03*
X155000000Y-101100000D03*
X128200000Y-104250000D03*
D27*
%TO.N,/Power/VSHARE*%
X120450000Y-81200000D03*
X144670000Y-81410000D03*
%TO.N,/Power/EN_UVLO*%
X115080000Y-85200000D03*
X137550000Y-82790000D03*
%TO.N,/5V*%
X106650000Y-120200000D03*
X138940000Y-59590000D03*
X138930000Y-58920000D03*
X106050000Y-120200000D03*
X138940000Y-60297500D03*
X127450000Y-139300000D03*
X125200000Y-122700000D03*
X129200000Y-57100000D03*
X138940000Y-58170000D03*
%TO.N,/ASIC/1V2*%
X103450000Y-100590000D03*
X127300000Y-122700000D03*
X130430000Y-116720000D03*
X107940000Y-123380000D03*
X117825000Y-115625000D03*
X143940000Y-116560000D03*
X103368909Y-126091091D03*
%TO.N,/ASIC/0V8*%
X142610000Y-116570000D03*
X130450000Y-115762500D03*
X119750000Y-115050000D03*
D29*
%TO.N,/3V3*%
X133680000Y-55481821D03*
X134580000Y-55481821D03*
X134580000Y-54631821D03*
D27*
X104010000Y-129210000D03*
X107780000Y-77110000D03*
D29*
X132730000Y-55031821D03*
D27*
X125990000Y-62790000D03*
D30*
X114700000Y-40800000D03*
D27*
X138380000Y-50381821D03*
D28*
X130300000Y-52025000D03*
D27*
X107425000Y-46150000D03*
D29*
X133680000Y-54631821D03*
D27*
X126700000Y-128850000D03*
%TO.N,/Power/PGOOD*%
X127430000Y-60530000D03*
X149090000Y-73910000D03*
D28*
%TO.N,/fan/FAN_TACH*%
X134250000Y-139000000D03*
D27*
%TO.N,/ASIC/TEMP1_P*%
X118328858Y-113867944D03*
D28*
X131700000Y-127890000D03*
D27*
%TO.N,/ASIC/TEMP1_N*%
X118000000Y-113250000D03*
D28*
X130650000Y-127890000D03*
%TO.N,/ASIC/TEMP2_P*%
X134000000Y-127800000D03*
D27*
X155355635Y-114550000D03*
D28*
%TO.N,/ASIC/TEMP2_N*%
X132950000Y-127880000D03*
D27*
X155820645Y-114026770D03*
D28*
%TO.N,/fan/FAN_PWM*%
X131430000Y-141810000D03*
D27*
%TO.N,/Power/BCX_DAT*%
X126810000Y-79660000D03*
X161580000Y-82450000D03*
X148550000Y-80250000D03*
%TO.N,/Power/BCX_CLK*%
X156800000Y-80700000D03*
X147780000Y-80249999D03*
X126180000Y-80560000D03*
%TO.N,/Power/SYNC*%
X125286195Y-80547010D03*
X147080102Y-80262067D03*
X161560000Y-85380000D03*
%TO.N,/ESP32/SDA*%
X109500000Y-131300000D03*
X111400000Y-71500000D03*
D28*
X124100000Y-61190000D03*
D27*
X135650000Y-135250000D03*
D28*
%TO.N,/ESP32/SCL*%
X123320000Y-62465000D03*
D27*
X112000000Y-70600000D03*
X109500000Y-132300000D03*
X135600000Y-136200000D03*
%TO.N,/ASIC/RX_1V2*%
X106000000Y-121200000D03*
%TO.N,/ASIC/CLKI*%
X106200000Y-112550000D03*
%TO.N,/ASIC/BI*%
X105420352Y-112700799D03*
%TO.N,/ASIC/RST_1V2*%
X104675382Y-121611508D03*
%TO.N,/ASIC/TX_1V2*%
X105309522Y-121315080D03*
%TO.N,/ASIC/RST_3V3*%
X109400000Y-73000000D03*
X104698999Y-126896596D03*
%TO.N,/ASIC/TX_3V3*%
X117700000Y-62100000D03*
X105260000Y-128150000D03*
%TO.N,Net-(U4-AVIN)*%
X115070000Y-86130000D03*
X115460000Y-83040000D03*
%TO.N,Net-(U9-VDD1_0)*%
X108025000Y-109275000D03*
%TO.N,Net-(U9-VDD2_0)*%
X108125000Y-108255000D03*
%TO.N,Net-(U9-VDD3_0)*%
X109480000Y-107340000D03*
%TO.N,Net-(U9-LITE_PAD)*%
X105550000Y-114050000D03*
%TO.N,Net-(U9-ROSC_SEL)*%
X104100000Y-114950000D03*
%TO.N,Net-(U9-INV_CLKO)*%
X106000000Y-114850000D03*
D28*
%TO.N,/Power/SW1*%
X154200000Y-93900000D03*
X153500000Y-91800000D03*
X154900000Y-93200000D03*
X152800000Y-91800000D03*
X152800000Y-92500000D03*
X154900000Y-92500000D03*
X154900000Y-94600000D03*
X154200000Y-95300000D03*
X152800000Y-93900000D03*
X153500000Y-95300000D03*
X154200000Y-92500000D03*
X150250000Y-91858000D03*
X154900000Y-95300000D03*
X150250000Y-90194000D03*
X152800000Y-96700000D03*
X154200000Y-93200000D03*
X153500000Y-94600000D03*
X153500000Y-93200000D03*
X151550000Y-89290000D03*
X153500000Y-92500000D03*
X153500000Y-96000000D03*
X154900000Y-96700000D03*
X150250000Y-89362000D03*
X150250000Y-91026000D03*
X153500000Y-93900000D03*
X154200000Y-94600000D03*
X150250000Y-92690000D03*
X154200000Y-96700000D03*
X152075000Y-88425000D03*
X154200000Y-91800000D03*
X152800000Y-95300000D03*
X151275000Y-88425000D03*
X153500000Y-96700000D03*
X154900000Y-96000000D03*
X154200000Y-96000000D03*
X154900000Y-93900000D03*
X152800000Y-93200000D03*
X150250000Y-88530000D03*
X152800000Y-96000000D03*
X152800000Y-94600000D03*
X154900000Y-91800000D03*
D27*
%TO.N,Net-(U1-AVIN)*%
X137790000Y-84890000D03*
X140490000Y-80820000D03*
D28*
%TO.N,/Power/SW2*%
X127400000Y-94600000D03*
X129000000Y-93200000D03*
X125700000Y-88400000D03*
X125970000Y-91475000D03*
X129000000Y-95400000D03*
X126400000Y-88400000D03*
X128200000Y-91700000D03*
X128200000Y-92500000D03*
X129000000Y-94600000D03*
X128200000Y-93200000D03*
X129750000Y-95400000D03*
X129000000Y-91700000D03*
X125970000Y-92300000D03*
X129000000Y-93900000D03*
X127400000Y-96200000D03*
X129750000Y-91700000D03*
X129750000Y-90900000D03*
X129750000Y-92500000D03*
X129000000Y-90900000D03*
X129750000Y-93200000D03*
X129750000Y-93900000D03*
X127350000Y-88975000D03*
X127400000Y-91700000D03*
X125970000Y-90650000D03*
X128200000Y-94600000D03*
X128100000Y-88975000D03*
X125970000Y-89825000D03*
X129750000Y-94600000D03*
X129000000Y-96200000D03*
X127400000Y-95400000D03*
X128200000Y-90900000D03*
X128200000Y-93900000D03*
X129000000Y-92500000D03*
X127400000Y-92500000D03*
X127400000Y-93200000D03*
X128200000Y-95400000D03*
X128200000Y-96200000D03*
X125970000Y-89000000D03*
X129750000Y-96200000D03*
X127400000Y-90900000D03*
X127400000Y-93900000D03*
D27*
%TO.N,Net-(U10-VDD3_0)*%
X145360000Y-107300000D03*
X116640000Y-107350000D03*
%TO.N,Net-(U10-VDD2_0)*%
X143925000Y-108280000D03*
X117750000Y-108280000D03*
%TO.N,Net-(U10-VDD1_0)*%
X117950000Y-109350000D03*
X143925000Y-109220000D03*
%TO.N,Net-(U10-VDD3_1)*%
X152730000Y-107290000D03*
%TO.N,Net-(U10-VDD2_1)*%
X154050000Y-108255000D03*
%TO.N,Net-(U10-VDD1_1)*%
X154050000Y-109195000D03*
%TO.N,/ASIC/0V8_1*%
X106050000Y-115800000D03*
%TO.N,/ASIC/1V2_1*%
X107550000Y-115900000D03*
%TO.N,/ASIC/1V2_2*%
X153797182Y-115702818D03*
%TO.N,/ASIC/0V8_2*%
X154800000Y-115550000D03*
%TO.N,Net-(U1-MSEL1)*%
X141615493Y-81579847D03*
X154150000Y-79150000D03*
%TO.N,Net-(U1-MSEL2)*%
X154150000Y-76300000D03*
X139740000Y-84420000D03*
%TO.N,Net-(U1-VSEL)*%
X139835358Y-82918723D03*
X154150000Y-77700000D03*
%TO.N,Net-(U10-LITE_PAD)*%
X141400000Y-114450000D03*
%TO.N,Net-(U1-ADRSEL)*%
X154500000Y-80490000D03*
X140488170Y-81580000D03*
%TO.N,Net-(U10-NRSTO)*%
X157800000Y-111800000D03*
%TO.N,Net-(U10-ROSC_SEL)*%
X141650000Y-113750000D03*
%TO.N,Net-(U10-INV_CLKO)*%
X141350000Y-115150000D03*
%TO.N,Net-(U10-BI)*%
X136200000Y-113350000D03*
%TO.N,Net-(U10-RI)*%
X157700000Y-115900000D03*
D28*
%TO.N,/Power/SCL_VR*%
X151870000Y-73150000D03*
D27*
X155400000Y-47600000D03*
D28*
X150240000Y-73200000D03*
X161460000Y-69180000D03*
D27*
%TO.N,/Power/ALRT_VR*%
X150301539Y-86057693D03*
D28*
X153260000Y-69190000D03*
X154930000Y-69190000D03*
D27*
X125990000Y-61770000D03*
D28*
%TO.N,/Power/SDA_VR*%
X158200000Y-69180000D03*
D27*
X155400000Y-48800000D03*
X149740000Y-74420000D03*
D28*
X151130000Y-72375000D03*
D27*
%TO.N,GND*%
X133200000Y-120900000D03*
D28*
X149500000Y-112250000D03*
X114500000Y-112250000D03*
X147500000Y-112250000D03*
D27*
X141375000Y-92625000D03*
X137800000Y-97575000D03*
X131990000Y-62860000D03*
X114562500Y-96400000D03*
X113430000Y-94110000D03*
X105875000Y-46150000D03*
X144100000Y-96975000D03*
D28*
X112550000Y-119000000D03*
D27*
X122050000Y-96400000D03*
D28*
X114500000Y-111250000D03*
D27*
X149557500Y-52070000D03*
X156950000Y-55710000D03*
D29*
X140130000Y-47381821D03*
D27*
X121450000Y-97600000D03*
X148501250Y-52980000D03*
D28*
X148600000Y-117050000D03*
D27*
X113430000Y-95310000D03*
X113430000Y-94710000D03*
X117650000Y-93000000D03*
D28*
X149600000Y-118050000D03*
D27*
X116850000Y-96400000D03*
D28*
X112500000Y-112250000D03*
D27*
X117740000Y-114450000D03*
X142400000Y-97575000D03*
X131990000Y-60860000D03*
D28*
X147600000Y-117050000D03*
D27*
X154837500Y-52090000D03*
X130990000Y-60860000D03*
X154700000Y-117900000D03*
D28*
X110500000Y-113250000D03*
D27*
X132990000Y-60860000D03*
X132990000Y-59860000D03*
D28*
X146500000Y-113250000D03*
X148500000Y-115250000D03*
D27*
X151670000Y-52980000D03*
X115525000Y-93025000D03*
X141800000Y-97575000D03*
D30*
X115140000Y-53850000D03*
D27*
X137200000Y-96375000D03*
D28*
X110500000Y-114250000D03*
X114500000Y-115250000D03*
D27*
X146980000Y-96975000D03*
X130990000Y-58860000D03*
D29*
X134555000Y-52006821D03*
D28*
X110550000Y-118000000D03*
D27*
X155893750Y-56640000D03*
D28*
X111550000Y-118000000D03*
D27*
X119200000Y-97600000D03*
D30*
X112330000Y-56650000D03*
D27*
X135980000Y-129890000D03*
X153781250Y-52090000D03*
X117450000Y-97000000D03*
X112862500Y-97000000D03*
X117650000Y-92450000D03*
D28*
X114550000Y-119000000D03*
X150500000Y-112250000D03*
D27*
X116850000Y-97000000D03*
X142400000Y-96375000D03*
X142400000Y-96975000D03*
D28*
X149500000Y-114250000D03*
D27*
X132990000Y-62860000D03*
D28*
X115500000Y-111250000D03*
D27*
X133990000Y-61860000D03*
X119200000Y-97000000D03*
X158880000Y-76740000D03*
X112800000Y-95300000D03*
D28*
X115500000Y-112250000D03*
D27*
X140100000Y-96975000D03*
X119800000Y-97600000D03*
D28*
X146600000Y-119050000D03*
D27*
X136000000Y-93900000D03*
X133990000Y-58860000D03*
X135500000Y-97000000D03*
X106700000Y-77110000D03*
D28*
X112500000Y-114250000D03*
D27*
X136000000Y-93300000D03*
X112200000Y-94100000D03*
D28*
X151500000Y-111250000D03*
D27*
X152725000Y-56640000D03*
X146380000Y-96975000D03*
X150613750Y-52070000D03*
D28*
X151600000Y-118050000D03*
D27*
X121450000Y-96400000D03*
X152725000Y-53000000D03*
X124450000Y-119950000D03*
X109900000Y-97000000D03*
X112200000Y-95300000D03*
D28*
X150600000Y-117050000D03*
D27*
X106790000Y-126920000D03*
X119800000Y-96400000D03*
X132990000Y-58860000D03*
X152725000Y-55730000D03*
X156950000Y-53890000D03*
X142920000Y-114950000D03*
X112800000Y-94100000D03*
X155893750Y-54820000D03*
X124450000Y-114300000D03*
X153781250Y-56640000D03*
X116850000Y-97600000D03*
X137200000Y-97575000D03*
X114562500Y-97000000D03*
X160900000Y-91700000D03*
X112800000Y-93500000D03*
X132990000Y-63860000D03*
D28*
X146500000Y-112250000D03*
D27*
X140475000Y-92675000D03*
D28*
X110500000Y-115250000D03*
D30*
X115140000Y-56650000D03*
D27*
X117450000Y-96400000D03*
X124450000Y-119300000D03*
X133990000Y-62860000D03*
X143870000Y-110080000D03*
X156950000Y-52070000D03*
X131990000Y-64860000D03*
X135500000Y-96400000D03*
D28*
X115500000Y-115250000D03*
D30*
X113740000Y-55250000D03*
D27*
X130990000Y-59860000D03*
X137620000Y-81120000D03*
X112200000Y-93500000D03*
X115162500Y-97000000D03*
D28*
X111500000Y-112250000D03*
D27*
X117050000Y-93000000D03*
X139740000Y-113760000D03*
D30*
X113740000Y-53850000D03*
D27*
X132080000Y-140500000D03*
X110500000Y-97600000D03*
D28*
X112500000Y-113250000D03*
D27*
X136000000Y-95100000D03*
X145660000Y-80360000D03*
D28*
X150600000Y-118050000D03*
D27*
X156950000Y-54800000D03*
D28*
X151600000Y-117050000D03*
D27*
X133990000Y-60860000D03*
D28*
X151600000Y-119050000D03*
D27*
X140100000Y-97575000D03*
X152725000Y-54820000D03*
D28*
X146500000Y-114250000D03*
X115500000Y-113250000D03*
D27*
X130990000Y-61860000D03*
X130990000Y-63860000D03*
X136000000Y-94500000D03*
D28*
X147500000Y-115250000D03*
D27*
X116125000Y-93025000D03*
D28*
X115550000Y-118000000D03*
D30*
X113400000Y-40800000D03*
D28*
X148500000Y-114250000D03*
D27*
X156950000Y-56620000D03*
D28*
X147600000Y-119050000D03*
D27*
X112862500Y-96400000D03*
D28*
X113550000Y-117000000D03*
X150500000Y-111250000D03*
X147500000Y-113250000D03*
D31*
X106000000Y-67400000D03*
D28*
X110550000Y-119000000D03*
D27*
X152725000Y-52090000D03*
X119800000Y-97000000D03*
D28*
X115500000Y-114250000D03*
X150500000Y-114250000D03*
X110500000Y-112250000D03*
D27*
X135500000Y-97600000D03*
X117050000Y-92450000D03*
X132990000Y-61860000D03*
X153803248Y-114396752D03*
D28*
X148500000Y-113250000D03*
D27*
X139500000Y-96975000D03*
D28*
X113500000Y-114250000D03*
D29*
X133040000Y-52030000D03*
X137430000Y-47381821D03*
D27*
X141975000Y-92625000D03*
X115650000Y-84310000D03*
X136600000Y-94500000D03*
X141975000Y-93175000D03*
D30*
X113740000Y-56650000D03*
D27*
X144100000Y-97575000D03*
D28*
X111500000Y-113250000D03*
D27*
X116125000Y-92475000D03*
D28*
X114500000Y-113250000D03*
D27*
X110500000Y-97000000D03*
X144700000Y-96975000D03*
X154837500Y-54820000D03*
D28*
X149500000Y-113250000D03*
X111500000Y-111250000D03*
D27*
X115525000Y-92475000D03*
D28*
X113550000Y-118000000D03*
D27*
X118810000Y-110100000D03*
X131990000Y-63860000D03*
X104350000Y-101750000D03*
D28*
X149500000Y-115250000D03*
D27*
X111570000Y-93500000D03*
X137800000Y-96375000D03*
X141800000Y-96975000D03*
X103790000Y-113400000D03*
X140100000Y-96375000D03*
X107850000Y-114750000D03*
X155893750Y-53000000D03*
X110500000Y-96400000D03*
X131990000Y-58860000D03*
X155893750Y-55730000D03*
D28*
X149600000Y-119050000D03*
D27*
X140475000Y-93225000D03*
X111570000Y-95300000D03*
X154837500Y-55730000D03*
X107079162Y-110220838D03*
D28*
X111550000Y-119000000D03*
D27*
X122050000Y-97600000D03*
D28*
X115550000Y-119000000D03*
X150500000Y-115250000D03*
D27*
X144700000Y-96375000D03*
X130990000Y-62860000D03*
D28*
X113500000Y-112250000D03*
D27*
X113430000Y-93510000D03*
D28*
X148600000Y-118050000D03*
D29*
X140955000Y-50106821D03*
D27*
X154837500Y-53910000D03*
D28*
X110500000Y-111250000D03*
D27*
X136600000Y-95100000D03*
D28*
X146600000Y-117050000D03*
D27*
X139875000Y-92675000D03*
X111570000Y-94700000D03*
X111570000Y-94100000D03*
X124450000Y-114950000D03*
X153781250Y-53000000D03*
X136600000Y-93300000D03*
D28*
X115550000Y-117000000D03*
D30*
X115140000Y-55250000D03*
D28*
X114500000Y-114250000D03*
D27*
X148501250Y-52070000D03*
D28*
X112500000Y-111250000D03*
X113500000Y-111250000D03*
D27*
X146980000Y-97575000D03*
X134900000Y-96400000D03*
D28*
X148500000Y-111250000D03*
X149600000Y-117050000D03*
D27*
X141375000Y-93175000D03*
X129500000Y-128840000D03*
D28*
X113550000Y-119000000D03*
X147500000Y-111250000D03*
D27*
X112800000Y-94700000D03*
X151670000Y-52070000D03*
X132210000Y-114870000D03*
D28*
X151500000Y-113250000D03*
D27*
X155893750Y-52090000D03*
D28*
X147500000Y-114250000D03*
X112550000Y-117000000D03*
D30*
X112330000Y-53850000D03*
D28*
X148500000Y-112250000D03*
X151500000Y-112250000D03*
D27*
X134900000Y-97000000D03*
X115162500Y-97600000D03*
X112262500Y-97000000D03*
D28*
X112550000Y-118000000D03*
D27*
X154837500Y-56640000D03*
D28*
X148600000Y-119050000D03*
D27*
X149557500Y-52980000D03*
X153781250Y-53910000D03*
X144700000Y-97575000D03*
X112262500Y-97600000D03*
X138970000Y-83620000D03*
X132990000Y-64860000D03*
X153781250Y-54820000D03*
X112200000Y-94700000D03*
X114562500Y-97600000D03*
X131990000Y-59860000D03*
X133990000Y-64860000D03*
X121450000Y-97000000D03*
X152725000Y-53910000D03*
X133990000Y-59860000D03*
X144100000Y-96375000D03*
X103450000Y-121650000D03*
X130990000Y-64860000D03*
X152900000Y-82780000D03*
X144170000Y-132765000D03*
X154837500Y-53000000D03*
X109900000Y-96400000D03*
D29*
X134630000Y-47356821D03*
D28*
X151500000Y-114250000D03*
D27*
X146380000Y-96375000D03*
X153781250Y-55730000D03*
X133250000Y-113850000D03*
X136600000Y-93900000D03*
D28*
X146500000Y-115250000D03*
D27*
X101690000Y-128210000D03*
X103990000Y-130170000D03*
X155893750Y-53910000D03*
D28*
X146500000Y-111250000D03*
X114550000Y-118000000D03*
X150500000Y-113250000D03*
D27*
X137800000Y-96975000D03*
D28*
X110550000Y-117000000D03*
X112500000Y-115250000D03*
X111550000Y-117000000D03*
X113500000Y-113250000D03*
D27*
X139875000Y-93225000D03*
X122050000Y-97000000D03*
X146980000Y-96375000D03*
X119200000Y-96400000D03*
X160920000Y-47440000D03*
D28*
X111500000Y-114250000D03*
D27*
X109900000Y-97600000D03*
X112262500Y-96400000D03*
X146380000Y-97575000D03*
D28*
X113500000Y-115250000D03*
D27*
X141800000Y-96375000D03*
X139500000Y-96375000D03*
D28*
X147600000Y-118050000D03*
D30*
X112330000Y-55250000D03*
D27*
X134900000Y-97600000D03*
X156950000Y-52980000D03*
D28*
X151500000Y-115250000D03*
X132425000Y-134275000D03*
X149500000Y-111250000D03*
D27*
X137200000Y-96975000D03*
D29*
X134805000Y-49631821D03*
D27*
X117450000Y-97600000D03*
X108000000Y-121500000D03*
X131990000Y-61860000D03*
X127220000Y-82540000D03*
D28*
X150600000Y-119050000D03*
X114550000Y-117000000D03*
D27*
X112862500Y-97600000D03*
D28*
X146600000Y-118050000D03*
D27*
X115162500Y-96400000D03*
X139500000Y-97575000D03*
X150613750Y-52980000D03*
X133990000Y-63860000D03*
D28*
X111500000Y-115250000D03*
D27*
%TO.N,/Power/BP1v5_2*%
X126327817Y-82850000D03*
X118300000Y-81200000D03*
%TO.N,Net-(U10-BO)*%
X157650000Y-120050000D03*
%TO.N,Net-(U10-CLKO)*%
X157750000Y-118000000D03*
%TO.N,Net-(U10-CO)*%
X157800000Y-113850000D03*
%TO.N,/ESP32/EN*%
X103734620Y-73384620D03*
D30*
X114670000Y-44200000D03*
D28*
%TO.N,/ESP32/P_TX*%
X109820000Y-65500000D03*
D30*
X113400000Y-44250000D03*
D27*
%TO.N,/ESP32/IO0*%
X151910000Y-74400000D03*
D30*
X112150000Y-40800000D03*
D27*
X111400000Y-61450000D03*
X123460000Y-67800000D03*
%TO.N,/ESP32/P_RX*%
X109950000Y-63200000D03*
%TO.N,/ASIC/RX_3V3*%
X118710000Y-62090000D03*
X105930000Y-127530000D03*
%TO.N,/Power/AGND2*%
X128200000Y-81580000D03*
X122200000Y-81650000D03*
X115500000Y-82060000D03*
X125990000Y-85840000D03*
%TO.N,Net-(J2-Pin_5)*%
X137120000Y-42580159D03*
X116150000Y-63100000D03*
%TO.N,Net-(J2-Pin_8)*%
X112360000Y-63060000D03*
X131764719Y-44144719D03*
%TO.N,Net-(J2-Pin_7)*%
X132550000Y-43610000D03*
X113650000Y-63050000D03*
%TO.N,Net-(J2-Pin_6)*%
X136560000Y-42080000D03*
X114900000Y-63050000D03*
%TO.N,/ESP32/P_RX*%
X112600000Y-45800000D03*
D28*
%TO.N,/ESP32/EN*%
X110700000Y-49984314D03*
%TD*%
D32*
%TO.N,GND*%
X118740000Y-110100000D02*
X118632000Y-109992000D01*
X118810000Y-110100000D02*
X118740000Y-110100000D01*
X118632000Y-109992000D02*
X116916000Y-109992000D01*
X107290000Y-110010000D02*
X108190000Y-110010000D01*
X107079162Y-110220838D02*
X107290000Y-110010000D01*
X108190000Y-110010000D02*
X108208000Y-109992000D01*
X108208000Y-109992000D02*
X109084000Y-109992000D01*
%TO.N,Net-(U10-VDD1_0)*%
X117950000Y-109350000D02*
X117925000Y-109325000D01*
X117519040Y-109490000D02*
X116916000Y-109490000D01*
X117684040Y-109325000D02*
X117519040Y-109490000D01*
X117925000Y-109325000D02*
X117684040Y-109325000D01*
%TO.N,GND*%
X154148174Y-110101826D02*
X153996826Y-110101826D01*
X153996826Y-110101826D02*
X153887000Y-109992000D01*
X154200000Y-110050000D02*
X154148174Y-110101826D01*
X153887000Y-109992000D02*
X152916000Y-109992000D01*
X143870000Y-110080000D02*
X144020000Y-110080000D01*
X144020000Y-110080000D02*
X144100000Y-110000000D01*
X144100000Y-110000000D02*
X145076000Y-110000000D01*
X145076000Y-110000000D02*
X145084000Y-109992000D01*
%TO.N,Net-(U10-VDD3_0)*%
X145260000Y-107400000D02*
X145260000Y-108310000D01*
X145360000Y-107300000D02*
X145260000Y-107400000D01*
X145260000Y-108310000D02*
X145084000Y-108486000D01*
%TO.N,/ASIC/0V8_2*%
X154800000Y-115550000D02*
X154422182Y-115550000D01*
X153872182Y-115000000D02*
X152928000Y-115000000D01*
X154422182Y-115550000D02*
X153872182Y-115000000D01*
X152928000Y-115000000D02*
X152916000Y-115012000D01*
%TO.N,/ASIC/1V2_2*%
X152916000Y-115514000D02*
X152930000Y-115500000D01*
X152930000Y-115500000D02*
X153600000Y-115500000D01*
X153600000Y-115500000D02*
X153800000Y-115700000D01*
X153800000Y-115700000D02*
X153797182Y-115702818D01*
%TO.N,GND*%
X152916000Y-114510000D02*
X152926000Y-114500000D01*
X152926000Y-114500000D02*
X153700000Y-114500000D01*
X153700000Y-114500000D02*
X153803248Y-114396752D01*
%TO.N,Net-(U10-NRSTO)*%
X152916000Y-110494000D02*
X152922000Y-110500000D01*
X156660000Y-110660000D02*
X157800000Y-111800000D01*
X152922000Y-110500000D02*
X153787893Y-110500000D01*
X153787893Y-110500000D02*
X153947893Y-110660000D01*
X153947893Y-110660000D02*
X156660000Y-110660000D01*
%TO.N,Net-(U10-VDD1_1)*%
X154050000Y-109195000D02*
X153745000Y-109500000D01*
X152926000Y-109500000D02*
X152916000Y-109490000D01*
X153745000Y-109500000D02*
X152926000Y-109500000D01*
%TO.N,Net-(U10-VDD2_0)*%
X143925000Y-108280000D02*
X144645000Y-109000000D01*
X144645000Y-109000000D02*
X145072000Y-109000000D01*
X145072000Y-109000000D02*
X145084000Y-108988000D01*
%TO.N,Net-(U10-VDD1_0)*%
X143925000Y-109220000D02*
X144205000Y-109500000D01*
X144205000Y-109500000D02*
X145074000Y-109500000D01*
X145074000Y-109500000D02*
X145084000Y-109490000D01*
%TO.N,Net-(U10-NRSTI)*%
X117313932Y-110494000D02*
X117389932Y-110570000D01*
X143495000Y-110675000D02*
X144132107Y-110675000D01*
X117389932Y-110570000D02*
X118470000Y-110570000D01*
X118470000Y-110570000D02*
X119350000Y-111450000D01*
X116916000Y-110494000D02*
X117313932Y-110494000D01*
X119350000Y-111450000D02*
X142720000Y-111450000D01*
X142720000Y-111450000D02*
X143495000Y-110675000D01*
X144132107Y-110675000D02*
X144307107Y-110500000D01*
X144307107Y-110500000D02*
X145078000Y-110500000D01*
X145078000Y-110500000D02*
X145084000Y-110494000D01*
%TO.N,/ASIC/0V8*%
X142610000Y-116570000D02*
X142610000Y-116040000D01*
X143450000Y-115200000D02*
X144284315Y-115200000D01*
X142610000Y-116040000D02*
X143450000Y-115200000D01*
X144284315Y-115200000D02*
X144484315Y-115000000D01*
X144484315Y-115000000D02*
X145072000Y-115000000D01*
X145072000Y-115000000D02*
X145084000Y-115012000D01*
%TO.N,Net-(U10-ROSC_SEL)*%
X145084000Y-113004000D02*
X145080000Y-113000000D01*
X145080000Y-113000000D02*
X144050000Y-113000000D01*
X143600000Y-113450000D02*
X142300000Y-113450000D01*
X144050000Y-113000000D02*
X143600000Y-113450000D01*
X142300000Y-113450000D02*
X142000000Y-113750000D01*
X142000000Y-113750000D02*
X141650000Y-113750000D01*
%TO.N,Net-(U10-LITE_PAD)*%
X141400000Y-114450000D02*
X141900000Y-114450000D01*
X141900000Y-114450000D02*
X142400000Y-113950000D01*
X143800000Y-113950000D02*
X144250000Y-113500000D01*
X142400000Y-113950000D02*
X143800000Y-113950000D01*
X144250000Y-113500000D02*
X145078000Y-113500000D01*
X145078000Y-113500000D02*
X145084000Y-113506000D01*
%TO.N,Net-(U10-INV_CLKO)*%
X141350000Y-115150000D02*
X141800000Y-115150000D01*
X141800000Y-115150000D02*
X142550000Y-114400000D01*
X142550000Y-114400000D02*
X143952944Y-114400000D01*
X143952944Y-114400000D02*
X144352944Y-114000000D01*
X145076000Y-114000000D02*
X145084000Y-114008000D01*
X144352944Y-114000000D02*
X145076000Y-114000000D01*
%TO.N,GND*%
X142920000Y-114950000D02*
X143070000Y-114800000D01*
X144418629Y-114500000D02*
X145074000Y-114500000D01*
X145074000Y-114500000D02*
X145084000Y-114510000D01*
X143070000Y-114800000D02*
X144118629Y-114800000D01*
X144118629Y-114800000D02*
X144418629Y-114500000D01*
X117740000Y-114450000D02*
X117690000Y-114450000D01*
X117740000Y-114450000D02*
X117740000Y-114480000D01*
X117690000Y-114450000D02*
X117630000Y-114510000D01*
X117630000Y-114510000D02*
X116916000Y-114510000D01*
X117740000Y-114480000D02*
X117730000Y-114490000D01*
D33*
%TO.N,/ASIC/1V2*%
X117830000Y-115630000D02*
X117825000Y-115625000D01*
X119210000Y-115850000D02*
X118990000Y-115630000D01*
D32*
X145070000Y-115500000D02*
X145084000Y-115514000D01*
D33*
X143940000Y-116560000D02*
X143940000Y-116570000D01*
D32*
X144551415Y-115500000D02*
X145070000Y-115500000D01*
D33*
X140780000Y-116720000D02*
X130430000Y-116720000D01*
X123710000Y-116710000D02*
X122850000Y-115850000D01*
X130430000Y-116720000D02*
X130420000Y-116710000D01*
D32*
X144109000Y-115601000D02*
X144450415Y-115601000D01*
D33*
X141510000Y-117450000D02*
X140780000Y-116720000D01*
D32*
X144450415Y-115601000D02*
X144551415Y-115500000D01*
X117714000Y-115514000D02*
X116916000Y-115514000D01*
D33*
X130420000Y-116710000D02*
X123710000Y-116710000D01*
D32*
X143940000Y-116560000D02*
X143830000Y-116450000D01*
X143830000Y-116450000D02*
X143830000Y-115880000D01*
D33*
X143060000Y-117450000D02*
X141510000Y-117450000D01*
X118990000Y-115630000D02*
X117830000Y-115630000D01*
D32*
X143830000Y-115880000D02*
X144109000Y-115601000D01*
X117825000Y-115625000D02*
X117714000Y-115514000D01*
D33*
X122850000Y-115850000D02*
X119210000Y-115850000D01*
X143940000Y-116570000D02*
X143060000Y-117450000D01*
D32*
%TO.N,/ASIC/0V8*%
X116928000Y-115000000D02*
X116916000Y-115012000D01*
D33*
X141071535Y-115780000D02*
X130467500Y-115780000D01*
X142610000Y-116570000D02*
X141861535Y-116570000D01*
X130467500Y-115780000D02*
X130450000Y-115762500D01*
D32*
X119700000Y-115000000D02*
X116928000Y-115000000D01*
D33*
X124062500Y-115762500D02*
X123300000Y-115000000D01*
X130450000Y-115762500D02*
X124062500Y-115762500D01*
X123300000Y-115000000D02*
X119800000Y-115000000D01*
D32*
X119750000Y-115050000D02*
X119800000Y-115000000D01*
D33*
X141861535Y-116570000D02*
X141071535Y-115780000D01*
D32*
X119750000Y-115050000D02*
X119700000Y-115000000D01*
D33*
%TO.N,/3V3*%
X130275000Y-52025000D02*
X130300000Y-52025000D01*
X130250000Y-52050000D02*
X130275000Y-52025000D01*
D32*
%TO.N,/fan/FAN_TACH*%
X128460000Y-144440000D02*
X128100600Y-144799400D01*
X128100600Y-144799400D02*
X128100600Y-146338851D01*
X134250000Y-141810000D02*
X131620000Y-144440000D01*
X131620000Y-144440000D02*
X128460000Y-144440000D01*
X134250000Y-139000000D02*
X134250000Y-141810000D01*
%TO.N,/ASIC/TEMP1_P*%
X117767944Y-113867944D02*
X117406000Y-113506000D01*
X118328858Y-113867944D02*
X117767944Y-113867944D01*
X117406000Y-113506000D02*
X116916000Y-113506000D01*
%TO.N,/ASIC/TEMP1_N*%
X116916000Y-113004000D02*
X117754000Y-113004000D01*
X117754000Y-113004000D02*
X118000000Y-113250000D01*
%TO.N,/ASIC/TEMP2_P*%
X155355635Y-114550000D02*
X155255635Y-114450000D01*
X153990314Y-113506000D02*
X152916000Y-113506000D01*
X155255635Y-114450000D02*
X154934314Y-114450000D01*
X154934314Y-114450000D02*
X153990314Y-113506000D01*
%TO.N,/ASIC/TEMP2_N*%
X154054000Y-113004000D02*
X152916000Y-113004000D01*
X155050000Y-114000000D02*
X154054000Y-113004000D01*
X155610223Y-114026770D02*
X155583453Y-114000000D01*
X155820645Y-114026770D02*
X155610223Y-114026770D01*
X155583453Y-114000000D02*
X155050000Y-114000000D01*
%TO.N,/fan/FAN_PWM*%
X130910000Y-143940000D02*
X126480000Y-143940000D01*
X131430000Y-141810000D02*
X131430000Y-143420000D01*
X126480000Y-143940000D02*
X125560600Y-144859400D01*
X131430000Y-143420000D02*
X130910000Y-143940000D01*
X125560600Y-144859400D02*
X125560600Y-146338851D01*
%TO.N,/ASIC/RX_1V2*%
X104150000Y-111850000D02*
X102500000Y-113500000D01*
X102500000Y-113500000D02*
X102500000Y-117700000D01*
X107400000Y-111850000D02*
X104150000Y-111850000D01*
X102500000Y-117700000D02*
X106000000Y-121200000D01*
X109084000Y-111498000D02*
X107752000Y-111498000D01*
X107752000Y-111498000D02*
X107400000Y-111850000D01*
%TO.N,/ASIC/CLKI*%
X107950000Y-112000000D02*
X107600000Y-112350000D01*
X109084000Y-112000000D02*
X107950000Y-112000000D01*
X106400000Y-112350000D02*
X106200000Y-112550000D01*
X107600000Y-112350000D02*
X106400000Y-112350000D01*
%TO.N,/ASIC/BI*%
X108116629Y-112502000D02*
X107718629Y-112900000D01*
X105819553Y-113100000D02*
X105420352Y-112700799D01*
X109084000Y-112502000D02*
X108116629Y-112502000D01*
X106684315Y-112900000D02*
X106484315Y-113100000D01*
X106484315Y-113100000D02*
X105819553Y-113100000D01*
X107718629Y-112900000D02*
X106684315Y-112900000D01*
%TO.N,/ASIC/RST_1V2*%
X108332107Y-110575000D02*
X107502818Y-110575000D01*
X101400000Y-118300000D02*
X104700000Y-121600000D01*
X107127818Y-110950000D02*
X103750000Y-110950000D01*
X108413107Y-110494000D02*
X108332107Y-110575000D01*
X104688492Y-121611508D02*
X104675382Y-121611508D01*
X104700000Y-121600000D02*
X104688492Y-121611508D01*
X101400000Y-113300000D02*
X101400000Y-118300000D01*
X107502818Y-110575000D02*
X107127818Y-110950000D01*
X109084000Y-110494000D02*
X108413107Y-110494000D01*
X103750000Y-110950000D02*
X101400000Y-113300000D01*
%TO.N,/ASIC/TX_1V2*%
X105400000Y-121300000D02*
X105384920Y-121315080D01*
X109084000Y-110996000D02*
X107654000Y-110996000D01*
X104000000Y-111400000D02*
X101900000Y-113500000D01*
X105384920Y-121315080D02*
X105309522Y-121315080D01*
X107654000Y-110996000D02*
X107250000Y-111400000D01*
X101900000Y-117800000D02*
X105400000Y-121300000D01*
X101900000Y-113500000D02*
X101900000Y-117800000D01*
X107250000Y-111400000D02*
X104000000Y-111400000D01*
%TO.N,Net-(U9-VDD1_0)*%
X108420000Y-109490000D02*
X109084000Y-109490000D01*
X108025000Y-109275000D02*
X108205000Y-109275000D01*
X108205000Y-109275000D02*
X108420000Y-109490000D01*
%TO.N,Net-(U9-VDD2_0)*%
X108125000Y-108255000D02*
X108125000Y-108475000D01*
X108638000Y-108988000D02*
X109084000Y-108988000D01*
X108125000Y-108475000D02*
X108638000Y-108988000D01*
%TO.N,Net-(U9-VDD3_0)*%
X109200000Y-107580000D02*
X109200000Y-108370000D01*
X109480000Y-107340000D02*
X109440000Y-107340000D01*
X109440000Y-107340000D02*
X109200000Y-107580000D01*
X109200000Y-108370000D02*
X109084000Y-108486000D01*
%TO.N,Net-(U9-LITE_PAD)*%
X108244000Y-113506000D02*
X108050000Y-113700000D01*
X106800000Y-114050000D02*
X105550000Y-114050000D01*
X107150000Y-113700000D02*
X106800000Y-114050000D01*
X108050000Y-113700000D02*
X107150000Y-113700000D01*
X109084000Y-113506000D02*
X108244000Y-113506000D01*
%TO.N,Net-(U9-ROSC_SEL)*%
X107884315Y-113300000D02*
X106850000Y-113300000D01*
X108180315Y-113004000D02*
X107884315Y-113300000D01*
X104100000Y-114600000D02*
X104100000Y-114950000D01*
X109084000Y-113004000D02*
X108180315Y-113004000D01*
X105200000Y-113500000D02*
X104100000Y-114600000D01*
X106850000Y-113300000D02*
X106650000Y-113500000D01*
X106650000Y-113500000D02*
X105200000Y-113500000D01*
%TO.N,Net-(U9-INV_CLKO)*%
X108379628Y-114008000D02*
X109084000Y-114008000D01*
X107600000Y-114200000D02*
X108187628Y-114200000D01*
X108187628Y-114200000D02*
X108379628Y-114008000D01*
X106000000Y-114850000D02*
X106950000Y-114850000D01*
X106950000Y-114850000D02*
X107600000Y-114200000D01*
%TO.N,Net-(U10-VDD3_0)*%
X116820000Y-107630000D02*
X116820000Y-108390000D01*
X116640000Y-107450000D02*
X116820000Y-107630000D01*
X116820000Y-108390000D02*
X116916000Y-108486000D01*
X116640000Y-107350000D02*
X116640000Y-107450000D01*
%TO.N,Net-(U10-VDD2_0)*%
X117750000Y-108650000D02*
X117412000Y-108988000D01*
X117412000Y-108988000D02*
X116916000Y-108988000D01*
X117750000Y-108280000D02*
X117750000Y-108650000D01*
%TO.N,Net-(U10-VDD3_1)*%
X152730000Y-107290000D02*
X152730000Y-107330000D01*
X152840000Y-108410000D02*
X152916000Y-108486000D01*
X152840000Y-107440000D02*
X152840000Y-108410000D01*
X152730000Y-107330000D02*
X152840000Y-107440000D01*
%TO.N,Net-(U10-VDD2_1)*%
X153412000Y-108988000D02*
X152916000Y-108988000D01*
X154050000Y-108255000D02*
X154050000Y-108350000D01*
X154050000Y-108350000D02*
X153412000Y-108988000D01*
%TO.N,/ASIC/0V8_1*%
X108507000Y-115012000D02*
X108169000Y-115350000D01*
X109084000Y-115012000D02*
X108507000Y-115012000D01*
X106500000Y-115350000D02*
X106050000Y-115800000D01*
X108169000Y-115350000D02*
X106500000Y-115350000D01*
%TO.N,/ASIC/1V2_1*%
X107630000Y-115820000D02*
X107550000Y-115900000D01*
X108330000Y-115820000D02*
X107630000Y-115820000D01*
X109084000Y-115514000D02*
X108636000Y-115514000D01*
X108636000Y-115514000D02*
X108330000Y-115820000D01*
%TO.N,Net-(U10-RO)*%
X118257314Y-111498000D02*
X119009314Y-112250000D01*
X143833372Y-111498000D02*
X145084000Y-111498000D01*
X119009314Y-112250000D02*
X143081372Y-112250000D01*
X116916000Y-111498000D02*
X118257314Y-111498000D01*
X143081372Y-112250000D02*
X143833372Y-111498000D01*
%TO.N,Net-(U10-BI)*%
X118650000Y-113050000D02*
X118102000Y-112502000D01*
X135900000Y-113050000D02*
X118650000Y-113050000D01*
X143415686Y-113050000D02*
X143963686Y-112502000D01*
X136500000Y-113050000D02*
X143415686Y-113050000D01*
X118102000Y-112502000D02*
X116916000Y-112502000D01*
X136200000Y-113350000D02*
X135900000Y-113050000D01*
X143963686Y-112502000D02*
X145084000Y-112502000D01*
X136200000Y-113350000D02*
X136500000Y-113050000D01*
%TO.N,Net-(U10-RI)*%
X157250000Y-113350000D02*
X157250000Y-115438909D01*
X154266628Y-111498000D02*
X155368628Y-112600000D01*
X152916000Y-111498000D02*
X154266628Y-111498000D01*
X156500000Y-112600000D02*
X157250000Y-113350000D01*
X157250000Y-115438909D02*
X157700000Y-115888909D01*
X155368628Y-112600000D02*
X156500000Y-112600000D01*
X157700000Y-115888909D02*
X157700000Y-115900000D01*
%TO.N,/Power/SCL_VR*%
X151870000Y-73150000D02*
X151820000Y-73200000D01*
X151870000Y-73150000D02*
X158450000Y-73150000D01*
X151820000Y-73200000D02*
X150240000Y-73200000D01*
X158450000Y-73150000D02*
X161460000Y-70140000D01*
X161460000Y-70140000D02*
X161460000Y-69180000D01*
%TO.N,/Power/ALRT_VR*%
X130350000Y-65490000D02*
X126630000Y-61770000D01*
X150460000Y-69190000D02*
X146760000Y-65490000D01*
X146760000Y-65490000D02*
X130350000Y-65490000D01*
X153260000Y-69190000D02*
X154930000Y-69190000D01*
X153260000Y-69190000D02*
X150460000Y-69190000D01*
X153260000Y-69190000D02*
X153270000Y-69180000D01*
X126630000Y-61770000D02*
X125990000Y-61770000D01*
%TO.N,/Power/SDA_VR*%
X153310000Y-72390000D02*
X153295000Y-72375000D01*
X156659943Y-72390000D02*
X158200000Y-70849943D01*
X153295000Y-72375000D02*
X151130000Y-72375000D01*
X158200000Y-70849943D02*
X158200000Y-69180000D01*
X156659943Y-72390000D02*
X153310000Y-72390000D01*
%TO.N,GND*%
X108443314Y-114510000D02*
X108353314Y-114600000D01*
X108353314Y-114600000D02*
X108000000Y-114600000D01*
X109084000Y-114510000D02*
X108443314Y-114510000D01*
X108000000Y-114600000D02*
X107850000Y-114750000D01*
X153800000Y-114500000D02*
X153803248Y-114496752D01*
X153803248Y-114496752D02*
X153803248Y-114396752D01*
X118030000Y-45970000D02*
X118030000Y-45065000D01*
%TO.N,Net-(U10-CI)*%
X116920000Y-111000000D02*
X118334314Y-111000000D01*
X142915686Y-111850000D02*
X143690686Y-111075000D01*
X144564000Y-110996000D02*
X145084000Y-110996000D01*
X143690686Y-111075000D02*
X144485000Y-111075000D01*
X119184314Y-111850000D02*
X142915686Y-111850000D01*
X144485000Y-111075000D02*
X144564000Y-110996000D01*
X118334314Y-111000000D02*
X119184314Y-111850000D01*
X116916000Y-110996000D02*
X116920000Y-111000000D01*
%TO.N,Net-(U10-BO)*%
X157200000Y-116900000D02*
X157200000Y-118227818D01*
X154139256Y-112502000D02*
X155037256Y-113400000D01*
X156450000Y-116150000D02*
X157200000Y-116900000D01*
X157650000Y-118677818D02*
X157650000Y-120050000D01*
X155037256Y-113400000D02*
X156100000Y-113400000D01*
X152916000Y-112502000D02*
X154139256Y-112502000D01*
X156100000Y-113400000D02*
X156450000Y-113750000D01*
X157200000Y-118227818D02*
X157650000Y-118677818D01*
X156450000Y-113750000D02*
X156450000Y-116150000D01*
%TO.N,Net-(U10-CLKO)*%
X154202942Y-112000000D02*
X152916000Y-112000000D01*
X155202942Y-113000000D02*
X154202942Y-112000000D01*
X157750000Y-118000000D02*
X157750000Y-116775000D01*
X156300000Y-113000000D02*
X155202942Y-113000000D01*
X157750000Y-116775000D02*
X156850000Y-115875000D01*
X156850000Y-113550000D02*
X156300000Y-113000000D01*
X156850000Y-115875000D02*
X156850000Y-113550000D01*
%TO.N,Net-(U10-CO)*%
X154421814Y-111087500D02*
X155534314Y-112200000D01*
X153576000Y-110996000D02*
X153580000Y-111000000D01*
X152916000Y-110996000D02*
X153576000Y-110996000D01*
X153797500Y-111087500D02*
X154421814Y-111087500D01*
X157800000Y-113300000D02*
X157800000Y-113850000D01*
X153580000Y-111000000D02*
X153710000Y-111000000D01*
X153710000Y-111000000D02*
X153797500Y-111087500D01*
X156700000Y-112200000D02*
X157800000Y-113300000D01*
X155534314Y-112200000D02*
X156700000Y-112200000D01*
%TO.N,Net-(U10-CLKI)*%
X116916000Y-112000000D02*
X118193628Y-112000000D01*
X143900000Y-112000000D02*
X145084000Y-112000000D01*
X118843628Y-112650000D02*
X143250000Y-112650000D01*
X118193628Y-112000000D02*
X118843628Y-112650000D01*
X143250000Y-112650000D02*
X143900000Y-112000000D01*
%TD*%
%TA.AperFunction,Conductor*%
%TO.N,GND*%
G36*
X157301165Y-51259685D02*
G01*
X157325308Y-51279965D01*
X158379419Y-52423728D01*
X158410377Y-52486364D01*
X158412237Y-52507762D01*
X158412237Y-56491756D01*
X158392552Y-56558795D01*
X158374111Y-56581208D01*
X157318947Y-57594166D01*
X157256953Y-57626393D01*
X157233231Y-57628714D01*
X148291084Y-57640123D01*
X148224020Y-57620524D01*
X148200613Y-57601092D01*
X147113783Y-56445907D01*
X147082183Y-56383591D01*
X147080096Y-56360696D01*
X147087881Y-52363947D01*
X147107696Y-52296950D01*
X147127498Y-52273334D01*
X148204636Y-51273133D01*
X148267157Y-51241941D01*
X148289012Y-51240000D01*
X157234126Y-51240000D01*
X157301165Y-51259685D01*
G37*
%TD.AperFunction*%
%TD*%
%TA.AperFunction,Conductor*%
%TO.N,/12V*%
G36*
X157539601Y-58369973D02*
G01*
X157563173Y-58389458D01*
X158255470Y-59120216D01*
X158287799Y-59183424D01*
X158290000Y-59206871D01*
X158290000Y-63217908D01*
X158269998Y-63286029D01*
X158250656Y-63309378D01*
X157304782Y-64205470D01*
X157241573Y-64237799D01*
X157218126Y-64240000D01*
X143210148Y-64240000D01*
X143142027Y-64219998D01*
X143121053Y-64203095D01*
X142296905Y-63378947D01*
X142262879Y-63316635D01*
X142260000Y-63289852D01*
X142260000Y-59330151D01*
X142280002Y-59262030D01*
X142296808Y-59241151D01*
X143119167Y-58417063D01*
X143181440Y-58382975D01*
X143208082Y-58380067D01*
X157471438Y-58350114D01*
X157539601Y-58369973D01*
G37*
%TD.AperFunction*%
%TD*%
%TA.AperFunction,Conductor*%
%TO.N,GND*%
G36*
X114927373Y-82015795D02*
G01*
X114994371Y-82035610D01*
X115040022Y-82088504D01*
X115046647Y-82111658D01*
X115047397Y-82111458D01*
X115049500Y-82119306D01*
X115049500Y-82119309D01*
X115080201Y-82233886D01*
X115139511Y-82336613D01*
X115223387Y-82420489D01*
X115241707Y-82431066D01*
X115289921Y-82481630D01*
X115303145Y-82550237D01*
X115277178Y-82615102D01*
X115241708Y-82645838D01*
X115183390Y-82679509D01*
X115183384Y-82679513D01*
X115099513Y-82763384D01*
X115099511Y-82763387D01*
X115040201Y-82866114D01*
X115009500Y-82980691D01*
X115009500Y-83099309D01*
X115040201Y-83213886D01*
X115099511Y-83316613D01*
X115183387Y-83400489D01*
X115286114Y-83459799D01*
X115400691Y-83490500D01*
X115400694Y-83490500D01*
X115519306Y-83490500D01*
X115519309Y-83490500D01*
X115633886Y-83459799D01*
X115736613Y-83400489D01*
X115820489Y-83316613D01*
X115879799Y-83213886D01*
X115910500Y-83099309D01*
X115910500Y-82980691D01*
X115879799Y-82866114D01*
X115836253Y-82790691D01*
X125877317Y-82790691D01*
X125877317Y-82909309D01*
X125908018Y-83023886D01*
X125967328Y-83126613D01*
X126051204Y-83210489D01*
X126153931Y-83269799D01*
X126268508Y-83300500D01*
X126268511Y-83300500D01*
X126387123Y-83300500D01*
X126387126Y-83300500D01*
X126501703Y-83269799D01*
X126604430Y-83210489D01*
X126688306Y-83126613D01*
X126747616Y-83023886D01*
X126778317Y-82909309D01*
X126778317Y-82790691D01*
X126747616Y-82676114D01*
X126688306Y-82573387D01*
X126604430Y-82489511D01*
X126501703Y-82430201D01*
X126387126Y-82399500D01*
X126268508Y-82399500D01*
X126153931Y-82430201D01*
X126153929Y-82430201D01*
X126153929Y-82430202D01*
X126051204Y-82489511D01*
X126051201Y-82489513D01*
X125967330Y-82573384D01*
X125967328Y-82573387D01*
X125941359Y-82618367D01*
X125908018Y-82676114D01*
X125877317Y-82790691D01*
X115836253Y-82790691D01*
X115820489Y-82763387D01*
X115736613Y-82679511D01*
X115718292Y-82668933D01*
X115670077Y-82618367D01*
X115656854Y-82549760D01*
X115682822Y-82484895D01*
X115718291Y-82454161D01*
X115776613Y-82420489D01*
X115860489Y-82336613D01*
X115919799Y-82233886D01*
X115950500Y-82119309D01*
X115950500Y-82119306D01*
X115952603Y-82111458D01*
X115955648Y-82112273D01*
X115977895Y-82061969D01*
X116036214Y-82023491D01*
X116072812Y-82018040D01*
X121923342Y-82029506D01*
X121985098Y-82046119D01*
X122026110Y-82069797D01*
X122026111Y-82069797D01*
X122026114Y-82069799D01*
X122140691Y-82100500D01*
X122140694Y-82100500D01*
X122259307Y-82100500D01*
X122259309Y-82100500D01*
X122373886Y-82069799D01*
X122413026Y-82047201D01*
X122475264Y-82030588D01*
X132361450Y-82049963D01*
X132428448Y-82069779D01*
X132453435Y-82091082D01*
X132927228Y-82618367D01*
X132968249Y-82664019D01*
X132998414Y-82727042D01*
X133000014Y-82746627D01*
X133007388Y-86132635D01*
X132987849Y-86199717D01*
X132971248Y-86220407D01*
X131898249Y-87297803D01*
X131836995Y-87331413D01*
X131810626Y-87334301D01*
X125613481Y-87346148D01*
X125613479Y-87346149D01*
X124810001Y-88151166D01*
X124810000Y-88151169D01*
X124810000Y-97120825D01*
X124790315Y-97187864D01*
X124776297Y-97205810D01*
X124018485Y-98010985D01*
X123958204Y-98046312D01*
X123928188Y-98050000D01*
X107938264Y-98050000D01*
X107871225Y-98030315D01*
X107857854Y-98020394D01*
X107038590Y-97322502D01*
X107000322Y-97264045D01*
X106995000Y-97228108D01*
X106995000Y-90448147D01*
X107014685Y-90381108D01*
X107067489Y-90335353D01*
X107082990Y-90329491D01*
X107180705Y-90299850D01*
X107498462Y-90168231D01*
X107801787Y-90006100D01*
X108087760Y-89815019D01*
X108353627Y-89596828D01*
X108596828Y-89353627D01*
X108815019Y-89087760D01*
X109006100Y-88801787D01*
X109168231Y-88498462D01*
X109299850Y-88180705D01*
X109399690Y-87851578D01*
X109466789Y-87514250D01*
X109497671Y-87200691D01*
X111139500Y-87200691D01*
X111139500Y-87319309D01*
X111146692Y-87346148D01*
X111170202Y-87433889D01*
X111207217Y-87498000D01*
X111223690Y-87565900D01*
X111207217Y-87622000D01*
X111170202Y-87686110D01*
X111170201Y-87686114D01*
X111139500Y-87800691D01*
X111139500Y-87919309D01*
X111170201Y-88033886D01*
X111170202Y-88033889D01*
X111207217Y-88098000D01*
X111223690Y-88165900D01*
X111207217Y-88222000D01*
X111170202Y-88286110D01*
X111170201Y-88286114D01*
X111139500Y-88400691D01*
X111139500Y-88519309D01*
X111170201Y-88633886D01*
X111170202Y-88633889D01*
X111207217Y-88698000D01*
X111223690Y-88765900D01*
X111207217Y-88822000D01*
X111170202Y-88886110D01*
X111170201Y-88886114D01*
X111139500Y-89000691D01*
X111139500Y-89119309D01*
X111170201Y-89233886D01*
X111229511Y-89336613D01*
X111313387Y-89420489D01*
X111416114Y-89479799D01*
X111530691Y-89510500D01*
X111530694Y-89510500D01*
X111649306Y-89510500D01*
X111649309Y-89510500D01*
X111763886Y-89479799D01*
X111841660Y-89434895D01*
X111909558Y-89418422D01*
X111965659Y-89434895D01*
X112026114Y-89469799D01*
X112140691Y-89500500D01*
X112140694Y-89500500D01*
X112259306Y-89500500D01*
X112259309Y-89500500D01*
X112373886Y-89469799D01*
X112437999Y-89432782D01*
X112505898Y-89416309D01*
X112561999Y-89432782D01*
X112626114Y-89469799D01*
X112740691Y-89500500D01*
X112740694Y-89500500D01*
X112859306Y-89500500D01*
X112859309Y-89500500D01*
X112973886Y-89469799D01*
X113029340Y-89437782D01*
X113097236Y-89421309D01*
X113153338Y-89437781D01*
X113226114Y-89479799D01*
X113340691Y-89510500D01*
X113340694Y-89510500D01*
X113459306Y-89510500D01*
X113459309Y-89510500D01*
X113573886Y-89479799D01*
X113676613Y-89420489D01*
X113760489Y-89336613D01*
X113819799Y-89233886D01*
X113850500Y-89119309D01*
X113850500Y-89000691D01*
X113819799Y-88886114D01*
X113782782Y-88822000D01*
X113766309Y-88754102D01*
X113782782Y-88698000D01*
X113819799Y-88633886D01*
X113850500Y-88519309D01*
X113850500Y-88400691D01*
X113819799Y-88286114D01*
X113782782Y-88222000D01*
X113766309Y-88154102D01*
X113782782Y-88098000D01*
X113819799Y-88033886D01*
X113850500Y-87919309D01*
X113850500Y-87800691D01*
X113819799Y-87686114D01*
X113782782Y-87622000D01*
X113766309Y-87554102D01*
X113782782Y-87498000D01*
X113819799Y-87433886D01*
X113850500Y-87319309D01*
X113850500Y-87200691D01*
X113819799Y-87086114D01*
X113760489Y-86983387D01*
X113676613Y-86899511D01*
X113573886Y-86840201D01*
X113459309Y-86809500D01*
X113340691Y-86809500D01*
X113263431Y-86830202D01*
X113226110Y-86840202D01*
X113170660Y-86872217D01*
X113102760Y-86888690D01*
X113046659Y-86872217D01*
X113037999Y-86867217D01*
X112973886Y-86830201D01*
X112859309Y-86799500D01*
X112740691Y-86799500D01*
X112635505Y-86827684D01*
X112626110Y-86830202D01*
X112562000Y-86867217D01*
X112494100Y-86883690D01*
X112438000Y-86867217D01*
X112373889Y-86830202D01*
X112373890Y-86830202D01*
X112364494Y-86827684D01*
X112259309Y-86799500D01*
X112140691Y-86799500D01*
X112035505Y-86827684D01*
X112026110Y-86830202D01*
X111948339Y-86875104D01*
X111880439Y-86891577D01*
X111824338Y-86875103D01*
X111763891Y-86840203D01*
X111763890Y-86840202D01*
X111726569Y-86830202D01*
X111649309Y-86809500D01*
X111530691Y-86809500D01*
X111416114Y-86840201D01*
X111416112Y-86840201D01*
X111416112Y-86840202D01*
X111313387Y-86899511D01*
X111313384Y-86899513D01*
X111229513Y-86983384D01*
X111229511Y-86983387D01*
X111170201Y-87086114D01*
X111139500Y-87200691D01*
X109497671Y-87200691D01*
X109500500Y-87171969D01*
X109500500Y-86828031D01*
X109466789Y-86485750D01*
X109399690Y-86148422D01*
X109376110Y-86070691D01*
X114619500Y-86070691D01*
X114619500Y-86189309D01*
X114650201Y-86303886D01*
X114709511Y-86406613D01*
X114793387Y-86490489D01*
X114896114Y-86549799D01*
X115010691Y-86580500D01*
X115010694Y-86580500D01*
X115129306Y-86580500D01*
X115129309Y-86580500D01*
X115243886Y-86549799D01*
X115346613Y-86490489D01*
X115430489Y-86406613D01*
X115489799Y-86303886D01*
X115520500Y-86189309D01*
X115520500Y-86070691D01*
X115489799Y-85956114D01*
X115430489Y-85853387D01*
X115357793Y-85780691D01*
X125539500Y-85780691D01*
X125539500Y-85899309D01*
X125570201Y-86013886D01*
X125629511Y-86116613D01*
X125713387Y-86200489D01*
X125816114Y-86259799D01*
X125930691Y-86290500D01*
X125930694Y-86290500D01*
X126049306Y-86290500D01*
X126049309Y-86290500D01*
X126163886Y-86259799D01*
X126266613Y-86200489D01*
X126350489Y-86116613D01*
X126409799Y-86013886D01*
X126440500Y-85899309D01*
X126440500Y-85780691D01*
X126409799Y-85666114D01*
X126350489Y-85563387D01*
X126266613Y-85479511D01*
X126163886Y-85420201D01*
X126049309Y-85389500D01*
X125930691Y-85389500D01*
X125816114Y-85420201D01*
X125816112Y-85420201D01*
X125816112Y-85420202D01*
X125713387Y-85479511D01*
X125713384Y-85479513D01*
X125629513Y-85563384D01*
X125629511Y-85563387D01*
X125570201Y-85666114D01*
X125539500Y-85780691D01*
X115357793Y-85780691D01*
X115346613Y-85769511D01*
X115341403Y-85766503D01*
X115331396Y-85756698D01*
X115317849Y-85732480D01*
X115301487Y-85710070D01*
X115301031Y-85702412D01*
X115297287Y-85695719D01*
X115298983Y-85668023D01*
X115297335Y-85640324D01*
X115301090Y-85633636D01*
X115301560Y-85625981D01*
X115317962Y-85603596D01*
X115331550Y-85579405D01*
X115340860Y-85572349D01*
X115342858Y-85569623D01*
X115346106Y-85568373D01*
X115356183Y-85560737D01*
X115356613Y-85560489D01*
X115440489Y-85476613D01*
X115499799Y-85373886D01*
X115530500Y-85259309D01*
X115530500Y-85140691D01*
X115499799Y-85026114D01*
X115440489Y-84923387D01*
X115356613Y-84839511D01*
X115253886Y-84780201D01*
X115139309Y-84749500D01*
X115020691Y-84749500D01*
X114906114Y-84780201D01*
X114906112Y-84780201D01*
X114906112Y-84780202D01*
X114803387Y-84839511D01*
X114803384Y-84839513D01*
X114719513Y-84923384D01*
X114719511Y-84923387D01*
X114660201Y-85026114D01*
X114629500Y-85140691D01*
X114629500Y-85259309D01*
X114660201Y-85373886D01*
X114719511Y-85476613D01*
X114803387Y-85560489D01*
X114803389Y-85560490D01*
X114807310Y-85563499D01*
X114848511Y-85619928D01*
X114852664Y-85689674D01*
X114818451Y-85750593D01*
X114793826Y-85769257D01*
X114793393Y-85769506D01*
X114793384Y-85769513D01*
X114709513Y-85853384D01*
X114709511Y-85853387D01*
X114650201Y-85956114D01*
X114619500Y-86070691D01*
X109376110Y-86070691D01*
X109299850Y-85819295D01*
X109168231Y-85501538D01*
X109156458Y-85479513D01*
X109006106Y-85198224D01*
X109006105Y-85198222D01*
X109006100Y-85198213D01*
X108815019Y-84912240D01*
X108596828Y-84646373D01*
X108596827Y-84646372D01*
X108596823Y-84646367D01*
X108353632Y-84403176D01*
X108087765Y-84184985D01*
X108087764Y-84184984D01*
X108087760Y-84184981D01*
X107801787Y-83993900D01*
X107801782Y-83993897D01*
X107801775Y-83993893D01*
X107498469Y-83831772D01*
X107498464Y-83831770D01*
X107180700Y-83700148D01*
X107083004Y-83670511D01*
X107024565Y-83632213D01*
X106996109Y-83568401D01*
X106995000Y-83551851D01*
X106995000Y-82997395D01*
X107014685Y-82930356D01*
X107022576Y-82919431D01*
X107727341Y-82047901D01*
X107784800Y-82008152D01*
X107824000Y-82001873D01*
X114927373Y-82015795D01*
G37*
%TD.AperFunction*%
%TD*%
%TA.AperFunction,Conductor*%
%TO.N,/Power/SW2*%
G36*
X131875957Y-87760544D02*
G01*
X131896925Y-87777505D01*
X132982768Y-88871508D01*
X133016023Y-88932955D01*
X133018759Y-88958859D01*
X133018759Y-97016716D01*
X132999074Y-97083755D01*
X132985055Y-97101702D01*
X132024913Y-98121845D01*
X131964633Y-98157171D01*
X131934617Y-98160859D01*
X126191650Y-98160859D01*
X126124611Y-98141174D01*
X126101500Y-98122000D01*
X125272609Y-97244351D01*
X125240889Y-97182097D01*
X125238759Y-97159210D01*
X125238759Y-88417669D01*
X125258444Y-88350630D01*
X125275078Y-88329988D01*
X125827888Y-87777178D01*
X125889211Y-87743693D01*
X125915569Y-87740859D01*
X131808918Y-87740859D01*
X131875957Y-87760544D01*
G37*
%TD.AperFunction*%
%TD*%
%TA.AperFunction,Conductor*%
%TO.N,/Power/SW1*%
G36*
X152509067Y-87853309D02*
G01*
X152576073Y-87873099D01*
X152621745Y-87925975D01*
X152627530Y-87941313D01*
X152700148Y-88180700D01*
X152831770Y-88498464D01*
X152831772Y-88498469D01*
X152993893Y-88801775D01*
X152993904Y-88801793D01*
X153184975Y-89087751D01*
X153184985Y-89087765D01*
X153403176Y-89353632D01*
X153646367Y-89596823D01*
X153646372Y-89596827D01*
X153646373Y-89596828D01*
X153912240Y-89815019D01*
X154198213Y-90006100D01*
X154198222Y-90006105D01*
X154198224Y-90006106D01*
X154501530Y-90168227D01*
X154501532Y-90168227D01*
X154501538Y-90168231D01*
X154819295Y-90299850D01*
X155148422Y-90399690D01*
X155485750Y-90466789D01*
X155828031Y-90500500D01*
X155828034Y-90500500D01*
X156171966Y-90500500D01*
X156171969Y-90500500D01*
X156514250Y-90466789D01*
X156851578Y-90399690D01*
X157180705Y-90299850D01*
X157478550Y-90176478D01*
X157548016Y-90169010D01*
X157610496Y-90200285D01*
X157646148Y-90260374D01*
X157650000Y-90291040D01*
X157650000Y-97364240D01*
X157630315Y-97431279D01*
X157613191Y-97452409D01*
X156944013Y-98114169D01*
X156882504Y-98147311D01*
X156856822Y-98150000D01*
X150514561Y-98150000D01*
X150447522Y-98130315D01*
X150412976Y-98097109D01*
X149772436Y-97182051D01*
X149750118Y-97115842D01*
X149750021Y-97110875D01*
X149753629Y-90399691D01*
X149754623Y-88550091D01*
X149774344Y-88483064D01*
X149790962Y-88462457D01*
X150367357Y-87886373D01*
X150428686Y-87852907D01*
X150455198Y-87850080D01*
X152509067Y-87853309D01*
G37*
%TD.AperFunction*%
%TD*%
%TA.AperFunction,Conductor*%
%TO.N,/Vcore*%
G36*
X156946284Y-98870079D02*
G01*
X156965300Y-98885103D01*
X157607011Y-99503045D01*
X157641647Y-99563726D01*
X157645000Y-99592365D01*
X157645000Y-105884239D01*
X157625315Y-105951278D01*
X157607733Y-105972858D01*
X156849847Y-106714619D01*
X156788168Y-106747443D01*
X156763114Y-106750000D01*
X153400000Y-106750000D01*
X153310500Y-106839500D01*
X153201231Y-106948768D01*
X153139908Y-106982252D01*
X153070216Y-106977268D01*
X153025869Y-106948767D01*
X153006615Y-106929513D01*
X153006613Y-106929511D01*
X152903886Y-106870201D01*
X152789309Y-106839500D01*
X152670691Y-106839500D01*
X152556114Y-106870201D01*
X152556112Y-106870201D01*
X152556112Y-106870202D01*
X152453387Y-106929511D01*
X152453384Y-106929513D01*
X152369513Y-107013384D01*
X152369511Y-107013387D01*
X152311885Y-107113198D01*
X152310201Y-107116114D01*
X152279500Y-107230691D01*
X152279500Y-107349309D01*
X152310201Y-107463886D01*
X152369511Y-107566613D01*
X152369513Y-107566615D01*
X152388767Y-107585869D01*
X152422252Y-107647192D01*
X152417268Y-107716884D01*
X152388768Y-107761231D01*
X152150000Y-108000000D01*
X152150000Y-109851000D01*
X152130315Y-109918039D01*
X152077511Y-109963794D01*
X152026000Y-109975000D01*
X145974000Y-109975000D01*
X145906961Y-109955315D01*
X145861206Y-109902511D01*
X145850000Y-109851000D01*
X145850000Y-108000000D01*
X145661232Y-107811232D01*
X145627747Y-107749909D01*
X145632731Y-107680217D01*
X145661232Y-107635870D01*
X145680490Y-107616612D01*
X145720489Y-107576613D01*
X145779799Y-107473886D01*
X145810500Y-107359309D01*
X145810500Y-107240691D01*
X145779799Y-107126114D01*
X145720489Y-107023387D01*
X145636613Y-106939511D01*
X145533886Y-106880201D01*
X145419309Y-106849500D01*
X145300691Y-106849500D01*
X145186114Y-106880201D01*
X145186112Y-106880201D01*
X145186112Y-106880202D01*
X145083387Y-106939511D01*
X145083384Y-106939513D01*
X145009217Y-107013681D01*
X144947894Y-107047166D01*
X144921536Y-107050000D01*
X142849999Y-107050000D01*
X140986319Y-108913681D01*
X140924996Y-108947166D01*
X140898638Y-108950000D01*
X120801362Y-108950000D01*
X120734323Y-108930315D01*
X120713681Y-108913681D01*
X118850000Y-107050000D01*
X117100000Y-107050000D01*
X117099999Y-107050000D01*
X117089644Y-107054289D01*
X117020175Y-107061758D01*
X116957696Y-107030482D01*
X116954511Y-107027409D01*
X116916615Y-106989513D01*
X116916613Y-106989511D01*
X116813886Y-106930201D01*
X116699309Y-106899500D01*
X116580691Y-106899500D01*
X116466114Y-106930201D01*
X116466112Y-106930201D01*
X116466112Y-106930202D01*
X116363387Y-106989511D01*
X116363384Y-106989513D01*
X116279513Y-107073384D01*
X116279511Y-107073387D01*
X116225975Y-107166114D01*
X116220201Y-107176114D01*
X116189500Y-107290691D01*
X116189500Y-107409309D01*
X116220201Y-107523886D01*
X116279511Y-107626613D01*
X116279513Y-107626615D01*
X116313767Y-107660869D01*
X116347252Y-107722192D01*
X116342268Y-107791884D01*
X116313768Y-107836231D01*
X116150000Y-108000000D01*
X116150000Y-109876000D01*
X116130315Y-109943039D01*
X116077511Y-109988794D01*
X116026000Y-110000000D01*
X109974000Y-110000000D01*
X109906961Y-109980315D01*
X109861206Y-109927511D01*
X109850000Y-109876000D01*
X109850000Y-108000000D01*
X109739963Y-107889963D01*
X109706478Y-107828640D01*
X109711462Y-107758948D01*
X109752164Y-107703901D01*
X109756601Y-107700495D01*
X109756613Y-107700489D01*
X109840489Y-107616613D01*
X109899799Y-107513886D01*
X109930500Y-107399309D01*
X109930500Y-107280691D01*
X109899799Y-107166114D01*
X109840489Y-107063387D01*
X109756613Y-106979511D01*
X109653886Y-106920201D01*
X109539309Y-106889500D01*
X109420691Y-106889500D01*
X109306114Y-106920201D01*
X109306112Y-106920201D01*
X109306112Y-106920202D01*
X109203387Y-106979511D01*
X109203384Y-106979513D01*
X109119510Y-107063387D01*
X109116090Y-107067845D01*
X109059661Y-107109046D01*
X108989915Y-107113198D01*
X108930036Y-107080036D01*
X108150000Y-106300000D01*
X107627915Y-106300000D01*
X107560876Y-106280315D01*
X107538388Y-106261796D01*
X107034473Y-105735971D01*
X107002301Y-105673950D01*
X107000000Y-105650175D01*
X107000000Y-99947599D01*
X107019685Y-99880560D01*
X107034204Y-99862085D01*
X107941365Y-98909566D01*
X108001850Y-98874598D01*
X108031098Y-98871085D01*
X156879237Y-98850423D01*
X156946284Y-98870079D01*
G37*
%TD.AperFunction*%
%TD*%
%TA.AperFunction,Conductor*%
%TO.N,GND*%
G36*
X157031370Y-82029657D02*
G01*
X157057095Y-82051568D01*
X157394375Y-82429511D01*
X157639841Y-82704571D01*
X157669791Y-82767696D01*
X157671323Y-82787584D01*
X157667949Y-83716844D01*
X157648021Y-83783812D01*
X157595052Y-83829375D01*
X157525857Y-83839067D01*
X157496497Y-83830955D01*
X157180706Y-83700150D01*
X156851572Y-83600308D01*
X156514248Y-83533210D01*
X156514249Y-83533210D01*
X156256456Y-83507821D01*
X156171969Y-83499500D01*
X155828031Y-83499500D01*
X155749966Y-83507188D01*
X155485750Y-83533210D01*
X155148427Y-83600308D01*
X154819293Y-83700150D01*
X154501535Y-83831770D01*
X154501530Y-83831772D01*
X154198224Y-83993893D01*
X154198206Y-83993904D01*
X153912248Y-84184975D01*
X153912234Y-84184985D01*
X153646367Y-84403176D01*
X153403176Y-84646367D01*
X153184985Y-84912234D01*
X153184975Y-84912248D01*
X152993904Y-85198206D01*
X152993893Y-85198224D01*
X152831772Y-85501530D01*
X152831770Y-85501535D01*
X152700150Y-85819293D01*
X152600308Y-86148427D01*
X152533210Y-86485750D01*
X152512863Y-86692350D01*
X152499500Y-86828031D01*
X152499500Y-87171969D01*
X152504614Y-87223889D01*
X152517413Y-87353846D01*
X152504394Y-87422492D01*
X152456329Y-87473202D01*
X152394010Y-87490000D01*
X150118562Y-87490000D01*
X149300000Y-88308562D01*
X149300000Y-97127966D01*
X149280315Y-97195005D01*
X149268170Y-97210916D01*
X148450937Y-98118953D01*
X148391460Y-98155613D01*
X148358770Y-98160000D01*
X134611362Y-98160000D01*
X134544323Y-98140315D01*
X134523681Y-98123681D01*
X133486319Y-97086319D01*
X133452834Y-97024996D01*
X133450000Y-96998638D01*
X133450000Y-86990691D01*
X135019500Y-86990691D01*
X135019500Y-87109309D01*
X135036289Y-87171965D01*
X135050202Y-87223889D01*
X135087217Y-87288000D01*
X135103690Y-87355900D01*
X135087217Y-87412000D01*
X135050202Y-87476110D01*
X135050201Y-87476114D01*
X135019500Y-87590691D01*
X135019500Y-87709309D01*
X135027998Y-87741023D01*
X135050202Y-87823889D01*
X135087217Y-87888000D01*
X135103690Y-87955900D01*
X135087217Y-88012000D01*
X135050202Y-88076110D01*
X135050201Y-88076114D01*
X135019500Y-88190691D01*
X135019500Y-88309309D01*
X135048535Y-88417669D01*
X135050202Y-88423889D01*
X135087217Y-88488000D01*
X135103690Y-88555900D01*
X135087217Y-88612000D01*
X135050202Y-88676110D01*
X135050201Y-88676114D01*
X135019500Y-88790691D01*
X135019500Y-88909309D01*
X135050201Y-89023886D01*
X135109511Y-89126613D01*
X135193387Y-89210489D01*
X135296114Y-89269799D01*
X135410691Y-89300500D01*
X135410694Y-89300500D01*
X135529306Y-89300500D01*
X135529309Y-89300500D01*
X135643886Y-89269799D01*
X135723001Y-89224121D01*
X135790899Y-89207649D01*
X135846998Y-89224121D01*
X135926114Y-89269799D01*
X136040691Y-89300500D01*
X136040694Y-89300500D01*
X136159306Y-89300500D01*
X136159309Y-89300500D01*
X136273886Y-89269799D01*
X136337999Y-89232782D01*
X136405898Y-89216309D01*
X136461999Y-89232782D01*
X136526114Y-89269799D01*
X136640691Y-89300500D01*
X136640694Y-89300500D01*
X136759306Y-89300500D01*
X136759309Y-89300500D01*
X136873886Y-89269799D01*
X136873888Y-89269797D01*
X136873890Y-89269797D01*
X136873891Y-89269796D01*
X136957999Y-89221236D01*
X137025899Y-89204762D01*
X137082001Y-89221236D01*
X137166108Y-89269796D01*
X137166109Y-89269797D01*
X137166111Y-89269797D01*
X137166114Y-89269799D01*
X137280691Y-89300500D01*
X137280694Y-89300500D01*
X137399306Y-89300500D01*
X137399309Y-89300500D01*
X137513886Y-89269799D01*
X137616613Y-89210489D01*
X137700489Y-89126613D01*
X137759799Y-89023886D01*
X137790500Y-88909309D01*
X137790500Y-88790691D01*
X137759799Y-88676114D01*
X137722782Y-88612000D01*
X137706309Y-88544102D01*
X137722782Y-88488000D01*
X137759799Y-88423886D01*
X137790500Y-88309309D01*
X137790500Y-88190691D01*
X137759799Y-88076114D01*
X137722782Y-88012000D01*
X137706309Y-87944102D01*
X137722782Y-87888000D01*
X137759799Y-87823886D01*
X137790500Y-87709309D01*
X137790500Y-87590691D01*
X137759799Y-87476114D01*
X137722782Y-87412000D01*
X137706309Y-87344102D01*
X137722782Y-87288000D01*
X137759799Y-87223886D01*
X137790500Y-87109309D01*
X137790500Y-86990691D01*
X137759799Y-86876114D01*
X137700489Y-86773387D01*
X137616613Y-86689511D01*
X137513886Y-86630201D01*
X137399309Y-86599500D01*
X137280691Y-86599500D01*
X137175505Y-86627684D01*
X137166110Y-86630202D01*
X137082000Y-86678764D01*
X137014100Y-86695237D01*
X136958000Y-86678764D01*
X136873889Y-86630202D01*
X136873890Y-86630202D01*
X136864494Y-86627684D01*
X136759309Y-86599500D01*
X136640691Y-86599500D01*
X136535505Y-86627684D01*
X136526110Y-86630202D01*
X136462000Y-86667217D01*
X136394100Y-86683690D01*
X136338000Y-86667217D01*
X136273889Y-86630202D01*
X136273890Y-86630202D01*
X136264494Y-86627684D01*
X136159309Y-86599500D01*
X136040691Y-86599500D01*
X135935505Y-86627684D01*
X135926110Y-86630202D01*
X135847000Y-86675877D01*
X135779100Y-86692350D01*
X135723000Y-86675877D01*
X135643889Y-86630202D01*
X135643890Y-86630202D01*
X135634494Y-86627684D01*
X135529309Y-86599500D01*
X135410691Y-86599500D01*
X135296114Y-86630201D01*
X135296112Y-86630201D01*
X135296112Y-86630202D01*
X135193387Y-86689511D01*
X135193384Y-86689513D01*
X135109513Y-86773384D01*
X135109511Y-86773387D01*
X135050201Y-86876114D01*
X135019500Y-86990691D01*
X133450000Y-86990691D01*
X133450000Y-85998384D01*
X149851039Y-85998384D01*
X149851039Y-86117002D01*
X149881740Y-86231579D01*
X149941050Y-86334306D01*
X150024926Y-86418182D01*
X150127653Y-86477492D01*
X150242230Y-86508193D01*
X150242233Y-86508193D01*
X150360845Y-86508193D01*
X150360848Y-86508193D01*
X150475425Y-86477492D01*
X150578152Y-86418182D01*
X150662028Y-86334306D01*
X150721338Y-86231579D01*
X150752039Y-86117002D01*
X150752039Y-85998384D01*
X150721338Y-85883807D01*
X150662028Y-85781080D01*
X150578152Y-85697204D01*
X150475425Y-85637894D01*
X150360848Y-85607193D01*
X150242230Y-85607193D01*
X150127653Y-85637894D01*
X150127651Y-85637894D01*
X150127651Y-85637895D01*
X150024926Y-85697204D01*
X150024923Y-85697206D01*
X149941052Y-85781077D01*
X149941050Y-85781080D01*
X149918988Y-85819293D01*
X149881740Y-85883807D01*
X149851039Y-85998384D01*
X133450000Y-85998384D01*
X133450000Y-84830691D01*
X137339500Y-84830691D01*
X137339500Y-84949309D01*
X137370201Y-85063886D01*
X137429511Y-85166613D01*
X137513387Y-85250489D01*
X137616114Y-85309799D01*
X137730691Y-85340500D01*
X137730694Y-85340500D01*
X137849306Y-85340500D01*
X137849309Y-85340500D01*
X137963886Y-85309799D01*
X138066613Y-85250489D01*
X138150489Y-85166613D01*
X138209799Y-85063886D01*
X138240500Y-84949309D01*
X138240500Y-84830691D01*
X138209799Y-84716114D01*
X138150489Y-84613387D01*
X138066613Y-84529511D01*
X137963886Y-84470201D01*
X137849309Y-84439500D01*
X137730691Y-84439500D01*
X137616114Y-84470201D01*
X137616112Y-84470201D01*
X137616112Y-84470202D01*
X137513387Y-84529511D01*
X137513384Y-84529513D01*
X137429513Y-84613384D01*
X137429511Y-84613387D01*
X137381461Y-84696612D01*
X137370201Y-84716114D01*
X137339500Y-84830691D01*
X133450000Y-84830691D01*
X133450000Y-84360691D01*
X139289500Y-84360691D01*
X139289500Y-84479309D01*
X139320201Y-84593886D01*
X139379511Y-84696613D01*
X139463387Y-84780489D01*
X139566114Y-84839799D01*
X139680691Y-84870500D01*
X139680694Y-84870500D01*
X139799306Y-84870500D01*
X139799309Y-84870500D01*
X139913886Y-84839799D01*
X140016613Y-84780489D01*
X140100489Y-84696613D01*
X140159799Y-84593886D01*
X140190500Y-84479309D01*
X140190500Y-84360691D01*
X140159799Y-84246114D01*
X140100489Y-84143387D01*
X140016613Y-84059511D01*
X139913886Y-84000201D01*
X139799309Y-83969500D01*
X139680691Y-83969500D01*
X139566114Y-84000201D01*
X139566112Y-84000201D01*
X139566112Y-84000202D01*
X139463387Y-84059511D01*
X139463384Y-84059513D01*
X139379513Y-84143384D01*
X139379511Y-84143387D01*
X139320201Y-84246114D01*
X139289500Y-84360691D01*
X133450000Y-84360691D01*
X133450000Y-82776971D01*
X133458613Y-82747635D01*
X133462267Y-82730691D01*
X137099500Y-82730691D01*
X137099500Y-82849309D01*
X137130201Y-82963886D01*
X137189511Y-83066613D01*
X137273387Y-83150489D01*
X137376114Y-83209799D01*
X137490691Y-83240500D01*
X137490694Y-83240500D01*
X137609306Y-83240500D01*
X137609309Y-83240500D01*
X137723886Y-83209799D01*
X137826613Y-83150489D01*
X137910489Y-83066613D01*
X137969799Y-82963886D01*
X137997792Y-82859414D01*
X139384858Y-82859414D01*
X139384858Y-82978032D01*
X139415559Y-83092609D01*
X139474869Y-83195336D01*
X139558745Y-83279212D01*
X139661472Y-83338522D01*
X139776049Y-83369223D01*
X139776052Y-83369223D01*
X139894664Y-83369223D01*
X139894667Y-83369223D01*
X140009244Y-83338522D01*
X140111971Y-83279212D01*
X140195847Y-83195336D01*
X140255157Y-83092609D01*
X140285858Y-82978032D01*
X140285858Y-82859414D01*
X140255157Y-82744837D01*
X140195847Y-82642110D01*
X140111971Y-82558234D01*
X140009244Y-82498924D01*
X139894667Y-82468223D01*
X139776049Y-82468223D01*
X139661472Y-82498924D01*
X139661470Y-82498924D01*
X139661470Y-82498925D01*
X139558745Y-82558234D01*
X139558742Y-82558236D01*
X139474871Y-82642107D01*
X139474869Y-82642110D01*
X139435712Y-82709932D01*
X139415559Y-82744837D01*
X139384858Y-82859414D01*
X137997792Y-82859414D01*
X138000500Y-82849309D01*
X138000500Y-82730691D01*
X137969799Y-82616114D01*
X137910489Y-82513387D01*
X137826613Y-82429511D01*
X137723886Y-82370201D01*
X137609309Y-82339500D01*
X137490691Y-82339500D01*
X137376114Y-82370201D01*
X137376112Y-82370201D01*
X137376112Y-82370202D01*
X137273387Y-82429511D01*
X137273384Y-82429513D01*
X137189513Y-82513384D01*
X137189511Y-82513387D01*
X137130201Y-82616114D01*
X137099500Y-82730691D01*
X133462267Y-82730691D01*
X133465059Y-82717745D01*
X133468905Y-82712586D01*
X133469685Y-82709932D01*
X133486149Y-82689460D01*
X134072097Y-82101354D01*
X134133355Y-82067758D01*
X134159630Y-82064876D01*
X156964285Y-82010133D01*
X157031370Y-82029657D01*
G37*
%TD.AperFunction*%
%TD*%
%TA.AperFunction,Conductor*%
%TO.N,GND*%
G36*
X152155677Y-115669685D02*
G01*
X152176319Y-115686319D01*
X157813681Y-121323681D01*
X157847166Y-121385004D01*
X157850000Y-121411362D01*
X157850000Y-133812788D01*
X157830315Y-133879827D01*
X157777511Y-133925582D01*
X157708353Y-133935526D01*
X157667547Y-133922146D01*
X157498469Y-133831772D01*
X157498464Y-133831770D01*
X157180706Y-133700150D01*
X156851572Y-133600308D01*
X156514248Y-133533210D01*
X156514249Y-133533210D01*
X156256456Y-133507821D01*
X156171969Y-133499500D01*
X155828031Y-133499500D01*
X155749966Y-133507188D01*
X155485750Y-133533210D01*
X155148427Y-133600308D01*
X154819293Y-133700150D01*
X154501535Y-133831770D01*
X154501530Y-133831772D01*
X154198224Y-133993893D01*
X154198206Y-133993904D01*
X153912248Y-134184975D01*
X153912234Y-134184985D01*
X153646367Y-134403176D01*
X153403176Y-134646367D01*
X153184985Y-134912234D01*
X153184975Y-134912248D01*
X152993904Y-135198206D01*
X152993893Y-135198224D01*
X152831772Y-135501530D01*
X152831770Y-135501535D01*
X152700150Y-135819293D01*
X152600308Y-136148427D01*
X152533210Y-136485750D01*
X152518741Y-136632670D01*
X152499500Y-136828031D01*
X152499500Y-137171969D01*
X152503240Y-137209943D01*
X152533210Y-137514249D01*
X152600308Y-137851572D01*
X152700150Y-138180706D01*
X152831770Y-138498464D01*
X152831772Y-138498469D01*
X152993893Y-138801775D01*
X152993904Y-138801793D01*
X153184975Y-139087751D01*
X153184985Y-139087765D01*
X153403176Y-139353632D01*
X153646367Y-139596823D01*
X153646372Y-139596827D01*
X153646373Y-139596828D01*
X153912240Y-139815019D01*
X154198213Y-140006100D01*
X154198222Y-140006105D01*
X154198224Y-140006106D01*
X154501530Y-140168227D01*
X154501532Y-140168227D01*
X154501538Y-140168231D01*
X154819295Y-140299850D01*
X155148422Y-140399690D01*
X155485750Y-140466789D01*
X155828031Y-140500500D01*
X155828034Y-140500500D01*
X156171966Y-140500500D01*
X156171969Y-140500500D01*
X156514250Y-140466789D01*
X156851578Y-140399690D01*
X157180705Y-140299850D01*
X157498462Y-140168231D01*
X157667547Y-140077853D01*
X157735949Y-140063611D01*
X157801193Y-140088611D01*
X157842564Y-140144916D01*
X157850000Y-140187211D01*
X157850000Y-141346288D01*
X157830315Y-141413327D01*
X157813690Y-141433961D01*
X150727148Y-148521857D01*
X150700285Y-148536528D01*
X150674565Y-148553111D01*
X150668242Y-148554029D01*
X150665828Y-148555348D01*
X150639637Y-148558184D01*
X150524679Y-148558350D01*
X150457611Y-148538762D01*
X150411780Y-148486024D01*
X150400500Y-148434350D01*
X150400500Y-144502404D01*
X150399709Y-144499971D01*
X150399706Y-144499962D01*
X150397179Y-144492186D01*
X150397118Y-144490900D01*
X150395463Y-144486904D01*
X150371085Y-144411875D01*
X150355498Y-144390422D01*
X150351884Y-144381696D01*
X150341915Y-144371727D01*
X150336182Y-144363836D01*
X150336181Y-144363834D01*
X150315136Y-144334868D01*
X150315134Y-144334867D01*
X150315134Y-144334866D01*
X150278271Y-144308083D01*
X150268304Y-144298116D01*
X150259576Y-144294500D01*
X150254683Y-144290945D01*
X150238125Y-144278915D01*
X150238123Y-144278914D01*
X150238124Y-144278914D01*
X150167723Y-144256038D01*
X150167723Y-144256039D01*
X150163081Y-144254531D01*
X150159100Y-144252882D01*
X150157811Y-144252819D01*
X150153598Y-144251450D01*
X150150049Y-144250297D01*
X150150048Y-144250296D01*
X150150042Y-144250295D01*
X150147598Y-144249500D01*
X150147595Y-144249500D01*
X150100207Y-144249500D01*
X148140500Y-144249500D01*
X148140000Y-144249500D01*
X148092405Y-144249500D01*
X148089948Y-144250298D01*
X148089947Y-144250298D01*
X148082184Y-144252819D01*
X148080900Y-144252882D01*
X148076933Y-144254524D01*
X148072300Y-144256030D01*
X148072295Y-144256032D01*
X148001874Y-144278914D01*
X148001870Y-144278916D01*
X147992290Y-144285875D01*
X147992291Y-144285876D01*
X147980413Y-144294505D01*
X147971696Y-144298116D01*
X147961742Y-144308069D01*
X147953841Y-144313810D01*
X147953837Y-144313815D01*
X147924865Y-144334865D01*
X147903815Y-144363837D01*
X147903814Y-144363836D01*
X147898069Y-144371742D01*
X147888116Y-144381696D01*
X147884505Y-144390411D01*
X147875880Y-144402284D01*
X147875881Y-144402284D01*
X147868916Y-144411870D01*
X147868914Y-144411874D01*
X147846032Y-144482295D01*
X147844525Y-144486933D01*
X147842882Y-144490900D01*
X147842819Y-144492183D01*
X147840299Y-144499941D01*
X147840298Y-144499948D01*
X147839500Y-144502404D01*
X147839500Y-148438402D01*
X147819815Y-148505441D01*
X147767011Y-148551196D01*
X147715679Y-148562402D01*
X143854679Y-148567975D01*
X143787611Y-148548387D01*
X143741780Y-148495649D01*
X143730500Y-148443975D01*
X143730500Y-144502404D01*
X143729709Y-144499971D01*
X143729706Y-144499962D01*
X143727179Y-144492186D01*
X143727118Y-144490900D01*
X143725463Y-144486904D01*
X143701085Y-144411875D01*
X143685498Y-144390422D01*
X143681884Y-144381696D01*
X143671915Y-144371727D01*
X143666182Y-144363836D01*
X143666181Y-144363834D01*
X143645136Y-144334868D01*
X143645134Y-144334867D01*
X143645134Y-144334866D01*
X143608271Y-144308083D01*
X143598304Y-144298116D01*
X143589576Y-144294500D01*
X143584683Y-144290945D01*
X143568125Y-144278915D01*
X143568123Y-144278914D01*
X143568124Y-144278914D01*
X143497723Y-144256038D01*
X143497723Y-144256039D01*
X143493081Y-144254531D01*
X143489100Y-144252882D01*
X143487811Y-144252819D01*
X143483598Y-144251450D01*
X143480049Y-144250297D01*
X143480048Y-144250296D01*
X143480042Y-144250295D01*
X143477598Y-144249500D01*
X143477595Y-144249500D01*
X143430207Y-144249500D01*
X139650500Y-144249500D01*
X139650000Y-144249500D01*
X139602405Y-144249500D01*
X139599948Y-144250298D01*
X139599947Y-144250298D01*
X139592184Y-144252819D01*
X139590900Y-144252882D01*
X139586933Y-144254524D01*
X139582300Y-144256030D01*
X139582295Y-144256032D01*
X139511874Y-144278914D01*
X139511870Y-144278916D01*
X139502290Y-144285875D01*
X139502291Y-144285876D01*
X139490413Y-144294505D01*
X139481696Y-144298116D01*
X139471742Y-144308069D01*
X139463841Y-144313810D01*
X139463837Y-144313815D01*
X139434865Y-144334865D01*
X139413815Y-144363837D01*
X139413814Y-144363836D01*
X139408069Y-144371742D01*
X139398116Y-144381696D01*
X139394505Y-144390411D01*
X139385880Y-144402284D01*
X139385881Y-144402284D01*
X139378916Y-144411870D01*
X139378914Y-144411874D01*
X139356032Y-144482295D01*
X139354525Y-144486933D01*
X139352882Y-144490900D01*
X139352819Y-144492183D01*
X139350299Y-144499941D01*
X139350298Y-144499948D01*
X139349500Y-144502404D01*
X139349500Y-148450653D01*
X139329815Y-148517692D01*
X139277011Y-148563447D01*
X139225679Y-148574653D01*
X129022979Y-148589376D01*
X128955911Y-148569788D01*
X128910080Y-148517050D01*
X128898800Y-148465376D01*
X128898800Y-148420233D01*
X128868126Y-148266032D01*
X128868125Y-148266026D01*
X128807956Y-148120763D01*
X128807954Y-148120761D01*
X128807954Y-148120759D01*
X128720602Y-147990029D01*
X128720599Y-147990025D01*
X128609426Y-147878852D01*
X128609422Y-147878849D01*
X128478692Y-147791497D01*
X128478689Y-147791496D01*
X128333427Y-147731327D01*
X128333419Y-147731325D01*
X128179218Y-147700652D01*
X128179216Y-147700652D01*
X128021984Y-147700652D01*
X128021982Y-147700652D01*
X127867780Y-147731325D01*
X127867772Y-147731327D01*
X127722510Y-147791496D01*
X127722507Y-147791497D01*
X127591777Y-147878849D01*
X127591773Y-147878852D01*
X127480600Y-147990025D01*
X127480597Y-147990029D01*
X127393245Y-148120759D01*
X127393244Y-148120762D01*
X127333075Y-148266024D01*
X127333073Y-148266032D01*
X127302400Y-148420233D01*
X127302400Y-148468037D01*
X127282715Y-148535076D01*
X127229911Y-148580831D01*
X127178579Y-148592037D01*
X110728667Y-148615776D01*
X110661599Y-148596188D01*
X110641534Y-148580178D01*
X108347636Y-146323861D01*
X108263950Y-146241546D01*
X124572700Y-146241546D01*
X124572700Y-146436155D01*
X124610662Y-146627003D01*
X124610664Y-146627011D01*
X124685132Y-146806794D01*
X124685137Y-146806803D01*
X124793247Y-146968600D01*
X124793250Y-146968604D01*
X124930846Y-147106200D01*
X124930850Y-147106203D01*
X125092647Y-147214313D01*
X125092653Y-147214316D01*
X125092654Y-147214317D01*
X125272440Y-147288787D01*
X125463295Y-147326750D01*
X125463299Y-147326751D01*
X125463300Y-147326751D01*
X125657901Y-147326751D01*
X125657902Y-147326750D01*
X125848760Y-147288787D01*
X126028546Y-147214317D01*
X126190350Y-147106203D01*
X126327952Y-146968601D01*
X126436066Y-146806797D01*
X126510536Y-146627011D01*
X126548500Y-146436151D01*
X126548500Y-146241551D01*
X126510536Y-146050691D01*
X126436066Y-145870905D01*
X126436065Y-145870904D01*
X126436062Y-145870898D01*
X126327952Y-145709101D01*
X126327949Y-145709097D01*
X126190353Y-145571501D01*
X126190349Y-145571498D01*
X126028552Y-145463388D01*
X126028547Y-145463386D01*
X126028546Y-145463385D01*
X125993615Y-145448916D01*
X125937646Y-145425732D01*
X125883243Y-145381890D01*
X125861179Y-145315596D01*
X125861100Y-145311171D01*
X125861100Y-145035233D01*
X125880785Y-144968194D01*
X125897419Y-144947552D01*
X126568152Y-144276819D01*
X126629475Y-144243334D01*
X126655833Y-144240500D01*
X127935167Y-144240500D01*
X128002206Y-144260185D01*
X128047961Y-144312989D01*
X128057905Y-144382147D01*
X128028880Y-144445703D01*
X128022848Y-144452181D01*
X127860141Y-144614887D01*
X127860135Y-144614895D01*
X127820582Y-144683404D01*
X127820579Y-144683409D01*
X127800100Y-144759839D01*
X127800100Y-145311171D01*
X127780415Y-145378210D01*
X127727611Y-145423965D01*
X127723554Y-145425732D01*
X127632654Y-145463385D01*
X127632647Y-145463388D01*
X127470850Y-145571498D01*
X127470846Y-145571501D01*
X127333250Y-145709097D01*
X127333247Y-145709101D01*
X127225137Y-145870898D01*
X127225132Y-145870907D01*
X127150664Y-146050690D01*
X127150662Y-146050698D01*
X127112700Y-146241546D01*
X127112700Y-146436155D01*
X127150662Y-146627003D01*
X127150664Y-146627011D01*
X127225132Y-146806794D01*
X127225137Y-146806803D01*
X127333247Y-146968600D01*
X127333250Y-146968604D01*
X127470846Y-147106200D01*
X127470850Y-147106203D01*
X127632647Y-147214313D01*
X127632653Y-147214316D01*
X127632654Y-147214317D01*
X127812440Y-147288787D01*
X128003295Y-147326750D01*
X128003299Y-147326751D01*
X128003300Y-147326751D01*
X128197901Y-147326751D01*
X128197902Y-147326750D01*
X128388760Y-147288787D01*
X128568546Y-147214317D01*
X128730350Y-147106203D01*
X128867952Y-146968601D01*
X128976066Y-146806797D01*
X129050536Y-146627011D01*
X129088500Y-146436151D01*
X129088500Y-146241551D01*
X129088499Y-146241546D01*
X129652700Y-146241546D01*
X129652700Y-146436155D01*
X129690662Y-146627003D01*
X129690664Y-146627011D01*
X129765132Y-146806794D01*
X129765137Y-146806803D01*
X129873247Y-146968600D01*
X129873250Y-146968604D01*
X130010846Y-147106200D01*
X130010850Y-147106203D01*
X130172647Y-147214313D01*
X130172653Y-147214316D01*
X130172654Y-147214317D01*
X130352440Y-147288787D01*
X130543295Y-147326750D01*
X130543299Y-147326751D01*
X130543300Y-147326751D01*
X130737901Y-147326751D01*
X130737902Y-147326750D01*
X130928760Y-147288787D01*
X131108546Y-147214317D01*
X131270350Y-147106203D01*
X131407952Y-146968601D01*
X131516066Y-146806797D01*
X131590536Y-146627011D01*
X131628500Y-146436151D01*
X131628500Y-146241551D01*
X131590536Y-146050691D01*
X131516066Y-145870905D01*
X131516065Y-145870904D01*
X131516062Y-145870898D01*
X131407952Y-145709101D01*
X131407949Y-145709097D01*
X131270353Y-145571501D01*
X131270349Y-145571498D01*
X131108552Y-145463388D01*
X131108543Y-145463383D01*
X130928760Y-145388915D01*
X130928752Y-145388913D01*
X130737904Y-145350951D01*
X130737900Y-145350951D01*
X130543300Y-145350951D01*
X130543295Y-145350951D01*
X130352447Y-145388913D01*
X130352439Y-145388915D01*
X130172656Y-145463383D01*
X130172647Y-145463388D01*
X130010850Y-145571498D01*
X130010846Y-145571501D01*
X129873250Y-145709097D01*
X129873247Y-145709101D01*
X129765137Y-145870898D01*
X129765132Y-145870907D01*
X129690664Y-146050690D01*
X129690662Y-146050698D01*
X129652700Y-146241546D01*
X129088499Y-146241546D01*
X129050536Y-146050691D01*
X128976066Y-145870905D01*
X128976065Y-145870904D01*
X128976062Y-145870898D01*
X128867952Y-145709101D01*
X128867949Y-145709097D01*
X128730353Y-145571501D01*
X128730349Y-145571498D01*
X128568552Y-145463388D01*
X128568547Y-145463386D01*
X128568546Y-145463385D01*
X128533615Y-145448916D01*
X128477646Y-145425732D01*
X128423243Y-145381890D01*
X128401179Y-145315596D01*
X128401100Y-145311171D01*
X128401100Y-144975233D01*
X128409744Y-144945792D01*
X128416268Y-144915806D01*
X128420022Y-144910790D01*
X128420785Y-144908194D01*
X128437419Y-144887552D01*
X128548152Y-144776819D01*
X128609475Y-144743334D01*
X128635833Y-144740500D01*
X131659560Y-144740500D01*
X131659562Y-144740500D01*
X131735989Y-144720021D01*
X131804511Y-144680460D01*
X131860460Y-144624511D01*
X133643456Y-142841515D01*
X141299000Y-142841515D01*
X141299000Y-143046484D01*
X141338983Y-143247495D01*
X141338986Y-143247505D01*
X141417418Y-143436859D01*
X141531290Y-143607279D01*
X141531293Y-143607283D01*
X141676216Y-143752206D01*
X141676220Y-143752209D01*
X141846638Y-143866080D01*
X142035997Y-143944515D01*
X142237015Y-143984499D01*
X142237019Y-143984500D01*
X142237020Y-143984500D01*
X142441981Y-143984500D01*
X142441982Y-143984499D01*
X142643003Y-143944515D01*
X142832362Y-143866080D01*
X143002780Y-143752209D01*
X143147709Y-143607280D01*
X143261580Y-143436862D01*
X143340015Y-143247503D01*
X143380000Y-143046480D01*
X143380000Y-142841520D01*
X143379999Y-142841515D01*
X146379000Y-142841515D01*
X146379000Y-143046484D01*
X146418983Y-143247495D01*
X146418986Y-143247505D01*
X146497418Y-143436859D01*
X146611290Y-143607279D01*
X146611293Y-143607283D01*
X146756216Y-143752206D01*
X146756220Y-143752209D01*
X146926638Y-143866080D01*
X147115997Y-143944515D01*
X147317015Y-143984499D01*
X147317019Y-143984500D01*
X147317020Y-143984500D01*
X147521981Y-143984500D01*
X147521982Y-143984499D01*
X147723003Y-143944515D01*
X147912362Y-143866080D01*
X148082780Y-143752209D01*
X148227709Y-143607280D01*
X148341580Y-143436862D01*
X148420015Y-143247503D01*
X148460000Y-143046480D01*
X148460000Y-142841520D01*
X148420015Y-142640497D01*
X148341580Y-142451138D01*
X148227709Y-142280720D01*
X148227706Y-142280716D01*
X148082783Y-142135793D01*
X148082779Y-142135790D01*
X147912359Y-142021918D01*
X147757978Y-141957972D01*
X147723003Y-141943485D01*
X147722999Y-141943484D01*
X147722995Y-141943483D01*
X147521984Y-141903500D01*
X147521980Y-141903500D01*
X147317020Y-141903500D01*
X147317015Y-141903500D01*
X147116004Y-141943483D01*
X147115994Y-141943486D01*
X146926640Y-142021918D01*
X146756220Y-142135790D01*
X146756216Y-142135793D01*
X146611293Y-142280716D01*
X146611290Y-142280720D01*
X146497418Y-142451140D01*
X146418986Y-142640494D01*
X146418983Y-142640504D01*
X146379000Y-142841515D01*
X143379999Y-142841515D01*
X143340015Y-142640497D01*
X143261580Y-142451138D01*
X143147709Y-142280720D01*
X143147706Y-142280716D01*
X143002783Y-142135793D01*
X143002779Y-142135790D01*
X142832359Y-142021918D01*
X142677978Y-141957972D01*
X142643003Y-141943485D01*
X142642999Y-141943484D01*
X142642995Y-141943483D01*
X142441984Y-141903500D01*
X142441980Y-141903500D01*
X142237020Y-141903500D01*
X142237015Y-141903500D01*
X142036004Y-141943483D01*
X142035994Y-141943486D01*
X141846640Y-142021918D01*
X141676220Y-142135790D01*
X141676216Y-142135793D01*
X141531293Y-142280716D01*
X141531290Y-142280720D01*
X141417418Y-142451140D01*
X141338986Y-142640494D01*
X141338983Y-142640504D01*
X141299000Y-142841515D01*
X133643456Y-142841515D01*
X134490460Y-141994511D01*
X134530022Y-141925988D01*
X134550500Y-141849562D01*
X134550500Y-141770438D01*
X134550500Y-139458676D01*
X134570185Y-139391637D01*
X134586819Y-139370995D01*
X134604187Y-139353627D01*
X134650500Y-139307314D01*
X134716392Y-139193186D01*
X134750500Y-139065892D01*
X134750500Y-138934108D01*
X134716392Y-138806814D01*
X134650500Y-138692686D01*
X134557314Y-138599500D01*
X134500250Y-138566554D01*
X134443187Y-138533608D01*
X134379539Y-138516554D01*
X134315892Y-138499500D01*
X134184108Y-138499500D01*
X134056812Y-138533608D01*
X133942686Y-138599500D01*
X133942683Y-138599502D01*
X133849502Y-138692683D01*
X133849500Y-138692686D01*
X133783608Y-138806812D01*
X133772170Y-138849500D01*
X133749500Y-138934108D01*
X133749500Y-139065892D01*
X133755361Y-139087765D01*
X133783608Y-139193187D01*
X133811035Y-139240691D01*
X133849500Y-139307314D01*
X133849502Y-139307316D01*
X133913181Y-139370995D01*
X133946666Y-139432318D01*
X133949500Y-139458676D01*
X133949500Y-141634167D01*
X133929815Y-141701206D01*
X133913181Y-141721848D01*
X131531848Y-144103181D01*
X131504920Y-144117884D01*
X131479102Y-144134477D01*
X131472901Y-144135368D01*
X131470525Y-144136666D01*
X131444167Y-144139500D01*
X131434833Y-144139500D01*
X131367794Y-144119815D01*
X131322039Y-144067011D01*
X131312095Y-143997853D01*
X131341120Y-143934297D01*
X131347152Y-143927819D01*
X131408891Y-143866080D01*
X131670460Y-143604511D01*
X131710021Y-143535989D01*
X131730500Y-143459562D01*
X131730500Y-142268676D01*
X131750185Y-142201637D01*
X131766819Y-142180995D01*
X131830500Y-142117314D01*
X131896392Y-142003186D01*
X131930500Y-141875892D01*
X131930500Y-141744108D01*
X131896392Y-141616814D01*
X131830500Y-141502686D01*
X131737314Y-141409500D01*
X131680250Y-141376554D01*
X131623187Y-141343608D01*
X131559539Y-141326554D01*
X131495892Y-141309500D01*
X131364108Y-141309500D01*
X131236812Y-141343608D01*
X131122686Y-141409500D01*
X131122683Y-141409502D01*
X131029502Y-141502683D01*
X131029500Y-141502686D01*
X130963608Y-141616812D01*
X130958958Y-141634167D01*
X130929500Y-141744108D01*
X130929500Y-141875892D01*
X130942923Y-141925988D01*
X130963608Y-142003187D01*
X130974423Y-142021918D01*
X131029500Y-142117314D01*
X131029502Y-142117316D01*
X131093181Y-142180995D01*
X131126666Y-142242318D01*
X131129500Y-142268676D01*
X131129500Y-143244167D01*
X131109815Y-143311206D01*
X131093181Y-143331848D01*
X130821848Y-143603181D01*
X130760525Y-143636666D01*
X130734167Y-143639500D01*
X126440438Y-143639500D01*
X126402224Y-143649739D01*
X126364009Y-143659979D01*
X126364004Y-143659982D01*
X126295495Y-143699535D01*
X126295487Y-143699541D01*
X125320141Y-144674887D01*
X125320135Y-144674895D01*
X125280582Y-144743404D01*
X125280579Y-144743409D01*
X125260100Y-144819839D01*
X125260100Y-145311171D01*
X125240415Y-145378210D01*
X125187611Y-145423965D01*
X125183554Y-145425732D01*
X125092654Y-145463385D01*
X125092647Y-145463388D01*
X124930850Y-145571498D01*
X124930846Y-145571501D01*
X124793250Y-145709097D01*
X124793247Y-145709101D01*
X124685137Y-145870898D01*
X124685132Y-145870907D01*
X124610664Y-146050690D01*
X124610662Y-146050698D01*
X124572700Y-146241546D01*
X108263950Y-146241546D01*
X103987046Y-142034711D01*
X103953056Y-141973667D01*
X103950000Y-141946309D01*
X103950000Y-140072236D01*
X103969685Y-140005197D01*
X104022489Y-139959442D01*
X104091647Y-139949498D01*
X104142886Y-139969131D01*
X104198213Y-140006100D01*
X104198222Y-140006105D01*
X104198224Y-140006106D01*
X104501530Y-140168227D01*
X104501532Y-140168227D01*
X104501538Y-140168231D01*
X104819295Y-140299850D01*
X105148422Y-140399690D01*
X105485750Y-140466789D01*
X105828031Y-140500500D01*
X105828034Y-140500500D01*
X106171966Y-140500500D01*
X106171969Y-140500500D01*
X106514250Y-140466789D01*
X106851578Y-140399690D01*
X107180705Y-140299850D01*
X107498462Y-140168231D01*
X107801787Y-140006100D01*
X108087760Y-139815019D01*
X108353627Y-139596828D01*
X108596828Y-139353627D01*
X108689512Y-139240691D01*
X126999500Y-139240691D01*
X126999500Y-139359309D01*
X127030201Y-139473886D01*
X127089511Y-139576613D01*
X127173387Y-139660489D01*
X127276114Y-139719799D01*
X127390691Y-139750500D01*
X127390694Y-139750500D01*
X127509306Y-139750500D01*
X127509309Y-139750500D01*
X127623886Y-139719799D01*
X127726613Y-139660489D01*
X127810489Y-139576613D01*
X127869799Y-139473886D01*
X127900500Y-139359309D01*
X127900500Y-139240691D01*
X127869799Y-139126114D01*
X127810489Y-139023387D01*
X127726613Y-138939511D01*
X127623886Y-138880201D01*
X127509309Y-138849500D01*
X127390691Y-138849500D01*
X127276114Y-138880201D01*
X127276112Y-138880201D01*
X127276112Y-138880202D01*
X127173387Y-138939511D01*
X127173384Y-138939513D01*
X127089513Y-139023384D01*
X127089511Y-139023387D01*
X127064971Y-139065892D01*
X127030201Y-139126114D01*
X126999500Y-139240691D01*
X108689512Y-139240691D01*
X108815019Y-139087760D01*
X109006100Y-138801787D01*
X109168231Y-138498462D01*
X109299850Y-138180705D01*
X109399690Y-137851578D01*
X109466789Y-137514250D01*
X109500500Y-137171969D01*
X109500500Y-136828031D01*
X109466789Y-136485750D01*
X109431183Y-136306748D01*
X109401348Y-136156755D01*
X109401348Y-136156754D01*
X109399691Y-136148429D01*
X109399690Y-136148422D01*
X109397345Y-136140691D01*
X135149500Y-136140691D01*
X135149500Y-136259309D01*
X135180201Y-136373886D01*
X135239511Y-136476613D01*
X135323387Y-136560489D01*
X135426114Y-136619799D01*
X135540691Y-136650500D01*
X135540694Y-136650500D01*
X135659306Y-136650500D01*
X135659309Y-136650500D01*
X135773886Y-136619799D01*
X135876613Y-136560489D01*
X135960489Y-136476613D01*
X136019799Y-136373886D01*
X136037789Y-136306748D01*
X142889973Y-136306748D01*
X142889973Y-136425366D01*
X142920674Y-136539943D01*
X142975011Y-136634056D01*
X142991484Y-136701956D01*
X142975011Y-136758056D01*
X142920674Y-136852171D01*
X142889973Y-136966748D01*
X142889973Y-137085366D01*
X142920674Y-137199943D01*
X142979984Y-137302670D01*
X143063860Y-137386546D01*
X143166587Y-137445856D01*
X143281164Y-137476557D01*
X143281167Y-137476557D01*
X143399779Y-137476557D01*
X143399782Y-137476557D01*
X143514359Y-137445856D01*
X143544811Y-137428273D01*
X143612711Y-137411800D01*
X143668812Y-137428273D01*
X143716587Y-137455856D01*
X143831164Y-137486557D01*
X143831167Y-137486557D01*
X143949779Y-137486557D01*
X143949782Y-137486557D01*
X144064359Y-137455856D01*
X144167086Y-137396546D01*
X144250962Y-137312670D01*
X144310272Y-137209943D01*
X144340973Y-137095366D01*
X144340973Y-136976748D01*
X144310272Y-136862171D01*
X144250962Y-136759444D01*
X144250960Y-136759442D01*
X144250161Y-136758058D01*
X144233688Y-136690158D01*
X144250161Y-136634056D01*
X144250960Y-136632671D01*
X144250962Y-136632670D01*
X144310272Y-136529943D01*
X144340973Y-136415366D01*
X144340973Y-136296748D01*
X144310272Y-136182171D01*
X144250962Y-136079444D01*
X144167086Y-135995568D01*
X144064359Y-135936258D01*
X143949782Y-135905557D01*
X143831164Y-135905557D01*
X143764622Y-135923387D01*
X143716582Y-135936259D01*
X143668812Y-135963840D01*
X143600911Y-135980313D01*
X143544812Y-135963840D01*
X143514361Y-135946259D01*
X143514360Y-135946258D01*
X143477042Y-135936259D01*
X143399782Y-135915557D01*
X143281164Y-135915557D01*
X143166587Y-135946258D01*
X143166585Y-135946258D01*
X143166585Y-135946259D01*
X143063860Y-136005568D01*
X143063857Y-136005570D01*
X142979986Y-136089441D01*
X142979984Y-136089444D01*
X142926448Y-136182171D01*
X142920674Y-136192171D01*
X142889973Y-136306748D01*
X136037789Y-136306748D01*
X136050500Y-136259309D01*
X136050500Y-136140691D01*
X136019799Y-136026114D01*
X135960489Y-135923387D01*
X135876613Y-135839511D01*
X135876610Y-135839509D01*
X135874991Y-135838267D01*
X135873968Y-135836866D01*
X135870866Y-135833764D01*
X135871349Y-135833280D01*
X135833789Y-135781838D01*
X135829635Y-135712092D01*
X135863849Y-135651172D01*
X135888472Y-135632509D01*
X135926613Y-135610489D01*
X136010489Y-135526613D01*
X136069799Y-135423886D01*
X136100500Y-135309309D01*
X136100500Y-135190691D01*
X136069799Y-135076114D01*
X136010489Y-134973387D01*
X135926613Y-134889511D01*
X135823886Y-134830201D01*
X135709309Y-134799500D01*
X135590691Y-134799500D01*
X135476114Y-134830201D01*
X135476112Y-134830201D01*
X135476112Y-134830202D01*
X135373387Y-134889511D01*
X135373384Y-134889513D01*
X135289513Y-134973384D01*
X135289511Y-134973387D01*
X135230201Y-135076114D01*
X135199500Y-135190691D01*
X135199500Y-135309309D01*
X135230201Y-135423886D01*
X135289511Y-135526613D01*
X135373387Y-135610489D01*
X135373389Y-135610490D01*
X135375006Y-135611731D01*
X135376026Y-135613128D01*
X135379134Y-135616236D01*
X135378649Y-135616720D01*
X135416209Y-135668159D01*
X135420364Y-135737905D01*
X135386152Y-135798825D01*
X135361522Y-135817493D01*
X135323390Y-135839509D01*
X135323384Y-135839513D01*
X135239513Y-135923384D01*
X135239511Y-135923387D01*
X135180201Y-136026114D01*
X135149500Y-136140691D01*
X109397345Y-136140691D01*
X109299850Y-135819295D01*
X109168231Y-135501538D01*
X109006100Y-135198213D01*
X108815019Y-134912240D01*
X108596828Y-134646373D01*
X108596827Y-134646372D01*
X108596823Y-134646367D01*
X108353632Y-134403176D01*
X108272794Y-134336834D01*
X108165899Y-134249108D01*
X143669500Y-134249108D01*
X143669500Y-134380891D01*
X143703608Y-134508187D01*
X143736554Y-134565250D01*
X143769500Y-134622314D01*
X143862686Y-134715500D01*
X143976814Y-134781392D01*
X144104108Y-134815500D01*
X144104110Y-134815500D01*
X144235890Y-134815500D01*
X144235892Y-134815500D01*
X144363186Y-134781392D01*
X144477314Y-134715500D01*
X144570500Y-134622314D01*
X144636392Y-134508186D01*
X144670500Y-134380892D01*
X144670500Y-134249108D01*
X144636392Y-134121814D01*
X144570500Y-134007686D01*
X144477314Y-133914500D01*
X144417259Y-133879827D01*
X144363187Y-133848608D01*
X144299539Y-133831554D01*
X144235892Y-133814500D01*
X144104108Y-133814500D01*
X143976812Y-133848608D01*
X143862686Y-133914500D01*
X143862683Y-133914502D01*
X143769502Y-134007683D01*
X143769500Y-134007686D01*
X143703608Y-134121812D01*
X143669500Y-134249108D01*
X108165899Y-134249108D01*
X108087765Y-134184985D01*
X108087764Y-134184984D01*
X108087760Y-134184981D01*
X107801787Y-133993900D01*
X107801782Y-133993897D01*
X107801775Y-133993893D01*
X107498469Y-133831772D01*
X107498464Y-133831770D01*
X107180706Y-133700150D01*
X106851572Y-133600308D01*
X106514248Y-133533210D01*
X106514249Y-133533210D01*
X106256456Y-133507821D01*
X106171969Y-133499500D01*
X105828031Y-133499500D01*
X105749966Y-133507188D01*
X105485750Y-133533210D01*
X105148427Y-133600308D01*
X104819293Y-133700150D01*
X104501535Y-133831770D01*
X104501530Y-133831772D01*
X104198224Y-133993893D01*
X104198200Y-133993907D01*
X104142889Y-134030865D01*
X104076212Y-134051742D01*
X104008832Y-134033257D01*
X103962142Y-133981277D01*
X103950000Y-133927762D01*
X103950000Y-131240691D01*
X109049500Y-131240691D01*
X109049500Y-131359309D01*
X109080201Y-131473886D01*
X109139511Y-131576613D01*
X109223387Y-131660489D01*
X109279027Y-131692613D01*
X109327242Y-131743181D01*
X109340464Y-131811788D01*
X109314496Y-131876653D01*
X109279027Y-131907387D01*
X109223387Y-131939511D01*
X109223384Y-131939513D01*
X109139513Y-132023384D01*
X109139511Y-132023387D01*
X109080201Y-132126114D01*
X109049500Y-132240691D01*
X109049500Y-132359309D01*
X109080201Y-132473886D01*
X109139511Y-132576613D01*
X109223387Y-132660489D01*
X109326114Y-132719799D01*
X109440691Y-132750500D01*
X109440694Y-132750500D01*
X109559306Y-132750500D01*
X109559309Y-132750500D01*
X109673886Y-132719799D01*
X109776613Y-132660489D01*
X109860489Y-132576613D01*
X109919799Y-132473886D01*
X109950500Y-132359309D01*
X109950500Y-132240691D01*
X109919799Y-132126114D01*
X109860489Y-132023387D01*
X109776613Y-131939511D01*
X109720972Y-131907386D01*
X109672757Y-131856820D01*
X109659535Y-131788213D01*
X109685503Y-131723348D01*
X109720973Y-131692613D01*
X109776613Y-131660489D01*
X109860489Y-131576613D01*
X109919799Y-131473886D01*
X109950500Y-131359309D01*
X109950500Y-131240691D01*
X109919799Y-131126114D01*
X109860489Y-131023387D01*
X109776613Y-130939511D01*
X109673886Y-130880201D01*
X109559309Y-130849500D01*
X109440691Y-130849500D01*
X109326114Y-130880201D01*
X109326112Y-130880201D01*
X109326112Y-130880202D01*
X109223387Y-130939511D01*
X109223384Y-130939513D01*
X109139513Y-131023384D01*
X109139511Y-131023387D01*
X109080201Y-131126114D01*
X109049500Y-131240691D01*
X103950000Y-131240691D01*
X103950000Y-129784500D01*
X103969685Y-129717461D01*
X104022489Y-129671706D01*
X104061468Y-129663226D01*
X104061249Y-129661561D01*
X104069305Y-129660500D01*
X104069309Y-129660500D01*
X104183886Y-129629799D01*
X104286613Y-129570489D01*
X104370489Y-129486613D01*
X104429799Y-129383886D01*
X104460500Y-129269309D01*
X104460500Y-129150691D01*
X104429799Y-129036114D01*
X104370489Y-128933387D01*
X104286613Y-128849511D01*
X104184735Y-128790691D01*
X126249500Y-128790691D01*
X126249500Y-128909309D01*
X126280201Y-129023886D01*
X126339511Y-129126613D01*
X126423387Y-129210489D01*
X126526114Y-129269799D01*
X126640691Y-129300500D01*
X126640694Y-129300500D01*
X126759306Y-129300500D01*
X126759309Y-129300500D01*
X126873886Y-129269799D01*
X126976613Y-129210489D01*
X127060489Y-129126613D01*
X127119799Y-129023886D01*
X127150500Y-128909309D01*
X127150500Y-128790691D01*
X127119799Y-128676114D01*
X127060489Y-128573387D01*
X126976613Y-128489511D01*
X126873886Y-128430201D01*
X126759309Y-128399500D01*
X126640691Y-128399500D01*
X126526114Y-128430201D01*
X126526112Y-128430201D01*
X126526112Y-128430202D01*
X126423387Y-128489511D01*
X126423384Y-128489513D01*
X126339513Y-128573384D01*
X126339511Y-128573387D01*
X126280201Y-128676114D01*
X126249500Y-128790691D01*
X104184735Y-128790691D01*
X104183886Y-128790201D01*
X104069309Y-128759500D01*
X104069305Y-128759499D01*
X104061249Y-128758439D01*
X104061589Y-128755855D01*
X104006961Y-128739815D01*
X103961206Y-128687011D01*
X103950000Y-128635500D01*
X103950000Y-128090691D01*
X104809500Y-128090691D01*
X104809500Y-128209309D01*
X104840201Y-128323886D01*
X104899511Y-128426613D01*
X104983387Y-128510489D01*
X105086114Y-128569799D01*
X105200691Y-128600500D01*
X105200694Y-128600500D01*
X105319306Y-128600500D01*
X105319309Y-128600500D01*
X105433886Y-128569799D01*
X105536613Y-128510489D01*
X105620489Y-128426613D01*
X105679799Y-128323886D01*
X105710500Y-128209309D01*
X105710500Y-128099176D01*
X105730185Y-128032137D01*
X105782989Y-127986382D01*
X105852147Y-127976438D01*
X105866590Y-127979401D01*
X105870691Y-127980500D01*
X105870693Y-127980500D01*
X105989306Y-127980500D01*
X105989309Y-127980500D01*
X106103886Y-127949799D01*
X106206613Y-127890489D01*
X106272994Y-127824108D01*
X130149500Y-127824108D01*
X130149500Y-127955892D01*
X130156094Y-127980500D01*
X130183608Y-128083187D01*
X130211907Y-128132202D01*
X130249500Y-128197314D01*
X130342686Y-128290500D01*
X130456814Y-128356392D01*
X130584108Y-128390500D01*
X130584110Y-128390500D01*
X130715890Y-128390500D01*
X130715892Y-128390500D01*
X130843186Y-128356392D01*
X130957314Y-128290500D01*
X131050500Y-128197314D01*
X131067613Y-128167672D01*
X131118179Y-128119458D01*
X131186786Y-128106234D01*
X131251651Y-128132202D01*
X131282386Y-128167672D01*
X131299500Y-128197314D01*
X131392686Y-128290500D01*
X131506814Y-128356392D01*
X131634108Y-128390500D01*
X131634110Y-128390500D01*
X131765890Y-128390500D01*
X131765892Y-128390500D01*
X131893186Y-128356392D01*
X132007314Y-128290500D01*
X132100500Y-128197314D01*
X132166392Y-128083186D01*
X132200500Y-127955892D01*
X132200500Y-127824108D01*
X132197821Y-127814108D01*
X132449500Y-127814108D01*
X132449500Y-127945892D01*
X132457597Y-127976112D01*
X132483608Y-128073187D01*
X132502688Y-128106234D01*
X132549500Y-128187314D01*
X132642686Y-128280500D01*
X132756814Y-128346392D01*
X132884108Y-128380500D01*
X132884110Y-128380500D01*
X133015890Y-128380500D01*
X133015892Y-128380500D01*
X133143186Y-128346392D01*
X133257314Y-128280500D01*
X133350500Y-128187314D01*
X133390978Y-128117203D01*
X133441545Y-128068988D01*
X133510152Y-128055765D01*
X133575017Y-128081733D01*
X133596741Y-128103718D01*
X133599499Y-128107312D01*
X133599500Y-128107314D01*
X133692686Y-128200500D01*
X133806814Y-128266392D01*
X133934108Y-128300500D01*
X133934110Y-128300500D01*
X134065890Y-128300500D01*
X134065892Y-128300500D01*
X134193186Y-128266392D01*
X134307314Y-128200500D01*
X134400500Y-128107314D01*
X134466392Y-127993186D01*
X134500500Y-127865892D01*
X134500500Y-127734108D01*
X134466392Y-127606814D01*
X134400500Y-127492686D01*
X134307314Y-127399500D01*
X134250250Y-127366554D01*
X134193187Y-127333608D01*
X134128938Y-127316393D01*
X134065892Y-127299500D01*
X133934108Y-127299500D01*
X133806812Y-127333608D01*
X133692686Y-127399500D01*
X133692683Y-127399502D01*
X133599502Y-127492683D01*
X133599498Y-127492689D01*
X133559020Y-127562797D01*
X133508452Y-127611011D01*
X133439845Y-127624233D01*
X133374981Y-127598264D01*
X133353257Y-127576280D01*
X133350502Y-127572689D01*
X133350500Y-127572686D01*
X133257314Y-127479500D01*
X133200250Y-127446554D01*
X133143187Y-127413608D01*
X133079539Y-127396554D01*
X133015892Y-127379500D01*
X132884108Y-127379500D01*
X132756812Y-127413608D01*
X132642686Y-127479500D01*
X132642683Y-127479502D01*
X132549502Y-127572683D01*
X132549500Y-127572686D01*
X132483608Y-127686812D01*
X132470935Y-127734110D01*
X132449500Y-127814108D01*
X132197821Y-127814108D01*
X132166392Y-127696814D01*
X132160618Y-127686814D01*
X132114430Y-127606814D01*
X132100500Y-127582686D01*
X132007314Y-127489500D01*
X131950250Y-127456554D01*
X131893187Y-127423608D01*
X131803220Y-127399502D01*
X131765892Y-127389500D01*
X131634108Y-127389500D01*
X131506812Y-127423608D01*
X131392686Y-127489500D01*
X131392683Y-127489502D01*
X131299502Y-127582683D01*
X131299500Y-127582686D01*
X131282387Y-127612327D01*
X131231819Y-127660542D01*
X131163212Y-127673764D01*
X131098348Y-127647796D01*
X131067613Y-127612327D01*
X131064429Y-127606812D01*
X131050500Y-127582686D01*
X130957314Y-127489500D01*
X130900250Y-127456554D01*
X130843187Y-127423608D01*
X130753220Y-127399502D01*
X130715892Y-127389500D01*
X130584108Y-127389500D01*
X130456812Y-127423608D01*
X130342686Y-127489500D01*
X130342683Y-127489502D01*
X130249502Y-127582683D01*
X130249500Y-127582686D01*
X130183608Y-127696812D01*
X130154190Y-127806606D01*
X130149500Y-127824108D01*
X106272994Y-127824108D01*
X106290489Y-127806613D01*
X106300363Y-127789511D01*
X106320878Y-127753980D01*
X106349797Y-127703889D01*
X106349796Y-127703889D01*
X106349799Y-127703886D01*
X106380500Y-127589309D01*
X106380500Y-127470691D01*
X106349799Y-127356114D01*
X106290489Y-127253387D01*
X106206613Y-127169511D01*
X106103886Y-127110201D01*
X105989309Y-127079500D01*
X105870691Y-127079500D01*
X105756114Y-127110201D01*
X105756112Y-127110201D01*
X105756112Y-127110202D01*
X105653387Y-127169511D01*
X105653384Y-127169513D01*
X105569513Y-127253384D01*
X105569511Y-127253387D01*
X105515408Y-127347096D01*
X105510201Y-127356114D01*
X105479500Y-127470691D01*
X105479500Y-127470693D01*
X105479500Y-127580823D01*
X105459815Y-127647862D01*
X105407011Y-127693617D01*
X105337853Y-127703561D01*
X105323411Y-127700599D01*
X105319310Y-127699500D01*
X105319309Y-127699500D01*
X105200691Y-127699500D01*
X105086114Y-127730201D01*
X105086112Y-127730201D01*
X105086112Y-127730202D01*
X104983387Y-127789511D01*
X104983384Y-127789513D01*
X104899513Y-127873384D01*
X104899511Y-127873387D01*
X104840201Y-127976114D01*
X104809500Y-128090691D01*
X103950000Y-128090691D01*
X103950000Y-126837287D01*
X104248499Y-126837287D01*
X104248499Y-126955905D01*
X104279200Y-127070482D01*
X104338510Y-127173209D01*
X104422386Y-127257085D01*
X104525113Y-127316395D01*
X104639690Y-127347096D01*
X104639693Y-127347096D01*
X104758305Y-127347096D01*
X104758308Y-127347096D01*
X104872885Y-127316395D01*
X104975612Y-127257085D01*
X105059488Y-127173209D01*
X105118798Y-127070482D01*
X105149499Y-126955905D01*
X105149499Y-126837287D01*
X105118798Y-126722710D01*
X105059488Y-126619983D01*
X104975612Y-126536107D01*
X104872885Y-126476797D01*
X104758308Y-126446096D01*
X104639690Y-126446096D01*
X104525113Y-126476797D01*
X104525111Y-126476797D01*
X104525111Y-126476798D01*
X104422386Y-126536107D01*
X104422383Y-126536109D01*
X104338512Y-126619980D01*
X104338510Y-126619983D01*
X104279200Y-126722710D01*
X104248499Y-126837287D01*
X103950000Y-126837287D01*
X103950000Y-124689902D01*
X103969685Y-124622863D01*
X104022489Y-124577108D01*
X104091647Y-124567164D01*
X104155203Y-124596189D01*
X104181386Y-124627900D01*
X104209510Y-124676613D01*
X104293386Y-124760489D01*
X104293388Y-124760490D01*
X104293392Y-124760493D01*
X104396106Y-124819794D01*
X104396113Y-124819798D01*
X104510690Y-124850499D01*
X104510693Y-124850499D01*
X104629305Y-124850499D01*
X104629308Y-124850499D01*
X104743885Y-124819798D01*
X104846612Y-124760489D01*
X104930488Y-124676613D01*
X104989797Y-124573886D01*
X105020498Y-124459309D01*
X105020498Y-124340691D01*
X105619502Y-124340691D01*
X105619502Y-124459309D01*
X105642527Y-124545241D01*
X105650203Y-124573887D01*
X105650206Y-124573892D01*
X105709507Y-124676606D01*
X105709511Y-124676611D01*
X105709512Y-124676613D01*
X105793388Y-124760489D01*
X105793390Y-124760490D01*
X105793394Y-124760493D01*
X105896108Y-124819794D01*
X105896115Y-124819798D01*
X106010692Y-124850499D01*
X106010695Y-124850499D01*
X106129307Y-124850499D01*
X106129310Y-124850499D01*
X106243887Y-124819798D01*
X106346614Y-124760489D01*
X106430490Y-124676613D01*
X106489799Y-124573886D01*
X106520500Y-124459309D01*
X106520500Y-124340691D01*
X106489799Y-124226114D01*
X106458613Y-124172097D01*
X106430494Y-124123393D01*
X106430488Y-124123385D01*
X106346615Y-124039512D01*
X106346607Y-124039506D01*
X106243893Y-123980205D01*
X106243888Y-123980202D01*
X106215242Y-123972526D01*
X106129310Y-123949501D01*
X106010692Y-123949501D01*
X105941945Y-123967921D01*
X105896113Y-123980202D01*
X105896108Y-123980205D01*
X105793394Y-124039506D01*
X105793386Y-124039512D01*
X105709513Y-124123385D01*
X105709507Y-124123393D01*
X105650206Y-124226107D01*
X105650203Y-124226112D01*
X105648214Y-124233536D01*
X105619502Y-124340691D01*
X105020498Y-124340691D01*
X104989797Y-124226114D01*
X104958611Y-124172097D01*
X104930492Y-124123393D01*
X104930486Y-124123385D01*
X104846613Y-124039512D01*
X104846605Y-124039506D01*
X104743891Y-123980205D01*
X104743886Y-123980202D01*
X104715240Y-123972526D01*
X104629308Y-123949501D01*
X104510690Y-123949501D01*
X104441943Y-123967921D01*
X104396111Y-123980202D01*
X104396106Y-123980205D01*
X104293392Y-124039506D01*
X104293384Y-124039512D01*
X104209511Y-124123385D01*
X104209507Y-124123390D01*
X104181387Y-124172097D01*
X104130820Y-124220313D01*
X104062213Y-124233536D01*
X103997348Y-124207568D01*
X103956820Y-124150654D01*
X103950000Y-124110097D01*
X103950000Y-123320691D01*
X107489500Y-123320691D01*
X107489500Y-123439309D01*
X107520201Y-123553886D01*
X107579511Y-123656613D01*
X107663387Y-123740489D01*
X107766114Y-123799799D01*
X107880691Y-123830500D01*
X107880694Y-123830500D01*
X107999306Y-123830500D01*
X107999309Y-123830500D01*
X108113886Y-123799799D01*
X108216613Y-123740489D01*
X108300489Y-123656613D01*
X108359799Y-123553886D01*
X108390500Y-123439309D01*
X108390500Y-123320691D01*
X108359799Y-123206114D01*
X108300489Y-123103387D01*
X108216613Y-123019511D01*
X108113886Y-122960201D01*
X107999309Y-122929500D01*
X107880691Y-122929500D01*
X107766114Y-122960201D01*
X107766112Y-122960201D01*
X107766112Y-122960202D01*
X107663387Y-123019511D01*
X107663384Y-123019513D01*
X107579513Y-123103384D01*
X107579511Y-123103387D01*
X107520201Y-123206114D01*
X107489500Y-123320691D01*
X103950000Y-123320691D01*
X103950000Y-122640691D01*
X124749500Y-122640691D01*
X124749500Y-122759309D01*
X124780201Y-122873886D01*
X124839511Y-122976613D01*
X124923387Y-123060489D01*
X125026114Y-123119799D01*
X125140691Y-123150500D01*
X125140694Y-123150500D01*
X125259306Y-123150500D01*
X125259309Y-123150500D01*
X125373886Y-123119799D01*
X125476613Y-123060489D01*
X125560489Y-122976613D01*
X125619799Y-122873886D01*
X125650500Y-122759309D01*
X125650500Y-122640691D01*
X126849500Y-122640691D01*
X126849500Y-122759309D01*
X126880201Y-122873886D01*
X126939511Y-122976613D01*
X127023387Y-123060489D01*
X127126114Y-123119799D01*
X127240691Y-123150500D01*
X127240694Y-123150500D01*
X127359306Y-123150500D01*
X127359309Y-123150500D01*
X127473886Y-123119799D01*
X127576613Y-123060489D01*
X127660489Y-122976613D01*
X127719799Y-122873886D01*
X127750500Y-122759309D01*
X127750500Y-122640691D01*
X127719799Y-122526114D01*
X127660489Y-122423387D01*
X127576613Y-122339511D01*
X127473886Y-122280201D01*
X127359309Y-122249500D01*
X127240691Y-122249500D01*
X127126114Y-122280201D01*
X127126112Y-122280201D01*
X127126112Y-122280202D01*
X127023387Y-122339511D01*
X127023384Y-122339513D01*
X126939513Y-122423384D01*
X126939511Y-122423387D01*
X126880201Y-122526114D01*
X126849500Y-122640691D01*
X125650500Y-122640691D01*
X125619799Y-122526114D01*
X125560489Y-122423387D01*
X125476613Y-122339511D01*
X125373886Y-122280201D01*
X125259309Y-122249500D01*
X125140691Y-122249500D01*
X125026114Y-122280201D01*
X125026112Y-122280201D01*
X125026112Y-122280202D01*
X124923387Y-122339511D01*
X124923384Y-122339513D01*
X124839513Y-122423384D01*
X124839511Y-122423387D01*
X124780201Y-122526114D01*
X124749500Y-122640691D01*
X103950000Y-122640691D01*
X103950000Y-121711361D01*
X103958644Y-121681920D01*
X103965168Y-121651934D01*
X103968922Y-121646918D01*
X103969685Y-121644322D01*
X103986314Y-121623685D01*
X104013847Y-121596152D01*
X104075168Y-121562669D01*
X104144860Y-121567653D01*
X104200793Y-121609525D01*
X104222579Y-121663019D01*
X104222779Y-121662966D01*
X104223203Y-121664551D01*
X104224465Y-121667648D01*
X104224881Y-121670813D01*
X104224882Y-121670816D01*
X104224882Y-121670817D01*
X104255583Y-121785394D01*
X104314893Y-121888121D01*
X104398769Y-121971997D01*
X104501496Y-122031307D01*
X104616073Y-122062008D01*
X104616076Y-122062008D01*
X104734688Y-122062008D01*
X104734691Y-122062008D01*
X104849268Y-122031307D01*
X104951995Y-121971997D01*
X105035871Y-121888121D01*
X105078284Y-121814659D01*
X105128851Y-121766444D01*
X105197458Y-121753222D01*
X105217760Y-121756884D01*
X105250213Y-121765580D01*
X105250215Y-121765580D01*
X105368828Y-121765580D01*
X105368831Y-121765580D01*
X105483408Y-121734879D01*
X105586135Y-121675569D01*
X105642052Y-121619651D01*
X105703371Y-121586169D01*
X105773063Y-121591153D01*
X105791730Y-121599948D01*
X105826110Y-121619797D01*
X105826111Y-121619797D01*
X105826114Y-121619799D01*
X105940691Y-121650500D01*
X105940694Y-121650500D01*
X106059306Y-121650500D01*
X106059309Y-121650500D01*
X106173886Y-121619799D01*
X106276613Y-121560489D01*
X106360489Y-121476613D01*
X106419799Y-121373886D01*
X106450500Y-121259309D01*
X106450500Y-121140691D01*
X106419799Y-121026114D01*
X106360489Y-120923387D01*
X106276613Y-120839511D01*
X106245972Y-120821820D01*
X106241783Y-120817427D01*
X106236047Y-120815442D01*
X106217954Y-120792436D01*
X106197757Y-120771254D01*
X106196608Y-120765293D01*
X106192856Y-120760522D01*
X106190074Y-120731392D01*
X106184534Y-120702647D01*
X106186790Y-120697009D01*
X106186214Y-120690968D01*
X106199621Y-120664959D01*
X106210502Y-120637782D01*
X106216159Y-120632880D01*
X106218229Y-120628865D01*
X106245972Y-120607048D01*
X106287999Y-120582783D01*
X106355899Y-120566309D01*
X106411999Y-120582782D01*
X106476114Y-120619799D01*
X106590691Y-120650500D01*
X106590694Y-120650500D01*
X106709306Y-120650500D01*
X106709309Y-120650500D01*
X106823886Y-120619799D01*
X106926613Y-120560489D01*
X107010489Y-120476613D01*
X107069799Y-120373886D01*
X107100500Y-120259309D01*
X107100500Y-120140691D01*
X107069799Y-120026114D01*
X107010489Y-119923387D01*
X106926613Y-119839511D01*
X106823886Y-119780201D01*
X106709309Y-119749500D01*
X106590691Y-119749500D01*
X106501544Y-119773387D01*
X106476110Y-119780202D01*
X106412000Y-119817217D01*
X106344100Y-119833690D01*
X106304883Y-119825331D01*
X106296132Y-119821912D01*
X106223886Y-119780201D01*
X106113901Y-119750730D01*
X106107510Y-119748234D01*
X106085080Y-119730898D01*
X106060873Y-119716143D01*
X106057797Y-119709811D01*
X106052228Y-119705507D01*
X106042730Y-119678794D01*
X106030344Y-119653296D01*
X106031179Y-119646307D01*
X106028821Y-119639674D01*
X106035274Y-119612063D01*
X106038639Y-119583920D01*
X106043545Y-119576670D01*
X106044722Y-119571638D01*
X106051209Y-119565346D01*
X106064941Y-119545058D01*
X109823681Y-115786319D01*
X109885004Y-115752834D01*
X109911362Y-115750000D01*
X116088638Y-115750000D01*
X116155677Y-115769685D01*
X116176319Y-115786319D01*
X117670000Y-117280000D01*
X140722245Y-117280000D01*
X140789284Y-117299685D01*
X140809926Y-117316319D01*
X141264087Y-117770480D01*
X141355412Y-117823207D01*
X141457273Y-117850500D01*
X141457275Y-117850500D01*
X143112725Y-117850500D01*
X143112727Y-117850500D01*
X143214588Y-117823207D01*
X143305913Y-117770480D01*
X143760073Y-117316318D01*
X143821396Y-117282834D01*
X143847754Y-117280000D01*
X144230000Y-117280000D01*
X145823681Y-115686319D01*
X145885004Y-115652834D01*
X145911362Y-115650000D01*
X152088638Y-115650000D01*
X152155677Y-115669685D01*
G37*
%TD.AperFunction*%
%TD*%
M02*
