M48
; DRILL file {KiCad 8.0.7} date 2025-01-02T17:31:45-0800
; FORMAT={-:-/ absolute / inch / decimal}
; #@! TF.CreationDate,2025-01-02T17:31:45-08:00
; #@! TF.GenerationSoftware,Kicad,Pcbnew,8.0.7
; #@! TF.FileFunction,Plated,1,6,PTH
FMAT,2
INCH
; #@! TA.AperFunction,Plated,PTH,ViaDrill
T1C0.0118
; #@! TA.AperFunction,Plated,PTH,ComponentDrill
T2C0.0118
; #@! TA.AperFunction,Plated,PTH,ViaDrill
T3C0.0138
; #@! TA.AperFunction,Plated,PTH,ViaDrill
T4C0.0157
; #@! TA.AperFunction,Plated,PTH,ComponentDrill
T5C0.0197
; #@! TA.AperFunction,Plated,PTH,ViaDrill
T6C0.0236
; #@! TA.AperFunction,Plated,PTH,ComponentDrill
T7C0.0236
; #@! TA.AperFunction,Plated,PTH,ComponentDrill
T8C0.0394
; #@! TA.AperFunction,Plated,PTH,ComponentDrill
T9C0.0420
; #@! TA.AperFunction,Plated,PTH,ComponentDrill
T10C0.0669
; #@! TA.AperFunction,Plated,PTH,ComponentDrill
T11C0.1260
%
G90
G05
T1
X4.0079Y-5.0866
X4.0433Y-3.9606
X4.0504Y-5.1606
X4.0728Y-4.7894
X4.0862Y-4.4646
X4.0984Y-4.5256
X4.0984Y-5.1614
X4.1083Y-4.0059
X4.1211Y-4.7879
X4.126Y-4.9823
X4.137Y-5.2512
X4.1457Y-3.7362
X4.1457Y-3.7598
X4.146Y-4.7762
X4.1496Y-5.0276
X4.1504Y-4.437
X4.1555Y-4.4902
X4.1693Y-3.7362
X4.1693Y-3.7598
X4.1732Y-4.5217
X4.1732Y-4.7717
X4.1732Y-5.0039
X4.1752Y-4.5591
X4.178Y-1.815
X4.1811Y-4.4311
X4.1929Y-3.7362
X4.1929Y-3.7598
X4.1978Y-1.7402
X4.2008Y-3.5276
X4.2008Y-3.5512
X4.2087Y-5.1457
X4.2157Y-1.815
X4.2165Y-3.7362
X4.2165Y-3.7598
X4.2244Y-3.5
X4.2244Y-3.5276
X4.2244Y-3.5512
X4.2343Y-4.563
X4.2461Y-4.5177
X4.248Y-3.5
X4.248Y-3.5276
X4.248Y-3.5512
X4.252Y-4.7835
X4.2569Y-4.262
X4.2569Y-4.299
X4.2569Y-4.3337
X4.2589Y-1.7402
X4.2746Y-2.6624
X4.2972Y-4.2374
X4.3071Y-2.874
X4.315Y-2.4882
X4.3236Y-1.8898
X4.3236Y-2.5787
X4.3248Y-4.7992
X4.3268Y-3.7953
X4.3268Y-3.8189
X4.3268Y-3.8425
X4.3268Y-3.9921
X4.3268Y-4.0197
X4.3268Y-4.0472
X4.3504Y-3.7953
X4.3504Y-3.8189
X4.3504Y-3.8425
X4.3504Y-4.2283
X4.3504Y-4.2717
X4.3504Y-4.311
X4.3504Y-4.3799
X4.3504Y-4.4193
X4.3504Y-4.4587
X4.3504Y-4.498
X4.3504Y-4.5374
X4.3504Y-4.7992
X4.3504Y-5.5
X4.3504Y-5.6398
X4.3543Y-3.9921
X4.3543Y-4.0197
X4.3543Y-4.0472
X4.3583Y-1.9679
X4.3858Y-2.4193
X4.3858Y-2.815
X4.3898Y-4.2283
X4.3898Y-4.2717
X4.3898Y-4.311
X4.3898Y-4.3799
X4.3898Y-4.4193
X4.3898Y-4.4587
X4.3898Y-4.498
X4.3898Y-4.5374
X4.3902Y-5.5965
X4.3957Y-3.5276
X4.3957Y-3.5492
X4.3957Y-3.6437
X4.3957Y-3.6654
X4.4094Y-2.7795
X4.4193Y-3.5276
X4.4193Y-3.5492
X4.4193Y-3.6437
X4.4193Y-3.6654
X4.4236Y-2.4827
X4.4252Y-3.9921
X4.4252Y-4.0197
X4.4252Y-4.0472
X4.4291Y-3.7953
X4.4291Y-3.8189
X4.4291Y-3.8425
X4.4291Y-4.2283
X4.4291Y-4.2717
X4.4291Y-4.311
X4.4291Y-4.3799
X4.4291Y-4.4193
X4.4291Y-4.4587
X4.4291Y-4.498
X4.4291Y-4.5374
X4.4311Y-5.3031
X4.4311Y-5.3406
X4.4528Y-3.7953
X4.4528Y-3.8189
X4.4528Y-3.8425
X4.4528Y-3.9921
X4.4528Y-4.0197
X4.4528Y-4.0472
X4.4606Y-1.8031
X4.4606Y-3.5295
X4.4606Y-3.5512
X4.4606Y-3.6457
X4.4606Y-3.6673
X4.4685Y-4.2283
X4.4685Y-4.2717
X4.4685Y-4.311
X4.4685Y-4.3799
X4.4685Y-4.4193
X4.4685Y-4.4587
X4.4685Y-4.498
X4.4685Y-4.5374
X4.4744Y-2.4823
X4.4843Y-3.5295
X4.4843Y-3.5512
X4.4843Y-3.6457
X4.4843Y-3.6673
X4.5079Y-4.2283
X4.5079Y-4.2717
X4.5079Y-4.311
X4.5079Y-4.3799
X4.5079Y-4.4193
X4.5079Y-4.4587
X4.5079Y-4.498
X4.5079Y-4.5374
X4.5181Y-5.7378
X4.5236Y-2.4823
X4.5276Y-3.9921
X4.5276Y-4.0197
X4.5276Y-4.0472
X4.5315Y-3.5394
X4.5315Y-3.561
X4.5315Y-3.6102
X4.5315Y-3.6319
X4.5315Y-3.7953
X4.5315Y-3.8189
X4.5315Y-3.8425
X4.5335Y-3.3307
X4.5472Y-4.2283
X4.5472Y-4.2717
X4.5472Y-4.311
X4.5472Y-4.3799
X4.5472Y-4.4193
X4.5472Y-4.4587
X4.5472Y-4.498
X4.5472Y-4.5374
X4.5551Y-3.7953
X4.5551Y-3.8189
X4.5551Y-3.8425
X4.5551Y-3.9921
X4.5551Y-4.0197
X4.5551Y-4.0472
X4.5571Y-3.4409
X4.5728Y-2.4843
X4.5748Y-3.4724
X4.5748Y-3.4961
X4.5748Y-3.5197
X4.5748Y-3.5433
X4.5768Y-3.6102
X4.5768Y-3.6339
X4.5972Y-4.2354
X4.6024Y-3.4724
X4.6024Y-3.4961
X4.6024Y-3.5197
X4.6024Y-3.5433
X4.6043Y-3.4449
X4.622Y-3.6102
X4.622Y-3.6339
X4.626Y-3.374
X4.626Y-3.4232
X4.6299Y-3.4724
X4.6299Y-3.4961
X4.6299Y-3.5197
X4.6299Y-3.5433
X4.6299Y-3.7953
X4.6299Y-3.8189
X4.6299Y-3.8425
X4.6299Y-3.9921
X4.6299Y-4.0197
X4.6299Y-4.0472
X4.6319Y-3.2717
X4.6339Y-2.4449
X4.6351Y-4.3022
X4.6358Y-4.263
X4.6388Y-4.5522
X4.6417Y-4.3335
X4.6433Y-4.5059
X4.6457Y-4.4587
X4.6535Y-3.7953
X4.6535Y-3.8189
X4.6535Y-3.8425
X4.6575Y-3.1969
X4.6575Y-3.9921
X4.6575Y-4.0197
X4.6575Y-4.0472
X4.6586Y-4.483
X4.6736Y-2.4445
X4.7146Y-4.5295
X4.7283Y-3.9921
X4.7283Y-4.0197
X4.7283Y-4.0472
X4.7323Y-3.7953
X4.7323Y-3.8189
X4.7323Y-3.8425
X4.7421Y-3.1969
X4.7559Y-3.7953
X4.7559Y-3.8189
X4.7559Y-3.8425
X4.7559Y-3.9921
X4.7559Y-4.0197
X4.7559Y-4.0472
X4.811Y-3.2146
X4.8307Y-3.7953
X4.8307Y-3.8189
X4.8307Y-3.8425
X4.8307Y-3.9921
X4.8307Y-4.0197
X4.8307Y-4.0472
X4.8346Y-5.6437
X4.8504Y-4.878
X4.8543Y-3.7953
X4.8543Y-3.8189
X4.8543Y-3.8425
X4.8551Y-2.4593
X4.8583Y-3.9921
X4.8583Y-4.0197
X4.8583Y-4.0472
X4.8858Y-2.4091
X4.8858Y-3.2717
X4.8937Y-3.4724
X4.8937Y-3.5
X4.8937Y-3.5315
X4.8937Y-3.563
X4.8996Y-4.5
X4.8996Y-4.5256
X4.8996Y-4.6969
X4.8996Y-4.7224
X4.9114Y-3.4252
X4.9291Y-2.6535
X4.9449Y-3.1969
X4.9488Y-3.4803
X4.9606Y-3.5039
X4.9735Y-3.2618
X4.9764Y-3.4803
X4.9803Y-3.1969
X4.9882Y-2.6811
X4.9961Y-5.7358
X5.0Y-2.5827
X5.0115Y-3.1969
X5.0177Y-5.4843
X5.0236Y-3.5197
X5.0236Y-3.5472
X5.0236Y-3.5748
X5.0315Y-4.0197
X5.0315Y-4.0512
X5.0315Y-4.0827
X5.0551Y-3.5197
X5.0551Y-3.5472
X5.0551Y-3.5748
X5.063Y-4.0197
X5.063Y-4.0512
X5.063Y-4.0827
X5.0807Y-3.2559
X5.0866Y-3.5197
X5.0866Y-3.5472
X5.0866Y-3.5748
X5.0945Y-4.0197
X5.0945Y-4.0512
X5.0945Y-4.0827
X5.0984Y-5.0724
X5.1299Y-2.0482
X5.1358Y-4.5576
X5.1358Y-4.6299
X5.1417Y-2.5394
X5.1437Y-5.035
X5.1496Y-2.2087
X5.1496Y-2.248
X5.1496Y-2.2874
X5.1496Y-2.3268
X5.1496Y-2.3661
X5.1496Y-2.4055
X5.1496Y-2.4449
X5.1594Y-4.1909
X5.185Y-5.035
X5.189Y-2.2087
X5.189Y-2.248
X5.189Y-2.2874
X5.189Y-2.3268
X5.189Y-2.3661
X5.189Y-2.4055
X5.189Y-2.4449
X5.2Y-5.5315
X5.2136Y-5.2864
X5.2283Y-2.2087
X5.2283Y-2.248
X5.2283Y-2.2874
X5.2283Y-2.3268
X5.2283Y-2.3661
X5.2283Y-2.4055
X5.2283Y-2.4449
X5.2343Y-5.0346
X5.2382Y-4.5571
X5.2441Y-2.6791
X5.2441Y-4.7598
X5.2461Y-4.4823
X5.249Y-3.6526
X5.2677Y-2.2087
X5.2677Y-2.248
X5.2677Y-2.2874
X5.2677Y-2.3268
X5.2677Y-2.3661
X5.2677Y-2.4055
X5.2677Y-2.4449
X5.2736Y-5.5472
X5.2756Y-5.0315
X5.3071Y-3.9882
X5.3071Y-4.0157
X5.3071Y-4.0433
X5.311Y-3.7953
X5.311Y-3.8189
X5.311Y-3.8425
X5.3228Y-5.4724
X5.3346Y-3.7953
X5.3346Y-3.8189
X5.3346Y-3.8425
X5.3346Y-3.9882
X5.3346Y-4.0157
X5.3346Y-4.0433
X5.3386Y-5.3622
X5.3406Y-5.3248
X5.3535Y-5.1138
X5.3583Y-3.5335
X5.3583Y-3.5551
X5.3583Y-3.6496
X5.3583Y-3.6713
X5.3622Y-4.4626
X5.3819Y-3.5335
X5.3819Y-3.5551
X5.3819Y-3.6496
X5.3819Y-3.6713
X5.4055Y-3.9882
X5.4055Y-4.0157
X5.4055Y-4.0433
X5.4094Y-3.7953
X5.4094Y-3.8189
X5.4094Y-3.8425
X5.4213Y-3.5315
X5.4213Y-3.5531
X5.4213Y-3.6476
X5.4213Y-3.6693
X5.4291Y-3.2598
X5.4331Y-3.7953
X5.4331Y-3.8189
X5.4331Y-3.8425
X5.4331Y-3.9882
X5.4331Y-4.0157
X5.4331Y-4.0433
X5.4449Y-3.5315
X5.4449Y-3.5531
X5.4449Y-3.6476
X5.4449Y-3.6693
X5.4469Y-1.8661
X5.4498Y-3.3789
X5.4685Y-3.2638
X5.4705Y-3.1929
X5.4803Y-3.2953
X5.4882Y-3.5374
X5.4882Y-3.5591
X5.4882Y-3.6181
X5.4882Y-3.6398
X5.5016Y-4.4787
X5.5079Y-3.7953
X5.5079Y-3.8189
X5.5079Y-3.8425
X5.5079Y-3.9882
X5.5079Y-4.0157
X5.5079Y-4.0433
X5.5315Y-3.6181
X5.5315Y-3.6417
X5.5315Y-3.7953
X5.5315Y-3.8189
X5.5315Y-3.8425
X5.5354Y-3.4724
X5.5354Y-3.4961
X5.5354Y-3.5197
X5.5354Y-3.5433
X5.5354Y-3.9882
X5.5354Y-4.0157
X5.5354Y-4.0433
X5.5413Y-3.3661
X5.5472Y-3.315
X5.563Y-3.3878
X5.563Y-3.4724
X5.563Y-3.4961
X5.563Y-3.5197
X5.563Y-3.5433
X5.565Y-3.3445
X5.565Y-4.5335
X5.5669Y-4.5059
X5.5748Y-3.6181
X5.5748Y-3.6417
X5.5768Y-4.4783
X5.5797Y-3.1781
X5.5867Y-4.5547
X5.5906Y-3.4724
X5.5906Y-3.4961
X5.5906Y-3.5197
X5.5906Y-3.5433
X5.6063Y-3.7953
X5.6063Y-3.8189
X5.6063Y-3.8425
X5.6063Y-3.9882
X5.6063Y-4.0157
X5.6063Y-4.0433
X5.6102Y-3.2756
X5.6122Y-5.2756
X5.6122Y-5.3937
X5.6142Y-4.5689
X5.6201Y-3.0236
X5.6299Y-3.7953
X5.6299Y-3.8189
X5.6299Y-3.8425
X5.6339Y-2.5512
X5.6339Y-2.5827
X5.6339Y-2.6142
X5.6339Y-2.6457
X5.6339Y-2.6772
X5.6339Y-3.9882
X5.6339Y-4.0157
X5.6339Y-4.0433
X5.6467Y-2.9518
X5.6467Y-2.9754
X5.6467Y-2.999
X5.6476Y-5.3937
X5.6516Y-5.2756
X5.6535Y-5.4626
X5.6663Y-4.263
X5.6663Y-4.3
X5.6663Y-4.3376
X5.6673Y-4.5571
X5.6693Y-2.5512
X5.6693Y-2.5827
X5.6693Y-2.6142
X5.6693Y-2.6457
X5.6693Y-2.6772
X5.6742Y-2.9281
X5.6742Y-2.9518
X5.6742Y-2.9754
X5.6909Y-3.2598
X5.6929Y-5.6634
X5.6969Y-5.4173
X5.7008Y-2.5512
X5.7008Y-2.5827
X5.7008Y-2.6142
X5.7008Y-2.6457
X5.7008Y-2.6772
X5.7008Y-3.9882
X5.7008Y-4.0157
X5.7008Y-4.0433
X5.7028Y-5.3425
X5.7047Y-2.7047
X5.7047Y-3.7953
X5.7047Y-3.8189
X5.7047Y-3.8425
X5.7063Y-4.235
X5.7283Y-2.7035
X5.7283Y-3.2579
X5.7283Y-3.7953
X5.7283Y-3.8189
X5.7283Y-3.8425
X5.7283Y-3.9882
X5.7283Y-4.0157
X5.7283Y-4.0433
X5.7561Y-3.2558
X5.7677Y-4.2283
X5.7677Y-4.2717
X5.7677Y-4.311
X5.7677Y-4.3799
X5.7677Y-4.4193
X5.7677Y-4.4587
X5.7677Y-4.498
X5.7677Y-4.5374
X5.7756Y-2.7677
X5.7914Y-3.252
X5.8031Y-3.7953
X5.8031Y-3.8189
X5.8031Y-3.8425
X5.8031Y-3.9882
X5.8031Y-4.0157
X5.8031Y-4.0433
X5.8071Y-4.2283
X5.8071Y-4.2717
X5.8071Y-4.311
X5.8071Y-4.3799
X5.8071Y-4.4193
X5.8071Y-4.4587
X5.8071Y-4.498
X5.8071Y-4.5374
X5.815Y-3.1693
X5.815Y-3.2106
X5.8189Y-5.5846
X5.8258Y-2.8278
X5.8268Y-3.2579
X5.8268Y-3.7953
X5.8268Y-3.8189
X5.8268Y-3.8425
X5.8307Y-3.9882
X5.8307Y-4.0157
X5.8307Y-4.0433
X5.8465Y-4.2283
X5.8465Y-4.2717
X5.8465Y-4.311
X5.8465Y-4.3799
X5.8465Y-4.4193
X5.8465Y-4.4587
X5.8465Y-4.498
X5.8465Y-4.5374
X5.8543Y-3.4744
X5.8543Y-3.5039
X5.8543Y-3.5354
X5.8543Y-3.5669
X5.8602Y-5.6339
X5.8711Y-3.2884
X5.8758Y-3.425
X5.8858Y-4.2283
X5.8858Y-4.2717
X5.8858Y-4.311
X5.8858Y-4.3799
X5.8858Y-4.4193
X5.8858Y-4.4587
X5.8858Y-4.498
X5.8858Y-4.5374
X5.8878Y-3.313
X5.8882Y-3.3563
X5.8976Y-3.4882
X5.8996Y-2.0354
X5.8996Y-2.0709
X5.9006Y-2.9252
X5.9006Y-2.9488
X5.9006Y-2.9724
X5.9006Y-2.9961
X5.9134Y-3.5118
X5.9252Y-3.4882
X5.9252Y-4.2283
X5.9252Y-4.2717
X5.9252Y-4.311
X5.9252Y-4.3799
X5.9252Y-4.4193
X5.9252Y-4.4587
X5.9252Y-4.498
X5.9252Y-4.5374
X5.9281Y-2.9252
X5.9281Y-2.9488
X5.9281Y-2.9724
X5.9281Y-2.9961
X5.9429Y-2.0354
X5.9429Y-2.0709
X5.9508Y-2.7894
X5.9646Y-4.2283
X5.9646Y-4.2717
X5.9646Y-4.311
X5.9646Y-4.3799
X5.9646Y-4.4193
X5.9646Y-4.4587
X5.9646Y-4.498
X5.9646Y-4.5374
X5.9705Y-3.1614
X5.9803Y-3.5748
X5.9862Y-2.0354
X5.9862Y-2.0709
X5.9902Y-5.7854
X6.0079Y-2.8819
X6.0118Y-3.5197
X6.0118Y-3.5472
X6.0118Y-3.5748
X6.0157Y-4.0157
X6.0157Y-4.0472
X6.0157Y-4.0787
X6.024Y-4.2339
X6.0256Y-2.5512
X6.0256Y-2.5787
X6.0256Y-2.6063
X6.0256Y-2.6339
X6.0256Y-2.6614
X6.0295Y-2.0354
X6.0295Y-2.0709
X6.0354Y-2.8504
X6.0433Y-3.5197
X6.0433Y-3.5472
X6.0433Y-3.5748
X6.0472Y-4.0157
X6.0472Y-4.0472
X6.0472Y-4.0787
X6.0531Y-2.5512
X6.0531Y-2.5787
X6.0531Y-2.6063
X6.0531Y-2.6339
X6.0531Y-2.6614
X6.055Y-4.5552
X6.0552Y-4.5038
X6.065Y-4.262
X6.065Y-4.299
X6.065Y-4.3329
X6.0689Y-3.0039
X6.0689Y-3.0591
X6.0689Y-3.1161
X6.0709Y-2.9291
X6.0728Y-2.0354
X6.0728Y-2.0709
X6.0748Y-3.5472
X6.0748Y-3.5748
X6.0787Y-4.0157
X6.0787Y-4.0472
X6.0787Y-4.0787
X6.0906Y-3.2795
X6.0906Y-4.6417
X6.0945Y-4.5492
X6.1063Y-2.878
X6.1083Y-3.1713
X6.1161Y-2.0354
X6.1161Y-2.0709
X6.1164Y-4.5098
X6.1181Y-1.874
X6.1181Y-1.9213
X6.1347Y-4.4892
X6.1476Y-2.6102
X6.1594Y-2.0354
X6.1594Y-2.0709
X6.1732Y-3.1772
X6.2028Y-2.0354
X6.2028Y-2.0709
X6.2067Y-4.7264
X6.2087Y-4.563
X6.2106Y-4.6457
X6.2126Y-4.4016
X6.2126Y-4.4823
X6.2717Y-3.1142
X6.3268Y-4.0433
X6.3346Y-3.6102
X6.3543Y-3.1772
X6.3661Y-2.748
X6.3661Y-2.8474
X6.3661Y-2.9469
X6.3661Y-3.0472
T2
X4.7134Y-3.3799
X4.7134Y-3.435
X4.7134Y-3.4902
X4.7638Y-3.3406
X4.7638Y-3.3799
X4.7638Y-3.435
X4.7638Y-3.4902
X4.7638Y-3.5295
X4.8142Y-3.3799
X4.8142Y-3.435
X4.8142Y-3.4902
X5.672Y-3.3799
X5.672Y-3.435
X5.672Y-3.4902
X5.7224Y-3.3406
X5.7224Y-3.3799
X5.7224Y-3.435
X5.7224Y-3.4902
X5.7224Y-3.5295
X5.7728Y-3.3799
X5.7728Y-3.435
X5.7728Y-3.4902
T3
X4.4154Y-1.6063
X4.4224Y-2.1201
X4.4224Y-2.1752
X4.4224Y-2.2303
X4.4646Y-1.6063
X4.4646Y-1.7421
X4.4776Y-2.1201
X4.4776Y-2.1752
X4.4776Y-2.2303
X4.5146Y-1.7402
X4.5157Y-1.6063
X4.5327Y-2.1201
X4.5327Y-2.1752
X4.5327Y-2.2303
T4
X5.1988Y-1.8937
X5.2244Y-2.0492
X5.2461Y-1.8976
X5.2618Y-2.0335
X5.2618Y-2.0669
X5.2953Y-1.878
X5.2972Y-2.0335
X5.2972Y-2.0669
X5.2992Y-1.747
X5.4252Y-1.747
X5.5157Y-1.748
X5.5551Y-1.8287
T5
X3.9213Y-1.6339
X3.9213Y-5.7677
X3.9489Y-1.567
X3.9489Y-1.7007
X3.9489Y-5.7009
X3.9489Y-5.8345
X4.0157Y-1.5394
X4.0157Y-1.7283
X4.0157Y-5.6732
X4.0157Y-5.8622
X4.0826Y-1.567
X4.0826Y-1.7007
X4.0826Y-5.7009
X4.0826Y-5.8345
X4.1102Y-1.6339
X4.1102Y-5.7677
X6.2047Y-1.6339
X6.2047Y-5.7677
X6.2324Y-1.567
X6.2324Y-1.7007
X6.2324Y-5.7009
X6.2324Y-5.8345
X6.2992Y-1.5394
X6.2992Y-1.7283
X6.2992Y-5.6732
X6.2992Y-5.8622
X6.366Y-1.567
X6.366Y-1.7007
X6.366Y-5.7009
X6.366Y-5.8345
X6.3937Y-1.6339
X6.3937Y-5.7677
T6
X4.1732Y-2.6535
X5.3425Y-2.1358
T8
X5.124Y-1.6339
X5.224Y-1.6339
X5.324Y-1.6339
X5.424Y-1.6339
X5.524Y-1.6339
X5.624Y-1.6339
X5.8189Y-1.6965
X5.8189Y-1.8965
X5.8346Y-1.5965
X5.8346Y-1.7965
X6.3425Y-2.0571
X6.3425Y-2.4902
T9
X5.2362Y-5.7614
X5.3362Y-5.7614
X5.4362Y-5.7614
X5.5362Y-5.7614
T10
X5.9488Y-2.1752
X5.9488Y-2.372
T11
X4.0157Y-1.6339
X4.0157Y-5.7677
X6.2992Y-1.6339
X6.2992Y-5.7677
T7
G00X4.6469Y-1.5939
M15
G01X4.6469Y-1.6254
M16
G05
G00X4.6469Y-1.7526
M15
G01X4.6469Y-1.7959
M16
G05
G00X4.987Y-1.5939
M15
G01X4.987Y-1.6254
M16
G05
G00X4.987Y-1.7526
M15
G01X4.987Y-1.7959
M16
G05
M30
