%TF.GenerationSoftware,KiCad,Pcbnew,9.0.0*%
%TF.CreationDate,2025-03-16T23:20:56-04:00*%
%TF.ProjectId,BitaxeGT,42697461-7865-4475-942e-6b696361645f,v800*%
%TF.SameCoordinates,Original*%
%TF.FileFunction,Soldermask,Bot*%
%TF.FilePolarity,Negative*%
%FSLAX46Y46*%
G04 Gerber Fmt 4.6, Leading zero omitted, Abs format (unit mm)*
G04 Created by KiCad (PCBNEW 9.0.0) date 2025-03-16 23:20:56*
%MOMM*%
%LPD*%
G01*
G04 APERTURE LIST*
G04 Aperture macros list*
%AMRoundRect*
0 Rectangle with rounded corners*
0 $1 Rounding radius*
0 $2 $3 $4 $5 $6 $7 $8 $9 X,Y pos of 4 corners*
0 Add a 4 corners polygon primitive as box body*
4,1,4,$2,$3,$4,$5,$6,$7,$8,$9,$2,$3,0*
0 Add four circle primitives for the rounded corners*
1,1,$1+$1,$2,$3*
1,1,$1+$1,$4,$5*
1,1,$1+$1,$6,$7*
1,1,$1+$1,$8,$9*
0 Add four rect primitives between the rounded corners*
20,1,$1+$1,$2,$3,$4,$5,0*
20,1,$1+$1,$4,$5,$6,$7,0*
20,1,$1+$1,$6,$7,$8,$9,0*
20,1,$1+$1,$8,$9,$2,$3,0*%
%AMFreePoly0*
4,1,9,3.862500,-0.866500,0.737500,-0.866500,0.737500,-0.450000,-0.737500,-0.450000,-0.737500,0.450000,0.737500,0.450000,0.737500,0.866500,3.862500,0.866500,3.862500,-0.866500,3.862500,-0.866500,$1*%
G04 Aperture macros list end*
%ADD10C,0.000000*%
%ADD11C,0.120000*%
%ADD12R,1.700000X1.700000*%
%ADD13O,1.700000X1.700000*%
%ADD14C,3.000000*%
%ADD15C,2.000000*%
%ADD16C,0.800000*%
%ADD17C,6.400000*%
%ADD18C,1.295400*%
%ADD19C,1.574800*%
%ADD20C,1.700000*%
%ADD21RoundRect,0.135000X0.185000X-0.135000X0.185000X0.135000X-0.185000X0.135000X-0.185000X-0.135000X0*%
%ADD22RoundRect,0.140000X0.170000X-0.140000X0.170000X0.140000X-0.170000X0.140000X-0.170000X-0.140000X0*%
%ADD23RoundRect,0.140000X-0.140000X-0.170000X0.140000X-0.170000X0.140000X0.170000X-0.140000X0.170000X0*%
%ADD24RoundRect,0.135000X0.135000X0.185000X-0.135000X0.185000X-0.135000X-0.185000X0.135000X-0.185000X0*%
%ADD25C,1.000000*%
%ADD26RoundRect,0.140000X-0.170000X0.140000X-0.170000X-0.140000X0.170000X-0.140000X0.170000X0.140000X0*%
%ADD27C,0.990600*%
%ADD28C,0.787400*%
%ADD29C,6.000000*%
%ADD30RoundRect,0.250000X-0.650000X0.325000X-0.650000X-0.325000X0.650000X-0.325000X0.650000X0.325000X0*%
%ADD31RoundRect,0.225000X0.225000X0.250000X-0.225000X0.250000X-0.225000X-0.250000X0.225000X-0.250000X0*%
%ADD32RoundRect,0.225000X-0.250000X0.225000X-0.250000X-0.225000X0.250000X-0.225000X0.250000X0.225000X0*%
%ADD33R,1.300000X1.100000*%
%ADD34RoundRect,0.150000X-0.512500X-0.150000X0.512500X-0.150000X0.512500X0.150000X-0.512500X0.150000X0*%
%ADD35RoundRect,0.062500X0.337500X0.062500X-0.337500X0.062500X-0.337500X-0.062500X0.337500X-0.062500X0*%
%ADD36RoundRect,0.062500X0.062500X0.337500X-0.062500X0.337500X-0.062500X-0.337500X0.062500X-0.337500X0*%
%ADD37C,0.400000*%
%ADD38R,3.300000X5.300000*%
%ADD39C,1.500000*%
%ADD40RoundRect,0.135000X-0.135000X-0.185000X0.135000X-0.185000X0.135000X0.185000X-0.135000X0.185000X0*%
%ADD41RoundRect,0.140000X0.140000X0.170000X-0.140000X0.170000X-0.140000X-0.170000X0.140000X-0.170000X0*%
%ADD42R,0.220000X0.599999*%
%ADD43RoundRect,0.250000X0.475000X-0.250000X0.475000X0.250000X-0.475000X0.250000X-0.475000X-0.250000X0*%
%ADD44R,2.600000X4.000000*%
%ADD45C,0.650000*%
%ADD46RoundRect,0.150000X-0.150000X-0.425000X0.150000X-0.425000X0.150000X0.425000X-0.150000X0.425000X0*%
%ADD47RoundRect,0.075000X-0.075000X-0.500000X0.075000X-0.500000X0.075000X0.500000X-0.075000X0.500000X0*%
%ADD48O,1.000000X1.800000*%
%ADD49O,1.000000X2.100000*%
%ADD50RoundRect,0.135000X-0.185000X0.135000X-0.185000X-0.135000X0.185000X-0.135000X0.185000X0.135000X0*%
%ADD51RoundRect,0.250000X0.450000X-0.262500X0.450000X0.262500X-0.450000X0.262500X-0.450000X-0.262500X0*%
%ADD52RoundRect,0.100000X-0.100000X0.637500X-0.100000X-0.637500X0.100000X-0.637500X0.100000X0.637500X0*%
%ADD53RoundRect,0.225000X0.250000X-0.225000X0.250000X0.225000X-0.250000X0.225000X-0.250000X-0.225000X0*%
%ADD54RoundRect,0.250000X-1.025000X0.787500X-1.025000X-0.787500X1.025000X-0.787500X1.025000X0.787500X0*%
%ADD55R,0.900000X1.500000*%
%ADD56R,1.500000X0.900000*%
%ADD57R,0.900000X0.900000*%
%ADD58RoundRect,0.075000X-0.075000X0.350000X-0.075000X-0.350000X0.075000X-0.350000X0.075000X0.350000X0*%
%ADD59RoundRect,0.075000X-0.350000X0.075000X-0.350000X-0.075000X0.350000X-0.075000X0.350000X0.075000X0*%
%ADD60R,2.100000X2.100000*%
%ADD61RoundRect,0.225000X0.425000X0.225000X-0.425000X0.225000X-0.425000X-0.225000X0.425000X-0.225000X0*%
%ADD62FreePoly0,180.000000*%
G04 APERTURE END LIST*
D10*
%TO.C,U3*%
G36*
X136775000Y-48400001D02*
G01*
X136775000Y-48607001D01*
X136892049Y-48887930D01*
X137173001Y-49005001D01*
X137260001Y-49005001D01*
X137310003Y-49055001D01*
X137310001Y-49375000D01*
X137260001Y-49425000D01*
X136250000Y-49425000D01*
X136200000Y-49375000D01*
X136150000Y-49325000D01*
X135850001Y-49325000D01*
X135800001Y-49275001D01*
X135800001Y-49125001D01*
X135850001Y-49075001D01*
X136150000Y-49075001D01*
X136200000Y-49025001D01*
X136200000Y-48875001D01*
X136150000Y-48824999D01*
X135850001Y-48824999D01*
X135800001Y-48774999D01*
X135800001Y-48624999D01*
X135850001Y-48574999D01*
X136150000Y-48574999D01*
X136200000Y-48525000D01*
X136200000Y-48400001D01*
X136250000Y-48350001D01*
X136725001Y-48350001D01*
X136775000Y-48400001D01*
G37*
G36*
X139100000Y-48400001D02*
G01*
X139100000Y-48525000D01*
X139150000Y-48574999D01*
X139449999Y-48574999D01*
X139499999Y-48624999D01*
X139499999Y-48774999D01*
X139449999Y-48824999D01*
X139150000Y-48824999D01*
X139100000Y-48875001D01*
X139100000Y-49025001D01*
X139150000Y-49075001D01*
X139449999Y-49075001D01*
X139499999Y-49125001D01*
X139499999Y-49275001D01*
X139449999Y-49325000D01*
X139150000Y-49325000D01*
X139100000Y-49375000D01*
X139050000Y-49425000D01*
X138039999Y-49425000D01*
X137989999Y-49375000D01*
X137989997Y-49055001D01*
X138039999Y-49005001D01*
X138126999Y-49005001D01*
X138377092Y-48900788D01*
X138420806Y-48857075D01*
X138525000Y-48607001D01*
X138525000Y-48400001D01*
X138574999Y-48350001D01*
X139050000Y-48350001D01*
X139100000Y-48400001D01*
G37*
G36*
X137200001Y-49824999D02*
G01*
X137200001Y-51924998D01*
X137150004Y-51975000D01*
X136250000Y-51975000D01*
X136200000Y-51924998D01*
X136200000Y-51789999D01*
X136150000Y-51739999D01*
X135849999Y-51739999D01*
X135800001Y-51690000D01*
X135800001Y-51540000D01*
X135850001Y-51490000D01*
X136150000Y-51490000D01*
X136200000Y-51440000D01*
X136200000Y-51290000D01*
X136150000Y-51240000D01*
X135850001Y-51240000D01*
X135800001Y-51190001D01*
X135800001Y-51040001D01*
X135850001Y-50989998D01*
X136150000Y-50990001D01*
X136200000Y-50939999D01*
X136200000Y-50790001D01*
X136150000Y-50739999D01*
X135850001Y-50739999D01*
X135800001Y-50689999D01*
X135800001Y-50539999D01*
X135850001Y-50489999D01*
X136150000Y-50489999D01*
X136200000Y-50439997D01*
X136200000Y-50290000D01*
X136150000Y-50239995D01*
X135850001Y-50240000D01*
X135800001Y-50190003D01*
X135799999Y-50040000D01*
X135850001Y-49990003D01*
X136150000Y-49990000D01*
X136200000Y-49940001D01*
X136200000Y-49824999D01*
X136250003Y-49775002D01*
X137149998Y-49775000D01*
X137200001Y-49824999D01*
G37*
G36*
X139050000Y-49775002D02*
G01*
X139100000Y-49824999D01*
X139100000Y-49940001D01*
X139150000Y-49990000D01*
X139449999Y-49990003D01*
X139500001Y-50040000D01*
X139499999Y-50190003D01*
X139449999Y-50240000D01*
X139150000Y-50239997D01*
X139100000Y-50290000D01*
X139100000Y-50439997D01*
X139150000Y-50489999D01*
X139449999Y-50489999D01*
X139499999Y-50539999D01*
X139499999Y-50689999D01*
X139449999Y-50739999D01*
X139150000Y-50739999D01*
X139100000Y-50789999D01*
X139100000Y-50940001D01*
X139150000Y-50989998D01*
X139449999Y-50989998D01*
X139499999Y-51040001D01*
X139499999Y-51190001D01*
X139449999Y-51240000D01*
X139150000Y-51240000D01*
X139100000Y-51290000D01*
X139100000Y-51440000D01*
X139150000Y-51490000D01*
X139449999Y-51490000D01*
X139499999Y-51540000D01*
X139499999Y-51690000D01*
X139449999Y-51739999D01*
X139150000Y-51739999D01*
X139100000Y-51789999D01*
X139100000Y-51924998D01*
X139050000Y-51975000D01*
X138149999Y-51975000D01*
X138099999Y-51924998D01*
X138099999Y-49824999D01*
X138150002Y-49775000D01*
X139050000Y-49775002D01*
G37*
D11*
%TO.C,U6*%
X98520000Y-65750000D02*
X98520000Y-47750000D01*
%TD*%
D12*
%TO.C,J5*%
X142850000Y-41500000D03*
D13*
X140310000Y-41500000D03*
X137770000Y-41500000D03*
X135230000Y-41500000D03*
X132690000Y-41500000D03*
X130150000Y-41500000D03*
%TD*%
D14*
%TO.C,J1*%
X150350000Y-55250000D03*
X150350000Y-60250000D03*
D15*
X160350000Y-52250000D03*
X160350000Y-63250000D03*
%TD*%
D16*
%TO.C,H4*%
X99600000Y-146500000D03*
X100302944Y-144802944D03*
X100302944Y-148197056D03*
X102000000Y-144100000D03*
D17*
X102000000Y-146500000D03*
D16*
X102000000Y-148900000D03*
X103697056Y-144802944D03*
X103697056Y-148197056D03*
X104400000Y-146500000D03*
%TD*%
D18*
%TO.C,J7*%
X135540600Y-148498852D03*
D19*
X140620600Y-146338851D03*
X138080600Y-146338851D03*
X135540600Y-146338851D03*
X133000600Y-146338851D03*
%TD*%
D16*
%TO.C,H2*%
X99600000Y-41500000D03*
X100302944Y-39802944D03*
X100302944Y-43197056D03*
X102000000Y-39100000D03*
D17*
X102000000Y-41500000D03*
D16*
X102000000Y-43900000D03*
X103697056Y-39802944D03*
X103697056Y-43197056D03*
X104400000Y-41500000D03*
%TD*%
%TO.C,H3*%
X157600000Y-146500000D03*
X158302944Y-144802944D03*
X158302944Y-148197056D03*
X160000000Y-144100000D03*
D17*
X160000000Y-146500000D03*
D16*
X160000000Y-148900000D03*
X161697056Y-144802944D03*
X161697056Y-148197056D03*
X162400000Y-146500000D03*
%TD*%
D20*
%TO.C,J3*%
X148200000Y-40550000D03*
D13*
X147800000Y-43090000D03*
X148200000Y-45630000D03*
X147800000Y-48170000D03*
%TD*%
D16*
%TO.C,H1*%
X157600000Y-41500000D03*
X158302944Y-39802944D03*
X158302944Y-43197056D03*
X160000000Y-39100000D03*
D17*
X160000000Y-41500000D03*
D16*
X160000000Y-43900000D03*
X161697056Y-39802944D03*
X161697056Y-43197056D03*
X162400000Y-41500000D03*
%TD*%
D21*
%TO.C,R29*%
X134000000Y-128900000D03*
X134000000Y-127880000D03*
%TD*%
D22*
%TO.C,C17*%
X138300000Y-82080000D03*
X138300000Y-81120000D03*
%TD*%
D23*
%TO.C,C37*%
X115720000Y-86650000D03*
X116680000Y-86650000D03*
%TD*%
D24*
%TO.C,R22*%
X157400000Y-47600000D03*
X156380000Y-47600000D03*
%TD*%
D25*
%TO.C,TP6*%
X158950000Y-118000000D03*
%TD*%
%TO.C,TP20*%
X127950000Y-137400000D03*
%TD*%
D26*
%TO.C,C7*%
X150100000Y-86920000D03*
X150100000Y-87880000D03*
%TD*%
D27*
%TO.C,J8*%
X115940000Y-42465000D03*
X110860000Y-43481000D03*
X110860000Y-41449000D03*
D28*
X114670000Y-43100000D03*
X114670000Y-41830000D03*
X113400000Y-43100000D03*
X113400000Y-41830000D03*
X112130000Y-43100000D03*
X112130000Y-41830000D03*
%TD*%
D22*
%TO.C,C84*%
X143950000Y-117530000D03*
X143950000Y-116570000D03*
%TD*%
D29*
%TO.C,H6*%
X106000000Y-87000000D03*
%TD*%
%TO.C,H5*%
X156000000Y-87000000D03*
%TD*%
D25*
%TO.C,TP30*%
X156800000Y-80700000D03*
%TD*%
D30*
%TO.C,C12*%
X139800000Y-97975000D03*
X139800000Y-100925000D03*
%TD*%
%TO.C,C33*%
X114850000Y-98000000D03*
X114850000Y-100950000D03*
%TD*%
D31*
%TO.C,C49*%
X107425000Y-46150000D03*
X105875000Y-46150000D03*
%TD*%
D32*
%TO.C,C38*%
X116150000Y-109575000D03*
X116150000Y-111125000D03*
%TD*%
D30*
%TO.C,C14*%
X135200000Y-97975000D03*
X135200000Y-100925000D03*
%TD*%
D22*
%TO.C,C65*%
X107125000Y-109205000D03*
X107125000Y-108245000D03*
%TD*%
D33*
%TO.C,U8*%
X102050000Y-101750000D03*
X104350000Y-101750000D03*
X104350000Y-103650000D03*
X102050000Y-103650000D03*
%TD*%
D21*
%TO.C,R20*%
X109300000Y-142460000D03*
X109300000Y-141440000D03*
%TD*%
D34*
%TO.C,U11*%
X126875000Y-120900000D03*
X126875000Y-119950000D03*
X126875000Y-119000000D03*
X129150000Y-119000000D03*
X129150000Y-120900000D03*
%TD*%
D25*
%TO.C,TP14*%
X100900000Y-123550000D03*
%TD*%
D35*
%TO.C,U4*%
X123500000Y-84500000D03*
X123500000Y-85000000D03*
X123500000Y-85500000D03*
X123500000Y-86000000D03*
X123500000Y-86500000D03*
X123500000Y-87000000D03*
X123500000Y-87500000D03*
X123500000Y-88000000D03*
X123500000Y-88500000D03*
X123500000Y-89000000D03*
X123500000Y-89500000D03*
X123500000Y-90000000D03*
D36*
X122750000Y-90750000D03*
X122250000Y-90750000D03*
X121750000Y-90750000D03*
X121250000Y-90750000D03*
X120750000Y-90750000D03*
X120250000Y-90750000D03*
X119750000Y-90750000D03*
X119250000Y-90750000D03*
D35*
X118500000Y-90000000D03*
X118500000Y-89500000D03*
X118500000Y-89000000D03*
X118500000Y-88500000D03*
X118500000Y-88000000D03*
X118500000Y-87500000D03*
X118500000Y-87000000D03*
X118500000Y-86500000D03*
X118500000Y-86000000D03*
X118500000Y-85500000D03*
X118500000Y-85000000D03*
X118500000Y-84500000D03*
D36*
X119250000Y-83750000D03*
X119750000Y-83750000D03*
X120250000Y-83750000D03*
X120750000Y-83750000D03*
X121250000Y-83750000D03*
X121750000Y-83750000D03*
X122250000Y-83750000D03*
X122750000Y-83750000D03*
D37*
X122280000Y-88650000D03*
X122280000Y-87250000D03*
X122280000Y-85850000D03*
X121000000Y-89650000D03*
X121000000Y-88650000D03*
X121000000Y-87250000D03*
D38*
X121000000Y-87250000D03*
D37*
X121000000Y-85850000D03*
X121000000Y-84850000D03*
X119720000Y-88650000D03*
X119720000Y-87250000D03*
X119720000Y-85850000D03*
%TD*%
D25*
%TO.C,FID5*%
X106833200Y-148440000D03*
%TD*%
D22*
%TO.C,C80*%
X106000000Y-117530000D03*
X106000000Y-116570000D03*
%TD*%
%TO.C,C85*%
X142600000Y-117530000D03*
X142600000Y-116570000D03*
%TD*%
%TO.C,C75*%
X144940000Y-107310000D03*
X144940000Y-106350000D03*
%TD*%
D26*
%TO.C,C68*%
X116750000Y-106345000D03*
X116750000Y-107305000D03*
%TD*%
D39*
%TO.C,TP25*%
X161700000Y-77400000D03*
%TD*%
D32*
%TO.C,C57*%
X109800000Y-109575000D03*
X109800000Y-111125000D03*
%TD*%
D39*
%TO.C,TP28*%
X133275000Y-45775000D03*
%TD*%
D32*
%TO.C,C2*%
X141675000Y-90600000D03*
X141675000Y-92150000D03*
%TD*%
D39*
%TO.C,TP18*%
X135450000Y-120050000D03*
%TD*%
D23*
%TO.C,C53*%
X102120000Y-99500000D03*
X103080000Y-99500000D03*
%TD*%
D40*
%TO.C,R26*%
X103790000Y-114040000D03*
X104810000Y-114040000D03*
%TD*%
%TO.C,R21*%
X131090000Y-68100000D03*
X132110000Y-68100000D03*
%TD*%
D25*
%TO.C,TP21*%
X137900000Y-138950000D03*
%TD*%
D22*
%TO.C,C87*%
X155400000Y-117270000D03*
X155400000Y-116310000D03*
%TD*%
D30*
%TO.C,C11*%
X142100000Y-97975000D03*
X142100000Y-100925000D03*
%TD*%
D26*
%TO.C,C71*%
X117725000Y-109270000D03*
X117725000Y-110230000D03*
%TD*%
D40*
%TO.C,R23*%
X106890000Y-131800000D03*
X107910000Y-131800000D03*
%TD*%
%TO.C,R9*%
X154940000Y-76300000D03*
X155960000Y-76300000D03*
%TD*%
D41*
%TO.C,C20*%
X146680000Y-81550000D03*
X145720000Y-81550000D03*
%TD*%
D32*
%TO.C,C58*%
X152200000Y-109575000D03*
X152200000Y-111125000D03*
%TD*%
D39*
%TO.C,TP23*%
X161700000Y-72320000D03*
%TD*%
D40*
%TO.C,R19*%
X118290000Y-82200000D03*
X119310000Y-82200000D03*
%TD*%
D32*
%TO.C,C55*%
X112990000Y-109575000D03*
X112990000Y-111125000D03*
%TD*%
D23*
%TO.C,C92*%
X135020000Y-129890000D03*
X135980000Y-129890000D03*
%TD*%
D25*
%TO.C,TP31*%
X159300000Y-79100000D03*
%TD*%
D42*
%TO.C,U3*%
X137150001Y-48300001D03*
X137650000Y-48300001D03*
X138149999Y-48300001D03*
%TD*%
D40*
%TO.C,R8*%
X145740000Y-80500000D03*
X146760000Y-80500000D03*
%TD*%
D21*
%TO.C,R36*%
X130650000Y-128910000D03*
X130650000Y-127890000D03*
%TD*%
D26*
%TO.C,C88*%
X125212500Y-119970000D03*
X125212500Y-120930000D03*
%TD*%
D32*
%TO.C,C23*%
X117325000Y-90425000D03*
X117325000Y-91975000D03*
%TD*%
D40*
%TO.C,R13*%
X152340000Y-77700000D03*
X153360000Y-77700000D03*
%TD*%
D22*
%TO.C,C66*%
X108125000Y-108255000D03*
X108125000Y-107295000D03*
%TD*%
D30*
%TO.C,C34*%
X112550000Y-98000000D03*
X112550000Y-100950000D03*
%TD*%
D40*
%TO.C,R39*%
X153390000Y-47600000D03*
X154410000Y-47600000D03*
%TD*%
D25*
%TO.C,TP10*%
X100950000Y-117400000D03*
%TD*%
%TO.C,TP12*%
X100900000Y-120300000D03*
%TD*%
D32*
%TO.C,C60*%
X149000000Y-109575000D03*
X149000000Y-111125000D03*
%TD*%
D39*
%TO.C,TP15*%
X160700000Y-102700000D03*
%TD*%
D30*
%TO.C,C32*%
X117150000Y-98000000D03*
X117150000Y-100950000D03*
%TD*%
D32*
%TO.C,C59*%
X150600000Y-109575000D03*
X150600000Y-111125000D03*
%TD*%
D43*
%TO.C,C29*%
X127725000Y-88325000D03*
X127725000Y-86425000D03*
%TD*%
D44*
%TO.C,L1*%
X153850000Y-94425000D03*
X153850000Y-102375000D03*
%TD*%
D32*
%TO.C,C54*%
X114550000Y-109575000D03*
X114550000Y-111125000D03*
%TD*%
D25*
%TO.C,TP11*%
X141650000Y-112550000D03*
%TD*%
D44*
%TO.C,L2*%
X128500000Y-94425000D03*
X128500000Y-102375000D03*
%TD*%
D22*
%TO.C,C81*%
X107550000Y-117530000D03*
X107550000Y-116570000D03*
%TD*%
D39*
%TO.C,TP24*%
X161700000Y-74860000D03*
%TD*%
D40*
%TO.C,R18*%
X135565000Y-46650000D03*
X136585000Y-46650000D03*
%TD*%
D22*
%TO.C,C83*%
X118250000Y-117530000D03*
X118250000Y-116570000D03*
%TD*%
D32*
%TO.C,C24*%
X115850000Y-90425000D03*
X115850000Y-91975000D03*
%TD*%
D45*
%TO.C,J4*%
X119460000Y-44565000D03*
X125240000Y-44565000D03*
D46*
X119150000Y-45640000D03*
X119950000Y-45640000D03*
D47*
X121100000Y-45640000D03*
X122100000Y-45640000D03*
X122600000Y-45640000D03*
X123600000Y-45640000D03*
D46*
X125550000Y-45640000D03*
X124750000Y-45640000D03*
D47*
X124100000Y-45640000D03*
X123100000Y-45640000D03*
X121600000Y-45640000D03*
X120600000Y-45640000D03*
D48*
X118030000Y-40885000D03*
D49*
X118030000Y-45065000D03*
D48*
X126670000Y-40885000D03*
D49*
X126670000Y-45065000D03*
%TD*%
D35*
%TO.C,U1*%
X147850000Y-84500000D03*
X147850000Y-85000000D03*
X147850000Y-85500000D03*
X147850000Y-86000000D03*
X147850000Y-86500000D03*
X147850000Y-87000000D03*
X147850000Y-87500000D03*
X147850000Y-88000000D03*
X147850000Y-88500000D03*
X147850000Y-89000000D03*
X147850000Y-89500000D03*
X147850000Y-90000000D03*
D36*
X147100000Y-90750000D03*
X146600000Y-90750000D03*
X146100000Y-90750000D03*
X145600000Y-90750000D03*
X145100000Y-90750000D03*
X144600000Y-90750000D03*
X144100000Y-90750000D03*
X143600000Y-90750000D03*
D35*
X142850000Y-90000000D03*
X142850000Y-89500000D03*
X142850000Y-89000000D03*
X142850000Y-88500000D03*
X142850000Y-88000000D03*
X142850000Y-87500000D03*
X142850000Y-87000000D03*
X142850000Y-86500000D03*
X142850000Y-86000000D03*
X142850000Y-85500000D03*
X142850000Y-85000000D03*
X142850000Y-84500000D03*
D36*
X143600000Y-83750000D03*
X144100000Y-83750000D03*
X144600000Y-83750000D03*
X145100000Y-83750000D03*
X145600000Y-83750000D03*
X146100000Y-83750000D03*
X146600000Y-83750000D03*
X147100000Y-83750000D03*
D37*
X146630000Y-88650000D03*
X146630000Y-87250000D03*
X146630000Y-85850000D03*
X145350000Y-89650000D03*
X145350000Y-88650000D03*
X145350000Y-87250000D03*
D38*
X145350000Y-87250000D03*
D37*
X145350000Y-85850000D03*
X145350000Y-84850000D03*
X144070000Y-88650000D03*
X144070000Y-87250000D03*
X144070000Y-85850000D03*
%TD*%
D25*
%TO.C,TP8*%
X159000000Y-113850000D03*
%TD*%
D24*
%TO.C,R40*%
X157410000Y-48800000D03*
X156390000Y-48800000D03*
%TD*%
%TO.C,R4*%
X138260000Y-83700000D03*
X137240000Y-83700000D03*
%TD*%
D22*
%TO.C,C67*%
X109150000Y-107330000D03*
X109150000Y-106370000D03*
%TD*%
D23*
%TO.C,C46*%
X137820000Y-62700000D03*
X138780000Y-62700000D03*
%TD*%
D21*
%TO.C,R32*%
X132950000Y-128900000D03*
X132950000Y-127880000D03*
%TD*%
%TO.C,R34*%
X131700000Y-128910000D03*
X131700000Y-127890000D03*
%TD*%
D26*
%TO.C,C90*%
X125262500Y-114820000D03*
X125262500Y-115780000D03*
%TD*%
D50*
%TO.C,R35*%
X129500000Y-128840000D03*
X129500000Y-129860000D03*
%TD*%
D21*
%TO.C,R33*%
X128450000Y-129860000D03*
X128450000Y-128840000D03*
%TD*%
D24*
%TO.C,R30*%
X132110000Y-139300000D03*
X131090000Y-139300000D03*
%TD*%
D51*
%TO.C,R2*%
X151625000Y-84437500D03*
X151625000Y-82612500D03*
%TD*%
D39*
%TO.C,TP17*%
X160900000Y-91700000D03*
%TD*%
D23*
%TO.C,C47*%
X137570000Y-55450000D03*
X138530000Y-55450000D03*
%TD*%
D21*
%TO.C,R1*%
X142600000Y-82510000D03*
X142600000Y-81490000D03*
%TD*%
D52*
%TO.C,U7*%
X103425000Y-123425000D03*
X104075000Y-123425000D03*
X104725000Y-123425000D03*
X105375000Y-123425000D03*
X106025000Y-123425000D03*
X106675000Y-123425000D03*
X107325000Y-123425000D03*
X107975000Y-123425000D03*
X107975000Y-129150000D03*
X107325000Y-129150000D03*
X106675000Y-129150000D03*
X106025000Y-129150000D03*
X105375000Y-129150000D03*
X104725000Y-129150000D03*
X104075000Y-129150000D03*
X103425000Y-129150000D03*
%TD*%
D22*
%TO.C,C64*%
X108125000Y-110155000D03*
X108125000Y-109195000D03*
%TD*%
D26*
%TO.C,C15*%
X141050000Y-81920000D03*
X141050000Y-82880000D03*
%TD*%
D25*
%TO.C,TP9*%
X159000000Y-111800000D03*
%TD*%
D26*
%TO.C,C70*%
X118775000Y-108395000D03*
X118775000Y-109355000D03*
%TD*%
%TO.C,C78*%
X155050000Y-108170000D03*
X155050000Y-109130000D03*
%TD*%
D34*
%TO.C,U12*%
X126875000Y-115762500D03*
X126875000Y-114812500D03*
X126875000Y-113862500D03*
X129150000Y-113862500D03*
X129150000Y-115762500D03*
%TD*%
D25*
%TO.C,TP13*%
X139700000Y-115950000D03*
%TD*%
D26*
%TO.C,C19*%
X150150000Y-82220000D03*
X150150000Y-83180000D03*
%TD*%
D50*
%TO.C,R5*%
X139600000Y-81140000D03*
X139600000Y-82160000D03*
%TD*%
D25*
%TO.C,FID4*%
X107652800Y-39782000D03*
%TD*%
D39*
%TO.C,TP19*%
X133262500Y-117600000D03*
%TD*%
D26*
%TO.C,C76*%
X153010000Y-106310000D03*
X153010000Y-107270000D03*
%TD*%
D22*
%TO.C,C74*%
X143925000Y-108280000D03*
X143925000Y-107320000D03*
%TD*%
D32*
%TO.C,C62*%
X145800000Y-109575000D03*
X145800000Y-111125000D03*
%TD*%
D53*
%TO.C,C39*%
X140925000Y-48675000D03*
X140925000Y-47125000D03*
%TD*%
D32*
%TO.C,C56*%
X111400000Y-109575000D03*
X111400000Y-111125000D03*
%TD*%
D51*
%TO.C,R15*%
X127725000Y-84912500D03*
X127725000Y-83087500D03*
%TD*%
D25*
%TO.C,TP7*%
X159000000Y-115900000D03*
%TD*%
D26*
%TO.C,C48*%
X109300000Y-143970000D03*
X109300000Y-144930000D03*
%TD*%
D40*
%TO.C,R31*%
X133240000Y-137700000D03*
X134260000Y-137700000D03*
%TD*%
D54*
%TO.C,C1*%
X136325000Y-87962500D03*
X136325000Y-94187500D03*
%TD*%
D26*
%TO.C,C79*%
X154050000Y-109195000D03*
X154050000Y-110155000D03*
%TD*%
D32*
%TO.C,C61*%
X147400000Y-109575000D03*
X147400000Y-111125000D03*
%TD*%
D40*
%TO.C,R10*%
X154940000Y-77700000D03*
X155960000Y-77700000D03*
%TD*%
%TO.C,R7*%
X154940000Y-79150000D03*
X155960000Y-79150000D03*
%TD*%
D39*
%TO.C,TP27*%
X139750000Y-53900000D03*
%TD*%
D55*
%TO.C,U6*%
X106010000Y-48000000D03*
X107280000Y-48000000D03*
X108550000Y-48000000D03*
X109820000Y-48000000D03*
X111090000Y-48000000D03*
X112360000Y-48000000D03*
X113630000Y-48000000D03*
X114900000Y-48000000D03*
X116170000Y-48000000D03*
X117440000Y-48000000D03*
X118710000Y-48000000D03*
X119980000Y-48000000D03*
X121250000Y-48000000D03*
X122520000Y-48000000D03*
D56*
X123770000Y-49765000D03*
X123770000Y-51035000D03*
X123770000Y-52305000D03*
X123770000Y-53575000D03*
X123770000Y-54845000D03*
X123770000Y-56115000D03*
X123770000Y-57385000D03*
X123770000Y-58655000D03*
X123770000Y-59925000D03*
X123770000Y-61195000D03*
X123770000Y-62465000D03*
X123770000Y-63735000D03*
D55*
X122520000Y-65500000D03*
X121250000Y-65500000D03*
X119980000Y-65500000D03*
X118710000Y-65500000D03*
X117440000Y-65500000D03*
X116170000Y-65500000D03*
X114900000Y-65500000D03*
X113630000Y-65500000D03*
X112360000Y-65500000D03*
X111090000Y-65500000D03*
X109820000Y-65500000D03*
X108550000Y-65500000D03*
X107280000Y-65500000D03*
X106010000Y-65500000D03*
D57*
X115130000Y-53850000D03*
X113730000Y-53850000D03*
X112330000Y-53850000D03*
X115130000Y-55250000D03*
X113730000Y-55250000D03*
X112330000Y-55250000D03*
X115130000Y-56650000D03*
X113730000Y-56650000D03*
X112330000Y-56650000D03*
%TD*%
D32*
%TO.C,C3*%
X140200000Y-90600000D03*
X140200000Y-92150000D03*
%TD*%
D26*
%TO.C,C28*%
X126000000Y-86870000D03*
X126000000Y-87830000D03*
%TD*%
D41*
%TO.C,C91*%
X132230000Y-115750000D03*
X131270000Y-115750000D03*
%TD*%
D30*
%TO.C,C31*%
X119450000Y-98000000D03*
X119450000Y-100950000D03*
%TD*%
D24*
%TO.C,R11*%
X153375000Y-79150000D03*
X152355000Y-79150000D03*
%TD*%
D53*
%TO.C,C41*%
X143150000Y-136975000D03*
X143150000Y-135425000D03*
%TD*%
%TO.C,C44*%
X132975000Y-50575000D03*
X132975000Y-49025000D03*
%TD*%
D41*
%TO.C,C45*%
X121380000Y-82250000D03*
X120420000Y-82250000D03*
%TD*%
D40*
%TO.C,R12*%
X152340000Y-76300000D03*
X153360000Y-76300000D03*
%TD*%
D22*
%TO.C,C18*%
X144250000Y-81480000D03*
X144250000Y-80520000D03*
%TD*%
D39*
%TO.C,TP22*%
X161700000Y-69780000D03*
%TD*%
D30*
%TO.C,C9*%
X146700000Y-97975000D03*
X146700000Y-100925000D03*
%TD*%
D41*
%TO.C,C93*%
X133930000Y-129900000D03*
X132970000Y-129900000D03*
%TD*%
D25*
%TO.C,FID6*%
X154700000Y-148500000D03*
%TD*%
D58*
%TO.C,U13*%
X131450000Y-132325000D03*
X132100000Y-132325000D03*
X132750000Y-132325000D03*
X133400000Y-132325000D03*
D59*
X134375000Y-133300000D03*
X134375000Y-133950000D03*
X134375000Y-134600000D03*
X134375000Y-135250000D03*
D58*
X133400000Y-136225000D03*
X132750000Y-136225000D03*
X132100000Y-136225000D03*
X131450000Y-136225000D03*
D59*
X130475000Y-135250000D03*
X130475000Y-134600000D03*
X130475000Y-133950000D03*
X130475000Y-133300000D03*
D60*
X132425000Y-134275000D03*
%TD*%
D22*
%TO.C,C72*%
X143925000Y-110180000D03*
X143925000Y-109220000D03*
%TD*%
%TO.C,C86*%
X154200000Y-117270000D03*
X154200000Y-116310000D03*
%TD*%
D30*
%TO.C,C13*%
X137500000Y-97975000D03*
X137500000Y-100925000D03*
%TD*%
D50*
%TO.C,R6*%
X127000000Y-63690000D03*
X127000000Y-64710000D03*
%TD*%
D54*
%TO.C,C22*%
X112475000Y-88187500D03*
X112475000Y-94412500D03*
%TD*%
D29*
%TO.C,H8*%
X156000000Y-137000000D03*
%TD*%
D30*
%TO.C,C10*%
X144400000Y-97975000D03*
X144400000Y-100925000D03*
%TD*%
D23*
%TO.C,C94*%
X131120000Y-140500000D03*
X132080000Y-140500000D03*
%TD*%
D30*
%TO.C,C35*%
X110237500Y-98000000D03*
X110237500Y-100950000D03*
%TD*%
D22*
%TO.C,C73*%
X142900000Y-109380000D03*
X142900000Y-108420000D03*
%TD*%
D26*
%TO.C,C36*%
X116650000Y-82920000D03*
X116650000Y-83880000D03*
%TD*%
D39*
%TO.C,TP26*%
X130250000Y-52050000D03*
%TD*%
D40*
%TO.C,R28*%
X139740000Y-114450000D03*
X140760000Y-114450000D03*
%TD*%
%TO.C,R16*%
X114840000Y-85450000D03*
X115860000Y-85450000D03*
%TD*%
%TO.C,R38*%
X153390000Y-48800000D03*
X154410000Y-48800000D03*
%TD*%
%TO.C,R17*%
X138290000Y-46600000D03*
X139310000Y-46600000D03*
%TD*%
D25*
%TO.C,TP16*%
X139650000Y-118000000D03*
%TD*%
D40*
%TO.C,R3*%
X137240000Y-84900000D03*
X138260000Y-84900000D03*
%TD*%
D25*
%TO.C,TP5*%
X158900000Y-120050000D03*
%TD*%
D26*
%TO.C,C16*%
X139750000Y-84420000D03*
X139750000Y-85380000D03*
%TD*%
D29*
%TO.C,H7*%
X106000000Y-137000000D03*
%TD*%
D25*
%TO.C,TP1*%
X153400000Y-81100000D03*
%TD*%
D40*
%TO.C,R37*%
X131090000Y-66600000D03*
X132110000Y-66600000D03*
%TD*%
%TO.C,R24*%
X103790000Y-112750000D03*
X104810000Y-112750000D03*
%TD*%
D43*
%TO.C,C8*%
X151625000Y-87875000D03*
X151625000Y-85975000D03*
%TD*%
D41*
%TO.C,C89*%
X132280000Y-120900000D03*
X131320000Y-120900000D03*
%TD*%
D26*
%TO.C,C69*%
X117750000Y-107320000D03*
X117750000Y-108280000D03*
%TD*%
D40*
%TO.C,R27*%
X134190000Y-113850000D03*
X135210000Y-113850000D03*
%TD*%
D26*
%TO.C,C42*%
X125700000Y-84020000D03*
X125700000Y-84980000D03*
%TD*%
D25*
%TO.C,TP4*%
X104400000Y-105500000D03*
%TD*%
D26*
%TO.C,C77*%
X154050000Y-107295000D03*
X154050000Y-108255000D03*
%TD*%
D41*
%TO.C,C95*%
X131680000Y-129900000D03*
X130720000Y-129900000D03*
%TD*%
D22*
%TO.C,C51*%
X101800000Y-131080000D03*
X101800000Y-130120000D03*
%TD*%
D30*
%TO.C,C30*%
X121750000Y-98000000D03*
X121750000Y-100950000D03*
%TD*%
D22*
%TO.C,C82*%
X119750000Y-117530000D03*
X119750000Y-116570000D03*
%TD*%
D26*
%TO.C,C52*%
X104100000Y-131120000D03*
X104100000Y-132080000D03*
%TD*%
D61*
%TO.C,U5*%
X138750000Y-57537500D03*
D62*
X138662500Y-59037500D03*
D61*
X138750000Y-60537500D03*
%TD*%
D25*
%TO.C,TP3*%
X161400000Y-80700000D03*
%TD*%
D53*
%TO.C,C43*%
X134525000Y-50575000D03*
X134525000Y-49025000D03*
%TD*%
M02*
