%TF.GenerationSoftware,KiCad,Pcbnew,8.0.7*%
%TF.CreationDate,2025-02-10T22:40:20-05:00*%
%TF.ProjectId,BitaxeGT,42697461-7865-4475-942e-6b696361645f,v800*%
%TF.SameCoordinates,Original*%
%TF.FileFunction,Paste,Top*%
%TF.FilePolarity,Positive*%
%FSLAX46Y46*%
G04 Gerber Fmt 4.6, Leading zero omitted, Abs format (unit mm)*
G04 Created by KiCad (PCBNEW 8.0.7) date 2025-02-10 22:40:20*
%MOMM*%
%LPD*%
G01*
G04 APERTURE LIST*
G04 Aperture macros list*
%AMRoundRect*
0 Rectangle with rounded corners*
0 $1 Rounding radius*
0 $2 $3 $4 $5 $6 $7 $8 $9 X,Y pos of 4 corners*
0 Add a 4 corners polygon primitive as box body*
4,1,4,$2,$3,$4,$5,$6,$7,$8,$9,$2,$3,0*
0 Add four circle primitives for the rounded corners*
1,1,$1+$1,$2,$3*
1,1,$1+$1,$4,$5*
1,1,$1+$1,$6,$7*
1,1,$1+$1,$8,$9*
0 Add four rect primitives between the rounded corners*
20,1,$1+$1,$2,$3,$4,$5,0*
20,1,$1+$1,$4,$5,$6,$7,0*
20,1,$1+$1,$6,$7,$8,$9,0*
20,1,$1+$1,$8,$9,$2,$3,0*%
G04 Aperture macros list end*
%ADD10C,0.001000*%
%ADD11R,0.900000X1.800000*%
%ADD12RoundRect,0.055250X-0.340750X-0.055250X0.340750X-0.055250X0.340750X0.055250X-0.340750X0.055250X0*%
G04 APERTURE END LIST*
%TO.C,U9*%
D10*
X111420000Y-111865000D02*
X110220000Y-111865000D01*
X110220000Y-110915000D01*
X111420000Y-110915000D01*
X111420000Y-111865000D01*
G36*
X111420000Y-111865000D02*
G01*
X110220000Y-111865000D01*
X110220000Y-110915000D01*
X111420000Y-110915000D01*
X111420000Y-111865000D01*
G37*
X111430000Y-113695000D02*
X110230000Y-113695000D01*
X110230000Y-112745000D01*
X111430000Y-112745000D01*
X111430000Y-113695000D01*
G36*
X111430000Y-113695000D02*
G01*
X110230000Y-113695000D01*
X110230000Y-112745000D01*
X111430000Y-112745000D01*
X111430000Y-113695000D01*
G37*
X111440000Y-115555000D02*
X110240000Y-115555000D01*
X110240000Y-114605000D01*
X111440000Y-114605000D01*
X111440000Y-115555000D01*
G36*
X111440000Y-115555000D02*
G01*
X110240000Y-115555000D01*
X110240000Y-114605000D01*
X111440000Y-114605000D01*
X111440000Y-115555000D01*
G37*
X111460000Y-109660000D02*
X110260000Y-109660000D01*
X110260000Y-108540000D01*
X111460000Y-108540000D01*
X111460000Y-109660000D01*
G36*
X111460000Y-109660000D02*
G01*
X110260000Y-109660000D01*
X110260000Y-108540000D01*
X111460000Y-108540000D01*
X111460000Y-109660000D01*
G37*
X113600000Y-109650000D02*
X112400000Y-109650000D01*
X112400000Y-108540000D01*
X113600000Y-108540000D01*
X113600000Y-109650000D01*
G36*
X113600000Y-109650000D02*
G01*
X112400000Y-109650000D01*
X112400000Y-108540000D01*
X113600000Y-108540000D01*
X113600000Y-109650000D01*
G37*
X113630000Y-111875000D02*
X112430000Y-111875000D01*
X112430000Y-110925000D01*
X113630000Y-110925000D01*
X113630000Y-111875000D01*
G36*
X113630000Y-111875000D02*
G01*
X112430000Y-111875000D01*
X112430000Y-110925000D01*
X113630000Y-110925000D01*
X113630000Y-111875000D01*
G37*
X113640000Y-113705000D02*
X112440000Y-113705000D01*
X112440000Y-112755000D01*
X113640000Y-112755000D01*
X113640000Y-113705000D01*
G36*
X113640000Y-113705000D02*
G01*
X112440000Y-113705000D01*
X112440000Y-112755000D01*
X113640000Y-112755000D01*
X113640000Y-113705000D01*
G37*
X113650000Y-115565000D02*
X112450000Y-115565000D01*
X112450000Y-114615000D01*
X113650000Y-114615000D01*
X113650000Y-115565000D01*
G36*
X113650000Y-115565000D02*
G01*
X112450000Y-115565000D01*
X112450000Y-114615000D01*
X113650000Y-114615000D01*
X113650000Y-115565000D01*
G37*
X115780000Y-109630000D02*
X114580000Y-109630000D01*
X114580000Y-108520000D01*
X115780000Y-108520000D01*
X115780000Y-109630000D01*
G36*
X115780000Y-109630000D02*
G01*
X114580000Y-109630000D01*
X114580000Y-108520000D01*
X115780000Y-108520000D01*
X115780000Y-109630000D01*
G37*
X115780000Y-111875000D02*
X114580000Y-111875000D01*
X114580000Y-110925000D01*
X115780000Y-110925000D01*
X115780000Y-111875000D01*
G36*
X115780000Y-111875000D02*
G01*
X114580000Y-111875000D01*
X114580000Y-110925000D01*
X115780000Y-110925000D01*
X115780000Y-111875000D01*
G37*
X115790000Y-113705000D02*
X114590000Y-113705000D01*
X114590000Y-112755000D01*
X115790000Y-112755000D01*
X115790000Y-113705000D01*
G36*
X115790000Y-113705000D02*
G01*
X114590000Y-113705000D01*
X114590000Y-112755000D01*
X115790000Y-112755000D01*
X115790000Y-113705000D01*
G37*
X115800000Y-115565000D02*
X114600000Y-115565000D01*
X114600000Y-114615000D01*
X115800000Y-114615000D01*
X115800000Y-115565000D01*
G36*
X115800000Y-115565000D02*
G01*
X114600000Y-115565000D01*
X114600000Y-114615000D01*
X115800000Y-114615000D01*
X115800000Y-115565000D01*
G37*
%TO.C,U10*%
X147420000Y-111865000D02*
X146220000Y-111865000D01*
X146220000Y-110915000D01*
X147420000Y-110915000D01*
X147420000Y-111865000D01*
G36*
X147420000Y-111865000D02*
G01*
X146220000Y-111865000D01*
X146220000Y-110915000D01*
X147420000Y-110915000D01*
X147420000Y-111865000D01*
G37*
X147430000Y-113695000D02*
X146230000Y-113695000D01*
X146230000Y-112745000D01*
X147430000Y-112745000D01*
X147430000Y-113695000D01*
G36*
X147430000Y-113695000D02*
G01*
X146230000Y-113695000D01*
X146230000Y-112745000D01*
X147430000Y-112745000D01*
X147430000Y-113695000D01*
G37*
X147440000Y-115555000D02*
X146240000Y-115555000D01*
X146240000Y-114605000D01*
X147440000Y-114605000D01*
X147440000Y-115555000D01*
G36*
X147440000Y-115555000D02*
G01*
X146240000Y-115555000D01*
X146240000Y-114605000D01*
X147440000Y-114605000D01*
X147440000Y-115555000D01*
G37*
X147460000Y-109660000D02*
X146260000Y-109660000D01*
X146260000Y-108540000D01*
X147460000Y-108540000D01*
X147460000Y-109660000D01*
G36*
X147460000Y-109660000D02*
G01*
X146260000Y-109660000D01*
X146260000Y-108540000D01*
X147460000Y-108540000D01*
X147460000Y-109660000D01*
G37*
X149600000Y-109650000D02*
X148400000Y-109650000D01*
X148400000Y-108540000D01*
X149600000Y-108540000D01*
X149600000Y-109650000D01*
G36*
X149600000Y-109650000D02*
G01*
X148400000Y-109650000D01*
X148400000Y-108540000D01*
X149600000Y-108540000D01*
X149600000Y-109650000D01*
G37*
X149630000Y-111875000D02*
X148430000Y-111875000D01*
X148430000Y-110925000D01*
X149630000Y-110925000D01*
X149630000Y-111875000D01*
G36*
X149630000Y-111875000D02*
G01*
X148430000Y-111875000D01*
X148430000Y-110925000D01*
X149630000Y-110925000D01*
X149630000Y-111875000D01*
G37*
X149640000Y-113705000D02*
X148440000Y-113705000D01*
X148440000Y-112755000D01*
X149640000Y-112755000D01*
X149640000Y-113705000D01*
G36*
X149640000Y-113705000D02*
G01*
X148440000Y-113705000D01*
X148440000Y-112755000D01*
X149640000Y-112755000D01*
X149640000Y-113705000D01*
G37*
X149650000Y-115565000D02*
X148450000Y-115565000D01*
X148450000Y-114615000D01*
X149650000Y-114615000D01*
X149650000Y-115565000D01*
G36*
X149650000Y-115565000D02*
G01*
X148450000Y-115565000D01*
X148450000Y-114615000D01*
X149650000Y-114615000D01*
X149650000Y-115565000D01*
G37*
X151780000Y-109630000D02*
X150580000Y-109630000D01*
X150580000Y-108520000D01*
X151780000Y-108520000D01*
X151780000Y-109630000D01*
G36*
X151780000Y-109630000D02*
G01*
X150580000Y-109630000D01*
X150580000Y-108520000D01*
X151780000Y-108520000D01*
X151780000Y-109630000D01*
G37*
X151780000Y-111875000D02*
X150580000Y-111875000D01*
X150580000Y-110925000D01*
X151780000Y-110925000D01*
X151780000Y-111875000D01*
G36*
X151780000Y-111875000D02*
G01*
X150580000Y-111875000D01*
X150580000Y-110925000D01*
X151780000Y-110925000D01*
X151780000Y-111875000D01*
G37*
X151790000Y-113705000D02*
X150590000Y-113705000D01*
X150590000Y-112755000D01*
X151790000Y-112755000D01*
X151790000Y-113705000D01*
G36*
X151790000Y-113705000D02*
G01*
X150590000Y-113705000D01*
X150590000Y-112755000D01*
X151790000Y-112755000D01*
X151790000Y-113705000D01*
G37*
X151800000Y-115565000D02*
X150600000Y-115565000D01*
X150600000Y-114615000D01*
X151800000Y-114615000D01*
X151800000Y-115565000D01*
G36*
X151800000Y-115565000D02*
G01*
X150600000Y-115565000D01*
X150600000Y-114615000D01*
X151800000Y-114615000D01*
X151800000Y-115565000D01*
G37*
%TD*%
D11*
%TO.C,SW2*%
X122790000Y-145690000D03*
X126900000Y-145690000D03*
%TD*%
D12*
%TO.C,U9*%
X109084000Y-108486000D03*
X109084000Y-108988000D03*
X109084000Y-109490000D03*
X109084000Y-109992000D03*
X109084000Y-110494000D03*
X109084000Y-110996000D03*
X109084000Y-111498000D03*
X109084000Y-112000000D03*
X109084000Y-112502000D03*
X109084000Y-113004000D03*
X109084000Y-113506000D03*
X109084000Y-114008000D03*
X109084000Y-114510000D03*
X109084000Y-115012000D03*
X109084000Y-115514000D03*
X116916000Y-115514000D03*
X116916000Y-115012000D03*
X116916000Y-114510000D03*
X116916000Y-114008000D03*
X116916000Y-113506000D03*
X116916000Y-113004000D03*
X116916000Y-112502000D03*
X116916000Y-112000000D03*
X116916000Y-111498000D03*
X116916000Y-110996000D03*
X116916000Y-110494000D03*
X116916000Y-109992000D03*
X116916000Y-109490000D03*
X116916000Y-108988000D03*
X116916000Y-108486000D03*
%TD*%
D11*
%TO.C,SW1*%
X114760000Y-145740000D03*
X110650000Y-145740000D03*
%TD*%
D12*
%TO.C,U10*%
X145084000Y-108486000D03*
X145084000Y-108988000D03*
X145084000Y-109490000D03*
X145084000Y-109992000D03*
X145084000Y-110494000D03*
X145084000Y-110996000D03*
X145084000Y-111498000D03*
X145084000Y-112000000D03*
X145084000Y-112502000D03*
X145084000Y-113004000D03*
X145084000Y-113506000D03*
X145084000Y-114008000D03*
X145084000Y-114510000D03*
X145084000Y-115012000D03*
X145084000Y-115514000D03*
X152916000Y-115514000D03*
X152916000Y-115012000D03*
X152916000Y-114510000D03*
X152916000Y-114008000D03*
X152916000Y-113506000D03*
X152916000Y-113004000D03*
X152916000Y-112502000D03*
X152916000Y-112000000D03*
X152916000Y-111498000D03*
X152916000Y-110996000D03*
X152916000Y-110494000D03*
X152916000Y-109992000D03*
X152916000Y-109490000D03*
X152916000Y-108988000D03*
X152916000Y-108486000D03*
%TD*%
M02*
