%TF.GenerationSoftware,KiCad,Pcbnew,8.0.7*%
%TF.CreationDate,2025-02-10T22:40:20-05:00*%
%TF.ProjectId,BitaxeGT,42697461-7865-4475-942e-6b696361645f,v800*%
%TF.SameCoordinates,Original*%
%TF.FileFunction,Copper,L3,Inr*%
%TF.FilePolarity,Positive*%
%FSLAX46Y46*%
G04 Gerber Fmt 4.6, Leading zero omitted, Abs format (unit mm)*
G04 Created by KiCad (PCBNEW 8.0.7) date 2025-02-10 22:40:20*
%MOMM*%
%LPD*%
G01*
G04 APERTURE LIST*
%TA.AperFunction,ComponentPad*%
%ADD10C,6.000000*%
%TD*%
%TA.AperFunction,ComponentPad*%
%ADD11C,0.800000*%
%TD*%
%TA.AperFunction,ComponentPad*%
%ADD12C,6.400000*%
%TD*%
%TA.AperFunction,ComponentPad*%
%ADD13R,1.700000X1.700000*%
%TD*%
%TA.AperFunction,ComponentPad*%
%ADD14O,1.700000X1.700000*%
%TD*%
%TA.AperFunction,ComponentPad*%
%ADD15C,3.000000*%
%TD*%
%TA.AperFunction,ComponentPad*%
%ADD16C,2.000000*%
%TD*%
%TA.AperFunction,ComponentPad*%
%ADD17C,1.574800*%
%TD*%
%TA.AperFunction,ComponentPad*%
%ADD18C,1.700000*%
%TD*%
%TA.AperFunction,ComponentPad*%
%ADD19C,0.400000*%
%TD*%
%TA.AperFunction,ComponentPad*%
%ADD20O,1.000000X2.100000*%
%TD*%
%TA.AperFunction,ComponentPad*%
%ADD21O,1.000000X1.800000*%
%TD*%
%TA.AperFunction,ViaPad*%
%ADD22C,0.500000*%
%TD*%
%TA.AperFunction,ViaPad*%
%ADD23C,0.600000*%
%TD*%
%TA.AperFunction,ViaPad*%
%ADD24C,1.000000*%
%TD*%
%TA.AperFunction,ViaPad*%
%ADD25C,0.800000*%
%TD*%
%TA.AperFunction,ViaPad*%
%ADD26C,0.700000*%
%TD*%
%TA.AperFunction,ViaPad*%
%ADD27C,0.400000*%
%TD*%
%TA.AperFunction,Conductor*%
%ADD28C,0.400000*%
%TD*%
%TA.AperFunction,Conductor*%
%ADD29C,0.200000*%
%TD*%
G04 APERTURE END LIST*
D10*
%TO.N,unconnected-(H5-Pad1)*%
%TO.C,H5*%
X156000000Y-87000000D03*
%TD*%
%TO.N,unconnected-(H8-Pad1)*%
%TO.C,H8*%
X156000000Y-137000000D03*
%TD*%
%TO.N,unconnected-(H7-Pad1)*%
%TO.C,H7*%
X106000000Y-137000000D03*
%TD*%
%TO.N,unconnected-(H6-Pad1)*%
%TO.C,H6*%
X106000000Y-87000000D03*
%TD*%
D11*
%TO.N,GND*%
%TO.C,H4*%
X99600000Y-146500000D03*
X100302944Y-144802944D03*
X100302944Y-148197056D03*
X102000000Y-144100000D03*
D12*
X102000000Y-146500000D03*
D11*
X102000000Y-148900000D03*
X103697056Y-144802944D03*
X103697056Y-148197056D03*
X104400000Y-146500000D03*
%TD*%
%TO.N,GND*%
%TO.C,H2*%
X99600000Y-41500000D03*
X100302944Y-39802944D03*
X100302944Y-43197056D03*
X102000000Y-39100000D03*
D12*
X102000000Y-41500000D03*
D11*
X102000000Y-43900000D03*
X103697056Y-39802944D03*
X103697056Y-43197056D03*
X104400000Y-41500000D03*
%TD*%
%TO.N,GND*%
%TO.C,H3*%
X157600000Y-146500000D03*
X158302944Y-144802944D03*
X158302944Y-148197056D03*
X160000000Y-144100000D03*
D12*
X160000000Y-146500000D03*
D11*
X160000000Y-148900000D03*
X161697056Y-144802944D03*
X161697056Y-148197056D03*
X162400000Y-146500000D03*
%TD*%
%TO.N,GND*%
%TO.C,H1*%
X157600000Y-41500000D03*
X158302944Y-39802944D03*
X158302944Y-43197056D03*
X160000000Y-39100000D03*
D12*
X160000000Y-41500000D03*
D11*
X160000000Y-43900000D03*
X161697056Y-39802944D03*
X161697056Y-43197056D03*
X162400000Y-41500000D03*
%TD*%
D13*
%TO.N,/ESP32/VIN*%
%TO.C,J5*%
X142850000Y-41500000D03*
D14*
%TO.N,GND*%
X140310000Y-41500000D03*
%TO.N,Net-(J5-Pin_3)*%
X137770000Y-41500000D03*
%TO.N,Net-(J5-Pin_4)*%
X135230000Y-41500000D03*
%TO.N,Net-(J5-Pin_5)*%
X132690000Y-41500000D03*
%TO.N,Net-(J5-Pin_6)*%
X130150000Y-41500000D03*
%TD*%
D15*
%TO.N,VIN*%
%TO.C,J1*%
X150350000Y-55250000D03*
%TO.N,GND*%
X150350000Y-60250000D03*
D16*
%TO.N,unconnected-(J1-MNT1-Pad3)*%
X160350000Y-52250000D03*
%TO.N,unconnected-(J1-MNT2-Pad4)*%
X160350000Y-63250000D03*
%TD*%
D17*
%TO.N,/fan/FAN_PWM*%
%TO.C,J7*%
X133000600Y-146338851D03*
%TO.N,/fan/FAN_TACH*%
X135540600Y-146338851D03*
%TO.N,/12V*%
X138080600Y-146338851D03*
%TO.N,GND*%
X140620600Y-146338851D03*
%TD*%
D18*
%TO.N,GND*%
%TO.C,J3*%
X148200000Y-40550000D03*
D14*
%TO.N,/3V3*%
X147800000Y-43090000D03*
%TO.N,/ESP32/SCL*%
X148200000Y-45630000D03*
%TO.N,/ESP32/SDA*%
X147800000Y-48170000D03*
%TD*%
D19*
%TO.N,GND*%
%TO.C,U4*%
X119720000Y-85850000D03*
X119720000Y-87250000D03*
X119720000Y-88650000D03*
X121000000Y-84850000D03*
X121000000Y-85850000D03*
X121000000Y-87250000D03*
X121000000Y-88650000D03*
X121000000Y-89650000D03*
X122280000Y-85850000D03*
X122280000Y-87250000D03*
X122280000Y-88650000D03*
%TD*%
D20*
%TO.N,GND*%
%TO.C,J4*%
X126670000Y-45065000D03*
D21*
X126670000Y-40885000D03*
D20*
X118030000Y-45065000D03*
D21*
X118030000Y-40885000D03*
%TD*%
D19*
%TO.N,GND*%
%TO.C,U1*%
X144070000Y-85850000D03*
X144070000Y-87250000D03*
X144070000Y-88650000D03*
X145350000Y-84850000D03*
X145350000Y-85850000D03*
X145350000Y-87250000D03*
X145350000Y-88650000D03*
X145350000Y-89650000D03*
X146630000Y-85850000D03*
X146630000Y-87250000D03*
X146630000Y-88650000D03*
%TD*%
D22*
%TO.N,/12V*%
X154450000Y-53250000D03*
X153550000Y-55650000D03*
X136000000Y-88300000D03*
X144500000Y-53300000D03*
X142000000Y-89400000D03*
X144500000Y-54900000D03*
X113375000Y-88400000D03*
X116200000Y-88800000D03*
X116900000Y-88200000D03*
X153550000Y-53250000D03*
X147050000Y-53300000D03*
X146200000Y-56500000D03*
X147950000Y-54100000D03*
X154450000Y-54050000D03*
X112175000Y-88400000D03*
X147050000Y-54100000D03*
X152750000Y-54050000D03*
X112775000Y-88400000D03*
X146200000Y-53300000D03*
X153550000Y-54850000D03*
X146200000Y-54100000D03*
X147950000Y-53300000D03*
X140600000Y-89400000D03*
X152750000Y-56450000D03*
X116900000Y-90000000D03*
X145400000Y-53300000D03*
X142000000Y-88200000D03*
X142000000Y-88800000D03*
X116900000Y-88800000D03*
X140600000Y-88200000D03*
X112175000Y-87800000D03*
X152750000Y-54850000D03*
X137200000Y-88300000D03*
X136600000Y-87700000D03*
X147950000Y-56500000D03*
X117600000Y-89400000D03*
X147050000Y-55700000D03*
X154450000Y-55650000D03*
X113375000Y-87800000D03*
X136000000Y-87700000D03*
X147050000Y-56500000D03*
X146200000Y-55700000D03*
X141300000Y-88200000D03*
X112775000Y-87800000D03*
X155250000Y-53250000D03*
X155250000Y-54050000D03*
X117600000Y-88200000D03*
D23*
X143150000Y-136975000D03*
D22*
X137200000Y-87700000D03*
X116200000Y-88200000D03*
X155250000Y-54850000D03*
X145400000Y-56500000D03*
X145400000Y-55700000D03*
X155250000Y-56450000D03*
X145400000Y-54900000D03*
X141300000Y-89400000D03*
X141300000Y-90000000D03*
X153550000Y-56450000D03*
X152750000Y-53250000D03*
X155250000Y-55650000D03*
X135425000Y-88300000D03*
X153550000Y-54050000D03*
X144500000Y-56500000D03*
X144500000Y-54100000D03*
X116900000Y-89400000D03*
X154450000Y-54850000D03*
X111600000Y-87800000D03*
X154450000Y-56450000D03*
X145400000Y-54100000D03*
X144500000Y-55700000D03*
X116200000Y-89400000D03*
X111600000Y-88400000D03*
X141300000Y-88800000D03*
X136600000Y-88300000D03*
X140600000Y-90000000D03*
X147950000Y-55700000D03*
X117600000Y-88800000D03*
X117600000Y-90000000D03*
X116200000Y-90000000D03*
X135425000Y-87700000D03*
X140600000Y-88800000D03*
X146200000Y-54900000D03*
X147050000Y-54900000D03*
X152750000Y-55650000D03*
X147950000Y-54900000D03*
X142000000Y-90000000D03*
%TO.N,/Power/AGND1*%
X151650000Y-80300000D03*
X147700000Y-81550000D03*
D23*
X141724265Y-80724265D03*
D22*
X145500000Y-82750000D03*
D23*
%TO.N,/Vcore*%
X140200000Y-101975000D03*
X137100000Y-101975000D03*
X119800000Y-102800000D03*
X131950000Y-103450000D03*
X122150000Y-102100000D03*
X146380000Y-101975000D03*
X129000000Y-101900000D03*
X149500000Y-107400000D03*
X153400000Y-103550000D03*
X137800000Y-101975000D03*
X150500000Y-107400000D03*
X111500000Y-107400000D03*
X149550000Y-102000000D03*
X154200000Y-102750000D03*
X115162500Y-102800000D03*
X116850000Y-102100000D03*
X133550000Y-103450000D03*
X148750000Y-103550000D03*
X153400000Y-101950000D03*
X123450000Y-103450000D03*
X116850000Y-102800000D03*
X146500000Y-107400000D03*
X113500000Y-109500000D03*
X155000000Y-101950000D03*
X149550000Y-102800000D03*
X142500000Y-101975000D03*
X125050000Y-104250000D03*
X146380000Y-102675000D03*
X127400000Y-101900000D03*
X151150000Y-102000000D03*
X113500000Y-108500000D03*
X128200000Y-101900000D03*
X146380000Y-101275000D03*
D22*
X133325000Y-100600000D03*
D23*
X142500000Y-83200000D03*
X112862500Y-101400000D03*
X115500000Y-107400000D03*
X131150000Y-103450000D03*
X119100000Y-102100000D03*
X129800000Y-103450000D03*
X119800000Y-101400000D03*
X147500000Y-109500000D03*
X152600000Y-103550000D03*
X123450000Y-104250000D03*
X152600000Y-102750000D03*
X129800000Y-104250000D03*
X109900000Y-101400000D03*
X133550000Y-104250000D03*
X108575000Y-67625000D03*
X114500000Y-109500000D03*
X148500000Y-107400000D03*
X121450000Y-102800000D03*
X144000000Y-101275000D03*
X137100000Y-102675000D03*
X148750000Y-104350000D03*
X146500000Y-108500000D03*
X153400000Y-102750000D03*
X152600000Y-101950000D03*
X114462500Y-102800000D03*
X135500000Y-102700000D03*
X110500000Y-108500000D03*
X114462500Y-101400000D03*
X140200000Y-101275000D03*
X112862500Y-102800000D03*
X151500000Y-107400000D03*
X135500000Y-101300000D03*
X150500000Y-108500000D03*
X135500000Y-102000000D03*
X152600000Y-104350000D03*
X134800000Y-102000000D03*
X119800000Y-102100000D03*
X113500000Y-107400000D03*
X114462500Y-102100000D03*
X112500000Y-109500000D03*
X114500000Y-108500000D03*
X109900000Y-102100000D03*
X119100000Y-102800000D03*
X149550000Y-103550000D03*
X125850000Y-103450000D03*
X151150000Y-104350000D03*
X119100000Y-101400000D03*
X154200000Y-103550000D03*
X115500000Y-108500000D03*
X148500000Y-109500000D03*
X110600000Y-101400000D03*
X110500000Y-107400000D03*
X149500000Y-108500000D03*
X147500000Y-108500000D03*
X142500000Y-102675000D03*
X117550000Y-102100000D03*
X129000000Y-104250000D03*
X141800000Y-101275000D03*
X132750000Y-103450000D03*
X128200000Y-102650000D03*
X131950000Y-104250000D03*
X115162500Y-102100000D03*
X141800000Y-102675000D03*
X148750000Y-102800000D03*
X150350000Y-104350000D03*
X139500000Y-101975000D03*
X112162500Y-102800000D03*
X148500000Y-108500000D03*
X155000000Y-103550000D03*
X128200000Y-103450000D03*
X116850000Y-101400000D03*
X142500000Y-101275000D03*
X115162500Y-101400000D03*
X129800000Y-101900000D03*
X112500000Y-107400000D03*
D22*
X160700000Y-102700000D03*
D23*
X134800000Y-102700000D03*
X137100000Y-101275000D03*
X151150000Y-103550000D03*
X112162500Y-101400000D03*
X150350000Y-102800000D03*
X124250000Y-103450000D03*
X117550000Y-101400000D03*
X111500000Y-108500000D03*
X112862500Y-102100000D03*
X114500000Y-107400000D03*
X139500000Y-102675000D03*
X154200000Y-101950000D03*
X144000000Y-102675000D03*
X131050000Y-106450000D03*
X110500000Y-109500000D03*
X147080000Y-102675000D03*
X121450000Y-102100000D03*
X117550000Y-102800000D03*
X132750000Y-104250000D03*
X127400000Y-103450000D03*
X129800000Y-102650000D03*
X147080000Y-101975000D03*
X153400000Y-104350000D03*
X151500000Y-109500000D03*
X149550000Y-104350000D03*
X121450000Y-101400000D03*
X124250000Y-104250000D03*
X125050000Y-103450000D03*
X112500000Y-108500000D03*
X134800000Y-101300000D03*
X155000000Y-102750000D03*
X147080000Y-101275000D03*
X137800000Y-101275000D03*
X140200000Y-102675000D03*
X141800000Y-101975000D03*
X137800000Y-102675000D03*
X144700000Y-101275000D03*
X148750000Y-102000000D03*
X110600000Y-102100000D03*
X150350000Y-103550000D03*
X144000000Y-101975000D03*
X129000000Y-103450000D03*
X122150000Y-101400000D03*
X109900000Y-102800000D03*
X151500000Y-108500000D03*
X144700000Y-101975000D03*
X151150000Y-102800000D03*
X150350000Y-102000000D03*
X110600000Y-102800000D03*
X115500000Y-109500000D03*
X147500000Y-107400000D03*
X144700000Y-102675000D03*
X154200000Y-104350000D03*
X139500000Y-101275000D03*
X155000000Y-104350000D03*
X129000000Y-102650000D03*
X146500000Y-109500000D03*
X131150000Y-104250000D03*
X127400000Y-104250000D03*
X111500000Y-109500000D03*
X150500000Y-109500000D03*
X127400000Y-102650000D03*
X122150000Y-102800000D03*
X112162500Y-102100000D03*
X149500000Y-109500000D03*
X128200000Y-104250000D03*
X125850000Y-104250000D03*
D22*
%TO.N,/Power/VSHARE*%
X120450000Y-81200000D03*
X144550000Y-82800000D03*
%TO.N,/Power/EN_UVLO*%
X117500000Y-86950000D03*
X137900000Y-82800000D03*
%TO.N,/5V*%
X110500000Y-121900000D03*
X109850000Y-121900000D03*
D24*
X135700000Y-54250000D03*
D22*
X127450000Y-139300000D03*
%TO.N,/ASIC/1V2*%
X102700000Y-100600000D03*
X123200000Y-123900000D03*
X130450000Y-117600000D03*
X102880000Y-131080000D03*
X117825000Y-115625000D03*
X143950000Y-115750000D03*
%TO.N,/ASIC/0V8*%
X142600000Y-116050000D03*
X130450000Y-115762500D03*
X119750000Y-115050000D03*
D25*
%TO.N,/3V3*%
X133650000Y-52500000D03*
X134550000Y-52500000D03*
X134550000Y-51650000D03*
D22*
X104100000Y-130200000D03*
D25*
X132700000Y-52050000D03*
D22*
X127000000Y-65600000D03*
D26*
X114700000Y-40800000D03*
D22*
X138350000Y-47400000D03*
D23*
X130300000Y-52025000D03*
D22*
X107425000Y-46150000D03*
X126700000Y-68100000D03*
D25*
X133650000Y-51650000D03*
D22*
%TO.N,/Power/PGOOD*%
X130600000Y-64500000D03*
X148062500Y-83900000D03*
%TO.N,/ASIC/TEMP1_P*%
X118328858Y-113867944D03*
D23*
X131700000Y-127890000D03*
D22*
%TO.N,/ASIC/TEMP1_N*%
X118000000Y-113250000D03*
D23*
X130650000Y-127890000D03*
%TO.N,/ASIC/TEMP2_P*%
X134000000Y-127800000D03*
D22*
X155355635Y-114550000D03*
D23*
%TO.N,/ASIC/TEMP2_N*%
X132950000Y-127880000D03*
D22*
X155820645Y-114026770D03*
D23*
%TO.N,/fan/FAN_PWM*%
X133950000Y-140900000D03*
D22*
%TO.N,/Power/BCX_DAT*%
X127291727Y-81200000D03*
X159300000Y-79100000D03*
X148000000Y-82750000D03*
%TO.N,/Power/BCX_CLK*%
X156800000Y-80700000D03*
X147100735Y-82600735D03*
X126500000Y-81200000D03*
%TO.N,/Power/SYNC*%
X125600000Y-81200000D03*
X146203957Y-82697514D03*
X161400000Y-80700000D03*
%TO.N,/ESP32/SDA*%
X112550000Y-134700000D03*
X111400000Y-71500000D03*
D23*
X124100000Y-61190000D03*
D22*
X135650000Y-135250000D03*
D23*
%TO.N,/ESP32/SCL*%
X123320000Y-62465000D03*
D22*
X112000000Y-70600000D03*
X112550000Y-135650000D03*
X135600000Y-136200000D03*
%TO.N,/ASIC/RX_1V2*%
X106000000Y-121200000D03*
%TO.N,/ASIC/CLKI*%
X106200000Y-112550000D03*
%TO.N,/ASIC/BI*%
X105420352Y-112700799D03*
%TO.N,/ASIC/RST_1V2*%
X104675382Y-121611508D03*
%TO.N,/ASIC/TX_1V2*%
X105309522Y-121315080D03*
%TO.N,/ASIC/RST_3V3*%
X109400000Y-73000000D03*
X104800000Y-126550000D03*
%TO.N,/ASIC/TX_3V3*%
X117700000Y-62100000D03*
X105400000Y-127700000D03*
%TO.N,Net-(U4-AVIN)*%
X116950000Y-87500000D03*
X115150000Y-84600000D03*
D27*
%TO.N,Net-(U9-VDD1_0)*%
X108125000Y-109195000D03*
%TO.N,Net-(U9-VDD2_0)*%
X108125000Y-108255000D03*
%TO.N,Net-(U9-VDD3_0)*%
X109150000Y-107630000D03*
D22*
%TO.N,Net-(U9-LITE_PAD)*%
X105550000Y-114050000D03*
%TO.N,Net-(U9-ROSC_SEL)*%
X104100000Y-114950000D03*
%TO.N,Net-(U9-INV_CLKO)*%
X106000000Y-114850000D03*
D23*
%TO.N,/Power/SW1*%
X154300000Y-93900000D03*
X155050000Y-93200000D03*
X152700000Y-92525000D03*
X157050000Y-92650000D03*
X155050000Y-92525000D03*
X155050000Y-94700000D03*
X157850000Y-91950000D03*
X152700000Y-93900000D03*
X157850000Y-94900000D03*
X157850000Y-93450000D03*
X154300000Y-92525000D03*
X148700000Y-89800000D03*
X157850000Y-95700000D03*
X148700000Y-88250000D03*
X154300000Y-93200000D03*
X153500000Y-94700000D03*
X153500000Y-93200000D03*
X158650000Y-94900000D03*
X158650000Y-92650000D03*
X150500000Y-88600000D03*
X153500000Y-92525000D03*
X150200000Y-89200000D03*
X157050000Y-95700000D03*
X157050000Y-94900000D03*
X148700000Y-89000000D03*
X153500000Y-93900000D03*
X154300000Y-94700000D03*
X157050000Y-94200000D03*
X148700000Y-90600000D03*
X158650000Y-95700000D03*
X152075000Y-88425000D03*
X157050000Y-93450000D03*
X157850000Y-92650000D03*
X158650000Y-94200000D03*
X151275000Y-88425000D03*
X158650000Y-93450000D03*
X157050000Y-91950000D03*
X157850000Y-94200000D03*
X158650000Y-91950000D03*
X155050000Y-93900000D03*
X152700000Y-93200000D03*
X149800000Y-88600000D03*
X152700000Y-94700000D03*
D22*
%TO.N,Net-(U1-AVIN)*%
X138425000Y-85825000D03*
X138900000Y-82900000D03*
D23*
%TO.N,/Power/SW2*%
X127400000Y-94600000D03*
X129000000Y-93200000D03*
X132050000Y-94350000D03*
X131250000Y-95150000D03*
X132850000Y-93650000D03*
X125700000Y-88400000D03*
X124300000Y-89700000D03*
X132850000Y-92950000D03*
X126400000Y-88400000D03*
X131250000Y-96550000D03*
X128200000Y-92500000D03*
X129000000Y-94600000D03*
X128200000Y-93200000D03*
X132050000Y-93650000D03*
X124300000Y-90500000D03*
X132050000Y-96550000D03*
X129000000Y-93900000D03*
X132050000Y-92950000D03*
X129750000Y-92500000D03*
X131250000Y-93650000D03*
X129750000Y-93200000D03*
X132850000Y-94350000D03*
X129750000Y-93900000D03*
X127350000Y-88975000D03*
X124300000Y-88900000D03*
X128200000Y-94600000D03*
X132050000Y-95850000D03*
X128100000Y-88975000D03*
X124300000Y-88200000D03*
X129750000Y-94600000D03*
X132850000Y-95850000D03*
X128200000Y-93900000D03*
X129000000Y-92500000D03*
X131250000Y-92950000D03*
X132850000Y-96550000D03*
X127400000Y-92500000D03*
X132050000Y-95150000D03*
X131250000Y-94350000D03*
X127400000Y-93200000D03*
X131250000Y-95850000D03*
X126000000Y-89000000D03*
X132850000Y-95150000D03*
X127400000Y-93900000D03*
D27*
%TO.N,Net-(U10-VDD3_0)*%
X144940000Y-107570000D03*
X116770000Y-107580000D03*
%TO.N,Net-(U10-VDD2_0)*%
X143925000Y-108280000D03*
X117750000Y-108280000D03*
%TO.N,Net-(U10-VDD1_0)*%
X117732020Y-109277020D03*
X143925000Y-109220000D03*
%TO.N,Net-(U10-VDD3_1)*%
X153010000Y-107540000D03*
%TO.N,Net-(U10-VDD2_1)*%
X154050000Y-108255000D03*
%TO.N,Net-(U10-VDD1_1)*%
X154050000Y-109195000D03*
D22*
%TO.N,/ASIC/0V8_1*%
X106050000Y-115800000D03*
%TO.N,/ASIC/1V2_1*%
X107550000Y-115900000D03*
%TO.N,/ASIC/1V2_2*%
X153797182Y-115702818D03*
%TO.N,/ASIC/0V8_2*%
X154800000Y-115550000D03*
%TO.N,Net-(J5-Pin_3)*%
X116150000Y-63100000D03*
%TO.N,Net-(J5-Pin_4)*%
X114900000Y-63050000D03*
%TO.N,Net-(J5-Pin_5)*%
X113650000Y-63050000D03*
%TO.N,Net-(J5-Pin_6)*%
X112360000Y-63060000D03*
%TO.N,Net-(U1-MSEL1)*%
X140900000Y-84200000D03*
X154150000Y-79150000D03*
%TO.N,Net-(U1-MSEL2)*%
X154150000Y-76300000D03*
X141300000Y-86050000D03*
%TO.N,Net-(U1-VSEL)*%
X140750000Y-85500000D03*
X154150000Y-77700000D03*
%TO.N,Net-(U10-LITE_PAD)*%
X141400000Y-114450000D03*
%TO.N,Net-(U1-ADRSEL)*%
X155150000Y-80550000D03*
X141350000Y-84950000D03*
%TO.N,Net-(U10-NRSTO)*%
X157800000Y-111800000D03*
%TO.N,Net-(U10-ROSC_SEL)*%
X141650000Y-113750000D03*
%TO.N,Net-(U10-INV_CLKO)*%
X141350000Y-115150000D03*
%TO.N,Net-(U10-BI)*%
X136200000Y-113350000D03*
%TO.N,Net-(U10-RI)*%
X157700000Y-115900000D03*
%TO.N,/Power/SCL_VR*%
X149196443Y-85250000D03*
D23*
X154200000Y-74400000D03*
D22*
X155400000Y-47600000D03*
D23*
X152600000Y-73200000D03*
X161700000Y-74850000D03*
D22*
%TO.N,/Power/ALRT_VR*%
X149246091Y-86996091D03*
D23*
X155100000Y-73100000D03*
X161700000Y-69800000D03*
D22*
X133200000Y-68050000D03*
D23*
%TO.N,/Power/SDA_VR*%
X161700000Y-72325000D03*
D22*
X155400000Y-48800000D03*
X148677803Y-84779880D03*
D23*
X153300000Y-72400000D03*
D22*
%TO.N,GND*%
X133200000Y-120900000D03*
D23*
X149500000Y-112250000D03*
X114500000Y-112250000D03*
D22*
X136000000Y-93975000D03*
D23*
X147500000Y-112250000D03*
D22*
X141375000Y-92625000D03*
X137800000Y-97575000D03*
X131800000Y-60100000D03*
X114562500Y-96400000D03*
X105875000Y-46150000D03*
X144100000Y-96975000D03*
D23*
X112550000Y-119000000D03*
D22*
X122050000Y-96400000D03*
D23*
X114500000Y-111250000D03*
D25*
X140100000Y-44400000D03*
D22*
X121450000Y-97600000D03*
D23*
X148600000Y-117050000D03*
D22*
X111575000Y-94075000D03*
X117650000Y-93000000D03*
D23*
X149600000Y-118050000D03*
D22*
X116850000Y-96400000D03*
D23*
X112500000Y-112250000D03*
D22*
X136600000Y-94575000D03*
X117940000Y-114450000D03*
X142400000Y-97575000D03*
X131800000Y-58100000D03*
D23*
X147600000Y-117050000D03*
D22*
X155450000Y-58750000D03*
X130800000Y-58100000D03*
X154700000Y-117900000D03*
D23*
X110500000Y-113250000D03*
D22*
X132800000Y-58100000D03*
X132800000Y-57100000D03*
D23*
X146500000Y-113250000D03*
X148500000Y-115250000D03*
D22*
X115525000Y-93025000D03*
X141800000Y-97575000D03*
D26*
X115130000Y-53850000D03*
D22*
X137200000Y-96375000D03*
D23*
X110500000Y-114250000D03*
X114500000Y-115250000D03*
D22*
X146980000Y-96975000D03*
X130800000Y-56100000D03*
D25*
X132050000Y-48100000D03*
D23*
X110550000Y-118000000D03*
D22*
X156550000Y-63300000D03*
D23*
X111550000Y-118000000D03*
D22*
X119200000Y-97600000D03*
D26*
X112330000Y-56650000D03*
D22*
X135980000Y-129890000D03*
X154350000Y-58750000D03*
X117450000Y-97000000D03*
X112862500Y-97000000D03*
X117650000Y-92450000D03*
D23*
X114550000Y-119000000D03*
X150500000Y-112250000D03*
D22*
X116850000Y-97000000D03*
X142400000Y-96375000D03*
X142400000Y-96975000D03*
X135400000Y-94575000D03*
D23*
X149500000Y-114250000D03*
D22*
X132800000Y-60100000D03*
D23*
X115500000Y-111250000D03*
D22*
X133800000Y-59100000D03*
X119200000Y-97000000D03*
D23*
X115500000Y-112250000D03*
D22*
X140100000Y-96975000D03*
X149950000Y-63300000D03*
X105080000Y-133380000D03*
X119800000Y-97600000D03*
D23*
X146600000Y-119050000D03*
D22*
X133800000Y-56100000D03*
X135500000Y-97000000D03*
D23*
X112500000Y-114250000D03*
X151500000Y-111250000D03*
D22*
X153250000Y-63300000D03*
X146380000Y-96975000D03*
D23*
X151600000Y-118050000D03*
D22*
X121450000Y-96400000D03*
X153250000Y-59650000D03*
X124450000Y-119950000D03*
X109900000Y-97000000D03*
X137200000Y-93975000D03*
D23*
X150600000Y-117050000D03*
D22*
X106900000Y-130700000D03*
X119800000Y-96400000D03*
X132800000Y-56100000D03*
X153250000Y-62400000D03*
X141902545Y-115690356D03*
X156550000Y-61450000D03*
X124450000Y-114300000D03*
X154350000Y-63300000D03*
X116850000Y-97600000D03*
X137200000Y-97575000D03*
X114562500Y-97000000D03*
X160900000Y-91700000D03*
X132800000Y-61100000D03*
D23*
X146500000Y-112250000D03*
D22*
X140475000Y-92675000D03*
D23*
X110500000Y-115250000D03*
D26*
X115130000Y-56650000D03*
D22*
X117450000Y-96400000D03*
X124450000Y-119300000D03*
X133800000Y-60100000D03*
D27*
X143925000Y-110175000D03*
D22*
X131800000Y-62100000D03*
X135500000Y-96400000D03*
D23*
X115500000Y-115250000D03*
D26*
X113730000Y-55250000D03*
D22*
X130800000Y-57100000D03*
X138950000Y-81100000D03*
X115162500Y-97000000D03*
D23*
X111500000Y-112250000D03*
D22*
X117050000Y-93000000D03*
X139740000Y-113760000D03*
D26*
X113730000Y-53850000D03*
D22*
X132080000Y-140500000D03*
X110500000Y-97600000D03*
D23*
X112500000Y-113250000D03*
D22*
X135400000Y-93975000D03*
X147700000Y-80500000D03*
D23*
X150600000Y-118050000D03*
X151600000Y-117050000D03*
D22*
X133800000Y-58100000D03*
D23*
X151600000Y-119050000D03*
D22*
X140100000Y-97575000D03*
X153250000Y-61450000D03*
D23*
X146500000Y-114250000D03*
X115500000Y-113250000D03*
D22*
X130800000Y-59100000D03*
X130800000Y-61100000D03*
D23*
X147500000Y-115250000D03*
D22*
X116125000Y-93025000D03*
D23*
X115550000Y-118000000D03*
D26*
X113400000Y-40800000D03*
D23*
X148500000Y-114250000D03*
D22*
X113375000Y-94075000D03*
D23*
X147600000Y-119050000D03*
D22*
X112862500Y-96400000D03*
D23*
X113550000Y-117000000D03*
D22*
X151050000Y-62400000D03*
X111510000Y-142150000D03*
D23*
X150500000Y-111250000D03*
X147500000Y-113250000D03*
D24*
X106000000Y-67400000D03*
D23*
X110550000Y-119000000D03*
D22*
X153250000Y-58750000D03*
X119800000Y-97000000D03*
D23*
X115500000Y-114250000D03*
X150500000Y-114250000D03*
D22*
X137200000Y-94575000D03*
X149950000Y-62400000D03*
D23*
X110500000Y-112250000D03*
D22*
X135500000Y-97600000D03*
X117050000Y-92450000D03*
X112775000Y-94675000D03*
X114760000Y-145740000D03*
X132800000Y-59100000D03*
X153803248Y-114396752D03*
D23*
X148500000Y-113250000D03*
D22*
X112775000Y-94075000D03*
X139500000Y-96975000D03*
D23*
X113500000Y-114250000D03*
D25*
X133250000Y-48200000D03*
X137800000Y-44375000D03*
D22*
X141975000Y-92625000D03*
X115750000Y-87400000D03*
X136000000Y-94575000D03*
X141975000Y-93175000D03*
D26*
X113730000Y-56650000D03*
D22*
X144100000Y-97575000D03*
D23*
X111500000Y-113250000D03*
D22*
X116125000Y-92475000D03*
D23*
X114500000Y-113250000D03*
D22*
X110500000Y-97000000D03*
X144700000Y-96975000D03*
X155450000Y-61450000D03*
D23*
X149500000Y-113250000D03*
X111500000Y-111250000D03*
D22*
X115525000Y-92475000D03*
D23*
X113550000Y-118000000D03*
D27*
X117900000Y-110070000D03*
D22*
X131800000Y-61100000D03*
X104350000Y-101750000D03*
D23*
X149500000Y-115250000D03*
D22*
X137800000Y-96375000D03*
X141800000Y-96975000D03*
X103790000Y-113400000D03*
X151050000Y-63300000D03*
X140100000Y-96375000D03*
X107850000Y-114750000D03*
X126900000Y-145690000D03*
X156550000Y-59650000D03*
X110500000Y-96400000D03*
X131800000Y-56100000D03*
X156550000Y-62400000D03*
D23*
X149600000Y-119050000D03*
D22*
X140475000Y-93225000D03*
X155450000Y-62400000D03*
D27*
X108125000Y-110075000D03*
D23*
X111550000Y-119000000D03*
D22*
X122050000Y-97600000D03*
D23*
X115550000Y-119000000D03*
X150500000Y-115250000D03*
D22*
X144700000Y-96375000D03*
X130800000Y-60100000D03*
D23*
X113500000Y-112250000D03*
X148600000Y-118050000D03*
D25*
X142200000Y-46400000D03*
D22*
X155450000Y-60550000D03*
D23*
X110500000Y-111250000D03*
X146600000Y-117050000D03*
D22*
X139875000Y-92675000D03*
X157650000Y-63300000D03*
X124450000Y-114950000D03*
X154350000Y-59650000D03*
D23*
X115550000Y-117000000D03*
D26*
X115130000Y-55250000D03*
D23*
X114500000Y-114250000D03*
X112500000Y-111250000D03*
X113500000Y-111250000D03*
D22*
X146980000Y-97575000D03*
X134900000Y-96400000D03*
D23*
X148500000Y-111250000D03*
X149600000Y-117050000D03*
D22*
X141375000Y-93175000D03*
X129500000Y-128840000D03*
D23*
X113550000Y-119000000D03*
X147500000Y-111250000D03*
D22*
X133050000Y-115750000D03*
D23*
X151500000Y-113250000D03*
D22*
X156550000Y-58750000D03*
D23*
X147500000Y-114250000D03*
X112550000Y-117000000D03*
D22*
X136600000Y-93975000D03*
D26*
X112330000Y-53850000D03*
D23*
X148500000Y-112250000D03*
X151500000Y-112250000D03*
D22*
X134900000Y-97000000D03*
X115162500Y-97600000D03*
X112262500Y-97000000D03*
D23*
X112550000Y-118000000D03*
D22*
X112175000Y-94675000D03*
X155450000Y-63300000D03*
D23*
X148600000Y-119050000D03*
D22*
X154350000Y-60550000D03*
X144700000Y-97575000D03*
X112262500Y-97600000D03*
X139200000Y-83700000D03*
X132800000Y-62100000D03*
X152150000Y-62400000D03*
X154350000Y-61450000D03*
X114562500Y-97600000D03*
X131800000Y-57100000D03*
X133800000Y-62100000D03*
X121450000Y-97000000D03*
X153250000Y-60550000D03*
X133800000Y-57100000D03*
X144100000Y-96375000D03*
X103450000Y-121650000D03*
X130800000Y-62100000D03*
X152825000Y-83425000D03*
X143150000Y-135425000D03*
X155450000Y-59650000D03*
X109900000Y-96400000D03*
D25*
X134600000Y-44375000D03*
D23*
X151500000Y-114250000D03*
D22*
X146380000Y-96375000D03*
X154350000Y-62400000D03*
X133250000Y-113850000D03*
D23*
X146500000Y-115250000D03*
D22*
X101800000Y-129200000D03*
X156550000Y-60550000D03*
D23*
X146500000Y-111250000D03*
D27*
X154050000Y-110055000D03*
D23*
X114550000Y-118000000D03*
X150500000Y-113250000D03*
D22*
X137800000Y-96975000D03*
D23*
X110550000Y-117000000D03*
X112500000Y-115250000D03*
X111550000Y-117000000D03*
X113500000Y-113250000D03*
D22*
X139875000Y-93225000D03*
X122050000Y-97000000D03*
X146980000Y-96375000D03*
X119200000Y-96400000D03*
X161700000Y-77400000D03*
D23*
X111500000Y-114250000D03*
D22*
X109900000Y-97600000D03*
X112262500Y-96400000D03*
X146380000Y-97575000D03*
D23*
X113500000Y-115250000D03*
D22*
X152150000Y-63300000D03*
X141800000Y-96375000D03*
X139500000Y-96375000D03*
D23*
X147600000Y-118050000D03*
D26*
X112330000Y-55250000D03*
D22*
X134900000Y-97600000D03*
D23*
X151500000Y-115250000D03*
X132425000Y-134275000D03*
X149500000Y-111250000D03*
D22*
X137200000Y-96975000D03*
D25*
X134500000Y-47700000D03*
D22*
X117450000Y-97600000D03*
X108000000Y-121500000D03*
X131800000Y-59100000D03*
X127250000Y-82800000D03*
D23*
X150600000Y-119050000D03*
X114550000Y-117000000D03*
D22*
X112862500Y-97600000D03*
D23*
X146600000Y-118050000D03*
D22*
X112175000Y-94075000D03*
X115162500Y-96400000D03*
X139500000Y-97575000D03*
X111575000Y-94675000D03*
X113375000Y-94675000D03*
X133800000Y-61100000D03*
D23*
X111500000Y-115250000D03*
D22*
X157650000Y-62400000D03*
%TO.N,/Power/BP1v5_2*%
X126327817Y-82850000D03*
X118300000Y-81200000D03*
%TO.N,Net-(U10-BO)*%
X157650000Y-120050000D03*
%TO.N,Net-(U10-CLKO)*%
X157750000Y-118000000D03*
%TO.N,Net-(U10-CO)*%
X157800000Y-113850000D03*
%TO.N,/ESP32/EN*%
X107925000Y-141875000D03*
D23*
X110700000Y-49984314D03*
D22*
X110500000Y-143250000D03*
D26*
X114670000Y-44200000D03*
D23*
%TO.N,/ESP32/P_TX*%
X109820000Y-65500000D03*
D26*
X113400000Y-44250000D03*
D22*
%TO.N,/ESP32/IO0*%
X122800000Y-143350000D03*
D26*
X112150000Y-40800000D03*
D22*
X111400000Y-61450000D03*
%TO.N,/ESP32/P_RX*%
X113300000Y-45800000D03*
X109600000Y-63200000D03*
%TO.N,/ASIC/RX_3V3*%
X118710000Y-62090000D03*
X106000000Y-127100000D03*
%TO.N,/Power/AGND2*%
X122200000Y-81650000D03*
X117650000Y-83100000D03*
X124750000Y-87000000D03*
X124100000Y-83100000D03*
X117500000Y-85700000D03*
D23*
%TO.N,/fan/FAN_TACH*%
X135200000Y-139000000D03*
%TD*%
D28*
%TO.N,/Vcore*%
X100900000Y-75300000D02*
X100900000Y-94900000D01*
X154400000Y-102800000D02*
X160600000Y-102800000D01*
D29*
X133325000Y-103575000D02*
X131050000Y-105850000D01*
D28*
X160600000Y-102800000D02*
X160700000Y-102700000D01*
D29*
X131050000Y-105850000D02*
X131050000Y-106450000D01*
D28*
X100900000Y-94900000D02*
X108100000Y-102100000D01*
D29*
X133325000Y-100600000D02*
X133325000Y-103575000D01*
D28*
X108575000Y-67625000D02*
X100900000Y-75300000D01*
%TD*%
%TA.AperFunction,Conductor*%
%TO.N,GND*%
G36*
X146943039Y-88669685D02*
G01*
X146988794Y-88722489D01*
X147000000Y-88774000D01*
X147000000Y-90000000D01*
X149261712Y-92163377D01*
X149296551Y-92223940D01*
X149300000Y-92252984D01*
X149300000Y-97052416D01*
X149280315Y-97119455D01*
X149268170Y-97135366D01*
X148436942Y-98058953D01*
X148377465Y-98095613D01*
X148344775Y-98100000D01*
X134374000Y-98100000D01*
X134306961Y-98080315D01*
X134261206Y-98027511D01*
X134250000Y-97976000D01*
X134250000Y-97359273D01*
X134263691Y-97302634D01*
X134277490Y-97275761D01*
X134297175Y-97208722D01*
X134305500Y-97150824D01*
X134305500Y-93100775D01*
X134305500Y-93100763D01*
X134304410Y-93079653D01*
X134304409Y-93079631D01*
X134301784Y-93054254D01*
X134301783Y-93054252D01*
X134301783Y-93054248D01*
X134278533Y-92978384D01*
X134277901Y-92976867D01*
X134277808Y-92976019D01*
X134276763Y-92972609D01*
X134277413Y-92972409D01*
X134270298Y-92907412D01*
X134301450Y-92844874D01*
X134913235Y-92189390D01*
X134973366Y-92153814D01*
X135003884Y-92150000D01*
X141949998Y-92150000D01*
X141950000Y-92150000D01*
X143700000Y-90000000D01*
X143700000Y-88774000D01*
X143719685Y-88706961D01*
X143772489Y-88661206D01*
X143824000Y-88650000D01*
X146876000Y-88650000D01*
X146943039Y-88669685D01*
G37*
%TD.AperFunction*%
%TD*%
%TA.AperFunction,Conductor*%
%TO.N,/Power/SW1*%
G36*
X152365677Y-87869685D02*
G01*
X152386319Y-87886319D01*
X153349998Y-88849999D01*
X153371517Y-88858950D01*
X153425024Y-88901685D01*
X153493805Y-88998622D01*
X153493806Y-88998623D01*
X153733339Y-89266661D01*
X154001377Y-89506194D01*
X154294548Y-89714211D01*
X154609167Y-89888094D01*
X154941276Y-90025659D01*
X155286700Y-90125173D01*
X155641093Y-90185387D01*
X156000000Y-90205543D01*
X156358907Y-90185387D01*
X156713300Y-90125173D01*
X157058724Y-90025659D01*
X157390833Y-89888094D01*
X157705452Y-89714211D01*
X157998623Y-89506194D01*
X158266661Y-89266661D01*
X158506194Y-88998623D01*
X158563358Y-88918057D01*
X158618202Y-88874777D01*
X158664847Y-88865817D01*
X161697160Y-88874842D01*
X161764139Y-88894726D01*
X161786483Y-88913220D01*
X162728409Y-89900000D01*
X162766028Y-89939410D01*
X162798078Y-90001495D01*
X162800329Y-90024200D01*
X162849636Y-97395623D01*
X162830401Y-97462792D01*
X162810247Y-97487102D01*
X162135729Y-98116652D01*
X162073291Y-98148003D01*
X162051124Y-98150000D01*
X150514561Y-98150000D01*
X150447522Y-98130315D01*
X150412976Y-98097109D01*
X149772415Y-97182021D01*
X149750097Y-97115812D01*
X149750000Y-97110912D01*
X149750000Y-92149999D01*
X149265001Y-91700000D01*
X160444867Y-91700000D01*
X160463302Y-91828225D01*
X160517117Y-91946061D01*
X160517118Y-91946063D01*
X160601951Y-92043967D01*
X160710931Y-92114004D01*
X160833522Y-92149999D01*
X160835225Y-92150499D01*
X160835227Y-92150500D01*
X160835228Y-92150500D01*
X160964773Y-92150500D01*
X160964773Y-92150499D01*
X161089069Y-92114004D01*
X161198049Y-92043967D01*
X161282882Y-91946063D01*
X161336697Y-91828226D01*
X161355133Y-91700000D01*
X161336697Y-91571774D01*
X161282882Y-91453937D01*
X161198049Y-91356033D01*
X161089069Y-91285996D01*
X161089065Y-91285994D01*
X161089064Y-91285994D01*
X160964774Y-91249500D01*
X160964772Y-91249500D01*
X160835228Y-91249500D01*
X160835226Y-91249500D01*
X160710935Y-91285994D01*
X160710932Y-91285995D01*
X160710931Y-91285996D01*
X160659677Y-91318934D01*
X160601950Y-91356033D01*
X160517118Y-91453937D01*
X160517117Y-91453938D01*
X160463302Y-91571774D01*
X160444867Y-91700000D01*
X149265001Y-91700000D01*
X147365986Y-89938028D01*
X147330231Y-89878000D01*
X147326363Y-89844105D01*
X147340447Y-89266660D01*
X147372049Y-87970975D01*
X147393362Y-87904437D01*
X147447266Y-87859983D01*
X147496012Y-87850000D01*
X152298638Y-87850000D01*
X152365677Y-87869685D01*
G37*
%TD.AperFunction*%
%TD*%
%TA.AperFunction,Conductor*%
%TO.N,/Power/SW2*%
G36*
X126283901Y-87874362D02*
G01*
X126350625Y-87895083D01*
X126357581Y-87900062D01*
X126974999Y-88375000D01*
X126975000Y-88375000D01*
X129448050Y-88375000D01*
X129515089Y-88394685D01*
X129536436Y-88412030D01*
X131172592Y-90074863D01*
X134064387Y-93013806D01*
X134097375Y-93075398D01*
X134100000Y-93100775D01*
X134100000Y-97150824D01*
X134080315Y-97217863D01*
X134066297Y-97235809D01*
X133336720Y-98010985D01*
X133276439Y-98046312D01*
X133246423Y-98050000D01*
X125453450Y-98050000D01*
X125386411Y-98030315D01*
X125363300Y-98011141D01*
X124583850Y-97185841D01*
X124552130Y-97123587D01*
X124550000Y-97100700D01*
X124550000Y-91625000D01*
X123134845Y-90161046D01*
X123102404Y-90099164D01*
X123100000Y-90074863D01*
X123100000Y-87950937D01*
X123119685Y-87883898D01*
X123172489Y-87838143D01*
X123225920Y-87826952D01*
X126283901Y-87874362D01*
G37*
%TD.AperFunction*%
%TD*%
%TA.AperFunction,Conductor*%
%TO.N,GND*%
G36*
X122593039Y-88669685D02*
G01*
X122638794Y-88722489D01*
X122650000Y-88774000D01*
X122650000Y-90150000D01*
X124116463Y-91714227D01*
X124147953Y-91776598D01*
X124150000Y-91799036D01*
X124150000Y-97150824D01*
X124130315Y-97217863D01*
X124116297Y-97235809D01*
X123386720Y-98010985D01*
X123326439Y-98046312D01*
X123296423Y-98050000D01*
X108995655Y-98050000D01*
X108928616Y-98030315D01*
X108915245Y-98020394D01*
X108318590Y-97512132D01*
X108280322Y-97453675D01*
X108275000Y-97417738D01*
X108275000Y-92700548D01*
X108294685Y-92633509D01*
X108310335Y-92613861D01*
X108788451Y-92124878D01*
X108849391Y-92090710D01*
X108877274Y-92087572D01*
X117800000Y-92100000D01*
X117807385Y-92090710D01*
X118106640Y-91714227D01*
X119350000Y-90150000D01*
X119350000Y-88774000D01*
X119369685Y-88706961D01*
X119422489Y-88661206D01*
X119474000Y-88650000D01*
X122526000Y-88650000D01*
X122593039Y-88669685D01*
G37*
%TD.AperFunction*%
%TD*%
%TA.AperFunction,Conductor*%
%TO.N,/Vcore*%
G36*
X156414519Y-100969685D02*
G01*
X156436543Y-100987721D01*
X157140063Y-101713936D01*
X157172569Y-101775781D01*
X157175000Y-101800213D01*
X157175000Y-105550056D01*
X157155315Y-105617095D01*
X157140383Y-105636001D01*
X156586591Y-106211945D01*
X156525936Y-106246626D01*
X156497208Y-106250000D01*
X153899999Y-106250000D01*
X153045014Y-107104984D01*
X152983691Y-107138469D01*
X152976731Y-107139776D01*
X152884699Y-107154352D01*
X152884698Y-107154352D01*
X152825818Y-107184354D01*
X152771658Y-107211950D01*
X152771657Y-107211951D01*
X152771652Y-107211954D01*
X152681954Y-107301652D01*
X152681951Y-107301657D01*
X152681950Y-107301658D01*
X152666667Y-107331652D01*
X152624352Y-107414698D01*
X152624352Y-107414699D01*
X152609776Y-107506731D01*
X152579847Y-107569866D01*
X152574984Y-107575014D01*
X152150000Y-107999999D01*
X152150000Y-110026000D01*
X152130315Y-110093039D01*
X152077511Y-110138794D01*
X152026000Y-110150000D01*
X145974000Y-110150000D01*
X145906961Y-110130315D01*
X145861206Y-110077511D01*
X145850000Y-110026000D01*
X145850000Y-108000000D01*
X145359960Y-107509960D01*
X145329283Y-107453779D01*
X145328663Y-107453981D01*
X145327590Y-107450679D01*
X145326475Y-107448637D01*
X145325857Y-107445345D01*
X145325647Y-107444699D01*
X145325646Y-107444697D01*
X145325646Y-107444696D01*
X145268050Y-107331658D01*
X145268046Y-107331654D01*
X145268045Y-107331652D01*
X145178347Y-107241954D01*
X145178344Y-107241952D01*
X145178342Y-107241950D01*
X145084930Y-107194354D01*
X145065301Y-107184352D01*
X145056025Y-107181339D01*
X145056682Y-107179315D01*
X145005184Y-107154899D01*
X145000040Y-107150040D01*
X144600000Y-106750000D01*
X117400000Y-106750000D01*
X117399999Y-106750000D01*
X116992070Y-107157928D01*
X116930747Y-107191413D01*
X116884992Y-107192720D01*
X116770003Y-107174508D01*
X116769997Y-107174508D01*
X116644699Y-107194352D01*
X116644698Y-107194352D01*
X116584654Y-107224947D01*
X116531658Y-107251950D01*
X116531657Y-107251951D01*
X116531652Y-107251954D01*
X116441954Y-107341652D01*
X116441951Y-107341657D01*
X116384352Y-107454698D01*
X116384352Y-107454699D01*
X116364508Y-107579996D01*
X116364508Y-107580003D01*
X116382720Y-107694992D01*
X116373765Y-107764285D01*
X116347929Y-107802070D01*
X116150000Y-108000000D01*
X116150000Y-110026000D01*
X116130315Y-110093039D01*
X116077511Y-110138794D01*
X116026000Y-110150000D01*
X109974000Y-110150000D01*
X109906961Y-110130315D01*
X109861206Y-110077511D01*
X109850000Y-110026000D01*
X109850000Y-108000000D01*
X109589846Y-107739846D01*
X109556361Y-107678523D01*
X109555054Y-107632766D01*
X109555492Y-107630000D01*
X109555492Y-107629996D01*
X109535647Y-107504699D01*
X109535647Y-107504698D01*
X109535646Y-107504696D01*
X109478050Y-107391658D01*
X109478046Y-107391654D01*
X109478045Y-107391652D01*
X109388347Y-107301954D01*
X109388344Y-107301952D01*
X109388342Y-107301950D01*
X109275304Y-107244354D01*
X109275303Y-107244353D01*
X109275300Y-107244352D01*
X109150003Y-107224508D01*
X109149993Y-107224508D01*
X109147220Y-107224947D01*
X109143825Y-107224508D01*
X109140242Y-107224508D01*
X109140242Y-107224044D01*
X109077927Y-107215986D01*
X109040153Y-107190153D01*
X108150000Y-106300000D01*
X107627915Y-106300000D01*
X107560876Y-106280315D01*
X107538388Y-106261796D01*
X107034473Y-105735971D01*
X107002301Y-105673950D01*
X107000000Y-105650175D01*
X107000000Y-102049599D01*
X107019685Y-101982560D01*
X107034204Y-101964085D01*
X107963350Y-100988483D01*
X108023838Y-100953512D01*
X108053143Y-100950000D01*
X156347480Y-100950000D01*
X156414519Y-100969685D01*
G37*
%TD.AperFunction*%
%TD*%
%TA.AperFunction,Conductor*%
%TO.N,/Power/AGND2*%
G36*
X123615677Y-81369685D02*
G01*
X123636319Y-81386319D01*
X124563681Y-82313681D01*
X124597166Y-82375004D01*
X124600000Y-82401362D01*
X124600000Y-83398638D01*
X124580315Y-83465677D01*
X124563681Y-83486319D01*
X124036319Y-84013681D01*
X123974996Y-84047166D01*
X123948638Y-84050000D01*
X119299999Y-84050000D01*
X118500000Y-84849999D01*
X118500000Y-85976000D01*
X118480315Y-86043039D01*
X118427511Y-86088794D01*
X118376000Y-86100000D01*
X117451362Y-86100000D01*
X117384323Y-86080315D01*
X117363681Y-86063681D01*
X116336319Y-85036319D01*
X116302834Y-84974996D01*
X116300000Y-84948638D01*
X116300000Y-82201362D01*
X116319685Y-82134323D01*
X116336319Y-82113681D01*
X116713681Y-81736319D01*
X116775004Y-81702834D01*
X116801362Y-81700000D01*
X121150000Y-81700000D01*
X121463681Y-81386319D01*
X121525004Y-81352834D01*
X121551362Y-81350000D01*
X123548638Y-81350000D01*
X123615677Y-81369685D01*
G37*
%TD.AperFunction*%
%TD*%
%TA.AperFunction,Conductor*%
%TO.N,/12V*%
G36*
X155815456Y-52319620D02*
G01*
X155836533Y-52336533D01*
X156563681Y-53063681D01*
X156597166Y-53125004D01*
X156600000Y-53151362D01*
X156600000Y-56840843D01*
X156580315Y-56907882D01*
X156554021Y-56937221D01*
X155584121Y-57722378D01*
X155519629Y-57749260D01*
X155506100Y-57750000D01*
X149750000Y-57750000D01*
X137250000Y-80599997D01*
X137250000Y-80600000D01*
X137250000Y-85300000D01*
X138800000Y-86850000D01*
X139800000Y-87850000D01*
X142726000Y-87850000D01*
X142793039Y-87869685D01*
X142838794Y-87922489D01*
X142850000Y-87974000D01*
X142850000Y-90098638D01*
X142830315Y-90165677D01*
X142813681Y-90186319D01*
X142286590Y-90713409D01*
X142225267Y-90746894D01*
X142198253Y-90749726D01*
X132850977Y-90700269D01*
X132784043Y-90680230D01*
X132763952Y-90663952D01*
X130086319Y-87986319D01*
X130052834Y-87924996D01*
X130050000Y-87898638D01*
X130050000Y-81700000D01*
X128950000Y-80650000D01*
X116450000Y-80650000D01*
X116449999Y-80650000D01*
X114749999Y-82350000D01*
X114769700Y-84320053D01*
X114758501Y-84372804D01*
X114713302Y-84471776D01*
X114694867Y-84600000D01*
X114713302Y-84728226D01*
X114713303Y-84728227D01*
X114764199Y-84839674D01*
X114775399Y-84889945D01*
X114785913Y-85941281D01*
X114800000Y-87350000D01*
X115300000Y-87850000D01*
X115672882Y-87850000D01*
X115679873Y-87850500D01*
X115685228Y-87850500D01*
X115820127Y-87850500D01*
X115827118Y-87850000D01*
X116624929Y-87850000D01*
X116691968Y-87869685D01*
X116760928Y-87914003D01*
X116760933Y-87914005D01*
X116885225Y-87950499D01*
X116885227Y-87950500D01*
X116885228Y-87950500D01*
X117014773Y-87950500D01*
X117014773Y-87950499D01*
X117139069Y-87914004D01*
X117139071Y-87914003D01*
X117208032Y-87869685D01*
X117275071Y-87850000D01*
X118090402Y-87850000D01*
X118157441Y-87869685D01*
X118187230Y-87896538D01*
X118522828Y-88316035D01*
X118549336Y-88380681D01*
X118550000Y-88393497D01*
X118550000Y-90102855D01*
X118530315Y-90169894D01*
X118518679Y-90185236D01*
X118186995Y-90558381D01*
X118127744Y-90595409D01*
X118094316Y-90600000D01*
X109700047Y-90600000D01*
X109633008Y-90580315D01*
X109613974Y-90565261D01*
X108352883Y-89349209D01*
X108318290Y-89288505D01*
X108322007Y-89218735D01*
X108346495Y-89177325D01*
X108506194Y-88998623D01*
X108714211Y-88705452D01*
X108888094Y-88390833D01*
X109025659Y-88058724D01*
X109125173Y-87713300D01*
X109185387Y-87358907D01*
X109205543Y-87000000D01*
X109185387Y-86641093D01*
X109125173Y-86286700D01*
X109025659Y-85941276D01*
X108888094Y-85609167D01*
X108714211Y-85294548D01*
X108557355Y-85073482D01*
X108506194Y-85001377D01*
X108460281Y-84950000D01*
X108273414Y-84740896D01*
X108243423Y-84677795D01*
X108241877Y-84658510D01*
X108227328Y-76434386D01*
X108246894Y-76367316D01*
X108263546Y-76346592D01*
X112913665Y-71686414D01*
X112974952Y-71652862D01*
X113001441Y-71650000D01*
X125750000Y-71650000D01*
X125750001Y-71649999D01*
X129116839Y-68050000D01*
X132744867Y-68050000D01*
X132763302Y-68178225D01*
X132817117Y-68296061D01*
X132817118Y-68296063D01*
X132901951Y-68393967D01*
X133010931Y-68464004D01*
X133135225Y-68500499D01*
X133135227Y-68500500D01*
X133135228Y-68500500D01*
X133264773Y-68500500D01*
X133264773Y-68500499D01*
X133389069Y-68464004D01*
X133498049Y-68393967D01*
X133582882Y-68296063D01*
X133636697Y-68178226D01*
X133655133Y-68050000D01*
X133636697Y-67921774D01*
X133582882Y-67803937D01*
X133498049Y-67706033D01*
X133389069Y-67635996D01*
X133389065Y-67635994D01*
X133389064Y-67635994D01*
X133264774Y-67599500D01*
X133264772Y-67599500D01*
X133135228Y-67599500D01*
X133135226Y-67599500D01*
X133010935Y-67635994D01*
X133010932Y-67635995D01*
X133010931Y-67635996D01*
X132959677Y-67668934D01*
X132901950Y-67706033D01*
X132817118Y-67803937D01*
X132817117Y-67803938D01*
X132763302Y-67921774D01*
X132744867Y-68050000D01*
X129116839Y-68050000D01*
X141087827Y-55249995D01*
X148644732Y-55249995D01*
X148644732Y-55250004D01*
X148663777Y-55504154D01*
X148715521Y-55730861D01*
X148720492Y-55752637D01*
X148813607Y-55989888D01*
X148941041Y-56210612D01*
X149099950Y-56409877D01*
X149286783Y-56583232D01*
X149497366Y-56726805D01*
X149497371Y-56726807D01*
X149497372Y-56726808D01*
X149497373Y-56726809D01*
X149619328Y-56785538D01*
X149726992Y-56837387D01*
X149726993Y-56837387D01*
X149726996Y-56837389D01*
X149970542Y-56912513D01*
X150222565Y-56950500D01*
X150477435Y-56950500D01*
X150729458Y-56912513D01*
X150973004Y-56837389D01*
X151202634Y-56726805D01*
X151413217Y-56583232D01*
X151600050Y-56409877D01*
X151758959Y-56210612D01*
X151886393Y-55989888D01*
X151979508Y-55752637D01*
X152036222Y-55504157D01*
X152055268Y-55250000D01*
X152036222Y-54995843D01*
X151979508Y-54747363D01*
X151886393Y-54510112D01*
X151758959Y-54289388D01*
X151600050Y-54090123D01*
X151413217Y-53916768D01*
X151202634Y-53773195D01*
X151202630Y-53773193D01*
X151202627Y-53773191D01*
X151202626Y-53773190D01*
X150973006Y-53662612D01*
X150973008Y-53662612D01*
X150729466Y-53587489D01*
X150729462Y-53587488D01*
X150729458Y-53587487D01*
X150608231Y-53569214D01*
X150477440Y-53549500D01*
X150477435Y-53549500D01*
X150222565Y-53549500D01*
X150222559Y-53549500D01*
X150070802Y-53572375D01*
X149970542Y-53587487D01*
X149970539Y-53587488D01*
X149970533Y-53587489D01*
X149726992Y-53662612D01*
X149497373Y-53773190D01*
X149497372Y-53773191D01*
X149286782Y-53916768D01*
X149099952Y-54090121D01*
X149099950Y-54090123D01*
X148941041Y-54289388D01*
X148813608Y-54510109D01*
X148720492Y-54747362D01*
X148720490Y-54747369D01*
X148663777Y-54995845D01*
X148644732Y-55249995D01*
X141087827Y-55249995D01*
X143763454Y-52389075D01*
X143823622Y-52353559D01*
X143853500Y-52349777D01*
X155748335Y-52300215D01*
X155815456Y-52319620D01*
G37*
%TD.AperFunction*%
%TD*%
%TA.AperFunction,Conductor*%
%TO.N,/Power/AGND1*%
G36*
X151065318Y-77569581D02*
G01*
X151086666Y-77586666D01*
X152413681Y-78913681D01*
X152447166Y-78975004D01*
X152450000Y-79001362D01*
X152450000Y-82848638D01*
X152430315Y-82915677D01*
X152413681Y-82936319D01*
X151486319Y-83863681D01*
X151424996Y-83897166D01*
X151398638Y-83900000D01*
X148625080Y-83900000D01*
X148558041Y-83880315D01*
X148512286Y-83827511D01*
X148502342Y-83793647D01*
X148499197Y-83771774D01*
X148445382Y-83653938D01*
X148445382Y-83653937D01*
X148360549Y-83556033D01*
X148251569Y-83485996D01*
X148251565Y-83485994D01*
X148251564Y-83485994D01*
X148127274Y-83449500D01*
X148127272Y-83449500D01*
X147997728Y-83449500D01*
X147997726Y-83449500D01*
X147873435Y-83485994D01*
X147873432Y-83485995D01*
X147873431Y-83485996D01*
X147822177Y-83518934D01*
X147764450Y-83556033D01*
X147679618Y-83653937D01*
X147679617Y-83653938D01*
X147625802Y-83771774D01*
X147622658Y-83793647D01*
X147593633Y-83857203D01*
X147534855Y-83894977D01*
X147499920Y-83900000D01*
X143051362Y-83900000D01*
X142984323Y-83880315D01*
X142963681Y-83863681D01*
X142843597Y-83743597D01*
X142810112Y-83682274D01*
X142815096Y-83612582D01*
X142837562Y-83574716D01*
X142925377Y-83473373D01*
X142985165Y-83342457D01*
X143005647Y-83200000D01*
X142985165Y-83057543D01*
X142925377Y-82926627D01*
X142831128Y-82817857D01*
X142803342Y-82800000D01*
X144094867Y-82800000D01*
X144113302Y-82928225D01*
X144152813Y-83014740D01*
X144167118Y-83046063D01*
X144251951Y-83143967D01*
X144360931Y-83214004D01*
X144485225Y-83250499D01*
X144485227Y-83250500D01*
X144485228Y-83250500D01*
X144614773Y-83250500D01*
X144614773Y-83250499D01*
X144739069Y-83214004D01*
X144848049Y-83143967D01*
X144932882Y-83046063D01*
X144986697Y-82928226D01*
X145005133Y-82800000D01*
X144990398Y-82697514D01*
X145748824Y-82697514D01*
X145767259Y-82825739D01*
X145819693Y-82940551D01*
X145821075Y-82943577D01*
X145905908Y-83041481D01*
X146014888Y-83111518D01*
X146125402Y-83143967D01*
X146139182Y-83148013D01*
X146139184Y-83148014D01*
X146139185Y-83148014D01*
X146268730Y-83148014D01*
X146268730Y-83148013D01*
X146393026Y-83111518D01*
X146502006Y-83041481D01*
X146586839Y-82943577D01*
X146586842Y-82943569D01*
X146588783Y-82940551D01*
X146591503Y-82938193D01*
X146592646Y-82936875D01*
X146592835Y-82937039D01*
X146641586Y-82894794D01*
X146710744Y-82884849D01*
X146774300Y-82913871D01*
X146786811Y-82926381D01*
X146802686Y-82944702D01*
X146911666Y-83014739D01*
X147035960Y-83051234D01*
X147035962Y-83051235D01*
X147035963Y-83051235D01*
X147165508Y-83051235D01*
X147165508Y-83051234D01*
X147289804Y-83014739D01*
X147398784Y-82944702D01*
X147400045Y-82943247D01*
X147401667Y-82942204D01*
X147405489Y-82938893D01*
X147405964Y-82939442D01*
X147458822Y-82905470D01*
X147528691Y-82905468D01*
X147587471Y-82943240D01*
X147606555Y-82972934D01*
X147617118Y-82996063D01*
X147701951Y-83093967D01*
X147810931Y-83164004D01*
X147935225Y-83200499D01*
X147935227Y-83200500D01*
X147935228Y-83200500D01*
X148064773Y-83200500D01*
X148064773Y-83200499D01*
X148189069Y-83164004D01*
X148298049Y-83093967D01*
X148382882Y-82996063D01*
X148436697Y-82878226D01*
X148455133Y-82750000D01*
X148436697Y-82621774D01*
X148382882Y-82503937D01*
X148298049Y-82406033D01*
X148189069Y-82335996D01*
X148189065Y-82335994D01*
X148189064Y-82335994D01*
X148064774Y-82299500D01*
X148064772Y-82299500D01*
X147935228Y-82299500D01*
X147935226Y-82299500D01*
X147810935Y-82335994D01*
X147810932Y-82335995D01*
X147810931Y-82335996D01*
X147781860Y-82354679D01*
X147701946Y-82406035D01*
X147701943Y-82406038D01*
X147700678Y-82407499D01*
X147699053Y-82408542D01*
X147695246Y-82411842D01*
X147694771Y-82411294D01*
X147641897Y-82445268D01*
X147572027Y-82445262D01*
X147513253Y-82407482D01*
X147494181Y-82377803D01*
X147483617Y-82354672D01*
X147398784Y-82256768D01*
X147289804Y-82186731D01*
X147289800Y-82186729D01*
X147289799Y-82186729D01*
X147165509Y-82150235D01*
X147165507Y-82150235D01*
X147035963Y-82150235D01*
X147035961Y-82150235D01*
X146911670Y-82186729D01*
X146911667Y-82186730D01*
X146911666Y-82186731D01*
X146860412Y-82219669D01*
X146802685Y-82256768D01*
X146717846Y-82354679D01*
X146715900Y-82357708D01*
X146713182Y-82360062D01*
X146712046Y-82361374D01*
X146711857Y-82361210D01*
X146663093Y-82403459D01*
X146593934Y-82413398D01*
X146530380Y-82384368D01*
X146517875Y-82371861D01*
X146502007Y-82353548D01*
X146502006Y-82353547D01*
X146393026Y-82283510D01*
X146393022Y-82283508D01*
X146393021Y-82283508D01*
X146268731Y-82247014D01*
X146268729Y-82247014D01*
X146139185Y-82247014D01*
X146139183Y-82247014D01*
X146014892Y-82283508D01*
X146014889Y-82283509D01*
X146014888Y-82283510D01*
X145990007Y-82299500D01*
X145905907Y-82353547D01*
X145821075Y-82451451D01*
X145821074Y-82451452D01*
X145767259Y-82569288D01*
X145748824Y-82697514D01*
X144990398Y-82697514D01*
X144986697Y-82671774D01*
X144932882Y-82553937D01*
X144848049Y-82456033D01*
X144739069Y-82385996D01*
X144739065Y-82385994D01*
X144739064Y-82385994D01*
X144614774Y-82349500D01*
X144614772Y-82349500D01*
X144485228Y-82349500D01*
X144485226Y-82349500D01*
X144360935Y-82385994D01*
X144360932Y-82385995D01*
X144360931Y-82385996D01*
X144320714Y-82411842D01*
X144251950Y-82456033D01*
X144167118Y-82553937D01*
X144167117Y-82553938D01*
X144113302Y-82671774D01*
X144094867Y-82800000D01*
X142803342Y-82800000D01*
X142710053Y-82740047D01*
X142710051Y-82740046D01*
X142710049Y-82740045D01*
X142710050Y-82740045D01*
X142571963Y-82699500D01*
X142571961Y-82699500D01*
X142428039Y-82699500D01*
X142428036Y-82699500D01*
X142289949Y-82740045D01*
X142168872Y-82817857D01*
X142168871Y-82817857D01*
X142139556Y-82851688D01*
X142080777Y-82889461D01*
X142010907Y-82889459D01*
X141958164Y-82858164D01*
X141086319Y-81986319D01*
X141052834Y-81924996D01*
X141050000Y-81898638D01*
X141050000Y-80500000D01*
X147244867Y-80500000D01*
X147263302Y-80628225D01*
X147317117Y-80746061D01*
X147317118Y-80746063D01*
X147401951Y-80843967D01*
X147510931Y-80914004D01*
X147635225Y-80950499D01*
X147635227Y-80950500D01*
X147635228Y-80950500D01*
X147764773Y-80950500D01*
X147764773Y-80950499D01*
X147889069Y-80914004D01*
X147998049Y-80843967D01*
X148082882Y-80746063D01*
X148136697Y-80628226D01*
X148155133Y-80500000D01*
X148136697Y-80371774D01*
X148082882Y-80253937D01*
X147998049Y-80156033D01*
X147889069Y-80085996D01*
X147889065Y-80085994D01*
X147889064Y-80085994D01*
X147764774Y-80049500D01*
X147764772Y-80049500D01*
X147635228Y-80049500D01*
X147635226Y-80049500D01*
X147510935Y-80085994D01*
X147510932Y-80085995D01*
X147510931Y-80085996D01*
X147459677Y-80118934D01*
X147401950Y-80156033D01*
X147317118Y-80253937D01*
X147317117Y-80253938D01*
X147263302Y-80371774D01*
X147244867Y-80500000D01*
X141050000Y-80500000D01*
X141050000Y-80251362D01*
X141069685Y-80184323D01*
X141086319Y-80163681D01*
X142336319Y-78913681D01*
X143614029Y-77635970D01*
X143675350Y-77602487D01*
X143700867Y-77599656D01*
X150998148Y-77550350D01*
X151065318Y-77569581D01*
G37*
%TD.AperFunction*%
%TD*%
M02*
