%TF.GenerationSoftware,KiCad,Pcbnew,8.0.7*%
%TF.CreationDate,2025-01-02T17:31:43-08:00*%
%TF.ProjectId,BitaxeGT,42697461-7865-4475-942e-6b696361645f,v800*%
%TF.SameCoordinates,Original*%
%TF.FileFunction,Soldermask,Top*%
%TF.FilePolarity,Negative*%
%FSLAX46Y46*%
G04 Gerber Fmt 4.6, Leading zero omitted, Abs format (unit mm)*
G04 Created by KiCad (PCBNEW 8.0.7) date 2025-01-02 17:31:43*
%MOMM*%
%LPD*%
G01*
G04 APERTURE LIST*
G04 Aperture macros list*
%AMRoundRect*
0 Rectangle with rounded corners*
0 $1 Rounding radius*
0 $2 $3 $4 $5 $6 $7 $8 $9 X,Y pos of 4 corners*
0 Add a 4 corners polygon primitive as box body*
4,1,4,$2,$3,$4,$5,$6,$7,$8,$9,$2,$3,0*
0 Add four circle primitives for the rounded corners*
1,1,$1+$1,$2,$3*
1,1,$1+$1,$4,$5*
1,1,$1+$1,$6,$7*
1,1,$1+$1,$8,$9*
0 Add four rect primitives between the rounded corners*
20,1,$1+$1,$2,$3,$4,$5,0*
20,1,$1+$1,$4,$5,$6,$7,0*
20,1,$1+$1,$6,$7,$8,$9,0*
20,1,$1+$1,$8,$9,$2,$3,0*%
G04 Aperture macros list end*
%ADD10C,0.000000*%
%ADD11C,0.120000*%
%ADD12C,2.000000*%
%ADD13R,0.900000X1.800000*%
%ADD14RoundRect,0.055250X-0.340750X-0.055250X0.340750X-0.055250X0.340750X0.055250X-0.340750X0.055250X0*%
%ADD15R,1.700000X1.700000*%
%ADD16O,1.700000X1.700000*%
%ADD17C,0.800000*%
%ADD18C,6.400000*%
%ADD19RoundRect,0.150000X0.150000X0.625000X-0.150000X0.625000X-0.150000X-0.625000X0.150000X-0.625000X0*%
%ADD20RoundRect,0.250000X0.350000X0.650000X-0.350000X0.650000X-0.350000X-0.650000X0.350000X-0.650000X0*%
%ADD21C,1.295400*%
%ADD22C,1.574800*%
%ADD23C,3.200000*%
%ADD24C,1.700000*%
%ADD25C,0.990600*%
%ADD26C,0.400000*%
%ADD27C,3.000000*%
%ADD28C,0.650000*%
%ADD29O,1.000000X1.800000*%
%ADD30O,1.000000X2.100000*%
G04 APERTURE END LIST*
D10*
%TO.C,G\u002A\u002A\u002A*%
G36*
X124027177Y-69583387D02*
G01*
X124417726Y-69973936D01*
X124032597Y-70359486D01*
X123929016Y-70462783D01*
X123835151Y-70555630D01*
X123754984Y-70634149D01*
X123692497Y-70694464D01*
X123651672Y-70732697D01*
X123636628Y-70745037D01*
X123619598Y-70730895D01*
X123577190Y-70691055D01*
X123513388Y-70629393D01*
X123432174Y-70549788D01*
X123337530Y-70456116D01*
X123240659Y-70359486D01*
X122855531Y-69973936D01*
X123246080Y-69583387D01*
X123636628Y-69192838D01*
X124027177Y-69583387D01*
G37*
G36*
X127220281Y-70645640D02*
G01*
X127220550Y-71431804D01*
X127646184Y-71437436D01*
X128071818Y-71443068D01*
X127798632Y-71781666D01*
X127525446Y-72120263D01*
X127372998Y-72120263D01*
X127220550Y-72120263D01*
X127220666Y-73646555D01*
X127221009Y-73988320D01*
X127221982Y-74289789D01*
X127223582Y-74550779D01*
X127225807Y-74771101D01*
X127228654Y-74950570D01*
X127232121Y-75089001D01*
X127236204Y-75186207D01*
X127240902Y-75242002D01*
X127242889Y-75252459D01*
X127280407Y-75333150D01*
X127343749Y-75417483D01*
X127420938Y-75491554D01*
X127486137Y-75534867D01*
X127556832Y-75571135D01*
X127453376Y-75635447D01*
X127347613Y-75723665D01*
X127290444Y-75800946D01*
X127230968Y-75902133D01*
X127225183Y-77285500D01*
X127224086Y-77560116D01*
X127223305Y-77796088D01*
X127222907Y-77996447D01*
X127222959Y-78164221D01*
X127223527Y-78302440D01*
X127224677Y-78414133D01*
X127226476Y-78502329D01*
X127228991Y-78570059D01*
X127232287Y-78620351D01*
X127236432Y-78656235D01*
X127241491Y-78680740D01*
X127247532Y-78696896D01*
X127254621Y-78707732D01*
X127256438Y-78709826D01*
X127335934Y-78771857D01*
X127439021Y-78815927D01*
X127549153Y-78835293D01*
X127565168Y-78835650D01*
X127644355Y-78830449D01*
X127711851Y-78811015D01*
X127781939Y-78771606D01*
X127850861Y-78720747D01*
X127901677Y-78684439D01*
X127926387Y-78674752D01*
X127927719Y-78688220D01*
X127908401Y-78721377D01*
X127871162Y-78770756D01*
X127818729Y-78832892D01*
X127753831Y-78904318D01*
X127679196Y-78981567D01*
X127597551Y-79061174D01*
X127543705Y-79111012D01*
X127391378Y-79255468D01*
X127246744Y-79405043D01*
X127114246Y-79554324D01*
X126998329Y-79697898D01*
X126903437Y-79830350D01*
X126834015Y-79946269D01*
X126803919Y-80012106D01*
X126769515Y-80102741D01*
X126338675Y-79701734D01*
X125907834Y-79300727D01*
X125907325Y-77663941D01*
X125906961Y-77354645D01*
X125906087Y-77070358D01*
X125904727Y-76813066D01*
X125902904Y-76584758D01*
X125900644Y-76387420D01*
X125897971Y-76223040D01*
X125894908Y-76093604D01*
X125891481Y-76001101D01*
X125887714Y-75947517D01*
X125886177Y-75937681D01*
X125838928Y-75814462D01*
X125761540Y-75706849D01*
X125663720Y-75627522D01*
X125572611Y-75574128D01*
X125630830Y-75544073D01*
X125731973Y-75472089D01*
X125819518Y-75372060D01*
X125852441Y-75318704D01*
X125860866Y-75302537D01*
X125868179Y-75285478D01*
X125874470Y-75264596D01*
X125879831Y-75236958D01*
X125884353Y-75199630D01*
X125888125Y-75149680D01*
X125891240Y-75084176D01*
X125893787Y-75000184D01*
X125895859Y-74894772D01*
X125897544Y-74765007D01*
X125898936Y-74607956D01*
X125900123Y-74420687D01*
X125901197Y-74200267D01*
X125902249Y-73943763D01*
X125903259Y-73677810D01*
X125909102Y-72120263D01*
X125585499Y-72120263D01*
X125474701Y-72119286D01*
X125380242Y-72116589D01*
X125309199Y-72112525D01*
X125268651Y-72107444D01*
X125261895Y-72104177D01*
X125271823Y-72081755D01*
X125299385Y-72029401D01*
X125341244Y-71953196D01*
X125394066Y-71859222D01*
X125447588Y-71765579D01*
X125633281Y-71443068D01*
X125869532Y-71430396D01*
X125982372Y-71421618D01*
X126084816Y-71408666D01*
X126164648Y-71393273D01*
X126194949Y-71384223D01*
X126365620Y-71298312D01*
X126527513Y-71172733D01*
X126679689Y-71008743D01*
X126821208Y-70807605D01*
X126951131Y-70570578D01*
X127068517Y-70298923D01*
X127128343Y-70132391D01*
X127220013Y-69859475D01*
X127220281Y-70645640D01*
G37*
G36*
X123227698Y-71425424D02*
G01*
X123269701Y-71458955D01*
X123331107Y-71510813D01*
X123406152Y-71576198D01*
X123432002Y-71599102D01*
X123629609Y-71764585D01*
X123819732Y-71903468D01*
X123997392Y-72012318D01*
X124115874Y-72070635D01*
X124191833Y-72100602D01*
X124259740Y-72118502D01*
X124335885Y-72127299D01*
X124436562Y-72129960D01*
X124441966Y-72129983D01*
X124531695Y-72131109D01*
X124586562Y-72134564D01*
X124613366Y-72141670D01*
X124618909Y-72153748D01*
X124615037Y-72163592D01*
X124582450Y-72210417D01*
X124530293Y-72271488D01*
X124469357Y-72335563D01*
X124410431Y-72391402D01*
X124364302Y-72427762D01*
X124357876Y-72431540D01*
X124303404Y-72460693D01*
X124303862Y-73816770D01*
X124304007Y-74088774D01*
X124304304Y-74322269D01*
X124304838Y-74520422D01*
X124305695Y-74686396D01*
X124306961Y-74823356D01*
X124308723Y-74934468D01*
X124311066Y-75022897D01*
X124314076Y-75091808D01*
X124317840Y-75144365D01*
X124322443Y-75183735D01*
X124327971Y-75213081D01*
X124334511Y-75235569D01*
X124342149Y-75254364D01*
X124342991Y-75256194D01*
X124403885Y-75350669D01*
X124490654Y-75438636D01*
X124584700Y-75502971D01*
X124621064Y-75525484D01*
X124619567Y-75535652D01*
X124609387Y-75536656D01*
X124568853Y-75553336D01*
X124514304Y-75595911D01*
X124454249Y-75655217D01*
X124397199Y-75722088D01*
X124351664Y-75787360D01*
X124326229Y-75841602D01*
X124320861Y-75882222D01*
X124316224Y-75962934D01*
X124312312Y-76083966D01*
X124309123Y-76245546D01*
X124306653Y-76447899D01*
X124304898Y-76691254D01*
X124303855Y-76975837D01*
X124303521Y-77278670D01*
X124303404Y-78634369D01*
X124364704Y-78693098D01*
X124445764Y-78746987D01*
X124548951Y-78782354D01*
X124657058Y-78794441D01*
X124712873Y-78789352D01*
X124769484Y-78777341D01*
X124813635Y-78761313D01*
X124859179Y-78734268D01*
X124919973Y-78689203D01*
X124936615Y-78676296D01*
X124986669Y-78640112D01*
X125007219Y-78632288D01*
X124998751Y-78652249D01*
X124961753Y-78699419D01*
X124896709Y-78773222D01*
X124804108Y-78873082D01*
X124684433Y-78998424D01*
X124538173Y-79148671D01*
X124534254Y-79152666D01*
X124357182Y-79336232D01*
X124210086Y-79495737D01*
X124090892Y-79633755D01*
X123997524Y-79752862D01*
X123927908Y-79855633D01*
X123879971Y-79944642D01*
X123863209Y-79985547D01*
X123843337Y-80032740D01*
X123827579Y-80057089D01*
X123825182Y-80058032D01*
X123807696Y-80043967D01*
X123764040Y-80004775D01*
X123698169Y-79944126D01*
X123614038Y-79865689D01*
X123515600Y-79773134D01*
X123406811Y-79670130D01*
X123392914Y-79656924D01*
X122972088Y-79256850D01*
X122970970Y-77573613D01*
X122970653Y-77259530D01*
X122970118Y-76984576D01*
X122969322Y-76746208D01*
X122968220Y-76541882D01*
X122966771Y-76369054D01*
X122964931Y-76225181D01*
X122962656Y-76107720D01*
X122959904Y-76014125D01*
X122956631Y-75941855D01*
X122952794Y-75888364D01*
X122948349Y-75851110D01*
X122943255Y-75827549D01*
X122941204Y-75821811D01*
X122882634Y-75722842D01*
X122799433Y-75634583D01*
X122705811Y-75571908D01*
X122699807Y-75569120D01*
X122615239Y-75530986D01*
X122693571Y-75495109D01*
X122759127Y-75455850D01*
X122824441Y-75403001D01*
X122838566Y-75388968D01*
X122865984Y-75360031D01*
X122889294Y-75333267D01*
X122908828Y-75305207D01*
X122924921Y-75272381D01*
X122937905Y-75231319D01*
X122948113Y-75178551D01*
X122955880Y-75110608D01*
X122961538Y-75024019D01*
X122965420Y-74915316D01*
X122967860Y-74781028D01*
X122969191Y-74617685D01*
X122969746Y-74421818D01*
X122969859Y-74189956D01*
X122969852Y-74021967D01*
X122969852Y-72880167D01*
X122863115Y-72842258D01*
X122746525Y-72792120D01*
X122637402Y-72729433D01*
X122548042Y-72661954D01*
X122503292Y-72615331D01*
X122453037Y-72551117D01*
X122828903Y-71986674D01*
X122919763Y-71850286D01*
X123003083Y-71725327D01*
X123076096Y-71615937D01*
X123136034Y-71526258D01*
X123180132Y-71460431D01*
X123205621Y-71422597D01*
X123210863Y-71415018D01*
X123227698Y-71425424D01*
G37*
G36*
X141692715Y-71471975D02*
G01*
X141717082Y-71484221D01*
X141776090Y-71509404D01*
X141865358Y-71545844D01*
X141980502Y-71591858D01*
X142117140Y-71645765D01*
X142270889Y-71705882D01*
X142437365Y-71770529D01*
X142612187Y-71838023D01*
X142790972Y-71906683D01*
X142969336Y-71974826D01*
X143142896Y-72040772D01*
X143307271Y-72102838D01*
X143458077Y-72159342D01*
X143590931Y-72208603D01*
X143701451Y-72248940D01*
X143785253Y-72278669D01*
X143837955Y-72296110D01*
X143847546Y-72298824D01*
X143934900Y-72315749D01*
X144011001Y-72320770D01*
X144041965Y-72317754D01*
X144148876Y-72276163D01*
X144242503Y-72203273D01*
X144305589Y-72116757D01*
X144352205Y-72026497D01*
X144340378Y-72139837D01*
X144305861Y-72290291D01*
X144238197Y-72424704D01*
X144142254Y-72536834D01*
X144022902Y-72620438D01*
X143938075Y-72655591D01*
X143827440Y-72690466D01*
X143827440Y-72973960D01*
X143828131Y-73091910D01*
X143830952Y-73177232D01*
X143837031Y-73238961D01*
X143847491Y-73286129D01*
X143863460Y-73327770D01*
X143874323Y-73350257D01*
X143917980Y-73417032D01*
X143972077Y-73474759D01*
X143992007Y-73490111D01*
X144062807Y-73537162D01*
X143991175Y-73537162D01*
X143903969Y-73546135D01*
X143794386Y-73570453D01*
X143677011Y-73606210D01*
X143566430Y-73649504D01*
X143559128Y-73652804D01*
X143450367Y-73708748D01*
X143341130Y-73778511D01*
X143228031Y-73865225D01*
X143107686Y-73972018D01*
X142976711Y-74102022D01*
X142831721Y-74258366D01*
X142669331Y-74444180D01*
X142548440Y-74587525D01*
X142451785Y-74702681D01*
X142355105Y-74816491D01*
X142264608Y-74921747D01*
X142186503Y-75011239D01*
X142127001Y-75077758D01*
X142114783Y-75091002D01*
X141914797Y-75284075D01*
X141707794Y-75442682D01*
X141497117Y-75564654D01*
X141286108Y-75647819D01*
X141235753Y-75661772D01*
X141087408Y-75699443D01*
X141082043Y-77001430D01*
X141081067Y-77278032D01*
X141080615Y-77515560D01*
X141080727Y-77716612D01*
X141081444Y-77883783D01*
X141082808Y-78019673D01*
X141084858Y-78126877D01*
X141087637Y-78207992D01*
X141091185Y-78265616D01*
X141095542Y-78302345D01*
X141100751Y-78320778D01*
X141102880Y-78323463D01*
X141128684Y-78335875D01*
X141187817Y-78360543D01*
X141274764Y-78395371D01*
X141384013Y-78438269D01*
X141510051Y-78487141D01*
X141647365Y-78539895D01*
X141790441Y-78594437D01*
X141933767Y-78648674D01*
X142071829Y-78700514D01*
X142199114Y-78747862D01*
X142310110Y-78788626D01*
X142399304Y-78820711D01*
X142461181Y-78842026D01*
X142490229Y-78850475D01*
X142491028Y-78850533D01*
X142500194Y-78842215D01*
X142506756Y-78814321D01*
X142510916Y-78762440D01*
X142512880Y-78682163D01*
X142512851Y-78569078D01*
X142511034Y-78418775D01*
X142511025Y-78418171D01*
X142507854Y-78256501D01*
X142502991Y-78130648D01*
X142494944Y-78034759D01*
X142482223Y-77962978D01*
X142463338Y-77909450D01*
X142436798Y-77868319D01*
X142401114Y-77833732D01*
X142354794Y-77799833D01*
X142353386Y-77798875D01*
X142275847Y-77746186D01*
X142370071Y-77746186D01*
X142531395Y-77728083D01*
X142700189Y-77676682D01*
X142866073Y-77596337D01*
X143018667Y-77491407D01*
X143058907Y-77457041D01*
X143111520Y-77404386D01*
X143181714Y-77326425D01*
X143262393Y-77231438D01*
X143346465Y-77127704D01*
X143400164Y-77058733D01*
X143479649Y-76956948D01*
X143557318Y-76861322D01*
X143626990Y-76779192D01*
X143682485Y-76717891D01*
X143710290Y-76690687D01*
X143806273Y-76621115D01*
X143921203Y-76558903D01*
X144038930Y-76511690D01*
X144139992Y-76487511D01*
X144188286Y-76482980D01*
X144207494Y-76484556D01*
X144202502Y-76488140D01*
X144112770Y-76539120D01*
X144026147Y-76613636D01*
X143960458Y-76696238D01*
X143958330Y-76699813D01*
X143930521Y-76749936D01*
X143907474Y-76799690D01*
X143888657Y-76853596D01*
X143873541Y-76916174D01*
X143861596Y-76991946D01*
X143852293Y-77085431D01*
X143845101Y-77201152D01*
X143839492Y-77343627D01*
X143834935Y-77517379D01*
X143830900Y-77726928D01*
X143829713Y-77797417D01*
X143817022Y-78567516D01*
X143657022Y-78592230D01*
X143389020Y-78654225D01*
X143128717Y-78754691D01*
X142881468Y-78890490D01*
X142652630Y-79058486D01*
X142447559Y-79255541D01*
X142369927Y-79346064D01*
X142315687Y-79419061D01*
X142254462Y-79510968D01*
X142190417Y-79614380D01*
X142127713Y-79721892D01*
X142070516Y-79826099D01*
X142022989Y-79919597D01*
X141989294Y-79994980D01*
X141973597Y-80044844D01*
X141972970Y-80052045D01*
X141957895Y-80075985D01*
X141924355Y-80076625D01*
X141898999Y-80061727D01*
X141875912Y-80050658D01*
X141818259Y-80026541D01*
X141730448Y-79991075D01*
X141616891Y-79945959D01*
X141481997Y-79892893D01*
X141330177Y-79833576D01*
X141165840Y-79769706D01*
X140993397Y-79702983D01*
X140817258Y-79635106D01*
X140641833Y-79567775D01*
X140471532Y-79502687D01*
X140310764Y-79441543D01*
X140163941Y-79386042D01*
X140035473Y-79337882D01*
X139929768Y-79298763D01*
X139851238Y-79270385D01*
X139804293Y-79254445D01*
X139801566Y-79253619D01*
X139684977Y-79231974D01*
X139572126Y-79229963D01*
X139468757Y-79250736D01*
X139385082Y-79299902D01*
X139313441Y-79382855D01*
X139282351Y-79433963D01*
X139241741Y-79506891D01*
X139254475Y-79402707D01*
X139291643Y-79249917D01*
X139360984Y-79113600D01*
X139457574Y-78999621D01*
X139576492Y-78913847D01*
X139706973Y-78863512D01*
X139764274Y-78849740D01*
X139764070Y-77407191D01*
X139763867Y-75964643D01*
X139714956Y-75859608D01*
X139639123Y-75740926D01*
X139537903Y-75654051D01*
X139475294Y-75621970D01*
X139409982Y-75594917D01*
X139518660Y-75529739D01*
X139631550Y-75439173D01*
X139690597Y-75362032D01*
X139753855Y-75259503D01*
X139759579Y-74117884D01*
X139759722Y-74089336D01*
X141076989Y-74089336D01*
X141077279Y-74384815D01*
X141078135Y-74649236D01*
X141079538Y-74881220D01*
X141081469Y-75079391D01*
X141083909Y-75242371D01*
X141086837Y-75368782D01*
X141090235Y-75457247D01*
X141094083Y-75506389D01*
X141097055Y-75516653D01*
X141126240Y-75509503D01*
X141180404Y-75491065D01*
X141227284Y-75473321D01*
X141382279Y-75397203D01*
X141547126Y-75289195D01*
X141714789Y-75155507D01*
X141878230Y-75002346D01*
X142030413Y-74835920D01*
X142164299Y-74662438D01*
X142191310Y-74622876D01*
X142299502Y-74449144D01*
X142381994Y-74287796D01*
X142441716Y-74128735D01*
X142481603Y-73961864D01*
X142504585Y-73777086D01*
X142513597Y-73564304D01*
X142513998Y-73511849D01*
X142513737Y-73395968D01*
X142511729Y-73314927D01*
X142507169Y-73261904D01*
X142499255Y-73230078D01*
X142487181Y-73212624D01*
X142478015Y-73206430D01*
X142451016Y-73194669D01*
X142391433Y-73170331D01*
X142304637Y-73135519D01*
X142195999Y-73092336D01*
X142070888Y-73042884D01*
X141934677Y-72989265D01*
X141792734Y-72933582D01*
X141650431Y-72877938D01*
X141513139Y-72824435D01*
X141386228Y-72775175D01*
X141275068Y-72732260D01*
X141185030Y-72697795D01*
X141121484Y-72673880D01*
X141089802Y-72662618D01*
X141087368Y-72662018D01*
X141085625Y-72682293D01*
X141083974Y-72740871D01*
X141082439Y-72834381D01*
X141081045Y-72959453D01*
X141079816Y-73112716D01*
X141078778Y-73290800D01*
X141077953Y-73490334D01*
X141077368Y-73707947D01*
X141077046Y-73940270D01*
X141076989Y-74089336D01*
X139759722Y-74089336D01*
X139765303Y-72976265D01*
X139842926Y-72964368D01*
X140148723Y-72898470D01*
X140431024Y-72798161D01*
X140689698Y-72663537D01*
X140924618Y-72494694D01*
X141135652Y-72291726D01*
X141322672Y-72054731D01*
X141485549Y-71783802D01*
X141511337Y-71733356D01*
X141550949Y-71650916D01*
X141584097Y-71576355D01*
X141605416Y-71521953D01*
X141609239Y-71509361D01*
X141632499Y-71463611D01*
X141666834Y-71455724D01*
X141692715Y-71471975D01*
G37*
G36*
X130765003Y-71468531D02*
G01*
X130796060Y-71483311D01*
X130836999Y-71501255D01*
X130912163Y-71531947D01*
X131016826Y-71573586D01*
X131146262Y-71624369D01*
X131295742Y-71682494D01*
X131460542Y-71746159D01*
X131635933Y-71813560D01*
X131817190Y-71882896D01*
X131999584Y-71952364D01*
X132178391Y-72020162D01*
X132348882Y-72084488D01*
X132506331Y-72143538D01*
X132646011Y-72195511D01*
X132763196Y-72238605D01*
X132853158Y-72271016D01*
X132911172Y-72290942D01*
X132925765Y-72295403D01*
X133020102Y-72315347D01*
X133098113Y-72320571D01*
X133123714Y-72317709D01*
X133230392Y-72276190D01*
X133323912Y-72203404D01*
X133387131Y-72116757D01*
X133433747Y-72026497D01*
X133421920Y-72139837D01*
X133387404Y-72290291D01*
X133319739Y-72424704D01*
X133223796Y-72536834D01*
X133104444Y-72620438D01*
X133019617Y-72655591D01*
X132908983Y-72690466D01*
X132908983Y-73929239D01*
X132909281Y-74220542D01*
X132910198Y-74471883D01*
X132911764Y-74684969D01*
X132914011Y-74861508D01*
X132916970Y-75003207D01*
X132920672Y-75111774D01*
X132925149Y-75188915D01*
X132930431Y-75236338D01*
X132933165Y-75248725D01*
X132976524Y-75340013D01*
X133045881Y-75430018D01*
X133128367Y-75504005D01*
X133185496Y-75537692D01*
X133266385Y-75573908D01*
X133169158Y-75620974D01*
X133070170Y-75689647D01*
X132988249Y-75786198D01*
X132934327Y-75897286D01*
X132929604Y-75913352D01*
X132925105Y-75951899D01*
X132921293Y-76030608D01*
X132918184Y-76147972D01*
X132915796Y-76302485D01*
X132914145Y-76492640D01*
X132913247Y-76716930D01*
X132913119Y-76973850D01*
X132913778Y-77261892D01*
X132914038Y-77331360D01*
X132919401Y-78671643D01*
X133017507Y-78732295D01*
X133118245Y-78779228D01*
X133227025Y-78804991D01*
X133327305Y-78806179D01*
X133352960Y-78801311D01*
X133397001Y-78782844D01*
X133459319Y-78747993D01*
X133511929Y-78714049D01*
X133566050Y-78679052D01*
X133595877Y-78665539D01*
X133600609Y-78674521D01*
X133579445Y-78707007D01*
X133531585Y-78764009D01*
X133456228Y-78846537D01*
X133352573Y-78955601D01*
X133219821Y-79092213D01*
X133180970Y-79131830D01*
X133070705Y-79245217D01*
X132964703Y-79356300D01*
X132868214Y-79459418D01*
X132786490Y-79548908D01*
X132724781Y-79619108D01*
X132693392Y-79657527D01*
X132630719Y-79745529D01*
X132572120Y-79837803D01*
X132522630Y-79925342D01*
X132487284Y-79999141D01*
X132471117Y-80050192D01*
X132470638Y-80055972D01*
X132456627Y-80050436D01*
X132417179Y-80017793D01*
X132355558Y-79961151D01*
X132275030Y-79883617D01*
X132178858Y-79788298D01*
X132070309Y-79678300D01*
X132026367Y-79633168D01*
X131582868Y-79176016D01*
X131463482Y-79320617D01*
X131331357Y-79497377D01*
X131215434Y-79685371D01*
X131124090Y-79870559D01*
X131100787Y-79928610D01*
X131069772Y-80008816D01*
X131048111Y-80055552D01*
X131031369Y-80074673D01*
X131015114Y-80072036D01*
X131001300Y-80060029D01*
X130977589Y-80048042D01*
X130919269Y-80023091D01*
X130830742Y-79986869D01*
X130716409Y-79941070D01*
X130580672Y-79887389D01*
X130427932Y-79827520D01*
X130262591Y-79763157D01*
X130089050Y-79695995D01*
X129911711Y-79627726D01*
X129734976Y-79560046D01*
X129563245Y-79494648D01*
X129400921Y-79433227D01*
X129252404Y-79377477D01*
X129122097Y-79329092D01*
X129014401Y-79289766D01*
X128933717Y-79261193D01*
X128884447Y-79245067D01*
X128882544Y-79244521D01*
X128801221Y-79224064D01*
X128726785Y-79209713D01*
X128678717Y-79204758D01*
X128568464Y-79224769D01*
X128470001Y-79282942D01*
X128387400Y-79376483D01*
X128359520Y-79423544D01*
X128337561Y-79461705D01*
X128327977Y-79464739D01*
X128325732Y-79441367D01*
X128331305Y-79398983D01*
X128346685Y-79332093D01*
X128366897Y-79260701D01*
X128431712Y-79115034D01*
X128526941Y-78997422D01*
X128651297Y-78909285D01*
X128710377Y-78882008D01*
X128835398Y-78831809D01*
X128835398Y-77971237D01*
X128835398Y-77125579D01*
X130182243Y-77125579D01*
X130183195Y-77312672D01*
X130184335Y-77484431D01*
X130189787Y-78314808D01*
X130877399Y-78581270D01*
X131037269Y-78643095D01*
X131184849Y-78699923D01*
X131315637Y-78750039D01*
X131425130Y-78791728D01*
X131508826Y-78823276D01*
X131562223Y-78842967D01*
X131580640Y-78849132D01*
X131583029Y-78829024D01*
X131585307Y-78770301D01*
X131587446Y-78676021D01*
X131589418Y-78549245D01*
X131591196Y-78393030D01*
X131592752Y-78210435D01*
X131594059Y-78004519D01*
X131595088Y-77778340D01*
X131595812Y-77534958D01*
X131596204Y-77277431D01*
X131596267Y-77121083D01*
X131596267Y-75391633D01*
X131486874Y-75391880D01*
X131313505Y-75412152D01*
X131137049Y-75469841D01*
X130962144Y-75561413D01*
X130793431Y-75683335D01*
X130635547Y-75832074D01*
X130493132Y-76004095D01*
X130370825Y-76195865D01*
X130330965Y-76272405D01*
X130294348Y-76347173D01*
X130264127Y-76411358D01*
X130239716Y-76469806D01*
X130220528Y-76527367D01*
X130205977Y-76588888D01*
X130195476Y-76659217D01*
X130188439Y-76743203D01*
X130184278Y-76845693D01*
X130182409Y-76971536D01*
X130182243Y-77125579D01*
X128835398Y-77125579D01*
X128835398Y-77110665D01*
X128769459Y-76971483D01*
X128722066Y-76884654D01*
X128664683Y-76797914D01*
X128617095Y-76738541D01*
X128530670Y-76644780D01*
X128630942Y-76632256D01*
X128822202Y-76603479D01*
X128996901Y-76565558D01*
X129160764Y-76515619D01*
X129319516Y-76450787D01*
X129478884Y-76368189D01*
X129644591Y-76264951D01*
X129822363Y-76138198D01*
X130017927Y-75985057D01*
X130168950Y-75860217D01*
X130364296Y-75698868D01*
X130534999Y-75564843D01*
X130685555Y-75455676D01*
X130820461Y-75368900D01*
X130944213Y-75302049D01*
X131061308Y-75252655D01*
X131176243Y-75218252D01*
X131293513Y-75196373D01*
X131398318Y-75185784D01*
X131585849Y-75172847D01*
X131591264Y-74199572D01*
X131592447Y-73972396D01*
X131593171Y-73783322D01*
X131593322Y-73628777D01*
X131592788Y-73505190D01*
X131591457Y-73408990D01*
X131589215Y-73336606D01*
X131585952Y-73284467D01*
X131581553Y-73249001D01*
X131575908Y-73226637D01*
X131568902Y-73213804D01*
X131560425Y-73206931D01*
X131560008Y-73206705D01*
X131531318Y-73194056D01*
X131470232Y-73168945D01*
X131382133Y-73133479D01*
X131272405Y-73089764D01*
X131146430Y-73039906D01*
X131009592Y-72986013D01*
X130867274Y-72930191D01*
X130724859Y-72874546D01*
X130587731Y-72821184D01*
X130461272Y-72772213D01*
X130350866Y-72729740D01*
X130261896Y-72695869D01*
X130199744Y-72672709D01*
X130169796Y-72662365D01*
X130168088Y-72662018D01*
X130164971Y-72682079D01*
X130162690Y-72739173D01*
X130161268Y-72828669D01*
X130160726Y-72945934D01*
X130161085Y-73086337D01*
X130162367Y-73245245D01*
X130164583Y-73417351D01*
X130168516Y-73644222D01*
X130173137Y-73833899D01*
X130178909Y-73990862D01*
X130186297Y-74119591D01*
X130195767Y-74224564D01*
X130207784Y-74310262D01*
X130222813Y-74381163D01*
X130241319Y-74441747D01*
X130263767Y-74496493D01*
X130280093Y-74529908D01*
X130358860Y-74641253D01*
X130466991Y-74733255D01*
X130502338Y-74754727D01*
X130564848Y-74789549D01*
X130471083Y-74777062D01*
X130361825Y-74753771D01*
X130257503Y-74711760D01*
X130153578Y-74647584D01*
X130045512Y-74557800D01*
X129928765Y-74438961D01*
X129798798Y-74287623D01*
X129755287Y-74233786D01*
X129613051Y-74061391D01*
X129486383Y-73921367D01*
X129370312Y-73809824D01*
X129259862Y-73722876D01*
X129150059Y-73656634D01*
X129035931Y-73607209D01*
X128912504Y-73570714D01*
X128904679Y-73568847D01*
X128820350Y-73551984D01*
X128738853Y-73540574D01*
X128691668Y-73537470D01*
X128610449Y-73537162D01*
X128680933Y-73489663D01*
X128764677Y-73413096D01*
X128817984Y-73314645D01*
X128842940Y-73189714D01*
X128845473Y-73126580D01*
X128845816Y-72976458D01*
X128923954Y-72964070D01*
X129079937Y-72933951D01*
X129242715Y-72893281D01*
X129394953Y-72846755D01*
X129496566Y-72808869D01*
X129697555Y-72707635D01*
X129898527Y-72573983D01*
X130089737Y-72416019D01*
X130261442Y-72241846D01*
X130403898Y-72059571D01*
X130412113Y-72047334D01*
X130469456Y-71955812D01*
X130529322Y-71851546D01*
X130586611Y-71744378D01*
X130636227Y-71644149D01*
X130673070Y-71560703D01*
X130690781Y-71509361D01*
X130704405Y-71468994D01*
X130725291Y-71456338D01*
X130765003Y-71468531D01*
G37*
G36*
X137400270Y-71467090D02*
G01*
X137443146Y-71504271D01*
X137503794Y-71559588D01*
X137576142Y-71627600D01*
X137587452Y-71638391D01*
X137772613Y-71801859D01*
X137958085Y-71939668D01*
X138139649Y-72049490D01*
X138313089Y-72129001D01*
X138474184Y-72175872D01*
X138584338Y-72188206D01*
X138661502Y-72186996D01*
X138728157Y-72181110D01*
X138760689Y-72174426D01*
X138794464Y-72165851D01*
X138796547Y-72180251D01*
X138784567Y-72204319D01*
X138754762Y-72246129D01*
X138704431Y-72304195D01*
X138643658Y-72368170D01*
X138582525Y-72427707D01*
X138531115Y-72472461D01*
X138507060Y-72489062D01*
X138498613Y-72495385D01*
X138491438Y-72506876D01*
X138485383Y-72526891D01*
X138480300Y-72558785D01*
X138476038Y-72605914D01*
X138472449Y-72671634D01*
X138469382Y-72759300D01*
X138466689Y-72872268D01*
X138464219Y-73013892D01*
X138461823Y-73187529D01*
X138459351Y-73396534D01*
X138456998Y-73612036D01*
X138445200Y-74714657D01*
X138299392Y-74750452D01*
X138200156Y-74780076D01*
X138100087Y-74821696D01*
X137994210Y-74878435D01*
X137877551Y-74953416D01*
X137745135Y-75049760D01*
X137591987Y-75170591D01*
X137470956Y-75270434D01*
X137423291Y-75312867D01*
X137394074Y-75343973D01*
X137389233Y-75355167D01*
X137413050Y-75366177D01*
X137469481Y-75389105D01*
X137552025Y-75421501D01*
X137654180Y-75460913D01*
X137769441Y-75504889D01*
X137891308Y-75550979D01*
X138013277Y-75596731D01*
X138128845Y-75639694D01*
X138231511Y-75677418D01*
X138314771Y-75707450D01*
X138372124Y-75727339D01*
X138395038Y-75734313D01*
X138475685Y-75735840D01*
X138567262Y-75713716D01*
X138650611Y-75673124D01*
X138668239Y-75660444D01*
X138711135Y-75615801D01*
X138756735Y-75552290D01*
X138775752Y-75519866D01*
X138802330Y-75474246D01*
X138817435Y-75456131D01*
X138818562Y-75464561D01*
X138810047Y-75510838D01*
X138799894Y-75576542D01*
X138796606Y-75600097D01*
X138758095Y-75735353D01*
X138683975Y-75857627D01*
X138579762Y-75960660D01*
X138450975Y-76038197D01*
X138389048Y-76062262D01*
X138295283Y-76093133D01*
X138289911Y-77360924D01*
X138284539Y-78628715D01*
X138331584Y-78679863D01*
X138421187Y-78748953D01*
X138532150Y-78792362D01*
X138651076Y-78807146D01*
X138764569Y-78790362D01*
X138790825Y-78780762D01*
X138852038Y-78747919D01*
X138915938Y-78703451D01*
X138925595Y-78695563D01*
X138966286Y-78666237D01*
X138990437Y-78658460D01*
X138993314Y-78663137D01*
X138979262Y-78684091D01*
X138939681Y-78730399D01*
X138878433Y-78797874D01*
X138799382Y-78882327D01*
X138706391Y-78979570D01*
X138612056Y-79076515D01*
X138451446Y-79241788D01*
X138317991Y-79382846D01*
X138208281Y-79503803D01*
X138118901Y-79608769D01*
X138046441Y-79701855D01*
X137987489Y-79787172D01*
X137938631Y-79868833D01*
X137911042Y-79921160D01*
X137834011Y-80074495D01*
X137408289Y-79676547D01*
X136982568Y-79278600D01*
X136972149Y-77944770D01*
X136961731Y-76610940D01*
X136294955Y-76355707D01*
X136136315Y-76295036D01*
X135989054Y-76238823D01*
X135857951Y-76188884D01*
X135747785Y-76147033D01*
X135663337Y-76115089D01*
X135609385Y-76094868D01*
X135591714Y-76088455D01*
X135584252Y-76087785D01*
X135577880Y-76093077D01*
X135572514Y-76107342D01*
X135568067Y-76133588D01*
X135564453Y-76174827D01*
X135561588Y-76234068D01*
X135559384Y-76314319D01*
X135557756Y-76418592D01*
X135556618Y-76549895D01*
X135555884Y-76711239D01*
X135555469Y-76905633D01*
X135555286Y-77136087D01*
X135555250Y-77366886D01*
X135555250Y-78657335D01*
X135633388Y-78711096D01*
X135738004Y-78772206D01*
X135834021Y-78802707D01*
X135905622Y-78808402D01*
X135994092Y-78794359D01*
X136086911Y-78758628D01*
X136165057Y-78709379D01*
X136188791Y-78686782D01*
X136223709Y-78654298D01*
X136247511Y-78642166D01*
X136254315Y-78651749D01*
X136238482Y-78681453D01*
X136198761Y-78732713D01*
X136133896Y-78806964D01*
X136042635Y-78905640D01*
X135923723Y-79030176D01*
X135775906Y-79182006D01*
X135774029Y-79183922D01*
X135622394Y-79340456D01*
X135497923Y-79473591D01*
X135396919Y-79587931D01*
X135315686Y-79688083D01*
X135250526Y-79778651D01*
X135197743Y-79864242D01*
X135153641Y-79949461D01*
X135145474Y-79967001D01*
X135117557Y-80026563D01*
X135097361Y-80066991D01*
X135090105Y-80078644D01*
X135074615Y-80064604D01*
X135032666Y-80025556D01*
X134968096Y-79965100D01*
X134884746Y-79886839D01*
X134786456Y-79794376D01*
X134677067Y-79691312D01*
X134654061Y-79669618D01*
X134221698Y-79261850D01*
X134221698Y-77909516D01*
X134221855Y-77627634D01*
X134222359Y-77384925D01*
X134223256Y-77178890D01*
X134224596Y-77007032D01*
X134226425Y-76866850D01*
X134228793Y-76755846D01*
X134231746Y-76671521D01*
X134235332Y-76611376D01*
X134239601Y-76572913D01*
X134244598Y-76553632D01*
X134247744Y-76550279D01*
X134279945Y-76542150D01*
X134339993Y-76527302D01*
X134415238Y-76508863D01*
X134419647Y-76507787D01*
X134512261Y-76479229D01*
X134618437Y-76437644D01*
X134716161Y-76391705D01*
X134721780Y-76388730D01*
X134793241Y-76347410D01*
X134876913Y-76294105D01*
X134966576Y-76233397D01*
X135056011Y-76169868D01*
X135138999Y-76108099D01*
X135209319Y-76052674D01*
X135260753Y-76008173D01*
X135287082Y-75979178D01*
X135288409Y-75971283D01*
X135263786Y-75958510D01*
X135206932Y-75934132D01*
X135124775Y-75900797D01*
X135024244Y-75861154D01*
X134912267Y-75817853D01*
X134795774Y-75773541D01*
X134681692Y-75730867D01*
X134576951Y-75692481D01*
X134488479Y-75661031D01*
X134423204Y-75639166D01*
X134406022Y-75633950D01*
X134270208Y-75605848D01*
X134158072Y-75608933D01*
X134063788Y-75644964D01*
X133981529Y-75715699D01*
X133935193Y-75776012D01*
X133896081Y-75827943D01*
X133873697Y-75843652D01*
X133867921Y-75822610D01*
X133878633Y-75764288D01*
X133905714Y-75668159D01*
X133908644Y-75658625D01*
X133956112Y-75543606D01*
X134019138Y-75444664D01*
X134027297Y-75434809D01*
X134089584Y-75375892D01*
X134168333Y-75320360D01*
X134250540Y-75275777D01*
X134323201Y-75249708D01*
X134351928Y-75245979D01*
X134359791Y-75243986D01*
X134366439Y-75235962D01*
X134371973Y-75218692D01*
X134376494Y-75188964D01*
X134380104Y-75143565D01*
X134382905Y-75079283D01*
X134384997Y-74992905D01*
X134386483Y-74881217D01*
X134387464Y-74741007D01*
X134388041Y-74569063D01*
X134388316Y-74362171D01*
X134388392Y-74117118D01*
X134388392Y-74092167D01*
X134388392Y-72938558D01*
X134289417Y-72901217D01*
X134195323Y-72859144D01*
X134103007Y-72806422D01*
X134018825Y-72748185D01*
X133949130Y-72689568D01*
X133900276Y-72635705D01*
X133878618Y-72591731D01*
X133881628Y-72571698D01*
X133900068Y-72542725D01*
X133937447Y-72485574D01*
X133990334Y-72405386D01*
X134055298Y-72307306D01*
X134128911Y-72196475D01*
X134207742Y-72078037D01*
X134288362Y-71957134D01*
X134367339Y-71838909D01*
X134441245Y-71728505D01*
X134506648Y-71631065D01*
X134560120Y-71551731D01*
X134598230Y-71495647D01*
X134617549Y-71467955D01*
X134618986Y-71466129D01*
X134639946Y-71472209D01*
X134684441Y-71502981D01*
X134746408Y-71553799D01*
X134819573Y-71619820D01*
X135018679Y-71793680D01*
X135213276Y-71937912D01*
X135400682Y-72051193D01*
X135578217Y-72132204D01*
X135743203Y-72179623D01*
X135892958Y-72192127D01*
X135964464Y-72184292D01*
X136024275Y-72174804D01*
X136064483Y-72171591D01*
X136073424Y-72173082D01*
X136062612Y-72189840D01*
X136027492Y-72229842D01*
X135973506Y-72287148D01*
X135906096Y-72355822D01*
X135904096Y-72357823D01*
X135727061Y-72534858D01*
X135719293Y-73622223D01*
X135711526Y-74709589D01*
X136419975Y-74987867D01*
X136581658Y-75051328D01*
X136730658Y-75109719D01*
X136862637Y-75161347D01*
X136973258Y-75204519D01*
X137058185Y-75237543D01*
X137113080Y-75258726D01*
X137133607Y-75266376D01*
X137133634Y-75266379D01*
X137134601Y-75246209D01*
X137135510Y-75188101D01*
X137136344Y-75095789D01*
X137137086Y-74973008D01*
X137137719Y-74823495D01*
X137138228Y-74650982D01*
X137138594Y-74459206D01*
X137138801Y-74251902D01*
X137138843Y-74104857D01*
X137138843Y-72943102D01*
X137014503Y-72894888D01*
X136923941Y-72852848D01*
X136830662Y-72798075D01*
X136745063Y-72737857D01*
X136677545Y-72679482D01*
X136639453Y-72632057D01*
X136633879Y-72616686D01*
X136634213Y-72597236D01*
X136642620Y-72569932D01*
X136661264Y-72531001D01*
X136692309Y-72476670D01*
X136737918Y-72403165D01*
X136800257Y-72306714D01*
X136881490Y-72183542D01*
X136983779Y-72029876D01*
X136991137Y-72018849D01*
X137082405Y-71882653D01*
X137166494Y-71758254D01*
X137240591Y-71649730D01*
X137301884Y-71561158D01*
X137347559Y-71496615D01*
X137374804Y-71460177D01*
X137381233Y-71453487D01*
X137400270Y-71467090D01*
G37*
G36*
X119198418Y-69252747D02*
G01*
X119252374Y-69298801D01*
X119299610Y-69334637D01*
X119316368Y-69345199D01*
X119342874Y-69356501D01*
X119404448Y-69381180D01*
X119497234Y-69417734D01*
X119617372Y-69464663D01*
X119761006Y-69520464D01*
X119924277Y-69583635D01*
X120103327Y-69652676D01*
X120294298Y-69726084D01*
X120338429Y-69743016D01*
X120565913Y-69830062D01*
X120758215Y-69903108D01*
X120918940Y-69963391D01*
X121051694Y-70012152D01*
X121160081Y-70050627D01*
X121247707Y-70080056D01*
X121318177Y-70101677D01*
X121375097Y-70116729D01*
X121422071Y-70126450D01*
X121462705Y-70132079D01*
X121474032Y-70133141D01*
X121631189Y-70134089D01*
X121784481Y-70112556D01*
X121918942Y-70070966D01*
X121951822Y-70055731D01*
X122034388Y-69998082D01*
X122110598Y-69917611D01*
X122169119Y-69828161D01*
X122196031Y-69757486D01*
X122215266Y-69671944D01*
X122217498Y-69771440D01*
X122200440Y-69925507D01*
X122143348Y-70075533D01*
X122047808Y-70219632D01*
X121915402Y-70355923D01*
X121747716Y-70482521D01*
X121546334Y-70597544D01*
X121506070Y-70617139D01*
X121302912Y-70713584D01*
X121302912Y-71965581D01*
X121302912Y-73217577D01*
X120761745Y-73548820D01*
X120627737Y-73631595D01*
X120506780Y-73707757D01*
X120403053Y-73774558D01*
X120320738Y-73829249D01*
X120264015Y-73869081D01*
X120237063Y-73891307D01*
X120235617Y-73894721D01*
X120258258Y-73905758D01*
X120314738Y-73929654D01*
X120399979Y-73964366D01*
X120508903Y-74007854D01*
X120636431Y-74058074D01*
X120777485Y-74112984D01*
X120801053Y-74122101D01*
X120985808Y-74192744D01*
X121136786Y-74248254D01*
X121258649Y-74289600D01*
X121356058Y-74317750D01*
X121433674Y-74333672D01*
X121496158Y-74338334D01*
X121548171Y-74332707D01*
X121594374Y-74317756D01*
X121637119Y-74295808D01*
X121697952Y-74245344D01*
X121752328Y-74174984D01*
X121790417Y-74099776D01*
X121802651Y-74042453D01*
X121811723Y-74005867D01*
X121826380Y-73995570D01*
X121838121Y-74012348D01*
X121843122Y-74064454D01*
X121841589Y-74154551D01*
X121840489Y-74177892D01*
X121817152Y-74346879D01*
X121763567Y-74494567D01*
X121676703Y-74625855D01*
X121553533Y-74745645D01*
X121437832Y-74829379D01*
X121302912Y-74917282D01*
X121303028Y-76555729D01*
X121303333Y-76892200D01*
X121304190Y-77194376D01*
X121305587Y-77461332D01*
X121307513Y-77692144D01*
X121309956Y-77885886D01*
X121312905Y-78041633D01*
X121316347Y-78158460D01*
X121320272Y-78235442D01*
X121324546Y-78271231D01*
X121348569Y-78332146D01*
X121387432Y-78406325D01*
X121416786Y-78453553D01*
X121449932Y-78508214D01*
X121466157Y-78546422D01*
X121462988Y-78559232D01*
X121391727Y-78565353D01*
X121295366Y-78580019D01*
X121188890Y-78600387D01*
X121087285Y-78623611D01*
X121011198Y-78644988D01*
X120809333Y-78725134D01*
X120592797Y-78838463D01*
X120366500Y-78981372D01*
X120135354Y-79150256D01*
X119904271Y-79341514D01*
X119678161Y-79551542D01*
X119461935Y-79776737D01*
X119448997Y-79791082D01*
X119375332Y-79872952D01*
X119309128Y-79946324D01*
X119256652Y-80004268D01*
X119224169Y-80039855D01*
X119219902Y-80044451D01*
X119210330Y-80052481D01*
X119197087Y-80056848D01*
X119176859Y-80056278D01*
X119146332Y-80049500D01*
X119102193Y-80035239D01*
X119041128Y-80012225D01*
X118959823Y-79979183D01*
X118854966Y-79934842D01*
X118723241Y-79877929D01*
X118561336Y-79807170D01*
X118365938Y-79721294D01*
X118279991Y-79683453D01*
X118086672Y-79598189D01*
X117895954Y-79513832D01*
X117713109Y-79432733D01*
X117543415Y-79357242D01*
X117392146Y-79289707D01*
X117264577Y-79232479D01*
X117165984Y-79187908D01*
X117114725Y-79164429D01*
X116898453Y-79068565D01*
X116707352Y-78993968D01*
X116532343Y-78938163D01*
X116364348Y-78898676D01*
X116194289Y-78873029D01*
X116013087Y-78858750D01*
X115989540Y-78857656D01*
X115754713Y-78858869D01*
X115549155Y-78885317D01*
X115367858Y-78938528D01*
X115205817Y-79020031D01*
X115058024Y-79131355D01*
X115040055Y-79147673D01*
X114921978Y-79274605D01*
X114834605Y-79411171D01*
X114775422Y-79563955D01*
X114741912Y-79739536D01*
X114731562Y-79944496D01*
X114731602Y-79954881D01*
X114740515Y-80150170D01*
X114766816Y-80320858D01*
X114813700Y-80481525D01*
X114882303Y-80642494D01*
X114979756Y-80803139D01*
X115108207Y-80952717D01*
X115257303Y-81080747D01*
X115403702Y-81170441D01*
X115477286Y-81209891D01*
X115512829Y-81235163D01*
X115511843Y-81245191D01*
X115475843Y-81238912D01*
X115406345Y-81215259D01*
X115363934Y-81198412D01*
X115178454Y-81099954D01*
X115008847Y-80965056D01*
X114857913Y-80796846D01*
X114728447Y-80598455D01*
X114623249Y-80373010D01*
X114621243Y-80367807D01*
X114599447Y-80308956D01*
X114583899Y-80258120D01*
X114573588Y-80206495D01*
X114567501Y-80145280D01*
X114564629Y-80065670D01*
X114563958Y-79958865D01*
X114564221Y-79871534D01*
X114565529Y-79735832D01*
X114568818Y-79631336D01*
X114575175Y-79547588D01*
X114585685Y-79474128D01*
X114601434Y-79400500D01*
X114620898Y-79325768D01*
X114718304Y-79037885D01*
X114844932Y-78779630D01*
X115000366Y-78551333D01*
X115184192Y-78353324D01*
X115395992Y-78185935D01*
X115635352Y-78049496D01*
X115901857Y-77944337D01*
X116195090Y-77870789D01*
X116500333Y-77830314D01*
X116610905Y-77822203D01*
X116705143Y-77817933D01*
X116794970Y-77817704D01*
X116892311Y-77821715D01*
X117009089Y-77830165D01*
X117131164Y-77840861D01*
X117241368Y-77850924D01*
X117235348Y-76918202D01*
X117233868Y-76696642D01*
X117232415Y-76512822D01*
X117232311Y-76503236D01*
X118552461Y-76503236D01*
X118552477Y-76820646D01*
X118552566Y-77098985D01*
X118552784Y-77340854D01*
X118553191Y-77548856D01*
X118553844Y-77725593D01*
X118554803Y-77873667D01*
X118556125Y-77995679D01*
X118557869Y-78094233D01*
X118560093Y-78171929D01*
X118562855Y-78231371D01*
X118566215Y-78275160D01*
X118570229Y-78305897D01*
X118574957Y-78326186D01*
X118580456Y-78338629D01*
X118586786Y-78345827D01*
X118593870Y-78350310D01*
X118625922Y-78364515D01*
X118690180Y-78390633D01*
X118781127Y-78426567D01*
X118893242Y-78470223D01*
X119021009Y-78519505D01*
X119158908Y-78572318D01*
X119301420Y-78626566D01*
X119443028Y-78680155D01*
X119578212Y-78730988D01*
X119701453Y-78776971D01*
X119807235Y-78816008D01*
X119890036Y-78846004D01*
X119944340Y-78864864D01*
X119964151Y-78870584D01*
X119968859Y-78862980D01*
X119973002Y-78838420D01*
X119976611Y-78794732D01*
X119979716Y-78729745D01*
X119982350Y-78641288D01*
X119984543Y-78527189D01*
X119986325Y-78385278D01*
X119987730Y-78213382D01*
X119988786Y-78009331D01*
X119989526Y-77770954D01*
X119989981Y-77496080D01*
X119990181Y-77182536D01*
X119990197Y-77051547D01*
X119990197Y-75231724D01*
X119308166Y-74964657D01*
X119147946Y-74902051D01*
X118999027Y-74844115D01*
X118866108Y-74792657D01*
X118753888Y-74749486D01*
X118667065Y-74716411D01*
X118610337Y-74695239D01*
X118589298Y-74687956D01*
X118582884Y-74687846D01*
X118577259Y-74692785D01*
X118572372Y-74705317D01*
X118568171Y-74727987D01*
X118564604Y-74763340D01*
X118561620Y-74813922D01*
X118559167Y-74882277D01*
X118557194Y-74970952D01*
X118555648Y-75082490D01*
X118554479Y-75219438D01*
X118553633Y-75384340D01*
X118553061Y-75579741D01*
X118552710Y-75808187D01*
X118552529Y-76072223D01*
X118552465Y-76374394D01*
X118552461Y-76503236D01*
X117232311Y-76503236D01*
X117230790Y-76362807D01*
X117228794Y-76242664D01*
X117226226Y-76148458D01*
X117222887Y-76076258D01*
X117218576Y-76022127D01*
X117213096Y-75982134D01*
X117206245Y-75952344D01*
X117197824Y-75928824D01*
X117187634Y-75907640D01*
X117183672Y-75900160D01*
X117098245Y-75784140D01*
X116979774Y-75693228D01*
X116865624Y-75640344D01*
X116800956Y-75614731D01*
X116755511Y-75592849D01*
X116739664Y-75580177D01*
X116757876Y-75566991D01*
X116805197Y-75547117D01*
X116859475Y-75528687D01*
X116963085Y-75480533D01*
X117062053Y-75406566D01*
X117145546Y-75317093D01*
X117202728Y-75222422D01*
X117214137Y-75191266D01*
X117218850Y-75165208D01*
X117223005Y-75119176D01*
X117226628Y-75051131D01*
X117229746Y-74959038D01*
X117232387Y-74840859D01*
X117234576Y-74694556D01*
X117236340Y-74518093D01*
X117237706Y-74309432D01*
X117238702Y-74066537D01*
X117239353Y-73787369D01*
X117239686Y-73469893D01*
X117239746Y-73241603D01*
X117239760Y-72909215D01*
X117239695Y-72615841D01*
X117239488Y-72441828D01*
X118552461Y-72441828D01*
X118552660Y-72762820D01*
X118553243Y-73061361D01*
X118554191Y-73335466D01*
X118555485Y-73583145D01*
X118557106Y-73802412D01*
X118559034Y-73991279D01*
X118561251Y-74147758D01*
X118563736Y-74269863D01*
X118566471Y-74355605D01*
X118569437Y-74402997D01*
X118571549Y-74412305D01*
X118593405Y-74397847D01*
X118635045Y-74359325D01*
X118688786Y-74304017D01*
X118709001Y-74282076D01*
X118820567Y-74152096D01*
X118940938Y-73999639D01*
X119059367Y-73839030D01*
X119165108Y-73684596D01*
X119209116Y-73615384D01*
X119308526Y-73453984D01*
X119395535Y-73534187D01*
X119431117Y-73564092D01*
X119473383Y-73592726D01*
X119527821Y-73622677D01*
X119599922Y-73656536D01*
X119695175Y-73696895D01*
X119819072Y-73746342D01*
X119964298Y-73802559D01*
X119969600Y-73797151D01*
X119974109Y-73774884D01*
X119977861Y-73733274D01*
X119980894Y-73669833D01*
X119983244Y-73582076D01*
X119984950Y-73467517D01*
X119986049Y-73323670D01*
X119986577Y-73148048D01*
X119986572Y-72938166D01*
X119986072Y-72691538D01*
X119985135Y-72411494D01*
X119979778Y-71010377D01*
X119310401Y-70754919D01*
X119151004Y-70694168D01*
X119002615Y-70637766D01*
X118870076Y-70587543D01*
X118758232Y-70545328D01*
X118671923Y-70512949D01*
X118615994Y-70492235D01*
X118596742Y-70485406D01*
X118552461Y-70471351D01*
X118552461Y-72441828D01*
X117239488Y-72441828D01*
X117239389Y-72358823D01*
X117238682Y-72135502D01*
X117237411Y-71943218D01*
X117235416Y-71779313D01*
X117232535Y-71641127D01*
X117228607Y-71526002D01*
X117223471Y-71431279D01*
X117216965Y-71354299D01*
X117208928Y-71292402D01*
X117199199Y-71242930D01*
X117187616Y-71203224D01*
X117174018Y-71170625D01*
X117158243Y-71142473D01*
X117140132Y-71116111D01*
X117119521Y-71088879D01*
X117108251Y-71074136D01*
X117072732Y-71034569D01*
X117010934Y-70973399D01*
X116928467Y-70895852D01*
X116830938Y-70807157D01*
X116723954Y-70712541D01*
X116672712Y-70668125D01*
X116529327Y-70545642D01*
X116437466Y-70471351D01*
X116411648Y-70450471D01*
X116313970Y-70382533D01*
X116230588Y-70341754D01*
X116155796Y-70328056D01*
X116083889Y-70341363D01*
X116009163Y-70381600D01*
X115925911Y-70448689D01*
X115828430Y-70542554D01*
X115718505Y-70655363D01*
X115475619Y-70917047D01*
X115267434Y-71163957D01*
X115091383Y-71399969D01*
X114944898Y-71628955D01*
X114825412Y-71854791D01*
X114730357Y-72081350D01*
X114685588Y-72214028D01*
X114651634Y-72328024D01*
X114629153Y-72417702D01*
X114615719Y-72498027D01*
X114608902Y-72583966D01*
X114606273Y-72690488D01*
X114606140Y-72703692D01*
X114609299Y-72867505D01*
X114623886Y-73004019D01*
X114652487Y-73126661D01*
X114697688Y-73248856D01*
X114721195Y-73301042D01*
X114811157Y-73445453D01*
X114931311Y-73565153D01*
X115076592Y-73657651D01*
X115241935Y-73720457D01*
X115422275Y-73751077D01*
X115612547Y-73747022D01*
X115624787Y-73745543D01*
X115829419Y-73701561D01*
X116017754Y-73622455D01*
X116194037Y-73506013D01*
X116340875Y-73372649D01*
X116388696Y-73325492D01*
X116414922Y-73303970D01*
X116416788Y-73310143D01*
X116409764Y-73321311D01*
X116308839Y-73439347D01*
X116175752Y-73550532D01*
X116020011Y-73648741D01*
X115851122Y-73727850D01*
X115705237Y-73775268D01*
X115511666Y-73804473D01*
X115322380Y-73794089D01*
X115142109Y-73746195D01*
X114975582Y-73662873D01*
X114827529Y-73546204D01*
X114702680Y-73398269D01*
X114648956Y-73310520D01*
X114610279Y-73220662D01*
X114573971Y-73102998D01*
X114543184Y-72971392D01*
X114521067Y-72839703D01*
X114510770Y-72721794D01*
X114510405Y-72700784D01*
X114517949Y-72580334D01*
X114539505Y-72434011D01*
X114572736Y-72274279D01*
X114615307Y-72113599D01*
X114628716Y-72069711D01*
X114721000Y-71829292D01*
X114849497Y-71575347D01*
X115012001Y-71310498D01*
X115206307Y-71037363D01*
X115430209Y-70758564D01*
X115681501Y-70476721D01*
X115957978Y-70194455D01*
X116257434Y-69914385D01*
X116577664Y-69639133D01*
X116870591Y-69406276D01*
X116966145Y-69333799D01*
X117050698Y-69271095D01*
X117118582Y-69222254D01*
X117164124Y-69191367D01*
X117181119Y-69182281D01*
X117203992Y-69198716D01*
X117210245Y-69210594D01*
X117227578Y-69231178D01*
X117271181Y-69275673D01*
X117336899Y-69340196D01*
X117420578Y-69420864D01*
X117518064Y-69513793D01*
X117625202Y-69615101D01*
X117737840Y-69720903D01*
X117851821Y-69827317D01*
X117962993Y-69930458D01*
X118067200Y-70026445D01*
X118160290Y-70111392D01*
X118238107Y-70181418D01*
X118296498Y-70232638D01*
X118331309Y-70261169D01*
X118339028Y-70265792D01*
X118362963Y-70251006D01*
X118408479Y-70210635D01*
X118469947Y-70150660D01*
X118541737Y-70077059D01*
X118618221Y-69995813D01*
X118693770Y-69912903D01*
X118762756Y-69834308D01*
X118819549Y-69766008D01*
X118858521Y-69713984D01*
X118858767Y-69713618D01*
X118933446Y-69593736D01*
X119002918Y-69466593D01*
X119059942Y-69346209D01*
X119093214Y-69259676D01*
X119118776Y-69180795D01*
X119198418Y-69252747D01*
G37*
%TO.C,U9*%
D11*
X111670000Y-113950000D02*
X109890000Y-113950000D01*
X109890000Y-112510000D01*
X111670000Y-112510000D01*
X111670000Y-113950000D01*
G36*
X111670000Y-113950000D02*
G01*
X109890000Y-113950000D01*
X109890000Y-112510000D01*
X111670000Y-112510000D01*
X111670000Y-113950000D01*
G37*
X111680000Y-110080000D02*
X109900000Y-110080000D01*
X109900000Y-108200000D01*
X111680000Y-108200000D01*
X111680000Y-110080000D01*
G36*
X111680000Y-110080000D02*
G01*
X109900000Y-110080000D01*
X109900000Y-108200000D01*
X111680000Y-108200000D01*
X111680000Y-110080000D01*
G37*
X111680000Y-112110000D02*
X109900000Y-112110000D01*
X109900000Y-110670000D01*
X111680000Y-110670000D01*
X111680000Y-112110000D01*
G36*
X111680000Y-112110000D02*
G01*
X109900000Y-112110000D01*
X109900000Y-110670000D01*
X111680000Y-110670000D01*
X111680000Y-112110000D01*
G37*
X111680000Y-115820000D02*
X109900000Y-115820000D01*
X109900000Y-114380000D01*
X111680000Y-114380000D01*
X111680000Y-115820000D01*
G36*
X111680000Y-115820000D02*
G01*
X109900000Y-115820000D01*
X109900000Y-114380000D01*
X111680000Y-114380000D01*
X111680000Y-115820000D01*
G37*
X113880000Y-110060000D02*
X112100000Y-110060000D01*
X112100000Y-108190000D01*
X113880000Y-108190000D01*
X113880000Y-110060000D01*
G36*
X113880000Y-110060000D02*
G01*
X112100000Y-110060000D01*
X112100000Y-108190000D01*
X113880000Y-108190000D01*
X113880000Y-110060000D01*
G37*
X113880000Y-113940000D02*
X112100000Y-113940000D01*
X112100000Y-112500000D01*
X113880000Y-112500000D01*
X113880000Y-113940000D01*
G36*
X113880000Y-113940000D02*
G01*
X112100000Y-113940000D01*
X112100000Y-112500000D01*
X113880000Y-112500000D01*
X113880000Y-113940000D01*
G37*
X113890000Y-112100000D02*
X112110000Y-112100000D01*
X112110000Y-110660000D01*
X113890000Y-110660000D01*
X113890000Y-112100000D01*
G36*
X113890000Y-112100000D02*
G01*
X112110000Y-112100000D01*
X112110000Y-110660000D01*
X113890000Y-110660000D01*
X113890000Y-112100000D01*
G37*
X113890000Y-115810000D02*
X112110000Y-115810000D01*
X112110000Y-114370000D01*
X113890000Y-114370000D01*
X113890000Y-115810000D01*
G36*
X113890000Y-115810000D02*
G01*
X112110000Y-115810000D01*
X112110000Y-114370000D01*
X113890000Y-114370000D01*
X113890000Y-115810000D01*
G37*
X116090000Y-110050000D02*
X114310000Y-110050000D01*
X114310000Y-108180000D01*
X116090000Y-108180000D01*
X116090000Y-110050000D01*
G36*
X116090000Y-110050000D02*
G01*
X114310000Y-110050000D01*
X114310000Y-108180000D01*
X116090000Y-108180000D01*
X116090000Y-110050000D01*
G37*
X116090000Y-113940000D02*
X114310000Y-113940000D01*
X114310000Y-112500000D01*
X116090000Y-112500000D01*
X116090000Y-113940000D01*
G36*
X116090000Y-113940000D02*
G01*
X114310000Y-113940000D01*
X114310000Y-112500000D01*
X116090000Y-112500000D01*
X116090000Y-113940000D01*
G37*
X116100000Y-112100000D02*
X114320000Y-112100000D01*
X114320000Y-110660000D01*
X116100000Y-110660000D01*
X116100000Y-112100000D01*
G36*
X116100000Y-112100000D02*
G01*
X114320000Y-112100000D01*
X114320000Y-110660000D01*
X116100000Y-110660000D01*
X116100000Y-112100000D01*
G37*
X116100000Y-115810000D02*
X114320000Y-115810000D01*
X114320000Y-114370000D01*
X116100000Y-114370000D01*
X116100000Y-115810000D01*
G36*
X116100000Y-115810000D02*
G01*
X114320000Y-115810000D01*
X114320000Y-114370000D01*
X116100000Y-114370000D01*
X116100000Y-115810000D01*
G37*
%TO.C,U10*%
X147670000Y-113950000D02*
X145890000Y-113950000D01*
X145890000Y-112510000D01*
X147670000Y-112510000D01*
X147670000Y-113950000D01*
G36*
X147670000Y-113950000D02*
G01*
X145890000Y-113950000D01*
X145890000Y-112510000D01*
X147670000Y-112510000D01*
X147670000Y-113950000D01*
G37*
X147680000Y-110080000D02*
X145900000Y-110080000D01*
X145900000Y-108200000D01*
X147680000Y-108200000D01*
X147680000Y-110080000D01*
G36*
X147680000Y-110080000D02*
G01*
X145900000Y-110080000D01*
X145900000Y-108200000D01*
X147680000Y-108200000D01*
X147680000Y-110080000D01*
G37*
X147680000Y-112110000D02*
X145900000Y-112110000D01*
X145900000Y-110670000D01*
X147680000Y-110670000D01*
X147680000Y-112110000D01*
G36*
X147680000Y-112110000D02*
G01*
X145900000Y-112110000D01*
X145900000Y-110670000D01*
X147680000Y-110670000D01*
X147680000Y-112110000D01*
G37*
X147680000Y-115820000D02*
X145900000Y-115820000D01*
X145900000Y-114380000D01*
X147680000Y-114380000D01*
X147680000Y-115820000D01*
G36*
X147680000Y-115820000D02*
G01*
X145900000Y-115820000D01*
X145900000Y-114380000D01*
X147680000Y-114380000D01*
X147680000Y-115820000D01*
G37*
X149880000Y-110060000D02*
X148100000Y-110060000D01*
X148100000Y-108190000D01*
X149880000Y-108190000D01*
X149880000Y-110060000D01*
G36*
X149880000Y-110060000D02*
G01*
X148100000Y-110060000D01*
X148100000Y-108190000D01*
X149880000Y-108190000D01*
X149880000Y-110060000D01*
G37*
X149880000Y-113940000D02*
X148100000Y-113940000D01*
X148100000Y-112500000D01*
X149880000Y-112500000D01*
X149880000Y-113940000D01*
G36*
X149880000Y-113940000D02*
G01*
X148100000Y-113940000D01*
X148100000Y-112500000D01*
X149880000Y-112500000D01*
X149880000Y-113940000D01*
G37*
X149890000Y-112100000D02*
X148110000Y-112100000D01*
X148110000Y-110660000D01*
X149890000Y-110660000D01*
X149890000Y-112100000D01*
G36*
X149890000Y-112100000D02*
G01*
X148110000Y-112100000D01*
X148110000Y-110660000D01*
X149890000Y-110660000D01*
X149890000Y-112100000D01*
G37*
X149890000Y-115810000D02*
X148110000Y-115810000D01*
X148110000Y-114370000D01*
X149890000Y-114370000D01*
X149890000Y-115810000D01*
G36*
X149890000Y-115810000D02*
G01*
X148110000Y-115810000D01*
X148110000Y-114370000D01*
X149890000Y-114370000D01*
X149890000Y-115810000D01*
G37*
X152090000Y-110050000D02*
X150310000Y-110050000D01*
X150310000Y-108180000D01*
X152090000Y-108180000D01*
X152090000Y-110050000D01*
G36*
X152090000Y-110050000D02*
G01*
X150310000Y-110050000D01*
X150310000Y-108180000D01*
X152090000Y-108180000D01*
X152090000Y-110050000D01*
G37*
X152090000Y-113940000D02*
X150310000Y-113940000D01*
X150310000Y-112500000D01*
X152090000Y-112500000D01*
X152090000Y-113940000D01*
G36*
X152090000Y-113940000D02*
G01*
X150310000Y-113940000D01*
X150310000Y-112500000D01*
X152090000Y-112500000D01*
X152090000Y-113940000D01*
G37*
X152100000Y-112100000D02*
X150320000Y-112100000D01*
X150320000Y-110660000D01*
X152100000Y-110660000D01*
X152100000Y-112100000D01*
G36*
X152100000Y-112100000D02*
G01*
X150320000Y-112100000D01*
X150320000Y-110660000D01*
X152100000Y-110660000D01*
X152100000Y-112100000D01*
G37*
X152100000Y-115810000D02*
X150320000Y-115810000D01*
X150320000Y-114370000D01*
X152100000Y-114370000D01*
X152100000Y-115810000D01*
G36*
X152100000Y-115810000D02*
G01*
X150320000Y-115810000D01*
X150320000Y-114370000D01*
X152100000Y-114370000D01*
X152100000Y-115810000D01*
G37*
%TD*%
D12*
%TO.C,FID3*%
X154700000Y-148500000D03*
%TD*%
%TO.C,FID2*%
X106833200Y-148440000D03*
%TD*%
%TO.C,FID1*%
X107652800Y-39782000D03*
%TD*%
D13*
%TO.C,SW2*%
X122790000Y-145690000D03*
X126900000Y-145690000D03*
%TD*%
D14*
%TO.C,U9*%
X109084000Y-108486000D03*
X109084000Y-108988000D03*
X109084000Y-109490000D03*
X109084000Y-109992000D03*
X109084000Y-110494000D03*
X109084000Y-110996000D03*
X109084000Y-111498000D03*
X109084000Y-112000000D03*
X109084000Y-112502000D03*
X109084000Y-113004000D03*
X109084000Y-113506000D03*
X109084000Y-114008000D03*
X109084000Y-114510000D03*
X109084000Y-115012000D03*
X109084000Y-115514000D03*
X116916000Y-115514000D03*
X116916000Y-115012000D03*
X116916000Y-114510000D03*
X116916000Y-114008000D03*
X116916000Y-113506000D03*
X116916000Y-113004000D03*
X116916000Y-112502000D03*
X116916000Y-112000000D03*
X116916000Y-111498000D03*
X116916000Y-110996000D03*
X116916000Y-110494000D03*
X116916000Y-109992000D03*
X116916000Y-109490000D03*
X116916000Y-108988000D03*
X116916000Y-108486000D03*
%TD*%
D13*
%TO.C,SW1*%
X114760000Y-145740000D03*
X110650000Y-145740000D03*
%TD*%
D15*
%TO.C,J5*%
X142850000Y-41500000D03*
D16*
X140310000Y-41500000D03*
X137770000Y-41500000D03*
X135230000Y-41500000D03*
X132690000Y-41500000D03*
X130150000Y-41500000D03*
%TD*%
D17*
%TO.C,H4*%
X99600000Y-146500000D03*
X100302944Y-144802944D03*
X100302944Y-148197056D03*
X102000000Y-144100000D03*
D18*
X102000000Y-146500000D03*
D17*
X102000000Y-148900000D03*
X103697056Y-144802944D03*
X103697056Y-148197056D03*
X104400000Y-146500000D03*
%TD*%
D19*
%TO.C,J6*%
X148850000Y-144425000D03*
X147850000Y-144425000D03*
X146850000Y-144425000D03*
X145850000Y-144425000D03*
D20*
X150150000Y-146950000D03*
X144550000Y-146950000D03*
%TD*%
D21*
%TO.C,J7*%
X135540600Y-148498852D03*
D22*
X140620600Y-146338851D03*
X138080600Y-146338851D03*
X135540600Y-146338851D03*
X133000600Y-146338851D03*
%TD*%
D14*
%TO.C,U10*%
X145084000Y-108486000D03*
X145084000Y-108988000D03*
X145084000Y-109490000D03*
X145084000Y-109992000D03*
X145084000Y-110494000D03*
X145084000Y-110996000D03*
X145084000Y-111498000D03*
X145084000Y-112000000D03*
X145084000Y-112502000D03*
X145084000Y-113004000D03*
X145084000Y-113506000D03*
X145084000Y-114008000D03*
X145084000Y-114510000D03*
X145084000Y-115012000D03*
X145084000Y-115514000D03*
X152916000Y-115514000D03*
X152916000Y-115012000D03*
X152916000Y-114510000D03*
X152916000Y-114008000D03*
X152916000Y-113506000D03*
X152916000Y-113004000D03*
X152916000Y-112502000D03*
X152916000Y-112000000D03*
X152916000Y-111498000D03*
X152916000Y-110996000D03*
X152916000Y-110494000D03*
X152916000Y-109992000D03*
X152916000Y-109490000D03*
X152916000Y-108988000D03*
X152916000Y-108486000D03*
%TD*%
D17*
%TO.C,H2*%
X99600000Y-41500000D03*
X100302944Y-39802944D03*
X100302944Y-43197056D03*
X102000000Y-39100000D03*
D18*
X102000000Y-41500000D03*
D17*
X102000000Y-43900000D03*
X103697056Y-39802944D03*
X103697056Y-43197056D03*
X104400000Y-41500000D03*
%TD*%
%TO.C,H3*%
X157600000Y-146500000D03*
X158302944Y-144802944D03*
X158302944Y-148197056D03*
X160000000Y-144100000D03*
D18*
X160000000Y-146500000D03*
D17*
X160000000Y-148900000D03*
X161697056Y-144802944D03*
X161697056Y-148197056D03*
X162400000Y-146500000D03*
%TD*%
D23*
%TO.C,HS1*%
X104000000Y-85000000D03*
X104000000Y-139000000D03*
X158000000Y-85000000D03*
X158000000Y-139000000D03*
%TD*%
D24*
%TO.C,J3*%
X148200000Y-40550000D03*
D16*
X147800000Y-43090000D03*
X148200000Y-45630000D03*
X147800000Y-48170000D03*
%TD*%
D17*
%TO.C,H1*%
X157600000Y-41500000D03*
X158302944Y-39802944D03*
X158302944Y-43197056D03*
X160000000Y-39100000D03*
D18*
X160000000Y-41500000D03*
D17*
X160000000Y-43900000D03*
X161697056Y-39802944D03*
X161697056Y-43197056D03*
X162400000Y-41500000D03*
%TD*%
D25*
%TO.C,J8*%
X115940000Y-42465000D03*
X110860000Y-43481000D03*
X110860000Y-41449000D03*
%TD*%
D26*
%TO.C,U4*%
X122280000Y-88650000D03*
X122280000Y-87250000D03*
X122280000Y-85850000D03*
X121000000Y-89650000D03*
X121000000Y-88650000D03*
X121000000Y-87250000D03*
X121000000Y-85850000D03*
X121000000Y-84850000D03*
X119720000Y-88650000D03*
X119720000Y-87250000D03*
X119720000Y-85850000D03*
%TD*%
D27*
%TO.C,J1*%
X151100000Y-60250000D03*
X151100000Y-55250000D03*
D12*
X161100000Y-63250000D03*
X161100000Y-52250000D03*
%TD*%
D28*
%TO.C,J4*%
X119460000Y-44565000D03*
X125240000Y-44565000D03*
D29*
X118030000Y-40885000D03*
D30*
X118030000Y-45065000D03*
D29*
X126670000Y-40885000D03*
D30*
X126670000Y-45065000D03*
%TD*%
D26*
%TO.C,U1*%
X146630000Y-88650000D03*
X146630000Y-87250000D03*
X146630000Y-85850000D03*
X145350000Y-89650000D03*
X145350000Y-88650000D03*
X145350000Y-87250000D03*
X145350000Y-85850000D03*
X145350000Y-84850000D03*
X144070000Y-88650000D03*
X144070000Y-87250000D03*
X144070000Y-85850000D03*
%TD*%
M02*
