M48
; DRILL file {KiCad 9.0.0} date 2025-03-16T23:20:54-0400
; FORMAT={-:-/ absolute / inch / decimal}
; #@! TF.CreationDate,2025-03-16T23:20:54-04:00
; #@! TF.GenerationSoftware,Kicad,Pcbnew,9.0.0
; #@! TF.FileFunction,Plated,1,6,PTH
FMAT,2
INCH
; #@! TA.AperFunction,Plated,PTH,ViaDrill
T1C0.0118
; #@! TA.AperFunction,Plated,PTH,ComponentDrill
T2C0.0118
; #@! TA.AperFunction,Plated,PTH,ViaDrill
T3C0.0138
; #@! TA.AperFunction,Plated,PTH,ViaDrill
T4C0.0157
; #@! TA.AperFunction,Plated,PTH,ComponentDrill
T5C0.0197
; #@! TA.AperFunction,Plated,PTH,ViaDrill
T6C0.0236
; #@! TA.AperFunction,Plated,PTH,ComponentDrill
T7C0.0236
; #@! TA.AperFunction,Plated,PTH,ComponentDrill
T8C0.0394
; #@! TA.AperFunction,Plated,PTH,ComponentDrill
T9C0.0420
; #@! TA.AperFunction,Plated,PTH,ComponentDrill
T10C0.0669
; #@! TA.AperFunction,Plated,PTH,ComponentDrill
T11C0.1260
; #@! TA.AperFunction,Plated,PTH,ComponentDrill
T12C0.1654
%
G90
G05
T1
X4.0079Y-5.0866
X4.0433Y-3.9606
X4.0504Y-5.1606
X4.0728Y-4.7894
X4.0862Y-4.4646
X4.0984Y-4.5256
X4.0984Y-5.126
X4.1083Y-4.0059
X4.1211Y-4.7879
X4.126Y-4.9823
X4.137Y-5.2512
X4.146Y-4.7762
X4.1496Y-5.0276
X4.1504Y-4.437
X4.1555Y-4.4902
X4.1683Y-1.8169
X4.1732Y-4.5217
X4.1732Y-4.7717
X4.1732Y-5.0039
X4.1752Y-4.5591
X4.1752Y-4.7323
X4.1811Y-4.4311
X4.1988Y-4.7323
X4.2087Y-5.1457
X4.2293Y-1.8169
X4.2343Y-4.563
X4.2461Y-4.5177
X4.249Y-5.5856
X4.252Y-4.7835
X4.253Y-4.3022
X4.2569Y-4.262
X4.2569Y-4.3337
X4.2746Y-2.6624
X4.2795Y-5.2657
X4.2972Y-4.2374
X4.3031Y-5.7067
X4.3071Y-2.874
X4.311Y-5.1693
X4.311Y-5.2087
X4.315Y-2.4882
X4.3236Y-2.5787
X4.3268Y-3.7953
X4.3268Y-3.8189
X4.3268Y-3.8425
X4.3268Y-3.9921
X4.3268Y-4.0197
X4.3268Y-4.0472
X4.3504Y-3.7953
X4.3504Y-3.8189
X4.3504Y-3.8425
X4.3504Y-4.2283
X4.3504Y-4.2717
X4.3504Y-4.311
X4.3504Y-4.3799
X4.3504Y-4.4193
X4.3504Y-4.4587
X4.3504Y-4.498
X4.3504Y-4.5374
X4.3504Y-5.6398
X4.3524Y-4.6063
X4.3524Y-4.6457
X4.3524Y-4.685
X4.3543Y-3.9921
X4.3543Y-4.0197
X4.3543Y-4.0472
X4.3583Y-1.9679
X4.3858Y-2.4193
X4.3858Y-2.815
X4.3898Y-4.2283
X4.3898Y-4.2717
X4.3898Y-4.311
X4.3898Y-4.3799
X4.3898Y-4.4193
X4.3898Y-4.4587
X4.3898Y-4.498
X4.3898Y-4.5374
X4.3917Y-4.6063
X4.3917Y-4.6457
X4.3917Y-4.685
X4.4094Y-2.7795
X4.4158Y-3.9921
X4.4158Y-4.0197
X4.4158Y-4.0472
X4.4173Y-3.435
X4.4173Y-3.4587
X4.4173Y-3.4823
X4.4173Y-3.5059
X4.4173Y-3.6811
X4.4173Y-3.7047
X4.4173Y-3.7283
X4.4173Y-3.752
X4.4198Y-3.7953
X4.4198Y-3.8189
X4.4198Y-3.8425
X4.4236Y-2.4827
X4.4291Y-4.2283
X4.4291Y-4.2717
X4.4291Y-4.311
X4.4291Y-4.3799
X4.4291Y-4.4193
X4.4291Y-4.4587
X4.4291Y-4.498
X4.4291Y-4.5374
X4.4311Y-4.6063
X4.4311Y-4.6457
X4.4311Y-4.685
X4.4409Y-3.435
X4.4409Y-3.4587
X4.4409Y-3.4823
X4.4409Y-3.5059
X4.4409Y-3.6811
X4.4409Y-3.7047
X4.4409Y-3.7283
X4.4409Y-3.752
X4.4434Y-3.7953
X4.4434Y-3.8189
X4.4434Y-3.8425
X4.4434Y-3.9921
X4.4434Y-4.0197
X4.4434Y-4.0472
X4.4606Y-1.8031
X4.4685Y-4.2283
X4.4685Y-4.2717
X4.4685Y-4.311
X4.4685Y-4.3799
X4.4685Y-4.4193
X4.4685Y-4.4587
X4.4685Y-4.498
X4.4685Y-4.5374
X4.4705Y-4.6063
X4.4705Y-4.6457
X4.4705Y-4.685
X4.4744Y-2.4823
X4.5064Y-3.9921
X4.5064Y-4.0197
X4.5064Y-4.0472
X4.5079Y-4.2283
X4.5079Y-4.2717
X4.5079Y-4.311
X4.5079Y-4.3799
X4.5079Y-4.4193
X4.5079Y-4.4587
X4.5079Y-4.498
X4.5079Y-4.5374
X4.5098Y-4.6063
X4.5098Y-4.6457
X4.5098Y-4.685
X4.5103Y-3.7953
X4.5103Y-3.8189
X4.5103Y-3.8425
X4.5181Y-5.7378
X4.5236Y-2.4823
X4.5335Y-3.3307
X4.534Y-3.7953
X4.534Y-3.8189
X4.534Y-3.8425
X4.534Y-3.9921
X4.534Y-4.0197
X4.534Y-4.0472
X4.5472Y-4.2283
X4.5472Y-4.2717
X4.5472Y-4.311
X4.5472Y-4.3799
X4.5472Y-4.4193
X4.5472Y-4.4587
X4.5472Y-4.498
X4.5472Y-4.5374
X4.5482Y-3.6407
X4.5482Y-3.6624
X4.5492Y-4.6063
X4.5492Y-4.6457
X4.5492Y-4.685
X4.5571Y-3.4409
X4.5719Y-3.6407
X4.5719Y-3.6624
X4.5728Y-2.4843
X4.5748Y-3.4724
X4.5748Y-3.4961
X4.5748Y-3.5197
X4.5748Y-3.5433
X4.5972Y-4.2354
X4.6004Y-3.7953
X4.6004Y-3.8189
X4.6004Y-3.8425
X4.6004Y-3.9921
X4.6004Y-4.0197
X4.6004Y-4.0472
X4.6024Y-3.4724
X4.6024Y-3.4961
X4.6024Y-3.5197
X4.6024Y-3.5433
X4.6043Y-3.4449
X4.6083Y-3.6398
X4.6083Y-3.6614
X4.624Y-3.7953
X4.624Y-3.8189
X4.624Y-3.8425
X4.626Y-3.374
X4.626Y-3.4232
X4.628Y-3.9921
X4.628Y-4.0197
X4.628Y-4.0472
X4.6299Y-3.4724
X4.6299Y-3.4961
X4.6299Y-3.5197
X4.6299Y-3.5433
X4.6319Y-3.2717
X4.6319Y-3.6398
X4.6319Y-3.6614
X4.6339Y-2.4449
X4.6358Y-4.263
X4.6388Y-4.5522
X4.6398Y-4.3041
X4.6417Y-4.3335
X4.6433Y-4.5059
X4.6457Y-4.4587
X4.6575Y-3.1969
X4.6586Y-4.483
X4.6736Y-2.4445
X4.689Y-3.9921
X4.689Y-4.0197
X4.689Y-4.0472
X4.6929Y-3.7953
X4.6929Y-3.8189
X4.6929Y-3.8425
X4.7146Y-4.5295
X4.7165Y-3.7953
X4.7165Y-3.8189
X4.7165Y-3.8425
X4.7165Y-3.9921
X4.7165Y-4.0197
X4.7165Y-4.0472
X4.7421Y-3.1969
X4.7815Y-3.7953
X4.7815Y-3.8189
X4.7815Y-3.8425
X4.7815Y-3.9921
X4.7815Y-4.0197
X4.7815Y-4.0472
X4.8051Y-3.7953
X4.8051Y-3.8189
X4.8051Y-3.8425
X4.8091Y-3.9921
X4.8091Y-4.0197
X4.8091Y-4.0472
X4.811Y-3.2146
X4.8346Y-5.6437
X4.8551Y-2.4593
X4.8858Y-2.4091
X4.8858Y-3.2717
X4.8937Y-3.4724
X4.8937Y-3.5
X4.8937Y-3.5315
X4.8937Y-3.563
X4.8996Y-4.5
X4.8996Y-4.5256
X4.8996Y-4.6969
X4.8996Y-4.7224
X4.9114Y-3.4252
X4.9291Y-4.8307
X4.9449Y-3.1969
X4.9488Y-3.4803
X4.9606Y-3.5039
X4.9735Y-3.2618
X4.9764Y-3.4803
X4.9803Y-3.1969
X4.9882Y-2.6811
X4.9882Y-5.0728
X4.9961Y-5.7358
X5.0Y-2.5827
X5.0098Y-3.2598
X5.0115Y-3.1969
X5.0118Y-4.8307
X5.0138Y-3.503
X5.0157Y-3.5787
X5.0157Y-3.6102
X5.0157Y-3.6417
X5.0157Y-3.6693
X5.0157Y-3.6969
X5.0157Y-3.7244
X5.0157Y-3.7559
X5.0157Y-3.7874
X5.0157Y-4.0118
X5.0157Y-4.0413
X5.0157Y-4.0728
X5.0157Y-4.1043
X5.0157Y-4.1594
X5.0157Y-4.1909
X5.0157Y-4.2224
X5.0157Y-4.2539
X5.0177Y-5.4843
X5.0433Y-3.503
X5.0472Y-3.5787
X5.0472Y-3.6102
X5.0472Y-3.6417
X5.0472Y-3.6693
X5.0472Y-3.6969
X5.0472Y-3.7244
X5.0472Y-3.7559
X5.0472Y-3.7874
X5.0472Y-4.0118
X5.0472Y-4.0413
X5.0472Y-4.0728
X5.0472Y-4.1043
X5.0472Y-4.1594
X5.0472Y-4.1909
X5.0472Y-4.2224
X5.0472Y-4.2539
X5.0787Y-3.5787
X5.0787Y-3.6102
X5.0787Y-3.6417
X5.0787Y-3.6693
X5.0787Y-3.6969
X5.0787Y-3.7244
X5.0787Y-3.7559
X5.0787Y-3.7874
X5.0787Y-4.0118
X5.0787Y-4.0413
X5.0787Y-4.0728
X5.0787Y-4.1043
X5.0787Y-4.1594
X5.0787Y-4.1909
X5.0787Y-4.2224
X5.0787Y-4.2539
X5.0984Y-5.0724
X5.1083Y-3.5787
X5.1083Y-3.6102
X5.1083Y-3.6417
X5.1083Y-3.6693
X5.1083Y-3.6969
X5.1083Y-3.7244
X5.1083Y-3.7559
X5.1083Y-3.7874
X5.1102Y-4.0118
X5.1102Y-4.0413
X5.1102Y-4.0728
X5.1102Y-4.1043
X5.1102Y-4.1594
X5.1102Y-4.1909
X5.1102Y-4.2224
X5.1102Y-4.2539
X5.1299Y-2.0482
X5.1358Y-4.5576
X5.1358Y-4.6299
X5.1417Y-2.5394
X5.1437Y-5.035
X5.1496Y-2.2087
X5.1496Y-2.248
X5.1496Y-2.2874
X5.1496Y-2.3268
X5.1496Y-2.3661
X5.1496Y-2.4055
X5.1496Y-2.4449
X5.185Y-5.035
X5.189Y-2.2087
X5.189Y-2.248
X5.189Y-2.2874
X5.189Y-2.3268
X5.189Y-2.3661
X5.189Y-2.4055
X5.189Y-2.4449
X5.2Y-5.5315
X5.2136Y-5.2864
X5.2283Y-2.2087
X5.2283Y-2.248
X5.2283Y-2.2874
X5.2283Y-2.3268
X5.2283Y-2.3661
X5.2283Y-2.4055
X5.2283Y-2.4449
X5.2343Y-5.0346
X5.2382Y-4.5571
X5.2441Y-2.6791
X5.2441Y-4.7598
X5.2461Y-4.4823
X5.2677Y-2.2087
X5.2677Y-2.248
X5.2677Y-2.2874
X5.2677Y-2.3268
X5.2677Y-2.3661
X5.2677Y-2.4055
X5.2677Y-2.4449
X5.2736Y-4.002
X5.2736Y-5.5472
X5.2756Y-5.0315
X5.3071Y-3.9882
X5.3071Y-4.0157
X5.3071Y-4.0433
X5.311Y-3.7953
X5.311Y-3.8189
X5.311Y-3.8425
X5.3228Y-5.4724
X5.3346Y-3.7953
X5.3346Y-3.8189
X5.3346Y-3.8425
X5.3346Y-3.9882
X5.3346Y-4.0157
X5.3346Y-4.0433
X5.3386Y-5.3622
X5.3406Y-5.3248
X5.3535Y-5.1138
X5.3543Y-3.6732
X5.3543Y-3.6969
X5.3543Y-3.7205
X5.3543Y-3.7441
X5.3583Y-3.4272
X5.3583Y-3.4508
X5.3583Y-3.4744
X5.3583Y-3.498
X5.3622Y-4.4626
X5.378Y-3.6732
X5.378Y-3.6969
X5.378Y-3.7205
X5.378Y-3.7441
X5.3819Y-3.4272
X5.3819Y-3.4508
X5.3819Y-3.4744
X5.3819Y-3.498
X5.3976Y-3.9872
X5.3976Y-4.0148
X5.3976Y-4.0423
X5.4016Y-3.7943
X5.4016Y-3.8179
X5.4016Y-3.8415
X5.4252Y-3.7943
X5.4252Y-3.8179
X5.4252Y-3.8415
X5.4252Y-3.9872
X5.4252Y-4.0148
X5.4252Y-4.0423
X5.4291Y-3.2598
X5.4469Y-1.8661
X5.4498Y-3.3789
X5.4685Y-3.2638
X5.4705Y-3.1929
X5.4803Y-3.2953
X5.4921Y-3.7943
X5.4921Y-3.8179
X5.4921Y-3.8415
X5.4921Y-3.9872
X5.4921Y-4.0148
X5.4921Y-4.0423
X5.5016Y-4.4787
X5.5069Y-3.6486
X5.5069Y-3.6703
X5.5157Y-3.7943
X5.5157Y-3.8179
X5.5157Y-3.8415
X5.5197Y-3.9872
X5.5197Y-4.0148
X5.5197Y-4.0423
X5.5305Y-3.6486
X5.5305Y-3.6703
X5.5354Y-3.4724
X5.5354Y-3.4961
X5.5354Y-3.5197
X5.5354Y-3.5433
X5.5413Y-3.3661
X5.5472Y-3.315
X5.563Y-3.3878
X5.563Y-3.4724
X5.563Y-3.4961
X5.563Y-3.5197
X5.563Y-3.5433
X5.565Y-3.3445
X5.565Y-4.5335
X5.5659Y-3.6467
X5.5659Y-3.6683
X5.5669Y-4.5059
X5.5768Y-4.4783
X5.5797Y-3.1781
X5.5827Y-3.7943
X5.5827Y-3.8179
X5.5827Y-3.8415
X5.5827Y-3.9872
X5.5827Y-4.0148
X5.5827Y-4.0423
X5.5867Y-4.5547
X5.5896Y-3.6467
X5.5896Y-3.6683
X5.5906Y-3.4724
X5.5906Y-3.4961
X5.5906Y-3.5197
X5.5906Y-3.5433
X5.6063Y-3.7943
X5.6063Y-3.8179
X5.6063Y-3.8415
X5.6102Y-3.2756
X5.6102Y-3.9872
X5.6102Y-4.0148
X5.6102Y-4.0423
X5.6142Y-4.5689
X5.6358Y-5.3317
X5.6358Y-5.3927
X5.6663Y-4.263
X5.6663Y-4.3
X5.6663Y-4.3376
X5.6673Y-4.5571
X5.6693Y-3.9872
X5.6693Y-4.0148
X5.6693Y-4.0423
X5.6732Y-3.7943
X5.6732Y-3.8179
X5.6732Y-3.8415
X5.689Y-2.0876
X5.689Y-2.1191
X5.689Y-2.1506
X5.689Y-2.1821
X5.689Y-2.2136
X5.6909Y-3.2598
X5.6969Y-3.7943
X5.6969Y-3.8179
X5.6969Y-3.8415
X5.6969Y-3.9872
X5.6969Y-4.0148
X5.6969Y-4.0423
X5.7063Y-4.235
X5.7244Y-2.0876
X5.7244Y-2.1191
X5.7244Y-2.1506
X5.7244Y-2.1821
X5.7244Y-2.2136
X5.7283Y-3.2579
X5.7559Y-2.0876
X5.7559Y-2.1191
X5.7559Y-2.1506
X5.7559Y-2.1821
X5.7559Y-2.2136
X5.7561Y-3.2558
X5.763Y-3.7943
X5.763Y-3.8179
X5.763Y-3.8415
X5.763Y-3.9872
X5.763Y-4.0148
X5.763Y-4.0423
X5.7677Y-4.2283
X5.7677Y-4.2717
X5.7677Y-4.311
X5.7677Y-4.3799
X5.7677Y-4.4193
X5.7677Y-4.4587
X5.7677Y-4.498
X5.7677Y-4.5374
X5.7717Y-4.6083
X5.7717Y-4.6476
X5.7717Y-4.687
X5.7866Y-3.7943
X5.7866Y-3.8179
X5.7866Y-3.8415
X5.7894Y-2.0876
X5.7894Y-2.1191
X5.7894Y-2.1506
X5.7894Y-2.1821
X5.7894Y-2.2136
X5.7906Y-3.9872
X5.7906Y-4.0148
X5.7906Y-4.0423
X5.7914Y-3.252
X5.8071Y-4.2283
X5.8071Y-4.2717
X5.8071Y-4.311
X5.8071Y-4.3799
X5.8071Y-4.4193
X5.8071Y-4.4587
X5.8071Y-4.498
X5.8071Y-4.5374
X5.811Y-4.6083
X5.811Y-4.6476
X5.811Y-4.687
X5.815Y-3.1693
X5.815Y-3.2106
X5.8248Y-2.0876
X5.8248Y-2.1191
X5.8248Y-2.1506
X5.8248Y-2.1821
X5.8248Y-2.2136
X5.8268Y-3.2579
X5.8292Y-3.3031
X5.8465Y-4.2283
X5.8465Y-4.2717
X5.8465Y-4.311
X5.8465Y-4.3799
X5.8465Y-4.4193
X5.8465Y-4.4587
X5.8465Y-4.498
X5.8465Y-4.5374
X5.8504Y-4.6083
X5.8504Y-4.6476
X5.8504Y-4.687
X5.8535Y-3.3378
X5.8543Y-3.4744
X5.8543Y-3.5039
X5.8543Y-3.5354
X5.8543Y-3.5669
X5.8739Y-3.3563
X5.8758Y-3.425
X5.8858Y-4.2283
X5.8858Y-4.2717
X5.8858Y-4.311
X5.8858Y-4.3799
X5.8858Y-4.4193
X5.8858Y-4.4587
X5.8858Y-4.498
X5.8858Y-4.5374
X5.8898Y-4.6083
X5.8898Y-4.6476
X5.8898Y-4.687
X5.8976Y-3.4882
X5.9035Y-2.4567
X5.9035Y-2.4921
X5.9134Y-3.5118
X5.9252Y-3.4882
X5.9252Y-4.2283
X5.9252Y-4.2717
X5.9252Y-4.311
X5.9252Y-4.3799
X5.9252Y-4.4193
X5.9252Y-4.4587
X5.9252Y-4.498
X5.9252Y-4.5374
X5.9291Y-4.6083
X5.9291Y-4.6476
X5.9291Y-4.687
X5.9469Y-2.4567
X5.9469Y-2.4921
X5.9557Y-3.4813
X5.9646Y-4.2283
X5.9646Y-4.2717
X5.9646Y-4.311
X5.9646Y-4.3799
X5.9646Y-4.4193
X5.9646Y-4.4587
X5.9646Y-4.498
X5.9646Y-4.5374
X5.9685Y-4.6083
X5.9685Y-4.6476
X5.9685Y-4.687
X5.9705Y-3.1614
X5.9872Y-3.4813
X5.9902Y-2.4567
X5.9902Y-2.4921
X6.0079Y-2.8819
X6.0079Y-3.9488
X6.0079Y-3.9803
X6.0079Y-4.0138
X6.0079Y-4.0453
X6.0079Y-4.0768
X6.0079Y-4.1083
X6.0079Y-4.1417
X6.0079Y-4.1732
X6.0138Y-2.0965
X6.0138Y-2.128
X6.0138Y-2.1594
X6.0138Y-2.1909
X6.0138Y-2.2224
X6.0157Y-3.6142
X6.0157Y-3.6417
X6.0157Y-3.6693
X6.0157Y-3.6969
X6.0157Y-3.7244
X6.0157Y-3.752
X6.0157Y-3.7795
X6.0157Y-3.8071
X6.0167Y-3.2844
X6.024Y-4.2339
X6.0335Y-2.313
X6.0335Y-2.3484
X6.0335Y-2.3839
X6.0335Y-2.4193
X6.0335Y-2.4567
X6.0335Y-2.4921
X6.0354Y-2.8504
X6.0394Y-3.9488
X6.0394Y-3.9803
X6.0394Y-4.0138
X6.0394Y-4.0453
X6.0394Y-4.0768
X6.0394Y-4.1083
X6.0394Y-4.1417
X6.0394Y-4.1732
X6.0433Y-3.6142
X6.0433Y-3.6417
X6.0433Y-3.6693
X6.0433Y-3.6969
X6.0433Y-3.7244
X6.0433Y-3.752
X6.0433Y-3.7795
X6.0433Y-3.8071
X6.0453Y-2.0965
X6.0453Y-2.128
X6.0453Y-2.1594
X6.0453Y-2.1909
X6.0453Y-2.2224
X6.055Y-4.5552
X6.0552Y-4.5038
X6.065Y-4.262
X6.065Y-4.3329
X6.0689Y-3.0039
X6.0689Y-3.0591
X6.0689Y-3.1161
X6.0689Y-4.3031
X6.0709Y-2.9291
X6.0709Y-3.6142
X6.0709Y-3.6417
X6.0709Y-3.6693
X6.0709Y-3.6969
X6.0709Y-3.7244
X6.0709Y-3.752
X6.0709Y-3.7795
X6.0709Y-3.8071
X6.0709Y-3.9488
X6.0709Y-3.9803
X6.0709Y-4.0138
X6.0709Y-4.0453
X6.0709Y-4.0768
X6.0709Y-4.1083
X6.0709Y-4.1417
X6.0709Y-4.1732
X6.0768Y-2.313
X6.0768Y-2.3484
X6.0768Y-2.3839
X6.0768Y-2.4193
X6.0768Y-2.4567
X6.0768Y-2.4921
X6.0807Y-2.0965
X6.0807Y-2.128
X6.0807Y-2.1594
X6.0807Y-2.1909
X6.0807Y-2.2224
X6.0906Y-4.6417
X6.0945Y-4.5492
X6.0984Y-3.6142
X6.0984Y-3.6417
X6.0984Y-3.6693
X6.0984Y-3.6969
X6.0984Y-3.7244
X6.0984Y-3.752
X6.0984Y-3.7795
X6.0984Y-3.8071
X6.1024Y-3.9488
X6.1024Y-3.9803
X6.1024Y-4.0138
X6.1024Y-4.0453
X6.1024Y-4.0768
X6.1024Y-4.1083
X6.1024Y-4.1417
X6.1024Y-4.1732
X6.1063Y-2.878
X6.1083Y-3.1713
X6.1122Y-2.0965
X6.1122Y-2.128
X6.1122Y-2.1594
X6.1122Y-2.1909
X6.1122Y-2.2224
X6.1164Y-4.5098
X6.1181Y-1.874
X6.1181Y-1.9213
X6.1201Y-2.313
X6.1201Y-2.3484
X6.1201Y-2.3839
X6.1201Y-2.4193
X6.1201Y-2.4567
X6.1201Y-2.4921
X6.1347Y-4.4892
X6.1634Y-2.313
X6.1634Y-2.3484
X6.1634Y-2.3839
X6.1634Y-2.4193
X6.1634Y-2.4567
X6.1634Y-2.4921
X6.1732Y-3.1772
X6.2067Y-4.7264
X6.2077Y-2.313
X6.2077Y-2.3484
X6.2077Y-2.3839
X6.2077Y-2.4193
X6.2077Y-2.4567
X6.2077Y-2.4921
X6.2087Y-4.563
X6.2106Y-4.6457
X6.2126Y-4.4016
X6.2126Y-4.4823
X6.2717Y-3.1142
X6.3268Y-4.0433
X6.3346Y-3.6102
X6.3543Y-3.1772
X6.3661Y-2.748
X6.3661Y-2.8474
X6.3661Y-2.9469
X6.3661Y-3.0472
T2
X4.7134Y-3.3799
X4.7134Y-3.435
X4.7134Y-3.4902
X4.7638Y-3.3406
X4.7638Y-3.3799
X4.7638Y-3.435
X4.7638Y-3.4902
X4.7638Y-3.5295
X4.8142Y-3.3799
X4.8142Y-3.435
X4.8142Y-3.4902
X5.672Y-3.3799
X5.672Y-3.435
X5.672Y-3.4902
X5.7224Y-3.3406
X5.7224Y-3.3799
X5.7224Y-3.435
X5.7224Y-3.4902
X5.7224Y-3.5295
X5.7728Y-3.3799
X5.7728Y-3.435
X5.7728Y-3.4902
T3
X4.4154Y-1.6063
X4.4224Y-2.1201
X4.4224Y-2.1752
X4.4224Y-2.2303
X4.4646Y-1.6063
X4.4646Y-1.7421
X4.4776Y-2.1201
X4.4776Y-2.1752
X4.4776Y-2.2303
X4.5146Y-1.7402
X4.5157Y-1.6063
X4.5327Y-2.1201
X4.5327Y-2.1752
X4.5327Y-2.2303
T4
X5.2244Y-2.0492
X5.2352Y-1.8967
X5.2618Y-2.0335
X5.2618Y-2.0669
X5.2972Y-1.8976
X5.2972Y-2.0335
X5.2972Y-2.0669
X5.2992Y-1.747
X5.3061Y-1.8366
X5.4094Y-1.748
X5.5157Y-1.748
X5.5502Y-1.8258
T5
X3.9213Y-1.6339
X3.9213Y-5.7677
X3.9489Y-1.567
X3.9489Y-1.7007
X3.9489Y-5.7009
X3.9489Y-5.8345
X4.0157Y-1.5394
X4.0157Y-1.7283
X4.0157Y-5.6732
X4.0157Y-5.8622
X4.0826Y-1.567
X4.0826Y-1.7007
X4.0826Y-5.7009
X4.0826Y-5.8345
X4.1102Y-1.6339
X4.1102Y-5.7677
X6.2047Y-1.6339
X6.2047Y-5.7677
X6.2324Y-1.567
X6.2324Y-1.7007
X6.2324Y-5.7009
X6.2324Y-5.8345
X6.2992Y-1.5394
X6.2992Y-1.7283
X6.2992Y-5.6732
X6.2992Y-5.8622
X6.366Y-1.567
X6.366Y-1.7007
X6.366Y-5.7009
X6.366Y-5.8345
X6.3937Y-1.6339
X6.3937Y-5.7677
T6
X4.1732Y-2.6535
X5.3425Y-2.1358
T8
X5.124Y-1.6339
X5.224Y-1.6339
X5.324Y-1.6339
X5.424Y-1.6339
X5.524Y-1.6339
X5.624Y-1.6339
X5.8189Y-1.6965
X5.8189Y-1.8965
X5.8346Y-1.5965
X5.8346Y-1.7965
X6.313Y-2.0571
X6.313Y-2.4902
T9
X5.2362Y-5.7614
X5.3362Y-5.7614
X5.4362Y-5.7614
X5.5362Y-5.7614
T10
X5.9193Y-2.1752
X5.9193Y-2.372
T11
X4.0157Y-1.6339
X4.0157Y-5.7677
X6.2992Y-1.6339
X6.2992Y-5.7677
T12
X4.1732Y-3.4252
X4.1732Y-5.3937
X6.1417Y-3.4252
X6.1417Y-5.3937
T7
G00X4.6469Y-1.5939
M15
G01X4.6469Y-1.6254
M16
G05
G00X4.6469Y-1.7526
M15
G01X4.6469Y-1.7959
M16
G05
G00X4.987Y-1.5939
M15
G01X4.987Y-1.6254
M16
G05
G00X4.987Y-1.7526
M15
G01X4.987Y-1.7959
M16
G05
M30
