%TF.GenerationSoftware,KiCad,Pcbnew,9.0.0*%
%TF.CreationDate,2025-05-20T14:14:36-04:00*%
%TF.ProjectId,BitaxeGT,42697461-7865-4475-942e-6b696361645f,v800*%
%TF.SameCoordinates,Original*%
%TF.FileFunction,Copper,L6,Bot*%
%TF.FilePolarity,Positive*%
%FSLAX46Y46*%
G04 Gerber Fmt 4.6, Leading zero omitted, Abs format (unit mm)*
G04 Created by KiCad (PCBNEW 9.0.0) date 2025-05-20 14:14:36*
%MOMM*%
%LPD*%
G01*
G04 APERTURE LIST*
G04 Aperture macros list*
%AMRoundRect*
0 Rectangle with rounded corners*
0 $1 Rounding radius*
0 $2 $3 $4 $5 $6 $7 $8 $9 X,Y pos of 4 corners*
0 Add a 4 corners polygon primitive as box body*
4,1,4,$2,$3,$4,$5,$6,$7,$8,$9,$2,$3,0*
0 Add four circle primitives for the rounded corners*
1,1,$1+$1,$2,$3*
1,1,$1+$1,$4,$5*
1,1,$1+$1,$6,$7*
1,1,$1+$1,$8,$9*
0 Add four rect primitives between the rounded corners*
20,1,$1+$1,$2,$3,$4,$5,0*
20,1,$1+$1,$4,$5,$6,$7,0*
20,1,$1+$1,$6,$7,$8,$9,0*
20,1,$1+$1,$8,$9,$2,$3,0*%
%AMFreePoly0*
4,1,15,1.022500,0.487499,1.022500,0.167500,0.922500,0.067498,0.876498,0.067500,0.640880,-0.028744,0.583732,-0.085892,0.487499,-0.321501,0.487499,-0.487500,0.387500,-0.587502,-0.487500,-0.587500,-0.587500,-0.487500,-0.587500,0.487499,-0.487500,0.587499,0.922500,0.587499,1.022500,0.487499,1.022500,0.487499,$1*%
%AMFreePoly1*
4,1,14,0.587500,0.487499,0.587500,-0.487500,0.487500,-0.587500,-0.387500,-0.587502,-0.487499,-0.487500,-0.487499,-0.321501,-0.600305,-0.045318,-0.876498,0.067500,-0.922500,0.067498,-1.022500,0.167500,-1.022500,0.487499,-0.922500,0.587499,0.487500,0.587499,0.587500,0.487499,0.587500,0.487499,$1*%
%AMFreePoly2*
4,1,9,3.862500,-0.866500,0.737500,-0.866500,0.737500,-0.450000,-0.737500,-0.450000,-0.737500,0.450000,0.737500,0.450000,0.737500,0.866500,3.862500,0.866500,3.862500,-0.866500,3.862500,-0.866500,$1*%
G04 Aperture macros list end*
%TA.AperFunction,EtchedComponent*%
%ADD10C,0.000000*%
%TD*%
%TA.AperFunction,ComponentPad*%
%ADD11O,1.574800X4.000000*%
%TD*%
%TA.AperFunction,ComponentPad*%
%ADD12C,1.500000*%
%TD*%
%TA.AperFunction,SMDPad,CuDef*%
%ADD13C,1.000000*%
%TD*%
%TA.AperFunction,ComponentPad*%
%ADD14C,0.800000*%
%TD*%
%TA.AperFunction,ComponentPad*%
%ADD15C,6.400000*%
%TD*%
%TA.AperFunction,ComponentPad*%
%ADD16C,1.700000*%
%TD*%
%TA.AperFunction,ComponentPad*%
%ADD17O,1.700000X1.700000*%
%TD*%
%TA.AperFunction,SMDPad,CuDef*%
%ADD18RoundRect,0.135000X0.185000X-0.135000X0.185000X0.135000X-0.185000X0.135000X-0.185000X-0.135000X0*%
%TD*%
%TA.AperFunction,SMDPad,CuDef*%
%ADD19C,1.500000*%
%TD*%
%TA.AperFunction,SMDPad,CuDef*%
%ADD20RoundRect,0.140000X0.170000X-0.140000X0.170000X0.140000X-0.170000X0.140000X-0.170000X-0.140000X0*%
%TD*%
%TA.AperFunction,SMDPad,CuDef*%
%ADD21RoundRect,0.140000X-0.140000X-0.170000X0.140000X-0.170000X0.140000X0.170000X-0.140000X0.170000X0*%
%TD*%
%TA.AperFunction,SMDPad,CuDef*%
%ADD22RoundRect,0.135000X0.135000X0.185000X-0.135000X0.185000X-0.135000X-0.185000X0.135000X-0.185000X0*%
%TD*%
%TA.AperFunction,SMDPad,CuDef*%
%ADD23RoundRect,0.140000X-0.170000X0.140000X-0.170000X-0.140000X0.170000X-0.140000X0.170000X0.140000X0*%
%TD*%
%TA.AperFunction,ConnectorPad*%
%ADD24C,0.787400*%
%TD*%
%TA.AperFunction,ComponentPad*%
%ADD25C,6.000000*%
%TD*%
%TA.AperFunction,SMDPad,CuDef*%
%ADD26RoundRect,0.250000X-0.650000X0.325000X-0.650000X-0.325000X0.650000X-0.325000X0.650000X0.325000X0*%
%TD*%
%TA.AperFunction,SMDPad,CuDef*%
%ADD27RoundRect,0.225000X0.225000X0.250000X-0.225000X0.250000X-0.225000X-0.250000X0.225000X-0.250000X0*%
%TD*%
%TA.AperFunction,SMDPad,CuDef*%
%ADD28RoundRect,0.225000X-0.250000X0.225000X-0.250000X-0.225000X0.250000X-0.225000X0.250000X0.225000X0*%
%TD*%
%TA.AperFunction,SMDPad,CuDef*%
%ADD29R,1.300000X1.100000*%
%TD*%
%TA.AperFunction,SMDPad,CuDef*%
%ADD30RoundRect,0.150000X-0.512500X-0.150000X0.512500X-0.150000X0.512500X0.150000X-0.512500X0.150000X0*%
%TD*%
%TA.AperFunction,SMDPad,CuDef*%
%ADD31RoundRect,0.062500X0.337500X0.062500X-0.337500X0.062500X-0.337500X-0.062500X0.337500X-0.062500X0*%
%TD*%
%TA.AperFunction,SMDPad,CuDef*%
%ADD32RoundRect,0.062500X0.062500X0.337500X-0.062500X0.337500X-0.062500X-0.337500X0.062500X-0.337500X0*%
%TD*%
%TA.AperFunction,ComponentPad*%
%ADD33C,0.400000*%
%TD*%
%TA.AperFunction,SMDPad,CuDef*%
%ADD34R,3.300000X5.300000*%
%TD*%
%TA.AperFunction,SMDPad,CuDef*%
%ADD35R,0.599999X0.240000*%
%TD*%
%TA.AperFunction,SMDPad,CuDef*%
%ADD36R,0.240000X0.599999*%
%TD*%
%TA.AperFunction,ComponentPad*%
%ADD37C,0.499999*%
%TD*%
%TA.AperFunction,SMDPad,CuDef*%
%ADD38R,2.000001X1.000000*%
%TD*%
%TA.AperFunction,SMDPad,CuDef*%
%ADD39RoundRect,0.135000X-0.135000X-0.185000X0.135000X-0.185000X0.135000X0.185000X-0.135000X0.185000X0*%
%TD*%
%TA.AperFunction,SMDPad,CuDef*%
%ADD40RoundRect,0.140000X0.140000X0.170000X-0.140000X0.170000X-0.140000X-0.170000X0.140000X-0.170000X0*%
%TD*%
%TA.AperFunction,SMDPad,CuDef*%
%ADD41FreePoly0,180.000000*%
%TD*%
%TA.AperFunction,SMDPad,CuDef*%
%ADD42R,1.500000X2.300000*%
%TD*%
%TA.AperFunction,SMDPad,CuDef*%
%ADD43FreePoly1,180.000000*%
%TD*%
%TA.AperFunction,SMDPad,CuDef*%
%ADD44R,0.220000X0.599999*%
%TD*%
%TA.AperFunction,SMDPad,CuDef*%
%ADD45C,0.200000*%
%TD*%
%TA.AperFunction,SMDPad,CuDef*%
%ADD46R,1.270000X0.889000*%
%TD*%
%TA.AperFunction,SMDPad,CuDef*%
%ADD47R,0.787400X1.447800*%
%TD*%
%TA.AperFunction,ComponentPad*%
%ADD48C,3.000000*%
%TD*%
%TA.AperFunction,ComponentPad*%
%ADD49C,2.000000*%
%TD*%
%TA.AperFunction,SMDPad,CuDef*%
%ADD50RoundRect,0.250000X0.475000X-0.250000X0.475000X0.250000X-0.475000X0.250000X-0.475000X-0.250000X0*%
%TD*%
%TA.AperFunction,SMDPad,CuDef*%
%ADD51R,2.600000X4.000000*%
%TD*%
%TA.AperFunction,SMDPad,CuDef*%
%ADD52R,0.300000X1.300000*%
%TD*%
%TA.AperFunction,SMDPad,CuDef*%
%ADD53R,2.000000X1.600000*%
%TD*%
%TA.AperFunction,SMDPad,CuDef*%
%ADD54RoundRect,0.150000X-0.150000X-0.425000X0.150000X-0.425000X0.150000X0.425000X-0.150000X0.425000X0*%
%TD*%
%TA.AperFunction,SMDPad,CuDef*%
%ADD55RoundRect,0.075000X-0.075000X-0.500000X0.075000X-0.500000X0.075000X0.500000X-0.075000X0.500000X0*%
%TD*%
%TA.AperFunction,ComponentPad*%
%ADD56O,1.000000X1.800000*%
%TD*%
%TA.AperFunction,ComponentPad*%
%ADD57O,1.000000X2.100000*%
%TD*%
%TA.AperFunction,SMDPad,CuDef*%
%ADD58RoundRect,0.135000X-0.185000X0.135000X-0.185000X-0.135000X0.185000X-0.135000X0.185000X0.135000X0*%
%TD*%
%TA.AperFunction,SMDPad,CuDef*%
%ADD59RoundRect,0.250000X0.450000X-0.262500X0.450000X0.262500X-0.450000X0.262500X-0.450000X-0.262500X0*%
%TD*%
%TA.AperFunction,SMDPad,CuDef*%
%ADD60RoundRect,0.225000X0.250000X-0.225000X0.250000X0.225000X-0.250000X0.225000X-0.250000X-0.225000X0*%
%TD*%
%TA.AperFunction,SMDPad,CuDef*%
%ADD61RoundRect,0.250000X-1.025000X0.787500X-1.025000X-0.787500X1.025000X-0.787500X1.025000X0.787500X0*%
%TD*%
%TA.AperFunction,SMDPad,CuDef*%
%ADD62R,0.900000X1.500000*%
%TD*%
%TA.AperFunction,SMDPad,CuDef*%
%ADD63R,1.500000X0.900000*%
%TD*%
%TA.AperFunction,SMDPad,CuDef*%
%ADD64R,0.900000X0.900000*%
%TD*%
%TA.AperFunction,SMDPad,CuDef*%
%ADD65RoundRect,0.075000X-0.075000X0.350000X-0.075000X-0.350000X0.075000X-0.350000X0.075000X0.350000X0*%
%TD*%
%TA.AperFunction,SMDPad,CuDef*%
%ADD66RoundRect,0.075000X-0.350000X0.075000X-0.350000X-0.075000X0.350000X-0.075000X0.350000X0.075000X0*%
%TD*%
%TA.AperFunction,HeatsinkPad*%
%ADD67R,2.100000X2.100000*%
%TD*%
%TA.AperFunction,SMDPad,CuDef*%
%ADD68RoundRect,0.225000X0.425000X0.225000X-0.425000X0.225000X-0.425000X-0.225000X0.425000X-0.225000X0*%
%TD*%
%TA.AperFunction,SMDPad,CuDef*%
%ADD69FreePoly2,180.000000*%
%TD*%
%TA.AperFunction,ViaPad*%
%ADD70C,0.500000*%
%TD*%
%TA.AperFunction,ViaPad*%
%ADD71C,0.600000*%
%TD*%
%TA.AperFunction,ViaPad*%
%ADD72C,0.800000*%
%TD*%
%TA.AperFunction,ViaPad*%
%ADD73C,0.700000*%
%TD*%
%TA.AperFunction,ViaPad*%
%ADD74C,1.000000*%
%TD*%
%TA.AperFunction,Conductor*%
%ADD75C,0.200000*%
%TD*%
%TA.AperFunction,Conductor*%
%ADD76C,0.400000*%
%TD*%
%TA.AperFunction,Conductor*%
%ADD77C,0.300000*%
%TD*%
%TA.AperFunction,Conductor*%
%ADD78C,0.500000*%
%TD*%
G04 APERTURE END LIST*
D10*
%TA.AperFunction,EtchedComponent*%
%TO.C,NT1*%
G36*
X145700000Y-84830000D02*
G01*
X145500000Y-84830000D01*
X145500000Y-83830000D01*
X145700000Y-83830000D01*
X145700000Y-84830000D01*
G37*
%TD.AperFunction*%
%TA.AperFunction,EtchedComponent*%
%TO.C,NT2*%
G36*
X121350000Y-84850000D02*
G01*
X121150000Y-84850000D01*
X121150000Y-83850000D01*
X121350000Y-83850000D01*
X121350000Y-84850000D01*
G37*
%TD.AperFunction*%
%TD*%
D11*
%TO.P,J7,1,Pin_1*%
%TO.N,GND*%
X134810000Y-147538851D03*
%TO.P,J7,2,Pin_2*%
%TO.N,/12V*%
X132270000Y-147538851D03*
D12*
%TO.P,J7,3,Pin_3*%
%TO.N,/fan/FAN_TACH*%
X129730000Y-148498851D03*
D11*
X129730000Y-147538851D03*
%TO.P,J7,4,Pin_4*%
%TO.N,/fan/FAN_PWM*%
X127190000Y-147538851D03*
%TD*%
D13*
%TO.P,FID4,*%
%TO.N,*%
X153750000Y-41460000D03*
%TD*%
D14*
%TO.P,H4,1,1*%
%TO.N,GND*%
X99600000Y-146500000D03*
X100302944Y-144802944D03*
X100302944Y-148197056D03*
X102000000Y-144100000D03*
D15*
X102000000Y-146500000D03*
D14*
X102000000Y-148900000D03*
X103697056Y-144802944D03*
X103697056Y-148197056D03*
X104400000Y-146500000D03*
%TD*%
D13*
%TO.P,FID3,*%
%TO.N,*%
X154700000Y-148500000D03*
%TD*%
%TO.P,FID2,*%
%TO.N,*%
X106833200Y-148440000D03*
%TD*%
D14*
%TO.P,H2,1,1*%
%TO.N,GND*%
X99600000Y-41500000D03*
X100302944Y-39802944D03*
X100302944Y-43197056D03*
X102000000Y-39100000D03*
D15*
X102000000Y-41500000D03*
D14*
X102000000Y-43900000D03*
X103697056Y-39802944D03*
X103697056Y-43197056D03*
X104400000Y-41500000D03*
%TD*%
%TO.P,H3,1,1*%
%TO.N,GND*%
X157600000Y-146500000D03*
X158302944Y-144802944D03*
X158302944Y-148197056D03*
X160000000Y-144100000D03*
D15*
X160000000Y-146500000D03*
D14*
X160000000Y-148900000D03*
X161697056Y-144802944D03*
X161697056Y-148197056D03*
X162400000Y-146500000D03*
%TD*%
D16*
%TO.P,J3,1,Pin_1*%
%TO.N,GND*%
X148200000Y-40550000D03*
D17*
%TO.P,J3,2,Pin_2*%
%TO.N,/3V3*%
X147800000Y-43090000D03*
%TO.P,J3,3,Pin_3*%
%TO.N,/ESP32/SCL*%
X148200000Y-45630000D03*
%TO.P,J3,4,Pin_4*%
%TO.N,/ESP32/SDA*%
X147800000Y-48170000D03*
%TD*%
D13*
%TO.P,FID1,*%
%TO.N,*%
X107652800Y-39782000D03*
%TD*%
D14*
%TO.P,H1,1,1*%
%TO.N,GND*%
X157600000Y-41500000D03*
X158302944Y-39802944D03*
X158302944Y-43197056D03*
X160000000Y-39100000D03*
D15*
X160000000Y-41500000D03*
D14*
X160000000Y-43900000D03*
X161697056Y-39802944D03*
X161697056Y-43197056D03*
X162400000Y-41500000D03*
%TD*%
D18*
%TO.P,R29,1*%
%TO.N,Net-(U13-DP1)*%
X134000000Y-128900000D03*
%TO.P,R29,2*%
%TO.N,/ASIC/TEMP2_P*%
X134000000Y-127880000D03*
%TD*%
D19*
%TO.P,TP35,1,1*%
%TO.N,GND*%
X130000000Y-42360000D03*
%TD*%
D20*
%TO.P,C17,1*%
%TO.N,/Power/EN_UVLO*%
X138300000Y-82080000D03*
%TO.P,C17,2*%
%TO.N,GND*%
X138300000Y-81120000D03*
%TD*%
D21*
%TO.P,C37,1*%
%TO.N,GND*%
X115650000Y-84320000D03*
%TO.P,C37,2*%
%TO.N,/Power/V5reg_2*%
X116610000Y-84320000D03*
%TD*%
D22*
%TO.P,R22,1*%
%TO.N,/3V3*%
X157400000Y-47600000D03*
%TO.P,R22,2*%
%TO.N,/Power/SCL_VR*%
X156380000Y-47600000D03*
%TD*%
D13*
%TO.P,TP6,1,1*%
%TO.N,Net-(U10-CLKO)*%
X158950000Y-118000000D03*
%TD*%
%TO.P,TP20,1,1*%
%TO.N,/fan/FAN_PWM*%
X127950000Y-137400000D03*
%TD*%
D23*
%TO.P,C7,1*%
%TO.N,Net-(U1-BOOT)*%
X150100000Y-86920000D03*
%TO.P,C7,2*%
%TO.N,/Power/SW1*%
X150100000Y-87880000D03*
%TD*%
D24*
%TO.P,J8,1,Pin_1*%
%TO.N,/ESP32/EN*%
X114670000Y-43100000D03*
%TO.P,J8,2,Pin_2*%
%TO.N,/3V3*%
X114670000Y-41830000D03*
%TO.P,J8,3,Pin_3*%
%TO.N,/ESP32/P_TX*%
X113400000Y-43100000D03*
%TO.P,J8,4,Pin_4*%
%TO.N,GND*%
X113400000Y-41830000D03*
%TO.P,J8,5,Pin_5*%
%TO.N,/ESP32/P_RX*%
X112130000Y-43100000D03*
%TO.P,J8,6,Pin_6*%
%TO.N,/ESP32/IO0*%
X112130000Y-41830000D03*
%TD*%
D20*
%TO.P,C84,1*%
%TO.N,GND*%
X143950000Y-117530000D03*
%TO.P,C84,2*%
%TO.N,/ASIC/1V2*%
X143950000Y-116570000D03*
%TD*%
D25*
%TO.P,H6,1,1*%
%TO.N,unconnected-(H6-Pad1)*%
X106000000Y-87000000D03*
%TD*%
%TO.P,H5,1,1*%
%TO.N,unconnected-(H5-Pad1)*%
X156000000Y-87000000D03*
%TD*%
D13*
%TO.P,TP30,1,1*%
%TO.N,/Power/BCX_CLK*%
X156800000Y-80700000D03*
%TD*%
D18*
%TO.P,R25,1*%
%TO.N,GND*%
X128680000Y-46280000D03*
%TO.P,R25,2*%
%TO.N,Net-(J4-CC2)*%
X128680000Y-45260000D03*
%TD*%
D26*
%TO.P,C12,1*%
%TO.N,GND*%
X139800000Y-97975000D03*
%TO.P,C12,2*%
%TO.N,/Vcore*%
X139800000Y-100925000D03*
%TD*%
%TO.P,C33,1*%
%TO.N,GND*%
X114850000Y-98000000D03*
%TO.P,C33,2*%
%TO.N,/Vcore*%
X114850000Y-100950000D03*
%TD*%
D27*
%TO.P,C49,1*%
%TO.N,/3V3*%
X107425000Y-46150000D03*
%TO.P,C49,2*%
%TO.N,GND*%
X105875000Y-46150000D03*
%TD*%
D28*
%TO.P,C38,1*%
%TO.N,/Vcore*%
X116150000Y-109575000D03*
%TO.P,C38,2*%
%TO.N,GND*%
X116150000Y-111125000D03*
%TD*%
D26*
%TO.P,C14,1*%
%TO.N,GND*%
X135200000Y-97975000D03*
%TO.P,C14,2*%
%TO.N,/Vcore*%
X135200000Y-100925000D03*
%TD*%
D20*
%TO.P,C65,1*%
%TO.N,Net-(U9-VDD1_0)*%
X107125000Y-109205000D03*
%TO.P,C65,2*%
%TO.N,Net-(U9-VDD2_0)*%
X107125000Y-108245000D03*
%TD*%
D29*
%TO.P,U8,1,EN*%
%TO.N,/ASIC/1V2*%
X102050000Y-101750000D03*
%TO.P,U8,2,GND*%
%TO.N,GND*%
X104350000Y-101750000D03*
%TO.P,U8,3,OUT*%
%TO.N,/ASIC/CLKI*%
X104350000Y-103650000D03*
%TO.P,U8,4,VIN*%
%TO.N,/ASIC/1V2*%
X102050000Y-103650000D03*
%TD*%
D18*
%TO.P,R20,1*%
%TO.N,/ESP32/EN*%
X106700000Y-74640000D03*
%TO.P,R20,2*%
%TO.N,/3V3*%
X106700000Y-73620000D03*
%TD*%
D30*
%TO.P,U11,1,VIN*%
%TO.N,/5V*%
X126875000Y-120900000D03*
%TO.P,U11,2,GND*%
%TO.N,GND*%
X126875000Y-119950000D03*
%TO.P,U11,3,EN*%
%TO.N,/5V*%
X126875000Y-119000000D03*
%TO.P,U11,4,PG*%
%TO.N,unconnected-(U11-PG-Pad4)*%
X129150000Y-119000000D03*
%TO.P,U11,5,VOUT*%
%TO.N,/ASIC/1V2*%
X129150000Y-120900000D03*
%TD*%
D13*
%TO.P,TP14,1,1*%
%TO.N,Net-(U9-INV_CLKO)*%
X100900000Y-123550000D03*
%TD*%
D31*
%TO.P,U4,1,PGD*%
%TO.N,/Power/AGND2*%
X123500000Y-84500000D03*
%TO.P,U4,2,PMB_DATA*%
X123500000Y-85000000D03*
%TO.P,U4,3,PMB_CLK*%
X123500000Y-85500000D03*
%TO.P,U4,4,BP1V5*%
%TO.N,/Power/BP1v5_2*%
X123500000Y-86000000D03*
%TO.P,U4,5,DRTN*%
%TO.N,Net-(U4-DRTN)*%
X123500000Y-86500000D03*
%TO.P,U4,6,SMB_ALRT*%
%TO.N,/Power/AGND2*%
X123500000Y-87000000D03*
%TO.P,U4,7,BOOT*%
%TO.N,Net-(U4-BOOT)*%
X123500000Y-87500000D03*
%TO.P,U4,8,SW*%
%TO.N,/Power/SW2*%
X123500000Y-88000000D03*
%TO.P,U4,9,SW*%
X123500000Y-88500000D03*
%TO.P,U4,10,SW*%
X123500000Y-89000000D03*
%TO.P,U4,11,SW*%
X123500000Y-89500000D03*
%TO.P,U4,12,SW*%
X123500000Y-90000000D03*
D32*
%TO.P,U4,13,PGND*%
%TO.N,GND*%
X122750000Y-90750000D03*
%TO.P,U4,14,PGND*%
X122250000Y-90750000D03*
%TO.P,U4,15,PGND*%
X121750000Y-90750000D03*
%TO.P,U4,16,PGND*%
X121250000Y-90750000D03*
%TO.P,U4,17,PGND*%
X120750000Y-90750000D03*
%TO.P,U4,18,PGND*%
X120250000Y-90750000D03*
%TO.P,U4,19,PGND*%
X119750000Y-90750000D03*
%TO.P,U4,20,PGND*%
X119250000Y-90750000D03*
D31*
%TO.P,U4,21,PVIN*%
%TO.N,/12V*%
X118500000Y-90000000D03*
%TO.P,U4,22,PVIN*%
X118500000Y-89500000D03*
%TO.P,U4,23,PVIN*%
X118500000Y-89000000D03*
%TO.P,U4,24,PVIN*%
X118500000Y-88500000D03*
%TO.P,U4,25,PVIN*%
X118500000Y-88000000D03*
%TO.P,U4,26,AVIN*%
%TO.N,Net-(U4-AVIN)*%
X118500000Y-87500000D03*
%TO.P,U4,27,EN/UVLO*%
%TO.N,/Power/EN_UVLO*%
X118500000Y-87000000D03*
%TO.P,U4,28,VDD5*%
%TO.N,/Power/V5reg_2*%
X118500000Y-86500000D03*
%TO.P,U4,29,MSEL2*%
%TO.N,/Power/AGND2*%
X118500000Y-86000000D03*
%TO.P,U4,30,VSEL*%
%TO.N,unconnected-(U4-VSEL-Pad30)*%
X118500000Y-85500000D03*
%TO.P,U4,31,ADRSEL*%
%TO.N,unconnected-(U4-ADRSEL-Pad31)*%
X118500000Y-85000000D03*
%TO.P,U4,32,MSEL1*%
%TO.N,unconnected-(U4-MSEL1-Pad32)*%
X118500000Y-84500000D03*
D32*
%TO.P,U4,33,VOSNS*%
%TO.N,unconnected-(U4-VOSNS-Pad33)*%
X119250000Y-83750000D03*
%TO.P,U4,34,GOSNS*%
%TO.N,Net-(U4-GOSNS)*%
X119750000Y-83750000D03*
%TO.P,U4,35,VSHARE*%
%TO.N,/Power/VSHARE*%
X120250000Y-83750000D03*
%TO.P,U4,36,NC*%
%TO.N,GND*%
X120750000Y-83750000D03*
%TO.P,U4,37,AGND*%
%TO.N,/Power/AGND2*%
X121250000Y-83750000D03*
%TO.P,U4,38,SYNC*%
%TO.N,/Power/SYNC*%
X121750000Y-83750000D03*
%TO.P,U4,39,BCX_CLK*%
%TO.N,/Power/BCX_CLK*%
X122250000Y-83750000D03*
%TO.P,U4,40,BCX_DAT*%
%TO.N,/Power/BCX_DAT*%
X122750000Y-83750000D03*
D33*
%TO.P,U4,41,PAD*%
%TO.N,GND*%
X122280000Y-88650000D03*
X122280000Y-87250000D03*
X122280000Y-85850000D03*
X121000000Y-89650000D03*
X121000000Y-88650000D03*
X121000000Y-87250000D03*
D34*
X121000000Y-87250000D03*
D33*
X121000000Y-85850000D03*
X121000000Y-84850000D03*
X119720000Y-88650000D03*
X119720000Y-87250000D03*
X119720000Y-85850000D03*
%TD*%
D20*
%TO.P,C80,1*%
%TO.N,GND*%
X106000000Y-117530000D03*
%TO.P,C80,2*%
%TO.N,/ASIC/0V8_1*%
X106000000Y-116570000D03*
%TD*%
D35*
%TO.P,U2,1,DIR1*%
%TO.N,GND*%
X103670001Y-124150000D03*
D36*
%TO.P,U2,2,DIR2*%
X104070000Y-123250000D03*
%TO.P,U2,3,A1*%
%TO.N,/ASIC/RST_1V2*%
X104569999Y-123250000D03*
%TO.P,U2,4,A2*%
%TO.N,/ASIC/TX_1V2*%
X105070000Y-123250000D03*
%TO.P,U2,5,A3*%
%TO.N,/ASIC/RX_1V2*%
X105570000Y-123250000D03*
%TO.P,U2,6,A4*%
%TO.N,GND*%
X106070001Y-123250000D03*
%TO.P,U2,7,DIR3*%
%TO.N,/ASIC/1V2*%
X106570000Y-123250000D03*
D35*
%TO.P,U2,8,DIR4*%
X106969999Y-124150000D03*
%TO.P,U2,9,OE*%
%TO.N,Net-(U2-OE)*%
X106969999Y-124650000D03*
D36*
%TO.P,U2,10,GND*%
%TO.N,GND*%
X106570000Y-125550000D03*
%TO.P,U2,11,B4*%
%TO.N,unconnected-(U2-B4-Pad11)*%
X106070001Y-125550000D03*
%TO.P,U2,12,B3*%
%TO.N,/ASIC/RX_3V3*%
X105570000Y-125550000D03*
%TO.P,U2,13,B2*%
%TO.N,/ASIC/TX_3V3*%
X105070000Y-125550000D03*
%TO.P,U2,14,B1*%
%TO.N,/ASIC/RST_3V3*%
X104569999Y-125550000D03*
%TO.P,U2,15,VCCB*%
%TO.N,/3V3*%
X104070000Y-125550000D03*
D35*
%TO.P,U2,16,VCCA*%
%TO.N,/ASIC/1V2*%
X103670001Y-124650000D03*
D37*
%TO.P,U2,17,PAD*%
%TO.N,unconnected-(U2-PAD-Pad17)_1*%
X106070001Y-124400000D03*
D38*
%TO.N,unconnected-(U2-PAD-Pad17)_2*%
X105320000Y-124400000D03*
D37*
%TO.N,unconnected-(U2-PAD-Pad17)*%
X104569999Y-124400000D03*
%TD*%
D20*
%TO.P,C85,1*%
%TO.N,GND*%
X142600000Y-117530000D03*
%TO.P,C85,2*%
%TO.N,/ASIC/0V8*%
X142600000Y-116570000D03*
%TD*%
%TO.P,C75,1*%
%TO.N,Net-(U10-VDD3_0)*%
X144940000Y-107310000D03*
%TO.P,C75,2*%
%TO.N,/Vcore*%
X144940000Y-106350000D03*
%TD*%
D23*
%TO.P,C68,1*%
%TO.N,/Vcore*%
X116750000Y-106345000D03*
%TO.P,C68,2*%
%TO.N,Net-(U10-VDD3_0)*%
X116750000Y-107305000D03*
%TD*%
D19*
%TO.P,TP25,1,1*%
%TO.N,GND*%
X160920000Y-47440000D03*
%TD*%
D28*
%TO.P,C57,1*%
%TO.N,/Vcore*%
X109800000Y-109575000D03*
%TO.P,C57,2*%
%TO.N,GND*%
X109800000Y-111125000D03*
%TD*%
D19*
%TO.P,TP28,1,1*%
%TO.N,GND*%
X133305000Y-48756821D03*
%TD*%
D28*
%TO.P,C2,1*%
%TO.N,/12V*%
X141675000Y-90600000D03*
%TO.P,C2,2*%
%TO.N,GND*%
X141675000Y-92150000D03*
%TD*%
D19*
%TO.P,TP18,1,1*%
%TO.N,/ASIC/1V2*%
X135450000Y-120050000D03*
%TD*%
D21*
%TO.P,C53,1*%
%TO.N,/ASIC/1V2*%
X102120000Y-99500000D03*
%TO.P,C53,2*%
%TO.N,GND*%
X103080000Y-99500000D03*
%TD*%
D39*
%TO.P,R26,1*%
%TO.N,GND*%
X103790000Y-114040000D03*
%TO.P,R26,2*%
%TO.N,Net-(U9-LITE_PAD)*%
X104810000Y-114040000D03*
%TD*%
D18*
%TO.P,R21,1*%
%TO.N,/3V3*%
X125990000Y-62790000D03*
%TO.P,R21,2*%
%TO.N,/Power/ALRT_VR*%
X125990000Y-61770000D03*
%TD*%
D13*
%TO.P,TP21,1,1*%
%TO.N,/fan/FAN_TACH*%
X138040000Y-139520000D03*
%TD*%
D20*
%TO.P,C87,1*%
%TO.N,GND*%
X155400000Y-117270000D03*
%TO.P,C87,2*%
%TO.N,/ASIC/0V8_2*%
X155400000Y-116310000D03*
%TD*%
D26*
%TO.P,C11,1*%
%TO.N,GND*%
X142100000Y-97975000D03*
%TO.P,C11,2*%
%TO.N,/Vcore*%
X142100000Y-100925000D03*
%TD*%
D23*
%TO.P,C71,1*%
%TO.N,Net-(U10-VDD1_0)*%
X117725000Y-109270000D03*
%TO.P,C71,2*%
%TO.N,GND*%
X117725000Y-110230000D03*
%TD*%
D39*
%TO.P,R23,1*%
%TO.N,GND*%
X106780000Y-128020000D03*
%TO.P,R23,2*%
%TO.N,Net-(U2-OE)*%
X107800000Y-128020000D03*
%TD*%
%TO.P,R9,1*%
%TO.N,Net-(U1-MSEL2)*%
X154940000Y-76300000D03*
%TO.P,R9,2*%
%TO.N,/Power/BP1v5_1*%
X155960000Y-76300000D03*
%TD*%
D40*
%TO.P,C20,1*%
%TO.N,/Power/AGND1*%
X145630000Y-81410000D03*
%TO.P,C20,2*%
%TO.N,/Power/VSHARE*%
X144670000Y-81410000D03*
%TD*%
D28*
%TO.P,C58,1*%
%TO.N,/Vcore*%
X152200000Y-109575000D03*
%TO.P,C58,2*%
%TO.N,GND*%
X152200000Y-111125000D03*
%TD*%
D19*
%TO.P,TP23,1,1*%
%TO.N,/Power/SDA_VR*%
X158200000Y-69180000D03*
%TD*%
D39*
%TO.P,R19,1*%
%TO.N,/Power/BP1v5_2*%
X118290000Y-82200000D03*
%TO.P,R19,2*%
%TO.N,Net-(U4-GOSNS)*%
X119310000Y-82200000D03*
%TD*%
D28*
%TO.P,C55,1*%
%TO.N,/Vcore*%
X112990000Y-109575000D03*
%TO.P,C55,2*%
%TO.N,GND*%
X112990000Y-111125000D03*
%TD*%
D21*
%TO.P,C92,1*%
%TO.N,/3V3*%
X135020000Y-129890000D03*
%TO.P,C92,2*%
%TO.N,GND*%
X135980000Y-129890000D03*
%TD*%
D13*
%TO.P,TP31,1,1*%
%TO.N,/Power/BCX_DAT*%
X161580000Y-82450000D03*
%TD*%
D19*
%TO.P,TP36,1,1*%
%TO.N,/ESP32/IO0*%
X107690000Y-43200000D03*
%TD*%
D41*
%TO.P,U3,1,VIN*%
%TO.N,/12V*%
X138992499Y-51869322D03*
D42*
%TO.P,U3,2,SW*%
%TO.N,unconnected-(U3-SW-Pad2)*%
X138830000Y-53856821D03*
%TO.P,U3,3,VOUT*%
%TO.N,/3V3*%
X136530000Y-53856821D03*
D43*
%TO.P,U3,4,PGND*%
%TO.N,GND*%
X136380000Y-51881821D03*
D44*
%TO.P,U3,5,PG*%
%TO.N,unconnected-(U3-PG-Pad5)*%
X137180001Y-51281822D03*
%TO.P,U3,6,EN*%
%TO.N,Net-(U3-EN)*%
X137680000Y-51281822D03*
%TO.P,U3,7,VOS*%
%TO.N,/3V3*%
X138179999Y-51281822D03*
%TD*%
D39*
%TO.P,R8,1*%
%TO.N,Net-(U1-GOSNS)*%
X144640000Y-80360000D03*
%TO.P,R8,2*%
%TO.N,GND*%
X145660000Y-80360000D03*
%TD*%
D18*
%TO.P,R36,1*%
%TO.N,Net-(U13-DN2)*%
X130650000Y-128910000D03*
%TO.P,R36,2*%
%TO.N,/ASIC/TEMP1_N*%
X130650000Y-127890000D03*
%TD*%
D23*
%TO.P,C88,1*%
%TO.N,GND*%
X125212500Y-119970000D03*
%TO.P,C88,2*%
%TO.N,/5V*%
X125212500Y-120930000D03*
%TD*%
D45*
%TO.P,NT1,1,1*%
%TO.N,GND*%
X145600000Y-84830000D03*
%TO.P,NT1,2,2*%
%TO.N,/Power/AGND1*%
X145600000Y-83830000D03*
%TD*%
D28*
%TO.P,C23,1*%
%TO.N,/12V*%
X117325000Y-90425000D03*
%TO.P,C23,2*%
%TO.N,GND*%
X117325000Y-91975000D03*
%TD*%
D39*
%TO.P,R13,1*%
%TO.N,/Power/AGND1*%
X152340000Y-77700000D03*
%TO.P,R13,2*%
%TO.N,Net-(U1-VSEL)*%
X153360000Y-77700000D03*
%TD*%
D46*
%TO.P,SW1,1*%
%TO.N,GND*%
X101797000Y-77485500D03*
%TO.P,SW1,2*%
%TO.N,/ESP32/EN*%
X101797000Y-73294500D03*
D47*
%TO.P,SW1,3,NC*%
%TO.N,unconnected-(SW1-NC-Pad3)*%
X99904700Y-78768200D03*
%TO.P,SW1,4,NC*%
%TO.N,unconnected-(SW1-NC-Pad4)*%
X99904700Y-72011800D03*
%TD*%
D20*
%TO.P,C66,1*%
%TO.N,Net-(U9-VDD2_0)*%
X108125000Y-108255000D03*
%TO.P,C66,2*%
%TO.N,Net-(U9-VDD3_0)*%
X108125000Y-107295000D03*
%TD*%
D26*
%TO.P,C34,1*%
%TO.N,GND*%
X112550000Y-98000000D03*
%TO.P,C34,2*%
%TO.N,/Vcore*%
X112550000Y-100950000D03*
%TD*%
D39*
%TO.P,R39,1*%
%TO.N,/ESP32/SCL*%
X153390000Y-47600000D03*
%TO.P,R39,2*%
%TO.N,/Power/SCL_VR*%
X154410000Y-47600000D03*
%TD*%
D13*
%TO.P,TP10,1,1*%
%TO.N,Net-(U9-ROSC_SEL)*%
X100950000Y-117400000D03*
%TD*%
%TO.P,TP12,1,1*%
%TO.N,Net-(U9-LITE_PAD)*%
X100900000Y-120300000D03*
%TD*%
D28*
%TO.P,C60,1*%
%TO.N,/Vcore*%
X149000000Y-109575000D03*
%TO.P,C60,2*%
%TO.N,GND*%
X149000000Y-111125000D03*
%TD*%
D19*
%TO.P,TP15,1,1*%
%TO.N,/Vcore*%
X160700000Y-102700000D03*
%TD*%
D26*
%TO.P,C32,1*%
%TO.N,GND*%
X117150000Y-98000000D03*
%TO.P,C32,2*%
%TO.N,/Vcore*%
X117150000Y-100950000D03*
%TD*%
D48*
%TO.P,J1,1,+V*%
%TO.N,/12V*%
X150350000Y-60250000D03*
%TO.P,J1,2,GND*%
%TO.N,GND*%
X150350000Y-55250000D03*
D49*
%TO.P,J1,3,MNT1*%
%TO.N,unconnected-(J1-MNT1-Pad3)*%
X160350000Y-63250000D03*
%TO.P,J1,4,MNT2*%
%TO.N,unconnected-(J1-MNT2-Pad4)*%
X160350000Y-52250000D03*
%TD*%
D28*
%TO.P,C59,1*%
%TO.N,/Vcore*%
X150600000Y-109575000D03*
%TO.P,C59,2*%
%TO.N,GND*%
X150600000Y-111125000D03*
%TD*%
D50*
%TO.P,C29,1*%
%TO.N,/Power/SW2*%
X127725000Y-88325000D03*
%TO.P,C29,2*%
%TO.N,Net-(C29-Pad2)*%
X127725000Y-86425000D03*
%TD*%
D51*
%TO.P,L1,1,1*%
%TO.N,/Power/SW1*%
X153850000Y-94425000D03*
%TO.P,L1,2,2*%
%TO.N,/Vcore*%
X153850000Y-102375000D03*
%TD*%
D28*
%TO.P,C54,1*%
%TO.N,/Vcore*%
X114550000Y-109575000D03*
%TO.P,C54,2*%
%TO.N,GND*%
X114550000Y-111125000D03*
%TD*%
D13*
%TO.P,TP11,1,1*%
%TO.N,Net-(U10-ROSC_SEL)*%
X141650000Y-112550000D03*
%TD*%
D51*
%TO.P,L2,1,1*%
%TO.N,/Power/SW2*%
X128500000Y-94425000D03*
%TO.P,L2,2,2*%
%TO.N,/Vcore*%
X128500000Y-102375000D03*
%TD*%
D20*
%TO.P,C81,1*%
%TO.N,GND*%
X107550000Y-117530000D03*
%TO.P,C81,2*%
%TO.N,/ASIC/1V2_1*%
X107550000Y-116570000D03*
%TD*%
D19*
%TO.P,TP24,1,1*%
%TO.N,/Power/SCL_VR*%
X161470000Y-69180000D03*
%TD*%
D39*
%TO.P,R18,1*%
%TO.N,GND*%
X135595000Y-49631821D03*
%TO.P,R18,2*%
%TO.N,Net-(U3-EN)*%
X136615000Y-49631821D03*
%TD*%
D20*
%TO.P,C83,1*%
%TO.N,GND*%
X118250000Y-117530000D03*
%TO.P,C83,2*%
%TO.N,/ASIC/1V2*%
X118250000Y-116570000D03*
%TD*%
D28*
%TO.P,C24,1*%
%TO.N,/12V*%
X115850000Y-90425000D03*
%TO.P,C24,2*%
%TO.N,GND*%
X115850000Y-91975000D03*
%TD*%
D52*
%TO.P,J2,1,Pin_1*%
%TO.N,/12V*%
X139070000Y-44180000D03*
%TO.P,J2,2,Pin_2*%
X138570000Y-44180000D03*
%TO.P,J2,3,Pin_3*%
%TO.N,GND*%
X138070000Y-44180000D03*
%TO.P,J2,4,Pin_4*%
X137570000Y-44180000D03*
%TO.P,J2,5,Pin_5*%
%TO.N,Net-(J2-Pin_5)*%
X137070000Y-44180000D03*
%TO.P,J2,6,Pin_6*%
%TO.N,Net-(J2-Pin_6)*%
X136570000Y-44180000D03*
%TO.P,J2,7,Pin_7*%
%TO.N,Net-(J2-Pin_7)*%
X136070000Y-44180000D03*
%TO.P,J2,8,Pin_8*%
%TO.N,Net-(J2-Pin_8)*%
X135570000Y-44180000D03*
D53*
%TO.P,J2,9,NC*%
%TO.N,unconnected-(J2-NC-Pad9)*%
X133870000Y-41500000D03*
%TO.P,J2,10,NC*%
%TO.N,unconnected-(J2-NC-Pad10)*%
X140770000Y-41500000D03*
%TD*%
D54*
%TO.P,J4,A1,GND*%
%TO.N,GND*%
X119150000Y-45640000D03*
%TO.P,J4,A4,VBUS*%
%TO.N,unconnected-(J4-VBUS-PadA4)*%
X119950000Y-45640000D03*
D55*
%TO.P,J4,A5,CC1*%
%TO.N,Net-(J4-CC1)*%
X121100000Y-45640000D03*
%TO.P,J4,A6,D+*%
%TO.N,/ESP32/USB_D+*%
X122100000Y-45640000D03*
%TO.P,J4,A7,D-*%
%TO.N,/ESP32/USB_D-*%
X122600000Y-45640000D03*
%TO.P,J4,A8,SBU1*%
%TO.N,unconnected-(J4-SBU1-PadA8)*%
X123600000Y-45640000D03*
D54*
%TO.P,J4,B1,GND*%
%TO.N,GND*%
X125550000Y-45640000D03*
%TO.P,J4,B4,VBUS*%
%TO.N,unconnected-(J4-VBUS-PadB4)*%
X124750000Y-45640000D03*
D55*
%TO.P,J4,B5,CC2*%
%TO.N,Net-(J4-CC2)*%
X124100000Y-45640000D03*
%TO.P,J4,B6,D+*%
%TO.N,/ESP32/USB_D+*%
X123100000Y-45640000D03*
%TO.P,J4,B7,D-*%
%TO.N,/ESP32/USB_D-*%
X121600000Y-45640000D03*
%TO.P,J4,B8,SBU2*%
%TO.N,unconnected-(J4-SBU2-PadB8)*%
X120600000Y-45640000D03*
D56*
%TO.P,J4,S1,SHIELD*%
%TO.N,GND*%
X118030000Y-40885000D03*
D57*
X118030000Y-45065000D03*
D56*
X126670000Y-40885000D03*
D57*
X126670000Y-45065000D03*
%TD*%
D31*
%TO.P,U1,1,PGD*%
%TO.N,/Power/PGOOD*%
X147850000Y-84500000D03*
%TO.P,U1,2,PMB_DATA*%
%TO.N,/Power/SDA_VR*%
X147850000Y-85000000D03*
%TO.P,U1,3,PMB_CLK*%
%TO.N,/Power/SCL_VR*%
X147850000Y-85500000D03*
%TO.P,U1,4,BP1V5*%
%TO.N,/Power/BP1v5_1*%
X147850000Y-86000000D03*
%TO.P,U1,5,DRTN*%
%TO.N,Net-(U1-DRTN)*%
X147850000Y-86500000D03*
%TO.P,U1,6,SMB_ALRT*%
%TO.N,/Power/ALRT_VR*%
X147850000Y-87000000D03*
%TO.P,U1,7,BOOT*%
%TO.N,Net-(U1-BOOT)*%
X147850000Y-87500000D03*
%TO.P,U1,8,SW*%
%TO.N,/Power/SW1*%
X147850000Y-88000000D03*
%TO.P,U1,9,SW*%
X147850000Y-88500000D03*
%TO.P,U1,10,SW*%
X147850000Y-89000000D03*
%TO.P,U1,11,SW*%
X147850000Y-89500000D03*
%TO.P,U1,12,SW*%
X147850000Y-90000000D03*
D32*
%TO.P,U1,13,PGND*%
%TO.N,GND*%
X147100000Y-90750000D03*
%TO.P,U1,14,PGND*%
X146600000Y-90750000D03*
%TO.P,U1,15,PGND*%
X146100000Y-90750000D03*
%TO.P,U1,16,PGND*%
X145600000Y-90750000D03*
%TO.P,U1,17,PGND*%
X145100000Y-90750000D03*
%TO.P,U1,18,PGND*%
X144600000Y-90750000D03*
%TO.P,U1,19,PGND*%
X144100000Y-90750000D03*
%TO.P,U1,20,PGND*%
X143600000Y-90750000D03*
D31*
%TO.P,U1,21,PVIN*%
%TO.N,/12V*%
X142850000Y-90000000D03*
%TO.P,U1,22,PVIN*%
X142850000Y-89500000D03*
%TO.P,U1,23,PVIN*%
X142850000Y-89000000D03*
%TO.P,U1,24,PVIN*%
X142850000Y-88500000D03*
%TO.P,U1,25,PVIN*%
X142850000Y-88000000D03*
%TO.P,U1,26,AVIN*%
%TO.N,Net-(U1-AVIN)*%
X142850000Y-87500000D03*
%TO.P,U1,27,EN/UVLO*%
%TO.N,/Power/EN_UVLO*%
X142850000Y-87000000D03*
%TO.P,U1,28,VDD5*%
%TO.N,/Power/V5reg_1*%
X142850000Y-86500000D03*
%TO.P,U1,29,MSEL2*%
%TO.N,Net-(U1-MSEL2)*%
X142850000Y-86000000D03*
%TO.P,U1,30,VSEL*%
%TO.N,Net-(U1-VSEL)*%
X142850000Y-85500000D03*
%TO.P,U1,31,ADRSEL*%
%TO.N,Net-(U1-ADRSEL)*%
X142850000Y-85000000D03*
%TO.P,U1,32,MSEL1*%
%TO.N,Net-(U1-MSEL1)*%
X142850000Y-84500000D03*
D32*
%TO.P,U1,33,VOSNS*%
%TO.N,Net-(U1-VOSNS)*%
X143600000Y-83750000D03*
%TO.P,U1,34,GOSNS*%
%TO.N,Net-(U1-GOSNS)*%
X144100000Y-83750000D03*
%TO.P,U1,35,VSHARE*%
%TO.N,/Power/VSHARE*%
X144600000Y-83750000D03*
%TO.P,U1,36,NC*%
%TO.N,GND*%
X145100000Y-83750000D03*
%TO.P,U1,37,AGND*%
%TO.N,/Power/AGND1*%
X145600000Y-83750000D03*
%TO.P,U1,38,SYNC*%
%TO.N,/Power/SYNC*%
X146100000Y-83750000D03*
%TO.P,U1,39,BCX_CLK*%
%TO.N,/Power/BCX_CLK*%
X146600000Y-83750000D03*
%TO.P,U1,40,BCX_DAT*%
%TO.N,/Power/BCX_DAT*%
X147100000Y-83750000D03*
D33*
%TO.P,U1,41,PAD*%
%TO.N,GND*%
X146630000Y-88650000D03*
X146630000Y-87250000D03*
X146630000Y-85850000D03*
X145350000Y-89650000D03*
X145350000Y-88650000D03*
X145350000Y-87250000D03*
D34*
X145350000Y-87250000D03*
D33*
X145350000Y-85850000D03*
X145350000Y-84850000D03*
X144070000Y-88650000D03*
X144070000Y-87250000D03*
X144070000Y-85850000D03*
%TD*%
D13*
%TO.P,TP8,1,1*%
%TO.N,Net-(U10-CO)*%
X159000000Y-113850000D03*
%TD*%
D22*
%TO.P,R40,1*%
%TO.N,/3V3*%
X157410000Y-48800000D03*
%TO.P,R40,2*%
%TO.N,/Power/SDA_VR*%
X156390000Y-48800000D03*
%TD*%
%TO.P,R4,1*%
%TO.N,/Power/EN_UVLO*%
X137790000Y-83690000D03*
%TO.P,R4,2*%
%TO.N,/12V*%
X136770000Y-83690000D03*
%TD*%
D20*
%TO.P,C67,1*%
%TO.N,Net-(U9-VDD3_0)*%
X109150000Y-107330000D03*
%TO.P,C67,2*%
%TO.N,/Vcore*%
X109150000Y-106370000D03*
%TD*%
D21*
%TO.P,C46,1*%
%TO.N,GND*%
X138010000Y-65460000D03*
%TO.P,C46,2*%
%TO.N,/12V*%
X138970000Y-65460000D03*
%TD*%
D18*
%TO.P,R32,1*%
%TO.N,Net-(U13-DN1)*%
X132950000Y-128900000D03*
%TO.P,R32,2*%
%TO.N,/ASIC/TEMP2_N*%
X132950000Y-127880000D03*
%TD*%
%TO.P,R34,1*%
%TO.N,Net-(U13-DP2)*%
X131700000Y-128910000D03*
%TO.P,R34,2*%
%TO.N,/ASIC/TEMP1_P*%
X131700000Y-127890000D03*
%TD*%
D23*
%TO.P,C90,1*%
%TO.N,GND*%
X125262500Y-114820000D03*
%TO.P,C90,2*%
%TO.N,/5V*%
X125262500Y-115780000D03*
%TD*%
D58*
%TO.P,R35,1*%
%TO.N,GND*%
X129500000Y-128840000D03*
%TO.P,R35,2*%
%TO.N,Net-(U13-TRIP_SET)*%
X129500000Y-129860000D03*
%TD*%
D19*
%TO.P,TP32,1,1*%
%TO.N,/ESP32/P_TX*%
X109020000Y-69700000D03*
%TD*%
D18*
%TO.P,R33,1*%
%TO.N,Net-(U13-SHDN_SEL)*%
X128450000Y-129860000D03*
%TO.P,R33,2*%
%TO.N,/3V3*%
X128450000Y-128840000D03*
%TD*%
D22*
%TO.P,R30,1*%
%TO.N,/fan/FAN_PWM*%
X132110000Y-139300000D03*
%TO.P,R30,2*%
%TO.N,/5V*%
X131090000Y-139300000D03*
%TD*%
D59*
%TO.P,R2,1*%
%TO.N,Net-(C8-Pad2)*%
X151930000Y-84122500D03*
%TO.P,R2,2*%
%TO.N,GND*%
X151930000Y-82297500D03*
%TD*%
D19*
%TO.P,TP17,1,1*%
%TO.N,GND*%
X160900000Y-91700000D03*
%TD*%
D21*
%TO.P,C47,1*%
%TO.N,GND*%
X137600000Y-58200000D03*
%TO.P,C47,2*%
%TO.N,/5V*%
X138560000Y-58200000D03*
%TD*%
D18*
%TO.P,R1,1*%
%TO.N,/Vcore*%
X143260000Y-81320000D03*
%TO.P,R1,2*%
%TO.N,Net-(U1-VOSNS)*%
X143260000Y-80300000D03*
%TD*%
D20*
%TO.P,C64,1*%
%TO.N,GND*%
X108125000Y-110155000D03*
%TO.P,C64,2*%
%TO.N,Net-(U9-VDD1_0)*%
X108125000Y-109195000D03*
%TD*%
D40*
%TO.P,C15,1*%
%TO.N,/Power/AGND1*%
X141450000Y-80820000D03*
%TO.P,C15,2*%
%TO.N,Net-(U1-AVIN)*%
X140490000Y-80820000D03*
%TD*%
D13*
%TO.P,TP9,1,1*%
%TO.N,Net-(U10-NRSTO)*%
X159000000Y-111800000D03*
%TD*%
D23*
%TO.P,C70,1*%
%TO.N,Net-(U10-VDD2_0)*%
X118775000Y-108395000D03*
%TO.P,C70,2*%
%TO.N,Net-(U10-VDD1_0)*%
X118775000Y-109355000D03*
%TD*%
%TO.P,C78,1*%
%TO.N,Net-(U10-VDD2_1)*%
X155050000Y-108170000D03*
%TO.P,C78,2*%
%TO.N,Net-(U10-VDD1_1)*%
X155050000Y-109130000D03*
%TD*%
D45*
%TO.P,NT2,1,1*%
%TO.N,GND*%
X121250000Y-84850000D03*
%TO.P,NT2,2,2*%
%TO.N,/Power/AGND2*%
X121250000Y-83850000D03*
%TD*%
D30*
%TO.P,U12,1,VIN*%
%TO.N,/5V*%
X126875000Y-115762500D03*
%TO.P,U12,2,GND*%
%TO.N,GND*%
X126875000Y-114812500D03*
%TO.P,U12,3,EN*%
%TO.N,/5V*%
X126875000Y-113862500D03*
%TO.P,U12,4,PG*%
%TO.N,unconnected-(U12-PG-Pad4)*%
X129150000Y-113862500D03*
%TO.P,U12,5,VOUT*%
%TO.N,/ASIC/0V8*%
X129150000Y-115762500D03*
%TD*%
D13*
%TO.P,TP13,1,1*%
%TO.N,Net-(U10-LITE_PAD)*%
X139700000Y-115950000D03*
%TD*%
D40*
%TO.P,C19,1*%
%TO.N,/Power/BP1v5_1*%
X152430000Y-80860000D03*
%TO.P,C19,2*%
%TO.N,Net-(U1-DRTN)*%
X151470000Y-80860000D03*
%TD*%
D58*
%TO.P,R5,1*%
%TO.N,GND*%
X139380000Y-81090000D03*
%TO.P,R5,2*%
%TO.N,/Power/EN_UVLO*%
X139380000Y-82110000D03*
%TD*%
D19*
%TO.P,TP34,1,1*%
%TO.N,/3V3*%
X130130000Y-52060000D03*
%TD*%
%TO.P,TP19,1,1*%
%TO.N,/ASIC/0V8*%
X133262500Y-117600000D03*
%TD*%
D23*
%TO.P,C76,1*%
%TO.N,/Vcore*%
X153010000Y-106310000D03*
%TO.P,C76,2*%
%TO.N,Net-(U10-VDD3_1)*%
X153010000Y-107270000D03*
%TD*%
D20*
%TO.P,C74,1*%
%TO.N,Net-(U10-VDD2_0)*%
X143925000Y-108280000D03*
%TO.P,C74,2*%
%TO.N,Net-(U10-VDD3_0)*%
X143925000Y-107320000D03*
%TD*%
D28*
%TO.P,C62,1*%
%TO.N,/Vcore*%
X145800000Y-109575000D03*
%TO.P,C62,2*%
%TO.N,GND*%
X145800000Y-111125000D03*
%TD*%
D60*
%TO.P,C39,1*%
%TO.N,/12V*%
X140955000Y-51656821D03*
%TO.P,C39,2*%
%TO.N,GND*%
X140955000Y-50106821D03*
%TD*%
D28*
%TO.P,C56,1*%
%TO.N,/Vcore*%
X111400000Y-109575000D03*
%TO.P,C56,2*%
%TO.N,GND*%
X111400000Y-111125000D03*
%TD*%
D59*
%TO.P,R15,1*%
%TO.N,Net-(C29-Pad2)*%
X127695000Y-84652500D03*
%TO.P,R15,2*%
%TO.N,GND*%
X127695000Y-82827500D03*
%TD*%
D13*
%TO.P,TP7,1,1*%
%TO.N,Net-(U10-RI)*%
X159000000Y-115900000D03*
%TD*%
D23*
%TO.P,C48,1*%
%TO.N,/ESP32/EN*%
X106700000Y-76150000D03*
%TO.P,C48,2*%
%TO.N,GND*%
X106700000Y-77110000D03*
%TD*%
D39*
%TO.P,R31,1*%
%TO.N,/fan/FAN_TACH*%
X133240000Y-137700000D03*
%TO.P,R31,2*%
%TO.N,/3V3*%
X134260000Y-137700000D03*
%TD*%
D18*
%TO.P,R14,1*%
%TO.N,GND*%
X130090000Y-46280000D03*
%TO.P,R14,2*%
%TO.N,Net-(J4-CC1)*%
X130090000Y-45260000D03*
%TD*%
D61*
%TO.P,C1,1*%
%TO.N,/12V*%
X136325000Y-87962500D03*
%TO.P,C1,2*%
%TO.N,GND*%
X136325000Y-94187500D03*
%TD*%
D23*
%TO.P,C79,1*%
%TO.N,Net-(U10-VDD1_1)*%
X154050000Y-109195000D03*
%TO.P,C79,2*%
%TO.N,GND*%
X154050000Y-110155000D03*
%TD*%
D19*
%TO.P,TP29,1,1*%
%TO.N,/ESP32/EN*%
X103390000Y-68860000D03*
%TD*%
D28*
%TO.P,C61,1*%
%TO.N,/Vcore*%
X147400000Y-109575000D03*
%TO.P,C61,2*%
%TO.N,GND*%
X147400000Y-111125000D03*
%TD*%
D39*
%TO.P,R10,1*%
%TO.N,Net-(U1-VSEL)*%
X154940000Y-77700000D03*
%TO.P,R10,2*%
%TO.N,/Power/BP1v5_1*%
X155960000Y-77700000D03*
%TD*%
%TO.P,R7,1*%
%TO.N,Net-(U1-MSEL1)*%
X154940000Y-79150000D03*
%TO.P,R7,2*%
%TO.N,/Power/BP1v5_1*%
X155960000Y-79150000D03*
%TD*%
D19*
%TO.P,TP27,1,1*%
%TO.N,/5V*%
X127060000Y-54480000D03*
%TD*%
D62*
%TO.P,U6,1,GND*%
%TO.N,GND*%
X106010000Y-48000000D03*
%TO.P,U6,2,3V3*%
%TO.N,/3V3*%
X107280000Y-48000000D03*
%TO.P,U6,3,EN*%
%TO.N,/ESP32/EN*%
X108550000Y-48000000D03*
%TO.P,U6,4,GPIO4/TOUCH4/ADC1_CH3*%
%TO.N,unconnected-(U6-GPIO4{slash}TOUCH4{slash}ADC1_CH3-Pad4)*%
X109820000Y-48000000D03*
%TO.P,U6,5,GPIO5/TOUCH5/ADC1_CH4*%
%TO.N,unconnected-(U6-GPIO5{slash}TOUCH5{slash}ADC1_CH4-Pad5)*%
X111090000Y-48000000D03*
%TO.P,U6,6,GPIO6/TOUCH6/ADC1_CH5*%
%TO.N,unconnected-(U6-GPIO6{slash}TOUCH6{slash}ADC1_CH5-Pad6)*%
X112360000Y-48000000D03*
%TO.P,U6,7,GPIO7/TOUCH7/ADC1_CH6*%
%TO.N,unconnected-(U6-GPIO7{slash}TOUCH7{slash}ADC1_CH6-Pad7)*%
X113630000Y-48000000D03*
%TO.P,U6,8,GPIO15/U0RTS/ADC2_CH4/XTAL_32K_P*%
%TO.N,unconnected-(U6-GPIO15{slash}U0RTS{slash}ADC2_CH4{slash}XTAL_32K_P-Pad8)*%
X114900000Y-48000000D03*
%TO.P,U6,9,GPIO16/U0CTS/ADC2_CH5/XTAL_32K_NH5*%
%TO.N,unconnected-(U6-GPIO16{slash}U0CTS{slash}ADC2_CH5{slash}XTAL_32K_NH5-Pad9)*%
X116170000Y-48000000D03*
%TO.P,U6,10,GPIO17/U1TXD/ADC2_CH6*%
%TO.N,/ASIC/TX_3V3*%
X117440000Y-48000000D03*
%TO.P,U6,11,GPIO18/U1RXD/ADC2_CH7/CLK_OUT3*%
%TO.N,/ASIC/RX_3V3*%
X118710000Y-48000000D03*
%TO.P,U6,12,GPIO8/TOUCH8/ADC1_CH7/SUBSPICS1*%
%TO.N,unconnected-(U6-GPIO8{slash}TOUCH8{slash}ADC1_CH7{slash}SUBSPICS1-Pad12)*%
X119980000Y-48000000D03*
%TO.P,U6,13,GPIO19/U1RTS/ADC2_CH8/CLK_OUT2/USB_D-*%
%TO.N,/ESP32/USB_D-*%
X121250000Y-48000000D03*
%TO.P,U6,14,GPIO20/U1CTS/ADC2_CH9/CLK_OUT1/USB_D+*%
%TO.N,/ESP32/USB_D+*%
X122520000Y-48000000D03*
D63*
%TO.P,U6,15,GPIO3/TOUCH3/ADC1_CH2\u002A*%
%TO.N,unconnected-(U6-GPIO3{slash}TOUCH3{slash}ADC1_CH2\u002A-Pad15)*%
X123770000Y-49765000D03*
%TO.P,U6,16,\u002AGPIO46*%
%TO.N,unconnected-(U6-\u002AGPIO46-Pad16)*%
X123770000Y-51035000D03*
%TO.P,U6,17,GPIO9/TOUCH9/ADC1_CH8/FSPIHD/SUBSPIHD*%
%TO.N,unconnected-(U6-GPIO9{slash}TOUCH9{slash}ADC1_CH8{slash}FSPIHD{slash}SUBSPIHD-Pad17)*%
X123770000Y-52305000D03*
%TO.P,U6,18,GPIO10/TOUCH10/ADC1_CH9/FSPICS0/FSPIIO4/SUBSPICS0*%
%TO.N,/ESP32/PWR_EN*%
X123770000Y-53575000D03*
%TO.P,U6,19,GPIO11/TOUCH11/ADC2_CH0/FSPID/FSPIIO5/SUBSPID*%
%TO.N,/Power/PGOOD*%
X123770000Y-54845000D03*
%TO.P,U6,20,GPIO12/TOUCH12/ADC2_CH1/FSPICLK/FSPIIO6/SUBSPICLK*%
%TO.N,unconnected-(U6-GPIO12{slash}TOUCH12{slash}ADC2_CH1{slash}FSPICLK{slash}FSPIIO6{slash}SUBSPICLK-Pad20)*%
X123770000Y-56115000D03*
%TO.P,U6,21,GPIO13/TOUCH13/ADC2_CH2/FSPIQ/FSPIIO7/SUBSPIQ*%
%TO.N,/ESP32/SMB_ALRT*%
X123770000Y-57385000D03*
%TO.P,U6,22,GPIO14/TOUCH14/ADC2_CH3/FSPIWP/FSPIDQS/SUBSPIWP*%
%TO.N,unconnected-(U6-GPIO14{slash}TOUCH14{slash}ADC2_CH3{slash}FSPIWP{slash}FSPIDQS{slash}SUBSPIWP-Pad22)*%
X123770000Y-58655000D03*
%TO.P,U6,23,GPIO21*%
%TO.N,unconnected-(U6-GPIO21-Pad23)*%
X123770000Y-59925000D03*
%TO.P,U6,24,GPIO47/SPICLK_P/SUBSPICLK_P_DIFF*%
%TO.N,/ESP32/SDA*%
X123770000Y-61195000D03*
%TO.P,U6,25,GPIO48/SPICLK_N/SUBSPICLK_N_DIFF*%
%TO.N,/ESP32/SCL*%
X123770000Y-62465000D03*
%TO.P,U6,26,\u002AGPIO45*%
%TO.N,unconnected-(U6-\u002AGPIO45-Pad26)*%
X123770000Y-63735000D03*
D62*
%TO.P,U6,27,GPIO0/BOOT\u002A*%
%TO.N,/ESP32/IO0*%
X122520000Y-65500000D03*
%TO.P,U6,28,SPIIO6/GPIO35/FSPID/SUBSPID*%
%TO.N,unconnected-(U6-SPIIO6{slash}GPIO35{slash}FSPID{slash}SUBSPID-Pad28)*%
X121250000Y-65500000D03*
%TO.P,U6,29,SPIIO7/GPIO36/FSPICLK/SUBSPICLK*%
%TO.N,unconnected-(U6-SPIIO7{slash}GPIO36{slash}FSPICLK{slash}SUBSPICLK-Pad29)*%
X119980000Y-65500000D03*
%TO.P,U6,30,SPIDQS/GPIO37/FSPIQ/SUBSPIQ*%
%TO.N,unconnected-(U6-SPIDQS{slash}GPIO37{slash}FSPIQ{slash}SUBSPIQ-Pad30)*%
X118710000Y-65500000D03*
%TO.P,U6,31,GPIO38/FSPIWP/SUBSPIWP*%
%TO.N,unconnected-(U6-GPIO38{slash}FSPIWP{slash}SUBSPIWP-Pad31)*%
X117440000Y-65500000D03*
%TO.P,U6,32,MTCK/GPIO39/CLK_OUT3/SUBSPICS1*%
%TO.N,Net-(J2-Pin_5)*%
X116170000Y-65500000D03*
%TO.P,U6,33,MTDO/GPIO40/CLK_OUT2*%
%TO.N,Net-(J2-Pin_6)*%
X114900000Y-65500000D03*
%TO.P,U6,34,MTDI/GPIO41/CLK_OUT1*%
%TO.N,Net-(J2-Pin_7)*%
X113630000Y-65500000D03*
%TO.P,U6,35,MTMS/GPIO42*%
%TO.N,Net-(J2-Pin_8)*%
X112360000Y-65500000D03*
%TO.P,U6,36,U0RXD/GPIO44/CLK_OUT2*%
%TO.N,/ESP32/P_RX*%
X111090000Y-65500000D03*
%TO.P,U6,37,U0TXD/GPIO43/CLK_OUT1*%
%TO.N,/ESP32/P_TX*%
X109820000Y-65500000D03*
%TO.P,U6,38,GPIO2/TOUCH2/ADC1_CH1*%
%TO.N,/Vcore*%
X108550000Y-65500000D03*
%TO.P,U6,39,GPIO1/TOUCH1/ADC1_CH0*%
%TO.N,/ASIC/RST_3V3*%
X107280000Y-65500000D03*
%TO.P,U6,40,GND*%
%TO.N,GND*%
X106010000Y-65500000D03*
D64*
%TO.P,U6,41,GND*%
X115130000Y-53850000D03*
X113730000Y-53850000D03*
X112330000Y-53850000D03*
X115130000Y-55250000D03*
X113730000Y-55250000D03*
X112330000Y-55250000D03*
X115130000Y-56650000D03*
X113730000Y-56650000D03*
X112330000Y-56650000D03*
%TD*%
D28*
%TO.P,C3,1*%
%TO.N,/12V*%
X140200000Y-90600000D03*
%TO.P,C3,2*%
%TO.N,GND*%
X140200000Y-92150000D03*
%TD*%
D23*
%TO.P,C28,1*%
%TO.N,Net-(U4-BOOT)*%
X126000000Y-86870000D03*
%TO.P,C28,2*%
%TO.N,/Power/SW2*%
X126000000Y-87830000D03*
%TD*%
D40*
%TO.P,C91,1*%
%TO.N,GND*%
X132230000Y-115750000D03*
%TO.P,C91,2*%
%TO.N,/ASIC/0V8*%
X131270000Y-115750000D03*
%TD*%
D26*
%TO.P,C31,1*%
%TO.N,GND*%
X119450000Y-98000000D03*
%TO.P,C31,2*%
%TO.N,/Vcore*%
X119450000Y-100950000D03*
%TD*%
D22*
%TO.P,R11,1*%
%TO.N,Net-(U1-MSEL1)*%
X153375000Y-79150000D03*
%TO.P,R11,2*%
%TO.N,/Power/AGND1*%
X152355000Y-79150000D03*
%TD*%
D28*
%TO.P,C41,1*%
%TO.N,/12V*%
X137710000Y-143570000D03*
%TO.P,C41,2*%
%TO.N,GND*%
X137710000Y-145120000D03*
%TD*%
D60*
%TO.P,C44,1*%
%TO.N,/3V3*%
X133005000Y-53556821D03*
%TO.P,C44,2*%
%TO.N,GND*%
X133005000Y-52006821D03*
%TD*%
D40*
%TO.P,C45,1*%
%TO.N,/Power/AGND2*%
X121380000Y-82250000D03*
%TO.P,C45,2*%
%TO.N,/Power/VSHARE*%
X120420000Y-82250000D03*
%TD*%
D39*
%TO.P,R12,1*%
%TO.N,/Power/AGND1*%
X152340000Y-76300000D03*
%TO.P,R12,2*%
%TO.N,Net-(U1-MSEL2)*%
X153360000Y-76300000D03*
%TD*%
D21*
%TO.P,C18,1*%
%TO.N,Net-(U1-VOSNS)*%
X143260000Y-79160000D03*
%TO.P,C18,2*%
%TO.N,Net-(U1-GOSNS)*%
X144220000Y-79160000D03*
%TD*%
D19*
%TO.P,TP22,1,1*%
%TO.N,/Power/ALRT_VR*%
X154930000Y-69180000D03*
%TD*%
D26*
%TO.P,C9,1*%
%TO.N,GND*%
X146700000Y-97975000D03*
%TO.P,C9,2*%
%TO.N,/Vcore*%
X146700000Y-100925000D03*
%TD*%
D40*
%TO.P,C93,1*%
%TO.N,Net-(U13-DP1)*%
X133930000Y-129900000D03*
%TO.P,C93,2*%
%TO.N,Net-(U13-DN1)*%
X132970000Y-129900000D03*
%TD*%
D65*
%TO.P,U13,1,DN1*%
%TO.N,Net-(U13-DN1)*%
X131450000Y-132325000D03*
%TO.P,U13,2,DP1*%
%TO.N,Net-(U13-DP1)*%
X132100000Y-132325000D03*
%TO.P,U13,3,VDD*%
%TO.N,/3V3*%
X132750000Y-132325000D03*
%TO.P,U13,4,GPIO1*%
%TO.N,unconnected-(U13-GPIO1-Pad4)*%
X133400000Y-132325000D03*
D66*
%TO.P,U13,5,GPIO2*%
%TO.N,unconnected-(U13-GPIO2-Pad5)*%
X134375000Y-133300000D03*
%TO.P,U13,6,ALERT*%
%TO.N,unconnected-(U13-ALERT-Pad6)*%
X134375000Y-133950000D03*
%TO.P,U13,7,SYS_SHDN*%
%TO.N,unconnected-(U13-SYS_SHDN-Pad7)*%
X134375000Y-134600000D03*
%TO.P,U13,8,SMDATA*%
%TO.N,/ESP32/SDA*%
X134375000Y-135250000D03*
D65*
%TO.P,U13,9,SMCLK*%
%TO.N,/ESP32/SCL*%
X133400000Y-136225000D03*
%TO.P,U13,10,TACH*%
%TO.N,/fan/FAN_TACH*%
X132750000Y-136225000D03*
%TO.P,U13,11,FAN*%
%TO.N,/fan/FAN_PWM*%
X132100000Y-136225000D03*
%TO.P,U13,12,GND*%
%TO.N,GND*%
X131450000Y-136225000D03*
D66*
%TO.P,U13,13,SHDN_SEL*%
%TO.N,Net-(U13-SHDN_SEL)*%
X130475000Y-135250000D03*
%TO.P,U13,14,TRIP_SET*%
%TO.N,Net-(U13-TRIP_SET)*%
X130475000Y-134600000D03*
%TO.P,U13,15,DN2*%
%TO.N,Net-(U13-DN2)*%
X130475000Y-133950000D03*
%TO.P,U13,16,DP2*%
%TO.N,Net-(U13-DP2)*%
X130475000Y-133300000D03*
D67*
%TO.P,U13,17,PAD*%
%TO.N,GND*%
X132425000Y-134275000D03*
%TD*%
D20*
%TO.P,C72,1*%
%TO.N,GND*%
X143925000Y-110180000D03*
%TO.P,C72,2*%
%TO.N,Net-(U10-VDD1_0)*%
X143925000Y-109220000D03*
%TD*%
%TO.P,C86,1*%
%TO.N,GND*%
X154200000Y-117270000D03*
%TO.P,C86,2*%
%TO.N,/ASIC/1V2_2*%
X154200000Y-116310000D03*
%TD*%
D26*
%TO.P,C13,1*%
%TO.N,GND*%
X137500000Y-97975000D03*
%TO.P,C13,2*%
%TO.N,/Vcore*%
X137500000Y-100925000D03*
%TD*%
D58*
%TO.P,R6,1*%
%TO.N,/Power/PGOOD*%
X127430000Y-60530000D03*
%TO.P,R6,2*%
%TO.N,/3V3*%
X127430000Y-61550000D03*
%TD*%
D61*
%TO.P,C22,1*%
%TO.N,/12V*%
X112475000Y-88187500D03*
%TO.P,C22,2*%
%TO.N,GND*%
X112475000Y-94412500D03*
%TD*%
D19*
%TO.P,TP33,1,1*%
%TO.N,/ESP32/P_RX*%
X112400000Y-68490000D03*
%TD*%
D25*
%TO.P,H8,1,1*%
%TO.N,unconnected-(H8-Pad1)*%
X156000000Y-137000000D03*
%TD*%
D26*
%TO.P,C10,1*%
%TO.N,GND*%
X144400000Y-97975000D03*
%TO.P,C10,2*%
%TO.N,/Vcore*%
X144400000Y-100925000D03*
%TD*%
D21*
%TO.P,C94,1*%
%TO.N,/5V*%
X131120000Y-140500000D03*
%TO.P,C94,2*%
%TO.N,GND*%
X132080000Y-140500000D03*
%TD*%
D26*
%TO.P,C35,1*%
%TO.N,GND*%
X110237500Y-98000000D03*
%TO.P,C35,2*%
%TO.N,/Vcore*%
X110237500Y-100950000D03*
%TD*%
D20*
%TO.P,C73,1*%
%TO.N,Net-(U10-VDD1_0)*%
X142900000Y-109380000D03*
%TO.P,C73,2*%
%TO.N,Net-(U10-VDD2_0)*%
X142900000Y-108420000D03*
%TD*%
D23*
%TO.P,C36,1*%
%TO.N,/Power/AGND2*%
X116620000Y-82060000D03*
%TO.P,C36,2*%
%TO.N,Net-(U4-AVIN)*%
X116620000Y-83020000D03*
%TD*%
D39*
%TO.P,R28,1*%
%TO.N,GND*%
X139740000Y-114450000D03*
%TO.P,R28,2*%
%TO.N,Net-(U10-LITE_PAD)*%
X140760000Y-114450000D03*
%TD*%
%TO.P,R16,1*%
%TO.N,/12V*%
X114440000Y-83040000D03*
%TO.P,R16,2*%
%TO.N,Net-(U4-AVIN)*%
X115460000Y-83040000D03*
%TD*%
%TO.P,R38,1*%
%TO.N,/ESP32/SDA*%
X153390000Y-48800000D03*
%TO.P,R38,2*%
%TO.N,/Power/SDA_VR*%
X154410000Y-48800000D03*
%TD*%
%TO.P,R17,1*%
%TO.N,Net-(U3-EN)*%
X138320000Y-49581821D03*
%TO.P,R17,2*%
%TO.N,/12V*%
X139340000Y-49581821D03*
%TD*%
D13*
%TO.P,TP16,1,1*%
%TO.N,Net-(U10-INV_CLKO)*%
X139650000Y-118000000D03*
%TD*%
D39*
%TO.P,R3,1*%
%TO.N,/12V*%
X136770000Y-84890000D03*
%TO.P,R3,2*%
%TO.N,Net-(U1-AVIN)*%
X137790000Y-84890000D03*
%TD*%
D13*
%TO.P,TP5,1,1*%
%TO.N,Net-(U10-BO)*%
X158900000Y-120050000D03*
%TD*%
D23*
%TO.P,C16,1*%
%TO.N,GND*%
X138970000Y-83620000D03*
%TO.P,C16,2*%
%TO.N,/Power/V5reg_1*%
X138970000Y-84580000D03*
%TD*%
D25*
%TO.P,H7,1,1*%
%TO.N,unconnected-(H7-Pad1)*%
X106000000Y-137000000D03*
%TD*%
D13*
%TO.P,TP1,1,1*%
%TO.N,Net-(U1-ADRSEL)*%
X154490000Y-81690000D03*
%TD*%
D58*
%TO.P,R37,1*%
%TO.N,/ESP32/SMB_ALRT*%
X125990000Y-59210000D03*
%TO.P,R37,2*%
%TO.N,/Power/ALRT_VR*%
X125990000Y-60230000D03*
%TD*%
D39*
%TO.P,R24,1*%
%TO.N,GND*%
X103790000Y-112750000D03*
%TO.P,R24,2*%
%TO.N,/ASIC/BI*%
X104810000Y-112750000D03*
%TD*%
D50*
%TO.P,C8,1*%
%TO.N,/Power/SW1*%
X151625000Y-87875000D03*
%TO.P,C8,2*%
%TO.N,Net-(C8-Pad2)*%
X151625000Y-85975000D03*
%TD*%
D40*
%TO.P,C89,1*%
%TO.N,GND*%
X132280000Y-120900000D03*
%TO.P,C89,2*%
%TO.N,/ASIC/1V2*%
X131320000Y-120900000D03*
%TD*%
D23*
%TO.P,C69,1*%
%TO.N,Net-(U10-VDD3_0)*%
X117750000Y-107320000D03*
%TO.P,C69,2*%
%TO.N,Net-(U10-VDD2_0)*%
X117750000Y-108280000D03*
%TD*%
D39*
%TO.P,R27,1*%
%TO.N,GND*%
X134190000Y-113850000D03*
%TO.P,R27,2*%
%TO.N,Net-(U10-BI)*%
X135210000Y-113850000D03*
%TD*%
D23*
%TO.P,C42,1*%
%TO.N,/Power/BP1v5_2*%
X125700000Y-84020000D03*
%TO.P,C42,2*%
%TO.N,Net-(U4-DRTN)*%
X125700000Y-84980000D03*
%TD*%
D13*
%TO.P,TP4,1,1*%
%TO.N,/ASIC/CLKI*%
X104400000Y-105500000D03*
%TD*%
D23*
%TO.P,C77,1*%
%TO.N,Net-(U10-VDD3_1)*%
X154050000Y-107295000D03*
%TO.P,C77,2*%
%TO.N,Net-(U10-VDD2_1)*%
X154050000Y-108255000D03*
%TD*%
D40*
%TO.P,C95,1*%
%TO.N,Net-(U13-DP2)*%
X131680000Y-129900000D03*
%TO.P,C95,2*%
%TO.N,Net-(U13-DN2)*%
X130720000Y-129900000D03*
%TD*%
D20*
%TO.P,C51,1*%
%TO.N,/ASIC/1V2*%
X101700000Y-129170000D03*
%TO.P,C51,2*%
%TO.N,GND*%
X101700000Y-128210000D03*
%TD*%
D26*
%TO.P,C30,1*%
%TO.N,GND*%
X121750000Y-98000000D03*
%TO.P,C30,2*%
%TO.N,/Vcore*%
X121750000Y-100950000D03*
%TD*%
D20*
%TO.P,C82,1*%
%TO.N,GND*%
X119750000Y-117530000D03*
%TO.P,C82,2*%
%TO.N,/ASIC/0V8*%
X119750000Y-116570000D03*
%TD*%
D23*
%TO.P,C52,1*%
%TO.N,/3V3*%
X104000000Y-129210000D03*
%TO.P,C52,2*%
%TO.N,GND*%
X104000000Y-130170000D03*
%TD*%
D68*
%TO.P,U5,1,OUT*%
%TO.N,/5V*%
X138940000Y-60297500D03*
D69*
%TO.P,U5,2,GND*%
%TO.N,GND*%
X138852500Y-61797500D03*
D68*
%TO.P,U5,3,IN*%
%TO.N,/12V*%
X138940000Y-63297500D03*
%TD*%
D13*
%TO.P,TP3,1,1*%
%TO.N,/Power/SYNC*%
X161560000Y-85380000D03*
%TD*%
D46*
%TO.P,SW2,1*%
%TO.N,/ESP32/IO0*%
X160203000Y-73344500D03*
%TO.P,SW2,2*%
%TO.N,GND*%
X160203000Y-77535500D03*
D47*
%TO.P,SW2,3,NC*%
%TO.N,unconnected-(SW2-NC-Pad3)*%
X162095300Y-72061800D03*
%TO.P,SW2,4,NC*%
%TO.N,unconnected-(SW2-NC-Pad4)*%
X162095300Y-78818200D03*
%TD*%
D60*
%TO.P,C43,1*%
%TO.N,/3V3*%
X134555000Y-53556821D03*
%TO.P,C43,2*%
%TO.N,GND*%
X134555000Y-52006821D03*
%TD*%
D70*
%TO.N,/12V*%
X151960000Y-62620000D03*
X137340000Y-87050000D03*
X143785000Y-58990000D03*
X154827500Y-58970000D03*
X152715000Y-61700000D03*
X144841250Y-63540000D03*
X153771250Y-63520000D03*
X156940000Y-62590000D03*
X148791250Y-63530000D03*
X137340000Y-87650000D03*
X149847500Y-63530000D03*
X145897500Y-60810000D03*
X136700000Y-88250000D03*
X152715000Y-62610000D03*
X152715000Y-58970000D03*
X154827500Y-63520000D03*
X136700000Y-87650000D03*
X144841250Y-62630000D03*
X154827500Y-61700000D03*
X135470000Y-87650000D03*
X150903750Y-63530000D03*
X156940000Y-59860000D03*
X145897500Y-61720000D03*
X144841250Y-58990000D03*
X143785000Y-60810000D03*
X152715000Y-60790000D03*
X146953750Y-61720000D03*
X151960000Y-63530000D03*
X155883750Y-63520000D03*
X154827500Y-62610000D03*
X145897500Y-62630000D03*
X148010000Y-58970000D03*
X143785000Y-63540000D03*
X136700000Y-88850000D03*
X148791250Y-62620000D03*
X135470000Y-87050000D03*
X156940000Y-58950000D03*
X111590000Y-88460000D03*
X112200000Y-87850000D03*
X136100000Y-88850000D03*
X137340000Y-88850000D03*
X153771250Y-59880000D03*
X143785000Y-62630000D03*
X112200000Y-87250000D03*
X113400000Y-88460000D03*
X113400000Y-87860000D03*
X112800000Y-87850000D03*
X153771250Y-61700000D03*
X153771250Y-60790000D03*
X113400000Y-87260000D03*
X112200000Y-88450000D03*
X148010000Y-63520000D03*
X143785000Y-61720000D03*
X112800000Y-89050000D03*
X144841250Y-61720000D03*
X144841250Y-59900000D03*
X112800000Y-87250000D03*
X111590000Y-87260000D03*
X150903750Y-62620000D03*
X152715000Y-63520000D03*
D71*
X137710000Y-143570000D03*
D70*
X136700000Y-87050000D03*
X136100000Y-88250000D03*
X146953750Y-60810000D03*
X136100000Y-87050000D03*
X146953750Y-62630000D03*
X148010000Y-59880000D03*
X144841250Y-60810000D03*
X153771250Y-58970000D03*
X111590000Y-89060000D03*
X152715000Y-59880000D03*
X136100000Y-87650000D03*
X148010000Y-62610000D03*
X146953750Y-59900000D03*
X155883750Y-62610000D03*
X154827500Y-60790000D03*
X156940000Y-61680000D03*
X156940000Y-63500000D03*
X155883750Y-61700000D03*
X146953750Y-58990000D03*
X155883750Y-59880000D03*
X145897500Y-58990000D03*
X113400000Y-89060000D03*
X137340000Y-88250000D03*
X135470000Y-88850000D03*
X148010000Y-60790000D03*
X145897500Y-59900000D03*
X112800000Y-88450000D03*
X148010000Y-61700000D03*
X112200000Y-89050000D03*
X154827500Y-59880000D03*
X143785000Y-59900000D03*
X146953750Y-63540000D03*
X156940000Y-60770000D03*
X155883750Y-60790000D03*
X135470000Y-88250000D03*
X145897500Y-63540000D03*
X153771250Y-62610000D03*
X155883750Y-58970000D03*
X149847500Y-62620000D03*
X111590000Y-87860000D03*
%TO.N,/Power/AGND1*%
X151400000Y-78260000D03*
X145640000Y-81410000D03*
X141450000Y-80820000D03*
X146360000Y-80800000D03*
D71*
%TO.N,/Vcore*%
X140200000Y-101975000D03*
X137100000Y-101975000D03*
X129800000Y-107250000D03*
X129800000Y-106450000D03*
X119800000Y-102800000D03*
X122150000Y-102100000D03*
X146380000Y-101975000D03*
X129000000Y-101900000D03*
X149500000Y-107400000D03*
X153400000Y-103550000D03*
X153400000Y-101100000D03*
X154200000Y-106000000D03*
X137800000Y-101975000D03*
X150500000Y-107400000D03*
X155000000Y-100300000D03*
X111500000Y-107400000D03*
X154200000Y-102750000D03*
X115162500Y-102800000D03*
X116850000Y-102100000D03*
X153400000Y-101950000D03*
X116850000Y-102800000D03*
X146500000Y-107400000D03*
X113500000Y-109500000D03*
X127400000Y-107250000D03*
X155000000Y-101950000D03*
X142500000Y-101975000D03*
X146380000Y-102675000D03*
X127400000Y-101900000D03*
X128200000Y-105650000D03*
X113500000Y-108500000D03*
X128200000Y-101900000D03*
X146380000Y-101275000D03*
D70*
X133950000Y-101650000D03*
D71*
X112862500Y-101400000D03*
X115500000Y-107400000D03*
X119100000Y-102100000D03*
X129800000Y-103450000D03*
X154200000Y-100300000D03*
X119800000Y-101400000D03*
X155000000Y-105200000D03*
X147500000Y-109500000D03*
X154200000Y-101100000D03*
X152600000Y-103550000D03*
X129800000Y-108050000D03*
X152600000Y-102750000D03*
X129800000Y-104250000D03*
X109900000Y-101400000D03*
X108575000Y-67625000D03*
X114500000Y-109500000D03*
X148500000Y-107400000D03*
X121450000Y-102800000D03*
X127400000Y-106450000D03*
X144000000Y-101275000D03*
X137100000Y-102675000D03*
X155000000Y-106000000D03*
X146500000Y-108500000D03*
X153400000Y-102750000D03*
X152600000Y-101950000D03*
X114462500Y-102800000D03*
X135500000Y-102700000D03*
X110500000Y-108500000D03*
X129000000Y-107250000D03*
X114462500Y-101400000D03*
X140200000Y-101275000D03*
X112862500Y-102800000D03*
X151500000Y-107400000D03*
X135500000Y-101300000D03*
X150500000Y-108500000D03*
X135500000Y-102000000D03*
X152600000Y-104350000D03*
X134800000Y-102000000D03*
X119800000Y-102100000D03*
X113500000Y-107400000D03*
X114462500Y-102100000D03*
X112500000Y-109500000D03*
X114500000Y-108500000D03*
X109900000Y-102100000D03*
X128200000Y-106450000D03*
X119100000Y-102800000D03*
X154200000Y-105200000D03*
X119100000Y-101400000D03*
X154200000Y-103550000D03*
X115500000Y-108500000D03*
X148500000Y-109500000D03*
X110600000Y-101400000D03*
X152600000Y-105200000D03*
X153400000Y-106000000D03*
X110500000Y-107400000D03*
X149500000Y-108500000D03*
X147500000Y-108500000D03*
X142500000Y-102675000D03*
X117550000Y-102100000D03*
X129000000Y-104250000D03*
X141800000Y-101275000D03*
X128200000Y-102650000D03*
X115162500Y-102100000D03*
X141800000Y-102675000D03*
X139500000Y-101975000D03*
X112162500Y-102800000D03*
X148500000Y-108500000D03*
X155000000Y-103550000D03*
X128200000Y-103450000D03*
X116850000Y-101400000D03*
D70*
X143250000Y-81320000D03*
D71*
X142500000Y-101275000D03*
X115162500Y-101400000D03*
X129800000Y-101900000D03*
X112500000Y-107400000D03*
D70*
X160700000Y-102700000D03*
D71*
X134800000Y-102700000D03*
X137100000Y-101275000D03*
X112162500Y-101400000D03*
X152600000Y-101100000D03*
X117550000Y-101400000D03*
X111500000Y-108500000D03*
X129800000Y-105650000D03*
X112862500Y-102100000D03*
X114500000Y-107400000D03*
X139500000Y-102675000D03*
X154200000Y-101950000D03*
X144000000Y-102675000D03*
X110500000Y-109500000D03*
X147080000Y-102675000D03*
X121450000Y-102100000D03*
X117550000Y-102800000D03*
X129000000Y-105650000D03*
X128200000Y-108050000D03*
X127400000Y-103450000D03*
X129800000Y-102650000D03*
X147080000Y-101975000D03*
X153400000Y-104350000D03*
X151500000Y-109500000D03*
X127400000Y-105650000D03*
X121450000Y-101400000D03*
X112500000Y-108500000D03*
X134800000Y-101300000D03*
X155000000Y-102750000D03*
X147080000Y-101275000D03*
X137800000Y-101275000D03*
X140200000Y-102675000D03*
X141800000Y-101975000D03*
X153400000Y-100300000D03*
X152600000Y-106000000D03*
X137800000Y-102675000D03*
X144700000Y-101275000D03*
X153400000Y-105200000D03*
X110600000Y-102100000D03*
X144000000Y-101975000D03*
X129000000Y-103450000D03*
X122150000Y-101400000D03*
X109900000Y-102800000D03*
X129000000Y-106450000D03*
X151500000Y-108500000D03*
X144700000Y-101975000D03*
X152600000Y-100300000D03*
X110600000Y-102800000D03*
X115500000Y-109500000D03*
X147500000Y-107400000D03*
X144700000Y-102675000D03*
X154200000Y-104350000D03*
X128200000Y-107250000D03*
X139500000Y-101275000D03*
X155000000Y-104350000D03*
X129000000Y-102650000D03*
X146500000Y-109500000D03*
X129000000Y-108050000D03*
X127400000Y-104250000D03*
X111500000Y-109500000D03*
X150500000Y-109500000D03*
X127400000Y-102650000D03*
X122150000Y-102800000D03*
X112162500Y-102100000D03*
X149500000Y-109500000D03*
X127400000Y-108050000D03*
X155000000Y-101100000D03*
X128200000Y-104250000D03*
D70*
%TO.N,/Power/VSHARE*%
X120450000Y-81200000D03*
X144670000Y-81410000D03*
%TO.N,/Power/EN_UVLO*%
X115080000Y-85200000D03*
X137550000Y-82790000D03*
%TO.N,/5V*%
X106650000Y-120200000D03*
X138940000Y-59590000D03*
X138930000Y-58920000D03*
X106050000Y-120200000D03*
X138940000Y-60297500D03*
X127450000Y-139300000D03*
X125200000Y-122700000D03*
X129200000Y-57100000D03*
X138940000Y-58170000D03*
%TO.N,/ASIC/1V2*%
X103450000Y-100590000D03*
X127300000Y-122700000D03*
X130430000Y-116720000D03*
X107940000Y-123380000D03*
X117825000Y-115625000D03*
X143940000Y-116560000D03*
X103368909Y-126091091D03*
%TO.N,/ASIC/0V8*%
X142610000Y-116570000D03*
X130450000Y-115762500D03*
X119750000Y-115050000D03*
D72*
%TO.N,/3V3*%
X133680000Y-55481821D03*
X134580000Y-55481821D03*
X134580000Y-54631821D03*
D70*
X104010000Y-129210000D03*
X107780000Y-77110000D03*
D72*
X132730000Y-55031821D03*
D70*
X125990000Y-62790000D03*
D73*
X114700000Y-40800000D03*
D70*
X138380000Y-50381821D03*
D71*
X130300000Y-52025000D03*
D70*
X107425000Y-46150000D03*
D72*
X133680000Y-54631821D03*
D70*
X126700000Y-128850000D03*
%TO.N,/Power/PGOOD*%
X127430000Y-60530000D03*
X149090000Y-73910000D03*
D71*
%TO.N,/fan/FAN_TACH*%
X134250000Y-139000000D03*
D70*
%TO.N,/ASIC/TEMP1_P*%
X118328858Y-113867944D03*
D71*
X131700000Y-127890000D03*
D70*
%TO.N,/ASIC/TEMP1_N*%
X118000000Y-113250000D03*
D71*
X130650000Y-127890000D03*
%TO.N,/ASIC/TEMP2_P*%
X134000000Y-127800000D03*
D70*
X155355635Y-114550000D03*
D71*
%TO.N,/ASIC/TEMP2_N*%
X132950000Y-127880000D03*
D70*
X155820645Y-114026770D03*
D71*
%TO.N,/fan/FAN_PWM*%
X131430000Y-141810000D03*
D70*
%TO.N,/Power/BCX_DAT*%
X126810000Y-79660000D03*
X161580000Y-82450000D03*
X148550000Y-80250000D03*
%TO.N,/Power/BCX_CLK*%
X156800000Y-80700000D03*
X147780000Y-80249999D03*
X126180000Y-80560000D03*
%TO.N,/Power/SYNC*%
X125286195Y-80547010D03*
X147080102Y-80262067D03*
X161560000Y-85380000D03*
%TO.N,/ESP32/SDA*%
X109500000Y-131300000D03*
X111400000Y-71500000D03*
D71*
X124100000Y-61190000D03*
D70*
X135650000Y-135250000D03*
D71*
%TO.N,/ESP32/SCL*%
X123320000Y-62465000D03*
D70*
X112000000Y-70600000D03*
X109500000Y-132300000D03*
X135600000Y-136200000D03*
%TO.N,/ASIC/RX_1V2*%
X106000000Y-121200000D03*
%TO.N,/ASIC/CLKI*%
X106200000Y-112550000D03*
%TO.N,/ASIC/BI*%
X105420352Y-112700799D03*
%TO.N,/ASIC/RST_1V2*%
X104675382Y-121611508D03*
%TO.N,/ASIC/TX_1V2*%
X105309522Y-121315080D03*
%TO.N,/ASIC/RST_3V3*%
X109400000Y-73000000D03*
X104698999Y-126896596D03*
%TO.N,/ASIC/TX_3V3*%
X117700000Y-62100000D03*
X105260000Y-128150000D03*
%TO.N,Net-(U4-AVIN)*%
X115070000Y-86130000D03*
X115460000Y-83040000D03*
%TO.N,Net-(U9-VDD1_0)*%
X108025000Y-109275000D03*
%TO.N,Net-(U9-VDD2_0)*%
X108125000Y-108255000D03*
%TO.N,Net-(U9-VDD3_0)*%
X109480000Y-107340000D03*
%TO.N,Net-(U9-LITE_PAD)*%
X105550000Y-114050000D03*
%TO.N,Net-(U9-ROSC_SEL)*%
X104100000Y-114950000D03*
%TO.N,Net-(U9-INV_CLKO)*%
X106000000Y-114850000D03*
D71*
%TO.N,/Power/SW1*%
X154200000Y-93900000D03*
X153500000Y-91800000D03*
X154900000Y-93200000D03*
X152800000Y-91800000D03*
X152800000Y-92500000D03*
X154900000Y-92500000D03*
X154900000Y-94600000D03*
X154200000Y-95300000D03*
X152800000Y-93900000D03*
X153500000Y-95300000D03*
X154200000Y-92500000D03*
X150250000Y-91858000D03*
X154900000Y-95300000D03*
X150250000Y-90194000D03*
X152800000Y-96700000D03*
X154200000Y-93200000D03*
X153500000Y-94600000D03*
X153500000Y-93200000D03*
X151550000Y-89290000D03*
X153500000Y-92500000D03*
X153500000Y-96000000D03*
X154900000Y-96700000D03*
X150250000Y-89362000D03*
X150250000Y-91026000D03*
X153500000Y-93900000D03*
X154200000Y-94600000D03*
X150250000Y-92690000D03*
X154200000Y-96700000D03*
X152075000Y-88425000D03*
X154200000Y-91800000D03*
X152800000Y-95300000D03*
X151275000Y-88425000D03*
X153500000Y-96700000D03*
X154900000Y-96000000D03*
X154200000Y-96000000D03*
X154900000Y-93900000D03*
X152800000Y-93200000D03*
X150250000Y-88530000D03*
X152800000Y-96000000D03*
X152800000Y-94600000D03*
X154900000Y-91800000D03*
D70*
%TO.N,Net-(U1-AVIN)*%
X137790000Y-84890000D03*
X140490000Y-80820000D03*
D71*
%TO.N,/Power/SW2*%
X127400000Y-94600000D03*
X129000000Y-93200000D03*
X125700000Y-88400000D03*
X125970000Y-91475000D03*
X129000000Y-95400000D03*
X126400000Y-88400000D03*
X128200000Y-91700000D03*
X128200000Y-92500000D03*
X129000000Y-94600000D03*
X128200000Y-93200000D03*
X129750000Y-95400000D03*
X129000000Y-91700000D03*
X125970000Y-92300000D03*
X129000000Y-93900000D03*
X127400000Y-96200000D03*
X129750000Y-91700000D03*
X129750000Y-90900000D03*
X129750000Y-92500000D03*
X129000000Y-90900000D03*
X129750000Y-93200000D03*
X129750000Y-93900000D03*
X127350000Y-88975000D03*
X127400000Y-91700000D03*
X125970000Y-90650000D03*
X128200000Y-94600000D03*
X128100000Y-88975000D03*
X125970000Y-89825000D03*
X129750000Y-94600000D03*
X129000000Y-96200000D03*
X127400000Y-95400000D03*
X128200000Y-90900000D03*
X128200000Y-93900000D03*
X129000000Y-92500000D03*
X127400000Y-92500000D03*
X127400000Y-93200000D03*
X128200000Y-95400000D03*
X128200000Y-96200000D03*
X125970000Y-89000000D03*
X129750000Y-96200000D03*
X127400000Y-90900000D03*
X127400000Y-93900000D03*
D70*
%TO.N,Net-(U10-VDD3_0)*%
X145360000Y-107300000D03*
X116640000Y-107350000D03*
%TO.N,Net-(U10-VDD2_0)*%
X143925000Y-108280000D03*
X117750000Y-108280000D03*
%TO.N,Net-(U10-VDD1_0)*%
X117950000Y-109350000D03*
X143925000Y-109220000D03*
%TO.N,Net-(U10-VDD3_1)*%
X152730000Y-107290000D03*
%TO.N,Net-(U10-VDD2_1)*%
X154050000Y-108255000D03*
%TO.N,Net-(U10-VDD1_1)*%
X154050000Y-109195000D03*
%TO.N,/ASIC/0V8_1*%
X106050000Y-115800000D03*
%TO.N,/ASIC/1V2_1*%
X107550000Y-115900000D03*
%TO.N,/ASIC/1V2_2*%
X153797182Y-115702818D03*
%TO.N,/ASIC/0V8_2*%
X154800000Y-115550000D03*
%TO.N,Net-(U1-MSEL1)*%
X141615493Y-81579847D03*
X154150000Y-79150000D03*
%TO.N,Net-(U1-MSEL2)*%
X154150000Y-76300000D03*
X139740000Y-84420000D03*
%TO.N,Net-(U1-VSEL)*%
X139835358Y-82918723D03*
X154150000Y-77700000D03*
%TO.N,Net-(U10-LITE_PAD)*%
X141400000Y-114450000D03*
%TO.N,Net-(U1-ADRSEL)*%
X154500000Y-80490000D03*
X140488170Y-81580000D03*
%TO.N,Net-(U10-NRSTO)*%
X157800000Y-111800000D03*
%TO.N,Net-(U10-ROSC_SEL)*%
X141650000Y-113750000D03*
%TO.N,Net-(U10-INV_CLKO)*%
X141350000Y-115150000D03*
%TO.N,Net-(U10-BI)*%
X136200000Y-113350000D03*
%TO.N,Net-(U10-RI)*%
X157700000Y-115900000D03*
D71*
%TO.N,/Power/SCL_VR*%
X151870000Y-73150000D03*
D70*
X155400000Y-47600000D03*
D71*
X150240000Y-73200000D03*
X161460000Y-69180000D03*
D70*
%TO.N,/Power/ALRT_VR*%
X150301539Y-86057693D03*
D71*
X153260000Y-69190000D03*
X154930000Y-69190000D03*
D70*
X125990000Y-61770000D03*
D71*
%TO.N,/Power/SDA_VR*%
X158200000Y-69180000D03*
D70*
X155400000Y-48800000D03*
X149740000Y-74420000D03*
D71*
X151130000Y-72375000D03*
D70*
%TO.N,GND*%
X133200000Y-120900000D03*
D71*
X149500000Y-112250000D03*
X114500000Y-112250000D03*
X147500000Y-112250000D03*
D70*
X141375000Y-92625000D03*
X137800000Y-97575000D03*
X131990000Y-62860000D03*
X114562500Y-96400000D03*
X113430000Y-94110000D03*
X105875000Y-46150000D03*
X144100000Y-96975000D03*
D71*
X112550000Y-119000000D03*
D70*
X122050000Y-96400000D03*
D71*
X114500000Y-111250000D03*
D70*
X149557500Y-52070000D03*
X156950000Y-55710000D03*
D72*
X140130000Y-47381821D03*
D70*
X121450000Y-97600000D03*
X148501250Y-52980000D03*
D71*
X148600000Y-117050000D03*
D70*
X113430000Y-95310000D03*
X113430000Y-94710000D03*
X117650000Y-93000000D03*
D71*
X149600000Y-118050000D03*
D70*
X116850000Y-96400000D03*
D71*
X112500000Y-112250000D03*
D70*
X117740000Y-114450000D03*
X142400000Y-97575000D03*
X131990000Y-60860000D03*
D71*
X147600000Y-117050000D03*
D70*
X154837500Y-52090000D03*
X130990000Y-60860000D03*
X154700000Y-117900000D03*
D71*
X110500000Y-113250000D03*
D70*
X132990000Y-60860000D03*
X132990000Y-59860000D03*
D71*
X146500000Y-113250000D03*
X148500000Y-115250000D03*
D70*
X151670000Y-52980000D03*
X115525000Y-93025000D03*
X141800000Y-97575000D03*
D73*
X115140000Y-53850000D03*
D70*
X137200000Y-96375000D03*
D71*
X110500000Y-114250000D03*
X114500000Y-115250000D03*
D70*
X146980000Y-96975000D03*
X130990000Y-58860000D03*
D72*
X134555000Y-52006821D03*
D71*
X110550000Y-118000000D03*
D70*
X155893750Y-56640000D03*
D71*
X111550000Y-118000000D03*
D70*
X119200000Y-97600000D03*
D73*
X112330000Y-56650000D03*
D70*
X135980000Y-129890000D03*
X153781250Y-52090000D03*
X117450000Y-97000000D03*
X112862500Y-97000000D03*
X117650000Y-92450000D03*
D71*
X114550000Y-119000000D03*
X150500000Y-112250000D03*
D70*
X116850000Y-97000000D03*
X142400000Y-96375000D03*
X142400000Y-96975000D03*
D71*
X149500000Y-114250000D03*
D70*
X132990000Y-62860000D03*
D71*
X115500000Y-111250000D03*
D70*
X133990000Y-61860000D03*
X119200000Y-97000000D03*
X158880000Y-76740000D03*
X112800000Y-95300000D03*
D71*
X115500000Y-112250000D03*
D70*
X140100000Y-96975000D03*
X119800000Y-97600000D03*
D71*
X146600000Y-119050000D03*
D70*
X136000000Y-93900000D03*
X133990000Y-58860000D03*
X135500000Y-97000000D03*
X106700000Y-77110000D03*
D71*
X112500000Y-114250000D03*
D70*
X136000000Y-93300000D03*
X112200000Y-94100000D03*
D71*
X151500000Y-111250000D03*
D70*
X152725000Y-56640000D03*
X146380000Y-96975000D03*
X150613750Y-52070000D03*
D71*
X151600000Y-118050000D03*
D70*
X121450000Y-96400000D03*
X152725000Y-53000000D03*
X124450000Y-119950000D03*
X109900000Y-97000000D03*
X112200000Y-95300000D03*
D71*
X150600000Y-117050000D03*
D70*
X106790000Y-126920000D03*
X119800000Y-96400000D03*
X132990000Y-58860000D03*
X152725000Y-55730000D03*
X156950000Y-53890000D03*
X142920000Y-114950000D03*
X112800000Y-94100000D03*
X155893750Y-54820000D03*
X124450000Y-114300000D03*
X153781250Y-56640000D03*
X116850000Y-97600000D03*
X137200000Y-97575000D03*
X114562500Y-97000000D03*
X160900000Y-91700000D03*
X112800000Y-93500000D03*
X132990000Y-63860000D03*
D71*
X146500000Y-112250000D03*
D70*
X140475000Y-92675000D03*
D71*
X110500000Y-115250000D03*
D73*
X115140000Y-56650000D03*
D70*
X117450000Y-96400000D03*
X124450000Y-119300000D03*
X133990000Y-62860000D03*
X143870000Y-110080000D03*
X156950000Y-52070000D03*
X131990000Y-64860000D03*
X135500000Y-96400000D03*
D71*
X115500000Y-115250000D03*
D73*
X113740000Y-55250000D03*
D70*
X130990000Y-59860000D03*
X137620000Y-81120000D03*
X112200000Y-93500000D03*
X115162500Y-97000000D03*
D71*
X111500000Y-112250000D03*
D70*
X117050000Y-93000000D03*
X139740000Y-113760000D03*
D73*
X113740000Y-53850000D03*
D70*
X132080000Y-140500000D03*
X110500000Y-97600000D03*
D71*
X112500000Y-113250000D03*
D70*
X136000000Y-95100000D03*
X145660000Y-80360000D03*
D71*
X150600000Y-118050000D03*
D70*
X156950000Y-54800000D03*
D71*
X151600000Y-117050000D03*
D70*
X133990000Y-60860000D03*
D71*
X151600000Y-119050000D03*
D70*
X140100000Y-97575000D03*
X152725000Y-54820000D03*
D71*
X146500000Y-114250000D03*
X115500000Y-113250000D03*
D70*
X130990000Y-61860000D03*
X130990000Y-63860000D03*
X136000000Y-94500000D03*
D71*
X147500000Y-115250000D03*
D70*
X116125000Y-93025000D03*
D71*
X115550000Y-118000000D03*
D73*
X113400000Y-40800000D03*
D71*
X148500000Y-114250000D03*
D70*
X156950000Y-56620000D03*
D71*
X147600000Y-119050000D03*
D70*
X112862500Y-96400000D03*
D71*
X113550000Y-117000000D03*
X150500000Y-111250000D03*
X147500000Y-113250000D03*
D74*
X106000000Y-67400000D03*
D71*
X110550000Y-119000000D03*
D70*
X152725000Y-52090000D03*
X119800000Y-97000000D03*
D71*
X115500000Y-114250000D03*
X150500000Y-114250000D03*
X110500000Y-112250000D03*
D70*
X135500000Y-97600000D03*
X117050000Y-92450000D03*
X132990000Y-61860000D03*
X153803248Y-114396752D03*
D71*
X148500000Y-113250000D03*
D70*
X139500000Y-96975000D03*
D71*
X113500000Y-114250000D03*
D72*
X133040000Y-52030000D03*
X137430000Y-47381821D03*
D70*
X141975000Y-92625000D03*
X115650000Y-84310000D03*
X136600000Y-94500000D03*
X141975000Y-93175000D03*
D73*
X113740000Y-56650000D03*
D70*
X144100000Y-97575000D03*
D71*
X111500000Y-113250000D03*
D70*
X116125000Y-92475000D03*
D71*
X114500000Y-113250000D03*
D70*
X110500000Y-97000000D03*
X144700000Y-96975000D03*
X154837500Y-54820000D03*
D71*
X149500000Y-113250000D03*
X111500000Y-111250000D03*
D70*
X115525000Y-92475000D03*
D71*
X113550000Y-118000000D03*
D70*
X118810000Y-110100000D03*
X131990000Y-63860000D03*
X104350000Y-101750000D03*
D71*
X149500000Y-115250000D03*
D70*
X111570000Y-93500000D03*
X137800000Y-96375000D03*
X141800000Y-96975000D03*
X103790000Y-113400000D03*
X140100000Y-96375000D03*
X107850000Y-114750000D03*
X155893750Y-53000000D03*
X110500000Y-96400000D03*
X131990000Y-58860000D03*
X155893750Y-55730000D03*
D71*
X149600000Y-119050000D03*
D70*
X140475000Y-93225000D03*
X111570000Y-95300000D03*
X154837500Y-55730000D03*
X107079162Y-110220838D03*
D71*
X111550000Y-119000000D03*
D70*
X122050000Y-97600000D03*
D71*
X115550000Y-119000000D03*
X150500000Y-115250000D03*
D70*
X144700000Y-96375000D03*
X130990000Y-62860000D03*
D71*
X113500000Y-112250000D03*
D70*
X113430000Y-93510000D03*
D71*
X148600000Y-118050000D03*
D72*
X140955000Y-50106821D03*
D70*
X154837500Y-53910000D03*
D71*
X110500000Y-111250000D03*
D70*
X136600000Y-95100000D03*
D71*
X146600000Y-117050000D03*
D70*
X139875000Y-92675000D03*
X111570000Y-94700000D03*
X111570000Y-94100000D03*
X124450000Y-114950000D03*
X153781250Y-53000000D03*
X136600000Y-93300000D03*
D71*
X115550000Y-117000000D03*
D73*
X115140000Y-55250000D03*
D71*
X114500000Y-114250000D03*
D70*
X148501250Y-52070000D03*
D71*
X112500000Y-111250000D03*
X113500000Y-111250000D03*
D70*
X146980000Y-97575000D03*
X134900000Y-96400000D03*
D71*
X148500000Y-111250000D03*
X149600000Y-117050000D03*
D70*
X141375000Y-93175000D03*
X129500000Y-128840000D03*
D71*
X113550000Y-119000000D03*
X147500000Y-111250000D03*
D70*
X112800000Y-94700000D03*
X151670000Y-52070000D03*
X132210000Y-114870000D03*
D71*
X151500000Y-113250000D03*
D70*
X155893750Y-52090000D03*
D71*
X147500000Y-114250000D03*
X112550000Y-117000000D03*
D73*
X112330000Y-53850000D03*
D71*
X148500000Y-112250000D03*
X151500000Y-112250000D03*
D70*
X134900000Y-97000000D03*
X115162500Y-97600000D03*
X112262500Y-97000000D03*
D71*
X112550000Y-118000000D03*
D70*
X154837500Y-56640000D03*
D71*
X148600000Y-119050000D03*
D70*
X149557500Y-52980000D03*
X153781250Y-53910000D03*
X144700000Y-97575000D03*
X112262500Y-97600000D03*
X138970000Y-83620000D03*
X132990000Y-64860000D03*
X153781250Y-54820000D03*
X112200000Y-94700000D03*
X114562500Y-97600000D03*
X131990000Y-59860000D03*
X133990000Y-64860000D03*
X121450000Y-97000000D03*
X152725000Y-53910000D03*
X133990000Y-59860000D03*
X144100000Y-96375000D03*
X103450000Y-121650000D03*
X130990000Y-64860000D03*
X152900000Y-82780000D03*
X137710000Y-145120000D03*
X154837500Y-53000000D03*
X109900000Y-96400000D03*
D72*
X134630000Y-47356821D03*
D71*
X151500000Y-114250000D03*
D70*
X146380000Y-96375000D03*
X153781250Y-55730000D03*
X133250000Y-113850000D03*
X136600000Y-93900000D03*
D71*
X146500000Y-115250000D03*
D70*
X101690000Y-128210000D03*
X103990000Y-130170000D03*
X155893750Y-53910000D03*
D71*
X146500000Y-111250000D03*
D70*
X154200000Y-110050000D03*
D71*
X114550000Y-118000000D03*
X150500000Y-113250000D03*
D70*
X137800000Y-96975000D03*
D71*
X110550000Y-117000000D03*
X112500000Y-115250000D03*
X111550000Y-117000000D03*
X113500000Y-113250000D03*
D70*
X139875000Y-93225000D03*
X122050000Y-97000000D03*
X146980000Y-96375000D03*
X119200000Y-96400000D03*
X160920000Y-47440000D03*
D71*
X111500000Y-114250000D03*
D70*
X109900000Y-97600000D03*
X112262500Y-96400000D03*
X146380000Y-97575000D03*
D71*
X113500000Y-115250000D03*
D70*
X141800000Y-96375000D03*
X139500000Y-96375000D03*
D71*
X147600000Y-118050000D03*
D73*
X112330000Y-55250000D03*
D70*
X134900000Y-97600000D03*
X156950000Y-52980000D03*
D71*
X151500000Y-115250000D03*
X132425000Y-134275000D03*
X149500000Y-111250000D03*
D70*
X137200000Y-96975000D03*
D72*
X134805000Y-49631821D03*
D70*
X117450000Y-97600000D03*
X108000000Y-121500000D03*
X131990000Y-61860000D03*
X127220000Y-82540000D03*
D71*
X150600000Y-119050000D03*
X114550000Y-117000000D03*
D70*
X112862500Y-97600000D03*
D71*
X146600000Y-118050000D03*
D70*
X115162500Y-96400000D03*
X139500000Y-97575000D03*
X150613750Y-52980000D03*
X133990000Y-63860000D03*
D71*
X111500000Y-115250000D03*
D70*
%TO.N,/Power/BP1v5_2*%
X126327817Y-82850000D03*
X118300000Y-81200000D03*
%TO.N,Net-(U10-BO)*%
X157650000Y-120050000D03*
%TO.N,Net-(U10-CLKO)*%
X157750000Y-118000000D03*
%TO.N,Net-(U10-CO)*%
X157800000Y-113850000D03*
%TO.N,/ESP32/EN*%
X103734620Y-73384620D03*
D71*
X110700000Y-49984314D03*
D73*
X114670000Y-44200000D03*
D71*
%TO.N,/ESP32/P_TX*%
X109820000Y-65500000D03*
D73*
X113400000Y-44250000D03*
D70*
%TO.N,/ESP32/IO0*%
X151910000Y-74400000D03*
D73*
X112150000Y-40800000D03*
D70*
X111400000Y-61450000D03*
X123460000Y-67800000D03*
%TO.N,/ESP32/P_RX*%
X112600000Y-45800000D03*
X109950000Y-63200000D03*
%TO.N,/ASIC/RX_3V3*%
X118710000Y-62090000D03*
X105930000Y-127530000D03*
%TO.N,/Power/AGND2*%
X128200000Y-81580000D03*
X122200000Y-81650000D03*
X115500000Y-82060000D03*
X125990000Y-85840000D03*
%TO.N,Net-(J2-Pin_5)*%
X137120000Y-42580159D03*
X116150000Y-63100000D03*
%TO.N,Net-(J2-Pin_8)*%
X112360000Y-63060000D03*
X131764719Y-44144719D03*
%TO.N,Net-(J2-Pin_7)*%
X132550000Y-43610000D03*
X113650000Y-63050000D03*
%TO.N,Net-(J2-Pin_6)*%
X136560000Y-42080000D03*
X114900000Y-63050000D03*
%TD*%
D75*
%TO.N,Net-(U13-DP2)*%
X131680000Y-129900000D02*
X131680000Y-130520000D01*
X129701000Y-132499000D02*
X129701000Y-133131000D01*
X131680000Y-130520000D02*
X129701000Y-132499000D01*
X129701000Y-133131000D02*
X129870000Y-133300000D01*
X129870000Y-133300000D02*
X130475000Y-133300000D01*
%TO.N,Net-(U13-DN2)*%
X130720000Y-129900000D02*
X130720000Y-130430000D01*
X130720000Y-130430000D02*
X129300000Y-131850000D01*
X129300000Y-131850000D02*
X129300000Y-133610000D01*
X129640000Y-133950000D02*
X130475000Y-133950000D01*
X129300000Y-133610000D02*
X129640000Y-133950000D01*
%TO.N,Net-(U13-TRIP_SET)*%
X129500000Y-129860000D02*
X129500000Y-130450000D01*
X129500000Y-130450000D02*
X128880000Y-131070000D01*
X128880000Y-131070000D02*
X128880000Y-134150000D01*
X128880000Y-134150000D02*
X129330000Y-134600000D01*
X129330000Y-134600000D02*
X130475000Y-134600000D01*
%TO.N,Net-(U13-SHDN_SEL)*%
X128450000Y-129860000D02*
X128450000Y-134700000D01*
X128450000Y-134700000D02*
X129000000Y-135250000D01*
X129000000Y-135250000D02*
X130475000Y-135250000D01*
%TO.N,/3V3*%
X135020000Y-129890000D02*
X135020000Y-127620000D01*
X134500000Y-127100000D02*
X129000000Y-127100000D01*
X129000000Y-127100000D02*
X128450000Y-127650000D01*
X128450000Y-127650000D02*
X128450000Y-128840000D01*
X135020000Y-127620000D02*
X134500000Y-127100000D01*
%TO.N,/fan/FAN_TACH*%
X134250000Y-139000000D02*
X134430000Y-139000000D01*
X134430000Y-139000000D02*
X134950000Y-139520000D01*
X134950000Y-139520000D02*
X138040000Y-139520000D01*
%TO.N,/12V*%
X139340000Y-49581821D02*
X138992499Y-49929322D01*
X138992499Y-49929322D02*
X138992499Y-51869322D01*
%TO.N,/Power/AGND1*%
X151640000Y-79150000D02*
X152340000Y-79150000D01*
X146360000Y-80800000D02*
X146360000Y-81787186D01*
X151400000Y-76600000D02*
X151400000Y-77700000D01*
X151700000Y-76300000D02*
X151400000Y-76600000D01*
X152340000Y-77700000D02*
X151400000Y-77700000D01*
X151400000Y-78910000D02*
X151640000Y-79150000D01*
X146360000Y-81787186D02*
X145600000Y-82547186D01*
X151400000Y-77700000D02*
X151400000Y-78910000D01*
X152340000Y-76300000D02*
X151700000Y-76300000D01*
X145640000Y-81410000D02*
X145630000Y-81410000D01*
X145600000Y-82547186D02*
X145600000Y-83750000D01*
D76*
%TO.N,/Vcore*%
X108550000Y-67600000D02*
X108575000Y-67625000D01*
X108550000Y-65500000D02*
X108550000Y-67600000D01*
D75*
%TO.N,/Power/VSHARE*%
X144600000Y-83750000D02*
X144600000Y-82270000D01*
X144600000Y-82270000D02*
X144670000Y-82200000D01*
X120420000Y-82250000D02*
X120420000Y-81230000D01*
X144670000Y-82200000D02*
X144670000Y-81410000D01*
X120420000Y-82630000D02*
X120420000Y-82250000D01*
X120250000Y-82800000D02*
X120420000Y-82630000D01*
X120250000Y-83750000D02*
X120250000Y-82800000D01*
X120420000Y-81230000D02*
X120450000Y-81200000D01*
%TO.N,/Power/EN_UVLO*%
X115080000Y-85200000D02*
X115110000Y-85200000D01*
X115110000Y-85200000D02*
X116910000Y-87000000D01*
X138300000Y-82080000D02*
X139350000Y-82080000D01*
X138360000Y-84260000D02*
X138360000Y-84926134D01*
X137550000Y-82790000D02*
X137790000Y-83030000D01*
X140433866Y-87000000D02*
X142850000Y-87000000D01*
X137550000Y-82470000D02*
X137940000Y-82080000D01*
X137790000Y-83690000D02*
X138360000Y-84260000D01*
X137940000Y-82080000D02*
X138300000Y-82080000D01*
X139350000Y-82080000D02*
X139380000Y-82110000D01*
X137550000Y-82790000D02*
X137550000Y-82470000D01*
X137790000Y-83030000D02*
X137790000Y-83690000D01*
X116910000Y-87000000D02*
X118500000Y-87000000D01*
X138360000Y-84926134D02*
X140433866Y-87000000D01*
%TO.N,/5V*%
X123550000Y-114350000D02*
X124150000Y-113750000D01*
X127060000Y-54830000D02*
X127060000Y-54660000D01*
X126875000Y-119000000D02*
X126000000Y-119000000D01*
X131090000Y-139300000D02*
X131090000Y-140470000D01*
D76*
X123300000Y-120500000D02*
X124500000Y-121700000D01*
X126875000Y-115762500D02*
X125342500Y-115762500D01*
X123300000Y-118700000D02*
X123300000Y-120500000D01*
X125200000Y-121700000D02*
X125200000Y-120942500D01*
D75*
X125342500Y-115762500D02*
X125262500Y-115842500D01*
D76*
X125200000Y-122700000D02*
X125200000Y-121700000D01*
D75*
X131090000Y-140470000D02*
X131120000Y-140500000D01*
X129200000Y-56970000D02*
X127060000Y-54830000D01*
D76*
X123300000Y-118200000D02*
X123300000Y-118700000D01*
X124500000Y-121700000D02*
X125200000Y-121700000D01*
D75*
X125262500Y-115780000D02*
X124030000Y-115780000D01*
X127450000Y-139300000D02*
X131090000Y-139300000D01*
X124150000Y-113750000D02*
X125600000Y-113750000D01*
X125700000Y-118700000D02*
X123300000Y-118700000D01*
X125712500Y-113862500D02*
X126875000Y-113862500D01*
X124030000Y-115780000D02*
X123550000Y-115300000D01*
D76*
X125262500Y-116237500D02*
X123300000Y-118200000D01*
D75*
X123550000Y-115300000D02*
X123550000Y-114350000D01*
X125600000Y-113750000D02*
X125712500Y-113862500D01*
D76*
X125262500Y-115780000D02*
X125262500Y-116237500D01*
X125200000Y-120942500D02*
X125212500Y-120930000D01*
D75*
X126000000Y-119000000D02*
X125700000Y-118700000D01*
D76*
X126875000Y-120900000D02*
X125242500Y-120900000D01*
D75*
X129200000Y-57100000D02*
X129200000Y-56970000D01*
X125242500Y-120900000D02*
X125212500Y-120930000D01*
%TO.N,/ASIC/1V2*%
X107510000Y-124150000D02*
X107940000Y-123720000D01*
D76*
X130450000Y-120900000D02*
X131020000Y-120900000D01*
X103649001Y-124671000D02*
X103670001Y-124671000D01*
D75*
X106969999Y-124150000D02*
X107510000Y-124150000D01*
D76*
X103450000Y-100590000D02*
X103440000Y-100600000D01*
D75*
X106570000Y-122820000D02*
X106740000Y-122650000D01*
D76*
X102780000Y-129170000D02*
X103325000Y-128625000D01*
D75*
X118250000Y-116570000D02*
X118250000Y-116050000D01*
D76*
X102050000Y-101750000D02*
X102050000Y-100600000D01*
X130450000Y-116740000D02*
X130430000Y-116720000D01*
X127300000Y-122700000D02*
X129700000Y-122700000D01*
D75*
X102050000Y-101750000D02*
X102050000Y-103650000D01*
D76*
X101700000Y-129170000D02*
X102780000Y-129170000D01*
X130450000Y-120050000D02*
X130450000Y-116740000D01*
D75*
X143940000Y-116560000D02*
X143950000Y-116570000D01*
X107210000Y-122650000D02*
X107940000Y-123380000D01*
X106740000Y-122650000D02*
X107210000Y-122650000D01*
X107940000Y-123720000D02*
X107940000Y-123380000D01*
D76*
X103440000Y-100600000D02*
X102050000Y-100600000D01*
X131320000Y-120900000D02*
X131020000Y-120900000D01*
X102050000Y-100600000D02*
X102050000Y-99530000D01*
D75*
X106570000Y-123250000D02*
X106570000Y-122820000D01*
X118250000Y-116050000D02*
X117825000Y-115625000D01*
D76*
X103325000Y-128625000D02*
X103325000Y-124995001D01*
X103325000Y-124995001D02*
X103649001Y-124671000D01*
X130450000Y-121950000D02*
X130450000Y-120900000D01*
X102050000Y-99530000D02*
X102100000Y-99480000D01*
X130450000Y-120900000D02*
X130450000Y-120050000D01*
X129700000Y-122700000D02*
X130450000Y-121950000D01*
X129150000Y-120900000D02*
X130450000Y-120900000D01*
X135450000Y-120050000D02*
X130450000Y-120050000D01*
D75*
%TO.N,/ASIC/0V8*%
X132250000Y-117600000D02*
X133262500Y-117600000D01*
X131007500Y-115762500D02*
X131020000Y-115750000D01*
X131270000Y-116620000D02*
X132250000Y-117600000D01*
X131270000Y-115750000D02*
X131270000Y-116620000D01*
X129150000Y-115762500D02*
X130450000Y-115762500D01*
X119750000Y-116570000D02*
X119750000Y-115050000D01*
X130450000Y-115762500D02*
X131007500Y-115762500D01*
X142610000Y-116570000D02*
X142600000Y-116570000D01*
%TO.N,/3V3*%
X127430000Y-62100000D02*
X126740000Y-62790000D01*
X132750000Y-132325000D02*
X132750000Y-131762500D01*
X134002500Y-130510000D02*
X135000000Y-130510000D01*
X135310000Y-130510000D02*
X136300000Y-131500000D01*
D76*
X126660000Y-128840000D02*
X128450000Y-128840000D01*
D75*
X138179999Y-50581822D02*
X138179999Y-51281822D01*
X107210000Y-73620000D02*
X107780000Y-74190000D01*
D76*
X107280000Y-46295000D02*
X107280000Y-48000000D01*
D75*
X138380000Y-50381821D02*
X138179999Y-50581822D01*
X157000000Y-46200000D02*
X157400000Y-46600000D01*
X157400000Y-46600000D02*
X157400000Y-47600000D01*
X136300000Y-131500000D02*
X136300000Y-136700000D01*
X107780000Y-74190000D02*
X107780000Y-77110000D01*
X135020000Y-129890000D02*
X135020000Y-130490000D01*
D76*
X104048999Y-125550000D02*
X104048999Y-129171001D01*
D75*
X135020000Y-130490000D02*
X135000000Y-130510000D01*
X106700000Y-73620000D02*
X107210000Y-73620000D01*
X152300000Y-46200000D02*
X157000000Y-46200000D01*
X132750000Y-131762500D02*
X134002500Y-130510000D01*
D77*
X114670000Y-41830000D02*
X114670000Y-40830000D01*
D76*
X107425000Y-46150000D02*
X107280000Y-46295000D01*
D75*
X135300000Y-137700000D02*
X134260000Y-137700000D01*
X157400000Y-48800000D02*
X157400000Y-47600000D01*
X147800000Y-43090000D02*
X149190000Y-43090000D01*
D76*
X104048999Y-129171001D02*
X104010000Y-129210000D01*
D75*
X149190000Y-43090000D02*
X152300000Y-46200000D01*
X126740000Y-62790000D02*
X125990000Y-62790000D01*
X127430000Y-61550000D02*
X127430000Y-62100000D01*
X135000000Y-130510000D02*
X135310000Y-130510000D01*
X136300000Y-136700000D02*
X135300000Y-137700000D01*
%TO.N,/Power/V5reg_1*%
X138970000Y-84745000D02*
X138970000Y-84580000D01*
X140725000Y-86500000D02*
X138970000Y-84745000D01*
X142850000Y-86500000D02*
X140725000Y-86500000D01*
%TO.N,/Power/PGOOD*%
X149090000Y-76628000D02*
X149101000Y-76639000D01*
X149101000Y-80478232D02*
X148961000Y-80618232D01*
X127430000Y-57130000D02*
X127430000Y-60530000D01*
X149101000Y-76639000D02*
X149101000Y-80478232D01*
X149090000Y-73910000D02*
X149090000Y-76628000D01*
X125145000Y-54845000D02*
X127430000Y-57130000D01*
X148690000Y-81357100D02*
X148690000Y-84090000D01*
X148961000Y-80618232D02*
X148961000Y-81086100D01*
X148961000Y-81086100D02*
X148690000Y-81357100D01*
X123770000Y-54845000D02*
X125145000Y-54845000D01*
X148690000Y-84090000D02*
X148280000Y-84500000D01*
X148280000Y-84500000D02*
X147850000Y-84500000D01*
%TO.N,/fan/FAN_TACH*%
X133240000Y-137990000D02*
X133240000Y-137700000D01*
X132750000Y-137425000D02*
X133025000Y-137700000D01*
X134250000Y-139000000D02*
X133240000Y-137990000D01*
X133025000Y-137700000D02*
X133240000Y-137700000D01*
X132750000Y-136225000D02*
X132750000Y-137425000D01*
X134300000Y-138950000D02*
X134250000Y-139000000D01*
%TO.N,/fan/FAN_PWM*%
X132720000Y-139300000D02*
X132110000Y-139300000D01*
X132110000Y-137650000D02*
X128200000Y-137650000D01*
X132310000Y-141810000D02*
X133070000Y-141050000D01*
X132110000Y-136235000D02*
X132100000Y-136225000D01*
X128200000Y-137650000D02*
X127950000Y-137400000D01*
X133070000Y-140720000D02*
X133070000Y-139650000D01*
X133070000Y-139650000D02*
X132720000Y-139300000D01*
X132110000Y-139300000D02*
X132110000Y-137650000D01*
X132110000Y-137650000D02*
X132110000Y-136235000D01*
X133070000Y-141050000D02*
X133070000Y-140720000D01*
X131430000Y-141810000D02*
X132310000Y-141810000D01*
%TO.N,/Power/BCX_DAT*%
X148110000Y-82440000D02*
X147100000Y-83450000D01*
X148410000Y-81070000D02*
X148110000Y-81370000D01*
X148550000Y-80250000D02*
X148410000Y-80390000D01*
X126810000Y-80760000D02*
X125850000Y-81720000D01*
X148110000Y-81370000D02*
X148110000Y-82440000D01*
X125850000Y-81720000D02*
X124280000Y-81720000D01*
X148410000Y-80390000D02*
X148410000Y-81070000D01*
X147100000Y-83450000D02*
X147100000Y-83750000D01*
X124280000Y-81720000D02*
X122750000Y-83250000D01*
X122750000Y-83250000D02*
X122750000Y-83750000D01*
X126810000Y-79660000D02*
X126810000Y-80760000D01*
%TO.N,/Power/BCX_CLK*%
X126180000Y-80560000D02*
X126170000Y-80560000D01*
X124274314Y-81160000D02*
X122250000Y-83184314D01*
X146600000Y-83750000D02*
X146600000Y-83150000D01*
X147780000Y-81132900D02*
X147780000Y-80249999D01*
X126170000Y-80560000D02*
X125570000Y-81160000D01*
X122250000Y-83184314D02*
X122250000Y-83750000D01*
X147600000Y-82150000D02*
X147600000Y-81312900D01*
X125570000Y-81160000D02*
X124274314Y-81160000D01*
X146600000Y-83150000D02*
X147600000Y-82150000D01*
X147600000Y-81312900D02*
X147780000Y-81132900D01*
%TO.N,/ESP32/SMB_ALRT*%
X123770000Y-57385000D02*
X125285000Y-57385000D01*
X125990000Y-58090000D02*
X125990000Y-59210000D01*
X125285000Y-57385000D02*
X125990000Y-58090000D01*
%TO.N,/Power/SYNC*%
X124298628Y-80570000D02*
X121750000Y-83118628D01*
X125286195Y-80547010D02*
X125263205Y-80570000D01*
X125263205Y-80570000D02*
X124298628Y-80570000D01*
X146100000Y-82801471D02*
X146100000Y-83750000D01*
X121750000Y-83118628D02*
X121750000Y-83750000D01*
X147080102Y-80262067D02*
X147080000Y-80262169D01*
X147080000Y-81821471D02*
X146100000Y-82801471D01*
X147080000Y-80262169D02*
X147080000Y-81821471D01*
%TO.N,/ESP32/SDA*%
X150900000Y-48200000D02*
X147830000Y-48200000D01*
X151500000Y-48800000D02*
X150900000Y-48200000D01*
X134375000Y-135250000D02*
X135650000Y-135250000D01*
X153390000Y-48800000D02*
X151500000Y-48800000D01*
X147830000Y-48200000D02*
X147800000Y-48170000D01*
%TO.N,/ESP32/SCL*%
X151800000Y-47600000D02*
X149830000Y-45630000D01*
X135600000Y-136200000D02*
X135575000Y-136225000D01*
X135575000Y-136225000D02*
X133400000Y-136225000D01*
X153390000Y-47600000D02*
X151800000Y-47600000D01*
X149830000Y-45630000D02*
X148200000Y-45630000D01*
%TO.N,/ASIC/RX_1V2*%
X105570000Y-123250000D02*
X105570000Y-122063222D01*
X105570000Y-122063222D02*
X106000000Y-121633222D01*
X106000000Y-121633222D02*
X106000000Y-121200000D01*
X106000000Y-121200000D02*
X106025000Y-121225000D01*
%TO.N,/ASIC/CLKI*%
X104350000Y-110700000D02*
X104350000Y-103650000D01*
X106200000Y-112550000D02*
X104350000Y-110700000D01*
%TO.N,/ASIC/BI*%
X105371151Y-112750000D02*
X104810000Y-112750000D01*
X105420352Y-112700799D02*
X105371151Y-112750000D01*
%TO.N,/ASIC/RST_1V2*%
X104675382Y-121611508D02*
X104569999Y-121716891D01*
X104569999Y-121716891D02*
X104569999Y-123250000D01*
X104675382Y-121611508D02*
X104700000Y-121636126D01*
%TO.N,/ASIC/TX_1V2*%
X105309522Y-121756600D02*
X105309522Y-121315080D01*
X105070000Y-123250000D02*
X105070000Y-121996122D01*
X105070000Y-121996122D02*
X105309522Y-121756600D01*
X105309522Y-121315080D02*
X105375000Y-121380558D01*
%TO.N,/ASIC/RST_3V3*%
X107280000Y-65500000D02*
X107280000Y-70880000D01*
X107280000Y-70880000D02*
X109400000Y-73000000D01*
X104569999Y-125550000D02*
X104569999Y-126767596D01*
X104569999Y-126767596D02*
X104698999Y-126896596D01*
%TO.N,/ASIC/TX_3V3*%
X118200000Y-50395000D02*
X117440000Y-49635000D01*
X117700000Y-62100000D02*
X118200000Y-61600000D01*
X117440000Y-49635000D02*
X117440000Y-48000000D01*
X105070000Y-126488365D02*
X105260000Y-126678365D01*
X105260000Y-126678365D02*
X105260000Y-128150000D01*
X105070000Y-125550000D02*
X105070000Y-126488365D01*
X118200000Y-61600000D02*
X118200000Y-50395000D01*
%TO.N,/Power/BP1v5_1*%
X150321000Y-84524405D02*
X150321000Y-84191768D01*
X152430000Y-80350000D02*
X152430000Y-80860000D01*
X152980000Y-80860000D02*
X153990000Y-79850000D01*
X150320000Y-84190768D02*
X150320000Y-81210000D01*
X155625000Y-79850000D02*
X155960000Y-79515000D01*
X152430000Y-80860000D02*
X152980000Y-80860000D01*
X155960000Y-79515000D02*
X155960000Y-79150000D01*
X148845405Y-86000000D02*
X150321000Y-84524405D01*
X153990000Y-79850000D02*
X155625000Y-79850000D01*
X150950000Y-80100000D02*
X152180000Y-80100000D01*
X150320000Y-81210000D02*
X150690000Y-80840000D01*
X150321000Y-84191768D02*
X150320000Y-84190768D01*
X150690000Y-80840000D02*
X150690000Y-80360000D01*
X152180000Y-80100000D02*
X152430000Y-80350000D01*
X147850000Y-86000000D02*
X148845405Y-86000000D01*
X155960000Y-76300000D02*
X155960000Y-77700000D01*
X155960000Y-77700000D02*
X155960000Y-79150000D01*
X150690000Y-80360000D02*
X150950000Y-80100000D01*
%TO.N,/ESP32/USB_D+*%
X122600000Y-46515000D02*
X122832410Y-46515000D01*
X122600000Y-46515000D02*
X122520000Y-46595000D01*
X122100000Y-46247410D02*
X122367590Y-46515000D01*
X122100000Y-45640000D02*
X122100000Y-46247410D01*
X122832410Y-46515000D02*
X123100000Y-46247410D01*
X123100000Y-46247410D02*
X123100000Y-45640000D01*
X122520000Y-46595000D02*
X122520000Y-48000000D01*
X122367590Y-46515000D02*
X122600000Y-46515000D01*
%TO.N,Net-(U4-AVIN)*%
X115070000Y-86130000D02*
X116440000Y-87500000D01*
D77*
X115460000Y-83040000D02*
X116600000Y-83040000D01*
X116600000Y-83040000D02*
X116620000Y-83020000D01*
D75*
X116440000Y-87500000D02*
X118500000Y-87500000D01*
%TO.N,Net-(U4-DRTN)*%
X123500000Y-86500000D02*
X124500000Y-86500000D01*
X125700000Y-85300000D02*
X125700000Y-84980000D01*
X124500000Y-86500000D02*
X125700000Y-85300000D01*
%TO.N,Net-(U4-BOOT)*%
X123500000Y-87500000D02*
X125050000Y-87500000D01*
X125680000Y-86870000D02*
X126000000Y-86870000D01*
X125050000Y-87500000D02*
X125680000Y-86870000D01*
D76*
%TO.N,Net-(C29-Pad2)*%
X127725000Y-86425000D02*
X127725000Y-84912500D01*
D75*
%TO.N,Net-(U4-GOSNS)*%
X119310000Y-82660000D02*
X119310000Y-82200000D01*
X119750000Y-83750000D02*
X119750000Y-83100000D01*
X119750000Y-83100000D02*
X119310000Y-82660000D01*
%TO.N,Net-(U9-VDD1_0)*%
X108025000Y-109275000D02*
X107955000Y-109205000D01*
X107955000Y-109205000D02*
X107125000Y-109205000D01*
%TO.N,Net-(U9-VDD2_0)*%
X108125000Y-108255000D02*
X107135000Y-108255000D01*
X107135000Y-108255000D02*
X107125000Y-108245000D01*
%TO.N,Net-(U9-VDD3_0)*%
X109115000Y-107295000D02*
X108125000Y-107295000D01*
X109150000Y-107330000D02*
X109115000Y-107295000D01*
%TO.N,Net-(U13-DN1)*%
X132950000Y-128900000D02*
X132950000Y-129880000D01*
X132970000Y-130205000D02*
X131450000Y-131725000D01*
X131450000Y-131725000D02*
X131450000Y-132325000D01*
X132950000Y-129880000D02*
X132970000Y-129900000D01*
X132970000Y-129900000D02*
X132970000Y-130205000D01*
%TO.N,Net-(U13-DP1)*%
X132100000Y-131730000D02*
X132100000Y-132325000D01*
X133930000Y-129900000D02*
X132100000Y-131730000D01*
X134000000Y-129830000D02*
X133930000Y-129900000D01*
X134000000Y-128900000D02*
X134000000Y-129830000D01*
%TO.N,Net-(U13-DP2)*%
X131700000Y-128910000D02*
X131700000Y-129880000D01*
X131700000Y-129880000D02*
X131680000Y-129900000D01*
%TO.N,Net-(U13-DN2)*%
X130650000Y-129830000D02*
X130720000Y-129900000D01*
X130650000Y-128910000D02*
X130650000Y-129830000D01*
%TO.N,Net-(U9-LITE_PAD)*%
X105550000Y-114050000D02*
X104820000Y-114050000D01*
X105550000Y-114522182D02*
X104600000Y-115472182D01*
X104600000Y-117250000D02*
X101550000Y-120300000D01*
X105550000Y-114050000D02*
X105550000Y-114522182D01*
X101550000Y-120300000D02*
X100900000Y-120300000D01*
X104600000Y-115472182D02*
X104600000Y-117250000D01*
%TO.N,Net-(U9-ROSC_SEL)*%
X104100000Y-116500000D02*
X103200000Y-117400000D01*
X104100000Y-114950000D02*
X104100000Y-116500000D01*
X103200000Y-117400000D02*
X100950000Y-117400000D01*
%TO.N,Net-(U9-INV_CLKO)*%
X100900000Y-122400000D02*
X100900000Y-123550000D01*
X105100000Y-115750000D02*
X105100000Y-118200000D01*
X105100000Y-118200000D02*
X100900000Y-122400000D01*
X106000000Y-114850000D02*
X105100000Y-115750000D01*
%TO.N,Net-(U1-BOOT)*%
X147850000Y-87500000D02*
X149520000Y-87500000D01*
X149520000Y-87500000D02*
X150100000Y-86920000D01*
D76*
%TO.N,Net-(C8-Pad2)*%
X151625000Y-84437500D02*
X151625000Y-85975000D01*
D75*
%TO.N,Net-(U1-AVIN)*%
X137790000Y-85190000D02*
X140100000Y-87500000D01*
X140100000Y-87500000D02*
X142850000Y-87500000D01*
X137790000Y-84890000D02*
X137790000Y-85190000D01*
%TO.N,Net-(U1-VOSNS)*%
X142420000Y-80640000D02*
X142760000Y-80300000D01*
X143600000Y-83110000D02*
X142420000Y-81930000D01*
X142760000Y-80300000D02*
X143260000Y-80300000D01*
X143260000Y-79160000D02*
X143260000Y-80300000D01*
X142420000Y-81930000D02*
X142420000Y-80640000D01*
X143600000Y-83750000D02*
X143600000Y-83110000D01*
%TO.N,Net-(U1-GOSNS)*%
X144220000Y-79700000D02*
X144220000Y-79160000D01*
X144100000Y-82270000D02*
X143970000Y-82140000D01*
X144120000Y-79800000D02*
X144220000Y-79700000D01*
X144630000Y-80350000D02*
X144640000Y-80360000D01*
X144100000Y-83750000D02*
X144100000Y-82270000D01*
X143970000Y-80840000D02*
X144120000Y-80690000D01*
X144120000Y-80690000D02*
X144120000Y-80350000D01*
X143970000Y-82140000D02*
X143970000Y-80840000D01*
X144640000Y-80360000D02*
X144130000Y-80360000D01*
X144120000Y-80350000D02*
X144120000Y-79800000D01*
X144130000Y-80360000D02*
X144120000Y-80350000D01*
X144710000Y-80360000D02*
X144750000Y-80400000D01*
%TO.N,/Power/V5reg_2*%
X117280000Y-86500000D02*
X118500000Y-86500000D01*
X116610000Y-85830000D02*
X117280000Y-86500000D01*
X116610000Y-84320000D02*
X116610000Y-85830000D01*
%TO.N,Net-(U1-DRTN)*%
X147850000Y-86500000D02*
X149000000Y-86500000D01*
X149000000Y-86500000D02*
X150730000Y-84770000D01*
X150730000Y-81600000D02*
X151470000Y-80860000D01*
X150730000Y-84770000D02*
X150730000Y-81600000D01*
%TO.N,Net-(U10-VDD3_0)*%
X143500000Y-107697500D02*
X143500000Y-107700000D01*
X116820000Y-107375000D02*
X117695000Y-107375000D01*
X120750000Y-109250000D02*
X119150000Y-107650000D01*
X140950000Y-109250000D02*
X120750000Y-109250000D01*
X143877500Y-107320000D02*
X143500000Y-107697500D01*
X118080000Y-107650000D02*
X117750000Y-107320000D01*
X144940000Y-107310000D02*
X144910000Y-107340000D01*
X119150000Y-107650000D02*
X118080000Y-107650000D01*
X143945000Y-107340000D02*
X143925000Y-107320000D01*
X143500000Y-107700000D02*
X142500000Y-107700000D01*
X145350000Y-107310000D02*
X144940000Y-107310000D01*
X142500000Y-107700000D02*
X140950000Y-109250000D01*
X144910000Y-107340000D02*
X143945000Y-107340000D01*
X143925000Y-107320000D02*
X143877500Y-107320000D01*
X117695000Y-107375000D02*
X117750000Y-107320000D01*
X116750000Y-107305000D02*
X116820000Y-107375000D01*
X145360000Y-107300000D02*
X145350000Y-107310000D01*
%TO.N,Net-(U10-VDD2_0)*%
X141420000Y-109900000D02*
X120280000Y-109900000D01*
X143040000Y-108280000D02*
X142900000Y-108420000D01*
X143925000Y-108280000D02*
X143040000Y-108280000D01*
X117855000Y-108175000D02*
X118555000Y-108175000D01*
X142900000Y-108420000D02*
X141420000Y-109900000D01*
X120280000Y-109900000D02*
X118775000Y-108395000D01*
X118555000Y-108175000D02*
X118775000Y-108395000D01*
X117750000Y-108280000D02*
X117855000Y-108175000D01*
%TO.N,Net-(U10-VDD1_0)*%
X117810000Y-109355000D02*
X118775000Y-109355000D01*
X118855000Y-109355000D02*
X118775000Y-109355000D01*
X117725000Y-109270000D02*
X117810000Y-109355000D01*
X142900000Y-109380000D02*
X141730000Y-110550000D01*
X143925000Y-109220000D02*
X143765000Y-109380000D01*
X143765000Y-109380000D02*
X142900000Y-109380000D01*
X141730000Y-110550000D02*
X120050000Y-110550000D01*
X120050000Y-110550000D02*
X118855000Y-109355000D01*
%TO.N,Net-(U10-VDD3_1)*%
X152730000Y-107290000D02*
X153030000Y-107290000D01*
X153035000Y-107295000D02*
X154050000Y-107295000D01*
X153030000Y-107290000D02*
X153035000Y-107295000D01*
%TO.N,Net-(U10-VDD2_1)*%
X154135000Y-108170000D02*
X155050000Y-108170000D01*
X154050000Y-108255000D02*
X154135000Y-108170000D01*
%TO.N,Net-(U10-VDD1_1)*%
X154320000Y-109130000D02*
X155050000Y-109130000D01*
X154255000Y-109195000D02*
X154320000Y-109130000D01*
X154050000Y-109195000D02*
X154255000Y-109195000D01*
%TO.N,/ASIC/0V8_1*%
X106050000Y-115800000D02*
X106050000Y-116520000D01*
X106050000Y-116520000D02*
X106000000Y-116570000D01*
%TO.N,/ASIC/1V2_1*%
X107550000Y-115900000D02*
X107550000Y-116570000D01*
%TO.N,/ASIC/1V2_2*%
X153797182Y-115702818D02*
X153797182Y-115907182D01*
X153797182Y-115907182D02*
X154200000Y-116310000D01*
%TO.N,/ASIC/0V8_2*%
X155400000Y-116150000D02*
X155400000Y-116310000D01*
X154800000Y-115550000D02*
X155400000Y-116150000D01*
%TO.N,Net-(J4-CC1)*%
X121100000Y-44965490D02*
X121100000Y-45640000D01*
X128143000Y-43313000D02*
X122752490Y-43313000D01*
X122752490Y-43313000D02*
X121100000Y-44965490D01*
X130090000Y-45260000D02*
X128143000Y-43313000D01*
%TO.N,Net-(J4-CC2)*%
X128680000Y-45260000D02*
X127134000Y-43714000D01*
X127134000Y-43714000D02*
X125276413Y-43714000D01*
X125276413Y-43714000D02*
X124100000Y-44890413D01*
X124100000Y-44890413D02*
X124100000Y-45640000D01*
%TO.N,Net-(U1-MSEL1)*%
X141610000Y-84160000D02*
X141950000Y-84500000D01*
X141615493Y-81579847D02*
X141615493Y-81834507D01*
X141610000Y-81840000D02*
X141610000Y-84160000D01*
X141615493Y-81834507D02*
X141610000Y-81840000D01*
X154990000Y-79150000D02*
X154150000Y-79150000D01*
X154150000Y-79150000D02*
X153360000Y-79150000D01*
X141950000Y-84500000D02*
X142850000Y-84500000D01*
%TO.N,Net-(U1-MSEL2)*%
X141350000Y-86000000D02*
X142850000Y-86000000D01*
X154150000Y-76300000D02*
X154990000Y-76300000D01*
X139747885Y-84412115D02*
X139762115Y-84412115D01*
X139740000Y-84420000D02*
X139747885Y-84412115D01*
X153360000Y-76300000D02*
X154150000Y-76300000D01*
X139762115Y-84412115D02*
X141350000Y-86000000D01*
%TO.N,Net-(U1-VSEL)*%
X154990000Y-77700000D02*
X154150000Y-77700000D01*
X140300000Y-83380000D02*
X140300000Y-84180000D01*
X154150000Y-77700000D02*
X153360000Y-77700000D01*
X141620000Y-85500000D02*
X142850000Y-85500000D01*
X139838723Y-82918723D02*
X140300000Y-83380000D01*
X140300000Y-84180000D02*
X141620000Y-85500000D01*
X139835358Y-82918723D02*
X139838723Y-82918723D01*
%TO.N,Net-(U10-LITE_PAD)*%
X140760000Y-114450000D02*
X140760000Y-114890000D01*
X141400000Y-114450000D02*
X140760000Y-114450000D01*
X140760000Y-114890000D02*
X139700000Y-115950000D01*
%TO.N,Net-(U1-ADRSEL)*%
X141820000Y-85000000D02*
X142850000Y-85000000D01*
X154500000Y-80490000D02*
X154500000Y-81200000D01*
X141000000Y-84180000D02*
X141820000Y-85000000D01*
X154490000Y-81210000D02*
X154490000Y-81690000D01*
X140488170Y-81580000D02*
X140510000Y-81580000D01*
X140510000Y-81580000D02*
X141000000Y-82070000D01*
X154500000Y-81200000D02*
X154490000Y-81210000D01*
X141000000Y-82070000D02*
X141000000Y-84180000D01*
%TO.N,Net-(U10-NRSTO)*%
X157800000Y-111800000D02*
X159000000Y-111800000D01*
%TO.N,Net-(U10-ROSC_SEL)*%
X141650000Y-113750000D02*
X141650000Y-112550000D01*
%TO.N,Net-(U10-INV_CLKO)*%
X141350000Y-115150000D02*
X141000000Y-115500000D01*
X141000000Y-116650000D02*
X139650000Y-118000000D01*
X141000000Y-115500000D02*
X141000000Y-116650000D01*
%TO.N,Net-(U10-BI)*%
X136200000Y-113350000D02*
X135700000Y-113850000D01*
X135700000Y-113850000D02*
X135210000Y-113850000D01*
%TO.N,Net-(U10-RI)*%
X157700000Y-115900000D02*
X159000000Y-115900000D01*
%TO.N,/Power/SCL_VR*%
X156380000Y-47600000D02*
X155400000Y-47600000D01*
X149770000Y-84464314D02*
X148734314Y-85500000D01*
X154410000Y-47600000D02*
X155400000Y-47600000D01*
X150230000Y-74790000D02*
X150230000Y-80650000D01*
X151870000Y-73150000D02*
X150230000Y-74790000D01*
X148734314Y-85500000D02*
X147850000Y-85500000D01*
X149770000Y-81110000D02*
X149770000Y-84464314D01*
X150230000Y-80650000D02*
X149770000Y-81110000D01*
%TO.N,/Power/ALRT_VR*%
X149082450Y-87000000D02*
X147850000Y-87000000D01*
X150301539Y-86057693D02*
X150024757Y-86057693D01*
X150024757Y-86057693D02*
X149082450Y-87000000D01*
X125990000Y-60230000D02*
X125990000Y-61770000D01*
%TO.N,/Power/SDA_VR*%
X149362000Y-80784332D02*
X149362000Y-81252200D01*
X149240000Y-81374200D02*
X149240000Y-84270000D01*
X149690000Y-74470000D02*
X149690000Y-80456332D01*
X149740000Y-74420000D02*
X149690000Y-74470000D01*
X149362000Y-81252200D02*
X149240000Y-81374200D01*
X156390000Y-48800000D02*
X155400000Y-48800000D01*
X148510000Y-85000000D02*
X147850000Y-85000000D01*
X149690000Y-80456332D02*
X149362000Y-80784332D01*
X154410000Y-48800000D02*
X155400000Y-48800000D01*
X149240000Y-84270000D02*
X148510000Y-85000000D01*
%TO.N,GND*%
X154770000Y-117900000D02*
X155400000Y-117270000D01*
X139750000Y-113750000D02*
X139740000Y-113760000D01*
X137620000Y-81120000D02*
X138300000Y-81120000D01*
D76*
X143950000Y-117530000D02*
X146080000Y-117530000D01*
X125550000Y-45640000D02*
X126095000Y-45640000D01*
D75*
X134190000Y-113850000D02*
X133250000Y-113850000D01*
D78*
X160203000Y-77535500D02*
X159215500Y-77535500D01*
D76*
X110230000Y-117530000D02*
X110250000Y-117550000D01*
D75*
X103290000Y-124150000D02*
X103670001Y-124150000D01*
D76*
X125192500Y-119950000D02*
X125212500Y-119970000D01*
D75*
X103050000Y-123910000D02*
X103290000Y-124150000D01*
X107290000Y-110010000D02*
X107980000Y-110010000D01*
X120750000Y-83750000D02*
X120750000Y-87000000D01*
D78*
X104901000Y-77110000D02*
X104525500Y-77485500D01*
D76*
X124450000Y-119950000D02*
X124450000Y-119300000D01*
D75*
X104070000Y-122280000D02*
X104070000Y-123250000D01*
D78*
X104525500Y-77485500D02*
X101797000Y-77485500D01*
D76*
X127250000Y-82800000D02*
X127437500Y-82800000D01*
D75*
X103790000Y-114040000D02*
X103790000Y-112750000D01*
D76*
X118250000Y-117530000D02*
X115680000Y-117530000D01*
X126875000Y-114812500D02*
X125332500Y-114812500D01*
D75*
X143870000Y-110080000D02*
X143925000Y-110135000D01*
D76*
X105875000Y-46150000D02*
X106010000Y-46285000D01*
X115680000Y-117530000D02*
X115650000Y-117500000D01*
D75*
X132280000Y-120900000D02*
X133200000Y-120900000D01*
D78*
X106700000Y-77110000D02*
X104901000Y-77110000D01*
D75*
X106070001Y-122329999D02*
X106900000Y-121500000D01*
D78*
X106010000Y-67390000D02*
X106000000Y-67400000D01*
D76*
X107550000Y-117530000D02*
X110230000Y-117530000D01*
X106000000Y-117530000D02*
X107550000Y-117530000D01*
X106010000Y-46285000D02*
X106010000Y-48000000D01*
D75*
X145710000Y-80360000D02*
X145660000Y-80360000D01*
X132230000Y-114890000D02*
X132210000Y-114870000D01*
X127885000Y-46280000D02*
X126670000Y-45065000D01*
X106900000Y-121500000D02*
X108000000Y-121500000D01*
D76*
X124580000Y-114820000D02*
X124450000Y-114950000D01*
X103700000Y-99500000D02*
X104400000Y-100200000D01*
D75*
X106570000Y-126700000D02*
X106790000Y-126920000D01*
X145100000Y-83750000D02*
X145100000Y-87000000D01*
D78*
X159215500Y-77535500D02*
X158880000Y-77200000D01*
D75*
X139740000Y-114450000D02*
X139740000Y-113760000D01*
X145100000Y-87000000D02*
X145350000Y-87250000D01*
D76*
X152900000Y-82510000D02*
X152687500Y-82297500D01*
D75*
X103750000Y-113400000D02*
X103790000Y-113400000D01*
X106570000Y-125550000D02*
X106570000Y-126700000D01*
D76*
X124450000Y-114300000D02*
X124450000Y-114950000D01*
D75*
X143925000Y-110135000D02*
X143925000Y-110180000D01*
X128680000Y-46280000D02*
X127885000Y-46280000D01*
X137620000Y-81120000D02*
X137630000Y-81130000D01*
X128525000Y-40885000D02*
X126670000Y-40885000D01*
D78*
X106010000Y-65500000D02*
X106010000Y-67390000D01*
D76*
X142600000Y-117530000D02*
X143950000Y-117530000D01*
D75*
X106070001Y-123250000D02*
X106070001Y-122329999D01*
X120750000Y-87000000D02*
X121000000Y-87250000D01*
D76*
X127437500Y-82800000D02*
X127725000Y-83087500D01*
D75*
X104075000Y-122275000D02*
X104070000Y-122280000D01*
X131450000Y-135250000D02*
X132425000Y-134275000D01*
X151950000Y-117250000D02*
X151970000Y-117270000D01*
D76*
X126095000Y-45640000D02*
X126670000Y-45065000D01*
D75*
X107980000Y-110010000D02*
X108125000Y-110155000D01*
X118620000Y-110290000D02*
X117785000Y-110290000D01*
D76*
X124550000Y-119950000D02*
X125192500Y-119950000D01*
D75*
X154700000Y-117900000D02*
X154770000Y-117900000D01*
X130000000Y-42360000D02*
X128525000Y-40885000D01*
D76*
X119750000Y-117530000D02*
X118250000Y-117530000D01*
D75*
X104000000Y-130170000D02*
X103990000Y-130170000D01*
D76*
X104400000Y-101700000D02*
X104350000Y-101750000D01*
D75*
X139350000Y-81120000D02*
X139380000Y-81090000D01*
D76*
X101690000Y-128210000D02*
X101700000Y-128210000D01*
X155400000Y-117270000D02*
X154200000Y-117270000D01*
D77*
X113400000Y-41830000D02*
X113400000Y-40800000D01*
D75*
X131450000Y-136225000D02*
X131450000Y-135250000D01*
X117785000Y-110290000D02*
X117725000Y-110230000D01*
X130090000Y-46280000D02*
X128680000Y-46280000D01*
D76*
X152900000Y-82780000D02*
X152900000Y-82510000D01*
D75*
X103450000Y-121650000D02*
X104075000Y-122275000D01*
D78*
X137597500Y-58197500D02*
X134752500Y-58197500D01*
X158880000Y-77200000D02*
X158880000Y-76740000D01*
D76*
X152687500Y-82297500D02*
X151930000Y-82297500D01*
D78*
X137600000Y-58200000D02*
X137597500Y-58197500D01*
D75*
X125232500Y-119950000D02*
X125212500Y-119970000D01*
X106790000Y-128010000D02*
X106780000Y-128020000D01*
D78*
X137997500Y-65447500D02*
X134952500Y-65447500D01*
D75*
X108000000Y-121500000D02*
X107975000Y-121525000D01*
X106790000Y-126920000D02*
X106790000Y-128010000D01*
X107079162Y-110220838D02*
X107290000Y-110010000D01*
D76*
X118605000Y-45640000D02*
X118030000Y-45065000D01*
D75*
X103450000Y-121650000D02*
X103050000Y-122050000D01*
X126875000Y-119950000D02*
X125232500Y-119950000D01*
X138300000Y-81120000D02*
X139350000Y-81120000D01*
D78*
X138010000Y-65460000D02*
X137997500Y-65447500D01*
D76*
X104400000Y-100200000D02*
X104400000Y-101700000D01*
X154200000Y-117270000D02*
X151970000Y-117270000D01*
X125262500Y-114820000D02*
X124580000Y-114820000D01*
D75*
X146080000Y-117530000D02*
X146100000Y-117550000D01*
D76*
X119150000Y-45640000D02*
X118605000Y-45640000D01*
D75*
X103050000Y-122050000D02*
X103050000Y-123910000D01*
X132230000Y-115750000D02*
X132230000Y-114890000D01*
X118810000Y-110100000D02*
X118620000Y-110290000D01*
D76*
X103080000Y-99500000D02*
X103700000Y-99500000D01*
D75*
%TO.N,/Power/BP1v5_2*%
X125255000Y-84020000D02*
X125050000Y-84225000D01*
X125700000Y-84020000D02*
X125255000Y-84020000D01*
X126327817Y-82850000D02*
X125700000Y-83477817D01*
X125700000Y-83477817D02*
X125700000Y-84020000D01*
X118290000Y-81210000D02*
X118300000Y-81200000D01*
X125050000Y-85384314D02*
X124434314Y-86000000D01*
X125050000Y-84225000D02*
X125050000Y-85384314D01*
X118290000Y-82200000D02*
X118290000Y-81210000D01*
X124434314Y-86000000D02*
X123500000Y-86000000D01*
%TO.N,Net-(U10-BO)*%
X157650000Y-120050000D02*
X158900000Y-120050000D01*
%TO.N,Net-(U10-CLKO)*%
X157750000Y-118000000D02*
X158950000Y-118000000D01*
%TO.N,Net-(U10-CO)*%
X157800000Y-113850000D02*
X159000000Y-113850000D01*
%TO.N,/ESP32/EN*%
X103390000Y-73040000D02*
X103734620Y-73384620D01*
X105000000Y-74640000D02*
X106700000Y-74640000D01*
X103390000Y-68860000D02*
X103390000Y-73040000D01*
X108550000Y-49150000D02*
X108550000Y-48000000D01*
X109384314Y-49984314D02*
X108550000Y-49150000D01*
X106700000Y-74640000D02*
X106700000Y-76150000D01*
X103654500Y-73294500D02*
X105000000Y-74640000D01*
D77*
X114670000Y-44200000D02*
X114670000Y-43100000D01*
D75*
X110700000Y-49984314D02*
X109384314Y-49984314D01*
X101797000Y-73294500D02*
X103654500Y-73294500D01*
%TO.N,/ESP32/P_TX*%
X113400000Y-44250000D02*
X113400000Y-43100000D01*
X109820000Y-68900000D02*
X109020000Y-69700000D01*
X109820000Y-65500000D02*
X109820000Y-68900000D01*
%TO.N,/ESP32/IO0*%
X121700000Y-63800000D02*
X122520000Y-64620000D01*
X111400000Y-61450000D02*
X115900000Y-61450000D01*
X152790000Y-74400000D02*
X153845500Y-73344500D01*
X122520000Y-65500000D02*
X122520000Y-66860000D01*
X153845500Y-73344500D02*
X160203000Y-73344500D01*
X112130000Y-41830000D02*
X111510000Y-42450000D01*
X118250000Y-63800000D02*
X121700000Y-63800000D01*
X108440000Y-42450000D02*
X107690000Y-43200000D01*
X122520000Y-66860000D02*
X123460000Y-67800000D01*
X111510000Y-42450000D02*
X108440000Y-42450000D01*
X151910000Y-74400000D02*
X152790000Y-74400000D01*
X122520000Y-64620000D02*
X122520000Y-65500000D01*
D77*
X112130000Y-41830000D02*
X112130000Y-40820000D01*
D75*
X115900000Y-61450000D02*
X118250000Y-63800000D01*
%TO.N,/ESP32/P_RX*%
X112600000Y-45100000D02*
X112130000Y-44630000D01*
X111090000Y-63870000D02*
X111090000Y-65500000D01*
X112130000Y-44630000D02*
X112130000Y-43100000D01*
X111090000Y-67180000D02*
X112400000Y-68490000D01*
X109950000Y-63200000D02*
X110420000Y-63200000D01*
X111090000Y-65500000D02*
X111090000Y-67180000D01*
X110420000Y-63200000D02*
X111090000Y-63870000D01*
X112600000Y-45800000D02*
X112600000Y-45100000D01*
%TO.N,/ASIC/RX_3V3*%
X105570000Y-126421265D02*
X105930000Y-126781265D01*
X105570000Y-125550000D02*
X105570000Y-126421265D01*
X105930000Y-126781265D02*
X105930000Y-127530000D01*
X118710000Y-62090000D02*
X118710000Y-48000000D01*
%TO.N,/ESP32/USB_D-*%
X122600000Y-45640000D02*
X122600000Y-45032590D01*
X121600000Y-47650000D02*
X121250000Y-48000000D01*
X121867590Y-44765000D02*
X121600000Y-45032590D01*
X121600000Y-45032590D02*
X121600000Y-45640000D01*
X121600000Y-45640000D02*
X121600000Y-46600000D01*
X121250000Y-46950000D02*
X121250000Y-48000000D01*
X121600000Y-46600000D02*
X121250000Y-46950000D01*
X122332410Y-44765000D02*
X121867590Y-44765000D01*
X122600000Y-45032590D02*
X122332410Y-44765000D01*
%TO.N,/Power/AGND2*%
X124350000Y-85500000D02*
X124500000Y-85350000D01*
X122200000Y-82050000D02*
X122000000Y-82250000D01*
X125439000Y-82121000D02*
X125683900Y-82121000D01*
X124500000Y-85000000D02*
X124500000Y-84500000D01*
X121250000Y-83750000D02*
X121250000Y-83050000D01*
X123500000Y-85000000D02*
X124500000Y-85000000D01*
X124500000Y-85350000D02*
X124500000Y-85000000D01*
D77*
X115500000Y-82060000D02*
X116620000Y-82060000D01*
D75*
X116960000Y-82060000D02*
X116620000Y-82060000D01*
X124500000Y-83060000D02*
X125439000Y-82121000D01*
X126251000Y-81886100D02*
X126557100Y-81580000D01*
X121250000Y-83050000D02*
X121380000Y-82920000D01*
X121380000Y-82920000D02*
X121380000Y-82250000D01*
X122200000Y-81650000D02*
X122200000Y-82050000D01*
X117750000Y-86000000D02*
X117500000Y-85750000D01*
X123500000Y-87000000D02*
X124830000Y-87000000D01*
X122000000Y-82250000D02*
X121380000Y-82250000D01*
X117500000Y-82600000D02*
X116960000Y-82060000D01*
X118500000Y-86000000D02*
X117750000Y-86000000D01*
X124500000Y-84500000D02*
X124500000Y-83060000D01*
X123500000Y-84500000D02*
X124500000Y-84500000D01*
X117500000Y-85750000D02*
X117500000Y-82600000D01*
X126557100Y-81580000D02*
X128200000Y-81580000D01*
X125683900Y-82121000D02*
X126016100Y-82121000D01*
X123500000Y-85500000D02*
X124350000Y-85500000D01*
X126016100Y-82121000D02*
X126251000Y-81886100D01*
X124830000Y-87000000D02*
X125990000Y-85840000D01*
%TO.N,Net-(U3-EN)*%
X138320000Y-49581821D02*
X138220000Y-49481821D01*
X137680000Y-51131822D02*
X137680000Y-49481821D01*
X136765000Y-49481821D02*
X136615000Y-49631821D01*
X137680000Y-49481821D02*
X136765000Y-49481821D01*
X138220000Y-49481821D02*
X137680000Y-49481821D01*
%TO.N,Net-(J2-Pin_5)*%
X116170000Y-65500000D02*
X116170000Y-63120000D01*
X137070000Y-42630159D02*
X137120000Y-42580159D01*
X137070000Y-44180000D02*
X137070000Y-42630159D01*
X116170000Y-63120000D02*
X116150000Y-63100000D01*
%TO.N,Net-(J2-Pin_8)*%
X112350000Y-63050000D02*
X112360000Y-63060000D01*
X132700000Y-45080000D02*
X135400000Y-45080000D01*
X112360000Y-65500000D02*
X112360000Y-63060000D01*
X135400000Y-45080000D02*
X135570000Y-44910000D01*
X135570000Y-44910000D02*
X135570000Y-44180000D01*
X131764719Y-44144719D02*
X132700000Y-45080000D01*
%TO.N,Net-(J2-Pin_7)*%
X136070000Y-43260000D02*
X136070000Y-44180000D01*
X113630000Y-65500000D02*
X113630000Y-63070000D01*
X113630000Y-63070000D02*
X113650000Y-63050000D01*
X133300000Y-42860000D02*
X135670000Y-42860000D01*
X135670000Y-42860000D02*
X136070000Y-43260000D01*
X132550000Y-43610000D02*
X133300000Y-42860000D01*
%TO.N,Net-(J2-Pin_6)*%
X114900000Y-65500000D02*
X114900000Y-63050000D01*
X136570000Y-42090000D02*
X136560000Y-42080000D01*
X136570000Y-44180000D02*
X136570000Y-42090000D01*
%TO.N,Net-(U2-OE)*%
X107865000Y-127955000D02*
X107800000Y-128020000D01*
X107510000Y-124650000D02*
X107865000Y-125005000D01*
X106969999Y-124650000D02*
X107510000Y-124650000D01*
X107865000Y-125005000D02*
X107865000Y-127955000D01*
%TD*%
%TA.AperFunction,Conductor*%
%TO.N,GND*%
G36*
X157301165Y-51259685D02*
G01*
X157325308Y-51279965D01*
X158379419Y-52423728D01*
X158410377Y-52486364D01*
X158412237Y-52507762D01*
X158412237Y-56491756D01*
X158392552Y-56558795D01*
X158374111Y-56581208D01*
X157318947Y-57594166D01*
X157256953Y-57626393D01*
X157233231Y-57628714D01*
X148291084Y-57640123D01*
X148224020Y-57620524D01*
X148200613Y-57601092D01*
X147113783Y-56445907D01*
X147082183Y-56383591D01*
X147080096Y-56360696D01*
X147087881Y-52363947D01*
X147107696Y-52296950D01*
X147127498Y-52273334D01*
X148204636Y-51273133D01*
X148267157Y-51241941D01*
X148289012Y-51240000D01*
X157234126Y-51240000D01*
X157301165Y-51259685D01*
G37*
%TD.AperFunction*%
%TD*%
%TA.AperFunction,Conductor*%
%TO.N,GND*%
G36*
X135333039Y-57379685D02*
G01*
X135378794Y-57432489D01*
X135390000Y-57484000D01*
X135390000Y-65836000D01*
X135370315Y-65903039D01*
X135317511Y-65948794D01*
X135266000Y-65960000D01*
X129841362Y-65960000D01*
X129774323Y-65940315D01*
X129753681Y-65923681D01*
X128926319Y-65096319D01*
X128892834Y-65034996D01*
X128890000Y-65008638D01*
X128890000Y-58411362D01*
X128909685Y-58344323D01*
X128926319Y-58323681D01*
X129853681Y-57396319D01*
X129915004Y-57362834D01*
X129941362Y-57360000D01*
X135266000Y-57360000D01*
X135333039Y-57379685D01*
G37*
%TD.AperFunction*%
%TD*%
%TA.AperFunction,Conductor*%
%TO.N,GND*%
G36*
X117493039Y-51719685D02*
G01*
X117538794Y-51772489D01*
X117550000Y-51824000D01*
X117550000Y-58876000D01*
X117530315Y-58943039D01*
X117477511Y-58988794D01*
X117426000Y-59000000D01*
X109824000Y-59000000D01*
X109756961Y-58980315D01*
X109711206Y-58927511D01*
X109700000Y-58876000D01*
X109700000Y-51824000D01*
X109719685Y-51756961D01*
X109772489Y-51711206D01*
X109824000Y-51700000D01*
X117426000Y-51700000D01*
X117493039Y-51719685D01*
G37*
%TD.AperFunction*%
%TD*%
%TA.AperFunction,Conductor*%
%TO.N,GND*%
G36*
X138089307Y-43536781D02*
G01*
X138155796Y-43558246D01*
X138200127Y-43612251D01*
X138210000Y-43660737D01*
X138210000Y-45376230D01*
X140331986Y-45384675D01*
X140398945Y-45404626D01*
X140419172Y-45420993D01*
X141768681Y-46770502D01*
X141802166Y-46831825D01*
X141805000Y-46858183D01*
X141805000Y-50230459D01*
X141785315Y-50297498D01*
X141768681Y-50318140D01*
X141491319Y-50595502D01*
X141429996Y-50628987D01*
X141403638Y-50631821D01*
X140631362Y-50631821D01*
X140564323Y-50612136D01*
X140543681Y-50595502D01*
X140291319Y-50343140D01*
X140257834Y-50281817D01*
X140255000Y-50255459D01*
X140255000Y-49306821D01*
X139780000Y-48831821D01*
X135780000Y-48831821D01*
X135779999Y-48831821D01*
X135530000Y-49081820D01*
X135530000Y-49081821D01*
X135530000Y-50599821D01*
X136619251Y-51245794D01*
X136666872Y-51296921D01*
X136680000Y-51352449D01*
X136680000Y-52094321D01*
X136660315Y-52161360D01*
X136607511Y-52207115D01*
X136556000Y-52218321D01*
X135632188Y-52218321D01*
X135577305Y-52221263D01*
X135577298Y-52221263D01*
X135577289Y-52221264D01*
X135577283Y-52221264D01*
X135577251Y-52221267D01*
X135550508Y-52224143D01*
X135496264Y-52232933D01*
X135496259Y-52232934D01*
X135359324Y-52284007D01*
X135359320Y-52284008D01*
X135338271Y-52295502D01*
X135299531Y-52316654D01*
X135240108Y-52331821D01*
X131741362Y-52331821D01*
X131674323Y-52312136D01*
X131653681Y-52295502D01*
X131366319Y-52008140D01*
X131332834Y-51946817D01*
X131330000Y-51920459D01*
X131330000Y-46373183D01*
X131349685Y-46306144D01*
X131366319Y-46285502D01*
X132274834Y-45376986D01*
X132302123Y-45362085D01*
X132328403Y-45345453D01*
X132333980Y-45344690D01*
X132336155Y-45343503D01*
X132363368Y-45340672D01*
X132520007Y-45341757D01*
X132576430Y-45357085D01*
X132576503Y-45356911D01*
X132577866Y-45357475D01*
X132581145Y-45358366D01*
X132584011Y-45360021D01*
X132660438Y-45380500D01*
X132660440Y-45380500D01*
X135439561Y-45380500D01*
X135439562Y-45380500D01*
X135490724Y-45366790D01*
X135523662Y-45362570D01*
X137442500Y-45375865D01*
X137454375Y-45375948D01*
X137454375Y-45375947D01*
X137454376Y-45375948D01*
X137459615Y-43646963D01*
X137479502Y-43579985D01*
X137532445Y-43534390D01*
X137586917Y-43523384D01*
X138089307Y-43536781D01*
G37*
%TD.AperFunction*%
%TD*%
%TA.AperFunction,Conductor*%
%TO.N,/5V*%
G36*
X139523039Y-57909685D02*
G01*
X139568794Y-57962489D01*
X139580000Y-58014000D01*
X139580000Y-60626000D01*
X139560315Y-60693039D01*
X139507511Y-60738794D01*
X139456000Y-60750000D01*
X138414000Y-60750000D01*
X138346961Y-60730315D01*
X138301206Y-60677511D01*
X138290000Y-60626000D01*
X138290000Y-58014000D01*
X138309685Y-57946961D01*
X138362489Y-57901206D01*
X138414000Y-57890000D01*
X139456000Y-57890000D01*
X139523039Y-57909685D01*
G37*
%TD.AperFunction*%
%TD*%
%TA.AperFunction,Conductor*%
%TO.N,/12V*%
G36*
X144394304Y-43158365D02*
G01*
X144414959Y-43175004D01*
X146323671Y-45083290D01*
X146357163Y-45144609D01*
X146360000Y-45170981D01*
X146360000Y-56840124D01*
X147746095Y-58224188D01*
X157419657Y-58210011D01*
X157486725Y-58229597D01*
X157509856Y-58248731D01*
X158396018Y-59184123D01*
X158427834Y-59246328D01*
X158430000Y-59269403D01*
X158430000Y-63055868D01*
X158410315Y-63122907D01*
X158391594Y-63145588D01*
X157331880Y-64156576D01*
X148039308Y-73392045D01*
X148039046Y-76900562D01*
X148019356Y-76967600D01*
X148005020Y-76985880D01*
X146623818Y-78442316D01*
X146563404Y-78477414D01*
X146533722Y-78480989D01*
X140941344Y-78475470D01*
X137622347Y-80649232D01*
X137568375Y-80665587D01*
X137568751Y-80668439D01*
X137560694Y-80669499D01*
X137536675Y-80675935D01*
X137446114Y-80700201D01*
X137446112Y-80700201D01*
X137446112Y-80700202D01*
X137343387Y-80759511D01*
X137343384Y-80759513D01*
X137259513Y-80843384D01*
X137259511Y-80843387D01*
X137201127Y-80944511D01*
X137200201Y-80946114D01*
X137169500Y-81060691D01*
X137169500Y-81179309D01*
X137199029Y-81289511D01*
X137200202Y-81293889D01*
X137250834Y-81381585D01*
X137267446Y-81444146D01*
X137263288Y-82363210D01*
X137259064Y-82394742D01*
X137249695Y-82429708D01*
X137217603Y-82485295D01*
X137189511Y-82513387D01*
X137135975Y-82606114D01*
X137130201Y-82616114D01*
X137099500Y-82730691D01*
X137099500Y-82849309D01*
X137130201Y-82963886D01*
X137189511Y-83066613D01*
X137189513Y-83066615D01*
X137223235Y-83100337D01*
X137256720Y-83161660D01*
X137259553Y-83188579D01*
X137250184Y-85259306D01*
X137250000Y-85300000D01*
X138800000Y-86850000D01*
X139825000Y-87875000D01*
X143125724Y-87875000D01*
X143192763Y-87894685D01*
X143238518Y-87947489D01*
X143249724Y-87999276D01*
X143245113Y-90073800D01*
X143225279Y-90140795D01*
X143208794Y-90161205D01*
X142653247Y-90716752D01*
X142591924Y-90750237D01*
X142564892Y-90753069D01*
X133222988Y-90702298D01*
X133156057Y-90682250D01*
X133135981Y-90665981D01*
X129161319Y-86691319D01*
X129127834Y-86629996D01*
X129125000Y-86603638D01*
X129125000Y-81203182D01*
X127979761Y-80110000D01*
X127285158Y-80110000D01*
X127218119Y-80090315D01*
X127172364Y-80037511D01*
X127162420Y-79968353D01*
X127177769Y-79924002D01*
X127229799Y-79833886D01*
X127260500Y-79719309D01*
X127260500Y-79600691D01*
X127229799Y-79486114D01*
X127170489Y-79383387D01*
X127086613Y-79299511D01*
X126983886Y-79240201D01*
X126869309Y-79209500D01*
X126750691Y-79209500D01*
X126636114Y-79240201D01*
X126636112Y-79240201D01*
X126636112Y-79240202D01*
X126533387Y-79299511D01*
X126533384Y-79299513D01*
X126449513Y-79383384D01*
X126449511Y-79383387D01*
X126390201Y-79486114D01*
X126359500Y-79600691D01*
X126359500Y-79719309D01*
X126390201Y-79833886D01*
X126442229Y-79924001D01*
X126443661Y-79929901D01*
X126447636Y-79934489D01*
X126451800Y-79963451D01*
X126458702Y-79991899D01*
X126456715Y-79997637D01*
X126457580Y-80003647D01*
X126445421Y-80030269D01*
X126435850Y-80057926D01*
X126431077Y-80061679D01*
X126428555Y-80067203D01*
X126403931Y-80083027D01*
X126380929Y-80101117D01*
X126373578Y-80102533D01*
X126369777Y-80104977D01*
X126334842Y-80110000D01*
X126251233Y-80110000D01*
X126243604Y-80109500D01*
X126239309Y-80109500D01*
X126120691Y-80109500D01*
X126116396Y-80109500D01*
X126108767Y-80110000D01*
X125412175Y-80110000D01*
X125380083Y-80105775D01*
X125345505Y-80096510D01*
X125345504Y-80096510D01*
X125226886Y-80096510D01*
X125226884Y-80096510D01*
X125192307Y-80105775D01*
X125160215Y-80110000D01*
X116989999Y-80110000D01*
X115526819Y-81573181D01*
X115465496Y-81606666D01*
X115447615Y-81608588D01*
X115440694Y-81609499D01*
X115406653Y-81618620D01*
X115326114Y-81640201D01*
X115326112Y-81640201D01*
X115326112Y-81640202D01*
X115223387Y-81699511D01*
X115223384Y-81699513D01*
X115139513Y-81783384D01*
X115139511Y-81783387D01*
X115097234Y-81856613D01*
X115080201Y-81886114D01*
X115070601Y-81921942D01*
X115049499Y-82000694D01*
X115048439Y-82008751D01*
X115046742Y-82008527D01*
X115029815Y-82066177D01*
X115013181Y-82086819D01*
X114749999Y-82350000D01*
X114774656Y-84815632D01*
X114755643Y-84882865D01*
X114738345Y-84904551D01*
X114719513Y-84923382D01*
X114675452Y-84999699D01*
X114660201Y-85026114D01*
X114629500Y-85140691D01*
X114629500Y-85259309D01*
X114660201Y-85373886D01*
X114719511Y-85476613D01*
X114719513Y-85476615D01*
X114746082Y-85503184D01*
X114760499Y-85529587D01*
X114777023Y-85554742D01*
X114778118Y-85561853D01*
X114779567Y-85564507D01*
X114782395Y-85589625D01*
X114783764Y-85726523D01*
X114764751Y-85793756D01*
X114747454Y-85815441D01*
X114709515Y-85853382D01*
X114709511Y-85853387D01*
X114662674Y-85934511D01*
X114650201Y-85956114D01*
X114619500Y-86070691D01*
X114619500Y-86189309D01*
X114650201Y-86303886D01*
X114709511Y-86406613D01*
X114793387Y-86490489D01*
X114896114Y-86549799D01*
X114910034Y-86553529D01*
X114965623Y-86585623D01*
X116255000Y-87875000D01*
X118776275Y-87875000D01*
X118843314Y-87894685D01*
X118889069Y-87947489D01*
X118900275Y-87998724D01*
X118904885Y-90073476D01*
X118885349Y-90140560D01*
X118868566Y-90161433D01*
X118346319Y-90683681D01*
X118284996Y-90717166D01*
X118258638Y-90720000D01*
X109057627Y-90720000D01*
X108990588Y-90700315D01*
X108975468Y-90688876D01*
X108969595Y-90683681D01*
X108355633Y-90140560D01*
X108266850Y-90062021D01*
X108248602Y-90032976D01*
X108230026Y-90004061D01*
X108229904Y-90003215D01*
X108229680Y-90002858D01*
X108225009Y-89969125D01*
X108225043Y-89760976D01*
X108244737Y-89693945D01*
X108270372Y-89665152D01*
X108353627Y-89596828D01*
X108596828Y-89353627D01*
X108815019Y-89087760D01*
X109006100Y-88801787D01*
X109168231Y-88498462D01*
X109299850Y-88180705D01*
X109399690Y-87851578D01*
X109466789Y-87514250D01*
X109500500Y-87171969D01*
X109500500Y-86828031D01*
X109466789Y-86485750D01*
X109399690Y-86148422D01*
X109299850Y-85819295D01*
X109168231Y-85501538D01*
X109156457Y-85479511D01*
X109006106Y-85198224D01*
X109006105Y-85198222D01*
X109006100Y-85198213D01*
X108815019Y-84912240D01*
X108596828Y-84646373D01*
X108596827Y-84646372D01*
X108596823Y-84646367D01*
X108353632Y-84403176D01*
X108271283Y-84335594D01*
X108231949Y-84277849D01*
X108225949Y-84239728D01*
X108227106Y-77181972D01*
X108230500Y-77169309D01*
X108230500Y-77050691D01*
X108227130Y-77038115D01*
X108227380Y-75516194D01*
X108247076Y-75449160D01*
X108263601Y-75428634D01*
X114661980Y-69016414D01*
X114723267Y-68982862D01*
X114749756Y-68980000D01*
X135456817Y-68980000D01*
X135456819Y-68980000D01*
X138800000Y-65658814D01*
X138800000Y-62967367D01*
X138819685Y-62900328D01*
X138872489Y-62854573D01*
X138925086Y-62843372D01*
X139914901Y-62852055D01*
X139940143Y-62852277D01*
X139940143Y-62852276D01*
X139940144Y-62852277D01*
X139940000Y-52430000D01*
X138948713Y-52430000D01*
X138881674Y-52410315D01*
X138835919Y-52357511D01*
X138824831Y-52311399D01*
X138786472Y-51431294D01*
X138803218Y-51363461D01*
X138853980Y-51315451D01*
X138910189Y-51301895D01*
X141858234Y-51298037D01*
X142310696Y-50845683D01*
X142317220Y-46627793D01*
X140522211Y-44825331D01*
X140522210Y-44825330D01*
X140522211Y-44825330D01*
X138544178Y-44820192D01*
X138477190Y-44800333D01*
X138431572Y-44747410D01*
X138420500Y-44696192D01*
X138420500Y-44318755D01*
X138420509Y-44317279D01*
X138430943Y-43440745D01*
X138451424Y-43373948D01*
X138467759Y-43354039D01*
X138648143Y-43175750D01*
X138709658Y-43142626D01*
X138735274Y-43139944D01*
X144327261Y-43138695D01*
X144394304Y-43158365D01*
G37*
%TD.AperFunction*%
%TD*%
%TA.AperFunction,Conductor*%
%TO.N,GND*%
G36*
X132605663Y-139850171D02*
G01*
X132654733Y-139899910D01*
X132669500Y-139958598D01*
X132669500Y-140832745D01*
X132649815Y-140899784D01*
X132633181Y-140920426D01*
X132180426Y-141373181D01*
X132153498Y-141387884D01*
X132127680Y-141404477D01*
X132121479Y-141405368D01*
X132119103Y-141406666D01*
X132092745Y-141409500D01*
X131930098Y-141409500D01*
X131863059Y-141389815D01*
X131842417Y-141373181D01*
X131798717Y-141329481D01*
X131798709Y-141329475D01*
X131661790Y-141250426D01*
X131661786Y-141250424D01*
X131661784Y-141250423D01*
X131582982Y-141229308D01*
X131523323Y-141192944D01*
X131492794Y-141130097D01*
X131501089Y-141060721D01*
X131541442Y-141009765D01*
X131574999Y-140984999D01*
X131653852Y-140878157D01*
X131697710Y-140752819D01*
X131700500Y-140723066D01*
X131700500Y-140276934D01*
X131697710Y-140247181D01*
X131697708Y-140247177D01*
X131697708Y-140247173D01*
X131653852Y-140121844D01*
X131653852Y-140121843D01*
X131603251Y-140053281D01*
X131579281Y-139987654D01*
X131594596Y-139919484D01*
X131644336Y-139870415D01*
X131712709Y-139856028D01*
X131759204Y-139873416D01*
X131760990Y-139870039D01*
X131769203Y-139874379D01*
X131769206Y-139874381D01*
X131823007Y-139893207D01*
X131893119Y-139917741D01*
X131900796Y-139918460D01*
X131922543Y-139920500D01*
X132297456Y-139920499D01*
X132326879Y-139917741D01*
X132450794Y-139874381D01*
X132471868Y-139858827D01*
X132537493Y-139834857D01*
X132605663Y-139850171D01*
G37*
%TD.AperFunction*%
%TA.AperFunction,Conductor*%
G36*
X129984939Y-127520185D02*
G01*
X130030694Y-127572989D01*
X130040638Y-127642147D01*
X130034940Y-127665458D01*
X130032258Y-127673120D01*
X130029500Y-127702538D01*
X130029500Y-128077453D01*
X130032258Y-128106874D01*
X130032260Y-128106884D01*
X130075619Y-128230794D01*
X130075619Y-128230795D01*
X130146154Y-128326367D01*
X130170125Y-128391996D01*
X130154809Y-128460166D01*
X130146154Y-128473633D01*
X130075619Y-128569204D01*
X130075619Y-128569205D01*
X130032258Y-128693118D01*
X130032258Y-128693120D01*
X130029500Y-128722538D01*
X130029500Y-129097453D01*
X130032258Y-129126874D01*
X130032259Y-129126879D01*
X130050186Y-129178112D01*
X130053747Y-129247891D01*
X130019018Y-129308518D01*
X129957024Y-129340745D01*
X129892189Y-129336107D01*
X129766880Y-129292258D01*
X129737461Y-129289500D01*
X129262546Y-129289500D01*
X129233125Y-129292258D01*
X129233117Y-129292259D01*
X129193849Y-129306000D01*
X129124070Y-129309561D01*
X129063443Y-129274831D01*
X129031217Y-129212838D01*
X129035855Y-129148002D01*
X129043247Y-129126879D01*
X129067741Y-129056879D01*
X129070500Y-129027457D01*
X129070499Y-128652544D01*
X129067741Y-128623121D01*
X129024381Y-128499206D01*
X128946423Y-128393577D01*
X128946420Y-128393575D01*
X128946418Y-128393572D01*
X128900865Y-128359952D01*
X128858615Y-128304304D01*
X128850500Y-128260183D01*
X128850500Y-127867255D01*
X128870185Y-127800216D01*
X128886819Y-127779574D01*
X129129574Y-127536819D01*
X129190897Y-127503334D01*
X129217255Y-127500500D01*
X129917900Y-127500500D01*
X129984939Y-127520185D01*
G37*
%TD.AperFunction*%
%TA.AperFunction,Conductor*%
G36*
X116093039Y-110619685D02*
G01*
X116138794Y-110672489D01*
X116150000Y-110724000D01*
X116150000Y-118000000D01*
X120346111Y-122196111D01*
X124371521Y-122188162D01*
X124379232Y-122188389D01*
X124391733Y-122189145D01*
X124434107Y-122200500D01*
X124434108Y-122200500D01*
X124579246Y-122200500D01*
X124582995Y-122200727D01*
X124612477Y-122211357D01*
X124642539Y-122220185D01*
X124645075Y-122223112D01*
X124648722Y-122224427D01*
X124667783Y-122249318D01*
X124688294Y-122272989D01*
X124689240Y-122277338D01*
X124691202Y-122279900D01*
X124692060Y-122290300D01*
X124699500Y-122324500D01*
X124699500Y-122432710D01*
X124690063Y-122480159D01*
X124687016Y-122487513D01*
X124668258Y-122557520D01*
X124649500Y-122627525D01*
X124649500Y-122772475D01*
X124687016Y-122912485D01*
X124687017Y-122912488D01*
X124759488Y-123038011D01*
X124759490Y-123038013D01*
X124759491Y-123038015D01*
X124861985Y-123140509D01*
X124861986Y-123140510D01*
X124861988Y-123140511D01*
X124987511Y-123212982D01*
X124987512Y-123212982D01*
X124987515Y-123212984D01*
X125127525Y-123250500D01*
X125127528Y-123250500D01*
X125272472Y-123250500D01*
X125272475Y-123250500D01*
X125412485Y-123212984D01*
X125538015Y-123140509D01*
X125640509Y-123038015D01*
X125712984Y-122912485D01*
X125750500Y-122772475D01*
X125750500Y-122627525D01*
X125712984Y-122487515D01*
X125712982Y-122487511D01*
X125709937Y-122480159D01*
X125708310Y-122471983D01*
X125705523Y-122467645D01*
X125700500Y-122432710D01*
X125700500Y-122309293D01*
X125720185Y-122242254D01*
X125772989Y-122196499D01*
X125824248Y-122185294D01*
X126747542Y-122183471D01*
X126814615Y-122203022D01*
X126860474Y-122255736D01*
X126870554Y-122324875D01*
X126855169Y-122369470D01*
X126787017Y-122487511D01*
X126787016Y-122487515D01*
X126749500Y-122627525D01*
X126749500Y-122772475D01*
X126787016Y-122912485D01*
X126787017Y-122912488D01*
X126859488Y-123038011D01*
X126859490Y-123038013D01*
X126859491Y-123038015D01*
X126961985Y-123140509D01*
X126961986Y-123140510D01*
X126961988Y-123140511D01*
X127087511Y-123212982D01*
X127087512Y-123212982D01*
X127087515Y-123212984D01*
X127227525Y-123250500D01*
X127227528Y-123250500D01*
X127372472Y-123250500D01*
X127372475Y-123250500D01*
X127512485Y-123212984D01*
X127512488Y-123212981D01*
X127519838Y-123209938D01*
X127567289Y-123200500D01*
X129765890Y-123200500D01*
X129765892Y-123200500D01*
X129893186Y-123166392D01*
X130007314Y-123100500D01*
X130850500Y-122257314D01*
X130862149Y-122237136D01*
X130912713Y-122188920D01*
X130969285Y-122175135D01*
X141796242Y-122153758D01*
X145850000Y-118100000D01*
X145850000Y-110724000D01*
X145869685Y-110656961D01*
X145922489Y-110611206D01*
X145974000Y-110600000D01*
X152026000Y-110600000D01*
X152093039Y-110619685D01*
X152138794Y-110672489D01*
X152150000Y-110724000D01*
X152150000Y-147297998D01*
X152130315Y-147365037D01*
X152114116Y-147385242D01*
X151350033Y-148156965D01*
X151288878Y-148190755D01*
X151262106Y-148193721D01*
X133482089Y-148220866D01*
X133415020Y-148201284D01*
X133369184Y-148148550D01*
X133357900Y-148096866D01*
X133357900Y-146240631D01*
X133331112Y-146071503D01*
X133331112Y-146071500D01*
X133278196Y-145908642D01*
X133200456Y-145756067D01*
X133200453Y-145756063D01*
X133200453Y-145756062D01*
X133171234Y-145715847D01*
X133099804Y-145617532D01*
X132978719Y-145496447D01*
X132926580Y-145458566D01*
X132840188Y-145395797D01*
X132840185Y-145395796D01*
X132840186Y-145395796D01*
X132840184Y-145395795D01*
X132687609Y-145318055D01*
X132524751Y-145265139D01*
X132524749Y-145265138D01*
X132524747Y-145265138D01*
X132406658Y-145246434D01*
X132355620Y-145238351D01*
X132184380Y-145238351D01*
X132145173Y-145244560D01*
X132015252Y-145265138D01*
X131852388Y-145318056D01*
X131699814Y-145395796D01*
X131699811Y-145395797D01*
X131596039Y-145471193D01*
X131561281Y-145496447D01*
X131561279Y-145496449D01*
X131561278Y-145496449D01*
X131440198Y-145617529D01*
X131440198Y-145617530D01*
X131440196Y-145617532D01*
X131414942Y-145652290D01*
X131339546Y-145756062D01*
X131339545Y-145756065D01*
X131261805Y-145908639D01*
X131208887Y-146071503D01*
X131182100Y-146240631D01*
X131182100Y-148100567D01*
X131179576Y-148109161D01*
X131180865Y-148118027D01*
X131169884Y-148142168D01*
X131162415Y-148167606D01*
X131155646Y-148173470D01*
X131151937Y-148181627D01*
X131129646Y-148196000D01*
X131109611Y-148213361D01*
X131099195Y-148215635D01*
X131093216Y-148219491D01*
X131058289Y-148224567D01*
X130942089Y-148224744D01*
X130875020Y-148205161D01*
X130829184Y-148152427D01*
X130817900Y-148100744D01*
X130817900Y-146240631D01*
X130791112Y-146071503D01*
X130791112Y-146071500D01*
X130738196Y-145908642D01*
X130660456Y-145756067D01*
X130660453Y-145756063D01*
X130660453Y-145756062D01*
X130631234Y-145715847D01*
X130559804Y-145617532D01*
X130438719Y-145496447D01*
X130386580Y-145458566D01*
X130300188Y-145395797D01*
X130300185Y-145395796D01*
X130300186Y-145395796D01*
X130300184Y-145395795D01*
X130147609Y-145318055D01*
X129984751Y-145265139D01*
X129984749Y-145265138D01*
X129984747Y-145265138D01*
X129866658Y-145246434D01*
X129815620Y-145238351D01*
X129644380Y-145238351D01*
X129605173Y-145244560D01*
X129475252Y-145265138D01*
X129312388Y-145318056D01*
X129159814Y-145395796D01*
X129159811Y-145395797D01*
X129056039Y-145471193D01*
X129021281Y-145496447D01*
X129021279Y-145496449D01*
X129021278Y-145496449D01*
X128900198Y-145617529D01*
X128900198Y-145617530D01*
X128900196Y-145617532D01*
X128874942Y-145652290D01*
X128799546Y-145756062D01*
X128799545Y-145756065D01*
X128721805Y-145908639D01*
X128668887Y-146071503D01*
X128642100Y-146240631D01*
X128642100Y-148104445D01*
X128639576Y-148113039D01*
X128640865Y-148121905D01*
X128629884Y-148146046D01*
X128622415Y-148171484D01*
X128615646Y-148177348D01*
X128611937Y-148185505D01*
X128589646Y-148199878D01*
X128569611Y-148217239D01*
X128559195Y-148219513D01*
X128553216Y-148223369D01*
X128518289Y-148228445D01*
X128402089Y-148228622D01*
X128335020Y-148209039D01*
X128289184Y-148156305D01*
X128277900Y-148104622D01*
X128277900Y-146240631D01*
X128251112Y-146071503D01*
X128251112Y-146071500D01*
X128198196Y-145908642D01*
X128120456Y-145756067D01*
X128120453Y-145756063D01*
X128120453Y-145756062D01*
X128091234Y-145715847D01*
X128019804Y-145617532D01*
X127898719Y-145496447D01*
X127846580Y-145458566D01*
X127760188Y-145395797D01*
X127760185Y-145395796D01*
X127760186Y-145395796D01*
X127760184Y-145395795D01*
X127607609Y-145318055D01*
X127444751Y-145265139D01*
X127444749Y-145265138D01*
X127444747Y-145265138D01*
X127326658Y-145246434D01*
X127275620Y-145238351D01*
X127104380Y-145238351D01*
X127065173Y-145244560D01*
X126935252Y-145265138D01*
X126772388Y-145318056D01*
X126619814Y-145395796D01*
X126619811Y-145395797D01*
X126516039Y-145471193D01*
X126481281Y-145496447D01*
X126481279Y-145496449D01*
X126481278Y-145496449D01*
X126360198Y-145617529D01*
X126360198Y-145617530D01*
X126360196Y-145617532D01*
X126334942Y-145652290D01*
X126259546Y-145756062D01*
X126259545Y-145756065D01*
X126181805Y-145908639D01*
X126128887Y-146071503D01*
X126102100Y-146240631D01*
X126102100Y-148108323D01*
X126082415Y-148175362D01*
X126029611Y-148221117D01*
X125978289Y-148232323D01*
X110783064Y-148255522D01*
X110715995Y-148235940D01*
X110695689Y-148219694D01*
X109886803Y-147419697D01*
X109852981Y-147358562D01*
X109850000Y-147331535D01*
X109850000Y-144100004D01*
X128929500Y-144100004D01*
X128929500Y-144257697D01*
X128960261Y-144412340D01*
X128960264Y-144412352D01*
X129020602Y-144558023D01*
X129020609Y-144558036D01*
X129108210Y-144689139D01*
X129108213Y-144689143D01*
X129219707Y-144800637D01*
X129219711Y-144800640D01*
X129350814Y-144888241D01*
X129350827Y-144888248D01*
X129496498Y-144948586D01*
X129496503Y-144948588D01*
X129651153Y-144979350D01*
X129651156Y-144979351D01*
X129651158Y-144979351D01*
X129808844Y-144979351D01*
X129808845Y-144979350D01*
X129963497Y-144948588D01*
X130109179Y-144888245D01*
X130240289Y-144800640D01*
X130351789Y-144689140D01*
X130439394Y-144558030D01*
X130499737Y-144412348D01*
X130530500Y-144257693D01*
X130530500Y-144100009D01*
X130530500Y-144100006D01*
X130530499Y-144100004D01*
X130499738Y-143945361D01*
X130499737Y-143945354D01*
X130499735Y-143945349D01*
X130439397Y-143799678D01*
X130439390Y-143799665D01*
X130351789Y-143668562D01*
X130351786Y-143668558D01*
X130240292Y-143557064D01*
X130240288Y-143557061D01*
X130109185Y-143469460D01*
X130109172Y-143469453D01*
X129977010Y-143414711D01*
X129977009Y-143414711D01*
X129963497Y-143409114D01*
X129963489Y-143409112D01*
X129808845Y-143378351D01*
X129808842Y-143378351D01*
X129651158Y-143378351D01*
X129651155Y-143378351D01*
X129496510Y-143409112D01*
X129496498Y-143409115D01*
X129350827Y-143469453D01*
X129350814Y-143469460D01*
X129219711Y-143557061D01*
X129219707Y-143557064D01*
X129108213Y-143668558D01*
X129108210Y-143668562D01*
X129020609Y-143799665D01*
X129020602Y-143799678D01*
X128960264Y-143945349D01*
X128960261Y-143945361D01*
X128929500Y-144100004D01*
X109850000Y-144100004D01*
X109850000Y-143303856D01*
X136934500Y-143303856D01*
X136934500Y-143836144D01*
X136939825Y-143880494D01*
X136944640Y-143920588D01*
X136997636Y-144054976D01*
X137084921Y-144170078D01*
X137200023Y-144257363D01*
X137200024Y-144257363D01*
X137200025Y-144257364D01*
X137334410Y-144310359D01*
X137418856Y-144320500D01*
X137418862Y-144320500D01*
X138001138Y-144320500D01*
X138001144Y-144320500D01*
X138085590Y-144310359D01*
X138219975Y-144257364D01*
X138335078Y-144170078D01*
X138422364Y-144054975D01*
X138475359Y-143920590D01*
X138485500Y-143836144D01*
X138485500Y-143303856D01*
X138475359Y-143219410D01*
X138422364Y-143085025D01*
X138422363Y-143085024D01*
X138422363Y-143085023D01*
X138335078Y-142969921D01*
X138219976Y-142882636D01*
X138085588Y-142829640D01*
X138042242Y-142824435D01*
X138001144Y-142819500D01*
X137418856Y-142819500D01*
X137380841Y-142824065D01*
X137334411Y-142829640D01*
X137200023Y-142882636D01*
X137084921Y-142969921D01*
X136997636Y-143085023D01*
X136944640Y-143219411D01*
X136939065Y-143265841D01*
X136934500Y-143303856D01*
X109850000Y-143303856D01*
X109850000Y-132779886D01*
X109869685Y-132712847D01*
X109886319Y-132692205D01*
X109940509Y-132638015D01*
X110012984Y-132512485D01*
X110050500Y-132372475D01*
X110050500Y-132227525D01*
X110012984Y-132087515D01*
X109940509Y-131961985D01*
X109886319Y-131907795D01*
X109871615Y-131880867D01*
X109855023Y-131855049D01*
X109854131Y-131848848D01*
X109852834Y-131846472D01*
X109850000Y-131820114D01*
X109850000Y-131779886D01*
X109869685Y-131712847D01*
X109886319Y-131692205D01*
X109913350Y-131665174D01*
X109940509Y-131638015D01*
X110012984Y-131512485D01*
X110050500Y-131372475D01*
X110050500Y-131227525D01*
X110012984Y-131087515D01*
X109940509Y-130961985D01*
X109886319Y-130907795D01*
X109852834Y-130846472D01*
X109850000Y-130820114D01*
X109850000Y-128777525D01*
X126149500Y-128777525D01*
X126149500Y-128922475D01*
X126185514Y-129056878D01*
X126187017Y-129062488D01*
X126259488Y-129188011D01*
X126259490Y-129188013D01*
X126259491Y-129188015D01*
X126361985Y-129290509D01*
X126361986Y-129290510D01*
X126361988Y-129290511D01*
X126487511Y-129362982D01*
X126487512Y-129362982D01*
X126487515Y-129362984D01*
X126627525Y-129400500D01*
X126627528Y-129400500D01*
X126772472Y-129400500D01*
X126772475Y-129400500D01*
X126912485Y-129362984D01*
X126917333Y-129360185D01*
X126922655Y-129357113D01*
X126984655Y-129340500D01*
X127764279Y-129340500D01*
X127831318Y-129360185D01*
X127877073Y-129412989D01*
X127887017Y-129482147D01*
X127877903Y-129510160D01*
X127878688Y-129510435D01*
X127832258Y-129643118D01*
X127832258Y-129643120D01*
X127829500Y-129672538D01*
X127829500Y-130047453D01*
X127832258Y-130076874D01*
X127832260Y-130076884D01*
X127875618Y-130200792D01*
X127953574Y-130306420D01*
X127953575Y-130306421D01*
X127953577Y-130306423D01*
X127999133Y-130340045D01*
X128041384Y-130395690D01*
X128049500Y-130439814D01*
X128049500Y-134647273D01*
X128049500Y-134752727D01*
X128061208Y-134796423D01*
X128076793Y-134854589D01*
X128086002Y-134870539D01*
X128129520Y-134945913D01*
X128679519Y-135495912D01*
X128679520Y-135495913D01*
X128754087Y-135570480D01*
X128845413Y-135623207D01*
X128947273Y-135650500D01*
X129907163Y-135650500D01*
X129961624Y-135663100D01*
X130016372Y-135689865D01*
X130016373Y-135689865D01*
X130016375Y-135689866D01*
X130089364Y-135700500D01*
X130089370Y-135700500D01*
X130860630Y-135700500D01*
X130860636Y-135700500D01*
X130933625Y-135689866D01*
X131007422Y-135653789D01*
X131046210Y-135634827D01*
X131134827Y-135546210D01*
X131166856Y-135480693D01*
X131189866Y-135433625D01*
X131200500Y-135360636D01*
X131200500Y-135139364D01*
X131189866Y-135066375D01*
X131147375Y-134979460D01*
X131135616Y-134910588D01*
X131147376Y-134870539D01*
X131157662Y-134849500D01*
X131189866Y-134783625D01*
X131200500Y-134710636D01*
X131200500Y-134489364D01*
X131189866Y-134416375D01*
X131147375Y-134329460D01*
X131135616Y-134260588D01*
X131147376Y-134220539D01*
X131189865Y-134133627D01*
X131189864Y-134133627D01*
X131189866Y-134133625D01*
X131200500Y-134060636D01*
X131200500Y-133839364D01*
X131189866Y-133766375D01*
X131147375Y-133679460D01*
X131135616Y-133610588D01*
X131147376Y-133570539D01*
X131189865Y-133483627D01*
X131189864Y-133483627D01*
X131189866Y-133483625D01*
X131200500Y-133410636D01*
X131200500Y-133189364D01*
X131200500Y-133189363D01*
X131200176Y-133184895D01*
X131201735Y-133184781D01*
X131210588Y-133122233D01*
X131256227Y-133069329D01*
X131323222Y-133049496D01*
X131334883Y-133050329D01*
X131334895Y-133050176D01*
X131339363Y-133050500D01*
X131339364Y-133050500D01*
X131560630Y-133050500D01*
X131560636Y-133050500D01*
X131633625Y-133039866D01*
X131720539Y-132997375D01*
X131789412Y-132985616D01*
X131829459Y-132997375D01*
X131862728Y-133013639D01*
X131916372Y-133039865D01*
X131916373Y-133039865D01*
X131916375Y-133039866D01*
X131989364Y-133050500D01*
X131989370Y-133050500D01*
X132210630Y-133050500D01*
X132210636Y-133050500D01*
X132283625Y-133039866D01*
X132370539Y-132997375D01*
X132439412Y-132985616D01*
X132479459Y-132997375D01*
X132512728Y-133013639D01*
X132566372Y-133039865D01*
X132566373Y-133039865D01*
X132566375Y-133039866D01*
X132639364Y-133050500D01*
X132639370Y-133050500D01*
X132860630Y-133050500D01*
X132860636Y-133050500D01*
X132933625Y-133039866D01*
X133020539Y-132997375D01*
X133089412Y-132985616D01*
X133129459Y-132997375D01*
X133162728Y-133013639D01*
X133216372Y-133039865D01*
X133216373Y-133039865D01*
X133216375Y-133039866D01*
X133289364Y-133050500D01*
X133289370Y-133050500D01*
X133510637Y-133050500D01*
X133515105Y-133050176D01*
X133515218Y-133051737D01*
X133577759Y-133060585D01*
X133630666Y-133106220D01*
X133650503Y-133173215D01*
X133649671Y-133184883D01*
X133649824Y-133184895D01*
X133649500Y-133189363D01*
X133649500Y-133189364D01*
X133649500Y-133410636D01*
X133658614Y-133473198D01*
X133660134Y-133483626D01*
X133702624Y-133570540D01*
X133714383Y-133639413D01*
X133702624Y-133679460D01*
X133660134Y-133766373D01*
X133660134Y-133766375D01*
X133649500Y-133839364D01*
X133649500Y-134060636D01*
X133658614Y-134123198D01*
X133660134Y-134133626D01*
X133702624Y-134220540D01*
X133714383Y-134289413D01*
X133702624Y-134329460D01*
X133660134Y-134416373D01*
X133660134Y-134416375D01*
X133649500Y-134489364D01*
X133649500Y-134710636D01*
X133656457Y-134758386D01*
X133660134Y-134783626D01*
X133702624Y-134870540D01*
X133714383Y-134939413D01*
X133702624Y-134979460D01*
X133660134Y-135066373D01*
X133660134Y-135066375D01*
X133649500Y-135139364D01*
X133649500Y-135139369D01*
X133649500Y-135360636D01*
X133649824Y-135365105D01*
X133648272Y-135365217D01*
X133639393Y-135427804D01*
X133593737Y-135480693D01*
X133526734Y-135500503D01*
X133515116Y-135499672D01*
X133515105Y-135499824D01*
X133510637Y-135499500D01*
X133510636Y-135499500D01*
X133289364Y-135499500D01*
X133234622Y-135507475D01*
X133216373Y-135510134D01*
X133129460Y-135552624D01*
X133060587Y-135564383D01*
X133020540Y-135552624D01*
X132933626Y-135510134D01*
X132923198Y-135508614D01*
X132860636Y-135499500D01*
X132639364Y-135499500D01*
X132584622Y-135507475D01*
X132566373Y-135510134D01*
X132479460Y-135552624D01*
X132410587Y-135564383D01*
X132370540Y-135552624D01*
X132283626Y-135510134D01*
X132273198Y-135508614D01*
X132210636Y-135499500D01*
X131989364Y-135499500D01*
X131916375Y-135510134D01*
X131916373Y-135510134D01*
X131916371Y-135510135D01*
X131803789Y-135565172D01*
X131715172Y-135653789D01*
X131660135Y-135766371D01*
X131660134Y-135766373D01*
X131660134Y-135766375D01*
X131649500Y-135839364D01*
X131649500Y-136610636D01*
X131654086Y-136642113D01*
X131660134Y-136683627D01*
X131682153Y-136728666D01*
X131692827Y-136750500D01*
X131696900Y-136758830D01*
X131709500Y-136813291D01*
X131709500Y-137125500D01*
X131689815Y-137192539D01*
X131637011Y-137238294D01*
X131585500Y-137249500D01*
X128836878Y-137249500D01*
X128769839Y-137229815D01*
X128724084Y-137177011D01*
X128722215Y-137172069D01*
X128722068Y-137172131D01*
X128659397Y-137020827D01*
X128659390Y-137020814D01*
X128571789Y-136889711D01*
X128571786Y-136889707D01*
X128460292Y-136778213D01*
X128460288Y-136778210D01*
X128329185Y-136690609D01*
X128329172Y-136690602D01*
X128183501Y-136630264D01*
X128183489Y-136630261D01*
X128028845Y-136599500D01*
X128028842Y-136599500D01*
X127871158Y-136599500D01*
X127871155Y-136599500D01*
X127716510Y-136630261D01*
X127716498Y-136630264D01*
X127570827Y-136690602D01*
X127570814Y-136690609D01*
X127439711Y-136778210D01*
X127439707Y-136778213D01*
X127328213Y-136889707D01*
X127328210Y-136889711D01*
X127240609Y-137020814D01*
X127240602Y-137020827D01*
X127180264Y-137166498D01*
X127180261Y-137166510D01*
X127149500Y-137321153D01*
X127149500Y-137478846D01*
X127180261Y-137633489D01*
X127180264Y-137633501D01*
X127240602Y-137779172D01*
X127240609Y-137779185D01*
X127328210Y-137910288D01*
X127328213Y-137910292D01*
X127439707Y-138021786D01*
X127439711Y-138021789D01*
X127570814Y-138109390D01*
X127570827Y-138109397D01*
X127670944Y-138150866D01*
X127716503Y-138169737D01*
X127850642Y-138196419D01*
X127871153Y-138200499D01*
X127871156Y-138200500D01*
X127871158Y-138200500D01*
X128028844Y-138200500D01*
X128028845Y-138200499D01*
X128183497Y-138169737D01*
X128329179Y-138109394D01*
X128386044Y-138071397D01*
X128452721Y-138050520D01*
X128454935Y-138050500D01*
X131585500Y-138050500D01*
X131652539Y-138070185D01*
X131698294Y-138122989D01*
X131709500Y-138174500D01*
X131709500Y-138685683D01*
X131689815Y-138752722D01*
X131637011Y-138798477D01*
X131567853Y-138808421D01*
X131511866Y-138785453D01*
X131467517Y-138752722D01*
X131430794Y-138725619D01*
X131430792Y-138725618D01*
X131306880Y-138682258D01*
X131277461Y-138679500D01*
X130902546Y-138679500D01*
X130873125Y-138682258D01*
X130873115Y-138682260D01*
X130749207Y-138725618D01*
X130643577Y-138803577D01*
X130643574Y-138803580D01*
X130609954Y-138849134D01*
X130554306Y-138891384D01*
X130510184Y-138899500D01*
X127879386Y-138899500D01*
X127812347Y-138879815D01*
X127791705Y-138863181D01*
X127788017Y-138859493D01*
X127788011Y-138859488D01*
X127662488Y-138787017D01*
X127662489Y-138787017D01*
X127651006Y-138783940D01*
X127522475Y-138749500D01*
X127377525Y-138749500D01*
X127248993Y-138783940D01*
X127237511Y-138787017D01*
X127111988Y-138859488D01*
X127111982Y-138859493D01*
X127009493Y-138961982D01*
X127009488Y-138961988D01*
X126937017Y-139087511D01*
X126937016Y-139087515D01*
X126899500Y-139227525D01*
X126899500Y-139372475D01*
X126937016Y-139512485D01*
X126937017Y-139512488D01*
X127009488Y-139638011D01*
X127009490Y-139638013D01*
X127009491Y-139638015D01*
X127111985Y-139740509D01*
X127111986Y-139740510D01*
X127111988Y-139740511D01*
X127237511Y-139812982D01*
X127237512Y-139812982D01*
X127237515Y-139812984D01*
X127377525Y-139850500D01*
X127377528Y-139850500D01*
X127522472Y-139850500D01*
X127522475Y-139850500D01*
X127662485Y-139812984D01*
X127788015Y-139740509D01*
X127791705Y-139736819D01*
X127853028Y-139703334D01*
X127879386Y-139700500D01*
X130510184Y-139700500D01*
X130512285Y-139701117D01*
X130514407Y-139700572D01*
X130545661Y-139710917D01*
X130577223Y-139720185D01*
X130579307Y-139722054D01*
X130580738Y-139722528D01*
X130591791Y-139733249D01*
X130606608Y-139746536D01*
X130608332Y-139748669D01*
X130643577Y-139796423D01*
X130651926Y-139802584D01*
X130661924Y-139814950D01*
X130669482Y-139833112D01*
X130681380Y-139848780D01*
X130685642Y-139871946D01*
X130688768Y-139879458D01*
X130687908Y-139884265D01*
X130689500Y-139892914D01*
X130689500Y-139941003D01*
X130669815Y-140008042D01*
X130665270Y-140014637D01*
X130586147Y-140121844D01*
X130542291Y-140247173D01*
X130542289Y-140247185D01*
X130539500Y-140276929D01*
X130539500Y-140723070D01*
X130542289Y-140752814D01*
X130542291Y-140752826D01*
X130586147Y-140878155D01*
X130586148Y-140878157D01*
X130665001Y-140984999D01*
X130771843Y-141063852D01*
X130810003Y-141077204D01*
X130897173Y-141107708D01*
X130897177Y-141107708D01*
X130897181Y-141107710D01*
X130912057Y-141109105D01*
X130926930Y-141110500D01*
X130981372Y-141110500D01*
X131048411Y-141130185D01*
X131094166Y-141182989D01*
X131104110Y-141252147D01*
X131075085Y-141315703D01*
X131066804Y-141323506D01*
X131067031Y-141323733D01*
X130949481Y-141441282D01*
X130949475Y-141441290D01*
X130870426Y-141578209D01*
X130870423Y-141578216D01*
X130829500Y-141730943D01*
X130829500Y-141889056D01*
X130870423Y-142041783D01*
X130870426Y-142041790D01*
X130949475Y-142178709D01*
X130949479Y-142178714D01*
X130949480Y-142178716D01*
X131061284Y-142290520D01*
X131061286Y-142290521D01*
X131061290Y-142290524D01*
X131198209Y-142369573D01*
X131198216Y-142369577D01*
X131350943Y-142410500D01*
X131350945Y-142410500D01*
X131509055Y-142410500D01*
X131509057Y-142410500D01*
X131661784Y-142369577D01*
X131798716Y-142290520D01*
X131842417Y-142246819D01*
X131903740Y-142213334D01*
X131930098Y-142210500D01*
X132362725Y-142210500D01*
X132362727Y-142210500D01*
X132464588Y-142183207D01*
X132555913Y-142130480D01*
X133390480Y-141295913D01*
X133443207Y-141204587D01*
X133470500Y-141102727D01*
X133470500Y-140667273D01*
X133470500Y-139712729D01*
X133470501Y-139712716D01*
X133470501Y-139597275D01*
X133470501Y-139597273D01*
X133443207Y-139495412D01*
X133399551Y-139419799D01*
X133390480Y-139404087D01*
X133315913Y-139329520D01*
X133315911Y-139329518D01*
X132965913Y-138979520D01*
X132920250Y-138953156D01*
X132874589Y-138926793D01*
X132823657Y-138913146D01*
X132772727Y-138899500D01*
X132772726Y-138899500D01*
X132689816Y-138899500D01*
X132687713Y-138898882D01*
X132685592Y-138899428D01*
X132654346Y-138889084D01*
X132622777Y-138879815D01*
X132620690Y-138877943D01*
X132619262Y-138877471D01*
X132608216Y-138866757D01*
X132593391Y-138853463D01*
X132591668Y-138851333D01*
X132556423Y-138803577D01*
X132548074Y-138797415D01*
X132538075Y-138785048D01*
X132530511Y-138766870D01*
X132518608Y-138751188D01*
X132514352Y-138728037D01*
X132511232Y-138720540D01*
X132512090Y-138715736D01*
X132510500Y-138707085D01*
X132510500Y-138189698D01*
X132530185Y-138122659D01*
X132582989Y-138076904D01*
X132652147Y-138066960D01*
X132715703Y-138095985D01*
X132734265Y-138116059D01*
X132773882Y-138169737D01*
X132793577Y-138196423D01*
X132899206Y-138274381D01*
X132962915Y-138296674D01*
X133009641Y-138326034D01*
X133314897Y-138631290D01*
X133613181Y-138929573D01*
X133646666Y-138990896D01*
X133649500Y-139017254D01*
X133649500Y-139079057D01*
X133689283Y-139227527D01*
X133690423Y-139231783D01*
X133690426Y-139231790D01*
X133769475Y-139368709D01*
X133769479Y-139368714D01*
X133769480Y-139368716D01*
X133881284Y-139480520D01*
X133881286Y-139480521D01*
X133881290Y-139480524D01*
X134018209Y-139559573D01*
X134018216Y-139559577D01*
X134170943Y-139600500D01*
X134170945Y-139600500D01*
X134329056Y-139600500D01*
X134329057Y-139600500D01*
X134366414Y-139590490D01*
X134436264Y-139592152D01*
X134486190Y-139622583D01*
X134704087Y-139840480D01*
X134779924Y-139884265D01*
X134794904Y-139892914D01*
X134795412Y-139893207D01*
X134897273Y-139920500D01*
X137278573Y-139920500D01*
X137345612Y-139940185D01*
X137381675Y-139975610D01*
X137418207Y-140030284D01*
X137418213Y-140030292D01*
X137529707Y-140141786D01*
X137529711Y-140141789D01*
X137660814Y-140229390D01*
X137660827Y-140229397D01*
X137806498Y-140289735D01*
X137806503Y-140289737D01*
X137961153Y-140320499D01*
X137961156Y-140320500D01*
X137961158Y-140320500D01*
X138118844Y-140320500D01*
X138118845Y-140320499D01*
X138273497Y-140289737D01*
X138419179Y-140229394D01*
X138550289Y-140141789D01*
X138661789Y-140030289D01*
X138749394Y-139899179D01*
X138809737Y-139753497D01*
X138840500Y-139598842D01*
X138840500Y-139441158D01*
X138840500Y-139441155D01*
X138840499Y-139441153D01*
X138826089Y-139368709D01*
X138809737Y-139286503D01*
X138809735Y-139286498D01*
X138749397Y-139140827D01*
X138749390Y-139140814D01*
X138661789Y-139009711D01*
X138661786Y-139009707D01*
X138550292Y-138898213D01*
X138550288Y-138898210D01*
X138419185Y-138810609D01*
X138419172Y-138810602D01*
X138273501Y-138750264D01*
X138273489Y-138750261D01*
X138118845Y-138719500D01*
X138118842Y-138719500D01*
X137961158Y-138719500D01*
X137961155Y-138719500D01*
X137806510Y-138750261D01*
X137806498Y-138750264D01*
X137660827Y-138810602D01*
X137660814Y-138810609D01*
X137529711Y-138898210D01*
X137529707Y-138898213D01*
X137418213Y-139009707D01*
X137418207Y-139009715D01*
X137381675Y-139064390D01*
X137328063Y-139109196D01*
X137278573Y-139119500D01*
X135167255Y-139119500D01*
X135100216Y-139099815D01*
X135079574Y-139083181D01*
X134849530Y-138853137D01*
X134817437Y-138797550D01*
X134809577Y-138768216D01*
X134809574Y-138768211D01*
X134809574Y-138768209D01*
X134730524Y-138631290D01*
X134730518Y-138631282D01*
X134618715Y-138519479D01*
X134581718Y-138498119D01*
X134533503Y-138447551D01*
X134520281Y-138378944D01*
X134546249Y-138314080D01*
X134593442Y-138280355D01*
X134592579Y-138278723D01*
X134600791Y-138274382D01*
X134600790Y-138274382D01*
X134600794Y-138274381D01*
X134706423Y-138196423D01*
X134740046Y-138150866D01*
X134795694Y-138108616D01*
X134839816Y-138100500D01*
X135352725Y-138100500D01*
X135352727Y-138100500D01*
X135454588Y-138073207D01*
X135545913Y-138020480D01*
X136535703Y-137030687D01*
X136535708Y-137030684D01*
X136545911Y-137020480D01*
X136545913Y-137020480D01*
X136620480Y-136945913D01*
X136673207Y-136854587D01*
X136693672Y-136778211D01*
X136700501Y-136752727D01*
X136700501Y-136647273D01*
X136700500Y-136647269D01*
X136700500Y-131447273D01*
X136673207Y-131345413D01*
X136620480Y-131254087D01*
X136545913Y-131179520D01*
X135629771Y-130263378D01*
X135596286Y-130202055D01*
X135596309Y-130149233D01*
X135597708Y-130142823D01*
X135597710Y-130142819D01*
X135600500Y-130113066D01*
X135600500Y-129666934D01*
X135597710Y-129637181D01*
X135597708Y-129637177D01*
X135597708Y-129637173D01*
X135553852Y-129511844D01*
X135553852Y-129511843D01*
X135474999Y-129405001D01*
X135470864Y-129401949D01*
X135428615Y-129346301D01*
X135420500Y-129302181D01*
X135420500Y-127567275D01*
X135420499Y-127567271D01*
X135412979Y-127539206D01*
X135408741Y-127523387D01*
X135393207Y-127465412D01*
X135340480Y-127374087D01*
X134745913Y-126779520D01*
X134700250Y-126753156D01*
X134654589Y-126726793D01*
X134603657Y-126713146D01*
X134552727Y-126699500D01*
X128947273Y-126699500D01*
X128845413Y-126726793D01*
X128845410Y-126726794D01*
X128754085Y-126779521D01*
X128129522Y-127404084D01*
X128129518Y-127404090D01*
X128076792Y-127495413D01*
X128076791Y-127495414D01*
X128065059Y-127539204D01*
X128049500Y-127597271D01*
X128049500Y-128215500D01*
X128029815Y-128282539D01*
X127977011Y-128328294D01*
X127925500Y-128339500D01*
X126938081Y-128339500D01*
X126905988Y-128335275D01*
X126859364Y-128322782D01*
X126772475Y-128299500D01*
X126627525Y-128299500D01*
X126520066Y-128328294D01*
X126487511Y-128337017D01*
X126361988Y-128409488D01*
X126361982Y-128409493D01*
X126259493Y-128511982D01*
X126259488Y-128511988D01*
X126187017Y-128637511D01*
X126187016Y-128637515D01*
X126149500Y-128777525D01*
X109850000Y-128777525D01*
X109850000Y-110724000D01*
X109869685Y-110656961D01*
X109922489Y-110611206D01*
X109974000Y-110600000D01*
X116026000Y-110600000D01*
X116093039Y-110619685D01*
G37*
%TD.AperFunction*%
%TD*%
%TA.AperFunction,Conductor*%
%TO.N,/3V3*%
G36*
X137172121Y-52751823D02*
G01*
X137218614Y-52805479D01*
X137230000Y-52857821D01*
X137230000Y-55630988D01*
X137209998Y-55699109D01*
X137196881Y-55716129D01*
X136853284Y-56090962D01*
X136792509Y-56127662D01*
X136760403Y-56131821D01*
X131782190Y-56131821D01*
X131714069Y-56111819D01*
X131693095Y-56094916D01*
X131366905Y-55768726D01*
X131332879Y-55706414D01*
X131330000Y-55679631D01*
X131330000Y-53684011D01*
X131350002Y-53615890D01*
X131366905Y-53594916D01*
X131693095Y-53268726D01*
X131755407Y-53234700D01*
X131782190Y-53231821D01*
X135079999Y-53231821D01*
X135080000Y-53231821D01*
X135543096Y-52768724D01*
X135605407Y-52734701D01*
X135632190Y-52731821D01*
X137104000Y-52731821D01*
X137172121Y-52751823D01*
G37*
%TD.AperFunction*%
%TD*%
%TA.AperFunction,Conductor*%
%TO.N,GND*%
G36*
X146943039Y-84594685D02*
G01*
X146988794Y-84647489D01*
X147000000Y-84699000D01*
X147000000Y-90169566D01*
X149261712Y-92332943D01*
X149296551Y-92393506D01*
X149300000Y-92422550D01*
X149300000Y-97052416D01*
X149280315Y-97119455D01*
X149268170Y-97135366D01*
X148436942Y-98058953D01*
X148377465Y-98095613D01*
X148344775Y-98100000D01*
X134551362Y-98100000D01*
X134484323Y-98080315D01*
X134463681Y-98063681D01*
X133486319Y-97086319D01*
X133452834Y-97024996D01*
X133450000Y-96998638D01*
X133450000Y-91920300D01*
X133469685Y-91853261D01*
X133483345Y-91835698D01*
X133741229Y-91559392D01*
X133801362Y-91523814D01*
X133831880Y-91520000D01*
X142340000Y-91520000D01*
X143700000Y-90160000D01*
X143700000Y-84699000D01*
X143719685Y-84631961D01*
X143772489Y-84586206D01*
X143824000Y-84575000D01*
X146876000Y-84575000D01*
X146943039Y-84594685D01*
G37*
%TD.AperFunction*%
%TD*%
%TA.AperFunction,Conductor*%
%TO.N,/Power/SW1*%
G36*
X152519271Y-87887014D02*
G01*
X152586278Y-87906791D01*
X152631960Y-87959658D01*
X152637754Y-87975017D01*
X152700148Y-88180700D01*
X152831770Y-88498464D01*
X152831772Y-88498469D01*
X152993893Y-88801775D01*
X152993904Y-88801793D01*
X153184975Y-89087751D01*
X153184985Y-89087765D01*
X153403176Y-89353632D01*
X153646367Y-89596823D01*
X153646372Y-89596827D01*
X153646373Y-89596828D01*
X153912240Y-89815019D01*
X154198213Y-90006100D01*
X154198222Y-90006105D01*
X154198224Y-90006106D01*
X154501530Y-90168227D01*
X154501532Y-90168227D01*
X154501538Y-90168231D01*
X154819295Y-90299850D01*
X155148422Y-90399690D01*
X155485750Y-90466789D01*
X155828031Y-90500500D01*
X155828034Y-90500500D01*
X156171966Y-90500500D01*
X156171969Y-90500500D01*
X156514250Y-90466789D01*
X156851578Y-90399690D01*
X157180705Y-90299850D01*
X157478550Y-90176478D01*
X157548016Y-90169010D01*
X157610496Y-90200285D01*
X157646148Y-90260374D01*
X157650000Y-90291040D01*
X157650000Y-97208209D01*
X157630315Y-97275248D01*
X157613191Y-97296378D01*
X156786233Y-98114169D01*
X156724724Y-98147311D01*
X156699042Y-98150000D01*
X150514561Y-98150000D01*
X150447522Y-98130315D01*
X150412976Y-98097109D01*
X149772415Y-97182021D01*
X149750097Y-97115812D01*
X149750000Y-97110912D01*
X149750000Y-92223195D01*
X147493687Y-90084097D01*
X147458580Y-90023689D01*
X147455000Y-89994110D01*
X147455000Y-88004171D01*
X147474685Y-87937132D01*
X147527489Y-87891377D01*
X147579167Y-87880171D01*
X152519271Y-87887014D01*
G37*
%TD.AperFunction*%
%TD*%
%TA.AperFunction,Conductor*%
%TO.N,/Power/SW2*%
G36*
X129792053Y-87889685D02*
G01*
X129813021Y-87906646D01*
X132864009Y-90980564D01*
X132897264Y-91042011D01*
X132900000Y-91067915D01*
X132900000Y-97028982D01*
X132880315Y-97096021D01*
X132866296Y-97113968D01*
X132022037Y-98010986D01*
X131961757Y-98046312D01*
X131931741Y-98050000D01*
X125453450Y-98050000D01*
X125386411Y-98030315D01*
X125363300Y-98011141D01*
X124583850Y-97185841D01*
X124552130Y-97123587D01*
X124550000Y-97100700D01*
X124550000Y-91625000D01*
X123986444Y-91042011D01*
X123135134Y-90161346D01*
X123102695Y-90099465D01*
X123100292Y-90074452D01*
X123112342Y-87993281D01*
X123132414Y-87926358D01*
X123185482Y-87880909D01*
X123236340Y-87870000D01*
X129725014Y-87870000D01*
X129792053Y-87889685D01*
G37*
%TD.AperFunction*%
%TD*%
%TA.AperFunction,Conductor*%
%TO.N,GND*%
G36*
X122593039Y-84594685D02*
G01*
X122638794Y-84647489D01*
X122650000Y-84699000D01*
X122650000Y-90149334D01*
X123936472Y-91521571D01*
X124116463Y-91713561D01*
X124147953Y-91775932D01*
X124150000Y-91798370D01*
X124150000Y-97150824D01*
X124130315Y-97217863D01*
X124116297Y-97235809D01*
X123386720Y-98010985D01*
X123326439Y-98046312D01*
X123296423Y-98050000D01*
X108995655Y-98050000D01*
X108928616Y-98030315D01*
X108915245Y-98020394D01*
X108318590Y-97512132D01*
X108280322Y-97453675D01*
X108275000Y-97417738D01*
X108275000Y-92700548D01*
X108294685Y-92633509D01*
X108310335Y-92613861D01*
X109341804Y-91558949D01*
X109402744Y-91524781D01*
X109430627Y-91521643D01*
X118249956Y-91533927D01*
X118259778Y-91521571D01*
X118437198Y-91298363D01*
X119350000Y-90150000D01*
X119350000Y-84699000D01*
X119369685Y-84631961D01*
X119422489Y-84586206D01*
X119474000Y-84575000D01*
X122526000Y-84575000D01*
X122593039Y-84594685D01*
G37*
%TD.AperFunction*%
%TD*%
%TA.AperFunction,Conductor*%
%TO.N,/Vcore*%
G36*
X156517041Y-99669685D02*
G01*
X156536013Y-99684679D01*
X157137013Y-100263420D01*
X157171647Y-100324099D01*
X157175000Y-100352738D01*
X157175000Y-105547855D01*
X157155315Y-105614894D01*
X157137733Y-105636474D01*
X156036150Y-106714619D01*
X155974471Y-106747443D01*
X155949417Y-106750000D01*
X153400000Y-106750000D01*
X153399999Y-106750000D01*
X153399997Y-106750001D01*
X153386807Y-106763191D01*
X153325483Y-106796674D01*
X153279182Y-106795069D01*
X153278893Y-106797266D01*
X153219901Y-106789500D01*
X152800105Y-106789500D01*
X152784386Y-106791569D01*
X152750513Y-106796028D01*
X152750511Y-106796029D01*
X152750506Y-106796030D01*
X152649015Y-106843356D01*
X152628707Y-106850748D01*
X152556115Y-106870200D01*
X152556114Y-106870200D01*
X152453387Y-106929511D01*
X152453384Y-106929513D01*
X152369513Y-107013384D01*
X152369511Y-107013387D01*
X152354435Y-107039500D01*
X152310201Y-107116114D01*
X152279500Y-107230691D01*
X152279500Y-107349309D01*
X152310201Y-107463886D01*
X152369511Y-107566613D01*
X152369513Y-107566615D01*
X152388767Y-107585869D01*
X152422252Y-107647192D01*
X152417268Y-107716884D01*
X152388768Y-107761231D01*
X152150000Y-108000000D01*
X152150000Y-109851000D01*
X152130315Y-109918039D01*
X152077511Y-109963794D01*
X152026000Y-109975000D01*
X145974000Y-109975000D01*
X145906961Y-109955315D01*
X145861206Y-109902511D01*
X145850000Y-109851000D01*
X145850000Y-108000000D01*
X145661232Y-107811232D01*
X145627747Y-107749909D01*
X145632731Y-107680217D01*
X145661232Y-107635870D01*
X145688786Y-107608316D01*
X145720489Y-107576613D01*
X145779799Y-107473886D01*
X145810500Y-107359309D01*
X145810500Y-107240691D01*
X145779799Y-107126114D01*
X145720489Y-107023387D01*
X145636613Y-106939511D01*
X145533886Y-106880201D01*
X145419309Y-106849500D01*
X145300691Y-106849500D01*
X145298358Y-106850125D01*
X145296313Y-106850076D01*
X145292630Y-106850561D01*
X145292554Y-106849986D01*
X145228508Y-106848460D01*
X145213860Y-106842730D01*
X145199487Y-106836027D01*
X145149901Y-106829500D01*
X144730105Y-106829500D01*
X144718491Y-106831029D01*
X144680513Y-106836028D01*
X144680511Y-106836029D01*
X144680509Y-106836029D01*
X144571683Y-106886776D01*
X144515181Y-106943279D01*
X144453858Y-106976764D01*
X144384166Y-106971780D01*
X144339819Y-106943279D01*
X144293316Y-106896776D01*
X144271871Y-106886776D01*
X144184487Y-106846028D01*
X144184485Y-106846027D01*
X144184486Y-106846027D01*
X144134901Y-106839500D01*
X143715105Y-106839500D01*
X143699386Y-106841569D01*
X143665513Y-106846028D01*
X143665511Y-106846029D01*
X143665509Y-106846029D01*
X143556683Y-106896776D01*
X143471776Y-106981683D01*
X143465550Y-106990575D01*
X143463718Y-106989292D01*
X143427128Y-107030846D01*
X143360922Y-107050000D01*
X142849999Y-107050000D01*
X142536338Y-107363661D01*
X142475015Y-107397146D01*
X142464854Y-107398918D01*
X142460442Y-107399499D01*
X142384010Y-107419979D01*
X142321640Y-107455987D01*
X142321641Y-107455988D01*
X142315488Y-107459540D01*
X142315485Y-107459542D01*
X140861848Y-108913181D01*
X140800525Y-108946666D01*
X140774167Y-108949500D01*
X120925833Y-108949500D01*
X120858794Y-108929815D01*
X120838152Y-108913181D01*
X119334512Y-107409541D01*
X119334504Y-107409535D01*
X119320654Y-107401539D01*
X119320650Y-107401537D01*
X119311308Y-107396144D01*
X119265989Y-107369979D01*
X119189562Y-107349500D01*
X119178102Y-107349500D01*
X119158820Y-107342461D01*
X119141237Y-107329489D01*
X119121252Y-107320646D01*
X119113661Y-107313661D01*
X118850000Y-107050000D01*
X118314078Y-107050000D01*
X118247039Y-107030315D01*
X118211233Y-106989325D01*
X118209450Y-106990575D01*
X118203223Y-106981683D01*
X118118316Y-106896776D01*
X118096871Y-106886776D01*
X118009487Y-106846028D01*
X118009485Y-106846027D01*
X118009486Y-106846027D01*
X117959901Y-106839500D01*
X117540105Y-106839500D01*
X117524386Y-106841569D01*
X117490513Y-106846028D01*
X117490511Y-106846029D01*
X117490509Y-106846029D01*
X117381683Y-106896776D01*
X117345181Y-106933279D01*
X117283858Y-106966764D01*
X117214166Y-106961780D01*
X117169819Y-106933279D01*
X117118316Y-106881776D01*
X117075488Y-106861805D01*
X117009487Y-106831028D01*
X117009485Y-106831027D01*
X117009486Y-106831027D01*
X116959901Y-106824500D01*
X116540105Y-106824500D01*
X116524386Y-106826569D01*
X116490513Y-106831028D01*
X116490511Y-106831029D01*
X116490509Y-106831029D01*
X116381683Y-106881776D01*
X116296776Y-106966683D01*
X116246027Y-107075514D01*
X116239719Y-107123429D01*
X116224170Y-107169238D01*
X116220203Y-107176109D01*
X116220201Y-107176112D01*
X116204850Y-107233402D01*
X116189500Y-107290691D01*
X116189500Y-107409309D01*
X116220201Y-107523886D01*
X116279511Y-107626613D01*
X116279513Y-107626615D01*
X116313767Y-107660869D01*
X116347252Y-107722192D01*
X116342268Y-107791884D01*
X116313768Y-107836231D01*
X116150000Y-108000000D01*
X116150000Y-109876000D01*
X116130315Y-109943039D01*
X116077511Y-109988794D01*
X116026000Y-110000000D01*
X109974000Y-110000000D01*
X109906961Y-109980315D01*
X109861206Y-109927511D01*
X109850000Y-109876000D01*
X109850000Y-108000000D01*
X109739963Y-107889963D01*
X109706478Y-107828640D01*
X109711462Y-107758948D01*
X109752164Y-107703901D01*
X109756601Y-107700495D01*
X109756613Y-107700489D01*
X109840489Y-107616613D01*
X109899799Y-107513886D01*
X109930500Y-107399309D01*
X109930500Y-107280691D01*
X109899799Y-107166114D01*
X109840489Y-107063387D01*
X109756613Y-106979511D01*
X109653886Y-106920201D01*
X109539309Y-106889500D01*
X109539306Y-106889500D01*
X109508759Y-106889500D01*
X109456354Y-106877882D01*
X109409488Y-106856028D01*
X109409487Y-106856027D01*
X109359901Y-106849500D01*
X108940105Y-106849500D01*
X108924386Y-106851569D01*
X108890513Y-106856028D01*
X108890511Y-106856029D01*
X108890508Y-106856029D01*
X108843385Y-106878003D01*
X108774307Y-106888494D01*
X108710524Y-106859973D01*
X108703301Y-106853301D01*
X108150000Y-106300000D01*
X107627915Y-106300000D01*
X107560876Y-106280315D01*
X107538388Y-106261796D01*
X107034473Y-105735971D01*
X107002301Y-105673950D01*
X107000000Y-105650175D01*
X107000000Y-102049599D01*
X107019685Y-101982560D01*
X107034204Y-101964085D01*
X107963350Y-100988483D01*
X108023838Y-100953512D01*
X108053143Y-100950000D01*
X149100000Y-100950000D01*
X150363681Y-99686319D01*
X150425004Y-99652834D01*
X150451362Y-99650000D01*
X156450002Y-99650000D01*
X156517041Y-99669685D01*
G37*
%TD.AperFunction*%
%TD*%
M02*
