%TF.GenerationSoftware,KiCad,Pcbnew,8.0.7*%
%TF.CreationDate,2025-01-02T17:31:43-08:00*%
%TF.ProjectId,BitaxeGT,42697461-7865-4475-942e-6b696361645f,v800*%
%TF.SameCoordinates,Original*%
%TF.FileFunction,Legend,Top*%
%TF.FilePolarity,Positive*%
%FSLAX46Y46*%
G04 Gerber Fmt 4.6, Leading zero omitted, Abs format (unit mm)*
G04 Created by KiCad (PCBNEW 8.0.7) date 2025-01-02 17:31:43*
%MOMM*%
%LPD*%
G01*
G04 APERTURE LIST*
%ADD10C,0.150000*%
%ADD11C,0.300000*%
%ADD12C,0.000000*%
%ADD13C,0.152400*%
%ADD14C,0.050000*%
%ADD15C,0.227485*%
%ADD16C,0.120000*%
%ADD17C,0.100000*%
G04 APERTURE END LIST*
D10*
X141445112Y-43771009D02*
X141587969Y-43818628D01*
X141587969Y-43818628D02*
X141635588Y-43866247D01*
X141635588Y-43866247D02*
X141683207Y-43961485D01*
X141683207Y-43961485D02*
X141683207Y-44104342D01*
X141683207Y-44104342D02*
X141635588Y-44199580D01*
X141635588Y-44199580D02*
X141587969Y-44247200D01*
X141587969Y-44247200D02*
X141492731Y-44294819D01*
X141492731Y-44294819D02*
X141111779Y-44294819D01*
X141111779Y-44294819D02*
X141111779Y-43294819D01*
X141111779Y-43294819D02*
X141445112Y-43294819D01*
X141445112Y-43294819D02*
X141540350Y-43342438D01*
X141540350Y-43342438D02*
X141587969Y-43390057D01*
X141587969Y-43390057D02*
X141635588Y-43485295D01*
X141635588Y-43485295D02*
X141635588Y-43580533D01*
X141635588Y-43580533D02*
X141587969Y-43675771D01*
X141587969Y-43675771D02*
X141540350Y-43723390D01*
X141540350Y-43723390D02*
X141445112Y-43771009D01*
X141445112Y-43771009D02*
X141111779Y-43771009D01*
X142064160Y-44009104D02*
X142540350Y-44009104D01*
X141968922Y-44294819D02*
X142302255Y-43294819D01*
X142302255Y-43294819D02*
X142635588Y-44294819D01*
X142968922Y-44294819D02*
X142968922Y-43294819D01*
X142968922Y-43294819D02*
X143349874Y-43294819D01*
X143349874Y-43294819D02*
X143445112Y-43342438D01*
X143445112Y-43342438D02*
X143492731Y-43390057D01*
X143492731Y-43390057D02*
X143540350Y-43485295D01*
X143540350Y-43485295D02*
X143540350Y-43628152D01*
X143540350Y-43628152D02*
X143492731Y-43723390D01*
X143492731Y-43723390D02*
X143445112Y-43771009D01*
X143445112Y-43771009D02*
X143349874Y-43818628D01*
X143349874Y-43818628D02*
X142968922Y-43818628D01*
D11*
X131559272Y-69496780D02*
X131368796Y-69401542D01*
X131368796Y-69401542D02*
X131273558Y-69306304D01*
X131273558Y-69306304D02*
X131178320Y-69115828D01*
X131178320Y-69115828D02*
X131178320Y-69020590D01*
X131178320Y-69020590D02*
X131273558Y-68830114D01*
X131273558Y-68830114D02*
X131368796Y-68734876D01*
X131368796Y-68734876D02*
X131559272Y-68639638D01*
X131559272Y-68639638D02*
X131940225Y-68639638D01*
X131940225Y-68639638D02*
X132130701Y-68734876D01*
X132130701Y-68734876D02*
X132225939Y-68830114D01*
X132225939Y-68830114D02*
X132321177Y-69020590D01*
X132321177Y-69020590D02*
X132321177Y-69115828D01*
X132321177Y-69115828D02*
X132225939Y-69306304D01*
X132225939Y-69306304D02*
X132130701Y-69401542D01*
X132130701Y-69401542D02*
X131940225Y-69496780D01*
X131940225Y-69496780D02*
X131559272Y-69496780D01*
X131559272Y-69496780D02*
X131368796Y-69592019D01*
X131368796Y-69592019D02*
X131273558Y-69687257D01*
X131273558Y-69687257D02*
X131178320Y-69877733D01*
X131178320Y-69877733D02*
X131178320Y-70258685D01*
X131178320Y-70258685D02*
X131273558Y-70449161D01*
X131273558Y-70449161D02*
X131368796Y-70544400D01*
X131368796Y-70544400D02*
X131559272Y-70639638D01*
X131559272Y-70639638D02*
X131940225Y-70639638D01*
X131940225Y-70639638D02*
X132130701Y-70544400D01*
X132130701Y-70544400D02*
X132225939Y-70449161D01*
X132225939Y-70449161D02*
X132321177Y-70258685D01*
X132321177Y-70258685D02*
X132321177Y-69877733D01*
X132321177Y-69877733D02*
X132225939Y-69687257D01*
X132225939Y-69687257D02*
X132130701Y-69592019D01*
X132130701Y-69592019D02*
X131940225Y-69496780D01*
X133559272Y-68639638D02*
X133749749Y-68639638D01*
X133749749Y-68639638D02*
X133940225Y-68734876D01*
X133940225Y-68734876D02*
X134035463Y-68830114D01*
X134035463Y-68830114D02*
X134130701Y-69020590D01*
X134130701Y-69020590D02*
X134225939Y-69401542D01*
X134225939Y-69401542D02*
X134225939Y-69877733D01*
X134225939Y-69877733D02*
X134130701Y-70258685D01*
X134130701Y-70258685D02*
X134035463Y-70449161D01*
X134035463Y-70449161D02*
X133940225Y-70544400D01*
X133940225Y-70544400D02*
X133749749Y-70639638D01*
X133749749Y-70639638D02*
X133559272Y-70639638D01*
X133559272Y-70639638D02*
X133368796Y-70544400D01*
X133368796Y-70544400D02*
X133273558Y-70449161D01*
X133273558Y-70449161D02*
X133178320Y-70258685D01*
X133178320Y-70258685D02*
X133083082Y-69877733D01*
X133083082Y-69877733D02*
X133083082Y-69401542D01*
X133083082Y-69401542D02*
X133178320Y-69020590D01*
X133178320Y-69020590D02*
X133273558Y-68830114D01*
X133273558Y-68830114D02*
X133368796Y-68734876D01*
X133368796Y-68734876D02*
X133559272Y-68639638D01*
X135464034Y-68639638D02*
X135654511Y-68639638D01*
X135654511Y-68639638D02*
X135844987Y-68734876D01*
X135844987Y-68734876D02*
X135940225Y-68830114D01*
X135940225Y-68830114D02*
X136035463Y-69020590D01*
X136035463Y-69020590D02*
X136130701Y-69401542D01*
X136130701Y-69401542D02*
X136130701Y-69877733D01*
X136130701Y-69877733D02*
X136035463Y-70258685D01*
X136035463Y-70258685D02*
X135940225Y-70449161D01*
X135940225Y-70449161D02*
X135844987Y-70544400D01*
X135844987Y-70544400D02*
X135654511Y-70639638D01*
X135654511Y-70639638D02*
X135464034Y-70639638D01*
X135464034Y-70639638D02*
X135273558Y-70544400D01*
X135273558Y-70544400D02*
X135178320Y-70449161D01*
X135178320Y-70449161D02*
X135083082Y-70258685D01*
X135083082Y-70258685D02*
X134987844Y-69877733D01*
X134987844Y-69877733D02*
X134987844Y-69401542D01*
X134987844Y-69401542D02*
X135083082Y-69020590D01*
X135083082Y-69020590D02*
X135178320Y-68830114D01*
X135178320Y-68830114D02*
X135273558Y-68734876D01*
X135273558Y-68734876D02*
X135464034Y-68639638D01*
X136797368Y-70639638D02*
X137844987Y-69306304D01*
X136797368Y-69306304D02*
X137844987Y-70639638D01*
D10*
X123566667Y-148597200D02*
X123709524Y-148644819D01*
X123709524Y-148644819D02*
X123947619Y-148644819D01*
X123947619Y-148644819D02*
X124042857Y-148597200D01*
X124042857Y-148597200D02*
X124090476Y-148549580D01*
X124090476Y-148549580D02*
X124138095Y-148454342D01*
X124138095Y-148454342D02*
X124138095Y-148359104D01*
X124138095Y-148359104D02*
X124090476Y-148263866D01*
X124090476Y-148263866D02*
X124042857Y-148216247D01*
X124042857Y-148216247D02*
X123947619Y-148168628D01*
X123947619Y-148168628D02*
X123757143Y-148121009D01*
X123757143Y-148121009D02*
X123661905Y-148073390D01*
X123661905Y-148073390D02*
X123614286Y-148025771D01*
X123614286Y-148025771D02*
X123566667Y-147930533D01*
X123566667Y-147930533D02*
X123566667Y-147835295D01*
X123566667Y-147835295D02*
X123614286Y-147740057D01*
X123614286Y-147740057D02*
X123661905Y-147692438D01*
X123661905Y-147692438D02*
X123757143Y-147644819D01*
X123757143Y-147644819D02*
X123995238Y-147644819D01*
X123995238Y-147644819D02*
X124138095Y-147692438D01*
X124471429Y-147644819D02*
X124709524Y-148644819D01*
X124709524Y-148644819D02*
X124900000Y-147930533D01*
X124900000Y-147930533D02*
X125090476Y-148644819D01*
X125090476Y-148644819D02*
X125328572Y-147644819D01*
X125661905Y-147740057D02*
X125709524Y-147692438D01*
X125709524Y-147692438D02*
X125804762Y-147644819D01*
X125804762Y-147644819D02*
X126042857Y-147644819D01*
X126042857Y-147644819D02*
X126138095Y-147692438D01*
X126138095Y-147692438D02*
X126185714Y-147740057D01*
X126185714Y-147740057D02*
X126233333Y-147835295D01*
X126233333Y-147835295D02*
X126233333Y-147930533D01*
X126233333Y-147930533D02*
X126185714Y-148073390D01*
X126185714Y-148073390D02*
X125614286Y-148644819D01*
X125614286Y-148644819D02*
X126233333Y-148644819D01*
X112088095Y-106754819D02*
X112088095Y-107564342D01*
X112088095Y-107564342D02*
X112135714Y-107659580D01*
X112135714Y-107659580D02*
X112183333Y-107707200D01*
X112183333Y-107707200D02*
X112278571Y-107754819D01*
X112278571Y-107754819D02*
X112469047Y-107754819D01*
X112469047Y-107754819D02*
X112564285Y-107707200D01*
X112564285Y-107707200D02*
X112611904Y-107659580D01*
X112611904Y-107659580D02*
X112659523Y-107564342D01*
X112659523Y-107564342D02*
X112659523Y-106754819D01*
X113183333Y-107754819D02*
X113373809Y-107754819D01*
X113373809Y-107754819D02*
X113469047Y-107707200D01*
X113469047Y-107707200D02*
X113516666Y-107659580D01*
X113516666Y-107659580D02*
X113611904Y-107516723D01*
X113611904Y-107516723D02*
X113659523Y-107326247D01*
X113659523Y-107326247D02*
X113659523Y-106945295D01*
X113659523Y-106945295D02*
X113611904Y-106850057D01*
X113611904Y-106850057D02*
X113564285Y-106802438D01*
X113564285Y-106802438D02*
X113469047Y-106754819D01*
X113469047Y-106754819D02*
X113278571Y-106754819D01*
X113278571Y-106754819D02*
X113183333Y-106802438D01*
X113183333Y-106802438D02*
X113135714Y-106850057D01*
X113135714Y-106850057D02*
X113088095Y-106945295D01*
X113088095Y-106945295D02*
X113088095Y-107183390D01*
X113088095Y-107183390D02*
X113135714Y-107278628D01*
X113135714Y-107278628D02*
X113183333Y-107326247D01*
X113183333Y-107326247D02*
X113278571Y-107373866D01*
X113278571Y-107373866D02*
X113469047Y-107373866D01*
X113469047Y-107373866D02*
X113564285Y-107326247D01*
X113564285Y-107326247D02*
X113611904Y-107278628D01*
X113611904Y-107278628D02*
X113659523Y-107183390D01*
X111366667Y-148657200D02*
X111509524Y-148704819D01*
X111509524Y-148704819D02*
X111747619Y-148704819D01*
X111747619Y-148704819D02*
X111842857Y-148657200D01*
X111842857Y-148657200D02*
X111890476Y-148609580D01*
X111890476Y-148609580D02*
X111938095Y-148514342D01*
X111938095Y-148514342D02*
X111938095Y-148419104D01*
X111938095Y-148419104D02*
X111890476Y-148323866D01*
X111890476Y-148323866D02*
X111842857Y-148276247D01*
X111842857Y-148276247D02*
X111747619Y-148228628D01*
X111747619Y-148228628D02*
X111557143Y-148181009D01*
X111557143Y-148181009D02*
X111461905Y-148133390D01*
X111461905Y-148133390D02*
X111414286Y-148085771D01*
X111414286Y-148085771D02*
X111366667Y-147990533D01*
X111366667Y-147990533D02*
X111366667Y-147895295D01*
X111366667Y-147895295D02*
X111414286Y-147800057D01*
X111414286Y-147800057D02*
X111461905Y-147752438D01*
X111461905Y-147752438D02*
X111557143Y-147704819D01*
X111557143Y-147704819D02*
X111795238Y-147704819D01*
X111795238Y-147704819D02*
X111938095Y-147752438D01*
X112271429Y-147704819D02*
X112509524Y-148704819D01*
X112509524Y-148704819D02*
X112700000Y-147990533D01*
X112700000Y-147990533D02*
X112890476Y-148704819D01*
X112890476Y-148704819D02*
X113128572Y-147704819D01*
X114033333Y-148704819D02*
X113461905Y-148704819D01*
X113747619Y-148704819D02*
X113747619Y-147704819D01*
X113747619Y-147704819D02*
X113652381Y-147847676D01*
X113652381Y-147847676D02*
X113557143Y-147942914D01*
X113557143Y-147942914D02*
X113461905Y-147990533D01*
X147016666Y-148504819D02*
X147016666Y-149219104D01*
X147016666Y-149219104D02*
X146969047Y-149361961D01*
X146969047Y-149361961D02*
X146873809Y-149457200D01*
X146873809Y-149457200D02*
X146730952Y-149504819D01*
X146730952Y-149504819D02*
X146635714Y-149504819D01*
X147921428Y-148504819D02*
X147730952Y-148504819D01*
X147730952Y-148504819D02*
X147635714Y-148552438D01*
X147635714Y-148552438D02*
X147588095Y-148600057D01*
X147588095Y-148600057D02*
X147492857Y-148742914D01*
X147492857Y-148742914D02*
X147445238Y-148933390D01*
X147445238Y-148933390D02*
X147445238Y-149314342D01*
X147445238Y-149314342D02*
X147492857Y-149409580D01*
X147492857Y-149409580D02*
X147540476Y-149457200D01*
X147540476Y-149457200D02*
X147635714Y-149504819D01*
X147635714Y-149504819D02*
X147826190Y-149504819D01*
X147826190Y-149504819D02*
X147921428Y-149457200D01*
X147921428Y-149457200D02*
X147969047Y-149409580D01*
X147969047Y-149409580D02*
X148016666Y-149314342D01*
X148016666Y-149314342D02*
X148016666Y-149076247D01*
X148016666Y-149076247D02*
X147969047Y-148981009D01*
X147969047Y-148981009D02*
X147921428Y-148933390D01*
X147921428Y-148933390D02*
X147826190Y-148885771D01*
X147826190Y-148885771D02*
X147635714Y-148885771D01*
X147635714Y-148885771D02*
X147540476Y-148933390D01*
X147540476Y-148933390D02*
X147492857Y-148981009D01*
X147492857Y-148981009D02*
X147445238Y-149076247D01*
X129966666Y-145354819D02*
X129966666Y-146069104D01*
X129966666Y-146069104D02*
X129919047Y-146211961D01*
X129919047Y-146211961D02*
X129823809Y-146307200D01*
X129823809Y-146307200D02*
X129680952Y-146354819D01*
X129680952Y-146354819D02*
X129585714Y-146354819D01*
X130347619Y-145354819D02*
X131014285Y-145354819D01*
X131014285Y-145354819D02*
X130585714Y-146354819D01*
X147711905Y-106654819D02*
X147711905Y-107464342D01*
X147711905Y-107464342D02*
X147759524Y-107559580D01*
X147759524Y-107559580D02*
X147807143Y-107607200D01*
X147807143Y-107607200D02*
X147902381Y-107654819D01*
X147902381Y-107654819D02*
X148092857Y-107654819D01*
X148092857Y-107654819D02*
X148188095Y-107607200D01*
X148188095Y-107607200D02*
X148235714Y-107559580D01*
X148235714Y-107559580D02*
X148283333Y-107464342D01*
X148283333Y-107464342D02*
X148283333Y-106654819D01*
X149283333Y-107654819D02*
X148711905Y-107654819D01*
X148997619Y-107654819D02*
X148997619Y-106654819D01*
X148997619Y-106654819D02*
X148902381Y-106797676D01*
X148902381Y-106797676D02*
X148807143Y-106892914D01*
X148807143Y-106892914D02*
X148711905Y-106940533D01*
X149902381Y-106654819D02*
X149997619Y-106654819D01*
X149997619Y-106654819D02*
X150092857Y-106702438D01*
X150092857Y-106702438D02*
X150140476Y-106750057D01*
X150140476Y-106750057D02*
X150188095Y-106845295D01*
X150188095Y-106845295D02*
X150235714Y-107035771D01*
X150235714Y-107035771D02*
X150235714Y-107273866D01*
X150235714Y-107273866D02*
X150188095Y-107464342D01*
X150188095Y-107464342D02*
X150140476Y-107559580D01*
X150140476Y-107559580D02*
X150092857Y-107607200D01*
X150092857Y-107607200D02*
X149997619Y-107654819D01*
X149997619Y-107654819D02*
X149902381Y-107654819D01*
X149902381Y-107654819D02*
X149807143Y-107607200D01*
X149807143Y-107607200D02*
X149759524Y-107559580D01*
X149759524Y-107559580D02*
X149711905Y-107464342D01*
X149711905Y-107464342D02*
X149664286Y-107273866D01*
X149664286Y-107273866D02*
X149664286Y-107035771D01*
X149664286Y-107035771D02*
X149711905Y-106845295D01*
X149711905Y-106845295D02*
X149759524Y-106750057D01*
X149759524Y-106750057D02*
X149807143Y-106702438D01*
X149807143Y-106702438D02*
X149902381Y-106654819D01*
D12*
%TO.C,G\u002A\u002A\u002A*%
G36*
X115607533Y-81253705D02*
G01*
X115604673Y-81266093D01*
X115593642Y-81267597D01*
X115576491Y-81259973D01*
X115579751Y-81253705D01*
X115604479Y-81251212D01*
X115607533Y-81253705D01*
G37*
D13*
%TO.C,SW2*%
X122818000Y-144166000D02*
X122818000Y-144595260D01*
X122818000Y-146784740D02*
X122818000Y-147214000D01*
X122818000Y-147214000D02*
X126882000Y-147214000D01*
X126882000Y-144166000D02*
X122818000Y-144166000D01*
X126882000Y-144595260D02*
X126882000Y-144166000D01*
X126882000Y-147214000D02*
X126882000Y-146784740D01*
%TO.C,U9*%
D14*
X117000000Y-116000000D02*
X109000000Y-116000000D01*
X109000000Y-108000000D01*
X117000000Y-108000000D01*
X117000000Y-116000000D01*
D15*
X108353742Y-108130000D02*
G75*
G02*
X108126258Y-108130000I-113742J0D01*
G01*
X108126258Y-108130000D02*
G75*
G02*
X108353742Y-108130000I113742J0D01*
G01*
D13*
%TO.C,SW1*%
X110668000Y-144216000D02*
X110668000Y-144645260D01*
X110668000Y-146834740D02*
X110668000Y-147264000D01*
X110668000Y-147264000D02*
X114732000Y-147264000D01*
X114732000Y-144216000D02*
X110668000Y-144216000D01*
X114732000Y-144645260D02*
X114732000Y-144216000D01*
X114732000Y-147264000D02*
X114732000Y-146834740D01*
D16*
%TO.C,J5*%
X128820000Y-40170000D02*
X128820000Y-42830000D01*
X141580000Y-40170000D02*
X128820000Y-40170000D01*
X141580000Y-40170000D02*
X141580000Y-42830000D01*
X141580000Y-42830000D02*
X128820000Y-42830000D01*
X142850000Y-40170000D02*
X144180000Y-40170000D01*
X144180000Y-40170000D02*
X144180000Y-41500000D01*
%TO.C,J6*%
X144240000Y-144640000D02*
X145290000Y-144640000D01*
X144240000Y-145790000D02*
X144240000Y-144640000D01*
X149290000Y-147760000D02*
X145410000Y-147760000D01*
X149410000Y-144640000D02*
X149410000Y-143650000D01*
X150460000Y-144640000D02*
X149410000Y-144640000D01*
X150460000Y-145790000D02*
X150460000Y-144640000D01*
%TO.C,J7*%
X131578200Y-142909851D02*
X131578200Y-149005851D01*
X131578200Y-149005851D02*
X134701425Y-149005851D01*
X136379775Y-149005851D02*
X142043000Y-149005851D01*
X142043000Y-142909851D02*
X131578200Y-142909851D01*
X142043000Y-149005851D02*
X142043000Y-142909851D01*
%TO.C,U10*%
D14*
X153000000Y-116000000D02*
X145000000Y-116000000D01*
X145000000Y-108000000D01*
X153000000Y-108000000D01*
X153000000Y-116000000D01*
D15*
X144353742Y-108130000D02*
G75*
G02*
X144126258Y-108130000I-113742J0D01*
G01*
X144126258Y-108130000D02*
G75*
G02*
X144353742Y-108130000I113742J0D01*
G01*
D17*
%TO.C,HS1*%
X101000000Y-82000000D02*
X161000000Y-82000000D01*
X101000000Y-142000000D02*
X101000000Y-82000000D01*
X161000000Y-82000000D02*
X161000000Y-142000000D01*
X161000000Y-142000000D02*
X101000000Y-142000000D01*
D16*
%TO.C,J3*%
X146670000Y-39220000D02*
X148000000Y-39220000D01*
X146670000Y-40550000D02*
X146670000Y-39220000D01*
X146670000Y-41820000D02*
X146670000Y-49500000D01*
X146670000Y-41820000D02*
X149330000Y-41820000D01*
X146670000Y-49500000D02*
X149330000Y-49500000D01*
X149330000Y-41820000D02*
X149330000Y-49500000D01*
%TD*%
M02*
