%TF.GenerationSoftware,KiCad,Pcbnew,9.0.0*%
%TF.CreationDate,2025-05-20T14:14:36-04:00*%
%TF.ProjectId,BitaxeGT,42697461-7865-4475-942e-6b696361645f,v800*%
%TF.SameCoordinates,Original*%
%TF.FileFunction,Paste,Bot*%
%TF.FilePolarity,Positive*%
%FSLAX46Y46*%
G04 Gerber Fmt 4.6, Leading zero omitted, Abs format (unit mm)*
G04 Created by KiCad (PCBNEW 9.0.0) date 2025-05-20 14:14:36*
%MOMM*%
%LPD*%
G01*
G04 APERTURE LIST*
G04 Aperture macros list*
%AMRoundRect*
0 Rectangle with rounded corners*
0 $1 Rounding radius*
0 $2 $3 $4 $5 $6 $7 $8 $9 X,Y pos of 4 corners*
0 Add a 4 corners polygon primitive as box body*
4,1,4,$2,$3,$4,$5,$6,$7,$8,$9,$2,$3,0*
0 Add four circle primitives for the rounded corners*
1,1,$1+$1,$2,$3*
1,1,$1+$1,$4,$5*
1,1,$1+$1,$6,$7*
1,1,$1+$1,$8,$9*
0 Add four rect primitives between the rounded corners*
20,1,$1+$1,$2,$3,$4,$5,0*
20,1,$1+$1,$4,$5,$6,$7,0*
20,1,$1+$1,$6,$7,$8,$9,0*
20,1,$1+$1,$8,$9,$2,$3,0*%
%AMFreePoly0*
4,1,9,3.862500,-0.866500,0.737500,-0.866500,0.737500,-0.450000,-0.737500,-0.450000,-0.737500,0.450000,0.737500,0.450000,0.737500,0.866500,3.862500,0.866500,3.862500,-0.866500,3.862500,-0.866500,$1*%
G04 Aperture macros list end*
%ADD10C,0.000000*%
%ADD11RoundRect,0.135000X0.185000X-0.135000X0.185000X0.135000X-0.185000X0.135000X-0.185000X-0.135000X0*%
%ADD12RoundRect,0.140000X0.170000X-0.140000X0.170000X0.140000X-0.170000X0.140000X-0.170000X-0.140000X0*%
%ADD13RoundRect,0.140000X-0.140000X-0.170000X0.140000X-0.170000X0.140000X0.170000X-0.140000X0.170000X0*%
%ADD14RoundRect,0.135000X0.135000X0.185000X-0.135000X0.185000X-0.135000X-0.185000X0.135000X-0.185000X0*%
%ADD15RoundRect,0.140000X-0.170000X0.140000X-0.170000X-0.140000X0.170000X-0.140000X0.170000X0.140000X0*%
%ADD16RoundRect,0.250000X-0.650000X0.325000X-0.650000X-0.325000X0.650000X-0.325000X0.650000X0.325000X0*%
%ADD17RoundRect,0.225000X0.225000X0.250000X-0.225000X0.250000X-0.225000X-0.250000X0.225000X-0.250000X0*%
%ADD18RoundRect,0.225000X-0.250000X0.225000X-0.250000X-0.225000X0.250000X-0.225000X0.250000X0.225000X0*%
%ADD19R,1.300000X1.100000*%
%ADD20RoundRect,0.150000X-0.512500X-0.150000X0.512500X-0.150000X0.512500X0.150000X-0.512500X0.150000X0*%
%ADD21RoundRect,0.220588X0.429412X0.229412X-0.429412X0.229412X-0.429412X-0.229412X0.429412X-0.229412X0*%
%ADD22RoundRect,0.232843X0.467157X0.242157X-0.467157X0.242157X-0.467157X-0.242157X0.467157X-0.242157X0*%
%ADD23RoundRect,0.062500X0.337500X0.062500X-0.337500X0.062500X-0.337500X-0.062500X0.337500X-0.062500X0*%
%ADD24RoundRect,0.062500X0.062500X0.337500X-0.062500X0.337500X-0.062500X-0.337500X0.062500X-0.337500X0*%
%ADD25R,0.599999X0.240000*%
%ADD26R,0.240000X0.599999*%
%ADD27RoundRect,0.135000X-0.135000X-0.185000X0.135000X-0.185000X0.135000X0.185000X-0.135000X0.185000X0*%
%ADD28RoundRect,0.140000X0.140000X0.170000X-0.140000X0.170000X-0.140000X-0.170000X0.140000X-0.170000X0*%
%ADD29R,0.220000X0.599999*%
%ADD30R,1.270000X0.889000*%
%ADD31R,0.787400X1.447800*%
%ADD32RoundRect,0.250000X0.475000X-0.250000X0.475000X0.250000X-0.475000X0.250000X-0.475000X-0.250000X0*%
%ADD33R,2.600000X4.000000*%
%ADD34R,0.300000X1.300000*%
%ADD35R,2.000000X1.600000*%
%ADD36RoundRect,0.150000X-0.150000X-0.425000X0.150000X-0.425000X0.150000X0.425000X-0.150000X0.425000X0*%
%ADD37RoundRect,0.075000X-0.075000X-0.500000X0.075000X-0.500000X0.075000X0.500000X-0.075000X0.500000X0*%
%ADD38O,1.000000X1.800000*%
%ADD39O,1.000000X2.100000*%
%ADD40RoundRect,0.135000X-0.185000X0.135000X-0.185000X-0.135000X0.185000X-0.135000X0.185000X0.135000X0*%
%ADD41RoundRect,0.250000X0.450000X-0.262500X0.450000X0.262500X-0.450000X0.262500X-0.450000X-0.262500X0*%
%ADD42RoundRect,0.225000X0.250000X-0.225000X0.250000X0.225000X-0.250000X0.225000X-0.250000X-0.225000X0*%
%ADD43RoundRect,0.250000X-1.025000X0.787500X-1.025000X-0.787500X1.025000X-0.787500X1.025000X0.787500X0*%
%ADD44R,0.900000X1.500000*%
%ADD45R,1.500000X0.900000*%
%ADD46R,0.900000X0.900000*%
%ADD47RoundRect,0.212500X-0.212500X0.212500X-0.212500X-0.212500X0.212500X-0.212500X0.212500X0.212500X0*%
%ADD48RoundRect,0.075000X-0.075000X0.350000X-0.075000X-0.350000X0.075000X-0.350000X0.075000X0.350000X0*%
%ADD49RoundRect,0.075000X-0.350000X0.075000X-0.350000X-0.075000X0.350000X-0.075000X0.350000X0.075000X0*%
%ADD50RoundRect,0.225000X0.425000X0.225000X-0.425000X0.225000X-0.425000X-0.225000X0.425000X-0.225000X0*%
%ADD51FreePoly0,180.000000*%
G04 APERTURE END LIST*
D10*
%TO.C,U2*%
G36*
X106214999Y-123975000D02*
G01*
X106214999Y-124825000D01*
X106165000Y-124875000D01*
X104475000Y-124875000D01*
X104425001Y-124825000D01*
X104425001Y-123975000D01*
X104475000Y-123925000D01*
X106165000Y-123925000D01*
X106214999Y-123975000D01*
G37*
%TO.C,U3*%
G36*
X136280000Y-51606820D02*
G01*
X136280000Y-51756820D01*
X136230000Y-51806820D01*
X135880001Y-51806820D01*
X135830001Y-51756820D01*
X135830001Y-51606820D01*
X135880001Y-51556820D01*
X136230000Y-51556820D01*
X136280000Y-51606820D01*
G37*
G36*
X136280000Y-52106822D02*
G01*
X136280000Y-52256822D01*
X136230000Y-52306821D01*
X135880001Y-52306821D01*
X135830001Y-52256822D01*
X135830001Y-52106822D01*
X135880001Y-52056822D01*
X136230000Y-52056822D01*
X136280000Y-52106822D01*
G37*
G36*
X139529999Y-52106822D02*
G01*
X139529999Y-52256822D01*
X139479999Y-52306821D01*
X139130000Y-52306821D01*
X139080000Y-52256822D01*
X139080000Y-52106822D01*
X139130000Y-52056822D01*
X139479999Y-52056822D01*
X139529999Y-52106822D01*
G37*
G36*
X139529999Y-51606820D02*
G01*
X139529999Y-51756820D01*
X139479999Y-51806820D01*
X139130000Y-51806820D01*
X139080000Y-51756820D01*
X139080000Y-51606820D01*
X139130000Y-51556820D01*
X139479999Y-51556820D01*
X139529999Y-51606820D01*
G37*
G36*
X136780002Y-51391822D02*
G01*
X136779999Y-51585822D01*
X136892326Y-51855371D01*
X136921471Y-51884516D01*
X137191002Y-51996822D01*
X137280001Y-51996822D01*
X137330001Y-52046822D01*
X137330001Y-52346821D01*
X137280001Y-52396821D01*
X136530000Y-52396821D01*
X136480000Y-52346821D01*
X136480000Y-51391820D01*
X136530000Y-51341822D01*
X136729999Y-51341822D01*
X136780002Y-51391822D01*
G37*
G36*
X138880000Y-51391822D02*
G01*
X138880000Y-52346821D01*
X138830000Y-52396821D01*
X138079999Y-52396821D01*
X138029999Y-52346821D01*
X138029999Y-52046822D01*
X138079999Y-51996822D01*
X138168998Y-51996822D01*
X138362716Y-51916105D01*
X138499271Y-51779550D01*
X138580001Y-51585822D01*
X138579998Y-51391822D01*
X138630001Y-51341822D01*
X138830000Y-51341822D01*
X138880000Y-51391822D01*
G37*
G36*
X137220001Y-52856820D02*
G01*
X137220001Y-53196820D01*
X137170001Y-53246817D01*
X136799999Y-53246822D01*
X136749999Y-53296819D01*
X136749999Y-53396822D01*
X136799999Y-53446822D01*
X137170001Y-53446822D01*
X137220001Y-53496822D01*
X137219998Y-53696819D01*
X137170001Y-53746821D01*
X136799999Y-53746821D01*
X136749999Y-53796821D01*
X136749999Y-53896818D01*
X136799999Y-53946821D01*
X137170001Y-53946821D01*
X137220001Y-53996821D01*
X137220001Y-54196820D01*
X137170001Y-54246820D01*
X136799999Y-54246823D01*
X136749999Y-54296820D01*
X136749999Y-54396820D01*
X136799999Y-54446820D01*
X137170001Y-54446822D01*
X137220001Y-54496822D01*
X137220003Y-54836821D01*
X137170001Y-54886821D01*
X136330000Y-54886821D01*
X136280000Y-54836821D01*
X136280000Y-54771820D01*
X136230000Y-54721820D01*
X135880001Y-54721820D01*
X135830001Y-54671821D01*
X135830001Y-54521821D01*
X135880001Y-54471821D01*
X136380000Y-54471821D01*
X136430000Y-54421821D01*
X136430000Y-54271821D01*
X136380000Y-54221819D01*
X135880001Y-54221821D01*
X135830001Y-54171822D01*
X135830001Y-54021822D01*
X135880001Y-53971819D01*
X136380000Y-53971819D01*
X136430000Y-53921822D01*
X136430000Y-53771822D01*
X136380000Y-53721820D01*
X135880001Y-53721820D01*
X135830001Y-53671820D01*
X135830001Y-53521820D01*
X135880001Y-53471820D01*
X136380000Y-53471820D01*
X136430000Y-53421818D01*
X136430000Y-53271821D01*
X136380000Y-53221813D01*
X135880001Y-53221821D01*
X135830004Y-53171831D01*
X135829999Y-53021821D01*
X135880001Y-52971832D01*
X136230000Y-52971821D01*
X136280000Y-52921824D01*
X136280000Y-52856820D01*
X136330000Y-52806823D01*
X137169998Y-52806820D01*
X137220001Y-52856820D01*
G37*
G36*
X139030000Y-52806823D02*
G01*
X139080000Y-52856820D01*
X139080000Y-52921822D01*
X139130000Y-52971821D01*
X139479999Y-52971832D01*
X139530001Y-53021821D01*
X139529996Y-53171831D01*
X139479999Y-53221821D01*
X138980000Y-53221813D01*
X138930000Y-53271821D01*
X138930000Y-53421818D01*
X138980000Y-53471820D01*
X139479999Y-53471820D01*
X139529999Y-53521820D01*
X139529999Y-53671820D01*
X139479999Y-53721820D01*
X138980000Y-53721820D01*
X138930000Y-53771820D01*
X138930000Y-53921822D01*
X138980000Y-53971819D01*
X139479999Y-53971819D01*
X139529999Y-54021822D01*
X139529999Y-54171822D01*
X139479999Y-54221821D01*
X138980000Y-54221819D01*
X138930000Y-54271821D01*
X138930000Y-54421821D01*
X138980000Y-54471821D01*
X139479999Y-54471821D01*
X139529999Y-54521821D01*
X139529999Y-54671821D01*
X139479999Y-54721820D01*
X139130000Y-54721820D01*
X139080000Y-54771820D01*
X139080000Y-54836821D01*
X139030000Y-54886821D01*
X138189999Y-54886821D01*
X138139997Y-54836821D01*
X138139999Y-54496822D01*
X138189999Y-54446820D01*
X138560001Y-54446820D01*
X138610001Y-54396820D01*
X138610001Y-54296820D01*
X138560001Y-54246823D01*
X138189999Y-54246820D01*
X138139999Y-54196820D01*
X138139999Y-53996821D01*
X138190002Y-53946821D01*
X138560001Y-53946821D01*
X138610001Y-53896818D01*
X138610001Y-53796821D01*
X138560001Y-53746821D01*
X138189999Y-53746821D01*
X138140002Y-53696819D01*
X138139999Y-53496822D01*
X138189999Y-53446822D01*
X138560001Y-53446822D01*
X138610001Y-53396822D01*
X138610001Y-53296819D01*
X138560001Y-53246822D01*
X138189999Y-53246817D01*
X138139999Y-53196820D01*
X138139999Y-52856820D01*
X138190002Y-52806820D01*
X139030000Y-52806823D01*
G37*
%TD*%
D11*
%TO.C,R29*%
X134000000Y-128900000D03*
X134000000Y-127880000D03*
%TD*%
D12*
%TO.C,C17*%
X138300000Y-82080000D03*
X138300000Y-81120000D03*
%TD*%
D13*
%TO.C,C37*%
X115650000Y-84320000D03*
X116610000Y-84320000D03*
%TD*%
D14*
%TO.C,R22*%
X157400000Y-47600000D03*
X156380000Y-47600000D03*
%TD*%
D15*
%TO.C,C7*%
X150100000Y-86920000D03*
X150100000Y-87880000D03*
%TD*%
D12*
%TO.C,C84*%
X143950000Y-117530000D03*
X143950000Y-116570000D03*
%TD*%
D11*
%TO.C,R25*%
X128680000Y-46280000D03*
X128680000Y-45260000D03*
%TD*%
D16*
%TO.C,C12*%
X139800000Y-97975000D03*
X139800000Y-100925000D03*
%TD*%
%TO.C,C33*%
X114850000Y-98000000D03*
X114850000Y-100950000D03*
%TD*%
D17*
%TO.C,C49*%
X107425000Y-46150000D03*
X105875000Y-46150000D03*
%TD*%
D18*
%TO.C,C38*%
X116150000Y-109575000D03*
X116150000Y-111125000D03*
%TD*%
D16*
%TO.C,C14*%
X135200000Y-97975000D03*
X135200000Y-100925000D03*
%TD*%
D12*
%TO.C,C65*%
X107125000Y-109205000D03*
X107125000Y-108245000D03*
%TD*%
D19*
%TO.C,U8*%
X102050000Y-101750000D03*
X104350000Y-101750000D03*
X104350000Y-103650000D03*
X102050000Y-103650000D03*
%TD*%
D11*
%TO.C,R20*%
X106700000Y-74640000D03*
X106700000Y-73620000D03*
%TD*%
D20*
%TO.C,U11*%
X126875000Y-120900000D03*
X126875000Y-119950000D03*
X126875000Y-119000000D03*
X129150000Y-119000000D03*
X129150000Y-120900000D03*
%TD*%
D21*
%TO.C,U4*%
X121900000Y-89350000D03*
X121900000Y-85150000D03*
D22*
X121850000Y-87950000D03*
X121850000Y-86550000D03*
X120150000Y-87950000D03*
X120150000Y-86550000D03*
D21*
X120100000Y-89350000D03*
X120100000Y-85150000D03*
D23*
X123500000Y-84500000D03*
X123500000Y-85000000D03*
X123500000Y-85500000D03*
X123500000Y-86000000D03*
X123500000Y-86500000D03*
X123500000Y-87000000D03*
X123500000Y-87500000D03*
X123500000Y-88000000D03*
X123500000Y-88500000D03*
X123500000Y-89000000D03*
X123500000Y-89500000D03*
X123500000Y-90000000D03*
D24*
X122750000Y-90750000D03*
X122250000Y-90750000D03*
X121750000Y-90750000D03*
X121250000Y-90750000D03*
X120750000Y-90750000D03*
X120250000Y-90750000D03*
X119750000Y-90750000D03*
X119250000Y-90750000D03*
D23*
X118500000Y-90000000D03*
X118500000Y-89500000D03*
X118500000Y-89000000D03*
X118500000Y-88500000D03*
X118500000Y-88000000D03*
X118500000Y-87500000D03*
X118500000Y-87000000D03*
X118500000Y-86500000D03*
X118500000Y-86000000D03*
X118500000Y-85500000D03*
X118500000Y-85000000D03*
X118500000Y-84500000D03*
D24*
X119250000Y-83750000D03*
X119750000Y-83750000D03*
X120250000Y-83750000D03*
X120750000Y-83750000D03*
X121250000Y-83750000D03*
X121750000Y-83750000D03*
X122250000Y-83750000D03*
X122750000Y-83750000D03*
%TD*%
D12*
%TO.C,C80*%
X106000000Y-117530000D03*
X106000000Y-116570000D03*
%TD*%
D25*
%TO.C,U2*%
X103670001Y-124150000D03*
D26*
X104070000Y-123250000D03*
X104569999Y-123250000D03*
X105070000Y-123250000D03*
X105570000Y-123250000D03*
X106070001Y-123250000D03*
X106570000Y-123250000D03*
D25*
X106969999Y-124150000D03*
X106969999Y-124650000D03*
D26*
X106570000Y-125550000D03*
X106070001Y-125550000D03*
X105570000Y-125550000D03*
X105070000Y-125550000D03*
X104569999Y-125550000D03*
X104070000Y-125550000D03*
D25*
X103670001Y-124650000D03*
%TD*%
D12*
%TO.C,C85*%
X142600000Y-117530000D03*
X142600000Y-116570000D03*
%TD*%
%TO.C,C75*%
X144940000Y-107310000D03*
X144940000Y-106350000D03*
%TD*%
D15*
%TO.C,C68*%
X116750000Y-106345000D03*
X116750000Y-107305000D03*
%TD*%
D18*
%TO.C,C57*%
X109800000Y-109575000D03*
X109800000Y-111125000D03*
%TD*%
%TO.C,C2*%
X141675000Y-90600000D03*
X141675000Y-92150000D03*
%TD*%
D13*
%TO.C,C53*%
X102120000Y-99500000D03*
X103080000Y-99500000D03*
%TD*%
D27*
%TO.C,R26*%
X103790000Y-114040000D03*
X104810000Y-114040000D03*
%TD*%
D11*
%TO.C,R21*%
X125990000Y-62790000D03*
X125990000Y-61770000D03*
%TD*%
D12*
%TO.C,C87*%
X155400000Y-117270000D03*
X155400000Y-116310000D03*
%TD*%
D16*
%TO.C,C11*%
X142100000Y-97975000D03*
X142100000Y-100925000D03*
%TD*%
D15*
%TO.C,C71*%
X117725000Y-109270000D03*
X117725000Y-110230000D03*
%TD*%
D27*
%TO.C,R23*%
X106780000Y-128020000D03*
X107800000Y-128020000D03*
%TD*%
%TO.C,R9*%
X154940000Y-76300000D03*
X155960000Y-76300000D03*
%TD*%
D28*
%TO.C,C20*%
X145630000Y-81410000D03*
X144670000Y-81410000D03*
%TD*%
D18*
%TO.C,C58*%
X152200000Y-109575000D03*
X152200000Y-111125000D03*
%TD*%
D27*
%TO.C,R19*%
X118290000Y-82200000D03*
X119310000Y-82200000D03*
%TD*%
D18*
%TO.C,C55*%
X112990000Y-109575000D03*
X112990000Y-111125000D03*
%TD*%
D13*
%TO.C,C92*%
X135020000Y-129890000D03*
X135980000Y-129890000D03*
%TD*%
D29*
%TO.C,U3*%
X137180001Y-51281822D03*
X137680000Y-51281822D03*
X138179999Y-51281822D03*
%TD*%
D27*
%TO.C,R8*%
X144640000Y-80360000D03*
X145660000Y-80360000D03*
%TD*%
D11*
%TO.C,R36*%
X130650000Y-128910000D03*
X130650000Y-127890000D03*
%TD*%
D15*
%TO.C,C88*%
X125212500Y-119970000D03*
X125212500Y-120930000D03*
%TD*%
D18*
%TO.C,C23*%
X117325000Y-90425000D03*
X117325000Y-91975000D03*
%TD*%
D27*
%TO.C,R13*%
X152340000Y-77700000D03*
X153360000Y-77700000D03*
%TD*%
D30*
%TO.C,SW1*%
X101797000Y-77485500D03*
X101797000Y-73294500D03*
D31*
X99904700Y-78768200D03*
X99904700Y-72011800D03*
%TD*%
D12*
%TO.C,C66*%
X108125000Y-108255000D03*
X108125000Y-107295000D03*
%TD*%
D16*
%TO.C,C34*%
X112550000Y-98000000D03*
X112550000Y-100950000D03*
%TD*%
D27*
%TO.C,R39*%
X153390000Y-47600000D03*
X154410000Y-47600000D03*
%TD*%
D18*
%TO.C,C60*%
X149000000Y-109575000D03*
X149000000Y-111125000D03*
%TD*%
D16*
%TO.C,C32*%
X117150000Y-98000000D03*
X117150000Y-100950000D03*
%TD*%
D18*
%TO.C,C59*%
X150600000Y-109575000D03*
X150600000Y-111125000D03*
%TD*%
D32*
%TO.C,C29*%
X127725000Y-88325000D03*
X127725000Y-86425000D03*
%TD*%
D33*
%TO.C,L1*%
X153850000Y-94425000D03*
X153850000Y-102375000D03*
%TD*%
D18*
%TO.C,C54*%
X114550000Y-109575000D03*
X114550000Y-111125000D03*
%TD*%
D33*
%TO.C,L2*%
X128500000Y-94425000D03*
X128500000Y-102375000D03*
%TD*%
D12*
%TO.C,C81*%
X107550000Y-117530000D03*
X107550000Y-116570000D03*
%TD*%
D27*
%TO.C,R18*%
X135595000Y-49631821D03*
X136615000Y-49631821D03*
%TD*%
D12*
%TO.C,C83*%
X118250000Y-117530000D03*
X118250000Y-116570000D03*
%TD*%
D18*
%TO.C,C24*%
X115850000Y-90425000D03*
X115850000Y-91975000D03*
%TD*%
D34*
%TO.C,J2*%
X139070000Y-44180000D03*
X138570000Y-44180000D03*
X138070000Y-44180000D03*
X137570000Y-44180000D03*
X137070000Y-44180000D03*
X136570000Y-44180000D03*
X136070000Y-44180000D03*
X135570000Y-44180000D03*
D35*
X133870000Y-41500000D03*
X140770000Y-41500000D03*
%TD*%
D36*
%TO.C,J4*%
X119150000Y-45640000D03*
X119950000Y-45640000D03*
D37*
X121100000Y-45640000D03*
X122100000Y-45640000D03*
X122600000Y-45640000D03*
X123600000Y-45640000D03*
D36*
X125550000Y-45640000D03*
X124750000Y-45640000D03*
D37*
X124100000Y-45640000D03*
X123100000Y-45640000D03*
X121600000Y-45640000D03*
X120600000Y-45640000D03*
D38*
X118030000Y-40885000D03*
D39*
X118030000Y-45065000D03*
D38*
X126670000Y-40885000D03*
D39*
X126670000Y-45065000D03*
%TD*%
D21*
%TO.C,U1*%
X146250000Y-89350000D03*
X146250000Y-85150000D03*
D22*
X146200000Y-87950000D03*
X146200000Y-86550000D03*
X144500000Y-87950000D03*
X144500000Y-86550000D03*
D21*
X144450000Y-89350000D03*
X144450000Y-85150000D03*
D23*
X147850000Y-84500000D03*
X147850000Y-85000000D03*
X147850000Y-85500000D03*
X147850000Y-86000000D03*
X147850000Y-86500000D03*
X147850000Y-87000000D03*
X147850000Y-87500000D03*
X147850000Y-88000000D03*
X147850000Y-88500000D03*
X147850000Y-89000000D03*
X147850000Y-89500000D03*
X147850000Y-90000000D03*
D24*
X147100000Y-90750000D03*
X146600000Y-90750000D03*
X146100000Y-90750000D03*
X145600000Y-90750000D03*
X145100000Y-90750000D03*
X144600000Y-90750000D03*
X144100000Y-90750000D03*
X143600000Y-90750000D03*
D23*
X142850000Y-90000000D03*
X142850000Y-89500000D03*
X142850000Y-89000000D03*
X142850000Y-88500000D03*
X142850000Y-88000000D03*
X142850000Y-87500000D03*
X142850000Y-87000000D03*
X142850000Y-86500000D03*
X142850000Y-86000000D03*
X142850000Y-85500000D03*
X142850000Y-85000000D03*
X142850000Y-84500000D03*
D24*
X143600000Y-83750000D03*
X144100000Y-83750000D03*
X144600000Y-83750000D03*
X145100000Y-83750000D03*
X145600000Y-83750000D03*
X146100000Y-83750000D03*
X146600000Y-83750000D03*
X147100000Y-83750000D03*
%TD*%
D14*
%TO.C,R40*%
X157410000Y-48800000D03*
X156390000Y-48800000D03*
%TD*%
%TO.C,R4*%
X137790000Y-83690000D03*
X136770000Y-83690000D03*
%TD*%
D12*
%TO.C,C67*%
X109150000Y-107330000D03*
X109150000Y-106370000D03*
%TD*%
D13*
%TO.C,C46*%
X138010000Y-65460000D03*
X138970000Y-65460000D03*
%TD*%
D11*
%TO.C,R32*%
X132950000Y-128900000D03*
X132950000Y-127880000D03*
%TD*%
%TO.C,R34*%
X131700000Y-128910000D03*
X131700000Y-127890000D03*
%TD*%
D15*
%TO.C,C90*%
X125262500Y-114820000D03*
X125262500Y-115780000D03*
%TD*%
D40*
%TO.C,R35*%
X129500000Y-128840000D03*
X129500000Y-129860000D03*
%TD*%
D11*
%TO.C,R33*%
X128450000Y-129860000D03*
X128450000Y-128840000D03*
%TD*%
D14*
%TO.C,R30*%
X132110000Y-139300000D03*
X131090000Y-139300000D03*
%TD*%
D41*
%TO.C,R2*%
X151930000Y-84122500D03*
X151930000Y-82297500D03*
%TD*%
D13*
%TO.C,C47*%
X137600000Y-58200000D03*
X138560000Y-58200000D03*
%TD*%
D11*
%TO.C,R1*%
X143260000Y-81320000D03*
X143260000Y-80300000D03*
%TD*%
D12*
%TO.C,C64*%
X108125000Y-110155000D03*
X108125000Y-109195000D03*
%TD*%
D28*
%TO.C,C15*%
X141450000Y-80820000D03*
X140490000Y-80820000D03*
%TD*%
D15*
%TO.C,C70*%
X118775000Y-108395000D03*
X118775000Y-109355000D03*
%TD*%
%TO.C,C78*%
X155050000Y-108170000D03*
X155050000Y-109130000D03*
%TD*%
D20*
%TO.C,U12*%
X126875000Y-115762500D03*
X126875000Y-114812500D03*
X126875000Y-113862500D03*
X129150000Y-113862500D03*
X129150000Y-115762500D03*
%TD*%
D28*
%TO.C,C19*%
X152430000Y-80860000D03*
X151470000Y-80860000D03*
%TD*%
D40*
%TO.C,R5*%
X139380000Y-81090000D03*
X139380000Y-82110000D03*
%TD*%
D15*
%TO.C,C76*%
X153010000Y-106310000D03*
X153010000Y-107270000D03*
%TD*%
D12*
%TO.C,C74*%
X143925000Y-108280000D03*
X143925000Y-107320000D03*
%TD*%
D18*
%TO.C,C62*%
X145800000Y-109575000D03*
X145800000Y-111125000D03*
%TD*%
D42*
%TO.C,C39*%
X140955000Y-51656821D03*
X140955000Y-50106821D03*
%TD*%
D18*
%TO.C,C56*%
X111400000Y-109575000D03*
X111400000Y-111125000D03*
%TD*%
D41*
%TO.C,R15*%
X127695000Y-84652500D03*
X127695000Y-82827500D03*
%TD*%
D15*
%TO.C,C48*%
X106700000Y-76150000D03*
X106700000Y-77110000D03*
%TD*%
D27*
%TO.C,R31*%
X133240000Y-137700000D03*
X134260000Y-137700000D03*
%TD*%
D11*
%TO.C,R14*%
X130090000Y-46280000D03*
X130090000Y-45260000D03*
%TD*%
D43*
%TO.C,C1*%
X136325000Y-87962500D03*
X136325000Y-94187500D03*
%TD*%
D15*
%TO.C,C79*%
X154050000Y-109195000D03*
X154050000Y-110155000D03*
%TD*%
D18*
%TO.C,C61*%
X147400000Y-109575000D03*
X147400000Y-111125000D03*
%TD*%
D27*
%TO.C,R10*%
X154940000Y-77700000D03*
X155960000Y-77700000D03*
%TD*%
%TO.C,R7*%
X154940000Y-79150000D03*
X155960000Y-79150000D03*
%TD*%
D44*
%TO.C,U6*%
X106010000Y-48000000D03*
X107280000Y-48000000D03*
X108550000Y-48000000D03*
X109820000Y-48000000D03*
X111090000Y-48000000D03*
X112360000Y-48000000D03*
X113630000Y-48000000D03*
X114900000Y-48000000D03*
X116170000Y-48000000D03*
X117440000Y-48000000D03*
X118710000Y-48000000D03*
X119980000Y-48000000D03*
X121250000Y-48000000D03*
X122520000Y-48000000D03*
D45*
X123770000Y-49765000D03*
X123770000Y-51035000D03*
X123770000Y-52305000D03*
X123770000Y-53575000D03*
X123770000Y-54845000D03*
X123770000Y-56115000D03*
X123770000Y-57385000D03*
X123770000Y-58655000D03*
X123770000Y-59925000D03*
X123770000Y-61195000D03*
X123770000Y-62465000D03*
X123770000Y-63735000D03*
D44*
X122520000Y-65500000D03*
X121250000Y-65500000D03*
X119980000Y-65500000D03*
X118710000Y-65500000D03*
X117440000Y-65500000D03*
X116170000Y-65500000D03*
X114900000Y-65500000D03*
X113630000Y-65500000D03*
X112360000Y-65500000D03*
X111090000Y-65500000D03*
X109820000Y-65500000D03*
X108550000Y-65500000D03*
X107280000Y-65500000D03*
X106010000Y-65500000D03*
D46*
X115130000Y-53850000D03*
X113730000Y-53850000D03*
X112330000Y-53850000D03*
X115130000Y-55250000D03*
X113730000Y-55250000D03*
X112330000Y-55250000D03*
X115130000Y-56650000D03*
X113730000Y-56650000D03*
X112330000Y-56650000D03*
%TD*%
D18*
%TO.C,C3*%
X140200000Y-90600000D03*
X140200000Y-92150000D03*
%TD*%
D15*
%TO.C,C28*%
X126000000Y-86870000D03*
X126000000Y-87830000D03*
%TD*%
D28*
%TO.C,C91*%
X132230000Y-115750000D03*
X131270000Y-115750000D03*
%TD*%
D16*
%TO.C,C31*%
X119450000Y-98000000D03*
X119450000Y-100950000D03*
%TD*%
D14*
%TO.C,R11*%
X153375000Y-79150000D03*
X152355000Y-79150000D03*
%TD*%
D18*
%TO.C,C41*%
X137710000Y-143570000D03*
X137710000Y-145120000D03*
%TD*%
D42*
%TO.C,C44*%
X133005000Y-53556821D03*
X133005000Y-52006821D03*
%TD*%
D28*
%TO.C,C45*%
X121380000Y-82250000D03*
X120420000Y-82250000D03*
%TD*%
D27*
%TO.C,R12*%
X152340000Y-76300000D03*
X153360000Y-76300000D03*
%TD*%
D13*
%TO.C,C18*%
X143260000Y-79160000D03*
X144220000Y-79160000D03*
%TD*%
D16*
%TO.C,C9*%
X146700000Y-97975000D03*
X146700000Y-100925000D03*
%TD*%
D28*
%TO.C,C93*%
X133930000Y-129900000D03*
X132970000Y-129900000D03*
%TD*%
D47*
%TO.C,U13*%
X132950000Y-133750000D03*
X131900000Y-133750000D03*
X132950000Y-134800000D03*
X131900000Y-134800000D03*
D48*
X131450000Y-132325000D03*
X132100000Y-132325000D03*
X132750000Y-132325000D03*
X133400000Y-132325000D03*
D49*
X134375000Y-133300000D03*
X134375000Y-133950000D03*
X134375000Y-134600000D03*
X134375000Y-135250000D03*
D48*
X133400000Y-136225000D03*
X132750000Y-136225000D03*
X132100000Y-136225000D03*
X131450000Y-136225000D03*
D49*
X130475000Y-135250000D03*
X130475000Y-134600000D03*
X130475000Y-133950000D03*
X130475000Y-133300000D03*
%TD*%
D12*
%TO.C,C72*%
X143925000Y-110180000D03*
X143925000Y-109220000D03*
%TD*%
%TO.C,C86*%
X154200000Y-117270000D03*
X154200000Y-116310000D03*
%TD*%
D16*
%TO.C,C13*%
X137500000Y-97975000D03*
X137500000Y-100925000D03*
%TD*%
D40*
%TO.C,R6*%
X127430000Y-60530000D03*
X127430000Y-61550000D03*
%TD*%
D43*
%TO.C,C22*%
X112475000Y-88187500D03*
X112475000Y-94412500D03*
%TD*%
D16*
%TO.C,C10*%
X144400000Y-97975000D03*
X144400000Y-100925000D03*
%TD*%
D13*
%TO.C,C94*%
X131120000Y-140500000D03*
X132080000Y-140500000D03*
%TD*%
D16*
%TO.C,C35*%
X110237500Y-98000000D03*
X110237500Y-100950000D03*
%TD*%
D12*
%TO.C,C73*%
X142900000Y-109380000D03*
X142900000Y-108420000D03*
%TD*%
D15*
%TO.C,C36*%
X116620000Y-82060000D03*
X116620000Y-83020000D03*
%TD*%
D27*
%TO.C,R28*%
X139740000Y-114450000D03*
X140760000Y-114450000D03*
%TD*%
%TO.C,R16*%
X114440000Y-83040000D03*
X115460000Y-83040000D03*
%TD*%
%TO.C,R38*%
X153390000Y-48800000D03*
X154410000Y-48800000D03*
%TD*%
%TO.C,R17*%
X138320000Y-49581821D03*
X139340000Y-49581821D03*
%TD*%
%TO.C,R3*%
X136770000Y-84890000D03*
X137790000Y-84890000D03*
%TD*%
D15*
%TO.C,C16*%
X138970000Y-83620000D03*
X138970000Y-84580000D03*
%TD*%
D40*
%TO.C,R37*%
X125990000Y-59210000D03*
X125990000Y-60230000D03*
%TD*%
D27*
%TO.C,R24*%
X103790000Y-112750000D03*
X104810000Y-112750000D03*
%TD*%
D32*
%TO.C,C8*%
X151625000Y-87875000D03*
X151625000Y-85975000D03*
%TD*%
D28*
%TO.C,C89*%
X132280000Y-120900000D03*
X131320000Y-120900000D03*
%TD*%
D15*
%TO.C,C69*%
X117750000Y-107320000D03*
X117750000Y-108280000D03*
%TD*%
D27*
%TO.C,R27*%
X134190000Y-113850000D03*
X135210000Y-113850000D03*
%TD*%
D15*
%TO.C,C42*%
X125700000Y-84020000D03*
X125700000Y-84980000D03*
%TD*%
%TO.C,C77*%
X154050000Y-107295000D03*
X154050000Y-108255000D03*
%TD*%
D28*
%TO.C,C95*%
X131680000Y-129900000D03*
X130720000Y-129900000D03*
%TD*%
D12*
%TO.C,C51*%
X101700000Y-129170000D03*
X101700000Y-128210000D03*
%TD*%
D16*
%TO.C,C30*%
X121750000Y-98000000D03*
X121750000Y-100950000D03*
%TD*%
D12*
%TO.C,C82*%
X119750000Y-117530000D03*
X119750000Y-116570000D03*
%TD*%
D15*
%TO.C,C52*%
X104000000Y-129210000D03*
X104000000Y-130170000D03*
%TD*%
D50*
%TO.C,U5*%
X138940000Y-60297500D03*
D51*
X138852500Y-61797500D03*
D50*
X138940000Y-63297500D03*
%TD*%
D30*
%TO.C,SW2*%
X160203000Y-73344500D03*
X160203000Y-77535500D03*
D31*
X162095300Y-72061800D03*
X162095300Y-78818200D03*
%TD*%
D42*
%TO.C,C43*%
X134555000Y-53556821D03*
X134555000Y-52006821D03*
%TD*%
M02*
