%TF.GenerationSoftware,KiCad,Pcbnew,8.0.7*%
%TF.CreationDate,2025-01-02T17:31:43-08:00*%
%TF.ProjectId,BitaxeGT,42697461-7865-4475-942e-6b696361645f,v800*%
%TF.SameCoordinates,Original*%
%TF.FileFunction,Paste,Bot*%
%TF.FilePolarity,Positive*%
%FSLAX46Y46*%
G04 Gerber Fmt 4.6, Leading zero omitted, Abs format (unit mm)*
G04 Created by KiCad (PCBNEW 8.0.7) date 2025-01-02 17:31:43*
%MOMM*%
%LPD*%
G01*
G04 APERTURE LIST*
G04 Aperture macros list*
%AMRoundRect*
0 Rectangle with rounded corners*
0 $1 Rounding radius*
0 $2 $3 $4 $5 $6 $7 $8 $9 X,Y pos of 4 corners*
0 Add a 4 corners polygon primitive as box body*
4,1,4,$2,$3,$4,$5,$6,$7,$8,$9,$2,$3,0*
0 Add four circle primitives for the rounded corners*
1,1,$1+$1,$2,$3*
1,1,$1+$1,$4,$5*
1,1,$1+$1,$6,$7*
1,1,$1+$1,$8,$9*
0 Add four rect primitives between the rounded corners*
20,1,$1+$1,$2,$3,$4,$5,0*
20,1,$1+$1,$4,$5,$6,$7,0*
20,1,$1+$1,$6,$7,$8,$9,0*
20,1,$1+$1,$8,$9,$2,$3,0*%
%AMFreePoly0*
4,1,9,3.862500,-0.866500,0.737500,-0.866500,0.737500,-0.450000,-0.737500,-0.450000,-0.737500,0.450000,0.737500,0.450000,0.737500,0.866500,3.862500,0.866500,3.862500,-0.866500,3.862500,-0.866500,$1*%
G04 Aperture macros list end*
%ADD10C,0.000000*%
%ADD11RoundRect,0.140000X-0.140000X-0.170000X0.140000X-0.170000X0.140000X0.170000X-0.140000X0.170000X0*%
%ADD12RoundRect,0.150000X-0.512500X-0.150000X0.512500X-0.150000X0.512500X0.150000X-0.512500X0.150000X0*%
%ADD13RoundRect,0.135000X0.185000X-0.135000X0.185000X0.135000X-0.185000X0.135000X-0.185000X-0.135000X0*%
%ADD14RoundRect,0.140000X0.170000X-0.140000X0.170000X0.140000X-0.170000X0.140000X-0.170000X-0.140000X0*%
%ADD15RoundRect,0.135000X0.135000X0.185000X-0.135000X0.185000X-0.135000X-0.185000X0.135000X-0.185000X0*%
%ADD16RoundRect,0.140000X-0.170000X0.140000X-0.170000X-0.140000X0.170000X-0.140000X0.170000X0.140000X0*%
%ADD17RoundRect,0.135000X-0.135000X-0.185000X0.135000X-0.185000X0.135000X0.185000X-0.135000X0.185000X0*%
%ADD18RoundRect,0.250000X-0.650000X0.325000X-0.650000X-0.325000X0.650000X-0.325000X0.650000X0.325000X0*%
%ADD19RoundRect,0.225000X0.225000X0.250000X-0.225000X0.250000X-0.225000X-0.250000X0.225000X-0.250000X0*%
%ADD20RoundRect,0.225000X-0.250000X0.225000X-0.250000X-0.225000X0.250000X-0.225000X0.250000X0.225000X0*%
%ADD21R,1.300000X1.100000*%
%ADD22RoundRect,0.220588X0.429412X0.229412X-0.429412X0.229412X-0.429412X-0.229412X0.429412X-0.229412X0*%
%ADD23RoundRect,0.232843X0.467157X0.242157X-0.467157X0.242157X-0.467157X-0.242157X0.467157X-0.242157X0*%
%ADD24RoundRect,0.062500X0.337500X0.062500X-0.337500X0.062500X-0.337500X-0.062500X0.337500X-0.062500X0*%
%ADD25RoundRect,0.062500X0.062500X0.337500X-0.062500X0.337500X-0.062500X-0.337500X0.062500X-0.337500X0*%
%ADD26RoundRect,0.140000X0.140000X0.170000X-0.140000X0.170000X-0.140000X-0.170000X0.140000X-0.170000X0*%
%ADD27R,0.220000X0.599999*%
%ADD28RoundRect,0.250000X0.475000X-0.250000X0.475000X0.250000X-0.475000X0.250000X-0.475000X-0.250000X0*%
%ADD29RoundRect,0.650000X-0.650000X1.325000X-0.650000X-1.325000X0.650000X-1.325000X0.650000X1.325000X0*%
%ADD30RoundRect,0.150000X-0.150000X-0.425000X0.150000X-0.425000X0.150000X0.425000X-0.150000X0.425000X0*%
%ADD31RoundRect,0.075000X-0.075000X-0.500000X0.075000X-0.500000X0.075000X0.500000X-0.075000X0.500000X0*%
%ADD32O,1.000000X1.800000*%
%ADD33O,1.000000X2.100000*%
%ADD34RoundRect,0.250000X0.650000X-0.325000X0.650000X0.325000X-0.650000X0.325000X-0.650000X-0.325000X0*%
%ADD35RoundRect,0.135000X-0.185000X0.135000X-0.185000X-0.135000X0.185000X-0.135000X0.185000X0.135000X0*%
%ADD36RoundRect,0.250000X0.450000X-0.262500X0.450000X0.262500X-0.450000X0.262500X-0.450000X-0.262500X0*%
%ADD37RoundRect,0.100000X-0.100000X0.637500X-0.100000X-0.637500X0.100000X-0.637500X0.100000X0.637500X0*%
%ADD38RoundRect,0.100000X-0.225000X-0.100000X0.225000X-0.100000X0.225000X0.100000X-0.225000X0.100000X0*%
%ADD39RoundRect,0.225000X0.250000X-0.225000X0.250000X0.225000X-0.250000X0.225000X-0.250000X-0.225000X0*%
%ADD40RoundRect,0.250000X-0.787500X-1.025000X0.787500X-1.025000X0.787500X1.025000X-0.787500X1.025000X0*%
%ADD41RoundRect,0.250000X-0.362500X-1.425000X0.362500X-1.425000X0.362500X1.425000X-0.362500X1.425000X0*%
%ADD42R,0.900000X1.500000*%
%ADD43R,1.500000X0.900000*%
%ADD44R,0.900000X0.900000*%
%ADD45RoundRect,0.212500X-0.212500X0.212500X-0.212500X-0.212500X0.212500X-0.212500X0.212500X0.212500X0*%
%ADD46RoundRect,0.075000X-0.075000X0.350000X-0.075000X-0.350000X0.075000X-0.350000X0.075000X0.350000X0*%
%ADD47RoundRect,0.075000X-0.350000X0.075000X-0.350000X-0.075000X0.350000X-0.075000X0.350000X0.075000X0*%
%ADD48RoundRect,0.250000X-1.025000X0.787500X-1.025000X-0.787500X1.025000X-0.787500X1.025000X0.787500X0*%
%ADD49RoundRect,0.225000X0.425000X0.225000X-0.425000X0.225000X-0.425000X-0.225000X0.425000X-0.225000X0*%
%ADD50FreePoly0,180.000000*%
G04 APERTURE END LIST*
D10*
%TO.C,U3*%
G36*
X136250000Y-48624999D02*
G01*
X136250000Y-48774999D01*
X136200000Y-48824999D01*
X135850001Y-48824999D01*
X135800001Y-48774999D01*
X135800001Y-48624999D01*
X135850001Y-48574999D01*
X136200000Y-48574999D01*
X136250000Y-48624999D01*
G37*
G36*
X136250000Y-49125001D02*
G01*
X136250000Y-49275001D01*
X136200000Y-49325000D01*
X135850001Y-49325000D01*
X135800001Y-49275001D01*
X135800001Y-49125001D01*
X135850001Y-49075001D01*
X136200000Y-49075001D01*
X136250000Y-49125001D01*
G37*
G36*
X139499999Y-49125001D02*
G01*
X139499999Y-49275001D01*
X139449999Y-49325000D01*
X139100000Y-49325000D01*
X139050000Y-49275001D01*
X139050000Y-49125001D01*
X139100000Y-49075001D01*
X139449999Y-49075001D01*
X139499999Y-49125001D01*
G37*
G36*
X139499999Y-48624999D02*
G01*
X139499999Y-48774999D01*
X139449999Y-48824999D01*
X139100000Y-48824999D01*
X139050000Y-48774999D01*
X139050000Y-48624999D01*
X139100000Y-48574999D01*
X139449999Y-48574999D01*
X139499999Y-48624999D01*
G37*
G36*
X136750002Y-48410001D02*
G01*
X136749999Y-48604001D01*
X136765001Y-48640001D01*
X137125000Y-49000000D01*
X137161002Y-49015001D01*
X137250001Y-49015001D01*
X137300001Y-49065001D01*
X137300001Y-49365000D01*
X137250001Y-49415000D01*
X136500000Y-49415000D01*
X136450000Y-49365000D01*
X136450000Y-48409999D01*
X136500000Y-48360001D01*
X136699999Y-48360001D01*
X136750002Y-48410001D01*
G37*
G36*
X138850000Y-48410001D02*
G01*
X138850000Y-49365000D01*
X138800000Y-49415000D01*
X138049999Y-49415000D01*
X137999999Y-49365000D01*
X137999999Y-49065001D01*
X138049999Y-49015001D01*
X138138998Y-49015001D01*
X138175000Y-49000000D01*
X138534999Y-48640001D01*
X138550001Y-48604001D01*
X138549998Y-48410001D01*
X138600001Y-48360001D01*
X138800000Y-48360001D01*
X138850000Y-48410001D01*
G37*
G36*
X137190001Y-49874999D02*
G01*
X137190001Y-50214999D01*
X137140001Y-50264996D01*
X136769999Y-50265001D01*
X136719999Y-50314998D01*
X136719999Y-50415001D01*
X136769999Y-50465001D01*
X137140001Y-50465001D01*
X137190001Y-50515001D01*
X137189998Y-50714998D01*
X137140001Y-50765000D01*
X136769999Y-50765000D01*
X136719999Y-50815000D01*
X136719999Y-50914997D01*
X136769999Y-50965000D01*
X137140001Y-50965000D01*
X137190001Y-51015000D01*
X137190001Y-51214999D01*
X137140001Y-51264999D01*
X136769999Y-51265002D01*
X136719999Y-51314999D01*
X136719999Y-51414999D01*
X136769999Y-51464999D01*
X137140001Y-51465001D01*
X137190001Y-51515001D01*
X137190003Y-51855000D01*
X137140001Y-51905000D01*
X136300000Y-51905000D01*
X136250000Y-51855000D01*
X136250000Y-51789999D01*
X136200000Y-51739999D01*
X135850001Y-51739999D01*
X135800001Y-51690000D01*
X135800001Y-51540000D01*
X135850001Y-51490000D01*
X136350000Y-51490000D01*
X136400000Y-51440000D01*
X136400000Y-51290000D01*
X136350000Y-51239998D01*
X135850001Y-51240000D01*
X135800001Y-51190001D01*
X135800001Y-51040001D01*
X135850001Y-50989998D01*
X136350000Y-50989998D01*
X136400000Y-50940001D01*
X136400000Y-50790001D01*
X136350000Y-50739999D01*
X135850001Y-50739999D01*
X135800001Y-50689999D01*
X135800001Y-50539999D01*
X135850001Y-50489999D01*
X136350000Y-50489999D01*
X136400000Y-50439997D01*
X136400000Y-50290000D01*
X136350000Y-50239992D01*
X135850001Y-50240000D01*
X135800004Y-50190010D01*
X135799999Y-50040000D01*
X135850001Y-49990011D01*
X136200000Y-49990000D01*
X136250000Y-49940003D01*
X136250000Y-49874999D01*
X136300000Y-49825002D01*
X137139998Y-49824999D01*
X137190001Y-49874999D01*
G37*
G36*
X139000000Y-49825002D02*
G01*
X139050000Y-49874999D01*
X139050000Y-49940001D01*
X139100000Y-49990000D01*
X139449999Y-49990011D01*
X139500001Y-50040000D01*
X139499996Y-50190010D01*
X139449999Y-50240000D01*
X138950000Y-50239992D01*
X138900000Y-50290000D01*
X138900000Y-50439997D01*
X138950000Y-50489999D01*
X139449999Y-50489999D01*
X139499999Y-50539999D01*
X139499999Y-50689999D01*
X139449999Y-50739999D01*
X138950000Y-50739999D01*
X138900000Y-50789999D01*
X138900000Y-50940001D01*
X138950000Y-50989998D01*
X139449999Y-50989998D01*
X139499999Y-51040001D01*
X139499999Y-51190001D01*
X139449999Y-51240000D01*
X138950000Y-51239998D01*
X138900000Y-51290000D01*
X138900000Y-51440000D01*
X138950000Y-51490000D01*
X139449999Y-51490000D01*
X139499999Y-51540000D01*
X139499999Y-51690000D01*
X139449999Y-51739999D01*
X139100000Y-51739999D01*
X139050000Y-51789999D01*
X139050000Y-51855000D01*
X139000000Y-51905000D01*
X138159999Y-51905000D01*
X138109997Y-51855000D01*
X138109999Y-51515001D01*
X138159999Y-51464999D01*
X138530001Y-51464999D01*
X138580001Y-51414999D01*
X138580001Y-51314999D01*
X138530001Y-51265002D01*
X138159999Y-51264999D01*
X138109999Y-51214999D01*
X138109999Y-51015000D01*
X138160002Y-50965000D01*
X138530001Y-50965000D01*
X138580001Y-50914997D01*
X138580001Y-50815000D01*
X138530001Y-50765000D01*
X138159999Y-50765000D01*
X138110002Y-50714998D01*
X138109999Y-50515001D01*
X138159999Y-50465001D01*
X138530001Y-50465001D01*
X138580001Y-50415001D01*
X138580001Y-50314998D01*
X138530001Y-50265001D01*
X138159999Y-50264996D01*
X138109999Y-50214999D01*
X138109999Y-49874999D01*
X138160002Y-49824999D01*
X139000000Y-49825002D01*
G37*
%TD*%
D11*
%TO.C,C48*%
X110520000Y-142150000D03*
X111480000Y-142150000D03*
%TD*%
D12*
%TO.C,U11*%
X126875000Y-120900000D03*
X126875000Y-119950000D03*
X126875000Y-119000000D03*
X129150000Y-119000000D03*
X129150000Y-120900000D03*
%TD*%
%TO.C,U12*%
X126875000Y-115762500D03*
X126875000Y-114812500D03*
X126875000Y-113862500D03*
X129150000Y-113862500D03*
X129150000Y-115762500D03*
%TD*%
D13*
%TO.C,R29*%
X134000000Y-128900000D03*
X134000000Y-127880000D03*
%TD*%
D14*
%TO.C,C17*%
X138300000Y-82080000D03*
X138300000Y-81120000D03*
%TD*%
D11*
%TO.C,C37*%
X115720000Y-86650000D03*
X116680000Y-86650000D03*
%TD*%
D15*
%TO.C,R22*%
X157400000Y-47600000D03*
X156380000Y-47600000D03*
%TD*%
D16*
%TO.C,C7*%
X150100000Y-86920000D03*
X150100000Y-87880000D03*
%TD*%
D17*
%TO.C,R11*%
X152340000Y-79150000D03*
X153360000Y-79150000D03*
%TD*%
D14*
%TO.C,C84*%
X143950000Y-117530000D03*
X143950000Y-116570000D03*
%TD*%
D18*
%TO.C,C12*%
X140200000Y-98000000D03*
X140200000Y-100950000D03*
%TD*%
%TO.C,C33*%
X115387500Y-98000000D03*
X115387500Y-100950000D03*
%TD*%
D19*
%TO.C,C49*%
X108175000Y-44200000D03*
X106625000Y-44200000D03*
%TD*%
D20*
%TO.C,C38*%
X116150000Y-109575000D03*
X116150000Y-111125000D03*
%TD*%
D18*
%TO.C,C14*%
X135200000Y-97950000D03*
X135200000Y-100900000D03*
%TD*%
D14*
%TO.C,C65*%
X107125000Y-109205000D03*
X107125000Y-108245000D03*
%TD*%
D21*
%TO.C,U8*%
X102050000Y-101750000D03*
X104350000Y-101750000D03*
X104350000Y-103650000D03*
X102050000Y-103650000D03*
%TD*%
D17*
%TO.C,R20*%
X110540000Y-140800000D03*
X111560000Y-140800000D03*
%TD*%
D22*
%TO.C,U4*%
X121900000Y-89350000D03*
X121900000Y-85150000D03*
D23*
X121850000Y-87950000D03*
X121850000Y-86550000D03*
X120150000Y-87950000D03*
X120150000Y-86550000D03*
D22*
X120100000Y-89350000D03*
X120100000Y-85150000D03*
D24*
X123500000Y-84500000D03*
X123500000Y-85000000D03*
X123500000Y-85500000D03*
X123500000Y-86000000D03*
X123500000Y-86500000D03*
X123500000Y-87000000D03*
X123500000Y-87500000D03*
X123500000Y-88000000D03*
X123500000Y-88500000D03*
X123500000Y-89000000D03*
X123500000Y-89500000D03*
X123500000Y-90000000D03*
D25*
X122750000Y-90750000D03*
X122250000Y-90750000D03*
X121750000Y-90750000D03*
X121250000Y-90750000D03*
X120750000Y-90750000D03*
X120250000Y-90750000D03*
X119750000Y-90750000D03*
X119250000Y-90750000D03*
D24*
X118500000Y-90000000D03*
X118500000Y-89500000D03*
X118500000Y-89000000D03*
X118500000Y-88500000D03*
X118500000Y-88000000D03*
X118500000Y-87500000D03*
X118500000Y-87000000D03*
X118500000Y-86500000D03*
X118500000Y-86000000D03*
X118500000Y-85500000D03*
X118500000Y-85000000D03*
X118500000Y-84500000D03*
D25*
X119250000Y-83750000D03*
X119750000Y-83750000D03*
X120250000Y-83750000D03*
X120750000Y-83750000D03*
X121250000Y-83750000D03*
X121750000Y-83750000D03*
X122250000Y-83750000D03*
X122750000Y-83750000D03*
%TD*%
D14*
%TO.C,C80*%
X106000000Y-117530000D03*
X106000000Y-116570000D03*
%TD*%
%TO.C,C85*%
X142600000Y-117530000D03*
X142600000Y-116570000D03*
%TD*%
%TO.C,C75*%
X144940000Y-107310000D03*
X144940000Y-106350000D03*
%TD*%
D16*
%TO.C,C68*%
X116750000Y-106345000D03*
X116750000Y-107305000D03*
%TD*%
D20*
%TO.C,C57*%
X109800000Y-109575000D03*
X109800000Y-111125000D03*
%TD*%
%TO.C,C2*%
X138000000Y-90575000D03*
X138000000Y-92125000D03*
%TD*%
D11*
%TO.C,C53*%
X102120000Y-99500000D03*
X103080000Y-99500000D03*
%TD*%
D17*
%TO.C,R26*%
X103790000Y-114040000D03*
X104810000Y-114040000D03*
%TD*%
%TO.C,R21*%
X131090000Y-68100000D03*
X132110000Y-68100000D03*
%TD*%
D14*
%TO.C,C87*%
X155400000Y-117270000D03*
X155400000Y-116310000D03*
%TD*%
D18*
%TO.C,C11*%
X142700000Y-98000000D03*
X142700000Y-100950000D03*
%TD*%
D16*
%TO.C,C71*%
X117725000Y-110230000D03*
X117725000Y-109270000D03*
%TD*%
D17*
%TO.C,R23*%
X106890000Y-131800000D03*
X107910000Y-131800000D03*
%TD*%
%TO.C,R9*%
X154940000Y-76300000D03*
X155960000Y-76300000D03*
%TD*%
D26*
%TO.C,C20*%
X146680000Y-81550000D03*
X145720000Y-81550000D03*
%TD*%
D20*
%TO.C,C58*%
X152200000Y-109575000D03*
X152200000Y-111125000D03*
%TD*%
D17*
%TO.C,R19*%
X118290000Y-82200000D03*
X119310000Y-82200000D03*
%TD*%
D20*
%TO.C,C55*%
X112990000Y-109575000D03*
X112990000Y-111125000D03*
%TD*%
D11*
%TO.C,C92*%
X135020000Y-129890000D03*
X135980000Y-129890000D03*
%TD*%
D27*
%TO.C,U3*%
X137150001Y-48300001D03*
X137650000Y-48300001D03*
X138149999Y-48300001D03*
%TD*%
D17*
%TO.C,R8*%
X145740000Y-80500000D03*
X146760000Y-80500000D03*
%TD*%
D13*
%TO.C,R36*%
X130650000Y-128910000D03*
X130650000Y-127890000D03*
%TD*%
D16*
%TO.C,C88*%
X125212500Y-119970000D03*
X125212500Y-120930000D03*
%TD*%
D20*
%TO.C,C23*%
X113600000Y-90575000D03*
X113600000Y-92125000D03*
%TD*%
D17*
%TO.C,R13*%
X152340000Y-77700000D03*
X153360000Y-77700000D03*
%TD*%
D14*
%TO.C,C66*%
X108125000Y-108255000D03*
X108125000Y-107295000D03*
%TD*%
D26*
%TO.C,C21*%
X146680000Y-71725000D03*
X145720000Y-71725000D03*
%TD*%
D18*
%TO.C,C34*%
X112787500Y-98000000D03*
X112787500Y-100950000D03*
%TD*%
D17*
%TO.C,R39*%
X153390000Y-47600000D03*
X154410000Y-47600000D03*
%TD*%
D20*
%TO.C,C60*%
X149000000Y-109575000D03*
X149000000Y-111125000D03*
%TD*%
D16*
%TO.C,C6*%
X140500000Y-90770000D03*
X140500000Y-91730000D03*
%TD*%
D18*
%TO.C,C32*%
X117900000Y-98000000D03*
X117900000Y-100950000D03*
%TD*%
D20*
%TO.C,C59*%
X150600000Y-109575000D03*
X150600000Y-111125000D03*
%TD*%
D28*
%TO.C,C29*%
X128750000Y-88848457D03*
X128750000Y-86948457D03*
%TD*%
D29*
%TO.C,L1*%
X153570000Y-92350000D03*
X153570000Y-100950000D03*
%TD*%
D20*
%TO.C,C54*%
X114550000Y-109575000D03*
X114550000Y-111125000D03*
%TD*%
D14*
%TO.C,C81*%
X107550000Y-117530000D03*
X107550000Y-116570000D03*
%TD*%
D17*
%TO.C,R18*%
X135540000Y-46500000D03*
X136560000Y-46500000D03*
%TD*%
D14*
%TO.C,C83*%
X118250000Y-117530000D03*
X118250000Y-116570000D03*
%TD*%
D20*
%TO.C,C24*%
X111950000Y-90575000D03*
X111950000Y-92125000D03*
%TD*%
D30*
%TO.C,J4*%
X119150000Y-45640000D03*
X119950000Y-45640000D03*
D31*
X121100000Y-45640000D03*
X122100000Y-45640000D03*
X122600000Y-45640000D03*
X123600000Y-45640000D03*
D30*
X125550000Y-45640000D03*
X124750000Y-45640000D03*
D31*
X124100000Y-45640000D03*
X123100000Y-45640000D03*
X121600000Y-45640000D03*
X120600000Y-45640000D03*
D32*
X118030000Y-40885000D03*
D33*
X118030000Y-45065000D03*
D32*
X126670000Y-40885000D03*
D33*
X126670000Y-45065000D03*
%TD*%
D22*
%TO.C,U1*%
X146250000Y-89350000D03*
X146250000Y-85150000D03*
D23*
X146200000Y-87950000D03*
X146200000Y-86550000D03*
X144500000Y-87950000D03*
X144500000Y-86550000D03*
D22*
X144450000Y-89350000D03*
X144450000Y-85150000D03*
D24*
X147850000Y-84500000D03*
X147850000Y-85000000D03*
X147850000Y-85500000D03*
X147850000Y-86000000D03*
X147850000Y-86500000D03*
X147850000Y-87000000D03*
X147850000Y-87500000D03*
X147850000Y-88000000D03*
X147850000Y-88500000D03*
X147850000Y-89000000D03*
X147850000Y-89500000D03*
X147850000Y-90000000D03*
D25*
X147100000Y-90750000D03*
X146600000Y-90750000D03*
X146100000Y-90750000D03*
X145600000Y-90750000D03*
X145100000Y-90750000D03*
X144600000Y-90750000D03*
X144100000Y-90750000D03*
X143600000Y-90750000D03*
D24*
X142850000Y-90000000D03*
X142850000Y-89500000D03*
X142850000Y-89000000D03*
X142850000Y-88500000D03*
X142850000Y-88000000D03*
X142850000Y-87500000D03*
X142850000Y-87000000D03*
X142850000Y-86500000D03*
X142850000Y-86000000D03*
X142850000Y-85500000D03*
X142850000Y-85000000D03*
X142850000Y-84500000D03*
D25*
X143600000Y-83750000D03*
X144100000Y-83750000D03*
X144600000Y-83750000D03*
X145100000Y-83750000D03*
X145600000Y-83750000D03*
X146100000Y-83750000D03*
X146600000Y-83750000D03*
X147100000Y-83750000D03*
%TD*%
D15*
%TO.C,R40*%
X157410000Y-48800000D03*
X156390000Y-48800000D03*
%TD*%
%TO.C,R4*%
X138260000Y-83700000D03*
X137240000Y-83700000D03*
%TD*%
D14*
%TO.C,C67*%
X109150000Y-107330000D03*
X109150000Y-106370000D03*
%TD*%
D34*
%TO.C,C96*%
X143050000Y-136975000D03*
X143050000Y-134025000D03*
%TD*%
D11*
%TO.C,C46*%
X137820000Y-62700000D03*
X138780000Y-62700000D03*
%TD*%
D16*
%TO.C,C27*%
X117400000Y-90620000D03*
X117400000Y-91580000D03*
%TD*%
D13*
%TO.C,R32*%
X132950000Y-128900000D03*
X132950000Y-127880000D03*
%TD*%
%TO.C,R34*%
X131700000Y-128910000D03*
X131700000Y-127890000D03*
%TD*%
D16*
%TO.C,C90*%
X125262500Y-114820000D03*
X125262500Y-115780000D03*
%TD*%
D35*
%TO.C,R35*%
X129500000Y-128840000D03*
X129500000Y-129860000D03*
%TD*%
D13*
%TO.C,R33*%
X128450000Y-129860000D03*
X128450000Y-128840000D03*
%TD*%
D15*
%TO.C,R30*%
X132110000Y-139300000D03*
X131090000Y-139300000D03*
%TD*%
D36*
%TO.C,R2*%
X153000000Y-85112500D03*
X153000000Y-83287500D03*
%TD*%
D11*
%TO.C,C47*%
X137570000Y-55450000D03*
X138530000Y-55450000D03*
%TD*%
D16*
%TO.C,C4*%
X139400000Y-90770000D03*
X139400000Y-91730000D03*
%TD*%
%TO.C,C25*%
X115100000Y-90620000D03*
X115100000Y-91580000D03*
%TD*%
D13*
%TO.C,R1*%
X142600000Y-82510000D03*
X142600000Y-81490000D03*
%TD*%
D37*
%TO.C,U7*%
X103425000Y-123425000D03*
X104075000Y-123425000D03*
X104725000Y-123425000D03*
X105375000Y-123425000D03*
X106025000Y-123425000D03*
X106675000Y-123425000D03*
X107325000Y-123425000D03*
X107975000Y-123425000D03*
X107975000Y-129150000D03*
X107325000Y-129150000D03*
X106675000Y-129150000D03*
X106025000Y-129150000D03*
X105375000Y-129150000D03*
X104725000Y-129150000D03*
X104075000Y-129150000D03*
X103425000Y-129150000D03*
%TD*%
D14*
%TO.C,C64*%
X108125000Y-110155000D03*
X108125000Y-109195000D03*
%TD*%
D16*
%TO.C,C15*%
X141050000Y-81920000D03*
X141050000Y-82880000D03*
%TD*%
%TO.C,C70*%
X118775000Y-108395000D03*
X118775000Y-109355000D03*
%TD*%
%TO.C,C78*%
X155050000Y-108170000D03*
X155050000Y-109130000D03*
%TD*%
D14*
%TO.C,C97*%
X144850000Y-136680000D03*
X144850000Y-135720000D03*
%TD*%
D16*
%TO.C,C19*%
X151100000Y-83870000D03*
X151100000Y-84830000D03*
%TD*%
D35*
%TO.C,R5*%
X139600000Y-81140000D03*
X139600000Y-82160000D03*
%TD*%
D38*
%TO.C,U2*%
X148000000Y-70550000D03*
X148000000Y-69900000D03*
X148000000Y-69250000D03*
X149900000Y-69250000D03*
X149900000Y-69900000D03*
X149900000Y-70550000D03*
%TD*%
D16*
%TO.C,C76*%
X153010000Y-106310000D03*
X153010000Y-107270000D03*
%TD*%
D14*
%TO.C,C74*%
X143925000Y-108280000D03*
X143925000Y-107320000D03*
%TD*%
D20*
%TO.C,C62*%
X145800000Y-109575000D03*
X145800000Y-111125000D03*
%TD*%
D39*
%TO.C,C39*%
X142450000Y-48675000D03*
X142450000Y-47125000D03*
%TD*%
D14*
%TO.C,C40*%
X141100000Y-48430000D03*
X141100000Y-47470000D03*
%TD*%
D20*
%TO.C,C56*%
X111400000Y-109575000D03*
X111400000Y-111125000D03*
%TD*%
D36*
%TO.C,R15*%
X128750000Y-85412500D03*
X128750000Y-83587500D03*
%TD*%
D17*
%TO.C,R31*%
X133240000Y-137700000D03*
X134260000Y-137700000D03*
%TD*%
D40*
%TO.C,C1*%
X141950000Y-75200000D03*
X148175000Y-75200000D03*
%TD*%
D16*
%TO.C,C79*%
X154050000Y-109195000D03*
X154050000Y-110155000D03*
%TD*%
D20*
%TO.C,C61*%
X147400000Y-109575000D03*
X147400000Y-111125000D03*
%TD*%
D41*
%TO.C,R14*%
X145937500Y-66350000D03*
X151862500Y-66350000D03*
%TD*%
D17*
%TO.C,R10*%
X154940000Y-77700000D03*
X155960000Y-77700000D03*
%TD*%
%TO.C,R7*%
X154940000Y-79150000D03*
X155960000Y-79150000D03*
%TD*%
D42*
%TO.C,U6*%
X106010000Y-48000000D03*
X107280000Y-48000000D03*
X108550000Y-48000000D03*
X109820000Y-48000000D03*
X111090000Y-48000000D03*
X112360000Y-48000000D03*
X113630000Y-48000000D03*
X114900000Y-48000000D03*
X116170000Y-48000000D03*
X117440000Y-48000000D03*
X118710000Y-48000000D03*
X119980000Y-48000000D03*
X121250000Y-48000000D03*
X122520000Y-48000000D03*
D43*
X123770000Y-49765000D03*
X123770000Y-51035000D03*
X123770000Y-52305000D03*
X123770000Y-53575000D03*
X123770000Y-54845000D03*
X123770000Y-56115000D03*
X123770000Y-57385000D03*
X123770000Y-58655000D03*
X123770000Y-59925000D03*
X123770000Y-61195000D03*
X123770000Y-62465000D03*
X123770000Y-63735000D03*
D42*
X122520000Y-65500000D03*
X121250000Y-65500000D03*
X119980000Y-65500000D03*
X118710000Y-65500000D03*
X117440000Y-65500000D03*
X116170000Y-65500000D03*
X114900000Y-65500000D03*
X113630000Y-65500000D03*
X112360000Y-65500000D03*
X111090000Y-65500000D03*
X109820000Y-65500000D03*
X108550000Y-65500000D03*
X107280000Y-65500000D03*
X106010000Y-65500000D03*
D44*
X115130000Y-53850000D03*
X113730000Y-53850000D03*
X112330000Y-53850000D03*
X115130000Y-55250000D03*
X113730000Y-55250000D03*
X112330000Y-55250000D03*
X115130000Y-56650000D03*
X113730000Y-56650000D03*
X112330000Y-56650000D03*
%TD*%
D20*
%TO.C,C3*%
X136400000Y-90625000D03*
X136400000Y-92175000D03*
%TD*%
D16*
%TO.C,C28*%
X126000000Y-86870000D03*
X126000000Y-87830000D03*
%TD*%
D26*
%TO.C,C91*%
X132230000Y-115750000D03*
X131270000Y-115750000D03*
%TD*%
D18*
%TO.C,C31*%
X120450000Y-98000000D03*
X120450000Y-100950000D03*
%TD*%
D39*
%TO.C,C44*%
X132600000Y-50575000D03*
X132600000Y-49025000D03*
%TD*%
D26*
%TO.C,C45*%
X121380000Y-82250000D03*
X120420000Y-82250000D03*
%TD*%
D16*
%TO.C,C5*%
X141620000Y-90770000D03*
X141620000Y-91730000D03*
%TD*%
D17*
%TO.C,R12*%
X152340000Y-76300000D03*
X153360000Y-76300000D03*
%TD*%
D14*
%TO.C,C18*%
X144250000Y-81480000D03*
X144250000Y-80520000D03*
%TD*%
D18*
%TO.C,C9*%
X147720000Y-98000000D03*
X147720000Y-100950000D03*
%TD*%
D26*
%TO.C,C93*%
X133930000Y-129900000D03*
X132970000Y-129900000D03*
%TD*%
D45*
%TO.C,U13*%
X132950000Y-133750000D03*
X131900000Y-133750000D03*
X132950000Y-134800000D03*
X131900000Y-134800000D03*
D46*
X131450000Y-132325000D03*
X132100000Y-132325000D03*
X132750000Y-132325000D03*
X133400000Y-132325000D03*
D47*
X134375000Y-133300000D03*
X134375000Y-133950000D03*
X134375000Y-134600000D03*
X134375000Y-135250000D03*
D46*
X133400000Y-136225000D03*
X132750000Y-136225000D03*
X132100000Y-136225000D03*
X131450000Y-136225000D03*
D47*
X130475000Y-135250000D03*
X130475000Y-134600000D03*
X130475000Y-133950000D03*
X130475000Y-133300000D03*
%TD*%
D14*
%TO.C,C72*%
X143925000Y-110180000D03*
X143925000Y-109220000D03*
%TD*%
%TO.C,C86*%
X154200000Y-117270000D03*
X154200000Y-116310000D03*
%TD*%
D29*
%TO.C,L2*%
X128600000Y-92350000D03*
X128600000Y-100950000D03*
%TD*%
D18*
%TO.C,C13*%
X137700000Y-98000000D03*
X137700000Y-100950000D03*
%TD*%
D35*
%TO.C,R6*%
X127000000Y-63690000D03*
X127000000Y-64710000D03*
%TD*%
D26*
%TO.C,C50*%
X107080000Y-46100000D03*
X106120000Y-46100000D03*
%TD*%
D48*
%TO.C,C22*%
X106150000Y-90087500D03*
X106150000Y-96312500D03*
%TD*%
D18*
%TO.C,C10*%
X145200000Y-98000000D03*
X145200000Y-100950000D03*
%TD*%
D11*
%TO.C,C94*%
X131120000Y-140500000D03*
X132080000Y-140500000D03*
%TD*%
D18*
%TO.C,C35*%
X110237500Y-98000000D03*
X110237500Y-100950000D03*
%TD*%
D14*
%TO.C,C73*%
X142900000Y-109380000D03*
X142900000Y-108420000D03*
%TD*%
D16*
%TO.C,C36*%
X116650000Y-82920000D03*
X116650000Y-83880000D03*
%TD*%
D17*
%TO.C,R28*%
X139740000Y-114450000D03*
X140760000Y-114450000D03*
%TD*%
%TO.C,R16*%
X114840000Y-85450000D03*
X115860000Y-85450000D03*
%TD*%
%TO.C,R38*%
X153390000Y-48800000D03*
X154410000Y-48800000D03*
%TD*%
%TO.C,R17*%
X138290000Y-46500000D03*
X139310000Y-46500000D03*
%TD*%
%TO.C,R3*%
X137240000Y-84900000D03*
X138260000Y-84900000D03*
%TD*%
D16*
%TO.C,C16*%
X139750000Y-84420000D03*
X139750000Y-85380000D03*
%TD*%
D17*
%TO.C,R37*%
X131090000Y-66600000D03*
X132110000Y-66600000D03*
%TD*%
%TO.C,R24*%
X103790000Y-112750000D03*
X104810000Y-112750000D03*
%TD*%
D28*
%TO.C,C8*%
X152950000Y-88850000D03*
X152950000Y-86950000D03*
%TD*%
D26*
%TO.C,C89*%
X132280000Y-120900000D03*
X131320000Y-120900000D03*
%TD*%
D16*
%TO.C,C69*%
X117750000Y-107320000D03*
X117750000Y-108280000D03*
%TD*%
D17*
%TO.C,R27*%
X134190000Y-113850000D03*
X135210000Y-113850000D03*
%TD*%
D16*
%TO.C,C42*%
X126300000Y-84020000D03*
X126300000Y-84980000D03*
%TD*%
%TO.C,C26*%
X116250000Y-90620000D03*
X116250000Y-91580000D03*
%TD*%
%TO.C,C77*%
X154050000Y-107295000D03*
X154050000Y-108255000D03*
%TD*%
D26*
%TO.C,C95*%
X131680000Y-129900000D03*
X130720000Y-129900000D03*
%TD*%
D14*
%TO.C,C51*%
X101800000Y-131080000D03*
X101800000Y-130120000D03*
%TD*%
D18*
%TO.C,C30*%
X123000000Y-98000000D03*
X123000000Y-100950000D03*
%TD*%
D14*
%TO.C,C82*%
X119750000Y-117530000D03*
X119750000Y-116570000D03*
%TD*%
D16*
%TO.C,C52*%
X104100000Y-132420000D03*
X104100000Y-133380000D03*
%TD*%
D49*
%TO.C,U5*%
X138750000Y-57537500D03*
D50*
X138662500Y-59037500D03*
D49*
X138750000Y-60537500D03*
%TD*%
D39*
%TO.C,C43*%
X134350000Y-50575000D03*
X134350000Y-49025000D03*
%TD*%
M02*
