M48
; DRILL file {KiCad 9.0.0} date 2025-05-20T14:14:38-0400
; FORMAT={-:-/ absolute / metric / decimal}
; #@! TF.CreationDate,2025-05-20T14:14:38-04:00
; #@! TF.GenerationSoftware,Kicad,Pcbnew,9.0.0
; #@! TF.FileFunction,Plated,1,6,PTH
FMAT,2
METRIC
; #@! TA.AperFunction,Plated,PTH,ViaDrill
T1C0.300
; #@! TA.AperFunction,Plated,PTH,ComponentDrill
T2C0.300
; #@! TA.AperFunction,Plated,PTH,ViaDrill
T3C0.350
; #@! TA.AperFunction,Plated,PTH,ViaDrill
T4C0.400
; #@! TA.AperFunction,Plated,PTH,ComponentDrill
T5C0.500
; #@! TA.AperFunction,Plated,PTH,ViaDrill
T6C0.600
; #@! TA.AperFunction,Plated,PTH,ComponentDrill
T7C0.600
; #@! TA.AperFunction,Plated,PTH,ComponentDrill
T8C1.000
; #@! TA.AperFunction,Plated,PTH,ComponentDrill
T9C1.067
; #@! TA.AperFunction,Plated,PTH,ComponentDrill
T10C1.300
; #@! TA.AperFunction,Plated,PTH,ComponentDrill
T11C1.700
; #@! TA.AperFunction,Plated,PTH,ComponentDrill
T12C3.200
; #@! TA.AperFunction,Plated,PTH,ComponentDrill
T13C4.200
%
G90
G05
T1
X101.69Y-128.21
X103.369Y-126.091
X103.45Y-100.59
X103.45Y-121.65
X103.735Y-73.385
X103.79Y-113.4
X103.99Y-130.17
X104.01Y-129.21
X104.1Y-114.95
X104.35Y-101.75
X104.675Y-121.612
X104.699Y-126.897
X105.26Y-128.15
X105.31Y-121.315
X105.42Y-112.701
X105.55Y-114.05
X105.875Y-46.15
X105.93Y-127.53
X106.0Y-114.85
X106.0Y-121.2
X106.05Y-115.8
X106.05Y-120.2
X106.2Y-112.55
X106.65Y-120.2
X106.7Y-77.11
X106.79Y-126.92
X107.079Y-110.221
X107.425Y-46.15
X107.55Y-115.9
X107.78Y-77.11
X107.85Y-114.75
X107.94Y-123.38
X108.0Y-121.5
X108.025Y-109.275
X108.125Y-108.255
X108.575Y-67.625
X109.4Y-73.0
X109.48Y-107.34
X109.5Y-131.3
X109.5Y-132.3
X109.82Y-65.5
X109.9Y-96.4
X109.9Y-97.0
X109.9Y-97.6
X109.9Y-101.4
X109.9Y-102.1
X109.9Y-102.8
X109.95Y-63.2
X110.5Y-96.4
X110.5Y-97.0
X110.5Y-97.6
X110.5Y-107.4
X110.5Y-108.5
X110.5Y-109.5
X110.5Y-111.25
X110.5Y-112.25
X110.5Y-113.25
X110.5Y-114.25
X110.5Y-115.25
X110.55Y-117.0
X110.55Y-118.0
X110.55Y-119.0
X110.6Y-101.4
X110.6Y-102.1
X110.6Y-102.8
X110.7Y-49.984
X111.4Y-61.45
X111.4Y-71.5
X111.5Y-107.4
X111.5Y-108.5
X111.5Y-109.5
X111.5Y-111.25
X111.5Y-112.25
X111.5Y-113.25
X111.5Y-114.25
X111.5Y-115.25
X111.55Y-117.0
X111.55Y-118.0
X111.55Y-119.0
X111.57Y-93.5
X111.57Y-94.1
X111.57Y-94.7
X111.57Y-95.3
X111.59Y-87.26
X111.59Y-87.86
X111.59Y-88.46
X111.59Y-89.06
X112.0Y-70.6
X112.162Y-101.4
X112.162Y-102.1
X112.162Y-102.8
X112.2Y-87.25
X112.2Y-87.85
X112.2Y-88.45
X112.2Y-89.05
X112.2Y-93.5
X112.2Y-94.1
X112.2Y-94.7
X112.2Y-95.3
X112.262Y-96.4
X112.262Y-97.0
X112.262Y-97.6
X112.36Y-63.06
X112.5Y-107.4
X112.5Y-108.5
X112.5Y-109.5
X112.5Y-111.25
X112.5Y-112.25
X112.5Y-113.25
X112.5Y-114.25
X112.5Y-115.25
X112.55Y-117.0
X112.55Y-118.0
X112.55Y-119.0
X112.6Y-45.8
X112.8Y-87.25
X112.8Y-87.85
X112.8Y-88.45
X112.8Y-89.05
X112.8Y-93.5
X112.8Y-94.1
X112.8Y-94.7
X112.8Y-95.3
X112.862Y-96.4
X112.862Y-97.0
X112.862Y-97.6
X112.862Y-101.4
X112.862Y-102.1
X112.862Y-102.8
X113.4Y-87.26
X113.4Y-87.86
X113.4Y-88.46
X113.4Y-89.06
X113.43Y-93.51
X113.43Y-94.11
X113.43Y-94.71
X113.43Y-95.31
X113.5Y-107.4
X113.5Y-108.5
X113.5Y-109.5
X113.5Y-111.25
X113.5Y-112.25
X113.5Y-113.25
X113.5Y-114.25
X113.5Y-115.25
X113.55Y-117.0
X113.55Y-118.0
X113.55Y-119.0
X113.65Y-63.05
X114.462Y-101.4
X114.462Y-102.1
X114.462Y-102.8
X114.5Y-107.4
X114.5Y-108.5
X114.5Y-109.5
X114.5Y-111.25
X114.5Y-112.25
X114.5Y-113.25
X114.5Y-114.25
X114.5Y-115.25
X114.55Y-117.0
X114.55Y-118.0
X114.55Y-119.0
X114.562Y-96.4
X114.562Y-97.0
X114.562Y-97.6
X114.9Y-63.05
X115.07Y-86.13
X115.08Y-85.2
X115.162Y-96.4
X115.162Y-97.0
X115.162Y-97.6
X115.162Y-101.4
X115.162Y-102.1
X115.162Y-102.8
X115.46Y-83.04
X115.5Y-82.06
X115.5Y-107.4
X115.5Y-108.5
X115.5Y-109.5
X115.5Y-111.25
X115.5Y-112.25
X115.5Y-113.25
X115.5Y-114.25
X115.5Y-115.25
X115.525Y-92.475
X115.525Y-93.025
X115.55Y-117.0
X115.55Y-118.0
X115.55Y-119.0
X115.65Y-84.31
X116.125Y-92.475
X116.125Y-93.025
X116.15Y-63.1
X116.64Y-107.35
X116.85Y-96.4
X116.85Y-97.0
X116.85Y-97.6
X116.85Y-101.4
X116.85Y-102.1
X116.85Y-102.8
X117.05Y-92.45
X117.05Y-93.0
X117.45Y-96.4
X117.45Y-97.0
X117.45Y-97.6
X117.55Y-101.4
X117.55Y-102.1
X117.55Y-102.8
X117.65Y-92.45
X117.65Y-93.0
X117.7Y-62.1
X117.74Y-114.45
X117.75Y-108.28
X117.825Y-115.625
X117.95Y-109.35
X118.0Y-113.25
X118.3Y-81.2
X118.329Y-113.868
X118.71Y-62.09
X118.81Y-110.1
X119.1Y-101.4
X119.1Y-102.1
X119.1Y-102.8
X119.2Y-96.4
X119.2Y-97.0
X119.2Y-97.6
X119.75Y-115.05
X119.8Y-96.4
X119.8Y-97.0
X119.8Y-97.6
X119.8Y-101.4
X119.8Y-102.1
X119.8Y-102.8
X120.45Y-81.2
X121.45Y-96.4
X121.45Y-97.0
X121.45Y-97.6
X121.45Y-101.4
X121.45Y-102.1
X121.45Y-102.8
X122.05Y-96.4
X122.05Y-97.0
X122.05Y-97.6
X122.15Y-101.4
X122.15Y-102.1
X122.15Y-102.8
X122.2Y-81.65
X123.32Y-62.465
X123.46Y-67.8
X124.1Y-61.19
X124.45Y-114.3
X124.45Y-114.95
X124.45Y-119.3
X124.45Y-119.95
X125.2Y-122.7
X125.286Y-80.547
X125.7Y-88.4
X125.97Y-89.0
X125.97Y-89.825
X125.97Y-90.65
X125.97Y-91.475
X125.97Y-92.3
X125.99Y-61.77
X125.99Y-62.79
X125.99Y-85.84
X126.18Y-80.56
X126.328Y-82.85
X126.4Y-88.4
X126.7Y-128.85
X126.81Y-79.66
X127.22Y-82.54
X127.3Y-122.7
X127.35Y-88.975
X127.4Y-90.9
X127.4Y-91.7
X127.4Y-92.5
X127.4Y-93.2
X127.4Y-93.9
X127.4Y-94.6
X127.4Y-95.4
X127.4Y-96.2
X127.4Y-101.9
X127.4Y-102.65
X127.4Y-103.45
X127.4Y-104.25
X127.4Y-105.65
X127.4Y-106.45
X127.4Y-107.25
X127.4Y-108.05
X127.43Y-60.53
X127.45Y-139.3
X128.1Y-88.975
X128.2Y-81.58
X128.2Y-90.9
X128.2Y-91.7
X128.2Y-92.5
X128.2Y-93.2
X128.2Y-93.9
X128.2Y-94.6
X128.2Y-95.4
X128.2Y-96.2
X128.2Y-101.9
X128.2Y-102.65
X128.2Y-103.45
X128.2Y-104.25
X128.2Y-105.65
X128.2Y-106.45
X128.2Y-107.25
X128.2Y-108.05
X129.0Y-90.9
X129.0Y-91.7
X129.0Y-92.5
X129.0Y-93.2
X129.0Y-93.9
X129.0Y-94.6
X129.0Y-95.4
X129.0Y-96.2
X129.0Y-101.9
X129.0Y-102.65
X129.0Y-103.45
X129.0Y-104.25
X129.0Y-105.65
X129.0Y-106.45
X129.0Y-107.25
X129.0Y-108.05
X129.2Y-57.1
X129.5Y-128.84
X129.75Y-90.9
X129.75Y-91.7
X129.75Y-92.5
X129.75Y-93.2
X129.75Y-93.9
X129.75Y-94.6
X129.75Y-95.4
X129.75Y-96.2
X129.8Y-101.9
X129.8Y-102.65
X129.8Y-103.45
X129.8Y-104.25
X129.8Y-105.65
X129.8Y-106.45
X129.8Y-107.25
X129.8Y-108.05
X130.3Y-52.025
X130.43Y-116.72
X130.45Y-115.762
X130.65Y-127.89
X130.99Y-58.86
X130.99Y-59.86
X130.99Y-60.86
X130.99Y-61.86
X130.99Y-62.86
X130.99Y-63.86
X130.99Y-64.86
X131.43Y-141.81
X131.7Y-127.89
X131.765Y-44.145
X131.99Y-58.86
X131.99Y-59.86
X131.99Y-60.86
X131.99Y-61.86
X131.99Y-62.86
X131.99Y-63.86
X131.99Y-64.86
X132.08Y-140.5
X132.21Y-114.87
X132.425Y-134.275
X132.55Y-43.61
X132.95Y-127.88
X132.99Y-58.86
X132.99Y-59.86
X132.99Y-60.86
X132.99Y-61.86
X132.99Y-62.86
X132.99Y-63.86
X132.99Y-64.86
X133.2Y-120.9
X133.25Y-113.85
X133.95Y-101.65
X133.99Y-58.86
X133.99Y-59.86
X133.99Y-60.86
X133.99Y-61.86
X133.99Y-62.86
X133.99Y-63.86
X133.99Y-64.86
X134.0Y-127.8
X134.25Y-139.0
X134.8Y-101.3
X134.8Y-102.0
X134.8Y-102.7
X134.9Y-96.4
X134.9Y-97.0
X134.9Y-97.6
X135.47Y-87.05
X135.47Y-87.65
X135.47Y-88.25
X135.47Y-88.85
X135.5Y-96.4
X135.5Y-97.0
X135.5Y-97.6
X135.5Y-101.3
X135.5Y-102.0
X135.5Y-102.7
X135.6Y-136.2
X135.65Y-135.25
X135.98Y-129.89
X136.0Y-93.3
X136.0Y-93.9
X136.0Y-94.5
X136.0Y-95.1
X136.1Y-87.05
X136.1Y-87.65
X136.1Y-88.25
X136.1Y-88.85
X136.2Y-113.35
X136.56Y-42.08
X136.6Y-93.3
X136.6Y-93.9
X136.6Y-94.5
X136.6Y-95.1
X136.7Y-87.05
X136.7Y-87.65
X136.7Y-88.25
X136.7Y-88.85
X137.1Y-101.275
X137.1Y-101.975
X137.1Y-102.675
X137.12Y-42.58
X137.2Y-96.375
X137.2Y-96.975
X137.2Y-97.575
X137.34Y-87.05
X137.34Y-87.65
X137.34Y-88.25
X137.34Y-88.85
X137.55Y-82.79
X137.62Y-81.12
X137.71Y-143.57
X137.71Y-145.12
X137.79Y-84.89
X137.8Y-96.375
X137.8Y-96.975
X137.8Y-97.575
X137.8Y-101.275
X137.8Y-101.975
X137.8Y-102.675
X138.38Y-50.382
X138.93Y-58.92
X138.94Y-58.17
X138.94Y-59.59
X138.94Y-60.297
X138.97Y-83.62
X139.5Y-96.375
X139.5Y-96.975
X139.5Y-97.575
X139.5Y-101.275
X139.5Y-101.975
X139.5Y-102.675
X139.74Y-84.42
X139.74Y-113.76
X139.835Y-82.919
X139.875Y-92.675
X139.875Y-93.225
X140.1Y-96.375
X140.1Y-96.975
X140.1Y-97.575
X140.2Y-101.275
X140.2Y-101.975
X140.2Y-102.675
X140.475Y-92.675
X140.475Y-93.225
X140.488Y-81.58
X140.49Y-80.82
X141.35Y-115.15
X141.375Y-92.625
X141.375Y-93.175
X141.4Y-114.45
X141.45Y-80.82
X141.615Y-81.58
X141.65Y-113.75
X141.8Y-96.375
X141.8Y-96.975
X141.8Y-97.575
X141.8Y-101.275
X141.8Y-101.975
X141.8Y-102.675
X141.975Y-92.625
X141.975Y-93.175
X142.4Y-96.375
X142.4Y-96.975
X142.4Y-97.575
X142.5Y-101.275
X142.5Y-101.975
X142.5Y-102.675
X142.61Y-116.57
X142.92Y-114.95
X143.25Y-81.32
X143.785Y-58.99
X143.785Y-59.9
X143.785Y-60.81
X143.785Y-61.72
X143.785Y-62.63
X143.785Y-63.54
X143.87Y-110.08
X143.925Y-108.28
X143.925Y-109.22
X143.94Y-116.56
X144.0Y-101.275
X144.0Y-101.975
X144.0Y-102.675
X144.1Y-96.375
X144.1Y-96.975
X144.1Y-97.575
X144.67Y-81.41
X144.7Y-96.375
X144.7Y-96.975
X144.7Y-97.575
X144.7Y-101.275
X144.7Y-101.975
X144.7Y-102.675
X144.841Y-58.99
X144.841Y-59.9
X144.841Y-60.81
X144.841Y-61.72
X144.841Y-62.63
X144.841Y-63.54
X145.36Y-107.3
X145.64Y-81.41
X145.66Y-80.36
X145.897Y-58.99
X145.897Y-59.9
X145.897Y-60.81
X145.897Y-61.72
X145.897Y-62.63
X145.897Y-63.54
X146.36Y-80.8
X146.38Y-96.375
X146.38Y-96.975
X146.38Y-97.575
X146.38Y-101.275
X146.38Y-101.975
X146.38Y-102.675
X146.5Y-107.4
X146.5Y-108.5
X146.5Y-109.5
X146.5Y-111.25
X146.5Y-112.25
X146.5Y-113.25
X146.5Y-114.25
X146.5Y-115.25
X146.6Y-117.05
X146.6Y-118.05
X146.6Y-119.05
X146.954Y-58.99
X146.954Y-59.9
X146.954Y-60.81
X146.954Y-61.72
X146.954Y-62.63
X146.954Y-63.54
X146.98Y-96.375
X146.98Y-96.975
X146.98Y-97.575
X147.08Y-101.275
X147.08Y-101.975
X147.08Y-102.675
X147.08Y-80.262
X147.5Y-107.4
X147.5Y-108.5
X147.5Y-109.5
X147.5Y-111.25
X147.5Y-112.25
X147.5Y-113.25
X147.5Y-114.25
X147.5Y-115.25
X147.6Y-117.05
X147.6Y-118.05
X147.6Y-119.05
X147.78Y-80.25
X148.01Y-58.97
X148.01Y-59.88
X148.01Y-60.79
X148.01Y-61.7
X148.01Y-62.61
X148.01Y-63.52
X148.5Y-107.4
X148.5Y-108.5
X148.5Y-109.5
X148.5Y-111.25
X148.5Y-112.25
X148.5Y-113.25
X148.5Y-114.25
X148.5Y-115.25
X148.501Y-52.07
X148.501Y-52.98
X148.55Y-80.25
X148.6Y-117.05
X148.6Y-118.05
X148.6Y-119.05
X148.791Y-62.62
X148.791Y-63.53
X149.09Y-73.91
X149.5Y-107.4
X149.5Y-108.5
X149.5Y-109.5
X149.5Y-111.25
X149.5Y-112.25
X149.5Y-113.25
X149.5Y-114.25
X149.5Y-115.25
X149.558Y-52.07
X149.558Y-52.98
X149.6Y-117.05
X149.6Y-118.05
X149.6Y-119.05
X149.74Y-74.42
X149.847Y-62.62
X149.847Y-63.53
X150.24Y-73.2
X150.25Y-88.53
X150.25Y-89.362
X150.25Y-90.194
X150.25Y-91.026
X150.25Y-91.858
X150.25Y-92.69
X150.302Y-86.058
X150.5Y-107.4
X150.5Y-108.5
X150.5Y-109.5
X150.5Y-111.25
X150.5Y-112.25
X150.5Y-113.25
X150.5Y-114.25
X150.5Y-115.25
X150.6Y-117.05
X150.6Y-118.05
X150.6Y-119.05
X150.614Y-52.07
X150.614Y-52.98
X150.904Y-62.62
X150.904Y-63.53
X151.13Y-72.375
X151.275Y-88.425
X151.4Y-78.26
X151.5Y-107.4
X151.5Y-108.5
X151.5Y-109.5
X151.5Y-111.25
X151.5Y-112.25
X151.5Y-113.25
X151.5Y-114.25
X151.5Y-115.25
X151.55Y-89.29
X151.6Y-117.05
X151.6Y-118.05
X151.6Y-119.05
X151.67Y-52.07
X151.67Y-52.98
X151.87Y-73.15
X151.91Y-74.4
X151.96Y-62.62
X151.96Y-63.53
X152.075Y-88.425
X152.6Y-100.3
X152.6Y-101.1
X152.6Y-101.95
X152.6Y-102.75
X152.6Y-103.55
X152.6Y-104.35
X152.6Y-105.2
X152.6Y-106.0
X152.715Y-58.97
X152.715Y-59.88
X152.715Y-60.79
X152.715Y-61.7
X152.715Y-62.61
X152.715Y-63.52
X152.725Y-52.09
X152.725Y-53.0
X152.725Y-53.91
X152.725Y-54.82
X152.725Y-55.73
X152.725Y-56.64
X152.73Y-107.29
X152.8Y-91.8
X152.8Y-92.5
X152.8Y-93.2
X152.8Y-93.9
X152.8Y-94.6
X152.8Y-95.3
X152.8Y-96.0
X152.8Y-96.7
X152.9Y-82.78
X153.26Y-69.19
X153.4Y-100.3
X153.4Y-101.1
X153.4Y-101.95
X153.4Y-102.75
X153.4Y-103.55
X153.4Y-104.35
X153.4Y-105.2
X153.4Y-106.0
X153.5Y-91.8
X153.5Y-92.5
X153.5Y-93.2
X153.5Y-93.9
X153.5Y-94.6
X153.5Y-95.3
X153.5Y-96.0
X153.5Y-96.7
X153.771Y-58.97
X153.771Y-59.88
X153.771Y-60.79
X153.771Y-61.7
X153.771Y-62.61
X153.771Y-63.52
X153.781Y-52.09
X153.781Y-53.0
X153.781Y-53.91
X153.781Y-54.82
X153.781Y-55.73
X153.781Y-56.64
X153.797Y-115.703
X153.803Y-114.397
X154.05Y-108.255
X154.05Y-109.195
X154.15Y-76.3
X154.15Y-77.7
X154.15Y-79.15
X154.2Y-91.8
X154.2Y-92.5
X154.2Y-93.2
X154.2Y-93.9
X154.2Y-94.6
X154.2Y-95.3
X154.2Y-96.0
X154.2Y-96.7
X154.2Y-100.3
X154.2Y-101.1
X154.2Y-101.95
X154.2Y-102.75
X154.2Y-103.55
X154.2Y-104.35
X154.2Y-105.2
X154.2Y-106.0
X154.2Y-110.05
X154.5Y-80.49
X154.7Y-117.9
X154.8Y-115.55
X154.827Y-58.97
X154.827Y-59.88
X154.827Y-60.79
X154.827Y-61.7
X154.827Y-62.61
X154.827Y-63.52
X154.838Y-52.09
X154.838Y-53.0
X154.838Y-53.91
X154.838Y-54.82
X154.838Y-55.73
X154.838Y-56.64
X154.9Y-91.8
X154.9Y-92.5
X154.9Y-93.2
X154.9Y-93.9
X154.9Y-94.6
X154.9Y-95.3
X154.9Y-96.0
X154.9Y-96.7
X154.93Y-69.19
X155.0Y-100.3
X155.0Y-101.1
X155.0Y-101.95
X155.0Y-102.75
X155.0Y-103.55
X155.0Y-104.35
X155.0Y-105.2
X155.0Y-106.0
X155.356Y-114.55
X155.4Y-47.6
X155.4Y-48.8
X155.821Y-114.027
X155.884Y-58.97
X155.884Y-59.88
X155.884Y-60.79
X155.884Y-61.7
X155.884Y-62.61
X155.884Y-63.52
X155.894Y-52.09
X155.894Y-53.0
X155.894Y-53.91
X155.894Y-54.82
X155.894Y-55.73
X155.894Y-56.64
X156.8Y-80.7
X156.94Y-58.95
X156.94Y-59.86
X156.94Y-60.77
X156.94Y-61.68
X156.94Y-62.59
X156.94Y-63.5
X156.95Y-52.07
X156.95Y-52.98
X156.95Y-53.89
X156.95Y-54.8
X156.95Y-55.71
X156.95Y-56.62
X157.65Y-120.05
X157.7Y-115.9
X157.75Y-118.0
X157.8Y-111.8
X157.8Y-113.85
X158.2Y-69.18
X158.88Y-76.74
X160.7Y-102.7
X160.9Y-91.7
X160.92Y-47.44
X161.46Y-69.18
X161.56Y-85.38
X161.58Y-82.45
T2
X104.57Y-124.4
X106.07Y-124.4
X119.72Y-85.85
X119.72Y-87.25
X119.72Y-88.65
X121.0Y-84.85
X121.0Y-85.85
X121.0Y-87.25
X121.0Y-88.65
X121.0Y-89.65
X122.28Y-85.85
X122.28Y-87.25
X122.28Y-88.65
X144.07Y-85.85
X144.07Y-87.25
X144.07Y-88.65
X145.35Y-84.85
X145.35Y-85.85
X145.35Y-87.25
X145.35Y-88.65
X145.35Y-89.65
X146.63Y-85.85
X146.63Y-87.25
X146.63Y-88.65
T3
X112.15Y-40.8
X112.33Y-53.85
X112.33Y-55.25
X112.33Y-56.65
X113.4Y-40.8
X113.4Y-44.25
X113.74Y-53.85
X113.74Y-55.25
X113.74Y-56.65
X114.67Y-44.2
X114.7Y-40.8
X115.14Y-53.85
X115.14Y-55.25
X115.14Y-56.65
T4
X132.73Y-55.032
X133.04Y-52.03
X133.68Y-54.632
X133.68Y-55.482
X134.555Y-52.007
X134.58Y-54.632
X134.58Y-55.482
X134.63Y-47.357
X134.805Y-49.632
X137.43Y-47.382
X140.13Y-47.382
X140.955Y-50.107
T5
X99.6Y-41.5
X99.6Y-146.5
X100.303Y-39.803
X100.303Y-43.197
X100.303Y-144.803
X100.303Y-148.197
X102.0Y-39.1
X102.0Y-43.9
X102.0Y-144.1
X102.0Y-148.9
X103.697Y-39.803
X103.697Y-43.197
X103.697Y-144.803
X103.697Y-148.197
X104.4Y-41.5
X104.4Y-146.5
X157.6Y-41.5
X157.6Y-146.5
X158.303Y-39.803
X158.303Y-43.197
X158.303Y-144.803
X158.303Y-148.197
X160.0Y-39.1
X160.0Y-43.9
X160.0Y-144.1
X160.0Y-148.9
X161.697Y-39.803
X161.697Y-43.197
X161.697Y-144.803
X161.697Y-148.197
X162.4Y-41.5
X162.4Y-146.5
T6
X106.0Y-67.4
T8
X147.8Y-43.09
X147.8Y-48.17
X148.2Y-40.55
X148.2Y-45.63
X160.35Y-52.25
X160.35Y-63.25
T9
X127.19Y-146.339
X129.73Y-146.339
X132.27Y-146.339
X134.81Y-146.339
T10
X129.73Y-148.499
T11
X150.35Y-55.25
X150.35Y-60.25
T12
X102.0Y-41.5
X102.0Y-146.5
X160.0Y-41.5
X160.0Y-146.5
T13
X106.0Y-87.0
X106.0Y-137.0
X156.0Y-87.0
X156.0Y-137.0
T7
G00X118.03Y-40.485
M15
G01X118.03Y-41.285
M16
G05
G00X118.03Y-44.515
M15
G01X118.03Y-45.615
M16
G05
G00X126.67Y-40.485
M15
G01X126.67Y-41.285
M16
G05
G00X126.67Y-44.515
M15
G01X126.67Y-45.615
M16
G05
M30
