%TF.GenerationSoftware,KiCad,Pcbnew,9.0.0*%
%TF.CreationDate,2025-05-19T16:40:14-04:00*%
%TF.ProjectId,BitaxeGT,42697461-7865-4475-942e-6b696361645f,v800*%
%TF.SameCoordinates,Original*%
%TF.FileFunction,Soldermask,Top*%
%TF.FilePolarity,Negative*%
%FSLAX46Y46*%
G04 Gerber Fmt 4.6, Leading zero omitted, Abs format (unit mm)*
G04 Created by KiCad (PCBNEW 9.0.0) date 2025-05-19 16:40:14*
%MOMM*%
%LPD*%
G01*
G04 APERTURE LIST*
G04 Aperture macros list*
%AMRoundRect*
0 Rectangle with rounded corners*
0 $1 Rounding radius*
0 $2 $3 $4 $5 $6 $7 $8 $9 X,Y pos of 4 corners*
0 Add a 4 corners polygon primitive as box body*
4,1,4,$2,$3,$4,$5,$6,$7,$8,$9,$2,$3,0*
0 Add four circle primitives for the rounded corners*
1,1,$1+$1,$2,$3*
1,1,$1+$1,$4,$5*
1,1,$1+$1,$6,$7*
1,1,$1+$1,$8,$9*
0 Add four rect primitives between the rounded corners*
20,1,$1+$1,$2,$3,$4,$5,0*
20,1,$1+$1,$4,$5,$6,$7,0*
20,1,$1+$1,$6,$7,$8,$9,0*
20,1,$1+$1,$8,$9,$2,$3,0*%
G04 Aperture macros list end*
%ADD10C,0.000000*%
%ADD11C,0.100000*%
%ADD12C,0.120000*%
%ADD13C,2.000000*%
%ADD14RoundRect,0.055250X-0.340750X-0.055250X0.340750X-0.055250X0.340750X0.055250X-0.340750X0.055250X0*%
%ADD15C,0.800000*%
%ADD16C,6.400000*%
%ADD17C,1.295400*%
%ADD18C,1.574800*%
%ADD19C,1.700000*%
%ADD20O,1.700000X1.700000*%
%ADD21C,0.990600*%
%ADD22C,6.000000*%
%ADD23C,0.400000*%
%ADD24C,0.499999*%
%ADD25C,3.000000*%
%ADD26C,0.650000*%
%ADD27O,1.000000X1.800000*%
%ADD28O,1.000000X2.100000*%
%ADD29C,1.780000*%
G04 APERTURE END LIST*
D10*
%TO.C,G\u002A\u002A\u002A*%
G36*
X125587177Y-64633387D02*
G01*
X125977726Y-65023936D01*
X125592597Y-65409486D01*
X125489016Y-65512783D01*
X125395151Y-65605630D01*
X125314984Y-65684149D01*
X125252497Y-65744464D01*
X125211672Y-65782697D01*
X125196628Y-65795037D01*
X125179598Y-65780895D01*
X125137190Y-65741055D01*
X125073388Y-65679393D01*
X124992174Y-65599788D01*
X124897530Y-65506116D01*
X124800659Y-65409486D01*
X124415531Y-65023936D01*
X124806080Y-64633387D01*
X125196628Y-64242838D01*
X125587177Y-64633387D01*
G37*
G36*
X128780281Y-65695640D02*
G01*
X128780550Y-66481804D01*
X129206184Y-66487436D01*
X129631818Y-66493068D01*
X129358632Y-66831666D01*
X129085446Y-67170263D01*
X128932998Y-67170263D01*
X128780550Y-67170263D01*
X128780666Y-68696555D01*
X128781009Y-69038320D01*
X128781982Y-69339789D01*
X128783582Y-69600779D01*
X128785807Y-69821101D01*
X128788654Y-70000570D01*
X128792121Y-70139001D01*
X128796204Y-70236207D01*
X128800902Y-70292002D01*
X128802889Y-70302459D01*
X128840407Y-70383150D01*
X128903749Y-70467483D01*
X128980938Y-70541554D01*
X129046137Y-70584867D01*
X129116832Y-70621135D01*
X129013376Y-70685447D01*
X128907613Y-70773665D01*
X128850444Y-70850946D01*
X128790968Y-70952133D01*
X128785183Y-72335500D01*
X128784086Y-72610116D01*
X128783305Y-72846088D01*
X128782907Y-73046447D01*
X128782959Y-73214221D01*
X128783527Y-73352440D01*
X128784677Y-73464133D01*
X128786476Y-73552329D01*
X128788991Y-73620059D01*
X128792287Y-73670351D01*
X128796432Y-73706235D01*
X128801491Y-73730740D01*
X128807532Y-73746896D01*
X128814621Y-73757732D01*
X128816438Y-73759826D01*
X128895934Y-73821857D01*
X128999021Y-73865927D01*
X129109153Y-73885293D01*
X129125168Y-73885650D01*
X129204355Y-73880449D01*
X129271851Y-73861015D01*
X129341939Y-73821606D01*
X129410861Y-73770747D01*
X129461677Y-73734439D01*
X129486387Y-73724752D01*
X129487719Y-73738220D01*
X129468401Y-73771377D01*
X129431162Y-73820756D01*
X129378729Y-73882892D01*
X129313831Y-73954318D01*
X129239196Y-74031567D01*
X129157551Y-74111174D01*
X129103705Y-74161012D01*
X128951378Y-74305468D01*
X128806744Y-74455043D01*
X128674246Y-74604324D01*
X128558329Y-74747898D01*
X128463437Y-74880350D01*
X128394015Y-74996269D01*
X128363919Y-75062106D01*
X128329515Y-75152741D01*
X127898675Y-74751734D01*
X127467834Y-74350727D01*
X127467325Y-72713941D01*
X127466961Y-72404645D01*
X127466087Y-72120358D01*
X127464727Y-71863066D01*
X127462904Y-71634758D01*
X127460644Y-71437420D01*
X127457971Y-71273040D01*
X127454908Y-71143604D01*
X127451481Y-71051101D01*
X127447714Y-70997517D01*
X127446177Y-70987681D01*
X127398928Y-70864462D01*
X127321540Y-70756849D01*
X127223720Y-70677522D01*
X127132611Y-70624128D01*
X127190830Y-70594073D01*
X127291973Y-70522089D01*
X127379518Y-70422060D01*
X127412441Y-70368704D01*
X127420866Y-70352537D01*
X127428179Y-70335478D01*
X127434470Y-70314596D01*
X127439831Y-70286958D01*
X127444353Y-70249630D01*
X127448125Y-70199680D01*
X127451240Y-70134176D01*
X127453787Y-70050184D01*
X127455859Y-69944772D01*
X127457544Y-69815007D01*
X127458936Y-69657956D01*
X127460123Y-69470687D01*
X127461197Y-69250267D01*
X127462249Y-68993763D01*
X127463259Y-68727810D01*
X127469102Y-67170263D01*
X127145499Y-67170263D01*
X127034701Y-67169286D01*
X126940242Y-67166589D01*
X126869199Y-67162525D01*
X126828651Y-67157444D01*
X126821895Y-67154177D01*
X126831823Y-67131755D01*
X126859385Y-67079401D01*
X126901244Y-67003196D01*
X126954066Y-66909222D01*
X127007588Y-66815579D01*
X127193281Y-66493068D01*
X127429532Y-66480396D01*
X127542372Y-66471618D01*
X127644816Y-66458666D01*
X127724648Y-66443273D01*
X127754949Y-66434223D01*
X127925620Y-66348312D01*
X128087513Y-66222733D01*
X128239689Y-66058743D01*
X128381208Y-65857605D01*
X128511131Y-65620578D01*
X128628517Y-65348923D01*
X128688343Y-65182391D01*
X128780013Y-64909475D01*
X128780281Y-65695640D01*
G37*
G36*
X124787698Y-66475424D02*
G01*
X124829701Y-66508955D01*
X124891107Y-66560813D01*
X124966152Y-66626198D01*
X124992002Y-66649102D01*
X125189609Y-66814585D01*
X125379732Y-66953468D01*
X125557392Y-67062318D01*
X125675874Y-67120635D01*
X125751833Y-67150602D01*
X125819740Y-67168502D01*
X125895885Y-67177299D01*
X125996562Y-67179960D01*
X126001966Y-67179983D01*
X126091695Y-67181109D01*
X126146562Y-67184564D01*
X126173366Y-67191670D01*
X126178909Y-67203748D01*
X126175037Y-67213592D01*
X126142450Y-67260417D01*
X126090293Y-67321488D01*
X126029357Y-67385563D01*
X125970431Y-67441402D01*
X125924302Y-67477762D01*
X125917876Y-67481540D01*
X125863404Y-67510693D01*
X125863862Y-68866770D01*
X125864007Y-69138774D01*
X125864304Y-69372269D01*
X125864838Y-69570422D01*
X125865695Y-69736396D01*
X125866961Y-69873356D01*
X125868723Y-69984468D01*
X125871066Y-70072897D01*
X125874076Y-70141808D01*
X125877840Y-70194365D01*
X125882443Y-70233735D01*
X125887971Y-70263081D01*
X125894511Y-70285569D01*
X125902149Y-70304364D01*
X125902991Y-70306194D01*
X125963885Y-70400669D01*
X126050654Y-70488636D01*
X126144700Y-70552971D01*
X126181064Y-70575484D01*
X126179567Y-70585652D01*
X126169387Y-70586656D01*
X126128853Y-70603336D01*
X126074304Y-70645911D01*
X126014249Y-70705217D01*
X125957199Y-70772088D01*
X125911664Y-70837360D01*
X125886229Y-70891602D01*
X125880861Y-70932222D01*
X125876224Y-71012934D01*
X125872312Y-71133966D01*
X125869123Y-71295546D01*
X125866653Y-71497899D01*
X125864898Y-71741254D01*
X125863855Y-72025837D01*
X125863521Y-72328670D01*
X125863404Y-73684369D01*
X125924704Y-73743098D01*
X126005764Y-73796987D01*
X126108951Y-73832354D01*
X126217058Y-73844441D01*
X126272873Y-73839352D01*
X126329484Y-73827341D01*
X126373635Y-73811313D01*
X126419179Y-73784268D01*
X126479973Y-73739203D01*
X126496615Y-73726296D01*
X126546669Y-73690112D01*
X126567219Y-73682288D01*
X126558751Y-73702249D01*
X126521753Y-73749419D01*
X126456709Y-73823222D01*
X126364108Y-73923082D01*
X126244433Y-74048424D01*
X126098173Y-74198671D01*
X126094254Y-74202666D01*
X125917182Y-74386232D01*
X125770086Y-74545737D01*
X125650892Y-74683755D01*
X125557524Y-74802862D01*
X125487908Y-74905633D01*
X125439971Y-74994642D01*
X125423209Y-75035547D01*
X125403337Y-75082740D01*
X125387579Y-75107089D01*
X125385182Y-75108032D01*
X125367696Y-75093967D01*
X125324040Y-75054775D01*
X125258169Y-74994126D01*
X125174038Y-74915689D01*
X125075600Y-74823134D01*
X124966811Y-74720130D01*
X124952914Y-74706924D01*
X124532088Y-74306850D01*
X124530970Y-72623613D01*
X124530653Y-72309530D01*
X124530118Y-72034576D01*
X124529322Y-71796208D01*
X124528220Y-71591882D01*
X124526771Y-71419054D01*
X124524931Y-71275181D01*
X124522656Y-71157720D01*
X124519904Y-71064125D01*
X124516631Y-70991855D01*
X124512794Y-70938364D01*
X124508349Y-70901110D01*
X124503255Y-70877549D01*
X124501204Y-70871811D01*
X124442634Y-70772842D01*
X124359433Y-70684583D01*
X124265811Y-70621908D01*
X124259807Y-70619120D01*
X124175239Y-70580986D01*
X124253571Y-70545109D01*
X124319127Y-70505850D01*
X124384441Y-70453001D01*
X124398566Y-70438968D01*
X124425984Y-70410031D01*
X124449294Y-70383267D01*
X124468828Y-70355207D01*
X124484921Y-70322381D01*
X124497905Y-70281319D01*
X124508113Y-70228551D01*
X124515880Y-70160608D01*
X124521538Y-70074019D01*
X124525420Y-69965316D01*
X124527860Y-69831028D01*
X124529191Y-69667685D01*
X124529746Y-69471818D01*
X124529859Y-69239956D01*
X124529852Y-69071967D01*
X124529852Y-67930167D01*
X124423115Y-67892258D01*
X124306525Y-67842120D01*
X124197402Y-67779433D01*
X124108042Y-67711954D01*
X124063292Y-67665331D01*
X124013037Y-67601117D01*
X124388903Y-67036674D01*
X124479763Y-66900286D01*
X124563083Y-66775327D01*
X124636096Y-66665937D01*
X124696034Y-66576258D01*
X124740132Y-66510431D01*
X124765621Y-66472597D01*
X124770863Y-66465018D01*
X124787698Y-66475424D01*
G37*
G36*
X143252715Y-66521975D02*
G01*
X143277082Y-66534221D01*
X143336090Y-66559404D01*
X143425358Y-66595844D01*
X143540502Y-66641858D01*
X143677140Y-66695765D01*
X143830889Y-66755882D01*
X143997365Y-66820529D01*
X144172187Y-66888023D01*
X144350972Y-66956683D01*
X144529336Y-67024826D01*
X144702896Y-67090772D01*
X144867271Y-67152838D01*
X145018077Y-67209342D01*
X145150931Y-67258603D01*
X145261451Y-67298940D01*
X145345253Y-67328669D01*
X145397955Y-67346110D01*
X145407546Y-67348824D01*
X145494900Y-67365749D01*
X145571001Y-67370770D01*
X145601965Y-67367754D01*
X145708876Y-67326163D01*
X145802503Y-67253273D01*
X145865589Y-67166757D01*
X145912205Y-67076497D01*
X145900378Y-67189837D01*
X145865861Y-67340291D01*
X145798197Y-67474704D01*
X145702254Y-67586834D01*
X145582902Y-67670438D01*
X145498075Y-67705591D01*
X145387440Y-67740466D01*
X145387440Y-68023960D01*
X145388131Y-68141910D01*
X145390952Y-68227232D01*
X145397031Y-68288961D01*
X145407491Y-68336129D01*
X145423460Y-68377770D01*
X145434323Y-68400257D01*
X145477980Y-68467032D01*
X145532077Y-68524759D01*
X145552007Y-68540111D01*
X145622807Y-68587162D01*
X145551175Y-68587162D01*
X145463969Y-68596135D01*
X145354386Y-68620453D01*
X145237011Y-68656210D01*
X145126430Y-68699504D01*
X145119128Y-68702804D01*
X145010367Y-68758748D01*
X144901130Y-68828511D01*
X144788031Y-68915225D01*
X144667686Y-69022018D01*
X144536711Y-69152022D01*
X144391721Y-69308366D01*
X144229331Y-69494180D01*
X144108440Y-69637525D01*
X144011785Y-69752681D01*
X143915105Y-69866491D01*
X143824608Y-69971747D01*
X143746503Y-70061239D01*
X143687001Y-70127758D01*
X143674783Y-70141002D01*
X143474797Y-70334075D01*
X143267794Y-70492682D01*
X143057117Y-70614654D01*
X142846108Y-70697819D01*
X142795753Y-70711772D01*
X142647408Y-70749443D01*
X142642043Y-72051430D01*
X142641067Y-72328032D01*
X142640615Y-72565560D01*
X142640727Y-72766612D01*
X142641444Y-72933783D01*
X142642808Y-73069673D01*
X142644858Y-73176877D01*
X142647637Y-73257992D01*
X142651185Y-73315616D01*
X142655542Y-73352345D01*
X142660751Y-73370778D01*
X142662880Y-73373463D01*
X142688684Y-73385875D01*
X142747817Y-73410543D01*
X142834764Y-73445371D01*
X142944013Y-73488269D01*
X143070051Y-73537141D01*
X143207365Y-73589895D01*
X143350441Y-73644437D01*
X143493767Y-73698674D01*
X143631829Y-73750514D01*
X143759114Y-73797862D01*
X143870110Y-73838626D01*
X143959304Y-73870711D01*
X144021181Y-73892026D01*
X144050229Y-73900475D01*
X144051028Y-73900533D01*
X144060194Y-73892215D01*
X144066756Y-73864321D01*
X144070916Y-73812440D01*
X144072880Y-73732163D01*
X144072851Y-73619078D01*
X144071034Y-73468775D01*
X144071025Y-73468171D01*
X144067854Y-73306501D01*
X144062991Y-73180648D01*
X144054944Y-73084759D01*
X144042223Y-73012978D01*
X144023338Y-72959450D01*
X143996798Y-72918319D01*
X143961114Y-72883732D01*
X143914794Y-72849833D01*
X143913386Y-72848875D01*
X143835847Y-72796186D01*
X143930071Y-72796186D01*
X144091395Y-72778083D01*
X144260189Y-72726682D01*
X144426073Y-72646337D01*
X144578667Y-72541407D01*
X144618907Y-72507041D01*
X144671520Y-72454386D01*
X144741714Y-72376425D01*
X144822393Y-72281438D01*
X144906465Y-72177704D01*
X144960164Y-72108733D01*
X145039649Y-72006948D01*
X145117318Y-71911322D01*
X145186990Y-71829192D01*
X145242485Y-71767891D01*
X145270290Y-71740687D01*
X145366273Y-71671115D01*
X145481203Y-71608903D01*
X145598930Y-71561690D01*
X145699992Y-71537511D01*
X145748286Y-71532980D01*
X145767494Y-71534556D01*
X145762502Y-71538140D01*
X145672770Y-71589120D01*
X145586147Y-71663636D01*
X145520458Y-71746238D01*
X145518330Y-71749813D01*
X145490521Y-71799936D01*
X145467474Y-71849690D01*
X145448657Y-71903596D01*
X145433541Y-71966174D01*
X145421596Y-72041946D01*
X145412293Y-72135431D01*
X145405101Y-72251152D01*
X145399492Y-72393627D01*
X145394935Y-72567379D01*
X145390900Y-72776928D01*
X145389713Y-72847417D01*
X145377022Y-73617516D01*
X145217022Y-73642230D01*
X144949020Y-73704225D01*
X144688717Y-73804691D01*
X144441468Y-73940490D01*
X144212630Y-74108486D01*
X144007559Y-74305541D01*
X143929927Y-74396064D01*
X143875687Y-74469061D01*
X143814462Y-74560968D01*
X143750417Y-74664380D01*
X143687713Y-74771892D01*
X143630516Y-74876099D01*
X143582989Y-74969597D01*
X143549294Y-75044980D01*
X143533597Y-75094844D01*
X143532970Y-75102045D01*
X143517895Y-75125985D01*
X143484355Y-75126625D01*
X143458999Y-75111727D01*
X143435912Y-75100658D01*
X143378259Y-75076541D01*
X143290448Y-75041075D01*
X143176891Y-74995959D01*
X143041997Y-74942893D01*
X142890177Y-74883576D01*
X142725840Y-74819706D01*
X142553397Y-74752983D01*
X142377258Y-74685106D01*
X142201833Y-74617775D01*
X142031532Y-74552687D01*
X141870764Y-74491543D01*
X141723941Y-74436042D01*
X141595473Y-74387882D01*
X141489768Y-74348763D01*
X141411238Y-74320385D01*
X141364293Y-74304445D01*
X141361566Y-74303619D01*
X141244977Y-74281974D01*
X141132126Y-74279963D01*
X141028757Y-74300736D01*
X140945082Y-74349902D01*
X140873441Y-74432855D01*
X140842351Y-74483963D01*
X140801741Y-74556891D01*
X140814475Y-74452707D01*
X140851643Y-74299917D01*
X140920984Y-74163600D01*
X141017574Y-74049621D01*
X141136492Y-73963847D01*
X141266973Y-73913512D01*
X141324274Y-73899740D01*
X141324070Y-72457191D01*
X141323867Y-71014643D01*
X141274956Y-70909608D01*
X141199123Y-70790926D01*
X141097903Y-70704051D01*
X141035294Y-70671970D01*
X140969982Y-70644917D01*
X141078660Y-70579739D01*
X141191550Y-70489173D01*
X141250597Y-70412032D01*
X141313855Y-70309503D01*
X141319579Y-69167884D01*
X141319722Y-69139336D01*
X142636989Y-69139336D01*
X142637279Y-69434815D01*
X142638135Y-69699236D01*
X142639538Y-69931220D01*
X142641469Y-70129391D01*
X142643909Y-70292371D01*
X142646837Y-70418782D01*
X142650235Y-70507247D01*
X142654083Y-70556389D01*
X142657055Y-70566653D01*
X142686240Y-70559503D01*
X142740404Y-70541065D01*
X142787284Y-70523321D01*
X142942279Y-70447203D01*
X143107126Y-70339195D01*
X143274789Y-70205507D01*
X143438230Y-70052346D01*
X143590413Y-69885920D01*
X143724299Y-69712438D01*
X143751310Y-69672876D01*
X143859502Y-69499144D01*
X143941994Y-69337796D01*
X144001716Y-69178735D01*
X144041603Y-69011864D01*
X144064585Y-68827086D01*
X144073597Y-68614304D01*
X144073998Y-68561849D01*
X144073737Y-68445968D01*
X144071729Y-68364927D01*
X144067169Y-68311904D01*
X144059255Y-68280078D01*
X144047181Y-68262624D01*
X144038015Y-68256430D01*
X144011016Y-68244669D01*
X143951433Y-68220331D01*
X143864637Y-68185519D01*
X143755999Y-68142336D01*
X143630888Y-68092884D01*
X143494677Y-68039265D01*
X143352734Y-67983582D01*
X143210431Y-67927938D01*
X143073139Y-67874435D01*
X142946228Y-67825175D01*
X142835068Y-67782260D01*
X142745030Y-67747795D01*
X142681484Y-67723880D01*
X142649802Y-67712618D01*
X142647368Y-67712018D01*
X142645625Y-67732293D01*
X142643974Y-67790871D01*
X142642439Y-67884381D01*
X142641045Y-68009453D01*
X142639816Y-68162716D01*
X142638778Y-68340800D01*
X142637953Y-68540334D01*
X142637368Y-68757947D01*
X142637046Y-68990270D01*
X142636989Y-69139336D01*
X141319722Y-69139336D01*
X141325303Y-68026265D01*
X141402926Y-68014368D01*
X141708723Y-67948470D01*
X141991024Y-67848161D01*
X142249698Y-67713537D01*
X142484618Y-67544694D01*
X142695652Y-67341726D01*
X142882672Y-67104731D01*
X143045549Y-66833802D01*
X143071337Y-66783356D01*
X143110949Y-66700916D01*
X143144097Y-66626355D01*
X143165416Y-66571953D01*
X143169239Y-66559361D01*
X143192499Y-66513611D01*
X143226834Y-66505724D01*
X143252715Y-66521975D01*
G37*
G36*
X132325003Y-66518531D02*
G01*
X132356060Y-66533311D01*
X132396999Y-66551255D01*
X132472163Y-66581947D01*
X132576826Y-66623586D01*
X132706262Y-66674369D01*
X132855742Y-66732494D01*
X133020542Y-66796159D01*
X133195933Y-66863560D01*
X133377190Y-66932896D01*
X133559584Y-67002364D01*
X133738391Y-67070162D01*
X133908882Y-67134488D01*
X134066331Y-67193538D01*
X134206011Y-67245511D01*
X134323196Y-67288605D01*
X134413158Y-67321016D01*
X134471172Y-67340942D01*
X134485765Y-67345403D01*
X134580102Y-67365347D01*
X134658113Y-67370571D01*
X134683714Y-67367709D01*
X134790392Y-67326190D01*
X134883912Y-67253404D01*
X134947131Y-67166757D01*
X134993747Y-67076497D01*
X134981920Y-67189837D01*
X134947404Y-67340291D01*
X134879739Y-67474704D01*
X134783796Y-67586834D01*
X134664444Y-67670438D01*
X134579617Y-67705591D01*
X134468983Y-67740466D01*
X134468983Y-68979239D01*
X134469281Y-69270542D01*
X134470198Y-69521883D01*
X134471764Y-69734969D01*
X134474011Y-69911508D01*
X134476970Y-70053207D01*
X134480672Y-70161774D01*
X134485149Y-70238915D01*
X134490431Y-70286338D01*
X134493165Y-70298725D01*
X134536524Y-70390013D01*
X134605881Y-70480018D01*
X134688367Y-70554005D01*
X134745496Y-70587692D01*
X134826385Y-70623908D01*
X134729158Y-70670974D01*
X134630170Y-70739647D01*
X134548249Y-70836198D01*
X134494327Y-70947286D01*
X134489604Y-70963352D01*
X134485105Y-71001899D01*
X134481293Y-71080608D01*
X134478184Y-71197972D01*
X134475796Y-71352485D01*
X134474145Y-71542640D01*
X134473247Y-71766930D01*
X134473119Y-72023850D01*
X134473778Y-72311892D01*
X134474038Y-72381360D01*
X134479401Y-73721643D01*
X134577507Y-73782295D01*
X134678245Y-73829228D01*
X134787025Y-73854991D01*
X134887305Y-73856179D01*
X134912960Y-73851311D01*
X134957001Y-73832844D01*
X135019319Y-73797993D01*
X135071929Y-73764049D01*
X135126050Y-73729052D01*
X135155877Y-73715539D01*
X135160609Y-73724521D01*
X135139445Y-73757007D01*
X135091585Y-73814009D01*
X135016228Y-73896537D01*
X134912573Y-74005601D01*
X134779821Y-74142213D01*
X134740970Y-74181830D01*
X134630705Y-74295217D01*
X134524703Y-74406300D01*
X134428214Y-74509418D01*
X134346490Y-74598908D01*
X134284781Y-74669108D01*
X134253392Y-74707527D01*
X134190719Y-74795529D01*
X134132120Y-74887803D01*
X134082630Y-74975342D01*
X134047284Y-75049141D01*
X134031117Y-75100192D01*
X134030638Y-75105972D01*
X134016627Y-75100436D01*
X133977179Y-75067793D01*
X133915558Y-75011151D01*
X133835030Y-74933617D01*
X133738858Y-74838298D01*
X133630309Y-74728300D01*
X133586367Y-74683168D01*
X133142868Y-74226016D01*
X133023482Y-74370617D01*
X132891357Y-74547377D01*
X132775434Y-74735371D01*
X132684090Y-74920559D01*
X132660787Y-74978610D01*
X132629772Y-75058816D01*
X132608111Y-75105552D01*
X132591369Y-75124673D01*
X132575114Y-75122036D01*
X132561300Y-75110029D01*
X132537589Y-75098042D01*
X132479269Y-75073091D01*
X132390742Y-75036869D01*
X132276409Y-74991070D01*
X132140672Y-74937389D01*
X131987932Y-74877520D01*
X131822591Y-74813157D01*
X131649050Y-74745995D01*
X131471711Y-74677726D01*
X131294976Y-74610046D01*
X131123245Y-74544648D01*
X130960921Y-74483227D01*
X130812404Y-74427477D01*
X130682097Y-74379092D01*
X130574401Y-74339766D01*
X130493717Y-74311193D01*
X130444447Y-74295067D01*
X130442544Y-74294521D01*
X130361221Y-74274064D01*
X130286785Y-74259713D01*
X130238717Y-74254758D01*
X130128464Y-74274769D01*
X130030001Y-74332942D01*
X129947400Y-74426483D01*
X129919520Y-74473544D01*
X129897561Y-74511705D01*
X129887977Y-74514739D01*
X129885732Y-74491367D01*
X129891305Y-74448983D01*
X129906685Y-74382093D01*
X129926897Y-74310701D01*
X129991712Y-74165034D01*
X130086941Y-74047422D01*
X130211297Y-73959285D01*
X130270377Y-73932008D01*
X130395398Y-73881809D01*
X130395398Y-73021237D01*
X130395398Y-72175579D01*
X131742243Y-72175579D01*
X131743195Y-72362672D01*
X131744335Y-72534431D01*
X131749787Y-73364808D01*
X132437399Y-73631270D01*
X132597269Y-73693095D01*
X132744849Y-73749923D01*
X132875637Y-73800039D01*
X132985130Y-73841728D01*
X133068826Y-73873276D01*
X133122223Y-73892967D01*
X133140640Y-73899132D01*
X133143029Y-73879024D01*
X133145307Y-73820301D01*
X133147446Y-73726021D01*
X133149418Y-73599245D01*
X133151196Y-73443030D01*
X133152752Y-73260435D01*
X133154059Y-73054519D01*
X133155088Y-72828340D01*
X133155812Y-72584958D01*
X133156204Y-72327431D01*
X133156267Y-72171083D01*
X133156267Y-70441633D01*
X133046874Y-70441880D01*
X132873505Y-70462152D01*
X132697049Y-70519841D01*
X132522144Y-70611413D01*
X132353431Y-70733335D01*
X132195547Y-70882074D01*
X132053132Y-71054095D01*
X131930825Y-71245865D01*
X131890965Y-71322405D01*
X131854348Y-71397173D01*
X131824127Y-71461358D01*
X131799716Y-71519806D01*
X131780528Y-71577367D01*
X131765977Y-71638888D01*
X131755476Y-71709217D01*
X131748439Y-71793203D01*
X131744278Y-71895693D01*
X131742409Y-72021536D01*
X131742243Y-72175579D01*
X130395398Y-72175579D01*
X130395398Y-72160665D01*
X130329459Y-72021483D01*
X130282066Y-71934654D01*
X130224683Y-71847914D01*
X130177095Y-71788541D01*
X130090670Y-71694780D01*
X130190942Y-71682256D01*
X130382202Y-71653479D01*
X130556901Y-71615558D01*
X130720764Y-71565619D01*
X130879516Y-71500787D01*
X131038884Y-71418189D01*
X131204591Y-71314951D01*
X131382363Y-71188198D01*
X131577927Y-71035057D01*
X131728950Y-70910217D01*
X131924296Y-70748868D01*
X132094999Y-70614843D01*
X132245555Y-70505676D01*
X132380461Y-70418900D01*
X132504213Y-70352049D01*
X132621308Y-70302655D01*
X132736243Y-70268252D01*
X132853513Y-70246373D01*
X132958318Y-70235784D01*
X133145849Y-70222847D01*
X133151264Y-69249572D01*
X133152447Y-69022396D01*
X133153171Y-68833322D01*
X133153322Y-68678777D01*
X133152788Y-68555190D01*
X133151457Y-68458990D01*
X133149215Y-68386606D01*
X133145952Y-68334467D01*
X133141553Y-68299001D01*
X133135908Y-68276637D01*
X133128902Y-68263804D01*
X133120425Y-68256931D01*
X133120008Y-68256705D01*
X133091318Y-68244056D01*
X133030232Y-68218945D01*
X132942133Y-68183479D01*
X132832405Y-68139764D01*
X132706430Y-68089906D01*
X132569592Y-68036013D01*
X132427274Y-67980191D01*
X132284859Y-67924546D01*
X132147731Y-67871184D01*
X132021272Y-67822213D01*
X131910866Y-67779740D01*
X131821896Y-67745869D01*
X131759744Y-67722709D01*
X131729796Y-67712365D01*
X131728088Y-67712018D01*
X131724971Y-67732079D01*
X131722690Y-67789173D01*
X131721268Y-67878669D01*
X131720726Y-67995934D01*
X131721085Y-68136337D01*
X131722367Y-68295245D01*
X131724583Y-68467351D01*
X131728516Y-68694222D01*
X131733137Y-68883899D01*
X131738909Y-69040862D01*
X131746297Y-69169591D01*
X131755767Y-69274564D01*
X131767784Y-69360262D01*
X131782813Y-69431163D01*
X131801319Y-69491747D01*
X131823767Y-69546493D01*
X131840093Y-69579908D01*
X131918860Y-69691253D01*
X132026991Y-69783255D01*
X132062338Y-69804727D01*
X132124848Y-69839549D01*
X132031083Y-69827062D01*
X131921825Y-69803771D01*
X131817503Y-69761760D01*
X131713578Y-69697584D01*
X131605512Y-69607800D01*
X131488765Y-69488961D01*
X131358798Y-69337623D01*
X131315287Y-69283786D01*
X131173051Y-69111391D01*
X131046383Y-68971367D01*
X130930312Y-68859824D01*
X130819862Y-68772876D01*
X130710059Y-68706634D01*
X130595931Y-68657209D01*
X130472504Y-68620714D01*
X130464679Y-68618847D01*
X130380350Y-68601984D01*
X130298853Y-68590574D01*
X130251668Y-68587470D01*
X130170449Y-68587162D01*
X130240933Y-68539663D01*
X130324677Y-68463096D01*
X130377984Y-68364645D01*
X130402940Y-68239714D01*
X130405473Y-68176580D01*
X130405816Y-68026458D01*
X130483954Y-68014070D01*
X130639937Y-67983951D01*
X130802715Y-67943281D01*
X130954953Y-67896755D01*
X131056566Y-67858869D01*
X131257555Y-67757635D01*
X131458527Y-67623983D01*
X131649737Y-67466019D01*
X131821442Y-67291846D01*
X131963898Y-67109571D01*
X131972113Y-67097334D01*
X132029456Y-67005812D01*
X132089322Y-66901546D01*
X132146611Y-66794378D01*
X132196227Y-66694149D01*
X132233070Y-66610703D01*
X132250781Y-66559361D01*
X132264405Y-66518994D01*
X132285291Y-66506338D01*
X132325003Y-66518531D01*
G37*
G36*
X138960270Y-66517090D02*
G01*
X139003146Y-66554271D01*
X139063794Y-66609588D01*
X139136142Y-66677600D01*
X139147452Y-66688391D01*
X139332613Y-66851859D01*
X139518085Y-66989668D01*
X139699649Y-67099490D01*
X139873089Y-67179001D01*
X140034184Y-67225872D01*
X140144338Y-67238206D01*
X140221502Y-67236996D01*
X140288157Y-67231110D01*
X140320689Y-67224426D01*
X140354464Y-67215851D01*
X140356547Y-67230251D01*
X140344567Y-67254319D01*
X140314762Y-67296129D01*
X140264431Y-67354195D01*
X140203658Y-67418170D01*
X140142525Y-67477707D01*
X140091115Y-67522461D01*
X140067060Y-67539062D01*
X140058613Y-67545385D01*
X140051438Y-67556876D01*
X140045383Y-67576891D01*
X140040300Y-67608785D01*
X140036038Y-67655914D01*
X140032449Y-67721634D01*
X140029382Y-67809300D01*
X140026689Y-67922268D01*
X140024219Y-68063892D01*
X140021823Y-68237529D01*
X140019351Y-68446534D01*
X140016998Y-68662036D01*
X140005200Y-69764657D01*
X139859392Y-69800452D01*
X139760156Y-69830076D01*
X139660087Y-69871696D01*
X139554210Y-69928435D01*
X139437551Y-70003416D01*
X139305135Y-70099760D01*
X139151987Y-70220591D01*
X139030956Y-70320434D01*
X138983291Y-70362867D01*
X138954074Y-70393973D01*
X138949233Y-70405167D01*
X138973050Y-70416177D01*
X139029481Y-70439105D01*
X139112025Y-70471501D01*
X139214180Y-70510913D01*
X139329441Y-70554889D01*
X139451308Y-70600979D01*
X139573277Y-70646731D01*
X139688845Y-70689694D01*
X139791511Y-70727418D01*
X139874771Y-70757450D01*
X139932124Y-70777339D01*
X139955038Y-70784313D01*
X140035685Y-70785840D01*
X140127262Y-70763716D01*
X140210611Y-70723124D01*
X140228239Y-70710444D01*
X140271135Y-70665801D01*
X140316735Y-70602290D01*
X140335752Y-70569866D01*
X140362330Y-70524246D01*
X140377435Y-70506131D01*
X140378562Y-70514561D01*
X140370047Y-70560838D01*
X140359894Y-70626542D01*
X140356606Y-70650097D01*
X140318095Y-70785353D01*
X140243975Y-70907627D01*
X140139762Y-71010660D01*
X140010975Y-71088197D01*
X139949048Y-71112262D01*
X139855283Y-71143133D01*
X139849911Y-72410924D01*
X139844539Y-73678715D01*
X139891584Y-73729863D01*
X139981187Y-73798953D01*
X140092150Y-73842362D01*
X140211076Y-73857146D01*
X140324569Y-73840362D01*
X140350825Y-73830762D01*
X140412038Y-73797919D01*
X140475938Y-73753451D01*
X140485595Y-73745563D01*
X140526286Y-73716237D01*
X140550437Y-73708460D01*
X140553314Y-73713137D01*
X140539262Y-73734091D01*
X140499681Y-73780399D01*
X140438433Y-73847874D01*
X140359382Y-73932327D01*
X140266391Y-74029570D01*
X140172056Y-74126515D01*
X140011446Y-74291788D01*
X139877991Y-74432846D01*
X139768281Y-74553803D01*
X139678901Y-74658769D01*
X139606441Y-74751855D01*
X139547489Y-74837172D01*
X139498631Y-74918833D01*
X139471042Y-74971160D01*
X139394011Y-75124495D01*
X138968289Y-74726547D01*
X138542568Y-74328600D01*
X138532149Y-72994770D01*
X138521731Y-71660940D01*
X137854955Y-71405707D01*
X137696315Y-71345036D01*
X137549054Y-71288823D01*
X137417951Y-71238884D01*
X137307785Y-71197033D01*
X137223337Y-71165089D01*
X137169385Y-71144868D01*
X137151714Y-71138455D01*
X137144252Y-71137785D01*
X137137880Y-71143077D01*
X137132514Y-71157342D01*
X137128067Y-71183588D01*
X137124453Y-71224827D01*
X137121588Y-71284068D01*
X137119384Y-71364319D01*
X137117756Y-71468592D01*
X137116618Y-71599895D01*
X137115884Y-71761239D01*
X137115469Y-71955633D01*
X137115286Y-72186087D01*
X137115250Y-72416886D01*
X137115250Y-73707335D01*
X137193388Y-73761096D01*
X137298004Y-73822206D01*
X137394021Y-73852707D01*
X137465622Y-73858402D01*
X137554092Y-73844359D01*
X137646911Y-73808628D01*
X137725057Y-73759379D01*
X137748791Y-73736782D01*
X137783709Y-73704298D01*
X137807511Y-73692166D01*
X137814315Y-73701749D01*
X137798482Y-73731453D01*
X137758761Y-73782713D01*
X137693896Y-73856964D01*
X137602635Y-73955640D01*
X137483723Y-74080176D01*
X137335906Y-74232006D01*
X137334029Y-74233922D01*
X137182394Y-74390456D01*
X137057923Y-74523591D01*
X136956919Y-74637931D01*
X136875686Y-74738083D01*
X136810526Y-74828651D01*
X136757743Y-74914242D01*
X136713641Y-74999461D01*
X136705474Y-75017001D01*
X136677557Y-75076563D01*
X136657361Y-75116991D01*
X136650105Y-75128644D01*
X136634615Y-75114604D01*
X136592666Y-75075556D01*
X136528096Y-75015100D01*
X136444746Y-74936839D01*
X136346456Y-74844376D01*
X136237067Y-74741312D01*
X136214061Y-74719618D01*
X135781698Y-74311850D01*
X135781698Y-72959516D01*
X135781855Y-72677634D01*
X135782359Y-72434925D01*
X135783256Y-72228890D01*
X135784596Y-72057032D01*
X135786425Y-71916850D01*
X135788793Y-71805846D01*
X135791746Y-71721521D01*
X135795332Y-71661376D01*
X135799601Y-71622913D01*
X135804598Y-71603632D01*
X135807744Y-71600279D01*
X135839945Y-71592150D01*
X135899993Y-71577302D01*
X135975238Y-71558863D01*
X135979647Y-71557787D01*
X136072261Y-71529229D01*
X136178437Y-71487644D01*
X136276161Y-71441705D01*
X136281780Y-71438730D01*
X136353241Y-71397410D01*
X136436913Y-71344105D01*
X136526576Y-71283397D01*
X136616011Y-71219868D01*
X136698999Y-71158099D01*
X136769319Y-71102674D01*
X136820753Y-71058173D01*
X136847082Y-71029178D01*
X136848409Y-71021283D01*
X136823786Y-71008510D01*
X136766932Y-70984132D01*
X136684775Y-70950797D01*
X136584244Y-70911154D01*
X136472267Y-70867853D01*
X136355774Y-70823541D01*
X136241692Y-70780867D01*
X136136951Y-70742481D01*
X136048479Y-70711031D01*
X135983204Y-70689166D01*
X135966022Y-70683950D01*
X135830208Y-70655848D01*
X135718072Y-70658933D01*
X135623788Y-70694964D01*
X135541529Y-70765699D01*
X135495193Y-70826012D01*
X135456081Y-70877943D01*
X135433697Y-70893652D01*
X135427921Y-70872610D01*
X135438633Y-70814288D01*
X135465714Y-70718159D01*
X135468644Y-70708625D01*
X135516112Y-70593606D01*
X135579138Y-70494664D01*
X135587297Y-70484809D01*
X135649584Y-70425892D01*
X135728333Y-70370360D01*
X135810540Y-70325777D01*
X135883201Y-70299708D01*
X135911928Y-70295979D01*
X135919791Y-70293986D01*
X135926439Y-70285962D01*
X135931973Y-70268692D01*
X135936494Y-70238964D01*
X135940104Y-70193565D01*
X135942905Y-70129283D01*
X135944997Y-70042905D01*
X135946483Y-69931217D01*
X135947464Y-69791007D01*
X135948041Y-69619063D01*
X135948316Y-69412171D01*
X135948392Y-69167118D01*
X135948392Y-69142167D01*
X135948392Y-67988558D01*
X135849417Y-67951217D01*
X135755323Y-67909144D01*
X135663007Y-67856422D01*
X135578825Y-67798185D01*
X135509130Y-67739568D01*
X135460276Y-67685705D01*
X135438618Y-67641731D01*
X135441628Y-67621698D01*
X135460068Y-67592725D01*
X135497447Y-67535574D01*
X135550334Y-67455386D01*
X135615298Y-67357306D01*
X135688911Y-67246475D01*
X135767742Y-67128037D01*
X135848362Y-67007134D01*
X135927339Y-66888909D01*
X136001245Y-66778505D01*
X136066648Y-66681065D01*
X136120120Y-66601731D01*
X136158230Y-66545647D01*
X136177549Y-66517955D01*
X136178986Y-66516129D01*
X136199946Y-66522209D01*
X136244441Y-66552981D01*
X136306408Y-66603799D01*
X136379573Y-66669820D01*
X136578679Y-66843680D01*
X136773276Y-66987912D01*
X136960682Y-67101193D01*
X137138217Y-67182204D01*
X137303203Y-67229623D01*
X137452958Y-67242127D01*
X137524464Y-67234292D01*
X137584275Y-67224804D01*
X137624483Y-67221591D01*
X137633424Y-67223082D01*
X137622612Y-67239840D01*
X137587492Y-67279842D01*
X137533506Y-67337148D01*
X137466096Y-67405822D01*
X137464096Y-67407823D01*
X137287061Y-67584858D01*
X137279293Y-68672223D01*
X137271526Y-69759589D01*
X137979975Y-70037867D01*
X138141658Y-70101328D01*
X138290658Y-70159719D01*
X138422637Y-70211347D01*
X138533258Y-70254519D01*
X138618185Y-70287543D01*
X138673080Y-70308726D01*
X138693607Y-70316376D01*
X138693634Y-70316379D01*
X138694601Y-70296209D01*
X138695510Y-70238101D01*
X138696344Y-70145789D01*
X138697086Y-70023008D01*
X138697719Y-69873495D01*
X138698228Y-69700982D01*
X138698594Y-69509206D01*
X138698801Y-69301902D01*
X138698843Y-69154857D01*
X138698843Y-67993102D01*
X138574503Y-67944888D01*
X138483941Y-67902848D01*
X138390662Y-67848075D01*
X138305063Y-67787857D01*
X138237545Y-67729482D01*
X138199453Y-67682057D01*
X138193879Y-67666686D01*
X138194213Y-67647236D01*
X138202620Y-67619932D01*
X138221264Y-67581001D01*
X138252309Y-67526670D01*
X138297918Y-67453165D01*
X138360257Y-67356714D01*
X138441490Y-67233542D01*
X138543779Y-67079876D01*
X138551137Y-67068849D01*
X138642405Y-66932653D01*
X138726494Y-66808254D01*
X138800591Y-66699730D01*
X138861884Y-66611158D01*
X138907559Y-66546615D01*
X138934804Y-66510177D01*
X138941233Y-66503487D01*
X138960270Y-66517090D01*
G37*
G36*
X120758418Y-64302747D02*
G01*
X120812374Y-64348801D01*
X120859610Y-64384637D01*
X120876368Y-64395199D01*
X120902874Y-64406501D01*
X120964448Y-64431180D01*
X121057234Y-64467734D01*
X121177372Y-64514663D01*
X121321006Y-64570464D01*
X121484277Y-64633635D01*
X121663327Y-64702676D01*
X121854298Y-64776084D01*
X121898429Y-64793016D01*
X122125913Y-64880062D01*
X122318215Y-64953108D01*
X122478940Y-65013391D01*
X122611694Y-65062152D01*
X122720081Y-65100627D01*
X122807707Y-65130056D01*
X122878177Y-65151677D01*
X122935097Y-65166729D01*
X122982071Y-65176450D01*
X123022705Y-65182079D01*
X123034032Y-65183141D01*
X123191189Y-65184089D01*
X123344481Y-65162556D01*
X123478942Y-65120966D01*
X123511822Y-65105731D01*
X123594388Y-65048082D01*
X123670598Y-64967611D01*
X123729119Y-64878161D01*
X123756031Y-64807486D01*
X123775266Y-64721944D01*
X123777498Y-64821440D01*
X123760440Y-64975507D01*
X123703348Y-65125533D01*
X123607808Y-65269632D01*
X123475402Y-65405923D01*
X123307716Y-65532521D01*
X123106334Y-65647544D01*
X123066070Y-65667139D01*
X122862912Y-65763584D01*
X122862912Y-67015581D01*
X122862912Y-68267577D01*
X122321745Y-68598820D01*
X122187737Y-68681595D01*
X122066780Y-68757757D01*
X121963053Y-68824558D01*
X121880738Y-68879249D01*
X121824015Y-68919081D01*
X121797063Y-68941307D01*
X121795617Y-68944721D01*
X121818258Y-68955758D01*
X121874738Y-68979654D01*
X121959979Y-69014366D01*
X122068903Y-69057854D01*
X122196431Y-69108074D01*
X122337485Y-69162984D01*
X122361053Y-69172101D01*
X122545808Y-69242744D01*
X122696786Y-69298254D01*
X122818649Y-69339600D01*
X122916058Y-69367750D01*
X122993674Y-69383672D01*
X123056158Y-69388334D01*
X123108171Y-69382707D01*
X123154374Y-69367756D01*
X123197119Y-69345808D01*
X123257952Y-69295344D01*
X123312328Y-69224984D01*
X123350417Y-69149776D01*
X123362651Y-69092453D01*
X123371723Y-69055867D01*
X123386380Y-69045570D01*
X123398121Y-69062348D01*
X123403122Y-69114454D01*
X123401589Y-69204551D01*
X123400489Y-69227892D01*
X123377152Y-69396879D01*
X123323567Y-69544567D01*
X123236703Y-69675855D01*
X123113533Y-69795645D01*
X122997832Y-69879379D01*
X122862912Y-69967282D01*
X122863028Y-71605729D01*
X122863333Y-71942200D01*
X122864190Y-72244376D01*
X122865587Y-72511332D01*
X122867513Y-72742144D01*
X122869956Y-72935886D01*
X122872905Y-73091633D01*
X122876347Y-73208460D01*
X122880272Y-73285442D01*
X122884546Y-73321231D01*
X122908569Y-73382146D01*
X122947432Y-73456325D01*
X122976786Y-73503553D01*
X123009932Y-73558214D01*
X123026157Y-73596422D01*
X123022988Y-73609232D01*
X122951727Y-73615353D01*
X122855366Y-73630019D01*
X122748890Y-73650387D01*
X122647285Y-73673611D01*
X122571198Y-73694988D01*
X122369333Y-73775134D01*
X122152797Y-73888463D01*
X121926500Y-74031372D01*
X121695354Y-74200256D01*
X121464271Y-74391514D01*
X121238161Y-74601542D01*
X121021935Y-74826737D01*
X121008997Y-74841082D01*
X120935332Y-74922952D01*
X120869128Y-74996324D01*
X120816652Y-75054268D01*
X120784169Y-75089855D01*
X120779902Y-75094451D01*
X120770330Y-75102481D01*
X120757087Y-75106848D01*
X120736859Y-75106278D01*
X120706332Y-75099500D01*
X120662193Y-75085239D01*
X120601128Y-75062225D01*
X120519823Y-75029183D01*
X120414966Y-74984842D01*
X120283241Y-74927929D01*
X120121336Y-74857170D01*
X119925938Y-74771294D01*
X119839991Y-74733453D01*
X119646672Y-74648189D01*
X119455954Y-74563832D01*
X119273109Y-74482733D01*
X119103415Y-74407242D01*
X118952146Y-74339707D01*
X118824577Y-74282479D01*
X118725984Y-74237908D01*
X118674725Y-74214429D01*
X118458453Y-74118565D01*
X118267352Y-74043968D01*
X118092343Y-73988163D01*
X117924348Y-73948676D01*
X117754289Y-73923029D01*
X117573087Y-73908750D01*
X117549540Y-73907656D01*
X117314713Y-73908869D01*
X117109155Y-73935317D01*
X116927858Y-73988528D01*
X116765817Y-74070031D01*
X116618024Y-74181355D01*
X116600055Y-74197673D01*
X116481978Y-74324605D01*
X116394605Y-74461171D01*
X116335422Y-74613955D01*
X116301912Y-74789536D01*
X116291562Y-74994496D01*
X116291602Y-75004881D01*
X116300515Y-75200170D01*
X116326816Y-75370858D01*
X116373700Y-75531525D01*
X116442303Y-75692494D01*
X116539756Y-75853139D01*
X116668207Y-76002717D01*
X116817303Y-76130747D01*
X116963702Y-76220441D01*
X117037286Y-76259891D01*
X117072829Y-76285163D01*
X117071843Y-76295191D01*
X117035843Y-76288912D01*
X116966345Y-76265259D01*
X116923934Y-76248412D01*
X116738454Y-76149954D01*
X116568847Y-76015056D01*
X116417913Y-75846846D01*
X116288447Y-75648455D01*
X116183249Y-75423010D01*
X116181243Y-75417807D01*
X116159447Y-75358956D01*
X116143899Y-75308120D01*
X116133588Y-75256495D01*
X116127501Y-75195280D01*
X116124629Y-75115670D01*
X116123958Y-75008865D01*
X116124221Y-74921534D01*
X116125529Y-74785832D01*
X116128818Y-74681336D01*
X116135175Y-74597588D01*
X116145685Y-74524128D01*
X116161434Y-74450500D01*
X116180898Y-74375768D01*
X116278304Y-74087885D01*
X116404932Y-73829630D01*
X116560366Y-73601333D01*
X116744192Y-73403324D01*
X116955992Y-73235935D01*
X117195352Y-73099496D01*
X117461857Y-72994337D01*
X117755090Y-72920789D01*
X118060333Y-72880314D01*
X118170905Y-72872203D01*
X118265143Y-72867933D01*
X118354970Y-72867704D01*
X118452311Y-72871715D01*
X118569089Y-72880165D01*
X118691164Y-72890861D01*
X118801368Y-72900924D01*
X118795348Y-71968202D01*
X118793868Y-71746642D01*
X118792415Y-71562822D01*
X118792311Y-71553236D01*
X120112461Y-71553236D01*
X120112477Y-71870646D01*
X120112566Y-72148985D01*
X120112784Y-72390854D01*
X120113191Y-72598856D01*
X120113844Y-72775593D01*
X120114803Y-72923667D01*
X120116125Y-73045679D01*
X120117869Y-73144233D01*
X120120093Y-73221929D01*
X120122855Y-73281371D01*
X120126215Y-73325160D01*
X120130229Y-73355897D01*
X120134957Y-73376186D01*
X120140456Y-73388629D01*
X120146786Y-73395827D01*
X120153870Y-73400310D01*
X120185922Y-73414515D01*
X120250180Y-73440633D01*
X120341127Y-73476567D01*
X120453242Y-73520223D01*
X120581009Y-73569505D01*
X120718908Y-73622318D01*
X120861420Y-73676566D01*
X121003028Y-73730155D01*
X121138212Y-73780988D01*
X121261453Y-73826971D01*
X121367235Y-73866008D01*
X121450036Y-73896004D01*
X121504340Y-73914864D01*
X121524151Y-73920584D01*
X121528859Y-73912980D01*
X121533002Y-73888420D01*
X121536611Y-73844732D01*
X121539716Y-73779745D01*
X121542350Y-73691288D01*
X121544543Y-73577189D01*
X121546325Y-73435278D01*
X121547730Y-73263382D01*
X121548786Y-73059331D01*
X121549526Y-72820954D01*
X121549981Y-72546080D01*
X121550181Y-72232536D01*
X121550197Y-72101547D01*
X121550197Y-70281724D01*
X120868166Y-70014657D01*
X120707946Y-69952051D01*
X120559027Y-69894115D01*
X120426108Y-69842657D01*
X120313888Y-69799486D01*
X120227065Y-69766411D01*
X120170337Y-69745239D01*
X120149298Y-69737956D01*
X120142884Y-69737846D01*
X120137259Y-69742785D01*
X120132372Y-69755317D01*
X120128171Y-69777987D01*
X120124604Y-69813340D01*
X120121620Y-69863922D01*
X120119167Y-69932277D01*
X120117194Y-70020952D01*
X120115648Y-70132490D01*
X120114479Y-70269438D01*
X120113633Y-70434340D01*
X120113061Y-70629741D01*
X120112710Y-70858187D01*
X120112529Y-71122223D01*
X120112465Y-71424394D01*
X120112461Y-71553236D01*
X118792311Y-71553236D01*
X118790790Y-71412807D01*
X118788794Y-71292664D01*
X118786226Y-71198458D01*
X118782887Y-71126258D01*
X118778576Y-71072127D01*
X118773096Y-71032134D01*
X118766245Y-71002344D01*
X118757824Y-70978824D01*
X118747634Y-70957640D01*
X118743672Y-70950160D01*
X118658245Y-70834140D01*
X118539774Y-70743228D01*
X118425624Y-70690344D01*
X118360956Y-70664731D01*
X118315511Y-70642849D01*
X118299664Y-70630177D01*
X118317876Y-70616991D01*
X118365197Y-70597117D01*
X118419475Y-70578687D01*
X118523085Y-70530533D01*
X118622053Y-70456566D01*
X118705546Y-70367093D01*
X118762728Y-70272422D01*
X118774137Y-70241266D01*
X118778850Y-70215208D01*
X118783005Y-70169176D01*
X118786628Y-70101131D01*
X118789746Y-70009038D01*
X118792387Y-69890859D01*
X118794576Y-69744556D01*
X118796340Y-69568093D01*
X118797706Y-69359432D01*
X118798702Y-69116537D01*
X118799353Y-68837369D01*
X118799686Y-68519893D01*
X118799746Y-68291603D01*
X118799760Y-67959215D01*
X118799695Y-67665841D01*
X118799488Y-67491828D01*
X120112461Y-67491828D01*
X120112660Y-67812820D01*
X120113243Y-68111361D01*
X120114191Y-68385466D01*
X120115485Y-68633145D01*
X120117106Y-68852412D01*
X120119034Y-69041279D01*
X120121251Y-69197758D01*
X120123736Y-69319863D01*
X120126471Y-69405605D01*
X120129437Y-69452997D01*
X120131549Y-69462305D01*
X120153405Y-69447847D01*
X120195045Y-69409325D01*
X120248786Y-69354017D01*
X120269001Y-69332076D01*
X120380567Y-69202096D01*
X120500938Y-69049639D01*
X120619367Y-68889030D01*
X120725108Y-68734596D01*
X120769116Y-68665384D01*
X120868526Y-68503984D01*
X120955535Y-68584187D01*
X120991117Y-68614092D01*
X121033383Y-68642726D01*
X121087821Y-68672677D01*
X121159922Y-68706536D01*
X121255175Y-68746895D01*
X121379072Y-68796342D01*
X121524298Y-68852559D01*
X121529600Y-68847151D01*
X121534109Y-68824884D01*
X121537861Y-68783274D01*
X121540894Y-68719833D01*
X121543244Y-68632076D01*
X121544950Y-68517517D01*
X121546049Y-68373670D01*
X121546577Y-68198048D01*
X121546572Y-67988166D01*
X121546072Y-67741538D01*
X121545135Y-67461494D01*
X121539778Y-66060377D01*
X120870401Y-65804919D01*
X120711004Y-65744168D01*
X120562615Y-65687766D01*
X120430076Y-65637543D01*
X120318232Y-65595328D01*
X120231923Y-65562949D01*
X120175994Y-65542235D01*
X120156742Y-65535406D01*
X120112461Y-65521351D01*
X120112461Y-67491828D01*
X118799488Y-67491828D01*
X118799389Y-67408823D01*
X118798682Y-67185502D01*
X118797411Y-66993218D01*
X118795416Y-66829313D01*
X118792535Y-66691127D01*
X118788607Y-66576002D01*
X118783471Y-66481279D01*
X118776965Y-66404299D01*
X118768928Y-66342402D01*
X118759199Y-66292930D01*
X118747616Y-66253224D01*
X118734018Y-66220625D01*
X118718243Y-66192473D01*
X118700132Y-66166111D01*
X118679521Y-66138879D01*
X118668251Y-66124136D01*
X118632732Y-66084569D01*
X118570934Y-66023399D01*
X118488467Y-65945852D01*
X118390938Y-65857157D01*
X118283954Y-65762541D01*
X118232712Y-65718125D01*
X118089327Y-65595642D01*
X117997466Y-65521351D01*
X117971648Y-65500471D01*
X117873970Y-65432533D01*
X117790588Y-65391754D01*
X117715796Y-65378056D01*
X117643889Y-65391363D01*
X117569163Y-65431600D01*
X117485911Y-65498689D01*
X117388430Y-65592554D01*
X117278505Y-65705363D01*
X117035619Y-65967047D01*
X116827434Y-66213957D01*
X116651383Y-66449969D01*
X116504898Y-66678955D01*
X116385412Y-66904791D01*
X116290357Y-67131350D01*
X116245588Y-67264028D01*
X116211634Y-67378024D01*
X116189153Y-67467702D01*
X116175719Y-67548027D01*
X116168902Y-67633966D01*
X116166273Y-67740488D01*
X116166140Y-67753692D01*
X116169299Y-67917505D01*
X116183886Y-68054019D01*
X116212487Y-68176661D01*
X116257688Y-68298856D01*
X116281195Y-68351042D01*
X116371157Y-68495453D01*
X116491311Y-68615153D01*
X116636592Y-68707651D01*
X116801935Y-68770457D01*
X116982275Y-68801077D01*
X117172547Y-68797022D01*
X117184787Y-68795543D01*
X117389419Y-68751561D01*
X117577754Y-68672455D01*
X117754037Y-68556013D01*
X117900875Y-68422649D01*
X117948696Y-68375492D01*
X117974922Y-68353970D01*
X117976788Y-68360143D01*
X117969764Y-68371311D01*
X117868839Y-68489347D01*
X117735752Y-68600532D01*
X117580011Y-68698741D01*
X117411122Y-68777850D01*
X117265237Y-68825268D01*
X117071666Y-68854473D01*
X116882380Y-68844089D01*
X116702109Y-68796195D01*
X116535582Y-68712873D01*
X116387529Y-68596204D01*
X116262680Y-68448269D01*
X116208956Y-68360520D01*
X116170279Y-68270662D01*
X116133971Y-68152998D01*
X116103184Y-68021392D01*
X116081067Y-67889703D01*
X116070770Y-67771794D01*
X116070405Y-67750784D01*
X116077949Y-67630334D01*
X116099505Y-67484011D01*
X116132736Y-67324279D01*
X116175307Y-67163599D01*
X116188716Y-67119711D01*
X116281000Y-66879292D01*
X116409497Y-66625347D01*
X116572001Y-66360498D01*
X116766307Y-66087363D01*
X116990209Y-65808564D01*
X117241501Y-65526721D01*
X117517978Y-65244455D01*
X117817434Y-64964385D01*
X118137664Y-64689133D01*
X118430591Y-64456276D01*
X118526145Y-64383799D01*
X118610698Y-64321095D01*
X118678582Y-64272254D01*
X118724124Y-64241367D01*
X118741119Y-64232281D01*
X118763992Y-64248716D01*
X118770245Y-64260594D01*
X118787578Y-64281178D01*
X118831181Y-64325673D01*
X118896899Y-64390196D01*
X118980578Y-64470864D01*
X119078064Y-64563793D01*
X119185202Y-64665101D01*
X119297840Y-64770903D01*
X119411821Y-64877317D01*
X119522993Y-64980458D01*
X119627200Y-65076445D01*
X119720290Y-65161392D01*
X119798107Y-65231418D01*
X119856498Y-65282638D01*
X119891309Y-65311169D01*
X119899028Y-65315792D01*
X119922963Y-65301006D01*
X119968479Y-65260635D01*
X120029947Y-65200660D01*
X120101737Y-65127059D01*
X120178221Y-65045813D01*
X120253770Y-64962903D01*
X120322756Y-64884308D01*
X120379549Y-64816008D01*
X120418521Y-64763984D01*
X120418767Y-64763618D01*
X120493446Y-64643736D01*
X120562918Y-64516593D01*
X120619942Y-64396209D01*
X120653214Y-64309676D01*
X120678776Y-64230795D01*
X120758418Y-64302747D01*
G37*
D11*
%TO.C,U9*%
X109000000Y-108000000D02*
X108000000Y-108000000D01*
X109000000Y-108000000D02*
X109000000Y-107000000D01*
X109000000Y-116000000D02*
X108000000Y-116000000D01*
X109000000Y-116000000D02*
X109000000Y-117000000D01*
X117000000Y-108000000D02*
X117000000Y-107000000D01*
X117000000Y-108000000D02*
X118000000Y-108000000D01*
X117000000Y-116000000D02*
X117000000Y-117000000D01*
X117000000Y-116000000D02*
X118000000Y-116000000D01*
D12*
X111670000Y-113825000D02*
X109915000Y-113825000D01*
X109915000Y-112385000D01*
X111670000Y-112385000D01*
X111670000Y-113825000D01*
G36*
X111670000Y-113825000D02*
G01*
X109915000Y-113825000D01*
X109915000Y-112385000D01*
X111670000Y-112385000D01*
X111670000Y-113825000D01*
G37*
X111675000Y-115790000D02*
X109920000Y-115790000D01*
X109920000Y-114350000D01*
X111675000Y-114350000D01*
X111675000Y-115790000D01*
G36*
X111675000Y-115790000D02*
G01*
X109920000Y-115790000D01*
X109920000Y-114350000D01*
X111675000Y-114350000D01*
X111675000Y-115790000D01*
G37*
X111677500Y-109910000D02*
X109922500Y-109910000D01*
X109922500Y-108205000D01*
X111677500Y-108205000D01*
X111677500Y-109910000D01*
G36*
X111677500Y-109910000D02*
G01*
X109922500Y-109910000D01*
X109922500Y-108205000D01*
X111677500Y-108205000D01*
X111677500Y-109910000D01*
G37*
X111680000Y-111865000D02*
X109925000Y-111865000D01*
X109925000Y-110425000D01*
X111680000Y-110425000D01*
X111680000Y-111865000D01*
G36*
X111680000Y-111865000D02*
G01*
X109925000Y-111865000D01*
X109925000Y-110425000D01*
X111680000Y-110425000D01*
X111680000Y-111865000D01*
G37*
X113880000Y-109910000D02*
X112100000Y-109910000D01*
X112100000Y-108210000D01*
X113880000Y-108210000D01*
X113880000Y-109910000D01*
G36*
X113880000Y-109910000D02*
G01*
X112100000Y-109910000D01*
X112100000Y-108210000D01*
X113880000Y-108210000D01*
X113880000Y-109910000D01*
G37*
X113880000Y-113815000D02*
X112100000Y-113815000D01*
X112100000Y-112375000D01*
X113880000Y-112375000D01*
X113880000Y-113815000D01*
G36*
X113880000Y-113815000D02*
G01*
X112100000Y-113815000D01*
X112100000Y-112375000D01*
X113880000Y-112375000D01*
X113880000Y-113815000D01*
G37*
X113890000Y-111865000D02*
X112110000Y-111865000D01*
X112110000Y-110425000D01*
X113890000Y-110425000D01*
X113890000Y-111865000D01*
G36*
X113890000Y-111865000D02*
G01*
X112110000Y-111865000D01*
X112110000Y-110425000D01*
X113890000Y-110425000D01*
X113890000Y-111865000D01*
G37*
X113890000Y-115790000D02*
X112110000Y-115790000D01*
X112110000Y-114350000D01*
X113890000Y-114350000D01*
X113890000Y-115790000D01*
G36*
X113890000Y-115790000D02*
G01*
X112110000Y-115790000D01*
X112110000Y-114350000D01*
X113890000Y-114350000D01*
X113890000Y-115790000D01*
G37*
X116062500Y-109905000D02*
X114307500Y-109905000D01*
X114307500Y-108210000D01*
X116062500Y-108210000D01*
X116062500Y-109905000D01*
G36*
X116062500Y-109905000D02*
G01*
X114307500Y-109905000D01*
X114307500Y-108210000D01*
X116062500Y-108210000D01*
X116062500Y-109905000D01*
G37*
X116065000Y-113815000D02*
X114310000Y-113815000D01*
X114310000Y-112375000D01*
X116065000Y-112375000D01*
X116065000Y-113815000D01*
G36*
X116065000Y-113815000D02*
G01*
X114310000Y-113815000D01*
X114310000Y-112375000D01*
X116065000Y-112375000D01*
X116065000Y-113815000D01*
G37*
X116075000Y-115790000D02*
X114320000Y-115790000D01*
X114320000Y-114350000D01*
X116075000Y-114350000D01*
X116075000Y-115790000D01*
G36*
X116075000Y-115790000D02*
G01*
X114320000Y-115790000D01*
X114320000Y-114350000D01*
X116075000Y-114350000D01*
X116075000Y-115790000D01*
G37*
X116077500Y-111865000D02*
X114322500Y-111865000D01*
X114322500Y-110425000D01*
X116077500Y-110425000D01*
X116077500Y-111865000D01*
G36*
X116077500Y-111865000D02*
G01*
X114322500Y-111865000D01*
X114322500Y-110425000D01*
X116077500Y-110425000D01*
X116077500Y-111865000D01*
G37*
D11*
%TO.C,U10*%
X145000000Y-108000000D02*
X144000000Y-108000000D01*
X145000000Y-108000000D02*
X145000000Y-107000000D01*
X145000000Y-116000000D02*
X144000000Y-116000000D01*
X145000000Y-116000000D02*
X145000000Y-117000000D01*
X153000000Y-108000000D02*
X153000000Y-107000000D01*
X153000000Y-108000000D02*
X154000000Y-108000000D01*
X153000000Y-116000000D02*
X153000000Y-117000000D01*
X153000000Y-116000000D02*
X154000000Y-116000000D01*
D12*
X147670000Y-113825000D02*
X145915000Y-113825000D01*
X145915000Y-112385000D01*
X147670000Y-112385000D01*
X147670000Y-113825000D01*
G36*
X147670000Y-113825000D02*
G01*
X145915000Y-113825000D01*
X145915000Y-112385000D01*
X147670000Y-112385000D01*
X147670000Y-113825000D01*
G37*
X147675000Y-115790000D02*
X145920000Y-115790000D01*
X145920000Y-114350000D01*
X147675000Y-114350000D01*
X147675000Y-115790000D01*
G36*
X147675000Y-115790000D02*
G01*
X145920000Y-115790000D01*
X145920000Y-114350000D01*
X147675000Y-114350000D01*
X147675000Y-115790000D01*
G37*
X147677500Y-109910000D02*
X145922500Y-109910000D01*
X145922500Y-108205000D01*
X147677500Y-108205000D01*
X147677500Y-109910000D01*
G36*
X147677500Y-109910000D02*
G01*
X145922500Y-109910000D01*
X145922500Y-108205000D01*
X147677500Y-108205000D01*
X147677500Y-109910000D01*
G37*
X147680000Y-111865000D02*
X145925000Y-111865000D01*
X145925000Y-110425000D01*
X147680000Y-110425000D01*
X147680000Y-111865000D01*
G36*
X147680000Y-111865000D02*
G01*
X145925000Y-111865000D01*
X145925000Y-110425000D01*
X147680000Y-110425000D01*
X147680000Y-111865000D01*
G37*
X149880000Y-109910000D02*
X148100000Y-109910000D01*
X148100000Y-108210000D01*
X149880000Y-108210000D01*
X149880000Y-109910000D01*
G36*
X149880000Y-109910000D02*
G01*
X148100000Y-109910000D01*
X148100000Y-108210000D01*
X149880000Y-108210000D01*
X149880000Y-109910000D01*
G37*
X149880000Y-113815000D02*
X148100000Y-113815000D01*
X148100000Y-112375000D01*
X149880000Y-112375000D01*
X149880000Y-113815000D01*
G36*
X149880000Y-113815000D02*
G01*
X148100000Y-113815000D01*
X148100000Y-112375000D01*
X149880000Y-112375000D01*
X149880000Y-113815000D01*
G37*
X149890000Y-111865000D02*
X148110000Y-111865000D01*
X148110000Y-110425000D01*
X149890000Y-110425000D01*
X149890000Y-111865000D01*
G36*
X149890000Y-111865000D02*
G01*
X148110000Y-111865000D01*
X148110000Y-110425000D01*
X149890000Y-110425000D01*
X149890000Y-111865000D01*
G37*
X149890000Y-115790000D02*
X148110000Y-115790000D01*
X148110000Y-114350000D01*
X149890000Y-114350000D01*
X149890000Y-115790000D01*
G36*
X149890000Y-115790000D02*
G01*
X148110000Y-115790000D01*
X148110000Y-114350000D01*
X149890000Y-114350000D01*
X149890000Y-115790000D01*
G37*
X152062500Y-109905000D02*
X150307500Y-109905000D01*
X150307500Y-108210000D01*
X152062500Y-108210000D01*
X152062500Y-109905000D01*
G36*
X152062500Y-109905000D02*
G01*
X150307500Y-109905000D01*
X150307500Y-108210000D01*
X152062500Y-108210000D01*
X152062500Y-109905000D01*
G37*
X152065000Y-113815000D02*
X150310000Y-113815000D01*
X150310000Y-112375000D01*
X152065000Y-112375000D01*
X152065000Y-113815000D01*
G36*
X152065000Y-113815000D02*
G01*
X150310000Y-113815000D01*
X150310000Y-112375000D01*
X152065000Y-112375000D01*
X152065000Y-113815000D01*
G37*
X152075000Y-115790000D02*
X150320000Y-115790000D01*
X150320000Y-114350000D01*
X152075000Y-114350000D01*
X152075000Y-115790000D01*
G36*
X152075000Y-115790000D02*
G01*
X150320000Y-115790000D01*
X150320000Y-114350000D01*
X152075000Y-114350000D01*
X152075000Y-115790000D01*
G37*
X152077500Y-111865000D02*
X150322500Y-111865000D01*
X150322500Y-110425000D01*
X152077500Y-110425000D01*
X152077500Y-111865000D01*
G36*
X152077500Y-111865000D02*
G01*
X150322500Y-111865000D01*
X150322500Y-110425000D01*
X152077500Y-110425000D01*
X152077500Y-111865000D01*
G37*
%TD*%
D13*
%TO.C,FID4*%
X153750000Y-41460000D03*
%TD*%
%TO.C,FID3*%
X154700000Y-148500000D03*
%TD*%
%TO.C,FID2*%
X106833200Y-148440000D03*
%TD*%
%TO.C,FID1*%
X107652800Y-39782000D03*
%TD*%
D14*
%TO.C,U9*%
X109084000Y-108500000D03*
X109084000Y-109000000D03*
X109084000Y-109500000D03*
X109084000Y-110000000D03*
X109084000Y-110500000D03*
X109084000Y-111000000D03*
X109084000Y-111500000D03*
X109084000Y-112000000D03*
X109084000Y-112500000D03*
X109084000Y-113000000D03*
X109084000Y-113500000D03*
X109084000Y-114000000D03*
X109084000Y-114500000D03*
X109084000Y-115000000D03*
X109084000Y-115500000D03*
X116916000Y-115500000D03*
X116916000Y-115000000D03*
X116916000Y-114500000D03*
X116916000Y-114000000D03*
X116916000Y-113500000D03*
X116916000Y-113000000D03*
X116916000Y-112500000D03*
X116916000Y-112000000D03*
X116916000Y-111500000D03*
X116916000Y-111000000D03*
X116916000Y-110500000D03*
X116916000Y-110000000D03*
X116916000Y-109500000D03*
X116916000Y-109000000D03*
X116916000Y-108500000D03*
%TD*%
D15*
%TO.C,H4*%
X99600000Y-146500000D03*
X100302944Y-144802944D03*
X100302944Y-148197056D03*
X102000000Y-144100000D03*
D16*
X102000000Y-146500000D03*
D15*
X102000000Y-148900000D03*
X103697056Y-144802944D03*
X103697056Y-148197056D03*
X104400000Y-146500000D03*
%TD*%
D17*
%TO.C,J7*%
X128100600Y-148498852D03*
D18*
X133180600Y-146338851D03*
X130640600Y-146338851D03*
X128100600Y-146338851D03*
X125560600Y-146338851D03*
%TD*%
D14*
%TO.C,U10*%
X145084000Y-108500000D03*
X145084000Y-109000000D03*
X145084000Y-109500000D03*
X145084000Y-110000000D03*
X145084000Y-110500000D03*
X145084000Y-111000000D03*
X145084000Y-111500000D03*
X145084000Y-112000000D03*
X145084000Y-112500000D03*
X145084000Y-113000000D03*
X145084000Y-113500000D03*
X145084000Y-114000000D03*
X145084000Y-114500000D03*
X145084000Y-115000000D03*
X145084000Y-115500000D03*
X152916000Y-115500000D03*
X152916000Y-115000000D03*
X152916000Y-114500000D03*
X152916000Y-114000000D03*
X152916000Y-113500000D03*
X152916000Y-113000000D03*
X152916000Y-112500000D03*
X152916000Y-112000000D03*
X152916000Y-111500000D03*
X152916000Y-111000000D03*
X152916000Y-110500000D03*
X152916000Y-110000000D03*
X152916000Y-109500000D03*
X152916000Y-109000000D03*
X152916000Y-108500000D03*
%TD*%
D15*
%TO.C,H2*%
X99600000Y-41500000D03*
X100302944Y-39802944D03*
X100302944Y-43197056D03*
X102000000Y-39100000D03*
D16*
X102000000Y-41500000D03*
D15*
X102000000Y-43900000D03*
X103697056Y-39802944D03*
X103697056Y-43197056D03*
X104400000Y-41500000D03*
%TD*%
%TO.C,H3*%
X157600000Y-146500000D03*
X158302944Y-144802944D03*
X158302944Y-148197056D03*
X160000000Y-144100000D03*
D16*
X160000000Y-146500000D03*
D15*
X160000000Y-148900000D03*
X161697056Y-144802944D03*
X161697056Y-148197056D03*
X162400000Y-146500000D03*
%TD*%
D19*
%TO.C,J3*%
X148200000Y-40550000D03*
D20*
X147800000Y-43090000D03*
X148200000Y-45630000D03*
X147800000Y-48170000D03*
%TD*%
D15*
%TO.C,H1*%
X157600000Y-41500000D03*
X158302944Y-39802944D03*
X158302944Y-43197056D03*
X160000000Y-39100000D03*
D16*
X160000000Y-41500000D03*
D15*
X160000000Y-43900000D03*
X161697056Y-39802944D03*
X161697056Y-43197056D03*
X162400000Y-41500000D03*
%TD*%
D21*
%TO.C,J8*%
X115940000Y-42465000D03*
X110860000Y-43481000D03*
X110860000Y-41449000D03*
%TD*%
D22*
%TO.C,H6*%
X106000000Y-87000000D03*
%TD*%
%TO.C,H5*%
X156000000Y-87000000D03*
%TD*%
D23*
%TO.C,U4*%
X122280000Y-88650000D03*
X122280000Y-87250000D03*
X122280000Y-85850000D03*
X121000000Y-89650000D03*
X121000000Y-88650000D03*
X121000000Y-87250000D03*
X121000000Y-85850000D03*
X121000000Y-84850000D03*
X119720000Y-88650000D03*
X119720000Y-87250000D03*
X119720000Y-85850000D03*
%TD*%
D24*
%TO.C,U2*%
X106070001Y-124400000D03*
X104569999Y-124400000D03*
%TD*%
D25*
%TO.C,J1*%
X150350000Y-60250000D03*
X150350000Y-55250000D03*
D13*
X160350000Y-63250000D03*
X160350000Y-52250000D03*
%TD*%
D26*
%TO.C,J4*%
X119460000Y-44565000D03*
X125240000Y-44565000D03*
D27*
X118030000Y-40885000D03*
D28*
X118030000Y-45065000D03*
D27*
X126670000Y-40885000D03*
D28*
X126670000Y-45065000D03*
%TD*%
D23*
%TO.C,U1*%
X146630000Y-88650000D03*
X146630000Y-87250000D03*
X146630000Y-85850000D03*
X145350000Y-89650000D03*
X145350000Y-88650000D03*
X145350000Y-87250000D03*
X145350000Y-85850000D03*
X145350000Y-84850000D03*
X144070000Y-88650000D03*
X144070000Y-87250000D03*
X144070000Y-85850000D03*
%TD*%
D22*
%TO.C,H8*%
X156000000Y-137000000D03*
%TD*%
D29*
%TO.C,J9*%
X142339500Y-142944000D03*
X147419500Y-142944000D03*
%TD*%
D22*
%TO.C,H7*%
X106000000Y-137000000D03*
%TD*%
G36*
X149230075Y-82179685D02*
G01*
X149275830Y-82232489D01*
X149287036Y-82283893D01*
X149295340Y-91876275D01*
X149275713Y-91943331D01*
X149222949Y-91989132D01*
X149171482Y-92000382D01*
X140748692Y-92010018D01*
X140681630Y-91990410D01*
X140635815Y-91937658D01*
X140624550Y-91886018D01*
X140624550Y-82284000D01*
X140644235Y-82216961D01*
X140697039Y-82171206D01*
X140748550Y-82160000D01*
X149163036Y-82160000D01*
X149230075Y-82179685D01*
G37*
G36*
X124745083Y-82179685D02*
G01*
X124790838Y-82232489D01*
X124802044Y-82283893D01*
X124810348Y-91876207D01*
X124790721Y-91943263D01*
X124737957Y-91989064D01*
X124686490Y-92000314D01*
X116204142Y-92010018D01*
X116137080Y-91990410D01*
X116091265Y-91937658D01*
X116080000Y-91886018D01*
X116080000Y-82284000D01*
X116099685Y-82216961D01*
X116152489Y-82171206D01*
X116204000Y-82160000D01*
X124678044Y-82160000D01*
X124745083Y-82179685D01*
G37*
M02*
